M48
; DRILL file {KiCad 9.0.7} date 2026-04-10T12:37:27+0700
; FORMAT={-:-/ absolute / metric / decimal}
; #@! TF.CreationDate,2026-04-10T12:37:27+07:00
; #@! TF.GenerationSoftware,Kicad,Pcbnew,9.0.7
; #@! TF.FileFunction,Plated,1,2,PTH
FMAT,2
METRIC
; #@! TA.AperFunction,Plated,PTH,ViaDrill
T1C0.250
; #@! TA.AperFunction,Plated,PTH,ViaDrill
T2C0.300
; #@! TA.AperFunction,Plated,PTH,ComponentDrill
T3C0.600
; #@! TA.AperFunction,Plated,PTH,ComponentDrill
T4C0.700
%
G90
G05
T1
X193.7Y-75.5
X193.8Y-68.2
X193.8Y-70.3
X193.8Y-72.5
X194.0Y-76.7
X194.0Y-81.5
X194.0Y-88.8
X194.0Y-93.35
X194.0Y-98.5
X194.013Y-86.3
X194.8Y-72.5
X194.8Y-75.5
X194.9Y-68.2
X194.9Y-70.3
X195.0Y-106.0
X195.0Y-108.0
X195.2Y-100.5
X196.39Y-88.84
X196.75Y-64.65
X196.75Y-65.4
X197.5Y-64.65
X197.5Y-65.4
X197.8Y-103.0
X198.2Y-74.5
X198.2Y-75.5
X199.0Y-100.5
X199.2Y-74.5
X199.2Y-75.5
X200.067Y-91.15
X200.067Y-91.87
X200.107Y-84.06
X200.107Y-84.78
X200.67Y-111.29
X200.68Y-109.58
X200.69Y-108.13
X200.79Y-91.15
X200.79Y-91.87
X200.83Y-84.06
X200.83Y-84.78
X201.24Y-89.37
X201.287Y-86.09
X201.287Y-87.89
X201.5Y-69.0
X201.5Y-73.0
X201.55Y-67.0
X202.05Y-105.9
X202.23Y-98.71
X202.23Y-100.71
X202.357Y-89.37
X202.5Y-67.0
X202.74Y-108.16
X202.75Y-109.58
X203.0Y-91.5
X203.23Y-97.71
X203.23Y-99.71
X203.23Y-101.46
X203.48Y-89.37
X203.5Y-67.0
X203.5Y-71.0
X204.45Y-67.0
X204.54Y-89.37
X205.5Y-67.025
X205.5Y-69.0
X205.5Y-73.0
X205.5Y-79.8
X205.89Y-106.137
X206.239Y-104.557
X206.246Y-103.848
X206.5Y-67.0
X206.655Y-104.188
X206.905Y-103.307
X206.96Y-97.33
X207.088Y-103.843
X207.09Y-104.56
X207.5Y-67.0
X207.5Y-71.0
X207.972Y-110.627
X208.06Y-103.12
X208.07Y-104.62
X208.55Y-67.0
X208.65Y-111.89
X208.775Y-90.99
X209.0Y-89.85
X209.5Y-69.0
X209.5Y-73.0
X209.525Y-67.0
X209.62Y-106.72
X209.65Y-86.9
X209.65Y-89.1
X209.65Y-110.89
X210.4Y-111.89
X210.5Y-87.0
X210.5Y-89.0
X211.4Y-110.89
X211.5Y-87.0
X211.5Y-89.0
X212.0Y-74.5
X212.0Y-75.5
X212.0Y-76.5
X212.0Y-81.3
X212.15Y-111.91
X212.5Y-87.0
X212.75Y-99.5
X213.0Y-74.5
X213.0Y-75.5
X213.0Y-76.5
X213.15Y-110.91
X213.429Y-106.137
X213.449Y-105.387
X213.5Y-98.5
X213.56Y-67.82
X213.615Y-103.44
X213.65Y-63.65
X213.65Y-64.4
X213.65Y-65.2
X213.75Y-72.8
X213.823Y-105.762
X213.9Y-111.92
X214.19Y-105.387
X214.2Y-106.133
X214.225Y-89.55
X214.31Y-108.12
X214.4Y-63.65
X214.4Y-64.4
X214.4Y-65.2
X214.5Y-99.5
X214.84Y-77.39
X215.08Y-107.96
X215.4Y-79.15
X215.5Y-98.5
X215.6Y-74.2
X216.0Y-63.5
X216.0Y-66.5
X216.2Y-82.5
X216.5Y-99.5
X216.65Y-102.507
X216.872Y-87.024
X216.894Y-85.2
X216.894Y-88.8
X217.05Y-103.047
X217.45Y-76.05
X217.5Y-65.0
X217.5Y-68.0
X217.5Y-98.5
X218.1Y-101.097
X218.3Y-79.15
X218.5Y-99.5
X218.6Y-108.438
X218.694Y-85.2
X218.694Y-87.0
X218.694Y-88.8
X219.0Y-63.5
X219.0Y-66.5
X219.0Y-69.5
X219.5Y-98.5
X219.57Y-105.677
X219.87Y-95.33
X219.98Y-111.93
X220.3Y-109.137
X220.494Y-85.2
X220.494Y-87.0
X220.494Y-88.8
X220.5Y-65.0
X220.5Y-68.0
X220.5Y-70.7
X220.5Y-99.5
X220.737Y-93.877
X220.818Y-103.059
X220.98Y-110.94
X221.5Y-98.5
X221.68Y-102.876
X221.73Y-111.91
X221.8Y-73.0
X222.0Y-63.5
X222.0Y-69.45
X222.25Y-99.5
X222.73Y-110.96
X223.25Y-98.5
X223.48Y-111.92
X223.5Y-65.0
X223.5Y-68.0
X223.6Y-71.6
X223.711Y-86.0
X224.155Y-93.345
X224.25Y-99.5
X224.48Y-110.96
X224.75Y-98.5
X224.94Y-103.79
X225.0Y-63.5
X225.0Y-66.5
X225.0Y-69.5
X225.121Y-88.81
X225.48Y-111.92
X225.806Y-76.073
X225.98Y-110.96
X226.0Y-73.2
X226.5Y-65.0
X226.5Y-68.0
X226.63Y-90.51
X227.0Y-74.7
X227.2Y-82.0
X227.24Y-99.938
X227.24Y-100.737
X227.24Y-101.537
X227.24Y-102.337
X227.24Y-103.137
X227.24Y-103.938
X227.881Y-99.447
X228.0Y-63.5
X228.0Y-66.5
X228.0Y-69.5
X228.18Y-111.9
X228.321Y-83.3
X228.321Y-84.6
X228.321Y-90.5
X228.39Y-107.637
X228.681Y-99.447
X228.692Y-87.749
X229.47Y-73.49
X229.47Y-74.24
X229.481Y-99.447
X229.5Y-65.0
X229.5Y-68.0
X229.781Y-104.337
X229.79Y-111.94
X230.16Y-73.49
X230.16Y-74.24
X230.281Y-99.447
X230.5Y-78.1
X230.821Y-86.0
X230.821Y-87.0
X230.821Y-88.5
X230.821Y-90.0
X231.0Y-63.5
X231.081Y-99.447
X231.14Y-107.657
X231.881Y-99.447
X231.881Y-104.772
X232.156Y-106.722
X232.34Y-64.37
X232.36Y-99.957
X232.36Y-100.757
X232.36Y-101.557
X232.36Y-102.358
X232.36Y-103.157
X232.36Y-103.957
X233.08Y-85.2
X233.08Y-86.7
X233.08Y-88.45
X233.08Y-90.45
X233.08Y-92.45
X233.08Y-111.3
X233.09Y-94.52
X234.0Y-63.5
X234.0Y-70.1
X235.0Y-75.1
X235.0Y-80.2
X235.18Y-103.297
X235.38Y-86.71
X235.38Y-88.46
X235.38Y-90.46
X235.38Y-92.46
X235.5Y-65.0
X236.04Y-111.74
X236.07Y-104.487
X236.07Y-106.877
X236.5Y-79.6
X237.0Y-63.5
X237.0Y-67.4
X237.17Y-100.897
X237.17Y-110.397
X237.19Y-111.76
X237.29Y-107.637
X237.68Y-92.47
X239.0Y-67.85
X239.0Y-68.85
X239.0Y-69.85
X239.0Y-70.85
X239.0Y-75.55
X239.0Y-76.275
X239.0Y-77.05
X239.0Y-77.8
X239.0Y-78.55
X239.0Y-79.325
X239.0Y-80.05
X239.01Y-80.78
X239.155Y-86.281
X239.225Y-89.766
X239.253Y-87.772
X239.59Y-67.56
X239.725Y-89.746
X239.77Y-87.75
X239.825Y-85.486
X239.835Y-84.986
X240.09Y-105.237
X240.12Y-89.44
X240.565Y-86.876
X240.565Y-87.376
X240.575Y-85.876
X240.575Y-86.376
X240.59Y-67.56
X240.628Y-89.436
X240.95Y-107.11
X241.02Y-107.817
X241.04Y-100.087
X241.04Y-101.737
X241.137Y-89.436
X241.59Y-67.56
X241.64Y-89.436
T2
X195.89Y-95.25
X196.6Y-67.2
X196.9Y-94.575
X197.229Y-89.871
X197.278Y-85.94
X197.9Y-97.75
X198.63Y-93.92
X198.9Y-97.105
X203.85Y-102.33
X203.87Y-103.6
X203.88Y-104.86
X206.068Y-101.998
X206.598Y-80.81
X206.795Y-101.297
X206.805Y-84.0
X206.805Y-85.0
X206.805Y-92.5
X206.805Y-93.25
X209.825Y-91.05
X211.0Y-85.2
X211.0Y-86.2
X211.992Y-107.328
X212.643Y-96.691
X212.76Y-95.9
X214.076Y-77.931
X214.1Y-83.7
X214.42Y-92.286
X214.42Y-93.72
X214.42Y-95.16
X214.88Y-91.4
X215.722Y-107.277
X215.762Y-104.137
X216.45Y-91.661
X216.814Y-95.47
X217.8Y-95.56
X219.0Y-76.6
X219.75Y-75.75
X220.358Y-91.872
X220.65Y-75.35
X221.13Y-92.125
X221.49Y-106.438
X221.71Y-101.022
X221.824Y-96.007
X222.3Y-82.15
X222.496Y-77.85
X222.55Y-68.375
X223.009Y-82.842
X223.396Y-73.779
X223.396Y-77.85
X224.201Y-82.125
X224.621Y-85.954
X224.671Y-77.66
X225.25Y-91.43
X225.256Y-92.944
X225.73Y-98.53
X230.568Y-79.575
X230.78Y-64.99
X231.15Y-95.8
X231.78Y-64.98
X232.07Y-80.2
X232.258Y-76.112
X232.78Y-64.977
X233.095Y-77.175
X233.26Y-95.63
X233.26Y-96.54
X233.65Y-71.68
X234.25Y-89.1
X237.215Y-99.962
X237.29Y-104.337
X237.52Y-102.207
X237.99Y-106.087
T4
X198.6Y-108.25
X198.6Y-111.25
T3
G00X194.05Y-83.57
M15
G01X193.45Y-83.57
M16
G05
G00X194.05Y-92.21
M15
G01X193.45Y-92.21
M16
G05
G00X198.48Y-83.57
M15
G01X197.38Y-83.57
M16
G05
G00X198.48Y-92.21
M15
G01X197.38Y-92.21
M16
G05
M30
