%TF.GenerationSoftware,KiCad,Pcbnew,9.0.7*%
%TF.CreationDate,2026-04-10T12:37:24+07:00*%
%TF.ProjectId,anchor,616e6368-6f72-42e6-9b69-6361645f7063,rev?*%
%TF.SameCoordinates,Original*%
%TF.FileFunction,Copper,L2,Bot*%
%TF.FilePolarity,Positive*%
%FSLAX46Y46*%
G04 Gerber Fmt 4.6, Leading zero omitted, Abs format (unit mm)*
G04 Created by KiCad (PCBNEW 9.0.7) date 2026-04-10 12:37:24*
%MOMM*%
%LPD*%
G01*
G04 APERTURE LIST*
G04 Aperture macros list*
%AMRoundRect*
0 Rectangle with rounded corners*
0 $1 Rounding radius*
0 $2 $3 $4 $5 $6 $7 $8 $9 X,Y pos of 4 corners*
0 Add a 4 corners polygon primitive as box body*
4,1,4,$2,$3,$4,$5,$6,$7,$8,$9,$2,$3,0*
0 Add four circle primitives for the rounded corners*
1,1,$1+$1,$2,$3*
1,1,$1+$1,$4,$5*
1,1,$1+$1,$6,$7*
1,1,$1+$1,$8,$9*
0 Add four rect primitives between the rounded corners*
20,1,$1+$1,$2,$3,$4,$5,0*
20,1,$1+$1,$4,$5,$6,$7,0*
20,1,$1+$1,$6,$7,$8,$9,0*
20,1,$1+$1,$8,$9,$2,$3,0*%
G04 Aperture macros list end*
%TA.AperFunction,HeatsinkPad*%
%ADD10O,2.100000X1.000000*%
%TD*%
%TA.AperFunction,HeatsinkPad*%
%ADD11O,1.600000X1.000000*%
%TD*%
%TA.AperFunction,ComponentPad*%
%ADD12RoundRect,0.250000X0.550000X-0.550000X0.550000X0.550000X-0.550000X0.550000X-0.550000X-0.550000X0*%
%TD*%
%TA.AperFunction,ComponentPad*%
%ADD13C,1.600000*%
%TD*%
%TA.AperFunction,SMDPad,CuDef*%
%ADD14C,1.000000*%
%TD*%
%TA.AperFunction,SMDPad,CuDef*%
%ADD15R,1.000000X1.000000*%
%TD*%
%TA.AperFunction,ViaPad*%
%ADD16C,0.500000*%
%TD*%
%TA.AperFunction,ViaPad*%
%ADD17C,0.700000*%
%TD*%
%TA.AperFunction,ViaPad*%
%ADD18C,0.600000*%
%TD*%
%TA.AperFunction,Conductor*%
%ADD19C,0.250000*%
%TD*%
%TA.AperFunction,Conductor*%
%ADD20C,0.500000*%
%TD*%
%TA.AperFunction,Conductor*%
%ADD21C,0.600000*%
%TD*%
%TA.AperFunction,Conductor*%
%ADD22C,0.300000*%
%TD*%
G04 APERTURE END LIST*
D10*
%TO.P,J2,S1,SHIELD*%
%TO.N,GND*%
X197930000Y-83570000D03*
D11*
X193750000Y-83570000D03*
D10*
X197930000Y-92210000D03*
D11*
X193750000Y-92210000D03*
%TD*%
D12*
%TO.P,J10,1,Pin_1*%
%TO.N,GND*%
X198600000Y-111250000D03*
D13*
%TO.P,J10,2,Pin_2*%
%TO.N,+BATT*%
X198600000Y-108250000D03*
%TD*%
D14*
%TO.P,TP8,1,1*%
%TO.N,/SPI_SCK*%
X220660000Y-78700000D03*
%TD*%
D15*
%TO.P,TP4,1,1*%
%TO.N,GND*%
X226910000Y-76280000D03*
%TD*%
D14*
%TO.P,TP12,1,1*%
%TO.N,/SPI_MISO*%
X219680000Y-75650000D03*
%TD*%
%TO.P,TP10,1,1*%
%TO.N,/BLE_TX*%
X229310000Y-80680000D03*
%TD*%
%TO.P,TP9,1,1*%
%TO.N,/SPI_MOSI*%
X219000000Y-77590000D03*
%TD*%
%TO.P,TP13,1,1*%
%TO.N,/SPI_CS1*%
X214050000Y-78090000D03*
%TD*%
%TO.P,TP14,1,1*%
%TO.N,/BLE_RX*%
X229350000Y-78430000D03*
%TD*%
D16*
%TO.N,GND*%
X239590000Y-67560000D03*
X240590000Y-67560000D03*
X241590000Y-67560000D03*
X229790000Y-111940000D03*
X228180000Y-111900000D03*
X204540000Y-89370000D03*
X202356750Y-89370000D03*
X203480000Y-89370000D03*
X202230000Y-100710000D03*
X203230000Y-99710000D03*
X203230000Y-97710000D03*
X203230000Y-101460000D03*
X202230000Y-98710000D03*
X237680000Y-92470000D03*
X235380000Y-86710000D03*
X235380000Y-88460000D03*
X235380000Y-92460000D03*
X235380000Y-90460000D03*
X233080000Y-88450000D03*
X233080000Y-86700000D03*
X233080000Y-90450000D03*
X233080000Y-92450000D03*
X233080000Y-85200000D03*
X233090000Y-94520000D03*
X213615000Y-103440318D03*
X235180000Y-103297500D03*
X225000000Y-66500000D03*
X225480000Y-111920000D03*
X227240000Y-103937500D03*
X228390000Y-107637500D03*
X212150000Y-111910000D03*
X239000000Y-78550000D03*
X209000000Y-89850000D03*
X208550000Y-67000000D03*
X217500000Y-65000000D03*
X213650000Y-63650000D03*
X233080000Y-111300000D03*
X212000000Y-81300000D03*
X236040000Y-111740000D03*
X200830000Y-84780000D03*
X197800000Y-103000000D03*
X211500000Y-87000000D03*
X205500000Y-69000000D03*
X217500000Y-98500000D03*
X197500000Y-65400000D03*
X208070000Y-104620000D03*
X236070000Y-106877500D03*
X239000000Y-79325000D03*
X194000000Y-81500000D03*
X230280800Y-99447500D03*
X239000000Y-80050000D03*
X206905229Y-103307500D03*
X216872345Y-87023662D03*
X218300000Y-79150000D03*
X196750000Y-64650000D03*
X200106750Y-84780000D03*
X198200000Y-75500000D03*
X240950000Y-107110000D03*
X218100000Y-101097500D03*
X225000000Y-63500000D03*
X224250000Y-99500000D03*
X216650000Y-102507500D03*
X213000000Y-74500000D03*
X213822627Y-105761628D03*
X228321250Y-84600000D03*
X207090000Y-104560433D03*
X216200000Y-82500000D03*
X218500000Y-99500000D03*
X215080000Y-107960000D03*
X212000000Y-76500000D03*
X208060000Y-103120000D03*
X227240000Y-101537500D03*
X214225000Y-89550000D03*
X220500000Y-68000000D03*
X194000000Y-93350000D03*
X193800000Y-68200000D03*
X193700000Y-75500000D03*
X213000000Y-75500000D03*
X200790000Y-91870000D03*
X194000000Y-88800000D03*
X225000000Y-69500000D03*
X200680000Y-109580000D03*
X214310000Y-108120000D03*
X207500000Y-71000000D03*
X194800000Y-75500000D03*
X232360000Y-103957500D03*
X202050000Y-105900000D03*
X230160000Y-73490000D03*
X239770000Y-87750000D03*
X240120000Y-89440000D03*
X225980000Y-110960000D03*
X213560000Y-67820000D03*
X207972500Y-110627500D03*
X195000000Y-108000000D03*
X202500000Y-67000000D03*
X239000000Y-75550000D03*
X206239132Y-104556530D03*
X207088358Y-103842873D03*
X228000000Y-69500000D03*
X200066750Y-91150000D03*
X237190000Y-111760000D03*
X229470000Y-74240000D03*
X239224752Y-89766195D03*
X230821250Y-87000000D03*
X222000000Y-69450000D03*
X225121250Y-88810000D03*
X212000000Y-75500000D03*
X222730000Y-110960000D03*
X213448549Y-105386628D03*
X231000000Y-63500000D03*
X193800000Y-70300000D03*
X239000000Y-67850000D03*
X218694000Y-85200000D03*
X220500000Y-65000000D03*
X210500000Y-87000000D03*
X224750000Y-98500000D03*
X212750000Y-99500000D03*
X205890000Y-106137500D03*
X199200000Y-74500000D03*
X209525000Y-67000000D03*
X207500000Y-67000000D03*
X232340000Y-64370000D03*
X239000000Y-77050000D03*
X239154752Y-86281195D03*
X205500000Y-73000000D03*
X215500000Y-98500000D03*
X241040000Y-101737500D03*
X239000000Y-70850000D03*
X209650000Y-89100000D03*
X194000000Y-76700000D03*
X213650000Y-65200000D03*
X232360000Y-99957500D03*
X216500000Y-99500000D03*
X228000000Y-66500000D03*
X239252941Y-87771715D03*
X213500000Y-98500000D03*
X202750000Y-109580000D03*
X205500000Y-67025000D03*
X202740000Y-108160000D03*
X212000000Y-74500000D03*
X206500000Y-67000000D03*
X200690000Y-108130000D03*
X214400000Y-64400000D03*
X206655229Y-104187500D03*
X203500000Y-71000000D03*
X220494000Y-88800000D03*
X240574752Y-86376195D03*
X213900000Y-111920000D03*
X203500000Y-67000000D03*
X224940000Y-103790000D03*
X236070000Y-104487500D03*
X208775000Y-90990000D03*
X217050000Y-103047500D03*
X209650000Y-86900000D03*
X215400000Y-79150000D03*
X237290000Y-107637500D03*
X232155800Y-106722500D03*
X200066750Y-91870000D03*
X201240000Y-89370000D03*
X213428907Y-106137500D03*
X227240000Y-99937500D03*
X225806000Y-76073000D03*
X213650000Y-64400000D03*
X240627626Y-89436195D03*
X239000000Y-68850000D03*
X219500000Y-98500000D03*
X200106750Y-84060000D03*
X239834752Y-84986195D03*
X224155000Y-93345000D03*
X228000000Y-63500000D03*
X228321250Y-90500000D03*
X205500000Y-79800000D03*
X239010000Y-80780000D03*
X226500000Y-65000000D03*
X196750000Y-65400000D03*
X229470000Y-73490000D03*
X230821250Y-90000000D03*
X237170000Y-100897500D03*
X240564752Y-86876195D03*
X196390000Y-88840000D03*
X206960000Y-97330000D03*
X220500000Y-99500000D03*
X226000000Y-73200000D03*
X200670000Y-111290000D03*
X230160000Y-74240000D03*
X194800000Y-72500000D03*
X201500000Y-73000000D03*
X193800000Y-72500000D03*
X231080800Y-99447500D03*
X194900000Y-70300000D03*
X239000000Y-77800000D03*
X237000000Y-63500000D03*
X216000000Y-63500000D03*
X229500000Y-65000000D03*
X219980000Y-111930000D03*
X235000000Y-75100000D03*
X204450000Y-67000000D03*
X229500000Y-68000000D03*
X195000000Y-106000000D03*
X223500000Y-68000000D03*
X226500000Y-68000000D03*
X219000000Y-63500000D03*
X220500000Y-70700000D03*
X223480000Y-111920000D03*
X209620000Y-106720000D03*
X229480800Y-99447500D03*
X212500000Y-87000000D03*
X240574752Y-85876195D03*
X214190000Y-105386628D03*
X232360000Y-102357500D03*
X219000000Y-66500000D03*
X209500000Y-69000000D03*
X237170000Y-110397500D03*
X223250000Y-98500000D03*
D17*
X224671250Y-77660000D03*
D16*
X214199820Y-106132590D03*
X230821250Y-86000000D03*
X194900000Y-68200000D03*
X228691654Y-87749029D03*
X198200000Y-74500000D03*
X208650000Y-111890000D03*
X232360000Y-100757500D03*
X227880800Y-99447500D03*
X222250000Y-99500000D03*
X216894000Y-88800000D03*
X220494000Y-85200000D03*
X213750000Y-72800000D03*
X222000000Y-63500000D03*
X241640000Y-89436195D03*
X195200000Y-100500000D03*
X215600000Y-74200000D03*
X231880800Y-104772500D03*
X218694000Y-88800000D03*
X219000000Y-69500000D03*
X194013250Y-86300000D03*
X216000000Y-66500000D03*
X239724752Y-89746195D03*
X241040000Y-100087500D03*
X237000000Y-67400000D03*
X239824752Y-85486195D03*
X234000000Y-63500000D03*
X219870000Y-95330000D03*
X239000000Y-69850000D03*
X236500000Y-79600000D03*
X201500000Y-69000000D03*
X228680800Y-99447500D03*
X209650000Y-110890000D03*
X214400000Y-63650000D03*
X214400000Y-65200000D03*
X200830000Y-84060000D03*
X235500000Y-65000000D03*
X210500000Y-89000000D03*
X227240000Y-102337500D03*
X214500000Y-99500000D03*
X209500000Y-73000000D03*
X199200000Y-75500000D03*
X210400000Y-111890000D03*
X223711250Y-86000000D03*
X234000000Y-70100000D03*
X214840000Y-77390000D03*
X228321250Y-83300000D03*
X197500000Y-64650000D03*
X241137216Y-89436195D03*
X217500000Y-68000000D03*
X227000000Y-74700000D03*
X221730000Y-111910000D03*
X227240000Y-100737500D03*
X201286750Y-86090000D03*
X241020000Y-107817500D03*
X230821250Y-88500000D03*
X206245773Y-103847568D03*
X223500000Y-65000000D03*
X220494000Y-87000000D03*
X227240000Y-103137500D03*
X235000000Y-80200000D03*
X200790000Y-91150000D03*
X217450000Y-76050000D03*
X232360000Y-103157500D03*
X224480000Y-110960000D03*
X232360000Y-101557500D03*
X231880800Y-99447500D03*
X240564752Y-87376195D03*
X220737500Y-93877500D03*
X216894000Y-85200000D03*
X221500000Y-98500000D03*
X201286750Y-87890000D03*
X229780800Y-104337500D03*
X213150000Y-110910000D03*
X223600000Y-71600000D03*
X211500000Y-89000000D03*
X227200000Y-82000000D03*
X239000000Y-76275000D03*
X201550000Y-67000000D03*
X203000000Y-91500000D03*
X220980000Y-110940000D03*
X213000000Y-76500000D03*
X194000000Y-98500000D03*
X230500000Y-78100000D03*
X231140000Y-107657500D03*
X218694000Y-87000000D03*
X221800000Y-73000000D03*
X226630000Y-90510000D03*
X211400000Y-110890000D03*
D18*
%TO.N,/SYS*%
X219570000Y-105677500D03*
X221680168Y-102876073D03*
D17*
%TO.N,VBUS*%
X197229000Y-89870944D03*
X197277803Y-85940000D03*
D18*
%TO.N,+3.3V*%
X198630000Y-93920000D03*
D17*
X206804750Y-92500000D03*
X206804750Y-85000000D03*
X206804750Y-93250000D03*
X206804750Y-84000000D03*
D18*
%TO.N,Net-(D2-A)*%
X234250000Y-89100000D03*
D17*
X237215000Y-99962500D03*
D18*
%TO.N,Net-(D3-A)*%
X231150000Y-95800000D03*
D17*
X237520000Y-102207500D03*
%TO.N,Net-(D4-A)*%
X237290000Y-104337500D03*
X225730000Y-98530000D03*
%TO.N,/SPI_CS1*%
X214100000Y-83700000D03*
X214076181Y-77931244D03*
%TO.N,/UWB_RST*%
X206597580Y-80810110D03*
X196600000Y-67200000D03*
D18*
%TO.N,/SPI_MOSI*%
X219000000Y-76600000D03*
%TO.N,/SPI_SCK*%
X220650000Y-75350000D03*
%TO.N,/SPI_MISO*%
X219750000Y-75750000D03*
%TO.N,/STM_SWDIO*%
X198900000Y-97105000D03*
D17*
X209825000Y-91050000D03*
%TO.N,/STM_SWDCLK*%
X214880000Y-91400000D03*
X197900000Y-97750000D03*
D18*
%TO.N,/BLE_SWDCLK*%
X232258058Y-76111942D03*
X230780000Y-64990000D03*
%TO.N,/BLE_RST*%
X233650000Y-71680000D03*
X232779884Y-64977459D03*
%TO.N,/BLE_SWDIO*%
X233095000Y-77175000D03*
X231780000Y-64980000D03*
D17*
%TO.N,Net-(U6-NRST)*%
X224200639Y-82124804D03*
X224621250Y-85954065D03*
X223396253Y-73778747D03*
X223396253Y-77850000D03*
%TO.N,/PA0{slash}BTN_USR*%
X222550000Y-68375000D03*
X222496250Y-77850000D03*
%TO.N,/BLE_TX*%
X230567702Y-79575000D03*
X223008952Y-82842298D03*
%TO.N,/BLE_RX*%
X232070000Y-80200000D03*
X222300000Y-82150000D03*
D18*
%TO.N,Net-(U4-ILIM)*%
X215762500Y-104137500D03*
D17*
X221710000Y-101022500D03*
D18*
%TO.N,/PB8 {slash} I2C1_SCL*%
X216814121Y-95469764D03*
X233260000Y-95630000D03*
X220358335Y-91872321D03*
D17*
X206794898Y-101296988D03*
D18*
X212760000Y-95900000D03*
X225250000Y-91430000D03*
%TO.N,/PB9 {slash} I2C1_SDA*%
X225256183Y-92943817D03*
X212643028Y-96691405D03*
D17*
X206067741Y-101998266D03*
D18*
X221130000Y-92125000D03*
X233260000Y-96540000D03*
X217800000Y-95560000D03*
D17*
%TO.N,/DIP1*%
X203850000Y-102330000D03*
X214420000Y-92285868D03*
D18*
%TO.N,/DIP2*%
X203870000Y-103600000D03*
D17*
X214420000Y-93720000D03*
%TO.N,/DIP3*%
X214420000Y-95160000D03*
X203880000Y-104860000D03*
%TO.N,Net-(D5-A)*%
X237990000Y-106087500D03*
D18*
X221824272Y-96007250D03*
D17*
%TO.N,/PA9 {slash} UART1_TX*%
X196900000Y-94575000D03*
X211000000Y-85200000D03*
%TO.N,/PA10 {slash} UART1_RX*%
X195890000Y-95250000D03*
X211000000Y-86200000D03*
D18*
%TO.N,Net-(Q2-G)*%
X218600000Y-108437500D03*
X220818192Y-103059308D03*
%TO.N,/CHG*%
X240090000Y-105237500D03*
X215722500Y-107277500D03*
%TO.N,/CHARGE_EN*%
X211992500Y-107327500D03*
X216450000Y-91660868D03*
D17*
%TO.N,Net-(C3-Pad2)*%
X221490000Y-106437500D03*
D18*
X220300000Y-109137500D03*
D16*
%TO.N,GND*%
X199000000Y-100500000D03*
%TD*%
D19*
%TO.N,+3.3V*%
X206134750Y-93920000D02*
X206804750Y-93250000D01*
X198630000Y-93920000D02*
X206134750Y-93920000D01*
%TO.N,/SYS*%
X219570000Y-105457500D02*
X221680168Y-103347332D01*
X219570000Y-105677500D02*
X219570000Y-105457500D01*
X221680168Y-103347332D02*
X221680168Y-102876073D01*
D20*
%TO.N,VBUS*%
X197277803Y-89822141D02*
X197229000Y-89870944D01*
D21*
X197229000Y-85988803D02*
X197277803Y-85940000D01*
X197229000Y-89870944D02*
X197229000Y-85988803D01*
%TO.N,+3.3V*%
X206804750Y-92500000D02*
X206804750Y-85000000D01*
X206804750Y-92500000D02*
X206804750Y-93250000D01*
X206804750Y-84000000D02*
X206804750Y-85000000D01*
D19*
%TO.N,Net-(D2-A)*%
X234250000Y-96997500D02*
X234250000Y-89100000D01*
X237215000Y-99962500D02*
X234250000Y-96997500D01*
%TO.N,Net-(D3-A)*%
X232289860Y-96977360D02*
X231150000Y-95837500D01*
X231150000Y-95837500D02*
X231150000Y-95800000D01*
X232289860Y-96977360D02*
X237520000Y-102207500D01*
%TO.N,Net-(D4-A)*%
X237290000Y-103987500D02*
X237290000Y-104337500D01*
X225730000Y-98530000D02*
X231832500Y-98530000D01*
X231832500Y-98530000D02*
X237290000Y-103987500D01*
%TO.N,/SPI_CS1*%
X214100000Y-77955063D02*
X214100000Y-83700000D01*
X214076181Y-77931244D02*
X214100000Y-77955063D01*
%TO.N,/UWB_RST*%
X201000000Y-77000000D02*
X198185412Y-77000000D01*
X204800000Y-80800000D02*
X201000000Y-77000000D01*
X197300000Y-76114588D02*
X197300000Y-67900000D01*
X198185412Y-77000000D02*
X197300000Y-76114588D01*
X206597580Y-80810110D02*
X206587470Y-80800000D01*
X206587470Y-80800000D02*
X204800000Y-80800000D01*
X197300000Y-67900000D02*
X196600000Y-67200000D01*
%TO.N,/SPI_MOSI*%
X219000000Y-76600000D02*
X219000000Y-77590000D01*
%TO.N,/SPI_SCK*%
X220660000Y-75360000D02*
X220650000Y-75350000D01*
X220660000Y-78700000D02*
X220660000Y-75360000D01*
%TO.N,/STM_SWDIO*%
X209825000Y-93225000D02*
X207050000Y-96000000D01*
X207050000Y-96000000D02*
X200005000Y-96000000D01*
X200005000Y-96000000D02*
X198900000Y-97105000D01*
X209825000Y-91050000D02*
X209825000Y-93225000D01*
%TO.N,/STM_SWDCLK*%
X200540000Y-97730000D02*
X201570000Y-96700000D01*
X201570000Y-96700000D02*
X207350000Y-96700000D01*
X197920000Y-97730000D02*
X200540000Y-97730000D01*
X197900000Y-97750000D02*
X197920000Y-97730000D01*
X212650000Y-91400000D02*
X214880000Y-91400000D01*
X207350000Y-96700000D02*
X212650000Y-91400000D01*
%TO.N,/BLE_SWDCLK*%
X232258058Y-76111942D02*
X230780000Y-74633884D01*
X230780000Y-74633884D02*
X230780000Y-64990000D01*
%TO.N,/BLE_RST*%
X232779884Y-70809884D02*
X233650000Y-71680000D01*
X232779884Y-64977459D02*
X232779884Y-70809884D01*
%TO.N,/BLE_SWDIO*%
X233095000Y-76065000D02*
X231780000Y-74750000D01*
X233095000Y-77175000D02*
X233095000Y-76065000D01*
X231780000Y-74750000D02*
X231780000Y-64980000D01*
%TO.N,Net-(U6-NRST)*%
X224375000Y-85707815D02*
X224621250Y-85954065D01*
X223396253Y-73778747D02*
X223396253Y-77850000D01*
X224375000Y-82299165D02*
X224375000Y-85707815D01*
X224200639Y-82124804D02*
X224375000Y-82299165D01*
%TO.N,/PA0{slash}BTN_USR*%
X222576000Y-68401000D02*
X222576000Y-77770250D01*
X222576000Y-77770250D02*
X222496250Y-77850000D01*
X222550000Y-68375000D02*
X222576000Y-68401000D01*
%TO.N,/BLE_TX*%
X229942702Y-80200000D02*
X224971250Y-80200000D01*
X223008952Y-82842298D02*
X223021250Y-82830000D01*
X224971250Y-80200000D02*
X223021250Y-82150000D01*
X229942702Y-80200000D02*
X230567702Y-79575000D01*
X223021250Y-82830000D02*
X223021250Y-82150000D01*
%TO.N,/BLE_RX*%
X230860000Y-78900000D02*
X225021250Y-78900000D01*
X232070000Y-80110000D02*
X230860000Y-78900000D01*
X222300000Y-82150000D02*
X222300000Y-81621250D01*
X222300000Y-82150000D02*
X222171250Y-82150000D01*
X225021250Y-78900000D02*
X222300000Y-81621250D01*
X232070000Y-80200000D02*
X232070000Y-80110000D01*
%TO.N,Net-(U4-ILIM)*%
X215762500Y-104137500D02*
X218595000Y-104137500D01*
X218595000Y-104137500D02*
X221710000Y-101022500D01*
%TO.N,/PB8 {slash} I2C1_SCL*%
X220358335Y-91872321D02*
X220354091Y-91872321D01*
X206906121Y-101193879D02*
X212200000Y-95900000D01*
X225250000Y-91430000D02*
X220800656Y-91430000D01*
X233260000Y-95630000D02*
X229060000Y-91430000D01*
X220358335Y-91872321D02*
X220800656Y-91430000D01*
X206898007Y-101193879D02*
X206906121Y-101193879D01*
X212200000Y-95900000D02*
X212760000Y-95900000D01*
X216814121Y-95469764D02*
X216814121Y-95416535D01*
X206794898Y-101296988D02*
X206898007Y-101193879D01*
X216814121Y-95416535D02*
X220358335Y-91872321D01*
X229060000Y-91430000D02*
X225250000Y-91430000D01*
%TO.N,/PB9 {slash} I2C1_SDA*%
X221130000Y-92125000D02*
X221130000Y-92230000D01*
X206067741Y-101998266D02*
X206223673Y-101998266D01*
X225256183Y-92943817D02*
X229663817Y-92943817D01*
X221130000Y-92230000D02*
X217800000Y-95560000D01*
X206350683Y-102125276D02*
X207174724Y-102125276D01*
X206223673Y-101998266D02*
X206350683Y-102125276D01*
X224437366Y-92125000D02*
X221130000Y-92125000D01*
X229663817Y-92943817D02*
X233260000Y-96540000D01*
X207174724Y-102125276D02*
X212649000Y-96651000D01*
X225256183Y-92943817D02*
X224437366Y-92125000D01*
%TO.N,/DIP1*%
X203850000Y-101370000D02*
X212934132Y-92285868D01*
X212934132Y-92285868D02*
X214420000Y-92285868D01*
X203850000Y-102330000D02*
X203850000Y-101370000D01*
%TO.N,/DIP2*%
X203920000Y-103600000D02*
X204610000Y-102910000D01*
X204610000Y-102910000D02*
X204610000Y-101460000D01*
X204610000Y-101460000D02*
X212350000Y-93720000D01*
X212350000Y-93720000D02*
X214420000Y-93720000D01*
X203870000Y-103600000D02*
X203920000Y-103600000D01*
%TO.N,/DIP3*%
X205210000Y-101670000D02*
X211720000Y-95160000D01*
X205210000Y-103530000D02*
X205210000Y-101670000D01*
X203880000Y-104860000D02*
X205210000Y-103530000D01*
X211720000Y-95160000D02*
X214420000Y-95160000D01*
%TO.N,Net-(D5-A)*%
X221824272Y-96007250D02*
X230279750Y-96007250D01*
X237990000Y-103717500D02*
X237990000Y-106087500D01*
X230279750Y-96007250D02*
X237990000Y-103717500D01*
%TO.N,/PA9 {slash} UART1_TX*%
X196900000Y-94575000D02*
X206435759Y-94575000D01*
X207480750Y-93530009D02*
X207480750Y-87219250D01*
X207480750Y-87219250D02*
X209500000Y-85200000D01*
X206435759Y-94575000D02*
X207480750Y-93530009D01*
X209500000Y-85200000D02*
X211000000Y-85200000D01*
%TO.N,/PA10 {slash} UART1_RX*%
X195890000Y-95250000D02*
X206770000Y-95250000D01*
X208200000Y-87535412D02*
X209535412Y-86200000D01*
X206770000Y-95250000D02*
X208200000Y-93820000D01*
X209535412Y-86200000D02*
X211000000Y-86200000D01*
X208200000Y-93820000D02*
X208200000Y-87535412D01*
%TO.N,Net-(Q2-G)*%
X218600000Y-105277500D02*
X218600000Y-108437500D01*
X220818192Y-103059308D02*
X218600000Y-105277500D01*
%TO.N,/CHG*%
X236060000Y-109837500D02*
X218282500Y-109837500D01*
X218282500Y-109837500D02*
X215722500Y-107277500D01*
X240090000Y-105237500D02*
X240090000Y-105807500D01*
X240090000Y-105807500D02*
X236060000Y-109837500D01*
%TO.N,/CHARGE_EN*%
X212020000Y-107300000D02*
X212020000Y-98650000D01*
X212020000Y-98650000D02*
X215544000Y-95126000D01*
X215544000Y-95126000D02*
X215544000Y-92566868D01*
X211992500Y-107327500D02*
X212020000Y-107300000D01*
X215544000Y-92566868D02*
X216450000Y-91660868D01*
D22*
%TO.N,Net-(C3-Pad2)*%
X220300000Y-107627500D02*
X221490000Y-106437500D01*
X220300000Y-109137500D02*
X220300000Y-107627500D01*
%TD*%
%TA.AperFunction,Conductor*%
%TO.N,GND*%
G36*
X196573627Y-63080000D02*
G01*
X200296000Y-63080000D01*
X200363039Y-63099685D01*
X200408794Y-63152489D01*
X200420000Y-63204000D01*
X200420000Y-66440030D01*
X200420000Y-66440031D01*
X210580000Y-66440000D01*
X210580000Y-64917525D01*
X230229500Y-64917525D01*
X230229500Y-65062475D01*
X230267016Y-65202485D01*
X230267017Y-65202488D01*
X230339488Y-65328011D01*
X230339493Y-65328017D01*
X230368181Y-65356705D01*
X230401666Y-65418028D01*
X230404500Y-65444386D01*
X230404500Y-74683319D01*
X230430090Y-74778822D01*
X230463688Y-74837016D01*
X230479526Y-74864447D01*
X231671239Y-76056160D01*
X231704724Y-76117483D01*
X231707558Y-76143841D01*
X231707558Y-76184417D01*
X231745074Y-76324426D01*
X231745075Y-76324430D01*
X231817546Y-76449953D01*
X231817548Y-76449955D01*
X231817549Y-76449957D01*
X231920043Y-76552451D01*
X231920044Y-76552452D01*
X231920046Y-76552453D01*
X232045569Y-76624924D01*
X232045570Y-76624924D01*
X232045573Y-76624926D01*
X232185583Y-76662442D01*
X232185586Y-76662442D01*
X232330530Y-76662442D01*
X232330533Y-76662442D01*
X232470543Y-76624926D01*
X232533500Y-76588577D01*
X232539400Y-76587145D01*
X232543989Y-76583170D01*
X232572953Y-76579005D01*
X232601398Y-76572104D01*
X232607136Y-76574090D01*
X232613147Y-76573226D01*
X232639770Y-76585384D01*
X232667426Y-76594956D01*
X232671179Y-76599728D01*
X232676703Y-76602251D01*
X232692525Y-76626871D01*
X232710617Y-76649876D01*
X232712033Y-76657227D01*
X232714477Y-76661029D01*
X232719500Y-76695964D01*
X232719500Y-76720614D01*
X232699815Y-76787653D01*
X232683181Y-76808295D01*
X232654493Y-76836982D01*
X232654488Y-76836988D01*
X232582017Y-76962511D01*
X232582016Y-76962515D01*
X232544500Y-77102525D01*
X232544500Y-77247475D01*
X232582016Y-77387485D01*
X232582017Y-77387488D01*
X232654488Y-77513011D01*
X232654490Y-77513013D01*
X232654491Y-77513015D01*
X232756985Y-77615509D01*
X232756986Y-77615510D01*
X232756988Y-77615511D01*
X232882511Y-77687982D01*
X232882512Y-77687982D01*
X232882515Y-77687984D01*
X233022525Y-77725500D01*
X233022528Y-77725500D01*
X233167472Y-77725500D01*
X233167475Y-77725500D01*
X233307485Y-77687984D01*
X233433015Y-77615509D01*
X233535509Y-77513015D01*
X233607984Y-77387485D01*
X233645500Y-77247475D01*
X233645500Y-77102525D01*
X233607984Y-76962515D01*
X233568434Y-76894013D01*
X233535511Y-76836988D01*
X233535506Y-76836982D01*
X233506819Y-76808295D01*
X233473334Y-76746972D01*
X233470500Y-76720614D01*
X233470500Y-76015567D01*
X233470500Y-76015565D01*
X233444910Y-75920062D01*
X233411956Y-75862984D01*
X233395475Y-75834437D01*
X233395473Y-75834435D01*
X233395472Y-75834433D01*
X232191819Y-74630780D01*
X232158334Y-74569457D01*
X232155500Y-74543099D01*
X232155500Y-71994000D01*
X232175185Y-71926961D01*
X232227989Y-71881206D01*
X232279500Y-71870000D01*
X233052443Y-71870000D01*
X233119482Y-71889685D01*
X233159830Y-71932000D01*
X233209491Y-72018015D01*
X233311985Y-72120509D01*
X233311986Y-72120510D01*
X233311988Y-72120511D01*
X233437511Y-72192982D01*
X233437512Y-72192982D01*
X233437515Y-72192984D01*
X233577525Y-72230500D01*
X233577528Y-72230500D01*
X233722472Y-72230500D01*
X233722475Y-72230500D01*
X233862485Y-72192984D01*
X233988015Y-72120509D01*
X234090509Y-72018015D01*
X234162984Y-71892485D01*
X234200500Y-71752475D01*
X234200500Y-71607525D01*
X234162984Y-71467515D01*
X234115836Y-71385853D01*
X234090511Y-71341988D01*
X234090506Y-71341982D01*
X233988017Y-71239493D01*
X233988011Y-71239488D01*
X233862488Y-71167017D01*
X233862489Y-71167017D01*
X233851006Y-71163940D01*
X233722475Y-71129500D01*
X233722472Y-71129500D01*
X233681900Y-71129500D01*
X233614861Y-71109815D01*
X233594219Y-71093181D01*
X233191703Y-70690665D01*
X233158218Y-70629342D01*
X233155384Y-70602984D01*
X233155384Y-65431845D01*
X233175069Y-65364806D01*
X233191703Y-65344164D01*
X233220393Y-65315474D01*
X233292868Y-65189944D01*
X233318653Y-65093713D01*
X238449500Y-65093713D01*
X238449500Y-65306287D01*
X238457879Y-65359192D01*
X238482753Y-65516239D01*
X238548444Y-65718414D01*
X238644951Y-65907820D01*
X238769890Y-66079786D01*
X238920213Y-66230109D01*
X239092179Y-66355048D01*
X239092181Y-66355049D01*
X239092184Y-66355051D01*
X239281588Y-66451557D01*
X239483757Y-66517246D01*
X239693713Y-66550500D01*
X239693714Y-66550500D01*
X239906286Y-66550500D01*
X239906287Y-66550500D01*
X240116243Y-66517246D01*
X240318412Y-66451557D01*
X240507816Y-66355051D01*
X240529789Y-66339086D01*
X240679786Y-66230109D01*
X240679788Y-66230106D01*
X240679792Y-66230104D01*
X240830104Y-66079792D01*
X240830106Y-66079788D01*
X240830109Y-66079786D01*
X240955048Y-65907820D01*
X240955047Y-65907820D01*
X240955051Y-65907816D01*
X241051557Y-65718412D01*
X241117246Y-65516243D01*
X241150500Y-65306287D01*
X241150500Y-65093713D01*
X241117246Y-64883757D01*
X241051557Y-64681588D01*
X240955051Y-64492184D01*
X240955049Y-64492181D01*
X240955048Y-64492179D01*
X240830109Y-64320213D01*
X240679786Y-64169890D01*
X240507820Y-64044951D01*
X240318414Y-63948444D01*
X240318413Y-63948443D01*
X240318412Y-63948443D01*
X240116243Y-63882754D01*
X240116241Y-63882753D01*
X240116240Y-63882753D01*
X239954957Y-63857208D01*
X239906287Y-63849500D01*
X239693713Y-63849500D01*
X239645042Y-63857208D01*
X239483760Y-63882753D01*
X239281585Y-63948444D01*
X239092179Y-64044951D01*
X238920213Y-64169890D01*
X238769890Y-64320213D01*
X238644951Y-64492179D01*
X238548444Y-64681585D01*
X238482753Y-64883760D01*
X238477405Y-64917527D01*
X238449500Y-65093713D01*
X233318653Y-65093713D01*
X233330384Y-65049934D01*
X233330384Y-64904984D01*
X233292868Y-64764974D01*
X233292265Y-64763930D01*
X233220395Y-64639447D01*
X233220390Y-64639441D01*
X233117901Y-64536952D01*
X233117895Y-64536947D01*
X232992372Y-64464476D01*
X232992373Y-64464476D01*
X232980890Y-64461399D01*
X232852359Y-64426959D01*
X232707409Y-64426959D01*
X232578877Y-64461399D01*
X232567395Y-64464476D01*
X232441872Y-64536947D01*
X232366352Y-64612467D01*
X232305028Y-64645951D01*
X232235337Y-64640966D01*
X232190990Y-64612466D01*
X232118017Y-64539493D01*
X232118011Y-64539488D01*
X231992488Y-64467017D01*
X231992489Y-64467017D01*
X231981006Y-64463940D01*
X231852475Y-64429500D01*
X231707525Y-64429500D01*
X231578993Y-64463940D01*
X231567511Y-64467017D01*
X231441988Y-64539488D01*
X231441982Y-64539493D01*
X231362681Y-64618795D01*
X231301358Y-64652280D01*
X231231666Y-64647296D01*
X231187319Y-64618795D01*
X231118017Y-64549493D01*
X231118011Y-64549488D01*
X230992488Y-64477017D01*
X230992489Y-64477017D01*
X230981006Y-64473940D01*
X230852475Y-64439500D01*
X230707525Y-64439500D01*
X230578993Y-64473940D01*
X230567511Y-64477017D01*
X230441988Y-64549488D01*
X230441982Y-64549493D01*
X230339493Y-64651982D01*
X230339488Y-64651988D01*
X230267017Y-64777511D01*
X230267016Y-64777515D01*
X230229500Y-64917525D01*
X210580000Y-64917525D01*
X210580000Y-63204000D01*
X210599685Y-63136961D01*
X210652489Y-63091206D01*
X210704000Y-63080000D01*
X214415014Y-63080000D01*
X214421235Y-63076603D01*
X214447593Y-63073769D01*
X240110686Y-63073769D01*
X240165567Y-63073769D01*
X240174413Y-63074085D01*
X240410129Y-63090943D01*
X240427634Y-63093460D01*
X240654215Y-63142750D01*
X240671173Y-63147729D01*
X240888445Y-63228768D01*
X240904528Y-63236113D01*
X241108052Y-63347248D01*
X241122924Y-63356806D01*
X241308556Y-63495771D01*
X241321915Y-63507347D01*
X241485883Y-63671320D01*
X241497463Y-63684685D01*
X241636416Y-63870311D01*
X241645982Y-63885196D01*
X241757103Y-64088711D01*
X241764452Y-64104804D01*
X241845480Y-64322062D01*
X241850464Y-64339038D01*
X241899746Y-64565615D01*
X241902263Y-64583127D01*
X241919173Y-64819652D01*
X241919489Y-64828604D01*
X241918960Y-65431845D01*
X241916989Y-67680524D01*
X241916861Y-67826109D01*
X241897118Y-67893131D01*
X241844274Y-67938839D01*
X241792861Y-67950000D01*
X239450000Y-67950000D01*
X239450000Y-79700000D01*
X239450000Y-82300000D01*
X241780059Y-82300000D01*
X241847098Y-82319685D01*
X241892853Y-82372489D01*
X241904059Y-82424109D01*
X241879572Y-110345864D01*
X241879556Y-110347724D01*
X241879376Y-110359010D01*
X241878435Y-110362527D01*
X241878433Y-110418413D01*
X241878417Y-110419428D01*
X241878356Y-110419621D01*
X241878124Y-110426205D01*
X241861695Y-110658542D01*
X241859235Y-110675856D01*
X241811204Y-110899298D01*
X241806332Y-110916092D01*
X241727354Y-111130537D01*
X241720169Y-111146480D01*
X241611803Y-111347692D01*
X241602446Y-111362466D01*
X241466852Y-111546432D01*
X241455510Y-111559742D01*
X241295384Y-111722806D01*
X241282282Y-111734388D01*
X241100814Y-111873302D01*
X241086213Y-111882926D01*
X240887005Y-111994931D01*
X240871196Y-112002405D01*
X240658214Y-112085272D01*
X240641510Y-112090448D01*
X240418990Y-112142530D01*
X240401725Y-112145305D01*
X240168624Y-112166053D01*
X240159885Y-112166520D01*
X240106063Y-112167499D01*
X240106056Y-112167500D01*
X240098507Y-112169671D01*
X240064240Y-112174500D01*
X199722561Y-112174500D01*
X199655522Y-112154815D01*
X199609767Y-112102011D01*
X199599823Y-112032853D01*
X199606379Y-112007167D01*
X199643596Y-111907380D01*
X199643598Y-111907372D01*
X199649999Y-111847844D01*
X199650000Y-111847827D01*
X199650000Y-111400000D01*
X198917543Y-111400000D01*
X198926148Y-111385095D01*
X198950000Y-111296078D01*
X198950000Y-111203922D01*
X198926148Y-111114905D01*
X198917543Y-111100000D01*
X199650000Y-111100000D01*
X199650000Y-110806495D01*
X214464499Y-110806495D01*
X214491418Y-110941822D01*
X214491421Y-110941832D01*
X214544221Y-111069304D01*
X214544228Y-111069317D01*
X214620885Y-111184041D01*
X214620888Y-111184045D01*
X214718454Y-111281611D01*
X214718458Y-111281614D01*
X214833182Y-111358271D01*
X214833195Y-111358278D01*
X214880698Y-111377954D01*
X214960672Y-111411080D01*
X214960676Y-111411080D01*
X214960677Y-111411081D01*
X215096004Y-111438000D01*
X215096007Y-111438000D01*
X215233995Y-111438000D01*
X215325041Y-111419889D01*
X215369328Y-111411080D01*
X215467924Y-111370240D01*
X215496804Y-111358278D01*
X215496804Y-111358277D01*
X215496811Y-111358275D01*
X215611542Y-111281614D01*
X215709114Y-111184042D01*
X215785775Y-111069311D01*
X215838580Y-110941828D01*
X215865500Y-110806493D01*
X215865500Y-110668507D01*
X215865500Y-110668504D01*
X215838581Y-110533177D01*
X215838580Y-110533176D01*
X215838580Y-110533172D01*
X215798047Y-110435316D01*
X215785778Y-110405695D01*
X215785771Y-110405682D01*
X215709114Y-110290958D01*
X215709111Y-110290954D01*
X215611545Y-110193388D01*
X215611540Y-110193384D01*
X215496817Y-110116728D01*
X215496804Y-110116721D01*
X215369332Y-110063921D01*
X215369322Y-110063918D01*
X215233995Y-110037000D01*
X215233993Y-110037000D01*
X215096007Y-110037000D01*
X215096005Y-110037000D01*
X214960677Y-110063918D01*
X214960667Y-110063921D01*
X214833195Y-110116721D01*
X214833182Y-110116728D01*
X214718460Y-110193384D01*
X214718454Y-110193388D01*
X214620888Y-110290954D01*
X214620885Y-110290958D01*
X214544228Y-110405682D01*
X214544221Y-110405695D01*
X214491421Y-110533167D01*
X214491418Y-110533177D01*
X214464500Y-110668504D01*
X214464500Y-110668507D01*
X214464500Y-110806493D01*
X214464500Y-110806495D01*
X214464499Y-110806495D01*
X199650000Y-110806495D01*
X199650000Y-110652172D01*
X199649999Y-110652155D01*
X199643598Y-110592627D01*
X199643596Y-110592620D01*
X199593354Y-110457913D01*
X199593350Y-110457906D01*
X199507190Y-110342812D01*
X199507187Y-110342809D01*
X199392093Y-110256649D01*
X199392086Y-110256645D01*
X199257379Y-110206403D01*
X199257372Y-110206401D01*
X199197844Y-110200000D01*
X198750000Y-110200000D01*
X198750000Y-110932457D01*
X198735095Y-110923852D01*
X198646078Y-110900000D01*
X198553922Y-110900000D01*
X198464905Y-110923852D01*
X198450000Y-110932457D01*
X198450000Y-110200000D01*
X198002155Y-110200000D01*
X197942627Y-110206401D01*
X197942620Y-110206403D01*
X197807913Y-110256645D01*
X197807906Y-110256649D01*
X197692812Y-110342809D01*
X197692809Y-110342812D01*
X197606649Y-110457906D01*
X197606645Y-110457913D01*
X197556403Y-110592620D01*
X197556401Y-110592627D01*
X197550000Y-110652155D01*
X197550000Y-111100000D01*
X198282457Y-111100000D01*
X198273852Y-111114905D01*
X198250000Y-111203922D01*
X198250000Y-111296078D01*
X198273852Y-111385095D01*
X198282457Y-111400000D01*
X197550000Y-111400000D01*
X197550000Y-111847844D01*
X197556401Y-111907372D01*
X197556403Y-111907380D01*
X197593621Y-112007167D01*
X197598605Y-112076859D01*
X197565120Y-112138182D01*
X197503796Y-112171666D01*
X197477439Y-112174500D01*
X194500147Y-112174500D01*
X194491302Y-112174184D01*
X194255589Y-112157327D01*
X194238078Y-112154810D01*
X194011488Y-112105522D01*
X193994511Y-112100537D01*
X193777255Y-112019506D01*
X193761162Y-112012157D01*
X193557645Y-111901030D01*
X193542761Y-111891465D01*
X193357125Y-111752502D01*
X193343755Y-111740916D01*
X193179796Y-111576960D01*
X193168209Y-111563589D01*
X193155365Y-111546432D01*
X193058658Y-111417246D01*
X193029244Y-111377954D01*
X193019679Y-111363071D01*
X193017062Y-111358278D01*
X192908546Y-111159548D01*
X192901205Y-111143474D01*
X192820162Y-110926192D01*
X192815183Y-110909233D01*
X192765892Y-110682645D01*
X192763375Y-110665136D01*
X192762903Y-110658542D01*
X192746542Y-110429781D01*
X192746226Y-110420935D01*
X192746226Y-109993713D01*
X193499500Y-109993713D01*
X193499500Y-110206287D01*
X193500563Y-110212999D01*
X193532753Y-110416239D01*
X193532753Y-110416241D01*
X193532754Y-110416243D01*
X193595882Y-110610531D01*
X193598444Y-110618414D01*
X193694951Y-110807820D01*
X193819890Y-110979786D01*
X193970213Y-111130109D01*
X194142179Y-111255048D01*
X194142181Y-111255049D01*
X194142184Y-111255051D01*
X194331588Y-111351557D01*
X194533757Y-111417246D01*
X194743713Y-111450500D01*
X194743714Y-111450500D01*
X194956286Y-111450500D01*
X194956287Y-111450500D01*
X195166243Y-111417246D01*
X195368412Y-111351557D01*
X195557816Y-111255051D01*
X195628190Y-111203922D01*
X195729786Y-111130109D01*
X195729788Y-111130106D01*
X195729792Y-111130104D01*
X195880104Y-110979792D01*
X195880106Y-110979788D01*
X195880109Y-110979786D01*
X196005048Y-110807820D01*
X196005047Y-110807820D01*
X196005051Y-110807816D01*
X196101557Y-110618412D01*
X196109938Y-110592620D01*
X196118814Y-110565299D01*
X196167246Y-110416243D01*
X196200500Y-110206287D01*
X196200500Y-109993713D01*
X196167246Y-109783757D01*
X196101557Y-109581588D01*
X196005051Y-109392184D01*
X196005049Y-109392181D01*
X196005048Y-109392179D01*
X195880109Y-109220213D01*
X195729786Y-109069890D01*
X195557820Y-108944951D01*
X195368414Y-108848444D01*
X195368413Y-108848443D01*
X195368412Y-108848443D01*
X195166243Y-108782754D01*
X195166241Y-108782753D01*
X195166240Y-108782753D01*
X195004957Y-108757208D01*
X194956287Y-108749500D01*
X194743713Y-108749500D01*
X194695042Y-108757208D01*
X194533760Y-108782753D01*
X194331585Y-108848444D01*
X194142179Y-108944951D01*
X193970213Y-109069890D01*
X193819890Y-109220213D01*
X193694951Y-109392179D01*
X193598444Y-109581585D01*
X193532753Y-109783760D01*
X193524830Y-109833786D01*
X193499500Y-109993713D01*
X192746226Y-109993713D01*
X192746226Y-108146530D01*
X197549500Y-108146530D01*
X197549500Y-108353469D01*
X197589868Y-108556412D01*
X197589870Y-108556420D01*
X197648264Y-108697396D01*
X197669059Y-108747598D01*
X197701263Y-108795795D01*
X197784024Y-108919657D01*
X197930342Y-109065975D01*
X197930345Y-109065977D01*
X198102402Y-109180941D01*
X198293580Y-109260130D01*
X198496530Y-109300499D01*
X198496534Y-109300500D01*
X198496535Y-109300500D01*
X198703466Y-109300500D01*
X198703467Y-109300499D01*
X198906420Y-109260130D01*
X199097598Y-109180941D01*
X199269655Y-109065977D01*
X199415977Y-108919655D01*
X199530941Y-108747598D01*
X199610130Y-108556420D01*
X199650500Y-108353465D01*
X199650500Y-108146535D01*
X199610130Y-107943580D01*
X199530941Y-107752402D01*
X199415977Y-107580345D01*
X199415975Y-107580342D01*
X199269657Y-107434024D01*
X199143863Y-107349972D01*
X199097598Y-107319059D01*
X199044251Y-107296962D01*
X198906420Y-107239870D01*
X198906412Y-107239868D01*
X198703469Y-107199500D01*
X198703465Y-107199500D01*
X198496535Y-107199500D01*
X198496530Y-107199500D01*
X198293587Y-107239868D01*
X198293579Y-107239870D01*
X198102403Y-107319058D01*
X197930342Y-107434024D01*
X197784024Y-107580342D01*
X197669058Y-107752403D01*
X197589870Y-107943579D01*
X197589868Y-107943587D01*
X197549500Y-108146530D01*
X192746226Y-108146530D01*
X192746226Y-95170943D01*
X195289500Y-95170943D01*
X195289500Y-95329057D01*
X195297656Y-95359493D01*
X195330423Y-95481783D01*
X195330426Y-95481790D01*
X195409475Y-95618709D01*
X195409479Y-95618714D01*
X195409480Y-95618716D01*
X195521284Y-95730520D01*
X195521286Y-95730521D01*
X195521290Y-95730524D01*
X195655095Y-95807775D01*
X195658216Y-95809577D01*
X195810943Y-95850500D01*
X195810945Y-95850500D01*
X195969055Y-95850500D01*
X195969057Y-95850500D01*
X196121784Y-95809577D01*
X196258716Y-95730520D01*
X196327417Y-95661819D01*
X196388740Y-95628334D01*
X196415098Y-95625500D01*
X199549101Y-95625500D01*
X199616140Y-95645185D01*
X199661895Y-95697989D01*
X199671839Y-95767147D01*
X199642814Y-95830703D01*
X199636782Y-95837181D01*
X198955782Y-96518181D01*
X198894459Y-96551666D01*
X198868101Y-96554500D01*
X198827525Y-96554500D01*
X198705559Y-96587181D01*
X198687511Y-96592017D01*
X198561988Y-96664488D01*
X198561982Y-96664493D01*
X198459493Y-96766982D01*
X198459488Y-96766988D01*
X198387017Y-96892511D01*
X198384721Y-96901079D01*
X198349500Y-97032525D01*
X198349500Y-97032527D01*
X198349500Y-97101346D01*
X198329815Y-97168385D01*
X198277011Y-97214140D01*
X198207853Y-97224084D01*
X198163503Y-97208735D01*
X198131786Y-97190424D01*
X198131785Y-97190423D01*
X198131784Y-97190423D01*
X197979057Y-97149500D01*
X197820943Y-97149500D01*
X197668216Y-97190423D01*
X197668209Y-97190426D01*
X197531290Y-97269475D01*
X197531282Y-97269481D01*
X197419481Y-97381282D01*
X197419475Y-97381290D01*
X197340426Y-97518209D01*
X197340423Y-97518216D01*
X197299500Y-97670943D01*
X197299500Y-97829057D01*
X197329983Y-97942819D01*
X197340423Y-97981783D01*
X197340426Y-97981790D01*
X197419475Y-98118709D01*
X197419479Y-98118714D01*
X197419480Y-98118716D01*
X197531284Y-98230520D01*
X197531286Y-98230521D01*
X197531290Y-98230524D01*
X197648526Y-98298209D01*
X197668216Y-98309577D01*
X197820943Y-98350500D01*
X197820945Y-98350500D01*
X197979055Y-98350500D01*
X197979057Y-98350500D01*
X198131784Y-98309577D01*
X198268716Y-98230520D01*
X198357417Y-98141819D01*
X198418740Y-98108334D01*
X198445098Y-98105500D01*
X200589435Y-98105500D01*
X200589436Y-98105500D01*
X200637186Y-98092705D01*
X200684938Y-98079910D01*
X200770562Y-98030475D01*
X200840475Y-97960562D01*
X201689218Y-97111819D01*
X201750541Y-97078334D01*
X201776899Y-97075500D01*
X207314101Y-97075500D01*
X207381140Y-97095185D01*
X207426895Y-97147989D01*
X207436839Y-97217147D01*
X207407814Y-97280703D01*
X207401782Y-97287181D01*
X203549527Y-101139435D01*
X203500089Y-101225062D01*
X203500089Y-101225063D01*
X203495198Y-101243317D01*
X203475978Y-101315051D01*
X203475974Y-101315065D01*
X203474501Y-101320559D01*
X203474500Y-101320568D01*
X203474500Y-101804902D01*
X203454815Y-101871941D01*
X203438181Y-101892583D01*
X203369481Y-101961282D01*
X203369475Y-101961290D01*
X203290426Y-102098209D01*
X203290423Y-102098216D01*
X203249500Y-102250943D01*
X203249500Y-102409057D01*
X203289367Y-102557841D01*
X203290423Y-102561783D01*
X203290426Y-102561790D01*
X203369475Y-102698709D01*
X203369479Y-102698714D01*
X203369480Y-102698716D01*
X203481284Y-102810520D01*
X203618216Y-102889577D01*
X203618219Y-102889577D01*
X203622851Y-102892252D01*
X203671067Y-102942819D01*
X203684291Y-103011426D01*
X203658323Y-103076291D01*
X203622854Y-103107026D01*
X203531988Y-103159489D01*
X203531982Y-103159493D01*
X203429493Y-103261982D01*
X203429488Y-103261988D01*
X203357017Y-103387511D01*
X203357016Y-103387515D01*
X203319500Y-103527525D01*
X203319500Y-103672475D01*
X203357016Y-103812485D01*
X203357017Y-103812488D01*
X203429488Y-103938011D01*
X203429490Y-103938013D01*
X203429491Y-103938015D01*
X203531985Y-104040509D01*
X203594169Y-104076411D01*
X203629192Y-104096632D01*
X203677408Y-104147199D01*
X203690630Y-104215806D01*
X203664662Y-104280671D01*
X203629192Y-104311406D01*
X203511287Y-104379477D01*
X203511282Y-104379481D01*
X203399481Y-104491282D01*
X203399475Y-104491290D01*
X203320426Y-104628209D01*
X203320423Y-104628216D01*
X203279500Y-104780943D01*
X203279500Y-104939057D01*
X203302533Y-105025015D01*
X203320423Y-105091783D01*
X203320426Y-105091790D01*
X203399475Y-105228709D01*
X203399479Y-105228714D01*
X203399480Y-105228716D01*
X203511284Y-105340520D01*
X203511286Y-105340521D01*
X203511290Y-105340524D01*
X203648209Y-105419573D01*
X203648216Y-105419577D01*
X203800943Y-105460500D01*
X203800945Y-105460500D01*
X203959055Y-105460500D01*
X203959057Y-105460500D01*
X204111784Y-105419577D01*
X204248716Y-105340520D01*
X204360520Y-105228716D01*
X204439577Y-105091784D01*
X204480500Y-104939057D01*
X204480500Y-104841899D01*
X204500185Y-104774860D01*
X204516819Y-104754218D01*
X205510470Y-103760567D01*
X205510474Y-103760563D01*
X205512567Y-103756938D01*
X205559910Y-103674938D01*
X205585500Y-103579435D01*
X205585500Y-102628016D01*
X205605185Y-102560977D01*
X205657989Y-102515222D01*
X205727147Y-102505278D01*
X205771499Y-102520628D01*
X205835957Y-102557843D01*
X205988684Y-102598766D01*
X205988686Y-102598766D01*
X206146796Y-102598766D01*
X206146798Y-102598766D01*
X206299525Y-102557843D01*
X206369594Y-102517388D01*
X206431594Y-102500776D01*
X207224159Y-102500776D01*
X207224160Y-102500776D01*
X207271809Y-102488007D01*
X207284578Y-102484587D01*
X207300045Y-102480442D01*
X207319662Y-102475186D01*
X207405286Y-102425751D01*
X207475199Y-102355838D01*
X211474157Y-98356879D01*
X211483642Y-98351700D01*
X211490363Y-98343233D01*
X211513772Y-98335248D01*
X211535478Y-98323396D01*
X211546259Y-98324167D01*
X211556492Y-98320677D01*
X211580501Y-98326615D01*
X211605170Y-98328380D01*
X211613824Y-98334858D01*
X211624317Y-98337454D01*
X211641303Y-98355429D01*
X211661103Y-98370252D01*
X211664880Y-98380380D01*
X211672305Y-98388237D01*
X211676876Y-98412541D01*
X211685520Y-98435716D01*
X211683562Y-98448088D01*
X211685220Y-98456903D01*
X211679219Y-98475529D01*
X211676746Y-98491164D01*
X211673515Y-98499128D01*
X211670090Y-98505062D01*
X211670090Y-98505063D01*
X211668106Y-98512464D01*
X211668105Y-98512469D01*
X211650163Y-98579433D01*
X211650162Y-98579437D01*
X211644500Y-98600565D01*
X211644500Y-106845614D01*
X211624815Y-106912653D01*
X211608181Y-106933295D01*
X211551993Y-106989482D01*
X211551988Y-106989488D01*
X211479517Y-107115011D01*
X211479516Y-107115015D01*
X211442000Y-107255025D01*
X211442000Y-107399975D01*
X211479516Y-107539985D01*
X211479517Y-107539988D01*
X211551988Y-107665511D01*
X211551990Y-107665513D01*
X211551991Y-107665515D01*
X211654485Y-107768009D01*
X211654486Y-107768010D01*
X211654488Y-107768011D01*
X211780011Y-107840482D01*
X211780012Y-107840482D01*
X211780015Y-107840484D01*
X211920025Y-107878000D01*
X211920028Y-107878000D01*
X212064972Y-107878000D01*
X212064975Y-107878000D01*
X212204985Y-107840484D01*
X212330515Y-107768009D01*
X212433009Y-107665515D01*
X212505484Y-107539985D01*
X212543000Y-107399975D01*
X212543000Y-107255025D01*
X212529602Y-107205025D01*
X215172000Y-107205025D01*
X215172000Y-107349975D01*
X215204942Y-107472913D01*
X215209517Y-107489988D01*
X215281988Y-107615511D01*
X215281990Y-107615513D01*
X215281991Y-107615515D01*
X215384485Y-107718009D01*
X215384486Y-107718010D01*
X215384488Y-107718011D01*
X215510011Y-107790482D01*
X215510012Y-107790482D01*
X215510015Y-107790484D01*
X215650025Y-107828000D01*
X215690601Y-107828000D01*
X215757640Y-107847685D01*
X215778281Y-107864318D01*
X218051937Y-110137975D01*
X218137563Y-110187411D01*
X218233064Y-110213000D01*
X218233065Y-110213000D01*
X218690987Y-110213000D01*
X218758026Y-110232685D01*
X218803781Y-110285489D01*
X218813725Y-110354647D01*
X218796375Y-110399927D01*
X218797098Y-110400314D01*
X218794221Y-110405695D01*
X218741421Y-110533167D01*
X218741418Y-110533177D01*
X218714500Y-110668504D01*
X218714500Y-110668507D01*
X218714500Y-110806493D01*
X218714500Y-110806495D01*
X218714499Y-110806495D01*
X218741418Y-110941822D01*
X218741421Y-110941832D01*
X218794221Y-111069304D01*
X218794228Y-111069317D01*
X218870885Y-111184041D01*
X218870888Y-111184045D01*
X218968454Y-111281611D01*
X218968458Y-111281614D01*
X219083182Y-111358271D01*
X219083195Y-111358278D01*
X219130698Y-111377954D01*
X219210672Y-111411080D01*
X219210676Y-111411080D01*
X219210677Y-111411081D01*
X219346004Y-111438000D01*
X219346007Y-111438000D01*
X219483995Y-111438000D01*
X219575041Y-111419889D01*
X219619328Y-111411080D01*
X219717924Y-111370240D01*
X219746804Y-111358278D01*
X219746804Y-111358277D01*
X219746811Y-111358275D01*
X219861542Y-111281614D01*
X219959114Y-111184042D01*
X220035775Y-111069311D01*
X220088580Y-110941828D01*
X220115500Y-110806493D01*
X220115500Y-110668507D01*
X220115500Y-110668504D01*
X220088581Y-110533177D01*
X220088580Y-110533176D01*
X220088580Y-110533172D01*
X220048047Y-110435316D01*
X220035778Y-110405695D01*
X220032902Y-110400314D01*
X220033981Y-110399736D01*
X220015033Y-110339207D01*
X220033521Y-110271828D01*
X220085502Y-110225140D01*
X220139013Y-110213000D01*
X236109434Y-110213000D01*
X236109436Y-110213000D01*
X236182635Y-110193386D01*
X236204938Y-110187410D01*
X236290562Y-110137975D01*
X236360475Y-110068062D01*
X236360474Y-110068062D01*
X236419043Y-110009493D01*
X236419042Y-110009493D01*
X236807322Y-109621213D01*
X238422000Y-109621213D01*
X238422000Y-109833787D01*
X238455254Y-110043743D01*
X238516645Y-110232685D01*
X238520944Y-110245914D01*
X238617451Y-110435320D01*
X238742390Y-110607286D01*
X238892713Y-110757609D01*
X239064679Y-110882548D01*
X239064681Y-110882549D01*
X239064684Y-110882551D01*
X239254088Y-110979057D01*
X239456257Y-111044746D01*
X239666213Y-111078000D01*
X239666214Y-111078000D01*
X239878786Y-111078000D01*
X239878787Y-111078000D01*
X240088743Y-111044746D01*
X240290912Y-110979057D01*
X240480316Y-110882551D01*
X240510500Y-110860621D01*
X240652286Y-110757609D01*
X240652288Y-110757606D01*
X240652292Y-110757604D01*
X240802604Y-110607292D01*
X240802606Y-110607288D01*
X240802609Y-110607286D01*
X240927548Y-110435320D01*
X240927547Y-110435320D01*
X240927551Y-110435316D01*
X241024057Y-110245912D01*
X241089746Y-110043743D01*
X241123000Y-109833787D01*
X241123000Y-109621213D01*
X241089746Y-109411257D01*
X241024057Y-109209088D01*
X240927551Y-109019684D01*
X240927549Y-109019681D01*
X240927548Y-109019679D01*
X240802609Y-108847713D01*
X240652286Y-108697390D01*
X240480320Y-108572451D01*
X240290914Y-108475944D01*
X240290913Y-108475943D01*
X240290912Y-108475943D01*
X240088743Y-108410254D01*
X240088741Y-108410253D01*
X240088740Y-108410253D01*
X239927457Y-108384708D01*
X239878787Y-108377000D01*
X239666213Y-108377000D01*
X239617542Y-108384708D01*
X239456260Y-108410253D01*
X239254085Y-108475944D01*
X239064679Y-108572451D01*
X238892713Y-108697390D01*
X238742390Y-108847713D01*
X238617451Y-109019679D01*
X238520944Y-109209085D01*
X238455253Y-109411260D01*
X238428276Y-109581588D01*
X238422000Y-109621213D01*
X236807322Y-109621213D01*
X240390475Y-106038063D01*
X240439911Y-105952437D01*
X240465500Y-105856936D01*
X240465500Y-105758064D01*
X240465500Y-105691886D01*
X240485185Y-105624847D01*
X240501819Y-105604205D01*
X240530509Y-105575515D01*
X240602984Y-105449985D01*
X240640500Y-105309975D01*
X240640500Y-105165025D01*
X240602984Y-105025015D01*
X240599575Y-105019111D01*
X240530511Y-104899488D01*
X240530506Y-104899482D01*
X240428017Y-104796993D01*
X240428011Y-104796988D01*
X240302488Y-104724517D01*
X240302489Y-104724517D01*
X240278925Y-104718203D01*
X240162475Y-104687000D01*
X240017525Y-104687000D01*
X239901075Y-104718203D01*
X239877511Y-104724517D01*
X239751988Y-104796988D01*
X239751982Y-104796993D01*
X239649493Y-104899482D01*
X239649488Y-104899488D01*
X239577017Y-105025011D01*
X239577016Y-105025015D01*
X239539500Y-105165025D01*
X239539500Y-105309975D01*
X239572475Y-105433037D01*
X239577017Y-105449988D01*
X239653555Y-105582554D01*
X239650490Y-105584323D01*
X239669885Y-105634246D01*
X239655959Y-105702714D01*
X239634013Y-105732448D01*
X235940782Y-109425681D01*
X235879459Y-109459166D01*
X235853101Y-109462000D01*
X220944569Y-109462000D01*
X220877530Y-109442315D01*
X220831775Y-109389511D01*
X220821831Y-109320353D01*
X220824790Y-109305923D01*
X220850500Y-109209975D01*
X220850500Y-109065025D01*
X220812984Y-108925015D01*
X220809889Y-108919655D01*
X220740511Y-108799488D01*
X220740506Y-108799482D01*
X220736819Y-108795795D01*
X220703334Y-108734472D01*
X220700500Y-108708114D01*
X220700500Y-107844755D01*
X220720185Y-107777716D01*
X220736819Y-107757074D01*
X221419574Y-107074319D01*
X221480897Y-107040834D01*
X221507255Y-107038000D01*
X221569055Y-107038000D01*
X221569057Y-107038000D01*
X221721784Y-106997077D01*
X221858716Y-106918020D01*
X221970520Y-106806216D01*
X222049577Y-106669284D01*
X222090500Y-106516557D01*
X222090500Y-106358443D01*
X222049577Y-106205716D01*
X221984990Y-106093847D01*
X221970524Y-106068790D01*
X221970518Y-106068782D01*
X221858717Y-105956981D01*
X221858709Y-105956975D01*
X221721790Y-105877926D01*
X221721786Y-105877924D01*
X221721784Y-105877923D01*
X221569057Y-105837000D01*
X221410943Y-105837000D01*
X221258216Y-105877923D01*
X221258209Y-105877926D01*
X221121290Y-105956975D01*
X221121282Y-105956981D01*
X221009481Y-106068782D01*
X221009475Y-106068790D01*
X220930426Y-106205709D01*
X220930423Y-106205716D01*
X220889500Y-106358443D01*
X220889500Y-106420245D01*
X220869815Y-106487284D01*
X220853181Y-106507926D01*
X219979522Y-107381584D01*
X219979518Y-107381590D01*
X219926792Y-107472913D01*
X219926791Y-107472915D01*
X219917375Y-107508060D01*
X219917375Y-107508062D01*
X219899500Y-107574773D01*
X219899500Y-108708114D01*
X219879815Y-108775153D01*
X219863181Y-108795795D01*
X219859493Y-108799482D01*
X219859488Y-108799488D01*
X219787017Y-108925011D01*
X219787016Y-108925015D01*
X219749500Y-109065025D01*
X219749500Y-109209975D01*
X219775205Y-109305909D01*
X219773543Y-109375756D01*
X219734381Y-109433618D01*
X219670153Y-109461123D01*
X219655431Y-109462000D01*
X218489400Y-109462000D01*
X218422361Y-109442315D01*
X218401719Y-109425681D01*
X216309319Y-107333281D01*
X216275834Y-107271958D01*
X216273000Y-107245600D01*
X216273000Y-107205027D01*
X216273000Y-107205025D01*
X216235484Y-107065015D01*
X216219886Y-107037999D01*
X216163011Y-106939488D01*
X216163006Y-106939482D01*
X216060517Y-106836993D01*
X216060511Y-106836988D01*
X215934988Y-106764517D01*
X215934989Y-106764517D01*
X215923506Y-106761440D01*
X215794975Y-106727000D01*
X215650025Y-106727000D01*
X215521493Y-106761440D01*
X215510011Y-106764517D01*
X215384488Y-106836988D01*
X215384482Y-106836993D01*
X215281993Y-106939482D01*
X215281988Y-106939488D01*
X215209517Y-107065011D01*
X215209516Y-107065015D01*
X215172000Y-107205025D01*
X212529602Y-107205025D01*
X212505484Y-107115015D01*
X212476616Y-107065015D01*
X212433011Y-106989488D01*
X212433006Y-106989482D01*
X212431819Y-106988295D01*
X212431137Y-106987046D01*
X212428062Y-106983039D01*
X212428687Y-106982559D01*
X212398334Y-106926972D01*
X212395500Y-106900614D01*
X212395500Y-104065025D01*
X215212000Y-104065025D01*
X215212000Y-104209975D01*
X215236236Y-104300423D01*
X215249517Y-104349988D01*
X215321988Y-104475511D01*
X215321990Y-104475513D01*
X215321991Y-104475515D01*
X215424485Y-104578009D01*
X215424486Y-104578010D01*
X215424488Y-104578011D01*
X215550011Y-104650482D01*
X215550012Y-104650482D01*
X215550015Y-104650484D01*
X215690025Y-104688000D01*
X215690028Y-104688000D01*
X215834972Y-104688000D01*
X215834975Y-104688000D01*
X215974985Y-104650484D01*
X216100515Y-104578009D01*
X216129205Y-104549319D01*
X216190528Y-104515834D01*
X216216886Y-104513000D01*
X218534101Y-104513000D01*
X218601140Y-104532685D01*
X218646895Y-104585489D01*
X218656839Y-104654647D01*
X218627814Y-104718203D01*
X218621782Y-104724681D01*
X218299527Y-105046935D01*
X218299525Y-105046937D01*
X218299525Y-105046938D01*
X218250090Y-105132562D01*
X218250090Y-105132563D01*
X218243536Y-105157025D01*
X218229366Y-105209907D01*
X218229365Y-105209911D01*
X218224500Y-105228065D01*
X218224500Y-107983114D01*
X218204815Y-108050153D01*
X218188181Y-108070795D01*
X218159493Y-108099482D01*
X218159488Y-108099488D01*
X218087017Y-108225011D01*
X218087016Y-108225015D01*
X218049500Y-108365025D01*
X218049500Y-108509975D01*
X218066241Y-108572451D01*
X218087017Y-108649988D01*
X218159488Y-108775511D01*
X218159490Y-108775513D01*
X218159491Y-108775515D01*
X218261985Y-108878009D01*
X218261986Y-108878010D01*
X218261988Y-108878011D01*
X218387511Y-108950482D01*
X218387512Y-108950482D01*
X218387515Y-108950484D01*
X218527525Y-108988000D01*
X218527528Y-108988000D01*
X218672472Y-108988000D01*
X218672475Y-108988000D01*
X218812485Y-108950484D01*
X218938015Y-108878009D01*
X219040509Y-108775515D01*
X219112984Y-108649985D01*
X219150500Y-108509975D01*
X219150500Y-108365025D01*
X219112984Y-108225015D01*
X219067673Y-108146535D01*
X219040511Y-108099488D01*
X219040506Y-108099482D01*
X219011819Y-108070795D01*
X218978334Y-108009472D01*
X218975500Y-107983114D01*
X218975500Y-106160886D01*
X218995185Y-106093847D01*
X219047989Y-106048092D01*
X219117147Y-106038148D01*
X219180703Y-106067173D01*
X219187181Y-106073205D01*
X219231985Y-106118009D01*
X219231986Y-106118010D01*
X219231988Y-106118011D01*
X219357511Y-106190482D01*
X219357512Y-106190482D01*
X219357515Y-106190484D01*
X219497525Y-106228000D01*
X219497528Y-106228000D01*
X219642472Y-106228000D01*
X219642475Y-106228000D01*
X219782485Y-106190484D01*
X219908015Y-106118009D01*
X220010509Y-106015515D01*
X220082984Y-105889985D01*
X220120500Y-105749975D01*
X220120500Y-105605025D01*
X220103740Y-105542478D01*
X220105401Y-105472628D01*
X220135831Y-105422704D01*
X221551037Y-104007500D01*
X227590000Y-104007500D01*
X231980000Y-103997500D01*
X231970000Y-99827500D01*
X227590000Y-99827500D01*
X227590000Y-104007500D01*
X221551037Y-104007500D01*
X221980642Y-103577895D01*
X221980643Y-103577894D01*
X222030078Y-103492270D01*
X222034959Y-103474051D01*
X222045476Y-103434807D01*
X222050240Y-103417025D01*
X222055668Y-103396768D01*
X222055668Y-103330459D01*
X222075353Y-103263420D01*
X222091987Y-103242778D01*
X222120677Y-103214088D01*
X222193152Y-103088558D01*
X222230668Y-102948548D01*
X222230668Y-102803598D01*
X222193152Y-102663588D01*
X222172614Y-102628016D01*
X222120679Y-102538061D01*
X222120678Y-102538059D01*
X222120677Y-102538058D01*
X222018183Y-102435564D01*
X222018181Y-102435563D01*
X222018179Y-102435561D01*
X221892656Y-102363090D01*
X221892657Y-102363090D01*
X221865592Y-102355838D01*
X221752643Y-102325573D01*
X221607693Y-102325573D01*
X221494744Y-102355838D01*
X221467679Y-102363090D01*
X221342156Y-102435561D01*
X221342150Y-102435566D01*
X221239657Y-102538059D01*
X221237298Y-102541134D01*
X221234649Y-102543067D01*
X221233912Y-102543805D01*
X221233796Y-102543689D01*
X221214201Y-102557995D01*
X221193024Y-102577218D01*
X221186339Y-102578336D01*
X221180867Y-102582332D01*
X221152322Y-102584030D01*
X221124113Y-102588752D01*
X221116365Y-102586169D01*
X221111121Y-102586482D01*
X221090029Y-102579591D01*
X221083282Y-102576695D01*
X221030677Y-102546324D01*
X220982297Y-102533360D01*
X220974105Y-102529845D01*
X220953777Y-102513035D01*
X220931250Y-102499304D01*
X220927273Y-102491117D01*
X220920261Y-102485319D01*
X220912247Y-102460186D01*
X220900721Y-102436457D01*
X220901801Y-102427421D01*
X220899037Y-102418751D01*
X220905884Y-102393274D01*
X220909016Y-102367081D01*
X220915497Y-102357504D01*
X220917172Y-102351275D01*
X220923763Y-102345292D01*
X220935320Y-102328216D01*
X221604218Y-101659319D01*
X221665541Y-101625834D01*
X221691899Y-101623000D01*
X221789055Y-101623000D01*
X221789057Y-101623000D01*
X221941784Y-101582077D01*
X222078716Y-101503020D01*
X222190520Y-101391216D01*
X222269577Y-101254284D01*
X222310500Y-101101557D01*
X222310500Y-100943443D01*
X222269577Y-100790716D01*
X222269573Y-100790709D01*
X222190524Y-100653790D01*
X222190518Y-100653782D01*
X222078717Y-100541981D01*
X222078709Y-100541975D01*
X221941790Y-100462926D01*
X221941786Y-100462924D01*
X221941784Y-100462923D01*
X221789057Y-100422000D01*
X221630943Y-100422000D01*
X221478216Y-100462923D01*
X221478209Y-100462926D01*
X221341290Y-100541975D01*
X221341282Y-100541981D01*
X221229481Y-100653782D01*
X221229475Y-100653790D01*
X221150426Y-100790709D01*
X221150423Y-100790716D01*
X221109500Y-100943443D01*
X221109500Y-101040601D01*
X221089815Y-101107640D01*
X221073181Y-101128282D01*
X218475782Y-103725681D01*
X218414459Y-103759166D01*
X218388101Y-103762000D01*
X216216886Y-103762000D01*
X216149847Y-103742315D01*
X216129205Y-103725681D01*
X216100517Y-103696993D01*
X216100511Y-103696988D01*
X215974988Y-103624517D01*
X215974989Y-103624517D01*
X215963506Y-103621440D01*
X215834975Y-103587000D01*
X215690025Y-103587000D01*
X215561493Y-103621440D01*
X215550011Y-103624517D01*
X215424488Y-103696988D01*
X215424482Y-103696993D01*
X215321993Y-103799482D01*
X215321988Y-103799488D01*
X215249517Y-103925011D01*
X215249516Y-103925015D01*
X215212000Y-104065025D01*
X212395500Y-104065025D01*
X212395500Y-98856899D01*
X212415185Y-98789860D01*
X212431819Y-98769218D01*
X214131177Y-97069860D01*
X215803748Y-95397289D01*
X216263621Y-95397289D01*
X216263621Y-95542239D01*
X216287800Y-95632475D01*
X216301138Y-95682252D01*
X216373609Y-95807775D01*
X216373611Y-95807777D01*
X216373612Y-95807779D01*
X216476106Y-95910273D01*
X216476107Y-95910274D01*
X216476109Y-95910275D01*
X216601632Y-95982746D01*
X216601633Y-95982746D01*
X216601636Y-95982748D01*
X216741646Y-96020264D01*
X216741649Y-96020264D01*
X216886593Y-96020264D01*
X216886596Y-96020264D01*
X217026606Y-95982748D01*
X217152136Y-95910273D01*
X217174805Y-95887603D01*
X217236124Y-95854120D01*
X217305816Y-95859103D01*
X217352441Y-95893570D01*
X217353744Y-95892268D01*
X217359491Y-95898015D01*
X217461985Y-96000509D01*
X217461986Y-96000510D01*
X217461988Y-96000511D01*
X217587511Y-96072982D01*
X217587512Y-96072982D01*
X217587515Y-96072984D01*
X217727525Y-96110500D01*
X217727528Y-96110500D01*
X217872472Y-96110500D01*
X217872475Y-96110500D01*
X218012485Y-96072984D01*
X218138015Y-96000509D01*
X218240509Y-95898015D01*
X218312984Y-95772485D01*
X218350500Y-95632475D01*
X218350500Y-95591898D01*
X218370185Y-95524859D01*
X218386814Y-95504222D01*
X221196825Y-92694210D01*
X221252408Y-92662119D01*
X221342485Y-92637984D01*
X221468015Y-92565509D01*
X221496705Y-92536819D01*
X221558028Y-92503334D01*
X221584386Y-92500500D01*
X224230467Y-92500500D01*
X224297506Y-92520185D01*
X224318148Y-92536819D01*
X224669364Y-92888035D01*
X224702849Y-92949358D01*
X224705683Y-92975716D01*
X224705683Y-93016292D01*
X224738902Y-93140265D01*
X224743200Y-93156305D01*
X224815671Y-93281828D01*
X224815673Y-93281830D01*
X224815674Y-93281832D01*
X224918168Y-93384326D01*
X224918169Y-93384327D01*
X224918171Y-93384328D01*
X225043694Y-93456799D01*
X225043695Y-93456799D01*
X225043698Y-93456801D01*
X225183708Y-93494317D01*
X225183711Y-93494317D01*
X225328655Y-93494317D01*
X225328658Y-93494317D01*
X225468668Y-93456801D01*
X225594198Y-93384326D01*
X225622888Y-93355636D01*
X225684211Y-93322151D01*
X225710569Y-93319317D01*
X229456918Y-93319317D01*
X229523957Y-93339002D01*
X229544599Y-93355636D01*
X231226782Y-95037819D01*
X231260267Y-95099142D01*
X231255283Y-95168834D01*
X231213411Y-95224767D01*
X231147947Y-95249184D01*
X231139101Y-95249500D01*
X231077525Y-95249500D01*
X230948993Y-95283940D01*
X230937511Y-95287017D01*
X230811988Y-95359488D01*
X230811982Y-95359493D01*
X230709493Y-95461982D01*
X230709488Y-95461988D01*
X230637017Y-95587511D01*
X230637016Y-95587514D01*
X230634189Y-95598063D01*
X230597821Y-95657721D01*
X230534972Y-95688246D01*
X230472669Y-95682723D01*
X230462119Y-95678950D01*
X230424688Y-95657340D01*
X230337743Y-95634043D01*
X230332864Y-95632735D01*
X230332854Y-95632732D01*
X230329187Y-95631750D01*
X230329186Y-95631750D01*
X230329185Y-95631750D01*
X222278658Y-95631750D01*
X222211619Y-95612065D01*
X222190977Y-95595431D01*
X222162289Y-95566743D01*
X222162283Y-95566738D01*
X222036760Y-95494267D01*
X222036761Y-95494267D01*
X221990196Y-95481790D01*
X221896747Y-95456750D01*
X221751797Y-95456750D01*
X221658348Y-95481790D01*
X221611783Y-95494267D01*
X221486260Y-95566738D01*
X221486254Y-95566743D01*
X221383765Y-95669232D01*
X221383760Y-95669238D01*
X221311289Y-95794761D01*
X221311288Y-95794765D01*
X221273772Y-95934775D01*
X221273772Y-96079725D01*
X221306532Y-96201985D01*
X221311289Y-96219738D01*
X221383760Y-96345261D01*
X221383762Y-96345263D01*
X221383763Y-96345265D01*
X221486257Y-96447759D01*
X221486258Y-96447760D01*
X221486260Y-96447761D01*
X221611783Y-96520232D01*
X221611784Y-96520232D01*
X221611787Y-96520234D01*
X221751797Y-96557750D01*
X221751800Y-96557750D01*
X221896744Y-96557750D01*
X221896747Y-96557750D01*
X222036757Y-96520234D01*
X222162287Y-96447759D01*
X222190977Y-96419069D01*
X222252300Y-96385584D01*
X222278658Y-96382750D01*
X230072851Y-96382750D01*
X230139890Y-96402435D01*
X230160532Y-96419069D01*
X231684282Y-97942819D01*
X231717767Y-98004142D01*
X231712783Y-98073834D01*
X231670911Y-98129767D01*
X231605447Y-98154184D01*
X231596601Y-98154500D01*
X226255098Y-98154500D01*
X226188059Y-98134815D01*
X226167417Y-98118181D01*
X226098717Y-98049481D01*
X226098709Y-98049475D01*
X225961790Y-97970426D01*
X225961786Y-97970424D01*
X225961784Y-97970423D01*
X225809057Y-97929500D01*
X225650943Y-97929500D01*
X225498216Y-97970423D01*
X225498209Y-97970426D01*
X225361290Y-98049475D01*
X225361282Y-98049481D01*
X225249481Y-98161282D01*
X225249475Y-98161290D01*
X225170426Y-98298209D01*
X225170423Y-98298216D01*
X225129500Y-98450943D01*
X225129500Y-98609056D01*
X225170423Y-98761783D01*
X225170426Y-98761790D01*
X225249475Y-98898709D01*
X225249479Y-98898714D01*
X225249480Y-98898716D01*
X225361284Y-99010520D01*
X225361286Y-99010521D01*
X225361290Y-99010524D01*
X225498209Y-99089573D01*
X225498216Y-99089577D01*
X225650943Y-99130500D01*
X225650945Y-99130500D01*
X225809055Y-99130500D01*
X225809057Y-99130500D01*
X225961784Y-99089577D01*
X226098716Y-99010520D01*
X226167417Y-98941819D01*
X226228740Y-98908334D01*
X226255098Y-98905500D01*
X231625601Y-98905500D01*
X231692640Y-98925185D01*
X231713282Y-98941819D01*
X236716859Y-103945396D01*
X236750344Y-104006719D01*
X236745360Y-104076411D01*
X236736566Y-104095075D01*
X236730425Y-104105711D01*
X236730423Y-104105716D01*
X236689500Y-104258443D01*
X236689500Y-104416557D01*
X236725074Y-104549319D01*
X236730423Y-104569283D01*
X236730426Y-104569290D01*
X236809475Y-104706209D01*
X236809479Y-104706214D01*
X236809480Y-104706216D01*
X236921284Y-104818020D01*
X236921286Y-104818021D01*
X236921290Y-104818024D01*
X236965498Y-104843547D01*
X237058216Y-104897077D01*
X237210943Y-104938000D01*
X237210945Y-104938000D01*
X237369054Y-104938000D01*
X237369057Y-104938000D01*
X237458409Y-104914058D01*
X237528256Y-104915721D01*
X237586119Y-104954883D01*
X237613623Y-105019111D01*
X237614500Y-105033833D01*
X237614500Y-105562402D01*
X237594815Y-105629441D01*
X237578181Y-105650083D01*
X237509481Y-105718782D01*
X237509475Y-105718790D01*
X237430426Y-105855709D01*
X237430423Y-105855716D01*
X237389500Y-106008443D01*
X237389500Y-106166556D01*
X237430423Y-106319283D01*
X237430426Y-106319290D01*
X237509475Y-106456209D01*
X237509479Y-106456214D01*
X237509480Y-106456216D01*
X237621284Y-106568020D01*
X237621286Y-106568021D01*
X237621290Y-106568024D01*
X237758209Y-106647073D01*
X237758216Y-106647077D01*
X237910943Y-106688000D01*
X237910945Y-106688000D01*
X238069055Y-106688000D01*
X238069057Y-106688000D01*
X238221784Y-106647077D01*
X238358716Y-106568020D01*
X238470520Y-106456216D01*
X238549577Y-106319284D01*
X238590500Y-106166557D01*
X238590500Y-106008443D01*
X238549577Y-105855716D01*
X238549573Y-105855709D01*
X238470524Y-105718790D01*
X238470518Y-105718782D01*
X238401819Y-105650083D01*
X238368334Y-105588760D01*
X238365500Y-105562402D01*
X238365500Y-103668065D01*
X238360508Y-103649437D01*
X238360507Y-103649432D01*
X238349890Y-103609808D01*
X238339910Y-103572562D01*
X238290475Y-103486938D01*
X238220562Y-103417025D01*
X237751195Y-102947658D01*
X237717710Y-102886335D01*
X237722694Y-102816643D01*
X237764566Y-102760710D01*
X237776868Y-102752594D01*
X237888716Y-102688020D01*
X238000520Y-102576216D01*
X238079577Y-102439284D01*
X238120500Y-102286557D01*
X238120500Y-102128443D01*
X238079577Y-101975716D01*
X238019663Y-101871941D01*
X238000524Y-101838790D01*
X238000518Y-101838782D01*
X237888717Y-101726981D01*
X237888709Y-101726975D01*
X237751790Y-101647926D01*
X237751786Y-101647924D01*
X237751784Y-101647923D01*
X237599057Y-101607000D01*
X237599056Y-101607000D01*
X237501899Y-101607000D01*
X237434860Y-101587315D01*
X237414218Y-101570681D01*
X233145718Y-97302181D01*
X233112233Y-97240858D01*
X233117217Y-97171166D01*
X233159089Y-97115233D01*
X233224553Y-97090816D01*
X233233399Y-97090500D01*
X233332472Y-97090500D01*
X233332475Y-97090500D01*
X233472485Y-97052984D01*
X233598015Y-96980509D01*
X233662819Y-96915705D01*
X233676215Y-96908389D01*
X233686545Y-96897152D01*
X233706257Y-96891985D01*
X233724142Y-96882220D01*
X233739366Y-96883308D01*
X233754132Y-96879439D01*
X233773507Y-96885750D01*
X233793834Y-96887204D01*
X233806053Y-96896351D01*
X233820566Y-96901079D01*
X233833453Y-96916863D01*
X233849767Y-96929076D01*
X233855774Y-96944201D01*
X233864755Y-96955201D01*
X233869540Y-96978864D01*
X233873702Y-96989342D01*
X233874500Y-96996342D01*
X233874500Y-97046936D01*
X233882154Y-97075500D01*
X233884536Y-97084392D01*
X233884537Y-97084395D01*
X233900090Y-97142439D01*
X233916676Y-97171166D01*
X233937898Y-97207923D01*
X233949526Y-97228063D01*
X233949528Y-97228065D01*
X236578181Y-99856718D01*
X236611666Y-99918041D01*
X236614500Y-99944399D01*
X236614500Y-100041556D01*
X236655423Y-100194283D01*
X236655426Y-100194290D01*
X236734475Y-100331209D01*
X236734479Y-100331214D01*
X236734480Y-100331216D01*
X236846284Y-100443020D01*
X236846286Y-100443021D01*
X236846290Y-100443024D01*
X236983209Y-100522073D01*
X236983216Y-100522077D01*
X237135943Y-100563000D01*
X237135945Y-100563000D01*
X237294055Y-100563000D01*
X237294057Y-100563000D01*
X237446784Y-100522077D01*
X237583716Y-100443020D01*
X237695520Y-100331216D01*
X237774577Y-100194284D01*
X237815500Y-100041557D01*
X237815500Y-99883443D01*
X237774577Y-99730716D01*
X237774573Y-99730709D01*
X237695524Y-99593790D01*
X237695518Y-99593782D01*
X237583717Y-99481981D01*
X237583709Y-99481975D01*
X237446790Y-99402926D01*
X237446786Y-99402924D01*
X237446784Y-99402923D01*
X237294057Y-99362000D01*
X237294056Y-99362000D01*
X237196899Y-99362000D01*
X237129860Y-99342315D01*
X237109218Y-99325681D01*
X234661819Y-96878282D01*
X234628334Y-96816959D01*
X234625500Y-96790601D01*
X234625500Y-89706195D01*
X236259752Y-89706195D01*
X238349752Y-89706195D01*
X238349752Y-87806195D01*
X236259752Y-87806195D01*
X236259752Y-89706195D01*
X234625500Y-89706195D01*
X234625500Y-89554386D01*
X234645185Y-89487347D01*
X234661819Y-89466705D01*
X234690509Y-89438015D01*
X234762984Y-89312485D01*
X234800500Y-89172475D01*
X234800500Y-89027525D01*
X234762984Y-88887515D01*
X234690509Y-88761985D01*
X234588015Y-88659491D01*
X234588013Y-88659490D01*
X234588011Y-88659488D01*
X234462488Y-88587017D01*
X234462489Y-88587017D01*
X234451006Y-88583940D01*
X234322475Y-88549500D01*
X234177525Y-88549500D01*
X234048993Y-88583940D01*
X234037511Y-88587017D01*
X233911988Y-88659488D01*
X233911982Y-88659493D01*
X233809493Y-88761982D01*
X233809488Y-88761988D01*
X233737017Y-88887511D01*
X233737016Y-88887515D01*
X233699500Y-89027525D01*
X233699500Y-89172475D01*
X233737016Y-89312485D01*
X233737017Y-89312488D01*
X233809488Y-89438011D01*
X233809493Y-89438017D01*
X233838181Y-89466705D01*
X233871666Y-89528028D01*
X233874500Y-89554386D01*
X233874500Y-95166614D01*
X233854815Y-95233653D01*
X233802011Y-95279408D01*
X233732853Y-95289352D01*
X233669297Y-95260327D01*
X233662819Y-95254295D01*
X233598017Y-95189493D01*
X233598011Y-95189488D01*
X233472488Y-95117017D01*
X233472489Y-95117017D01*
X233461006Y-95113940D01*
X233332475Y-95079500D01*
X233332472Y-95079500D01*
X233291899Y-95079500D01*
X233224860Y-95059815D01*
X233204218Y-95043181D01*
X229290563Y-91129526D01*
X229290562Y-91129525D01*
X229204940Y-91080091D01*
X229204939Y-91080090D01*
X229117993Y-91056793D01*
X229117993Y-91056792D01*
X229117990Y-91056792D01*
X229109437Y-91054500D01*
X229109436Y-91054500D01*
X229109435Y-91054500D01*
X225704386Y-91054500D01*
X225637347Y-91034815D01*
X225616705Y-91018181D01*
X225588017Y-90989493D01*
X225588011Y-90989488D01*
X225462488Y-90917017D01*
X225462489Y-90917017D01*
X225451006Y-90913940D01*
X225322475Y-90879500D01*
X225177525Y-90879500D01*
X225048993Y-90913940D01*
X225037511Y-90917017D01*
X224911988Y-90989488D01*
X224911982Y-90989493D01*
X224883295Y-91018181D01*
X224821972Y-91051666D01*
X224795614Y-91054500D01*
X220850092Y-91054500D01*
X220751220Y-91054500D01*
X220742667Y-91056792D01*
X220742663Y-91056793D01*
X220655716Y-91080090D01*
X220655715Y-91080091D01*
X220570092Y-91129526D01*
X220414117Y-91285502D01*
X220352794Y-91318987D01*
X220326436Y-91321821D01*
X220285860Y-91321821D01*
X220160170Y-91355500D01*
X220145846Y-91359338D01*
X220020323Y-91431809D01*
X220020317Y-91431814D01*
X219917828Y-91534303D01*
X219917823Y-91534309D01*
X219845352Y-91659832D01*
X219845351Y-91659836D01*
X219807835Y-91799846D01*
X219807835Y-91799848D01*
X219807835Y-91840422D01*
X219788150Y-91907461D01*
X219771516Y-91928103D01*
X216815987Y-94883631D01*
X216754664Y-94917116D01*
X216744498Y-94918888D01*
X216741653Y-94919262D01*
X216601632Y-94956781D01*
X216476109Y-95029252D01*
X216476103Y-95029257D01*
X216373614Y-95131746D01*
X216373609Y-95131752D01*
X216301138Y-95257275D01*
X216301137Y-95257279D01*
X216263621Y-95397289D01*
X215803748Y-95397289D01*
X215844475Y-95356562D01*
X215893911Y-95270937D01*
X215919500Y-95175436D01*
X215919500Y-95076564D01*
X215919500Y-92773767D01*
X215939185Y-92706728D01*
X215955819Y-92686086D01*
X216394218Y-92247687D01*
X216455541Y-92214202D01*
X216481899Y-92211368D01*
X216522472Y-92211368D01*
X216522475Y-92211368D01*
X216662485Y-92173852D01*
X216788015Y-92101377D01*
X216890509Y-91998883D01*
X216962984Y-91873353D01*
X217000500Y-91733343D01*
X217000500Y-91588393D01*
X216962984Y-91448383D01*
X216945856Y-91418717D01*
X216890511Y-91322856D01*
X216890506Y-91322850D01*
X216788017Y-91220361D01*
X216788011Y-91220356D01*
X216662488Y-91147885D01*
X216662489Y-91147885D01*
X216651006Y-91144808D01*
X216522475Y-91110368D01*
X216377525Y-91110368D01*
X216248993Y-91144808D01*
X216237511Y-91147885D01*
X216111988Y-91220356D01*
X216111982Y-91220361D01*
X216009493Y-91322850D01*
X216009488Y-91322856D01*
X215937017Y-91448379D01*
X215937016Y-91448383D01*
X215899500Y-91588393D01*
X215899500Y-91588395D01*
X215899500Y-91628969D01*
X215879815Y-91696008D01*
X215863181Y-91716650D01*
X215243524Y-92336306D01*
X215242875Y-92337153D01*
X215242144Y-92337686D01*
X215237778Y-92342053D01*
X215237097Y-92341372D01*
X215186447Y-92378356D01*
X215116701Y-92382510D01*
X215055781Y-92348297D01*
X215023028Y-92286579D01*
X215022038Y-92281135D01*
X215020500Y-92271460D01*
X215020500Y-92206811D01*
X214995225Y-92112486D01*
X214994212Y-92106109D01*
X214997878Y-92077612D01*
X214998562Y-92048884D01*
X215002280Y-92043389D01*
X215003127Y-92036811D01*
X215021615Y-92014821D01*
X215037724Y-91991021D01*
X215044613Y-91987469D01*
X215048092Y-91983332D01*
X215059490Y-91979800D01*
X215084581Y-91966865D01*
X215111784Y-91959577D01*
X215248716Y-91880520D01*
X215360520Y-91768716D01*
X215439577Y-91631784D01*
X215480500Y-91479057D01*
X215480500Y-91320943D01*
X215439577Y-91168216D01*
X215427839Y-91147885D01*
X215360524Y-91031290D01*
X215360518Y-91031282D01*
X215248717Y-90919481D01*
X215248709Y-90919475D01*
X215111790Y-90840426D01*
X215111786Y-90840424D01*
X215111784Y-90840423D01*
X214959057Y-90799500D01*
X214800943Y-90799500D01*
X214648216Y-90840423D01*
X214648209Y-90840426D01*
X214511290Y-90919475D01*
X214511282Y-90919481D01*
X214442583Y-90988181D01*
X214381260Y-91021666D01*
X214354902Y-91024500D01*
X212600564Y-91024500D01*
X212552812Y-91037295D01*
X212552811Y-91037294D01*
X212505066Y-91050088D01*
X212505059Y-91050091D01*
X212481126Y-91063908D01*
X212462250Y-91074807D01*
X212453100Y-91080090D01*
X212419440Y-91099522D01*
X212419435Y-91099526D01*
X210412181Y-93106780D01*
X210350858Y-93140265D01*
X210281166Y-93135281D01*
X210225233Y-93093409D01*
X210200816Y-93027945D01*
X210200500Y-93019099D01*
X210200500Y-91575098D01*
X210220185Y-91508059D01*
X210236819Y-91487417D01*
X210264236Y-91460000D01*
X210305520Y-91418716D01*
X210384577Y-91281784D01*
X210425500Y-91129057D01*
X210425500Y-90970943D01*
X210384577Y-90818216D01*
X210384573Y-90818209D01*
X210305524Y-90681290D01*
X210305518Y-90681282D01*
X210193717Y-90569481D01*
X210193709Y-90569475D01*
X210056790Y-90490426D01*
X210056786Y-90490424D01*
X210056784Y-90490423D01*
X209904057Y-90449500D01*
X209745943Y-90449500D01*
X209593216Y-90490423D01*
X209593209Y-90490426D01*
X209456290Y-90569475D01*
X209456282Y-90569481D01*
X209344481Y-90681282D01*
X209344475Y-90681290D01*
X209265426Y-90818209D01*
X209265423Y-90818216D01*
X209224500Y-90970943D01*
X209224500Y-91129057D01*
X209254366Y-91240516D01*
X209265423Y-91281783D01*
X209265426Y-91281790D01*
X209344475Y-91418709D01*
X209344481Y-91418717D01*
X209413181Y-91487417D01*
X209446666Y-91548740D01*
X209449500Y-91575098D01*
X209449500Y-93018099D01*
X209429815Y-93085138D01*
X209413181Y-93105780D01*
X208787181Y-93731780D01*
X208725858Y-93765265D01*
X208656166Y-93760281D01*
X208600233Y-93718409D01*
X208575816Y-93652945D01*
X208575500Y-93644099D01*
X208575500Y-87742311D01*
X208595185Y-87675272D01*
X208611819Y-87654630D01*
X209654631Y-86611819D01*
X209715954Y-86578334D01*
X209742312Y-86575500D01*
X210474902Y-86575500D01*
X210541941Y-86595185D01*
X210562583Y-86611819D01*
X210631284Y-86680520D01*
X210631286Y-86680521D01*
X210631290Y-86680524D01*
X210768209Y-86759573D01*
X210768216Y-86759577D01*
X210920943Y-86800500D01*
X210920945Y-86800500D01*
X211079055Y-86800500D01*
X211079057Y-86800500D01*
X211231784Y-86759577D01*
X211368716Y-86680520D01*
X211480520Y-86568716D01*
X211559577Y-86431784D01*
X211600500Y-86279057D01*
X211600500Y-86120943D01*
X211559577Y-85968216D01*
X211505764Y-85875008D01*
X211480524Y-85831290D01*
X211480518Y-85831282D01*
X211436917Y-85787681D01*
X211403432Y-85726358D01*
X211408416Y-85656666D01*
X211436917Y-85612319D01*
X211457927Y-85591309D01*
X211480520Y-85568716D01*
X211559577Y-85431784D01*
X211600500Y-85279057D01*
X211600500Y-85120943D01*
X211559577Y-84968216D01*
X211559573Y-84968209D01*
X211480524Y-84831290D01*
X211480518Y-84831282D01*
X211368717Y-84719481D01*
X211368709Y-84719475D01*
X211231790Y-84640426D01*
X211231786Y-84640424D01*
X211231784Y-84640423D01*
X211079057Y-84599500D01*
X210920943Y-84599500D01*
X210768216Y-84640423D01*
X210768209Y-84640426D01*
X210631290Y-84719475D01*
X210631282Y-84719481D01*
X210562583Y-84788181D01*
X210501260Y-84821666D01*
X210474902Y-84824500D01*
X209450564Y-84824500D01*
X209355063Y-84850089D01*
X209355060Y-84850090D01*
X209269440Y-84899522D01*
X209269435Y-84899526D01*
X207566931Y-86602031D01*
X207505608Y-86635516D01*
X207435916Y-86630532D01*
X207379983Y-86588660D01*
X207355566Y-86523196D01*
X207355250Y-86514350D01*
X207355250Y-85278362D01*
X207362917Y-85239822D01*
X207362223Y-85239636D01*
X207366912Y-85222135D01*
X207405250Y-85079057D01*
X207405250Y-84920943D01*
X207364327Y-84768216D01*
X207364326Y-84768214D01*
X207362223Y-84760365D01*
X207362915Y-84760179D01*
X207355250Y-84721637D01*
X207355250Y-84278362D01*
X207362917Y-84239822D01*
X207362223Y-84239636D01*
X207378063Y-84180520D01*
X207405250Y-84079057D01*
X207405250Y-83920943D01*
X207364327Y-83768216D01*
X207336490Y-83720000D01*
X207285274Y-83631290D01*
X207285268Y-83631282D01*
X207173467Y-83519481D01*
X207173459Y-83519475D01*
X207036540Y-83440426D01*
X207036536Y-83440424D01*
X207036534Y-83440423D01*
X206883807Y-83399500D01*
X206725693Y-83399500D01*
X206572966Y-83440423D01*
X206572959Y-83440426D01*
X206436040Y-83519475D01*
X206436032Y-83519481D01*
X206324231Y-83631282D01*
X206324225Y-83631290D01*
X206245176Y-83768209D01*
X206245173Y-83768216D01*
X206204250Y-83920943D01*
X206204250Y-84079057D01*
X206213467Y-84113455D01*
X206247277Y-84239636D01*
X206246582Y-84239822D01*
X206254250Y-84278362D01*
X206254250Y-84721637D01*
X206246584Y-84760179D01*
X206247277Y-84760365D01*
X206245173Y-84768214D01*
X206245173Y-84768216D01*
X206204250Y-84920943D01*
X206204250Y-85079057D01*
X206215474Y-85120945D01*
X206247277Y-85239636D01*
X206246582Y-85239822D01*
X206254250Y-85278362D01*
X206254250Y-92221637D01*
X206246584Y-92260179D01*
X206247277Y-92260365D01*
X206245173Y-92268214D01*
X206245173Y-92268216D01*
X206204250Y-92420943D01*
X206204250Y-92579057D01*
X206231580Y-92681053D01*
X206247277Y-92739636D01*
X206246862Y-92739747D01*
X206249227Y-92743427D01*
X206254250Y-92778362D01*
X206254250Y-92971637D01*
X206246584Y-93010179D01*
X206247277Y-93010365D01*
X206245173Y-93018214D01*
X206245173Y-93018216D01*
X206218034Y-93119500D01*
X206204250Y-93170943D01*
X206204250Y-93268101D01*
X206195605Y-93297541D01*
X206189082Y-93327528D01*
X206185327Y-93332543D01*
X206184565Y-93335140D01*
X206167931Y-93355782D01*
X206015532Y-93508181D01*
X205954209Y-93541666D01*
X205927851Y-93544500D01*
X199084386Y-93544500D01*
X199017347Y-93524815D01*
X198996705Y-93508181D01*
X198968017Y-93479493D01*
X198968011Y-93479488D01*
X198842488Y-93407017D01*
X198842489Y-93407017D01*
X198831006Y-93403940D01*
X198702475Y-93369500D01*
X198557525Y-93369500D01*
X198428993Y-93403940D01*
X198417511Y-93407017D01*
X198291988Y-93479488D01*
X198291982Y-93479493D01*
X198189493Y-93581982D01*
X198189488Y-93581988D01*
X198117017Y-93707511D01*
X198117016Y-93707515D01*
X198079500Y-93847525D01*
X198079500Y-93992475D01*
X198093147Y-94043409D01*
X198091485Y-94113256D01*
X198052323Y-94171118D01*
X197988095Y-94198623D01*
X197973373Y-94199500D01*
X197425098Y-94199500D01*
X197358059Y-94179815D01*
X197337417Y-94163181D01*
X197268717Y-94094481D01*
X197268709Y-94094475D01*
X197131790Y-94015426D01*
X197131786Y-94015424D01*
X197131784Y-94015423D01*
X196979057Y-93974500D01*
X196820943Y-93974500D01*
X196668216Y-94015423D01*
X196668209Y-94015426D01*
X196531290Y-94094475D01*
X196531282Y-94094481D01*
X196419481Y-94206282D01*
X196419475Y-94206290D01*
X196340426Y-94343209D01*
X196340423Y-94343216D01*
X196299500Y-94495943D01*
X196299500Y-94578456D01*
X196279815Y-94645495D01*
X196227011Y-94691250D01*
X196157853Y-94701194D01*
X196128051Y-94693019D01*
X196121786Y-94690424D01*
X196121784Y-94690423D01*
X195969057Y-94649500D01*
X195810943Y-94649500D01*
X195658216Y-94690423D01*
X195658209Y-94690426D01*
X195521290Y-94769475D01*
X195521282Y-94769481D01*
X195409481Y-94881282D01*
X195409475Y-94881290D01*
X195330426Y-95018209D01*
X195330423Y-95018216D01*
X195289500Y-95170943D01*
X192746226Y-95170943D01*
X192746226Y-92866249D01*
X192765911Y-92799210D01*
X192818715Y-92753455D01*
X192887873Y-92743511D01*
X192951429Y-92772536D01*
X192957907Y-92778568D01*
X192971899Y-92792560D01*
X192971903Y-92792563D01*
X193094735Y-92874637D01*
X193094745Y-92874642D01*
X193231232Y-92931177D01*
X193231240Y-92931179D01*
X193376126Y-92959999D01*
X193376129Y-92960000D01*
X193600000Y-92960000D01*
X193600000Y-92510000D01*
X193900000Y-92510000D01*
X193900000Y-92960000D01*
X194123871Y-92960000D01*
X194123873Y-92959999D01*
X194268759Y-92931179D01*
X194268767Y-92931177D01*
X194405254Y-92874642D01*
X194405264Y-92874637D01*
X194528096Y-92792563D01*
X194528100Y-92792560D01*
X194632560Y-92688100D01*
X194632563Y-92688096D01*
X194714637Y-92565264D01*
X194714642Y-92565254D01*
X194771177Y-92428767D01*
X194771179Y-92428761D01*
X194784857Y-92360000D01*
X194309808Y-92360000D01*
X194329556Y-92325796D01*
X194350000Y-92249496D01*
X194350000Y-92170504D01*
X194329556Y-92094204D01*
X194309808Y-92060000D01*
X194784857Y-92060000D01*
X194784857Y-92059999D01*
X194771179Y-91991238D01*
X194771177Y-91991232D01*
X194714642Y-91854745D01*
X194714637Y-91854735D01*
X194632563Y-91731903D01*
X194632560Y-91731899D01*
X194528100Y-91627439D01*
X194528096Y-91627436D01*
X194405264Y-91545362D01*
X194405254Y-91545357D01*
X194268767Y-91488822D01*
X194268759Y-91488820D01*
X194123872Y-91460000D01*
X193900000Y-91460000D01*
X193900000Y-91910000D01*
X193600000Y-91910000D01*
X193600000Y-91460000D01*
X193376128Y-91460000D01*
X193231240Y-91488820D01*
X193231232Y-91488822D01*
X193094745Y-91545357D01*
X193094735Y-91545362D01*
X192971903Y-91627436D01*
X192971899Y-91627439D01*
X192957907Y-91641432D01*
X192896584Y-91674917D01*
X192826892Y-91669933D01*
X192770959Y-91628061D01*
X192746542Y-91562597D01*
X192746226Y-91553751D01*
X192746226Y-89791887D01*
X196628500Y-89791887D01*
X196628500Y-89799706D01*
X196628500Y-89950000D01*
X196669423Y-90102727D01*
X196669426Y-90102734D01*
X196748475Y-90239653D01*
X196748481Y-90239661D01*
X196866031Y-90357211D01*
X196864801Y-90358440D01*
X196900173Y-90406881D01*
X196904330Y-90476627D01*
X196890873Y-90510831D01*
X196863719Y-90557862D01*
X196830650Y-90681282D01*
X196824500Y-90704234D01*
X196824500Y-90855766D01*
X196840912Y-90917016D01*
X196863719Y-91002136D01*
X196892316Y-91051666D01*
X196939485Y-91133365D01*
X197046635Y-91240515D01*
X197109445Y-91276778D01*
X197127166Y-91287010D01*
X197175382Y-91337577D01*
X197188604Y-91406184D01*
X197162636Y-91471049D01*
X197112620Y-91508958D01*
X197024742Y-91545359D01*
X197024735Y-91545362D01*
X196901903Y-91627436D01*
X196901899Y-91627439D01*
X196797439Y-91731899D01*
X196797436Y-91731903D01*
X196715362Y-91854735D01*
X196715357Y-91854745D01*
X196658822Y-91991232D01*
X196658820Y-91991238D01*
X196645142Y-92059999D01*
X196645143Y-92060000D01*
X197120192Y-92060000D01*
X197100444Y-92094204D01*
X197080000Y-92170504D01*
X197080000Y-92249496D01*
X197100444Y-92325796D01*
X197120192Y-92360000D01*
X196645143Y-92360000D01*
X196658820Y-92428761D01*
X196658822Y-92428767D01*
X196715357Y-92565254D01*
X196715362Y-92565264D01*
X196797436Y-92688096D01*
X196797439Y-92688100D01*
X196901899Y-92792560D01*
X196901903Y-92792563D01*
X197024735Y-92874637D01*
X197024745Y-92874642D01*
X197161232Y-92931177D01*
X197161240Y-92931179D01*
X197306126Y-92959999D01*
X197306129Y-92960000D01*
X197780000Y-92960000D01*
X197780000Y-92510000D01*
X198080000Y-92510000D01*
X198080000Y-92960000D01*
X198553871Y-92960000D01*
X198553873Y-92959999D01*
X198698759Y-92931179D01*
X198698767Y-92931177D01*
X198835254Y-92874642D01*
X198835264Y-92874637D01*
X198958096Y-92792563D01*
X198958100Y-92792560D01*
X199062560Y-92688100D01*
X199062563Y-92688096D01*
X199144637Y-92565264D01*
X199144642Y-92565254D01*
X199201177Y-92428767D01*
X199201179Y-92428761D01*
X199214857Y-92360000D01*
X198739808Y-92360000D01*
X198759556Y-92325796D01*
X198780000Y-92249496D01*
X198780000Y-92170504D01*
X198759556Y-92094204D01*
X198739808Y-92060000D01*
X199214857Y-92060000D01*
X199214857Y-92059999D01*
X199201179Y-91991238D01*
X199201177Y-91991232D01*
X199144642Y-91854745D01*
X199144637Y-91854735D01*
X199062563Y-91731903D01*
X199062560Y-91731899D01*
X198958100Y-91627439D01*
X198958096Y-91627436D01*
X198835264Y-91545362D01*
X198835254Y-91545357D01*
X198698767Y-91488822D01*
X198698759Y-91488820D01*
X198553872Y-91460000D01*
X198080000Y-91460000D01*
X198080000Y-91910000D01*
X197780000Y-91910000D01*
X197780000Y-91460000D01*
X197744226Y-91424226D01*
X197710741Y-91362903D01*
X197715725Y-91293211D01*
X197749241Y-91247885D01*
X197747618Y-91246262D01*
X197773524Y-91220356D01*
X197860515Y-91133365D01*
X197936281Y-91002135D01*
X197975500Y-90855766D01*
X197975500Y-90704234D01*
X197936281Y-90557865D01*
X197860515Y-90426635D01*
X197763630Y-90329750D01*
X197730145Y-90268427D01*
X197735129Y-90198735D01*
X197743921Y-90180074D01*
X197788577Y-90102728D01*
X197829500Y-89950001D01*
X197829500Y-89791887D01*
X197788577Y-89639160D01*
X197788576Y-89639158D01*
X197786473Y-89631309D01*
X197787165Y-89631123D01*
X197779500Y-89592581D01*
X197779500Y-86305261D01*
X197796113Y-86243261D01*
X197837380Y-86171784D01*
X197878303Y-86019057D01*
X197878303Y-85860943D01*
X197837380Y-85708216D01*
X197763536Y-85580314D01*
X197747065Y-85512415D01*
X197769918Y-85446388D01*
X197783233Y-85430646D01*
X197860515Y-85353365D01*
X197936281Y-85222135D01*
X197975500Y-85075766D01*
X197975500Y-84924234D01*
X197936281Y-84777865D01*
X197860515Y-84646635D01*
X197753365Y-84539485D01*
X197747618Y-84533738D01*
X197749289Y-84532066D01*
X197715216Y-84485397D01*
X197711064Y-84415651D01*
X197744226Y-84355772D01*
X197780000Y-84319998D01*
X197780000Y-83870000D01*
X198080000Y-83870000D01*
X198080000Y-84320000D01*
X198553871Y-84320000D01*
X198553873Y-84319999D01*
X198698759Y-84291179D01*
X198698767Y-84291177D01*
X198835254Y-84234642D01*
X198835264Y-84234637D01*
X198958096Y-84152563D01*
X198958100Y-84152560D01*
X199062560Y-84048100D01*
X199062563Y-84048096D01*
X199144637Y-83925264D01*
X199144642Y-83925254D01*
X199201177Y-83788767D01*
X199201179Y-83788761D01*
X199214857Y-83720000D01*
X198739808Y-83720000D01*
X198759556Y-83685796D01*
X198780000Y-83609496D01*
X198780000Y-83530504D01*
X198759556Y-83454204D01*
X198739808Y-83420000D01*
X199214857Y-83420000D01*
X199214857Y-83419999D01*
X199201179Y-83351238D01*
X199201177Y-83351232D01*
X199144642Y-83214745D01*
X199144637Y-83214735D01*
X199062563Y-83091903D01*
X199062560Y-83091899D01*
X198958100Y-82987439D01*
X198958096Y-82987436D01*
X198835264Y-82905362D01*
X198835254Y-82905357D01*
X198698767Y-82848822D01*
X198698759Y-82848820D01*
X198553872Y-82820000D01*
X198080000Y-82820000D01*
X198080000Y-83270000D01*
X197780000Y-83270000D01*
X197780000Y-82820000D01*
X197306128Y-82820000D01*
X197161240Y-82848820D01*
X197161232Y-82848822D01*
X197024745Y-82905357D01*
X197024735Y-82905362D01*
X196901903Y-82987436D01*
X196901899Y-82987439D01*
X196797439Y-83091899D01*
X196797436Y-83091903D01*
X196715362Y-83214735D01*
X196715357Y-83214745D01*
X196658822Y-83351232D01*
X196658820Y-83351238D01*
X196645142Y-83419999D01*
X196645143Y-83420000D01*
X197120192Y-83420000D01*
X197100444Y-83454204D01*
X197080000Y-83530504D01*
X197080000Y-83609496D01*
X197100444Y-83685796D01*
X197120192Y-83720000D01*
X196645143Y-83720000D01*
X196658820Y-83788761D01*
X196658822Y-83788767D01*
X196715357Y-83925254D01*
X196715362Y-83925264D01*
X196797436Y-84048096D01*
X196797439Y-84048100D01*
X196901899Y-84152560D01*
X196901903Y-84152563D01*
X197024735Y-84234637D01*
X197024744Y-84234642D01*
X197112619Y-84271041D01*
X197167022Y-84314882D01*
X197189087Y-84381176D01*
X197171808Y-84448875D01*
X197127167Y-84492988D01*
X197046641Y-84539480D01*
X197046632Y-84539487D01*
X196939487Y-84646632D01*
X196939485Y-84646635D01*
X196863719Y-84777863D01*
X196831121Y-84899522D01*
X196824500Y-84924234D01*
X196824500Y-85075766D01*
X196863719Y-85222135D01*
X196919625Y-85318967D01*
X196936098Y-85386865D01*
X196913246Y-85452892D01*
X196899920Y-85468647D01*
X196797281Y-85571286D01*
X196797278Y-85571290D01*
X196718229Y-85708209D01*
X196718226Y-85708216D01*
X196677303Y-85860943D01*
X196677303Y-86019057D01*
X196677304Y-86019060D01*
X196677439Y-86020086D01*
X196678500Y-86036275D01*
X196678500Y-89592581D01*
X196677395Y-89598134D01*
X196674465Y-89623956D01*
X196671371Y-89635785D01*
X196669423Y-89639160D01*
X196628500Y-89791887D01*
X192746226Y-89791887D01*
X192746226Y-84226249D01*
X192765911Y-84159210D01*
X192818715Y-84113455D01*
X192887873Y-84103511D01*
X192951429Y-84132536D01*
X192957907Y-84138568D01*
X192971899Y-84152560D01*
X192971903Y-84152563D01*
X193094735Y-84234637D01*
X193094745Y-84234642D01*
X193231232Y-84291177D01*
X193231240Y-84291179D01*
X193376126Y-84319999D01*
X193376129Y-84320000D01*
X193600000Y-84320000D01*
X193600000Y-83870000D01*
X193900000Y-83870000D01*
X193900000Y-84320000D01*
X194123871Y-84320000D01*
X194123873Y-84319999D01*
X194268759Y-84291179D01*
X194268767Y-84291177D01*
X194405254Y-84234642D01*
X194405264Y-84234637D01*
X194528096Y-84152563D01*
X194528100Y-84152560D01*
X194632560Y-84048100D01*
X194632563Y-84048096D01*
X194714637Y-83925264D01*
X194714642Y-83925254D01*
X194771177Y-83788767D01*
X194771179Y-83788761D01*
X194784857Y-83720000D01*
X194309808Y-83720000D01*
X194329556Y-83685796D01*
X194350000Y-83609496D01*
X194350000Y-83530504D01*
X194329556Y-83454204D01*
X194309808Y-83420000D01*
X194784857Y-83420000D01*
X194784857Y-83419999D01*
X194771179Y-83351238D01*
X194771177Y-83351232D01*
X194714642Y-83214745D01*
X194714637Y-83214735D01*
X194632563Y-83091903D01*
X194632560Y-83091899D01*
X194528100Y-82987439D01*
X194528096Y-82987436D01*
X194405264Y-82905362D01*
X194405254Y-82905357D01*
X194268767Y-82848822D01*
X194268759Y-82848820D01*
X194123872Y-82820000D01*
X193900000Y-82820000D01*
X193900000Y-83270000D01*
X193600000Y-83270000D01*
X193600000Y-82820000D01*
X193376128Y-82820000D01*
X193231240Y-82848820D01*
X193231232Y-82848822D01*
X193094745Y-82905357D01*
X193094735Y-82905362D01*
X192971903Y-82987436D01*
X192971899Y-82987439D01*
X192957907Y-83001432D01*
X192896584Y-83034917D01*
X192826892Y-83029933D01*
X192770959Y-82988061D01*
X192746542Y-82922597D01*
X192746226Y-82913751D01*
X192746226Y-67120943D01*
X195999500Y-67120943D01*
X195999500Y-67279056D01*
X196040423Y-67431783D01*
X196040426Y-67431790D01*
X196119475Y-67568709D01*
X196119479Y-67568714D01*
X196119480Y-67568716D01*
X196231284Y-67680520D01*
X196231286Y-67680521D01*
X196231290Y-67680524D01*
X196360392Y-67755060D01*
X196368216Y-67759577D01*
X196520943Y-67800500D01*
X196618101Y-67800500D01*
X196685140Y-67820185D01*
X196705782Y-67836819D01*
X196888181Y-68019218D01*
X196921666Y-68080541D01*
X196924500Y-68106899D01*
X196924500Y-76164026D01*
X196931596Y-76190506D01*
X196931596Y-76190508D01*
X196931597Y-76190508D01*
X196931597Y-76190509D01*
X196950090Y-76259526D01*
X196987561Y-76324427D01*
X196999526Y-76345151D01*
X197954849Y-77300475D01*
X198040475Y-77349911D01*
X198135976Y-77375500D01*
X198135977Y-77375500D01*
X200793101Y-77375500D01*
X200860140Y-77395185D01*
X200880782Y-77411819D01*
X204569438Y-81100475D01*
X204655063Y-81149911D01*
X204750564Y-81175500D01*
X204750565Y-81175500D01*
X206062372Y-81175500D01*
X206129411Y-81195185D01*
X206150053Y-81211819D01*
X206228864Y-81290630D01*
X206228866Y-81290631D01*
X206228870Y-81290634D01*
X206365789Y-81369683D01*
X206365796Y-81369687D01*
X206518523Y-81410610D01*
X206518525Y-81410610D01*
X206676635Y-81410610D01*
X206676637Y-81410610D01*
X206829364Y-81369687D01*
X206966296Y-81290630D01*
X207078100Y-81178826D01*
X207157157Y-81041894D01*
X207198080Y-80889167D01*
X207198080Y-80731053D01*
X207157157Y-80578326D01*
X207112209Y-80500473D01*
X207078104Y-80441400D01*
X207078098Y-80441392D01*
X206966297Y-80329591D01*
X206966289Y-80329585D01*
X206829370Y-80250536D01*
X206829366Y-80250534D01*
X206829364Y-80250533D01*
X206676637Y-80209610D01*
X206518523Y-80209610D01*
X206365796Y-80250533D01*
X206365789Y-80250536D01*
X206228870Y-80329585D01*
X206228862Y-80329591D01*
X206170273Y-80388181D01*
X206108950Y-80421666D01*
X206082592Y-80424500D01*
X205006899Y-80424500D01*
X204939860Y-80404815D01*
X204919218Y-80388181D01*
X202694957Y-78163920D01*
X213299499Y-78163920D01*
X213328340Y-78308907D01*
X213328343Y-78308917D01*
X213384912Y-78445488D01*
X213384919Y-78445501D01*
X213467048Y-78568415D01*
X213467051Y-78568419D01*
X213571581Y-78672949D01*
X213571584Y-78672951D01*
X213669391Y-78738303D01*
X213714196Y-78791914D01*
X213724500Y-78841405D01*
X213724500Y-83174902D01*
X213704815Y-83241941D01*
X213688181Y-83262583D01*
X213619481Y-83331282D01*
X213619475Y-83331290D01*
X213540426Y-83468209D01*
X213540423Y-83468216D01*
X213499500Y-83620943D01*
X213499500Y-83779057D01*
X213538674Y-83925254D01*
X213540423Y-83931783D01*
X213540426Y-83931790D01*
X213619475Y-84068709D01*
X213619479Y-84068714D01*
X213619480Y-84068716D01*
X213731284Y-84180520D01*
X213731286Y-84180521D01*
X213731290Y-84180524D01*
X213825018Y-84234637D01*
X213868216Y-84259577D01*
X214020943Y-84300500D01*
X214020945Y-84300500D01*
X214179055Y-84300500D01*
X214179057Y-84300500D01*
X214331784Y-84259577D01*
X214468716Y-84180520D01*
X214580520Y-84068716D01*
X214659577Y-83931784D01*
X214700500Y-83779057D01*
X214700500Y-83620943D01*
X214659577Y-83468216D01*
X214644902Y-83442798D01*
X214580524Y-83331290D01*
X214580518Y-83331282D01*
X214511819Y-83262583D01*
X214478334Y-83201260D01*
X214475500Y-83174902D01*
X214475500Y-82070943D01*
X221699500Y-82070943D01*
X221699500Y-82229057D01*
X221740176Y-82380860D01*
X221740423Y-82381783D01*
X221740426Y-82381790D01*
X221819475Y-82518709D01*
X221819479Y-82518714D01*
X221819480Y-82518716D01*
X221931284Y-82630520D01*
X221931286Y-82630521D01*
X221931290Y-82630524D01*
X222038797Y-82692592D01*
X222068216Y-82709577D01*
X222220943Y-82750500D01*
X222220945Y-82750500D01*
X222284452Y-82750500D01*
X222351491Y-82770185D01*
X222397246Y-82822989D01*
X222408452Y-82874500D01*
X222408452Y-82921355D01*
X222437546Y-83029933D01*
X222449375Y-83074081D01*
X222449378Y-83074088D01*
X222528427Y-83211007D01*
X222528431Y-83211012D01*
X222528432Y-83211014D01*
X222640236Y-83322818D01*
X222640238Y-83322819D01*
X222640242Y-83322822D01*
X222689461Y-83351238D01*
X222777168Y-83401875D01*
X222929895Y-83442798D01*
X222929897Y-83442798D01*
X223088007Y-83442798D01*
X223088009Y-83442798D01*
X223240736Y-83401875D01*
X223377668Y-83322818D01*
X223489472Y-83211014D01*
X223568529Y-83074082D01*
X223609452Y-82921355D01*
X223609452Y-82763241D01*
X223589994Y-82690622D01*
X223591657Y-82620776D01*
X223630819Y-82562913D01*
X223695048Y-82535409D01*
X223763950Y-82546995D01*
X223780516Y-82556694D01*
X223789611Y-82563012D01*
X223831923Y-82605324D01*
X223941998Y-82668875D01*
X223946247Y-82671827D01*
X223965041Y-82695162D01*
X223985715Y-82716844D01*
X223987099Y-82722549D01*
X223990073Y-82726242D01*
X223991719Y-82741594D01*
X223999500Y-82773665D01*
X223999500Y-85658379D01*
X223999500Y-85757251D01*
X224003331Y-85771551D01*
X224004609Y-85776319D01*
X224017760Y-85825400D01*
X224020481Y-85866882D01*
X224020750Y-85866882D01*
X224020750Y-85870980D01*
X224020926Y-85873664D01*
X224020750Y-85875002D01*
X224020750Y-85875008D01*
X224020750Y-86033122D01*
X224057905Y-86171784D01*
X224061673Y-86185848D01*
X224061676Y-86185855D01*
X224140725Y-86322774D01*
X224140729Y-86322779D01*
X224140730Y-86322781D01*
X224252534Y-86434585D01*
X224252536Y-86434586D01*
X224252540Y-86434589D01*
X224389459Y-86513638D01*
X224389466Y-86513642D01*
X224542193Y-86554565D01*
X224542195Y-86554565D01*
X224700305Y-86554565D01*
X224700307Y-86554565D01*
X224853034Y-86513642D01*
X224989966Y-86434585D01*
X225101770Y-86322781D01*
X225180827Y-86185849D01*
X225221750Y-86033122D01*
X225221750Y-85875008D01*
X225180827Y-85722281D01*
X225162856Y-85691154D01*
X225101774Y-85585355D01*
X225101768Y-85585347D01*
X224989967Y-85473546D01*
X224989959Y-85473540D01*
X224853040Y-85394491D01*
X224853037Y-85394489D01*
X224853034Y-85394488D01*
X224853030Y-85394487D01*
X224853028Y-85394486D01*
X224842401Y-85391638D01*
X224782743Y-85355271D01*
X224752216Y-85292423D01*
X224750500Y-85271865D01*
X224750500Y-82404709D01*
X224758490Y-82364540D01*
X224758112Y-82364439D01*
X224759658Y-82358668D01*
X224759939Y-82357257D01*
X224760214Y-82356591D01*
X224760213Y-82356591D01*
X224760216Y-82356588D01*
X224801139Y-82203861D01*
X224801139Y-82045747D01*
X224760216Y-81893020D01*
X224724405Y-81830993D01*
X224681163Y-81756094D01*
X224681157Y-81756086D01*
X224569356Y-81644285D01*
X224569348Y-81644279D01*
X224432429Y-81565230D01*
X224432425Y-81565228D01*
X224432424Y-81565227D01*
X224432423Y-81565227D01*
X224406929Y-81558396D01*
X224347271Y-81522031D01*
X224316743Y-81459184D01*
X224325038Y-81389808D01*
X224351342Y-81350944D01*
X225090468Y-80611819D01*
X225151791Y-80578334D01*
X225178149Y-80575500D01*
X228435500Y-80575500D01*
X228502539Y-80595185D01*
X228548294Y-80647989D01*
X228559500Y-80699500D01*
X228559500Y-80753918D01*
X228559500Y-80753920D01*
X228559499Y-80753920D01*
X228588340Y-80898907D01*
X228588343Y-80898917D01*
X228644912Y-81035488D01*
X228644919Y-81035501D01*
X228727048Y-81158415D01*
X228727051Y-81158419D01*
X228831580Y-81262948D01*
X228831584Y-81262951D01*
X228954498Y-81345080D01*
X228954511Y-81345087D01*
X229064598Y-81390686D01*
X229091087Y-81401658D01*
X229091091Y-81401658D01*
X229091092Y-81401659D01*
X229236079Y-81430500D01*
X229236082Y-81430500D01*
X229383920Y-81430500D01*
X229483914Y-81410609D01*
X229528913Y-81401658D01*
X229665495Y-81345084D01*
X229788416Y-81262951D01*
X229892951Y-81158416D01*
X229975084Y-81035495D01*
X230031658Y-80898913D01*
X230051234Y-80800499D01*
X230060500Y-80753920D01*
X230060500Y-80637170D01*
X230080185Y-80570131D01*
X230122498Y-80529784D01*
X230173264Y-80500475D01*
X230243177Y-80430562D01*
X230461920Y-80211819D01*
X230523243Y-80178334D01*
X230549601Y-80175500D01*
X230646757Y-80175500D01*
X230646759Y-80175500D01*
X230799486Y-80134577D01*
X230936418Y-80055520D01*
X231048222Y-79943716D01*
X231086181Y-79877967D01*
X231104274Y-79860714D01*
X231119258Y-79840700D01*
X231129123Y-79837020D01*
X231136746Y-79829752D01*
X231161298Y-79825019D01*
X231184722Y-79816283D01*
X231195011Y-79818521D01*
X231205353Y-79816528D01*
X231228566Y-79825820D01*
X231252995Y-79831135D01*
X231265815Y-79840732D01*
X231270218Y-79842495D01*
X231281249Y-79852286D01*
X231435868Y-80006905D01*
X231469353Y-80068228D01*
X231468304Y-80112584D01*
X231470561Y-80112882D01*
X231469500Y-80120943D01*
X231469500Y-80279057D01*
X231508472Y-80424500D01*
X231510423Y-80431783D01*
X231510426Y-80431790D01*
X231589475Y-80568709D01*
X231589479Y-80568714D01*
X231589480Y-80568716D01*
X231701284Y-80680520D01*
X231701286Y-80680521D01*
X231701290Y-80680524D01*
X231788814Y-80731055D01*
X231838216Y-80759577D01*
X231990943Y-80800500D01*
X231990945Y-80800500D01*
X232149055Y-80800500D01*
X232149057Y-80800500D01*
X232301784Y-80759577D01*
X232438716Y-80680520D01*
X232550520Y-80568716D01*
X232629577Y-80431784D01*
X232670500Y-80279057D01*
X232670500Y-80120943D01*
X232629577Y-79968216D01*
X232589919Y-79899525D01*
X232550524Y-79831290D01*
X232550518Y-79831282D01*
X232438717Y-79719481D01*
X232438709Y-79719475D01*
X232301790Y-79640426D01*
X232301786Y-79640424D01*
X232301784Y-79640423D01*
X232149057Y-79599500D01*
X232149056Y-79599500D01*
X232141899Y-79599500D01*
X232074860Y-79579815D01*
X232054218Y-79563181D01*
X231090563Y-78599526D01*
X231090562Y-78599525D01*
X231004938Y-78550090D01*
X230936470Y-78531744D01*
X230936467Y-78531743D01*
X230936465Y-78531742D01*
X230909438Y-78524500D01*
X230909436Y-78524500D01*
X230909435Y-78524500D01*
X230224500Y-78524500D01*
X230157461Y-78504815D01*
X230111706Y-78452011D01*
X230100500Y-78400500D01*
X230100500Y-78356079D01*
X230071659Y-78211092D01*
X230071658Y-78211091D01*
X230071658Y-78211087D01*
X230055862Y-78172951D01*
X230015087Y-78074511D01*
X230015080Y-78074498D01*
X229932951Y-77951584D01*
X229932948Y-77951580D01*
X229828419Y-77847051D01*
X229828415Y-77847048D01*
X229705501Y-77764919D01*
X229705488Y-77764912D01*
X229568917Y-77708343D01*
X229568907Y-77708340D01*
X229423920Y-77679500D01*
X229423918Y-77679500D01*
X229276082Y-77679500D01*
X229276080Y-77679500D01*
X229131092Y-77708340D01*
X229131082Y-77708343D01*
X228994511Y-77764912D01*
X228994498Y-77764919D01*
X228871584Y-77847048D01*
X228871580Y-77847051D01*
X228767051Y-77951580D01*
X228767048Y-77951584D01*
X228684919Y-78074498D01*
X228684912Y-78074511D01*
X228628343Y-78211082D01*
X228628340Y-78211092D01*
X228599500Y-78356079D01*
X228599500Y-78400500D01*
X228579815Y-78467539D01*
X228527011Y-78513294D01*
X228475500Y-78524500D01*
X224971814Y-78524500D01*
X224876313Y-78550089D01*
X224876310Y-78550090D01*
X224790690Y-78599522D01*
X224790685Y-78599526D01*
X222069438Y-81320775D01*
X221999526Y-81390686D01*
X221950091Y-81476309D01*
X221950091Y-81476310D01*
X221950090Y-81476312D01*
X221924500Y-81571815D01*
X221924500Y-81571817D01*
X221924500Y-81624902D01*
X221904815Y-81691941D01*
X221888181Y-81712583D01*
X221819481Y-81781282D01*
X221819475Y-81781290D01*
X221740426Y-81918209D01*
X221740423Y-81918216D01*
X221699500Y-82070943D01*
X214475500Y-82070943D01*
X214475500Y-78774587D01*
X214495185Y-78707548D01*
X214524471Y-78677736D01*
X214523712Y-78676811D01*
X214528410Y-78672954D01*
X214528416Y-78672951D01*
X214632951Y-78568416D01*
X214715084Y-78445495D01*
X214771658Y-78308913D01*
X214791118Y-78211082D01*
X214800500Y-78163920D01*
X214800500Y-78016079D01*
X214771659Y-77871092D01*
X214771658Y-77871091D01*
X214771658Y-77871087D01*
X214761701Y-77847048D01*
X214715087Y-77734511D01*
X214715080Y-77734498D01*
X214667921Y-77663920D01*
X218249499Y-77663920D01*
X218278340Y-77808907D01*
X218278343Y-77808917D01*
X218334912Y-77945488D01*
X218334919Y-77945501D01*
X218417048Y-78068415D01*
X218417051Y-78068419D01*
X218521580Y-78172948D01*
X218521584Y-78172951D01*
X218644498Y-78255080D01*
X218644511Y-78255087D01*
X218781082Y-78311656D01*
X218781087Y-78311658D01*
X218781091Y-78311658D01*
X218781092Y-78311659D01*
X218926079Y-78340500D01*
X218926082Y-78340500D01*
X219073920Y-78340500D01*
X219202549Y-78314913D01*
X219218913Y-78311658D01*
X219355495Y-78255084D01*
X219478416Y-78172951D01*
X219582951Y-78068416D01*
X219665084Y-77945495D01*
X219721658Y-77808913D01*
X219736459Y-77734505D01*
X219750500Y-77663920D01*
X219750500Y-77516079D01*
X219721659Y-77371092D01*
X219721658Y-77371091D01*
X219721658Y-77371087D01*
X219718369Y-77363146D01*
X219665087Y-77234511D01*
X219665080Y-77234498D01*
X219582951Y-77111584D01*
X219582948Y-77111580D01*
X219496396Y-77025028D01*
X219462911Y-76963705D01*
X219467895Y-76894013D01*
X219476691Y-76875346D01*
X219512981Y-76812490D01*
X219512982Y-76812489D01*
X219512982Y-76812487D01*
X219512984Y-76812485D01*
X219550500Y-76672475D01*
X219550500Y-76527525D01*
X219550500Y-76524500D01*
X219570185Y-76457461D01*
X219622989Y-76411706D01*
X219674500Y-76400500D01*
X219753920Y-76400500D01*
X219853497Y-76380692D01*
X219898913Y-76371658D01*
X220035495Y-76315084D01*
X220091609Y-76277590D01*
X220158286Y-76256712D01*
X220225666Y-76275196D01*
X220272357Y-76327175D01*
X220284500Y-76380692D01*
X220284500Y-77982002D01*
X220264815Y-78049041D01*
X220229392Y-78085103D01*
X220181586Y-78117046D01*
X220181580Y-78117051D01*
X220077051Y-78221580D01*
X220077048Y-78221584D01*
X219994919Y-78344498D01*
X219994912Y-78344511D01*
X219938343Y-78481082D01*
X219938340Y-78481092D01*
X219909500Y-78626079D01*
X219909500Y-78626082D01*
X219909500Y-78773918D01*
X219909500Y-78773920D01*
X219909499Y-78773920D01*
X219938340Y-78918907D01*
X219938343Y-78918917D01*
X219994912Y-79055488D01*
X219994919Y-79055501D01*
X220077048Y-79178415D01*
X220077051Y-79178419D01*
X220181580Y-79282948D01*
X220181584Y-79282951D01*
X220304498Y-79365080D01*
X220304511Y-79365087D01*
X220430196Y-79417147D01*
X220441087Y-79421658D01*
X220441091Y-79421658D01*
X220441092Y-79421659D01*
X220586079Y-79450500D01*
X220586082Y-79450500D01*
X220733920Y-79450500D01*
X220831462Y-79431096D01*
X220878913Y-79421658D01*
X221015495Y-79365084D01*
X221138416Y-79282951D01*
X221242951Y-79178416D01*
X221325084Y-79055495D01*
X221381658Y-78918913D01*
X221397076Y-78841405D01*
X221410500Y-78773920D01*
X221410500Y-78626079D01*
X221381659Y-78481092D01*
X221381658Y-78481091D01*
X221381658Y-78481087D01*
X221376046Y-78467539D01*
X221325087Y-78344511D01*
X221325080Y-78344498D01*
X221242951Y-78221584D01*
X221242948Y-78221580D01*
X221138419Y-78117051D01*
X221138413Y-78117046D01*
X221090608Y-78085103D01*
X221085518Y-78079012D01*
X221078297Y-78075715D01*
X221063432Y-78052585D01*
X221045803Y-78031490D01*
X221043851Y-78022116D01*
X221040523Y-78016937D01*
X221035500Y-77982002D01*
X221035500Y-77770943D01*
X221895750Y-77770943D01*
X221895750Y-77929057D01*
X221935931Y-78079012D01*
X221936673Y-78081783D01*
X221936676Y-78081790D01*
X222015725Y-78218709D01*
X222015729Y-78218714D01*
X222015730Y-78218716D01*
X222127534Y-78330520D01*
X222127536Y-78330521D01*
X222127540Y-78330524D01*
X222248744Y-78400500D01*
X222264466Y-78409577D01*
X222417193Y-78450500D01*
X222417195Y-78450500D01*
X222575305Y-78450500D01*
X222575307Y-78450500D01*
X222728034Y-78409577D01*
X222864966Y-78330520D01*
X222864971Y-78330514D01*
X222870762Y-78326072D01*
X222935930Y-78300876D01*
X223004376Y-78314913D01*
X223021736Y-78326069D01*
X223027540Y-78330523D01*
X223148747Y-78400500D01*
X223164469Y-78409577D01*
X223317196Y-78450500D01*
X223317198Y-78450500D01*
X223475308Y-78450500D01*
X223475310Y-78450500D01*
X223628037Y-78409577D01*
X223764969Y-78330520D01*
X223876773Y-78218716D01*
X223955830Y-78081784D01*
X223996753Y-77929057D01*
X223996753Y-77770943D01*
X223955830Y-77618216D01*
X223946062Y-77601297D01*
X223876777Y-77481290D01*
X223876771Y-77481282D01*
X223808072Y-77412583D01*
X223774587Y-77351260D01*
X223771753Y-77324902D01*
X223771753Y-76804628D01*
X226160000Y-76804628D01*
X226174503Y-76877540D01*
X226174505Y-76877544D01*
X226229760Y-76960239D01*
X226312455Y-77015494D01*
X226312459Y-77015496D01*
X226385371Y-77029999D01*
X226385374Y-77030000D01*
X226760000Y-77030000D01*
X227060000Y-77030000D01*
X227434626Y-77030000D01*
X227434628Y-77029999D01*
X227507540Y-77015496D01*
X227507544Y-77015494D01*
X227590239Y-76960239D01*
X227645494Y-76877544D01*
X227645496Y-76877540D01*
X227659999Y-76804628D01*
X227660000Y-76804626D01*
X227660000Y-76430000D01*
X227060000Y-76430000D01*
X227060000Y-77030000D01*
X226760000Y-77030000D01*
X226760000Y-76430000D01*
X226160000Y-76430000D01*
X226160000Y-76804628D01*
X223771753Y-76804628D01*
X223771753Y-75755371D01*
X226160000Y-75755371D01*
X226160000Y-76130000D01*
X226760000Y-76130000D01*
X227060000Y-76130000D01*
X227660000Y-76130000D01*
X227660000Y-75755373D01*
X227659999Y-75755371D01*
X227645496Y-75682459D01*
X227645494Y-75682455D01*
X227590239Y-75599760D01*
X227507544Y-75544505D01*
X227507540Y-75544503D01*
X227434627Y-75530000D01*
X227060000Y-75530000D01*
X227060000Y-76130000D01*
X226760000Y-76130000D01*
X226760000Y-75530000D01*
X226385373Y-75530000D01*
X226312459Y-75544503D01*
X226312455Y-75544505D01*
X226229760Y-75599760D01*
X226174505Y-75682455D01*
X226174503Y-75682459D01*
X226160000Y-75755371D01*
X223771753Y-75755371D01*
X223771753Y-74303845D01*
X223791438Y-74236806D01*
X223808072Y-74216164D01*
X223841006Y-74183230D01*
X223876773Y-74147463D01*
X223955830Y-74010531D01*
X223996753Y-73857804D01*
X223996753Y-73699690D01*
X223955830Y-73546963D01*
X223955826Y-73546956D01*
X223876777Y-73410037D01*
X223876771Y-73410029D01*
X223764970Y-73298228D01*
X223764962Y-73298222D01*
X223628043Y-73219173D01*
X223628039Y-73219171D01*
X223628037Y-73219170D01*
X223475310Y-73178247D01*
X223317196Y-73178247D01*
X223164469Y-73219170D01*
X223164468Y-73219170D01*
X223137499Y-73234741D01*
X223069598Y-73251212D01*
X223003572Y-73228360D01*
X222960382Y-73173438D01*
X222951500Y-73127353D01*
X222951500Y-68874098D01*
X222971185Y-68807059D01*
X222987819Y-68786417D01*
X223030520Y-68743716D01*
X223109577Y-68606784D01*
X223150500Y-68454057D01*
X223150500Y-68295943D01*
X223109577Y-68143216D01*
X223058956Y-68055537D01*
X223030524Y-68006290D01*
X223030518Y-68006282D01*
X222918717Y-67894481D01*
X222918709Y-67894475D01*
X222781790Y-67815426D01*
X222781786Y-67815424D01*
X222781784Y-67815423D01*
X222629057Y-67774500D01*
X222470943Y-67774500D01*
X222318216Y-67815423D01*
X222318209Y-67815426D01*
X222181290Y-67894475D01*
X222181282Y-67894481D01*
X222069481Y-68006282D01*
X222069475Y-68006290D01*
X221990426Y-68143209D01*
X221990423Y-68143216D01*
X221949500Y-68295943D01*
X221949500Y-68454056D01*
X221990423Y-68606783D01*
X221990426Y-68606790D01*
X222069475Y-68743709D01*
X222069481Y-68743717D01*
X222164181Y-68838417D01*
X222197666Y-68899740D01*
X222200500Y-68926098D01*
X222200500Y-77255761D01*
X222180815Y-77322800D01*
X222138504Y-77363146D01*
X222127537Y-77369478D01*
X222127531Y-77369482D01*
X222015731Y-77481282D01*
X222015725Y-77481290D01*
X221936676Y-77618209D01*
X221936673Y-77618216D01*
X221895750Y-77770943D01*
X221035500Y-77770943D01*
X221035500Y-75794386D01*
X221055185Y-75727347D01*
X221071819Y-75706705D01*
X221090509Y-75688015D01*
X221162984Y-75562485D01*
X221200500Y-75422475D01*
X221200500Y-75277525D01*
X221162984Y-75137515D01*
X221129358Y-75079274D01*
X221090511Y-75011988D01*
X221090506Y-75011982D01*
X220988017Y-74909493D01*
X220988011Y-74909488D01*
X220862488Y-74837017D01*
X220862489Y-74837017D01*
X220851006Y-74833940D01*
X220722475Y-74799500D01*
X220577525Y-74799500D01*
X220448993Y-74833940D01*
X220437511Y-74837017D01*
X220311988Y-74909488D01*
X220227983Y-74993493D01*
X220166659Y-75026977D01*
X220096968Y-75021993D01*
X220071412Y-75008914D01*
X220035499Y-74984918D01*
X220035488Y-74984912D01*
X219898917Y-74928343D01*
X219898907Y-74928340D01*
X219753920Y-74899500D01*
X219753918Y-74899500D01*
X219606082Y-74899500D01*
X219606080Y-74899500D01*
X219461092Y-74928340D01*
X219461082Y-74928343D01*
X219324511Y-74984912D01*
X219324498Y-74984919D01*
X219201584Y-75067048D01*
X219201580Y-75067051D01*
X219097051Y-75171580D01*
X219097048Y-75171584D01*
X219014919Y-75294498D01*
X219014912Y-75294511D01*
X218958343Y-75431082D01*
X218958340Y-75431092D01*
X218929500Y-75576079D01*
X218929500Y-75576082D01*
X218929500Y-75723918D01*
X218929500Y-75723920D01*
X218929499Y-75723920D01*
X218958340Y-75868907D01*
X218958343Y-75868917D01*
X218968483Y-75893398D01*
X218975950Y-75962868D01*
X218944674Y-76025346D01*
X218886015Y-76060622D01*
X218869112Y-76065152D01*
X218787511Y-76087017D01*
X218661988Y-76159488D01*
X218661982Y-76159493D01*
X218559493Y-76261982D01*
X218559488Y-76261988D01*
X218487017Y-76387511D01*
X218487016Y-76387515D01*
X218449500Y-76527525D01*
X218449500Y-76672475D01*
X218484910Y-76804626D01*
X218487017Y-76812488D01*
X218523309Y-76875347D01*
X218539782Y-76943247D01*
X218516930Y-77009274D01*
X218503604Y-77025028D01*
X218417048Y-77111584D01*
X218334919Y-77234498D01*
X218334912Y-77234511D01*
X218278343Y-77371082D01*
X218278340Y-77371092D01*
X218249500Y-77516079D01*
X218249500Y-77516082D01*
X218249500Y-77663918D01*
X218249500Y-77663920D01*
X218249499Y-77663920D01*
X214667921Y-77663920D01*
X214632951Y-77611584D01*
X214632948Y-77611580D01*
X214622665Y-77601297D01*
X214622658Y-77601291D01*
X214528416Y-77507049D01*
X214447659Y-77453089D01*
X214445064Y-77450891D01*
X214444897Y-77450724D01*
X214444801Y-77450668D01*
X214444797Y-77450665D01*
X214442681Y-77449444D01*
X214435810Y-77445171D01*
X214405495Y-77424916D01*
X214405485Y-77424912D01*
X214394246Y-77420256D01*
X214379706Y-77413085D01*
X214307969Y-77371669D01*
X214307967Y-77371668D01*
X214307965Y-77371667D01*
X214155238Y-77330744D01*
X213997124Y-77330744D01*
X213997122Y-77330744D01*
X213934832Y-77347434D01*
X213926932Y-77349276D01*
X213831092Y-77368340D01*
X213831084Y-77368342D01*
X213694511Y-77424912D01*
X213694498Y-77424919D01*
X213571584Y-77507048D01*
X213571580Y-77507051D01*
X213467051Y-77611580D01*
X213467048Y-77611584D01*
X213384919Y-77734498D01*
X213384912Y-77734511D01*
X213328343Y-77871082D01*
X213328340Y-77871092D01*
X213299500Y-78016079D01*
X213299500Y-78016082D01*
X213299500Y-78163918D01*
X213299500Y-78163920D01*
X213299499Y-78163920D01*
X202694957Y-78163920D01*
X201230563Y-76699526D01*
X201230562Y-76699525D01*
X201144938Y-76650090D01*
X201097186Y-76637295D01*
X201097184Y-76637294D01*
X201097182Y-76637293D01*
X201049436Y-76624500D01*
X201049435Y-76624500D01*
X198392312Y-76624500D01*
X198325273Y-76604815D01*
X198304631Y-76588181D01*
X197711819Y-75995369D01*
X197678334Y-75934046D01*
X197675500Y-75907688D01*
X197675500Y-67850567D01*
X197675500Y-67850565D01*
X197649910Y-67755062D01*
X197600475Y-67669438D01*
X197530562Y-67599525D01*
X197236819Y-67305782D01*
X197203334Y-67244459D01*
X197200500Y-67218101D01*
X197200500Y-67120945D01*
X197200500Y-67120943D01*
X197159577Y-66968216D01*
X197159573Y-66968209D01*
X197080524Y-66831290D01*
X197080518Y-66831282D01*
X196968717Y-66719481D01*
X196968709Y-66719475D01*
X196831790Y-66640426D01*
X196831786Y-66640424D01*
X196831784Y-66640423D01*
X196679057Y-66599500D01*
X196520943Y-66599500D01*
X196368216Y-66640423D01*
X196368209Y-66640426D01*
X196231290Y-66719475D01*
X196231282Y-66719481D01*
X196119481Y-66831282D01*
X196119475Y-66831290D01*
X196040426Y-66968209D01*
X196040423Y-66968216D01*
X195999500Y-67120943D01*
X192746226Y-67120943D01*
X192746226Y-65093713D01*
X193549500Y-65093713D01*
X193549500Y-65306287D01*
X193557879Y-65359192D01*
X193582753Y-65516239D01*
X193648444Y-65718414D01*
X193744951Y-65907820D01*
X193869890Y-66079786D01*
X194020213Y-66230109D01*
X194192179Y-66355048D01*
X194192181Y-66355049D01*
X194192184Y-66355051D01*
X194381588Y-66451557D01*
X194583757Y-66517246D01*
X194793713Y-66550500D01*
X194793714Y-66550500D01*
X195006286Y-66550500D01*
X195006287Y-66550500D01*
X195216243Y-66517246D01*
X195418412Y-66451557D01*
X195607816Y-66355051D01*
X195629789Y-66339086D01*
X195779786Y-66230109D01*
X195779788Y-66230106D01*
X195779792Y-66230104D01*
X195930104Y-66079792D01*
X195930106Y-66079788D01*
X195930109Y-66079786D01*
X196055048Y-65907820D01*
X196055047Y-65907820D01*
X196055051Y-65907816D01*
X196151557Y-65718412D01*
X196217246Y-65516243D01*
X196250500Y-65306287D01*
X196250500Y-65093713D01*
X196217246Y-64883757D01*
X196151557Y-64681588D01*
X196055051Y-64492184D01*
X196055049Y-64492181D01*
X196055048Y-64492179D01*
X195930109Y-64320213D01*
X195779786Y-64169890D01*
X195607820Y-64044951D01*
X195418414Y-63948444D01*
X195418413Y-63948443D01*
X195418412Y-63948443D01*
X195216243Y-63882754D01*
X195216241Y-63882753D01*
X195216240Y-63882753D01*
X195054957Y-63857208D01*
X195006287Y-63849500D01*
X194793713Y-63849500D01*
X194745042Y-63857208D01*
X194583760Y-63882753D01*
X194381585Y-63948444D01*
X194192179Y-64044951D01*
X194020213Y-64169890D01*
X193869890Y-64320213D01*
X193744951Y-64492179D01*
X193648444Y-64681585D01*
X193582753Y-64883760D01*
X193577405Y-64917527D01*
X193549500Y-65093713D01*
X192746226Y-65093713D01*
X192746226Y-64827705D01*
X192746542Y-64818857D01*
X192763404Y-64583143D01*
X192765922Y-64565634D01*
X192765926Y-64565615D01*
X192815216Y-64339047D01*
X192820196Y-64322088D01*
X192901235Y-64104821D01*
X192908573Y-64088752D01*
X193019719Y-63885210D01*
X193029267Y-63870354D01*
X193168244Y-63684708D01*
X193179815Y-63671356D01*
X193343788Y-63507387D01*
X193357147Y-63495811D01*
X193542789Y-63356846D01*
X193557652Y-63347293D01*
X193761188Y-63236157D01*
X193777268Y-63228814D01*
X193994528Y-63147784D01*
X194011490Y-63142803D01*
X194238085Y-63093513D01*
X194255594Y-63090997D01*
X194492099Y-63074084D01*
X194500943Y-63073769D01*
X194555030Y-63073769D01*
X196552407Y-63073769D01*
X196573627Y-63080000D01*
G37*
%TD.AperFunction*%
%TD*%
M02*
