M48
; DRILL file {KiCad 9.0.7} date 2026-02-10T02:00:53+0700
; FORMAT={-:-/ absolute / metric / decimal}
; #@! TF.CreationDate,2026-02-10T02:00:53+07:00
; #@! TF.GenerationSoftware,Kicad,Pcbnew,9.0.7
; #@! TF.FileFunction,Plated,1,2,PTH
FMAT,2
METRIC
; #@! TA.AperFunction,Plated,PTH,ViaDrill
T1C0.250
; #@! TA.AperFunction,Plated,PTH,ViaDrill
T2C0.300
; #@! TA.AperFunction,Plated,PTH,ComponentDrill
T3C0.600
; #@! TA.AperFunction,Plated,PTH,ComponentDrill
T4C0.750
%
G90
G05
T1
X32.0Y-54.0
X32.0Y-57.0
X32.0Y-60.0
X32.0Y-63.0
X32.0Y-66.0
X32.0Y-69.0
X32.0Y-72.0
X32.0Y-76.0
X32.0Y-83.0
X32.0Y-86.0
X32.0Y-88.0
X32.0Y-90.0
X32.0Y-92.0
X32.0Y-94.0
X32.0Y-96.0
X32.0Y-98.0
X32.293Y-80.5
X32.306Y-78.0
X33.0Y-69.0
X33.0Y-70.7
X33.0Y-73.0
X33.306Y-64.183
X33.417Y-62.011
X34.0Y-56.0
X34.8Y-80.5
X34.806Y-78.0
X35.0Y-73.0
X35.0Y-101.0
X36.0Y-52.0
X36.0Y-54.0
X36.0Y-56.0
X37.0Y-65.0
X37.0Y-73.0
X37.1Y-70.8
X37.6Y-62.16
X37.6Y-62.96
X37.6Y-63.86
X38.0Y-90.0
X38.0Y-92.0
X38.0Y-94.0
X38.0Y-97.0
X38.0Y-101.0
X38.4Y-62.16
X38.4Y-62.96
X38.4Y-63.86
X38.7Y-75.2
X38.98Y-64.51
X39.0Y-66.7
X39.0Y-73.0
X39.3Y-82.8
X39.301Y-83.6
X39.401Y-76.1
X40.602Y-81.1
X40.621Y-77.8
X40.627Y-79.5
X40.95Y-54.3
X41.0Y-67.45
X41.0Y-73.0
X41.0Y-101.0
X41.2Y-55.5
X41.2Y-59.5
X41.3Y-61.5
X41.64Y-83.585
X41.9Y-54.3
X41.96Y-75.99
X42.4Y-77.79
X42.4Y-79.5
X42.41Y-81.09
X42.9Y-54.3
X42.9Y-57.5
X42.9Y-61.5
X43.0Y-67.45
X43.3Y-93.8
X43.438Y-91.3
X43.85Y-54.3
X44.0Y-101.0
X44.2Y-96.21
X44.28Y-71.4
X44.5Y-69.862
X44.9Y-54.325
X44.9Y-55.5
X44.9Y-59.5
X44.99Y-94.8
X45.0Y-67.45
X45.6Y-77.5
X45.7Y-81.6
X45.9Y-54.3
X46.204Y-93.839
X46.211Y-93.13
X46.65Y-76.85
X46.74Y-77.94
X46.8Y-81.13
X46.9Y-54.3
X46.9Y-57.5
X46.9Y-61.5
X47.0Y-101.0
X47.053Y-93.125
X47.055Y-93.843
X47.31Y-78.21
X47.33Y-80.79
X47.5Y-67.5
X47.8Y-78.6
X47.81Y-80.39
X47.95Y-54.3
X48.01Y-92.36
X48.07Y-94.76
X48.4Y-78.6
X48.41Y-80.373
X48.9Y-55.5
X48.9Y-59.5
X48.925Y-54.3
X48.997Y-78.606
X49.0Y-80.37
X50.0Y-101.0
X50.51Y-93.35
X50.949Y-70.02
X51.0Y-62.2
X51.0Y-63.0
X51.0Y-63.9
X51.23Y-99.66
X51.238Y-80.928
X51.25Y-96.95
X51.8Y-62.2
X51.8Y-63.0
X51.8Y-63.9
X51.8Y-96.95
X51.9Y-94.1
X52.879Y-95.835
X52.899Y-95.084
X53.0Y-51.0
X53.0Y-51.75
X53.0Y-52.5
X53.0Y-101.0
X53.05Y-55.3
X53.15Y-93.1
X53.273Y-95.459
X53.6Y-97.8
X53.64Y-86.65
X53.64Y-95.084
X53.65Y-95.83
X53.675Y-55.3
X53.75Y-51.0
X53.75Y-51.75
X53.75Y-52.5
X53.8Y-76.74
X53.85Y-78.49
X53.9Y-80.24
X54.612Y-71.429
X54.71Y-96.83
X55.0Y-51.0
X55.01Y-53.5
X55.15Y-61.8
X55.2Y-65.2
X55.2Y-65.8
X55.225Y-70.77
X55.226Y-93.476
X55.7Y-76.74
X55.7Y-80.24
X56.03Y-89.47
X56.125Y-54.75
X56.26Y-52.125
X57.25Y-56.0
X57.5Y-76.74
X57.5Y-78.49
X57.5Y-80.24
X57.51Y-53.5
X57.6Y-58.8
X57.7Y-97.85
X57.74Y-93.92
X58.58Y-84.53
X58.63Y-54.75
X58.69Y-85.86
X58.96Y-57.47
X59.01Y-98.96
X59.4Y-65.6
X59.4Y-68.3
X59.4Y-70.3
X59.5Y-63.0
X59.82Y-92.63
X59.9Y-94.77
X59.96Y-95.66
X60.0Y-51.0
X60.0Y-52.25
X60.0Y-60.37
X60.0Y-101.0
X60.02Y-90.03
X60.75Y-77.675
X60.88Y-57.43
X61.05Y-71.1
X61.1Y-86.125
X61.3Y-64.44
X61.375Y-61.62
X61.42Y-73.18
X61.5Y-68.75
X61.55Y-66.8
X61.75Y-51.0
X61.75Y-52.25
X61.98Y-99.99
X62.1Y-80.9
X62.5Y-57.75
X62.5Y-60.375
X62.7Y-62.96
X62.7Y-81.5
X63.0Y-86.0
X63.0Y-101.0
X63.567Y-93.159
X63.75Y-54.0
X63.75Y-56.5
X63.75Y-58.95
X63.97Y-99.97
X64.0Y-80.8
X64.0Y-90.0
X64.8Y-74.0
X64.8Y-79.0
X65.0Y-55.125
X65.1Y-66.8
X65.3Y-60.4
X65.45Y-89.3
X65.45Y-90.1
X65.45Y-90.9
X65.45Y-91.7
X65.45Y-92.5
X65.45Y-93.3
X65.6Y-73.2
X65.6Y-79.0
X65.75Y-51.0
X65.75Y-52.25
X65.9Y-81.0
X66.091Y-88.81
X66.25Y-53.875
X66.3Y-56.3
X66.3Y-67.85
X66.541Y-97.11
X66.891Y-88.81
X67.1Y-73.3
X67.5Y-55.125
X67.5Y-57.75
X67.59Y-84.56
X67.6Y-86.7
X67.691Y-88.81
X67.7Y-73.9
X67.991Y-93.49
X68.0Y-95.991
X68.3Y-74.5
X68.35Y-60.45
X68.4Y-56.5
X68.48Y-64.25
X68.48Y-65.0
X68.48Y-67.9
X68.491Y-88.81
X68.5Y-69.5
X68.5Y-71.0
X68.9Y-75.1
X69.0Y-62.0
X69.0Y-63.0
X69.23Y-64.25
X69.23Y-65.0
X69.23Y-67.9
X69.291Y-88.81
X69.4Y-84.675
X69.5Y-51.0
X69.5Y-52.25
X69.5Y-75.7
X69.85Y-97.02
X70.05Y-99.51
X70.091Y-88.81
X70.091Y-94.135
X70.2Y-76.4
X70.37Y-86.7
X70.39Y-84.57
X70.4Y-77.2
X70.4Y-78.0
X70.4Y-78.8
X70.4Y-79.6
X70.4Y-80.4
X70.4Y-81.2
X70.4Y-82.0
X70.57Y-89.32
X70.57Y-90.12
X70.57Y-90.92
X70.57Y-91.72
X70.57Y-92.52
X70.57Y-93.32
X70.866Y-96.085
X71.0Y-68.0
X71.949Y-100.793
X72.0Y-78.0
X72.0Y-81.0
X72.0Y-86.0
X72.13Y-56.42
X72.5Y-51.0
X72.5Y-52.25
X73.0Y-71.0
X73.775Y-61.49
X74.0Y-66.0
X74.0Y-80.0
X74.0Y-82.0
X74.05Y-59.0
X74.054Y-84.236
X74.06Y-53.775
X74.06Y-56.275
X74.38Y-87.85
X74.76Y-76.62
X75.175Y-60.24
X75.3Y-57.65
X75.31Y-54.9
X75.5Y-101.01
X75.88Y-90.26
X75.88Y-92.66
X75.88Y-95.06
X75.88Y-99.76
X76.0Y-68.0
X76.0Y-71.0
X76.0Y-97.0
X76.3Y-74.95
X76.55Y-59.0
X76.55Y-61.5
X76.56Y-53.65
X76.56Y-56.275
X77.5Y-92.01
X77.65Y-64.625
X77.65Y-65.375
X77.65Y-66.1
X77.65Y-66.875
X77.65Y-67.625
X77.65Y-68.375
X77.65Y-69.15
X77.65Y-69.875
X77.65Y-70.625
X77.65Y-71.375
X77.75Y-57.0
X77.75Y-58.0
X77.75Y-59.0
X77.75Y-60.0
X77.8Y-54.895
X77.82Y-79.08
X77.848Y-77.086
X78.0Y-81.0
X78.0Y-97.0
X78.32Y-79.06
X78.365Y-77.064
X78.72Y-78.75
X78.75Y-57.0
X78.83Y-76.37
X78.83Y-76.87
X78.84Y-74.87
X78.84Y-75.37
X78.84Y-75.87
X78.85Y-74.37
X79.235Y-78.75
X79.744Y-78.75
X79.75Y-57.0
X80.0Y-83.0
X80.0Y-85.0
X80.0Y-86.6
X80.0Y-89.0
X80.0Y-91.0
X80.0Y-93.0
X80.0Y-95.0
X80.0Y-97.0
X80.247Y-78.75
T2
X36.469Y-81.481
X36.518Y-77.55
X37.19Y-68.7
X37.2Y-69.7
X40.075Y-92.01
X40.389Y-66.623
X40.5Y-57.0
X40.75Y-93.01
X42.87Y-88.93
X44.75Y-83.2
X44.75Y-83.945
X44.8Y-76.8
X44.8Y-77.55
X44.88Y-90.48
X45.1Y-86.7
X45.322Y-91.286
X45.975Y-68.763
X48.677Y-76.723
X48.705Y-77.622
X48.79Y-81.42
X49.425Y-70.795
X49.505Y-74.685
X49.668Y-75.793
X49.833Y-76.678
X50.391Y-74.5
X52.0Y-83.025
X52.51Y-62.631
X53.025Y-66.63
X54.375Y-72.571
X54.96Y-86.07
X55.05Y-67.275
X55.05Y-68.65
X55.7Y-78.5
X55.909Y-61.547
X56.75Y-67.975
X56.825Y-83.059
X57.036Y-83.883
X57.7Y-69.25
X59.425Y-71.75
X59.492Y-72.932
X60.3Y-67.0
X61.4Y-56.11
X62.41Y-56.83
X62.661Y-84.77
X63.48Y-83.87
X63.9Y-71.0
X64.0Y-64.9
X64.45Y-60.35
X64.49Y-82.97
X69.0Y-57.4
X70.0Y-56.9
X70.0Y-64.7
X71.0Y-56.4
X71.0Y-65.9
X72.2Y-61.5
X73.4Y-85.3
X73.4Y-86.3
X75.987Y-66.388
X76.6Y-65.3
T4
X35.05Y-90.55
X35.05Y-92.55
T3
G00X33.29Y-75.18
M15
G01X32.69Y-75.18
M16
G05
G00X33.29Y-83.82
M15
G01X32.69Y-83.82
M16
G05
G00X37.72Y-75.18
M15
G01X36.62Y-75.18
M16
G05
G00X37.72Y-83.82
M15
G01X36.62Y-83.82
M16
G05
M30
