%TF.GenerationSoftware,KiCad,Pcbnew,9.0.7*%
%TF.CreationDate,2026-03-16T21:40:21+07:00*%
%TF.ProjectId,tag,7461672e-6b69-4636-9164-5f7063625858,rev?*%
%TF.SameCoordinates,Original*%
%TF.FileFunction,Legend,Bot*%
%TF.FilePolarity,Positive*%
%FSLAX46Y46*%
G04 Gerber Fmt 4.6, Leading zero omitted, Abs format (unit mm)*
G04 Created by KiCad (PCBNEW 9.0.7) date 2026-03-16 21:40:21*
%MOMM*%
%LPD*%
G01*
G04 APERTURE LIST*
%ADD10C,0.100000*%
%ADD11C,0.170000*%
%ADD12C,0.150000*%
%ADD13C,0.120000*%
G04 APERTURE END LIST*
D10*
X64300000Y-99250000D02*
X73300000Y-99250000D01*
X73300000Y-100500000D01*
X64300000Y-100500000D01*
X64300000Y-99250000D01*
G36*
X64300000Y-99250000D02*
G01*
X73300000Y-99250000D01*
X73300000Y-100500000D01*
X64300000Y-100500000D01*
X64300000Y-99250000D01*
G37*
D11*
X75097681Y-97417278D02*
X75097681Y-96617278D01*
X75097681Y-96617278D02*
X74792919Y-96617278D01*
X74792919Y-96617278D02*
X74716729Y-96655373D01*
X74716729Y-96655373D02*
X74678634Y-96693468D01*
X74678634Y-96693468D02*
X74640538Y-96769659D01*
X74640538Y-96769659D02*
X74640538Y-96883944D01*
X74640538Y-96883944D02*
X74678634Y-96960135D01*
X74678634Y-96960135D02*
X74716729Y-96998230D01*
X74716729Y-96998230D02*
X74792919Y-97036325D01*
X74792919Y-97036325D02*
X75097681Y-97036325D01*
X73840538Y-97417278D02*
X74107205Y-97036325D01*
X74297681Y-97417278D02*
X74297681Y-96617278D01*
X74297681Y-96617278D02*
X73992919Y-96617278D01*
X73992919Y-96617278D02*
X73916729Y-96655373D01*
X73916729Y-96655373D02*
X73878634Y-96693468D01*
X73878634Y-96693468D02*
X73840538Y-96769659D01*
X73840538Y-96769659D02*
X73840538Y-96883944D01*
X73840538Y-96883944D02*
X73878634Y-96960135D01*
X73878634Y-96960135D02*
X73916729Y-96998230D01*
X73916729Y-96998230D02*
X73992919Y-97036325D01*
X73992919Y-97036325D02*
X74297681Y-97036325D01*
X73345300Y-96617278D02*
X73192919Y-96617278D01*
X73192919Y-96617278D02*
X73116729Y-96655373D01*
X73116729Y-96655373D02*
X73040538Y-96731563D01*
X73040538Y-96731563D02*
X73002443Y-96883944D01*
X73002443Y-96883944D02*
X73002443Y-97150611D01*
X73002443Y-97150611D02*
X73040538Y-97302992D01*
X73040538Y-97302992D02*
X73116729Y-97379183D01*
X73116729Y-97379183D02*
X73192919Y-97417278D01*
X73192919Y-97417278D02*
X73345300Y-97417278D01*
X73345300Y-97417278D02*
X73421491Y-97379183D01*
X73421491Y-97379183D02*
X73497681Y-97302992D01*
X73497681Y-97302992D02*
X73535777Y-97150611D01*
X73535777Y-97150611D02*
X73535777Y-96883944D01*
X73535777Y-96883944D02*
X73497681Y-96731563D01*
X73497681Y-96731563D02*
X73421491Y-96655373D01*
X73421491Y-96655373D02*
X73345300Y-96617278D01*
X72659586Y-97417278D02*
X72659586Y-96617278D01*
X72659586Y-96617278D02*
X72469110Y-96617278D01*
X72469110Y-96617278D02*
X72354824Y-96655373D01*
X72354824Y-96655373D02*
X72278634Y-96731563D01*
X72278634Y-96731563D02*
X72240539Y-96807754D01*
X72240539Y-96807754D02*
X72202443Y-96960135D01*
X72202443Y-96960135D02*
X72202443Y-97074421D01*
X72202443Y-97074421D02*
X72240539Y-97226802D01*
X72240539Y-97226802D02*
X72278634Y-97302992D01*
X72278634Y-97302992D02*
X72354824Y-97379183D01*
X72354824Y-97379183D02*
X72469110Y-97417278D01*
X72469110Y-97417278D02*
X72659586Y-97417278D01*
X71859586Y-96617278D02*
X71859586Y-97264897D01*
X71859586Y-97264897D02*
X71821491Y-97341087D01*
X71821491Y-97341087D02*
X71783396Y-97379183D01*
X71783396Y-97379183D02*
X71707205Y-97417278D01*
X71707205Y-97417278D02*
X71554824Y-97417278D01*
X71554824Y-97417278D02*
X71478634Y-97379183D01*
X71478634Y-97379183D02*
X71440539Y-97341087D01*
X71440539Y-97341087D02*
X71402443Y-97264897D01*
X71402443Y-97264897D02*
X71402443Y-96617278D01*
X70564348Y-97341087D02*
X70602444Y-97379183D01*
X70602444Y-97379183D02*
X70716729Y-97417278D01*
X70716729Y-97417278D02*
X70792920Y-97417278D01*
X70792920Y-97417278D02*
X70907206Y-97379183D01*
X70907206Y-97379183D02*
X70983396Y-97302992D01*
X70983396Y-97302992D02*
X71021491Y-97226802D01*
X71021491Y-97226802D02*
X71059587Y-97074421D01*
X71059587Y-97074421D02*
X71059587Y-96960135D01*
X71059587Y-96960135D02*
X71021491Y-96807754D01*
X71021491Y-96807754D02*
X70983396Y-96731563D01*
X70983396Y-96731563D02*
X70907206Y-96655373D01*
X70907206Y-96655373D02*
X70792920Y-96617278D01*
X70792920Y-96617278D02*
X70716729Y-96617278D01*
X70716729Y-96617278D02*
X70602444Y-96655373D01*
X70602444Y-96655373D02*
X70564348Y-96693468D01*
X70335777Y-96617278D02*
X69878634Y-96617278D01*
X70107206Y-97417278D02*
X70107206Y-96617278D01*
X69611967Y-97417278D02*
X69611967Y-96617278D01*
X69078634Y-96617278D02*
X68926253Y-96617278D01*
X68926253Y-96617278D02*
X68850063Y-96655373D01*
X68850063Y-96655373D02*
X68773872Y-96731563D01*
X68773872Y-96731563D02*
X68735777Y-96883944D01*
X68735777Y-96883944D02*
X68735777Y-97150611D01*
X68735777Y-97150611D02*
X68773872Y-97302992D01*
X68773872Y-97302992D02*
X68850063Y-97379183D01*
X68850063Y-97379183D02*
X68926253Y-97417278D01*
X68926253Y-97417278D02*
X69078634Y-97417278D01*
X69078634Y-97417278D02*
X69154825Y-97379183D01*
X69154825Y-97379183D02*
X69231015Y-97302992D01*
X69231015Y-97302992D02*
X69269111Y-97150611D01*
X69269111Y-97150611D02*
X69269111Y-96883944D01*
X69269111Y-96883944D02*
X69231015Y-96731563D01*
X69231015Y-96731563D02*
X69154825Y-96655373D01*
X69154825Y-96655373D02*
X69078634Y-96617278D01*
X68392920Y-97417278D02*
X68392920Y-96617278D01*
X68392920Y-96617278D02*
X67935777Y-97417278D01*
X67935777Y-97417278D02*
X67935777Y-96617278D01*
X66678635Y-96998230D02*
X66564349Y-97036325D01*
X66564349Y-97036325D02*
X66526254Y-97074421D01*
X66526254Y-97074421D02*
X66488158Y-97150611D01*
X66488158Y-97150611D02*
X66488158Y-97264897D01*
X66488158Y-97264897D02*
X66526254Y-97341087D01*
X66526254Y-97341087D02*
X66564349Y-97379183D01*
X66564349Y-97379183D02*
X66640539Y-97417278D01*
X66640539Y-97417278D02*
X66945301Y-97417278D01*
X66945301Y-97417278D02*
X66945301Y-96617278D01*
X66945301Y-96617278D02*
X66678635Y-96617278D01*
X66678635Y-96617278D02*
X66602444Y-96655373D01*
X66602444Y-96655373D02*
X66564349Y-96693468D01*
X66564349Y-96693468D02*
X66526254Y-96769659D01*
X66526254Y-96769659D02*
X66526254Y-96845849D01*
X66526254Y-96845849D02*
X66564349Y-96922040D01*
X66564349Y-96922040D02*
X66602444Y-96960135D01*
X66602444Y-96960135D02*
X66678635Y-96998230D01*
X66678635Y-96998230D02*
X66945301Y-96998230D01*
X65992920Y-96617278D02*
X65840539Y-96617278D01*
X65840539Y-96617278D02*
X65764349Y-96655373D01*
X65764349Y-96655373D02*
X65688158Y-96731563D01*
X65688158Y-96731563D02*
X65650063Y-96883944D01*
X65650063Y-96883944D02*
X65650063Y-97150611D01*
X65650063Y-97150611D02*
X65688158Y-97302992D01*
X65688158Y-97302992D02*
X65764349Y-97379183D01*
X65764349Y-97379183D02*
X65840539Y-97417278D01*
X65840539Y-97417278D02*
X65992920Y-97417278D01*
X65992920Y-97417278D02*
X66069111Y-97379183D01*
X66069111Y-97379183D02*
X66145301Y-97302992D01*
X66145301Y-97302992D02*
X66183397Y-97150611D01*
X66183397Y-97150611D02*
X66183397Y-96883944D01*
X66183397Y-96883944D02*
X66145301Y-96731563D01*
X66145301Y-96731563D02*
X66069111Y-96655373D01*
X66069111Y-96655373D02*
X65992920Y-96617278D01*
X65345302Y-97188706D02*
X64964349Y-97188706D01*
X65421492Y-97417278D02*
X65154825Y-96617278D01*
X65154825Y-96617278D02*
X64888159Y-97417278D01*
X64164349Y-97417278D02*
X64431016Y-97036325D01*
X64621492Y-97417278D02*
X64621492Y-96617278D01*
X64621492Y-96617278D02*
X64316730Y-96617278D01*
X64316730Y-96617278D02*
X64240540Y-96655373D01*
X64240540Y-96655373D02*
X64202445Y-96693468D01*
X64202445Y-96693468D02*
X64164349Y-96769659D01*
X64164349Y-96769659D02*
X64164349Y-96883944D01*
X64164349Y-96883944D02*
X64202445Y-96960135D01*
X64202445Y-96960135D02*
X64240540Y-96998230D01*
X64240540Y-96998230D02*
X64316730Y-97036325D01*
X64316730Y-97036325D02*
X64621492Y-97036325D01*
X63821492Y-97417278D02*
X63821492Y-96617278D01*
X63821492Y-96617278D02*
X63631016Y-96617278D01*
X63631016Y-96617278D02*
X63516730Y-96655373D01*
X63516730Y-96655373D02*
X63440540Y-96731563D01*
X63440540Y-96731563D02*
X63402445Y-96807754D01*
X63402445Y-96807754D02*
X63364349Y-96960135D01*
X63364349Y-96960135D02*
X63364349Y-97074421D01*
X63364349Y-97074421D02*
X63402445Y-97226802D01*
X63402445Y-97226802D02*
X63440540Y-97302992D01*
X63440540Y-97302992D02*
X63516730Y-97379183D01*
X63516730Y-97379183D02*
X63631016Y-97417278D01*
X63631016Y-97417278D02*
X63821492Y-97417278D01*
X74640538Y-98705233D02*
X74907205Y-98324280D01*
X75097681Y-98705233D02*
X75097681Y-97905233D01*
X75097681Y-97905233D02*
X74792919Y-97905233D01*
X74792919Y-97905233D02*
X74716729Y-97943328D01*
X74716729Y-97943328D02*
X74678634Y-97981423D01*
X74678634Y-97981423D02*
X74640538Y-98057614D01*
X74640538Y-98057614D02*
X74640538Y-98171899D01*
X74640538Y-98171899D02*
X74678634Y-98248090D01*
X74678634Y-98248090D02*
X74716729Y-98286185D01*
X74716729Y-98286185D02*
X74792919Y-98324280D01*
X74792919Y-98324280D02*
X75097681Y-98324280D01*
X74297681Y-98286185D02*
X74031015Y-98286185D01*
X73916729Y-98705233D02*
X74297681Y-98705233D01*
X74297681Y-98705233D02*
X74297681Y-97905233D01*
X74297681Y-97905233D02*
X73916729Y-97905233D01*
X73192919Y-98705233D02*
X73573871Y-98705233D01*
X73573871Y-98705233D02*
X73573871Y-97905233D01*
X72926252Y-98629042D02*
X72888157Y-98667138D01*
X72888157Y-98667138D02*
X72926252Y-98705233D01*
X72926252Y-98705233D02*
X72964348Y-98667138D01*
X72964348Y-98667138D02*
X72926252Y-98629042D01*
X72926252Y-98629042D02*
X72926252Y-98705233D01*
X72926252Y-98209995D02*
X72888157Y-98248090D01*
X72888157Y-98248090D02*
X72926252Y-98286185D01*
X72926252Y-98286185D02*
X72964348Y-98248090D01*
X72964348Y-98248090D02*
X72926252Y-98209995D01*
X72926252Y-98209995D02*
X72926252Y-98286185D01*
X71973872Y-97981423D02*
X71935776Y-97943328D01*
X71935776Y-97943328D02*
X71859586Y-97905233D01*
X71859586Y-97905233D02*
X71669110Y-97905233D01*
X71669110Y-97905233D02*
X71592919Y-97943328D01*
X71592919Y-97943328D02*
X71554824Y-97981423D01*
X71554824Y-97981423D02*
X71516729Y-98057614D01*
X71516729Y-98057614D02*
X71516729Y-98133804D01*
X71516729Y-98133804D02*
X71554824Y-98248090D01*
X71554824Y-98248090D02*
X72011967Y-98705233D01*
X72011967Y-98705233D02*
X71516729Y-98705233D01*
X71021490Y-97905233D02*
X70945300Y-97905233D01*
X70945300Y-97905233D02*
X70869109Y-97943328D01*
X70869109Y-97943328D02*
X70831014Y-97981423D01*
X70831014Y-97981423D02*
X70792919Y-98057614D01*
X70792919Y-98057614D02*
X70754824Y-98209995D01*
X70754824Y-98209995D02*
X70754824Y-98400471D01*
X70754824Y-98400471D02*
X70792919Y-98552852D01*
X70792919Y-98552852D02*
X70831014Y-98629042D01*
X70831014Y-98629042D02*
X70869109Y-98667138D01*
X70869109Y-98667138D02*
X70945300Y-98705233D01*
X70945300Y-98705233D02*
X71021490Y-98705233D01*
X71021490Y-98705233D02*
X71097681Y-98667138D01*
X71097681Y-98667138D02*
X71135776Y-98629042D01*
X71135776Y-98629042D02*
X71173871Y-98552852D01*
X71173871Y-98552852D02*
X71211967Y-98400471D01*
X71211967Y-98400471D02*
X71211967Y-98209995D01*
X71211967Y-98209995D02*
X71173871Y-98057614D01*
X71173871Y-98057614D02*
X71135776Y-97981423D01*
X71135776Y-97981423D02*
X71097681Y-97943328D01*
X71097681Y-97943328D02*
X71021490Y-97905233D01*
X70450062Y-97981423D02*
X70411966Y-97943328D01*
X70411966Y-97943328D02*
X70335776Y-97905233D01*
X70335776Y-97905233D02*
X70145300Y-97905233D01*
X70145300Y-97905233D02*
X70069109Y-97943328D01*
X70069109Y-97943328D02*
X70031014Y-97981423D01*
X70031014Y-97981423D02*
X69992919Y-98057614D01*
X69992919Y-98057614D02*
X69992919Y-98133804D01*
X69992919Y-98133804D02*
X70031014Y-98248090D01*
X70031014Y-98248090D02*
X70488157Y-98705233D01*
X70488157Y-98705233D02*
X69992919Y-98705233D01*
X69269109Y-97905233D02*
X69650061Y-97905233D01*
X69650061Y-97905233D02*
X69688157Y-98286185D01*
X69688157Y-98286185D02*
X69650061Y-98248090D01*
X69650061Y-98248090D02*
X69573871Y-98209995D01*
X69573871Y-98209995D02*
X69383395Y-98209995D01*
X69383395Y-98209995D02*
X69307204Y-98248090D01*
X69307204Y-98248090D02*
X69269109Y-98286185D01*
X69269109Y-98286185D02*
X69231014Y-98362376D01*
X69231014Y-98362376D02*
X69231014Y-98552852D01*
X69231014Y-98552852D02*
X69269109Y-98629042D01*
X69269109Y-98629042D02*
X69307204Y-98667138D01*
X69307204Y-98667138D02*
X69383395Y-98705233D01*
X69383395Y-98705233D02*
X69573871Y-98705233D01*
X69573871Y-98705233D02*
X69650061Y-98667138D01*
X69650061Y-98667138D02*
X69688157Y-98629042D01*
X68888156Y-98400471D02*
X68278633Y-98400471D01*
X67745299Y-97905233D02*
X67669109Y-97905233D01*
X67669109Y-97905233D02*
X67592918Y-97943328D01*
X67592918Y-97943328D02*
X67554823Y-97981423D01*
X67554823Y-97981423D02*
X67516728Y-98057614D01*
X67516728Y-98057614D02*
X67478633Y-98209995D01*
X67478633Y-98209995D02*
X67478633Y-98400471D01*
X67478633Y-98400471D02*
X67516728Y-98552852D01*
X67516728Y-98552852D02*
X67554823Y-98629042D01*
X67554823Y-98629042D02*
X67592918Y-98667138D01*
X67592918Y-98667138D02*
X67669109Y-98705233D01*
X67669109Y-98705233D02*
X67745299Y-98705233D01*
X67745299Y-98705233D02*
X67821490Y-98667138D01*
X67821490Y-98667138D02*
X67859585Y-98629042D01*
X67859585Y-98629042D02*
X67897680Y-98552852D01*
X67897680Y-98552852D02*
X67935776Y-98400471D01*
X67935776Y-98400471D02*
X67935776Y-98209995D01*
X67935776Y-98209995D02*
X67897680Y-98057614D01*
X67897680Y-98057614D02*
X67859585Y-97981423D01*
X67859585Y-97981423D02*
X67821490Y-97943328D01*
X67821490Y-97943328D02*
X67745299Y-97905233D01*
X67173871Y-97981423D02*
X67135775Y-97943328D01*
X67135775Y-97943328D02*
X67059585Y-97905233D01*
X67059585Y-97905233D02*
X66869109Y-97905233D01*
X66869109Y-97905233D02*
X66792918Y-97943328D01*
X66792918Y-97943328D02*
X66754823Y-97981423D01*
X66754823Y-97981423D02*
X66716728Y-98057614D01*
X66716728Y-98057614D02*
X66716728Y-98133804D01*
X66716728Y-98133804D02*
X66754823Y-98248090D01*
X66754823Y-98248090D02*
X67211966Y-98705233D01*
X67211966Y-98705233D02*
X66716728Y-98705233D01*
X66373870Y-98400471D02*
X65764347Y-98400471D01*
X65421490Y-97981423D02*
X65383394Y-97943328D01*
X65383394Y-97943328D02*
X65307204Y-97905233D01*
X65307204Y-97905233D02*
X65116728Y-97905233D01*
X65116728Y-97905233D02*
X65040537Y-97943328D01*
X65040537Y-97943328D02*
X65002442Y-97981423D01*
X65002442Y-97981423D02*
X64964347Y-98057614D01*
X64964347Y-98057614D02*
X64964347Y-98133804D01*
X64964347Y-98133804D02*
X65002442Y-98248090D01*
X65002442Y-98248090D02*
X65459585Y-98705233D01*
X65459585Y-98705233D02*
X64964347Y-98705233D01*
X64240537Y-97905233D02*
X64621489Y-97905233D01*
X64621489Y-97905233D02*
X64659585Y-98286185D01*
X64659585Y-98286185D02*
X64621489Y-98248090D01*
X64621489Y-98248090D02*
X64545299Y-98209995D01*
X64545299Y-98209995D02*
X64354823Y-98209995D01*
X64354823Y-98209995D02*
X64278632Y-98248090D01*
X64278632Y-98248090D02*
X64240537Y-98286185D01*
X64240537Y-98286185D02*
X64202442Y-98362376D01*
X64202442Y-98362376D02*
X64202442Y-98552852D01*
X64202442Y-98552852D02*
X64240537Y-98629042D01*
X64240537Y-98629042D02*
X64278632Y-98667138D01*
X64278632Y-98667138D02*
X64354823Y-98705233D01*
X64354823Y-98705233D02*
X64545299Y-98705233D01*
X64545299Y-98705233D02*
X64621489Y-98667138D01*
X64621489Y-98667138D02*
X64659585Y-98629042D01*
X75097681Y-100261255D02*
X75097681Y-99461255D01*
X74716729Y-100261255D02*
X74716729Y-99461255D01*
X74716729Y-99461255D02*
X74526253Y-99461255D01*
X74526253Y-99461255D02*
X74411967Y-99499350D01*
X74411967Y-99499350D02*
X74335777Y-99575540D01*
X74335777Y-99575540D02*
X74297682Y-99651731D01*
X74297682Y-99651731D02*
X74259586Y-99804112D01*
X74259586Y-99804112D02*
X74259586Y-99918398D01*
X74259586Y-99918398D02*
X74297682Y-100070779D01*
X74297682Y-100070779D02*
X74335777Y-100146969D01*
X74335777Y-100146969D02*
X74411967Y-100223160D01*
X74411967Y-100223160D02*
X74526253Y-100261255D01*
X74526253Y-100261255D02*
X74716729Y-100261255D01*
X73916729Y-100185064D02*
X73878634Y-100223160D01*
X73878634Y-100223160D02*
X73916729Y-100261255D01*
X73916729Y-100261255D02*
X73954825Y-100223160D01*
X73954825Y-100223160D02*
X73916729Y-100185064D01*
X73916729Y-100185064D02*
X73916729Y-100261255D01*
X73916729Y-99766017D02*
X73878634Y-99804112D01*
X73878634Y-99804112D02*
X73916729Y-99842207D01*
X73916729Y-99842207D02*
X73954825Y-99804112D01*
X73954825Y-99804112D02*
X73916729Y-99766017D01*
X73916729Y-99766017D02*
X73916729Y-99842207D01*
D12*
X60909523Y-67312295D02*
X60452380Y-67312295D01*
X60680952Y-68112295D02*
X60680952Y-67312295D01*
X60185713Y-68112295D02*
X60185713Y-67312295D01*
X60185713Y-67312295D02*
X59880951Y-67312295D01*
X59880951Y-67312295D02*
X59804761Y-67350390D01*
X59804761Y-67350390D02*
X59766666Y-67388485D01*
X59766666Y-67388485D02*
X59728570Y-67464676D01*
X59728570Y-67464676D02*
X59728570Y-67578961D01*
X59728570Y-67578961D02*
X59766666Y-67655152D01*
X59766666Y-67655152D02*
X59804761Y-67693247D01*
X59804761Y-67693247D02*
X59880951Y-67731342D01*
X59880951Y-67731342D02*
X60185713Y-67731342D01*
X59347618Y-68112295D02*
X59195237Y-68112295D01*
X59195237Y-68112295D02*
X59119047Y-68074200D01*
X59119047Y-68074200D02*
X59080951Y-68036104D01*
X59080951Y-68036104D02*
X59004761Y-67921819D01*
X59004761Y-67921819D02*
X58966666Y-67769438D01*
X58966666Y-67769438D02*
X58966666Y-67464676D01*
X58966666Y-67464676D02*
X59004761Y-67388485D01*
X59004761Y-67388485D02*
X59042856Y-67350390D01*
X59042856Y-67350390D02*
X59119047Y-67312295D01*
X59119047Y-67312295D02*
X59271428Y-67312295D01*
X59271428Y-67312295D02*
X59347618Y-67350390D01*
X59347618Y-67350390D02*
X59385713Y-67388485D01*
X59385713Y-67388485D02*
X59423809Y-67464676D01*
X59423809Y-67464676D02*
X59423809Y-67655152D01*
X59423809Y-67655152D02*
X59385713Y-67731342D01*
X59385713Y-67731342D02*
X59347618Y-67769438D01*
X59347618Y-67769438D02*
X59271428Y-67807533D01*
X59271428Y-67807533D02*
X59119047Y-67807533D01*
X59119047Y-67807533D02*
X59042856Y-67769438D01*
X59042856Y-67769438D02*
X59004761Y-67731342D01*
X59004761Y-67731342D02*
X58966666Y-67655152D01*
X53590476Y-66462295D02*
X53133333Y-66462295D01*
X53361905Y-67262295D02*
X53361905Y-66462295D01*
X52866666Y-67262295D02*
X52866666Y-66462295D01*
X52866666Y-66462295D02*
X52561904Y-66462295D01*
X52561904Y-66462295D02*
X52485714Y-66500390D01*
X52485714Y-66500390D02*
X52447619Y-66538485D01*
X52447619Y-66538485D02*
X52409523Y-66614676D01*
X52409523Y-66614676D02*
X52409523Y-66728961D01*
X52409523Y-66728961D02*
X52447619Y-66805152D01*
X52447619Y-66805152D02*
X52485714Y-66843247D01*
X52485714Y-66843247D02*
X52561904Y-66881342D01*
X52561904Y-66881342D02*
X52866666Y-66881342D01*
X51647619Y-67262295D02*
X52104762Y-67262295D01*
X51876190Y-67262295D02*
X51876190Y-66462295D01*
X51876190Y-66462295D02*
X51952381Y-66576580D01*
X51952381Y-66576580D02*
X52028571Y-66652771D01*
X52028571Y-66652771D02*
X52104762Y-66690866D01*
X50961904Y-66728961D02*
X50961904Y-67262295D01*
X51152380Y-66424200D02*
X51342857Y-66995628D01*
X51342857Y-66995628D02*
X50847618Y-66995628D01*
X44321904Y-70564819D02*
X43750476Y-70564819D01*
X44036190Y-71564819D02*
X44036190Y-70564819D01*
X43417142Y-71564819D02*
X43417142Y-70564819D01*
X43417142Y-70564819D02*
X43036190Y-70564819D01*
X43036190Y-70564819D02*
X42940952Y-70612438D01*
X42940952Y-70612438D02*
X42893333Y-70660057D01*
X42893333Y-70660057D02*
X42845714Y-70755295D01*
X42845714Y-70755295D02*
X42845714Y-70898152D01*
X42845714Y-70898152D02*
X42893333Y-70993390D01*
X42893333Y-70993390D02*
X42940952Y-71041009D01*
X42940952Y-71041009D02*
X43036190Y-71088628D01*
X43036190Y-71088628D02*
X43417142Y-71088628D01*
X42274285Y-70993390D02*
X42369523Y-70945771D01*
X42369523Y-70945771D02*
X42417142Y-70898152D01*
X42417142Y-70898152D02*
X42464761Y-70802914D01*
X42464761Y-70802914D02*
X42464761Y-70755295D01*
X42464761Y-70755295D02*
X42417142Y-70660057D01*
X42417142Y-70660057D02*
X42369523Y-70612438D01*
X42369523Y-70612438D02*
X42274285Y-70564819D01*
X42274285Y-70564819D02*
X42083809Y-70564819D01*
X42083809Y-70564819D02*
X41988571Y-70612438D01*
X41988571Y-70612438D02*
X41940952Y-70660057D01*
X41940952Y-70660057D02*
X41893333Y-70755295D01*
X41893333Y-70755295D02*
X41893333Y-70802914D01*
X41893333Y-70802914D02*
X41940952Y-70898152D01*
X41940952Y-70898152D02*
X41988571Y-70945771D01*
X41988571Y-70945771D02*
X42083809Y-70993390D01*
X42083809Y-70993390D02*
X42274285Y-70993390D01*
X42274285Y-70993390D02*
X42369523Y-71041009D01*
X42369523Y-71041009D02*
X42417142Y-71088628D01*
X42417142Y-71088628D02*
X42464761Y-71183866D01*
X42464761Y-71183866D02*
X42464761Y-71374342D01*
X42464761Y-71374342D02*
X42417142Y-71469580D01*
X42417142Y-71469580D02*
X42369523Y-71517200D01*
X42369523Y-71517200D02*
X42274285Y-71564819D01*
X42274285Y-71564819D02*
X42083809Y-71564819D01*
X42083809Y-71564819D02*
X41988571Y-71517200D01*
X41988571Y-71517200D02*
X41940952Y-71469580D01*
X41940952Y-71469580D02*
X41893333Y-71374342D01*
X41893333Y-71374342D02*
X41893333Y-71183866D01*
X41893333Y-71183866D02*
X41940952Y-71088628D01*
X41940952Y-71088628D02*
X41988571Y-71041009D01*
X41988571Y-71041009D02*
X42083809Y-70993390D01*
X42108094Y-59934819D02*
X41536666Y-59934819D01*
X41822380Y-60934819D02*
X41822380Y-59934819D01*
X41203332Y-60934819D02*
X41203332Y-59934819D01*
X41203332Y-59934819D02*
X40822380Y-59934819D01*
X40822380Y-59934819D02*
X40727142Y-59982438D01*
X40727142Y-59982438D02*
X40679523Y-60030057D01*
X40679523Y-60030057D02*
X40631904Y-60125295D01*
X40631904Y-60125295D02*
X40631904Y-60268152D01*
X40631904Y-60268152D02*
X40679523Y-60363390D01*
X40679523Y-60363390D02*
X40727142Y-60411009D01*
X40727142Y-60411009D02*
X40822380Y-60458628D01*
X40822380Y-60458628D02*
X41203332Y-60458628D01*
X39679523Y-60934819D02*
X40250951Y-60934819D01*
X39965237Y-60934819D02*
X39965237Y-59934819D01*
X39965237Y-59934819D02*
X40060475Y-60077676D01*
X40060475Y-60077676D02*
X40155713Y-60172914D01*
X40155713Y-60172914D02*
X40250951Y-60220533D01*
X39298570Y-60030057D02*
X39250951Y-59982438D01*
X39250951Y-59982438D02*
X39155713Y-59934819D01*
X39155713Y-59934819D02*
X38917618Y-59934819D01*
X38917618Y-59934819D02*
X38822380Y-59982438D01*
X38822380Y-59982438D02*
X38774761Y-60030057D01*
X38774761Y-60030057D02*
X38727142Y-60125295D01*
X38727142Y-60125295D02*
X38727142Y-60220533D01*
X38727142Y-60220533D02*
X38774761Y-60363390D01*
X38774761Y-60363390D02*
X39346189Y-60934819D01*
X39346189Y-60934819D02*
X38727142Y-60934819D01*
X59540476Y-63012295D02*
X59083333Y-63012295D01*
X59311905Y-63812295D02*
X59311905Y-63012295D01*
X58816666Y-63812295D02*
X58816666Y-63012295D01*
X58816666Y-63012295D02*
X58511904Y-63012295D01*
X58511904Y-63012295D02*
X58435714Y-63050390D01*
X58435714Y-63050390D02*
X58397619Y-63088485D01*
X58397619Y-63088485D02*
X58359523Y-63164676D01*
X58359523Y-63164676D02*
X58359523Y-63278961D01*
X58359523Y-63278961D02*
X58397619Y-63355152D01*
X58397619Y-63355152D02*
X58435714Y-63393247D01*
X58435714Y-63393247D02*
X58511904Y-63431342D01*
X58511904Y-63431342D02*
X58816666Y-63431342D01*
X57597619Y-63812295D02*
X58054762Y-63812295D01*
X57826190Y-63812295D02*
X57826190Y-63012295D01*
X57826190Y-63012295D02*
X57902381Y-63126580D01*
X57902381Y-63126580D02*
X57978571Y-63202771D01*
X57978571Y-63202771D02*
X58054762Y-63240866D01*
X57102380Y-63012295D02*
X57026190Y-63012295D01*
X57026190Y-63012295D02*
X56949999Y-63050390D01*
X56949999Y-63050390D02*
X56911904Y-63088485D01*
X56911904Y-63088485D02*
X56873809Y-63164676D01*
X56873809Y-63164676D02*
X56835714Y-63317057D01*
X56835714Y-63317057D02*
X56835714Y-63507533D01*
X56835714Y-63507533D02*
X56873809Y-63659914D01*
X56873809Y-63659914D02*
X56911904Y-63736104D01*
X56911904Y-63736104D02*
X56949999Y-63774200D01*
X56949999Y-63774200D02*
X57026190Y-63812295D01*
X57026190Y-63812295D02*
X57102380Y-63812295D01*
X57102380Y-63812295D02*
X57178571Y-63774200D01*
X57178571Y-63774200D02*
X57216666Y-63736104D01*
X57216666Y-63736104D02*
X57254761Y-63659914D01*
X57254761Y-63659914D02*
X57292857Y-63507533D01*
X57292857Y-63507533D02*
X57292857Y-63317057D01*
X57292857Y-63317057D02*
X57254761Y-63164676D01*
X57254761Y-63164676D02*
X57216666Y-63088485D01*
X57216666Y-63088485D02*
X57178571Y-63050390D01*
X57178571Y-63050390D02*
X57102380Y-63012295D01*
X73159523Y-69802295D02*
X72702380Y-69802295D01*
X72930952Y-70602295D02*
X72930952Y-69802295D01*
X72435713Y-70602295D02*
X72435713Y-69802295D01*
X72435713Y-69802295D02*
X72130951Y-69802295D01*
X72130951Y-69802295D02*
X72054761Y-69840390D01*
X72054761Y-69840390D02*
X72016666Y-69878485D01*
X72016666Y-69878485D02*
X71978570Y-69954676D01*
X71978570Y-69954676D02*
X71978570Y-70068961D01*
X71978570Y-70068961D02*
X72016666Y-70145152D01*
X72016666Y-70145152D02*
X72054761Y-70183247D01*
X72054761Y-70183247D02*
X72130951Y-70221342D01*
X72130951Y-70221342D02*
X72435713Y-70221342D01*
X71292856Y-70068961D02*
X71292856Y-70602295D01*
X71483332Y-69764200D02*
X71673809Y-70335628D01*
X71673809Y-70335628D02*
X71178570Y-70335628D01*
X60840476Y-64812295D02*
X60383333Y-64812295D01*
X60611905Y-65612295D02*
X60611905Y-64812295D01*
X60116666Y-65612295D02*
X60116666Y-64812295D01*
X60116666Y-64812295D02*
X59811904Y-64812295D01*
X59811904Y-64812295D02*
X59735714Y-64850390D01*
X59735714Y-64850390D02*
X59697619Y-64888485D01*
X59697619Y-64888485D02*
X59659523Y-64964676D01*
X59659523Y-64964676D02*
X59659523Y-65078961D01*
X59659523Y-65078961D02*
X59697619Y-65155152D01*
X59697619Y-65155152D02*
X59735714Y-65193247D01*
X59735714Y-65193247D02*
X59811904Y-65231342D01*
X59811904Y-65231342D02*
X60116666Y-65231342D01*
X58897619Y-65612295D02*
X59354762Y-65612295D01*
X59126190Y-65612295D02*
X59126190Y-64812295D01*
X59126190Y-64812295D02*
X59202381Y-64926580D01*
X59202381Y-64926580D02*
X59278571Y-65002771D01*
X59278571Y-65002771D02*
X59354762Y-65040866D01*
X58630952Y-64812295D02*
X58135714Y-64812295D01*
X58135714Y-64812295D02*
X58402380Y-65117057D01*
X58402380Y-65117057D02*
X58288095Y-65117057D01*
X58288095Y-65117057D02*
X58211904Y-65155152D01*
X58211904Y-65155152D02*
X58173809Y-65193247D01*
X58173809Y-65193247D02*
X58135714Y-65269438D01*
X58135714Y-65269438D02*
X58135714Y-65459914D01*
X58135714Y-65459914D02*
X58173809Y-65536104D01*
X58173809Y-65536104D02*
X58211904Y-65574200D01*
X58211904Y-65574200D02*
X58288095Y-65612295D01*
X58288095Y-65612295D02*
X58516666Y-65612295D01*
X58516666Y-65612295D02*
X58592857Y-65574200D01*
X58592857Y-65574200D02*
X58630952Y-65536104D01*
X75620476Y-70062295D02*
X75163333Y-70062295D01*
X75391905Y-70862295D02*
X75391905Y-70062295D01*
X74896666Y-70862295D02*
X74896666Y-70062295D01*
X74896666Y-70062295D02*
X74591904Y-70062295D01*
X74591904Y-70062295D02*
X74515714Y-70100390D01*
X74515714Y-70100390D02*
X74477619Y-70138485D01*
X74477619Y-70138485D02*
X74439523Y-70214676D01*
X74439523Y-70214676D02*
X74439523Y-70328961D01*
X74439523Y-70328961D02*
X74477619Y-70405152D01*
X74477619Y-70405152D02*
X74515714Y-70443247D01*
X74515714Y-70443247D02*
X74591904Y-70481342D01*
X74591904Y-70481342D02*
X74896666Y-70481342D01*
X73677619Y-70862295D02*
X74134762Y-70862295D01*
X73906190Y-70862295D02*
X73906190Y-70062295D01*
X73906190Y-70062295D02*
X73982381Y-70176580D01*
X73982381Y-70176580D02*
X74058571Y-70252771D01*
X74058571Y-70252771D02*
X74134762Y-70290866D01*
X72915714Y-70862295D02*
X73372857Y-70862295D01*
X73144285Y-70862295D02*
X73144285Y-70062295D01*
X73144285Y-70062295D02*
X73220476Y-70176580D01*
X73220476Y-70176580D02*
X73296666Y-70252771D01*
X73296666Y-70252771D02*
X73372857Y-70290866D01*
X52138094Y-76904819D02*
X51566666Y-76904819D01*
X51852380Y-77904819D02*
X51852380Y-76904819D01*
X51233332Y-77904819D02*
X51233332Y-76904819D01*
X51233332Y-76904819D02*
X50852380Y-76904819D01*
X50852380Y-76904819D02*
X50757142Y-76952438D01*
X50757142Y-76952438D02*
X50709523Y-77000057D01*
X50709523Y-77000057D02*
X50661904Y-77095295D01*
X50661904Y-77095295D02*
X50661904Y-77238152D01*
X50661904Y-77238152D02*
X50709523Y-77333390D01*
X50709523Y-77333390D02*
X50757142Y-77381009D01*
X50757142Y-77381009D02*
X50852380Y-77428628D01*
X50852380Y-77428628D02*
X51233332Y-77428628D01*
X49709523Y-77904819D02*
X50280951Y-77904819D01*
X49995237Y-77904819D02*
X49995237Y-76904819D01*
X49995237Y-76904819D02*
X50090475Y-77047676D01*
X50090475Y-77047676D02*
X50185713Y-77142914D01*
X50185713Y-77142914D02*
X50280951Y-77190533D01*
X48804761Y-76904819D02*
X49280951Y-76904819D01*
X49280951Y-76904819D02*
X49328570Y-77381009D01*
X49328570Y-77381009D02*
X49280951Y-77333390D01*
X49280951Y-77333390D02*
X49185713Y-77285771D01*
X49185713Y-77285771D02*
X48947618Y-77285771D01*
X48947618Y-77285771D02*
X48852380Y-77333390D01*
X48852380Y-77333390D02*
X48804761Y-77381009D01*
X48804761Y-77381009D02*
X48757142Y-77476247D01*
X48757142Y-77476247D02*
X48757142Y-77714342D01*
X48757142Y-77714342D02*
X48804761Y-77809580D01*
X48804761Y-77809580D02*
X48852380Y-77857200D01*
X48852380Y-77857200D02*
X48947618Y-77904819D01*
X48947618Y-77904819D02*
X49185713Y-77904819D01*
X49185713Y-77904819D02*
X49280951Y-77857200D01*
X49280951Y-77857200D02*
X49328570Y-77809580D01*
D10*
%TO.C,TP9*%
X58400000Y-67000000D02*
G75*
G02*
X57000000Y-67000000I-700000J0D01*
G01*
X57000000Y-67000000D02*
G75*
G02*
X58400000Y-67000000I700000J0D01*
G01*
%TO.C,TP14*%
X52900000Y-65050000D02*
G75*
G02*
X51500000Y-65050000I-700000J0D01*
G01*
X51500000Y-65050000D02*
G75*
G02*
X52900000Y-65050000I700000J0D01*
G01*
%TO.C,TP8*%
X43910000Y-68110000D02*
X42210000Y-68110000D01*
X42210000Y-69810000D01*
X43910000Y-69810000D01*
X43910000Y-68110000D01*
D13*
%TO.C,TP12*%
X41070000Y-58680000D02*
G75*
G02*
X39670000Y-58680000I-700000J0D01*
G01*
X39670000Y-58680000D02*
G75*
G02*
X41070000Y-58680000I700000J0D01*
G01*
D10*
%TO.C,TP10*%
X56600000Y-62950000D02*
G75*
G02*
X55200000Y-62950000I-700000J0D01*
G01*
X55200000Y-62950000D02*
G75*
G02*
X56600000Y-62950000I700000J0D01*
G01*
%TO.C,TP4*%
X72850000Y-68490000D02*
G75*
G02*
X71450000Y-68490000I-700000J0D01*
G01*
X71450000Y-68490000D02*
G75*
G02*
X72850000Y-68490000I700000J0D01*
G01*
%TO.C,TP13*%
X57450000Y-64950000D02*
G75*
G02*
X56050000Y-64950000I-700000J0D01*
G01*
X56050000Y-64950000D02*
G75*
G02*
X57450000Y-64950000I700000J0D01*
G01*
%TO.C,TP11*%
X74930000Y-68850000D02*
G75*
G02*
X73530000Y-68850000I-700000J0D01*
G01*
X73530000Y-68850000D02*
G75*
G02*
X74930000Y-68850000I700000J0D01*
G01*
D13*
%TO.C,TP15*%
X51400000Y-75600000D02*
G75*
G02*
X50000000Y-75600000I-700000J0D01*
G01*
X50000000Y-75600000D02*
G75*
G02*
X51400000Y-75600000I700000J0D01*
G01*
%TD*%
M02*
