%TF.GenerationSoftware,KiCad,Pcbnew,9.0.7*%
%TF.CreationDate,2026-02-10T02:00:55+07:00*%
%TF.ProjectId,tag-rounded,7461672d-726f-4756-9e64-65642e6b6963,rev?*%
%TF.SameCoordinates,Original*%
%TF.FileFunction,Legend,Top*%
%TF.FilePolarity,Positive*%
%FSLAX46Y46*%
G04 Gerber Fmt 4.6, Leading zero omitted, Abs format (unit mm)*
G04 Created by KiCad (PCBNEW 9.0.7) date 2026-02-10 02:00:55*
%MOMM*%
%LPD*%
G01*
G04 APERTURE LIST*
%ADD10C,0.120000*%
%ADD11C,0.005999*%
%ADD12C,0.150000*%
%ADD13C,0.350000*%
%ADD14C,0.200000*%
%ADD15C,0.127000*%
%ADD16C,0.000000*%
G04 APERTURE END LIST*
D10*
X75398760Y-88175814D02*
X75422569Y-88104386D01*
X75422569Y-88104386D02*
X75422569Y-87985338D01*
X75422569Y-87985338D02*
X75398760Y-87937719D01*
X75398760Y-87937719D02*
X75374950Y-87913910D01*
X75374950Y-87913910D02*
X75327331Y-87890100D01*
X75327331Y-87890100D02*
X75279712Y-87890100D01*
X75279712Y-87890100D02*
X75232093Y-87913910D01*
X75232093Y-87913910D02*
X75208283Y-87937719D01*
X75208283Y-87937719D02*
X75184474Y-87985338D01*
X75184474Y-87985338D02*
X75160664Y-88080576D01*
X75160664Y-88080576D02*
X75136855Y-88128195D01*
X75136855Y-88128195D02*
X75113045Y-88152005D01*
X75113045Y-88152005D02*
X75065426Y-88175814D01*
X75065426Y-88175814D02*
X75017807Y-88175814D01*
X75017807Y-88175814D02*
X74970188Y-88152005D01*
X74970188Y-88152005D02*
X74946379Y-88128195D01*
X74946379Y-88128195D02*
X74922569Y-88080576D01*
X74922569Y-88080576D02*
X74922569Y-87961529D01*
X74922569Y-87961529D02*
X74946379Y-87890100D01*
X75422569Y-87675815D02*
X74922569Y-87675815D01*
X74922569Y-87675815D02*
X74922569Y-87556767D01*
X74922569Y-87556767D02*
X74946379Y-87485339D01*
X74946379Y-87485339D02*
X74993998Y-87437720D01*
X74993998Y-87437720D02*
X75041617Y-87413910D01*
X75041617Y-87413910D02*
X75136855Y-87390101D01*
X75136855Y-87390101D02*
X75208283Y-87390101D01*
X75208283Y-87390101D02*
X75303521Y-87413910D01*
X75303521Y-87413910D02*
X75351140Y-87437720D01*
X75351140Y-87437720D02*
X75398760Y-87485339D01*
X75398760Y-87485339D02*
X75422569Y-87556767D01*
X75422569Y-87556767D02*
X75422569Y-87675815D01*
X75279712Y-87199624D02*
X75279712Y-86961529D01*
X75422569Y-87247243D02*
X74922569Y-87080577D01*
X74922569Y-87080577D02*
X75422569Y-86913910D01*
X75398760Y-86390101D02*
X75422569Y-86318673D01*
X75422569Y-86318673D02*
X75422569Y-86199625D01*
X75422569Y-86199625D02*
X75398760Y-86152006D01*
X75398760Y-86152006D02*
X75374950Y-86128197D01*
X75374950Y-86128197D02*
X75327331Y-86104387D01*
X75327331Y-86104387D02*
X75279712Y-86104387D01*
X75279712Y-86104387D02*
X75232093Y-86128197D01*
X75232093Y-86128197D02*
X75208283Y-86152006D01*
X75208283Y-86152006D02*
X75184474Y-86199625D01*
X75184474Y-86199625D02*
X75160664Y-86294863D01*
X75160664Y-86294863D02*
X75136855Y-86342482D01*
X75136855Y-86342482D02*
X75113045Y-86366292D01*
X75113045Y-86366292D02*
X75065426Y-86390101D01*
X75065426Y-86390101D02*
X75017807Y-86390101D01*
X75017807Y-86390101D02*
X74970188Y-86366292D01*
X74970188Y-86366292D02*
X74946379Y-86342482D01*
X74946379Y-86342482D02*
X74922569Y-86294863D01*
X74922569Y-86294863D02*
X74922569Y-86175816D01*
X74922569Y-86175816D02*
X74946379Y-86104387D01*
X75374950Y-85604388D02*
X75398760Y-85628197D01*
X75398760Y-85628197D02*
X75422569Y-85699626D01*
X75422569Y-85699626D02*
X75422569Y-85747245D01*
X75422569Y-85747245D02*
X75398760Y-85818673D01*
X75398760Y-85818673D02*
X75351140Y-85866292D01*
X75351140Y-85866292D02*
X75303521Y-85890102D01*
X75303521Y-85890102D02*
X75208283Y-85913911D01*
X75208283Y-85913911D02*
X75136855Y-85913911D01*
X75136855Y-85913911D02*
X75041617Y-85890102D01*
X75041617Y-85890102D02*
X74993998Y-85866292D01*
X74993998Y-85866292D02*
X74946379Y-85818673D01*
X74946379Y-85818673D02*
X74922569Y-85747245D01*
X74922569Y-85747245D02*
X74922569Y-85699626D01*
X74922569Y-85699626D02*
X74946379Y-85628197D01*
X74946379Y-85628197D02*
X74970188Y-85604388D01*
X75422569Y-85152007D02*
X75422569Y-85390102D01*
X75422569Y-85390102D02*
X74922569Y-85390102D01*
X74946379Y-84342483D02*
X74922569Y-84390102D01*
X74922569Y-84390102D02*
X74922569Y-84461531D01*
X74922569Y-84461531D02*
X74946379Y-84532959D01*
X74946379Y-84532959D02*
X74993998Y-84580578D01*
X74993998Y-84580578D02*
X75041617Y-84604388D01*
X75041617Y-84604388D02*
X75136855Y-84628197D01*
X75136855Y-84628197D02*
X75208283Y-84628197D01*
X75208283Y-84628197D02*
X75303521Y-84604388D01*
X75303521Y-84604388D02*
X75351140Y-84580578D01*
X75351140Y-84580578D02*
X75398760Y-84532959D01*
X75398760Y-84532959D02*
X75422569Y-84461531D01*
X75422569Y-84461531D02*
X75422569Y-84413912D01*
X75422569Y-84413912D02*
X75398760Y-84342483D01*
X75398760Y-84342483D02*
X75374950Y-84318674D01*
X75374950Y-84318674D02*
X75208283Y-84318674D01*
X75208283Y-84318674D02*
X75208283Y-84413912D01*
X75422569Y-84104388D02*
X74922569Y-84104388D01*
X74922569Y-84104388D02*
X75422569Y-83818674D01*
X75422569Y-83818674D02*
X74922569Y-83818674D01*
X75422569Y-83580578D02*
X74922569Y-83580578D01*
X74922569Y-83580578D02*
X74922569Y-83461530D01*
X74922569Y-83461530D02*
X74946379Y-83390102D01*
X74946379Y-83390102D02*
X74993998Y-83342483D01*
X74993998Y-83342483D02*
X75041617Y-83318673D01*
X75041617Y-83318673D02*
X75136855Y-83294864D01*
X75136855Y-83294864D02*
X75208283Y-83294864D01*
X75208283Y-83294864D02*
X75303521Y-83318673D01*
X75303521Y-83318673D02*
X75351140Y-83342483D01*
X75351140Y-83342483D02*
X75398760Y-83390102D01*
X75398760Y-83390102D02*
X75422569Y-83461530D01*
X75422569Y-83461530D02*
X75422569Y-83580578D01*
X74922569Y-82747245D02*
X74922569Y-82437721D01*
X74922569Y-82437721D02*
X75113045Y-82604388D01*
X75113045Y-82604388D02*
X75113045Y-82532959D01*
X75113045Y-82532959D02*
X75136855Y-82485340D01*
X75136855Y-82485340D02*
X75160664Y-82461531D01*
X75160664Y-82461531D02*
X75208283Y-82437721D01*
X75208283Y-82437721D02*
X75327331Y-82437721D01*
X75327331Y-82437721D02*
X75374950Y-82461531D01*
X75374950Y-82461531D02*
X75398760Y-82485340D01*
X75398760Y-82485340D02*
X75422569Y-82532959D01*
X75422569Y-82532959D02*
X75422569Y-82675816D01*
X75422569Y-82675816D02*
X75398760Y-82723435D01*
X75398760Y-82723435D02*
X75374950Y-82747245D01*
X74922569Y-82294864D02*
X75422569Y-82128198D01*
X75422569Y-82128198D02*
X74922569Y-81961531D01*
X74922569Y-81842484D02*
X74922569Y-81532960D01*
X74922569Y-81532960D02*
X75113045Y-81699627D01*
X75113045Y-81699627D02*
X75113045Y-81628198D01*
X75113045Y-81628198D02*
X75136855Y-81580579D01*
X75136855Y-81580579D02*
X75160664Y-81556770D01*
X75160664Y-81556770D02*
X75208283Y-81532960D01*
X75208283Y-81532960D02*
X75327331Y-81532960D01*
X75327331Y-81532960D02*
X75374950Y-81556770D01*
X75374950Y-81556770D02*
X75398760Y-81580579D01*
X75398760Y-81580579D02*
X75422569Y-81628198D01*
X75422569Y-81628198D02*
X75422569Y-81771055D01*
X75422569Y-81771055D02*
X75398760Y-81818674D01*
X75398760Y-81818674D02*
X75374950Y-81842484D01*
D11*
X77998648Y-92997542D02*
X78012500Y-93019982D01*
X78033741Y-93055559D01*
X78061646Y-93102722D01*
X78095246Y-93159961D01*
X78133707Y-93225783D01*
X78176123Y-93298682D01*
X78221662Y-93377161D01*
X78269425Y-93459600D01*
X78318561Y-93544620D01*
X78368183Y-93630661D01*
X78417383Y-93716162D01*
X78465384Y-93799622D01*
X78511225Y-93879602D01*
X78554062Y-93954543D01*
X78593000Y-94022882D01*
X78627268Y-94083179D01*
X78655823Y-94133940D01*
X78677961Y-94173541D01*
X78692664Y-94200600D01*
X78699201Y-94213500D01*
X78699448Y-94214282D01*
X78691346Y-94225260D01*
X78668906Y-94242000D01*
X78634766Y-94262883D01*
X78591626Y-94286339D01*
X78546445Y-94308541D01*
X78485004Y-94335539D01*
X78420322Y-94359783D01*
X78350302Y-94381861D01*
X78272602Y-94402199D01*
X78185068Y-94421462D01*
X78085468Y-94440180D01*
X77971585Y-94458783D01*
X77853748Y-94476123D01*
X77751328Y-94491541D01*
X77665342Y-94506780D01*
X77593647Y-94522623D01*
X77534000Y-94539839D01*
X77484323Y-94559162D01*
X77442447Y-94581363D01*
X77406147Y-94607163D01*
X77373325Y-94637403D01*
X77362760Y-94648622D01*
X77339844Y-94674719D01*
X77322861Y-94696083D01*
X77315006Y-94708621D01*
X77314823Y-94709642D01*
X77312067Y-94715941D01*
X77302527Y-94716001D01*
X77284226Y-94709043D01*
X77255240Y-94694101D01*
X77213602Y-94670462D01*
X77184680Y-94653420D01*
X77141605Y-94626782D01*
X77108060Y-94604041D01*
X77086463Y-94586701D01*
X77078900Y-94576502D01*
X77078900Y-94576442D01*
X77083588Y-94566660D01*
X77096781Y-94542302D01*
X77117728Y-94504619D01*
X77145688Y-94454943D01*
X77179828Y-94394582D01*
X77219425Y-94324860D01*
X77263764Y-94247223D01*
X77312003Y-94162862D01*
X77363364Y-94073163D01*
X77417188Y-93979441D01*
X77472568Y-93883022D01*
X77528846Y-93785280D01*
X77585242Y-93687479D01*
X77640979Y-93591001D01*
X77695224Y-93497159D01*
X77747300Y-93407222D01*
X77796445Y-93322623D01*
X77841800Y-93244620D01*
X77882724Y-93174541D01*
X77918366Y-93113759D01*
X77947946Y-93063602D01*
X77970743Y-93025383D01*
X77985987Y-93000362D01*
X77992881Y-92989980D01*
X77993183Y-92989742D01*
X77998648Y-92997542D01*
G36*
X77998648Y-92997542D02*
G01*
X78012500Y-93019982D01*
X78033741Y-93055559D01*
X78061646Y-93102722D01*
X78095246Y-93159961D01*
X78133707Y-93225783D01*
X78176123Y-93298682D01*
X78221662Y-93377161D01*
X78269425Y-93459600D01*
X78318561Y-93544620D01*
X78368183Y-93630661D01*
X78417383Y-93716162D01*
X78465384Y-93799622D01*
X78511225Y-93879602D01*
X78554062Y-93954543D01*
X78593000Y-94022882D01*
X78627268Y-94083179D01*
X78655823Y-94133940D01*
X78677961Y-94173541D01*
X78692664Y-94200600D01*
X78699201Y-94213500D01*
X78699448Y-94214282D01*
X78691346Y-94225260D01*
X78668906Y-94242000D01*
X78634766Y-94262883D01*
X78591626Y-94286339D01*
X78546445Y-94308541D01*
X78485004Y-94335539D01*
X78420322Y-94359783D01*
X78350302Y-94381861D01*
X78272602Y-94402199D01*
X78185068Y-94421462D01*
X78085468Y-94440180D01*
X77971585Y-94458783D01*
X77853748Y-94476123D01*
X77751328Y-94491541D01*
X77665342Y-94506780D01*
X77593647Y-94522623D01*
X77534000Y-94539839D01*
X77484323Y-94559162D01*
X77442447Y-94581363D01*
X77406147Y-94607163D01*
X77373325Y-94637403D01*
X77362760Y-94648622D01*
X77339844Y-94674719D01*
X77322861Y-94696083D01*
X77315006Y-94708621D01*
X77314823Y-94709642D01*
X77312067Y-94715941D01*
X77302527Y-94716001D01*
X77284226Y-94709043D01*
X77255240Y-94694101D01*
X77213602Y-94670462D01*
X77184680Y-94653420D01*
X77141605Y-94626782D01*
X77108060Y-94604041D01*
X77086463Y-94586701D01*
X77078900Y-94576502D01*
X77078900Y-94576442D01*
X77083588Y-94566660D01*
X77096781Y-94542302D01*
X77117728Y-94504619D01*
X77145688Y-94454943D01*
X77179828Y-94394582D01*
X77219425Y-94324860D01*
X77263764Y-94247223D01*
X77312003Y-94162862D01*
X77363364Y-94073163D01*
X77417188Y-93979441D01*
X77472568Y-93883022D01*
X77528846Y-93785280D01*
X77585242Y-93687479D01*
X77640979Y-93591001D01*
X77695224Y-93497159D01*
X77747300Y-93407222D01*
X77796445Y-93322623D01*
X77841800Y-93244620D01*
X77882724Y-93174541D01*
X77918366Y-93113759D01*
X77947946Y-93063602D01*
X77970743Y-93025383D01*
X77985987Y-93000362D01*
X77992881Y-92989980D01*
X77993183Y-92989742D01*
X77998648Y-92997542D01*
G37*
X76893506Y-94920781D02*
X76913007Y-94928279D01*
X76942762Y-94943280D01*
X76985480Y-94966800D01*
X76988785Y-94968663D01*
X77028144Y-94991162D01*
X77061322Y-95010842D01*
X77085144Y-95025783D01*
X77096241Y-95033940D01*
X77096543Y-95034361D01*
X77093842Y-95045700D01*
X77081546Y-95071019D01*
X77060361Y-95108940D01*
X77031147Y-95158141D01*
X76994663Y-95217119D01*
X76951761Y-95284621D01*
X76941086Y-95301183D01*
X76913300Y-95347083D01*
X76893021Y-95386620D01*
X76882163Y-95416141D01*
X76881028Y-95421959D01*
X76881504Y-95447640D01*
X76887088Y-95488381D01*
X76897040Y-95541541D01*
X76910663Y-95604602D01*
X76927280Y-95674800D01*
X76946186Y-95749622D01*
X76966703Y-95826421D01*
X76988126Y-95902620D01*
X77009723Y-95975583D01*
X77030899Y-96042719D01*
X77050885Y-96101340D01*
X77068940Y-96148920D01*
X77081601Y-96177123D01*
X77096424Y-96207179D01*
X77110468Y-96235982D01*
X77111246Y-96237543D01*
X77134464Y-96266579D01*
X77168366Y-96286139D01*
X77207788Y-96295560D01*
X77247742Y-96293999D01*
X77282962Y-96280921D01*
X77302820Y-96263700D01*
X77331385Y-96216422D01*
X77352268Y-96157503D01*
X77363785Y-96092940D01*
X77365406Y-96056342D01*
X77358860Y-95988002D01*
X77339606Y-95931482D01*
X77306665Y-95883902D01*
X77296402Y-95873282D01*
X77265860Y-95843582D01*
X77263764Y-95633702D01*
X77261667Y-95423763D01*
X77315125Y-95342761D01*
X77340265Y-95306099D01*
X77364380Y-95273163D01*
X77384183Y-95248439D01*
X77392707Y-95239380D01*
X77416822Y-95216941D01*
X77449460Y-95234523D01*
X77470041Y-95247121D01*
X77481321Y-95256903D01*
X77482044Y-95258643D01*
X77489780Y-95266081D01*
X77502982Y-95271662D01*
X77515708Y-95276642D01*
X77535263Y-95286122D01*
X77563224Y-95301059D01*
X77601328Y-95322359D01*
X77651242Y-95350919D01*
X77714661Y-95387700D01*
X77749103Y-95407801D01*
X77789606Y-95431920D01*
X77816184Y-95449082D01*
X77831180Y-95461263D01*
X77836884Y-95470619D01*
X77835739Y-95478960D01*
X77834787Y-95480942D01*
X77825486Y-95493242D01*
X77805500Y-95516281D01*
X77777301Y-95547483D01*
X77743042Y-95584319D01*
X77713462Y-95615520D01*
X77645246Y-95689623D01*
X77591907Y-95753819D01*
X77552906Y-95808783D01*
X77527820Y-95855219D01*
X77519361Y-95878803D01*
X77515882Y-95899379D01*
X77512284Y-95934600D01*
X77508860Y-95980321D01*
X77505985Y-96032579D01*
X77504602Y-96065639D01*
X77502744Y-96122763D01*
X77501902Y-96164520D01*
X77502387Y-96194101D01*
X77504364Y-96214801D01*
X77508200Y-96229683D01*
X77514087Y-96242102D01*
X77518701Y-96249719D01*
X77545288Y-96278879D01*
X77579602Y-96299222D01*
X77615665Y-96308103D01*
X77642728Y-96304921D01*
X77667200Y-96291001D01*
X77697861Y-96266162D01*
X77730445Y-96234600D01*
X77760685Y-96200762D01*
X77784140Y-96168961D01*
X77792783Y-96153603D01*
X77805747Y-96132541D01*
X77829322Y-96100502D01*
X77861301Y-96059940D01*
X77899643Y-96013381D01*
X77942060Y-95963342D01*
X77986527Y-95912279D01*
X78030802Y-95862781D01*
X78072806Y-95817243D01*
X78110361Y-95778301D01*
X78139823Y-95749681D01*
X78172525Y-95721062D01*
X78200000Y-95700000D01*
X78219327Y-95688602D01*
X78225745Y-95687403D01*
X78235587Y-95692443D01*
X78260068Y-95705942D01*
X78297806Y-95727182D01*
X78347364Y-95755321D01*
X78407422Y-95789461D01*
X78476480Y-95828819D01*
X78553101Y-95872682D01*
X78635965Y-95920139D01*
X78723563Y-95970360D01*
X78814585Y-96022623D01*
X78907520Y-96076081D01*
X79001004Y-96129840D01*
X79093582Y-96183179D01*
X79183945Y-96235323D01*
X79270581Y-96285301D01*
X79352063Y-96332460D01*
X79427063Y-96375842D01*
X79494080Y-96414780D01*
X79551804Y-96448380D01*
X79598725Y-96475800D01*
X79633460Y-96496321D01*
X79654581Y-96509043D01*
X79660761Y-96513062D01*
X79652484Y-96513840D01*
X79626502Y-96514623D01*
X79583664Y-96515341D01*
X79524860Y-96516060D01*
X79450885Y-96516719D01*
X79362683Y-96517383D01*
X79261106Y-96517983D01*
X79146921Y-96518523D01*
X79021164Y-96519063D01*
X78884540Y-96519480D01*
X78737964Y-96519901D01*
X78582379Y-96520262D01*
X78418528Y-96520500D01*
X78247406Y-96520743D01*
X78069748Y-96520862D01*
X77886505Y-96520981D01*
X77809583Y-96520981D01*
X75949643Y-96520981D01*
X76082303Y-96290941D01*
X76110382Y-96242281D01*
X76146500Y-96179581D01*
X76189521Y-96104943D01*
X76238181Y-96020522D01*
X76291281Y-95928360D01*
X76347568Y-95830623D01*
X76405942Y-95729343D01*
X76465103Y-95626621D01*
X76523908Y-95524562D01*
X76538721Y-95498763D01*
X76592966Y-95404802D01*
X76644620Y-95315341D01*
X76692987Y-95231822D01*
X76737326Y-95155499D01*
X76776804Y-95087700D01*
X76810642Y-95029862D01*
X76838126Y-94983179D01*
X76858405Y-94949039D01*
X76870764Y-94928819D01*
X76874243Y-94923660D01*
X76881504Y-94919582D01*
X76893506Y-94920781D01*
G36*
X76893506Y-94920781D02*
G01*
X76913007Y-94928279D01*
X76942762Y-94943280D01*
X76985480Y-94966800D01*
X76988785Y-94968663D01*
X77028144Y-94991162D01*
X77061322Y-95010842D01*
X77085144Y-95025783D01*
X77096241Y-95033940D01*
X77096543Y-95034361D01*
X77093842Y-95045700D01*
X77081546Y-95071019D01*
X77060361Y-95108940D01*
X77031147Y-95158141D01*
X76994663Y-95217119D01*
X76951761Y-95284621D01*
X76941086Y-95301183D01*
X76913300Y-95347083D01*
X76893021Y-95386620D01*
X76882163Y-95416141D01*
X76881028Y-95421959D01*
X76881504Y-95447640D01*
X76887088Y-95488381D01*
X76897040Y-95541541D01*
X76910663Y-95604602D01*
X76927280Y-95674800D01*
X76946186Y-95749622D01*
X76966703Y-95826421D01*
X76988126Y-95902620D01*
X77009723Y-95975583D01*
X77030899Y-96042719D01*
X77050885Y-96101340D01*
X77068940Y-96148920D01*
X77081601Y-96177123D01*
X77096424Y-96207179D01*
X77110468Y-96235982D01*
X77111246Y-96237543D01*
X77134464Y-96266579D01*
X77168366Y-96286139D01*
X77207788Y-96295560D01*
X77247742Y-96293999D01*
X77282962Y-96280921D01*
X77302820Y-96263700D01*
X77331385Y-96216422D01*
X77352268Y-96157503D01*
X77363785Y-96092940D01*
X77365406Y-96056342D01*
X77358860Y-95988002D01*
X77339606Y-95931482D01*
X77306665Y-95883902D01*
X77296402Y-95873282D01*
X77265860Y-95843582D01*
X77263764Y-95633702D01*
X77261667Y-95423763D01*
X77315125Y-95342761D01*
X77340265Y-95306099D01*
X77364380Y-95273163D01*
X77384183Y-95248439D01*
X77392707Y-95239380D01*
X77416822Y-95216941D01*
X77449460Y-95234523D01*
X77470041Y-95247121D01*
X77481321Y-95256903D01*
X77482044Y-95258643D01*
X77489780Y-95266081D01*
X77502982Y-95271662D01*
X77515708Y-95276642D01*
X77535263Y-95286122D01*
X77563224Y-95301059D01*
X77601328Y-95322359D01*
X77651242Y-95350919D01*
X77714661Y-95387700D01*
X77749103Y-95407801D01*
X77789606Y-95431920D01*
X77816184Y-95449082D01*
X77831180Y-95461263D01*
X77836884Y-95470619D01*
X77835739Y-95478960D01*
X77834787Y-95480942D01*
X77825486Y-95493242D01*
X77805500Y-95516281D01*
X77777301Y-95547483D01*
X77743042Y-95584319D01*
X77713462Y-95615520D01*
X77645246Y-95689623D01*
X77591907Y-95753819D01*
X77552906Y-95808783D01*
X77527820Y-95855219D01*
X77519361Y-95878803D01*
X77515882Y-95899379D01*
X77512284Y-95934600D01*
X77508860Y-95980321D01*
X77505985Y-96032579D01*
X77504602Y-96065639D01*
X77502744Y-96122763D01*
X77501902Y-96164520D01*
X77502387Y-96194101D01*
X77504364Y-96214801D01*
X77508200Y-96229683D01*
X77514087Y-96242102D01*
X77518701Y-96249719D01*
X77545288Y-96278879D01*
X77579602Y-96299222D01*
X77615665Y-96308103D01*
X77642728Y-96304921D01*
X77667200Y-96291001D01*
X77697861Y-96266162D01*
X77730445Y-96234600D01*
X77760685Y-96200762D01*
X77784140Y-96168961D01*
X77792783Y-96153603D01*
X77805747Y-96132541D01*
X77829322Y-96100502D01*
X77861301Y-96059940D01*
X77899643Y-96013381D01*
X77942060Y-95963342D01*
X77986527Y-95912279D01*
X78030802Y-95862781D01*
X78072806Y-95817243D01*
X78110361Y-95778301D01*
X78139823Y-95749681D01*
X78172525Y-95721062D01*
X78200000Y-95700000D01*
X78219327Y-95688602D01*
X78225745Y-95687403D01*
X78235587Y-95692443D01*
X78260068Y-95705942D01*
X78297806Y-95727182D01*
X78347364Y-95755321D01*
X78407422Y-95789461D01*
X78476480Y-95828819D01*
X78553101Y-95872682D01*
X78635965Y-95920139D01*
X78723563Y-95970360D01*
X78814585Y-96022623D01*
X78907520Y-96076081D01*
X79001004Y-96129840D01*
X79093582Y-96183179D01*
X79183945Y-96235323D01*
X79270581Y-96285301D01*
X79352063Y-96332460D01*
X79427063Y-96375842D01*
X79494080Y-96414780D01*
X79551804Y-96448380D01*
X79598725Y-96475800D01*
X79633460Y-96496321D01*
X79654581Y-96509043D01*
X79660761Y-96513062D01*
X79652484Y-96513840D01*
X79626502Y-96514623D01*
X79583664Y-96515341D01*
X79524860Y-96516060D01*
X79450885Y-96516719D01*
X79362683Y-96517383D01*
X79261106Y-96517983D01*
X79146921Y-96518523D01*
X79021164Y-96519063D01*
X78884540Y-96519480D01*
X78737964Y-96519901D01*
X78582379Y-96520262D01*
X78418528Y-96520500D01*
X78247406Y-96520743D01*
X78069748Y-96520862D01*
X77886505Y-96520981D01*
X77809583Y-96520981D01*
X75949643Y-96520981D01*
X76082303Y-96290941D01*
X76110382Y-96242281D01*
X76146500Y-96179581D01*
X76189521Y-96104943D01*
X76238181Y-96020522D01*
X76291281Y-95928360D01*
X76347568Y-95830623D01*
X76405942Y-95729343D01*
X76465103Y-95626621D01*
X76523908Y-95524562D01*
X76538721Y-95498763D01*
X76592966Y-95404802D01*
X76644620Y-95315341D01*
X76692987Y-95231822D01*
X76737326Y-95155499D01*
X76776804Y-95087700D01*
X76810642Y-95029862D01*
X76838126Y-94983179D01*
X76858405Y-94949039D01*
X76870764Y-94928819D01*
X76874243Y-94923660D01*
X76881504Y-94919582D01*
X76893506Y-94920781D01*
G37*
D12*
X57700000Y-73600000D02*
X57700000Y-57600000D01*
D11*
X79092740Y-94886820D02*
X79099588Y-94898282D01*
X79114942Y-94924503D01*
X79138040Y-94964223D01*
X79168161Y-95016120D01*
X79204526Y-95078879D01*
X79246347Y-95151183D01*
X79292902Y-95231699D01*
X79343421Y-95319182D01*
X79397180Y-95412241D01*
X79452442Y-95508060D01*
X79508902Y-95605921D01*
X79563083Y-95699881D01*
X79614261Y-95788559D01*
X79661603Y-95870581D01*
X79704322Y-95944620D01*
X79741648Y-96009302D01*
X79772785Y-96063300D01*
X79796964Y-96105181D01*
X79813407Y-96133621D01*
X79821143Y-96146942D01*
X79833741Y-96169441D01*
X79840580Y-96183541D01*
X79841001Y-96185999D01*
X79832605Y-96181380D01*
X79809388Y-96168183D01*
X79772547Y-96147061D01*
X79723227Y-96118680D01*
X79662683Y-96083821D01*
X79592124Y-96043140D01*
X79512748Y-95997299D01*
X79425800Y-95947083D01*
X79332508Y-95893140D01*
X79234043Y-95836203D01*
X79196543Y-95814482D01*
X79096347Y-95756520D01*
X79000702Y-95701200D01*
X78910880Y-95649362D01*
X78828080Y-95601599D01*
X78753565Y-95558643D01*
X78688526Y-95521262D01*
X78634226Y-95490061D01*
X78591928Y-95465822D01*
X78562760Y-95449260D01*
X78548065Y-95441039D01*
X78546500Y-95440261D01*
X78551004Y-95433179D01*
X78566605Y-95414342D01*
X78591800Y-95385420D01*
X78624860Y-95348163D01*
X78664347Y-95304300D01*
X78708567Y-95255640D01*
X78755963Y-95203803D01*
X78804862Y-95150643D01*
X78853824Y-95097780D01*
X78901102Y-95047023D01*
X78945148Y-95000102D01*
X78984388Y-94958762D01*
X79017200Y-94924681D01*
X79042047Y-94899660D01*
X79050562Y-94891503D01*
X79078760Y-94864980D01*
X79092740Y-94886820D01*
G36*
X79092740Y-94886820D02*
G01*
X79099588Y-94898282D01*
X79114942Y-94924503D01*
X79138040Y-94964223D01*
X79168161Y-95016120D01*
X79204526Y-95078879D01*
X79246347Y-95151183D01*
X79292902Y-95231699D01*
X79343421Y-95319182D01*
X79397180Y-95412241D01*
X79452442Y-95508060D01*
X79508902Y-95605921D01*
X79563083Y-95699881D01*
X79614261Y-95788559D01*
X79661603Y-95870581D01*
X79704322Y-95944620D01*
X79741648Y-96009302D01*
X79772785Y-96063300D01*
X79796964Y-96105181D01*
X79813407Y-96133621D01*
X79821143Y-96146942D01*
X79833741Y-96169441D01*
X79840580Y-96183541D01*
X79841001Y-96185999D01*
X79832605Y-96181380D01*
X79809388Y-96168183D01*
X79772547Y-96147061D01*
X79723227Y-96118680D01*
X79662683Y-96083821D01*
X79592124Y-96043140D01*
X79512748Y-95997299D01*
X79425800Y-95947083D01*
X79332508Y-95893140D01*
X79234043Y-95836203D01*
X79196543Y-95814482D01*
X79096347Y-95756520D01*
X79000702Y-95701200D01*
X78910880Y-95649362D01*
X78828080Y-95601599D01*
X78753565Y-95558643D01*
X78688526Y-95521262D01*
X78634226Y-95490061D01*
X78591928Y-95465822D01*
X78562760Y-95449260D01*
X78548065Y-95441039D01*
X78546500Y-95440261D01*
X78551004Y-95433179D01*
X78566605Y-95414342D01*
X78591800Y-95385420D01*
X78624860Y-95348163D01*
X78664347Y-95304300D01*
X78708567Y-95255640D01*
X78755963Y-95203803D01*
X78804862Y-95150643D01*
X78853824Y-95097780D01*
X78901102Y-95047023D01*
X78945148Y-95000102D01*
X78984388Y-94958762D01*
X79017200Y-94924681D01*
X79042047Y-94899660D01*
X79050562Y-94891503D01*
X79078760Y-94864980D01*
X79092740Y-94886820D01*
G37*
D13*
X55252038Y-73113546D02*
X56871085Y-73113546D01*
X56871085Y-73113546D02*
X57061561Y-73018308D01*
X57061561Y-73018308D02*
X57156800Y-72923070D01*
X57156800Y-72923070D02*
X57252038Y-72732594D01*
X57252038Y-72732594D02*
X57252038Y-72351641D01*
X57252038Y-72351641D02*
X57156800Y-72161165D01*
X57156800Y-72161165D02*
X57061561Y-72065927D01*
X57061561Y-72065927D02*
X56871085Y-71970689D01*
X56871085Y-71970689D02*
X55252038Y-71970689D01*
X55252038Y-71208784D02*
X57252038Y-70732594D01*
X57252038Y-70732594D02*
X55823466Y-70351641D01*
X55823466Y-70351641D02*
X57252038Y-69970689D01*
X57252038Y-69970689D02*
X55252038Y-69494499D01*
X56204419Y-68065927D02*
X56299657Y-67780213D01*
X56299657Y-67780213D02*
X56394895Y-67684975D01*
X56394895Y-67684975D02*
X56585371Y-67589737D01*
X56585371Y-67589737D02*
X56871085Y-67589737D01*
X56871085Y-67589737D02*
X57061561Y-67684975D01*
X57061561Y-67684975D02*
X57156800Y-67780213D01*
X57156800Y-67780213D02*
X57252038Y-67970689D01*
X57252038Y-67970689D02*
X57252038Y-68732594D01*
X57252038Y-68732594D02*
X55252038Y-68732594D01*
X55252038Y-68732594D02*
X55252038Y-68065927D01*
X55252038Y-68065927D02*
X55347276Y-67875451D01*
X55347276Y-67875451D02*
X55442514Y-67780213D01*
X55442514Y-67780213D02*
X55632990Y-67684975D01*
X55632990Y-67684975D02*
X55823466Y-67684975D01*
X55823466Y-67684975D02*
X56013942Y-67780213D01*
X56013942Y-67780213D02*
X56109180Y-67875451D01*
X56109180Y-67875451D02*
X56204419Y-68065927D01*
X56204419Y-68065927D02*
X56204419Y-68732594D01*
X56490133Y-66732594D02*
X56490133Y-65208785D01*
X57252038Y-63113547D02*
X56299657Y-63780214D01*
X57252038Y-64256404D02*
X55252038Y-64256404D01*
X55252038Y-64256404D02*
X55252038Y-63494499D01*
X55252038Y-63494499D02*
X55347276Y-63304023D01*
X55347276Y-63304023D02*
X55442514Y-63208785D01*
X55442514Y-63208785D02*
X55632990Y-63113547D01*
X55632990Y-63113547D02*
X55918704Y-63113547D01*
X55918704Y-63113547D02*
X56109180Y-63208785D01*
X56109180Y-63208785D02*
X56204419Y-63304023D01*
X56204419Y-63304023D02*
X56299657Y-63494499D01*
X56299657Y-63494499D02*
X56299657Y-64256404D01*
X55252038Y-62542118D02*
X55252038Y-61399261D01*
X57252038Y-61970690D02*
X55252038Y-61970690D01*
X57252038Y-59780213D02*
X57252038Y-60732594D01*
X57252038Y-60732594D02*
X55252038Y-60732594D01*
X57156800Y-59208784D02*
X57252038Y-58923070D01*
X57252038Y-58923070D02*
X57252038Y-58446879D01*
X57252038Y-58446879D02*
X57156800Y-58256403D01*
X57156800Y-58256403D02*
X57061561Y-58161165D01*
X57061561Y-58161165D02*
X56871085Y-58065927D01*
X56871085Y-58065927D02*
X56680609Y-58065927D01*
X56680609Y-58065927D02*
X56490133Y-58161165D01*
X56490133Y-58161165D02*
X56394895Y-58256403D01*
X56394895Y-58256403D02*
X56299657Y-58446879D01*
X56299657Y-58446879D02*
X56204419Y-58827832D01*
X56204419Y-58827832D02*
X56109180Y-59018308D01*
X56109180Y-59018308D02*
X56013942Y-59113546D01*
X56013942Y-59113546D02*
X55823466Y-59208784D01*
X55823466Y-59208784D02*
X55632990Y-59208784D01*
X55632990Y-59208784D02*
X55442514Y-59113546D01*
X55442514Y-59113546D02*
X55347276Y-59018308D01*
X55347276Y-59018308D02*
X55252038Y-58827832D01*
X55252038Y-58827832D02*
X55252038Y-58351641D01*
X55252038Y-58351641D02*
X55347276Y-58065927D01*
D10*
X36256379Y-72978943D02*
X36232569Y-73026562D01*
X36232569Y-73026562D02*
X36232569Y-73097991D01*
X36232569Y-73097991D02*
X36256379Y-73169419D01*
X36256379Y-73169419D02*
X36303998Y-73217038D01*
X36303998Y-73217038D02*
X36351617Y-73240848D01*
X36351617Y-73240848D02*
X36446855Y-73264657D01*
X36446855Y-73264657D02*
X36518283Y-73264657D01*
X36518283Y-73264657D02*
X36613521Y-73240848D01*
X36613521Y-73240848D02*
X36661140Y-73217038D01*
X36661140Y-73217038D02*
X36708760Y-73169419D01*
X36708760Y-73169419D02*
X36732569Y-73097991D01*
X36732569Y-73097991D02*
X36732569Y-73050372D01*
X36732569Y-73050372D02*
X36708760Y-72978943D01*
X36708760Y-72978943D02*
X36684950Y-72955134D01*
X36684950Y-72955134D02*
X36518283Y-72955134D01*
X36518283Y-72955134D02*
X36518283Y-73050372D01*
X36732569Y-72740848D02*
X36232569Y-72740848D01*
X36232569Y-72740848D02*
X36732569Y-72455134D01*
X36732569Y-72455134D02*
X36232569Y-72455134D01*
X36732569Y-72217038D02*
X36232569Y-72217038D01*
X36232569Y-72217038D02*
X36232569Y-72097990D01*
X36232569Y-72097990D02*
X36256379Y-72026562D01*
X36256379Y-72026562D02*
X36303998Y-71978943D01*
X36303998Y-71978943D02*
X36351617Y-71955133D01*
X36351617Y-71955133D02*
X36446855Y-71931324D01*
X36446855Y-71931324D02*
X36518283Y-71931324D01*
X36518283Y-71931324D02*
X36613521Y-71955133D01*
X36613521Y-71955133D02*
X36661140Y-71978943D01*
X36661140Y-71978943D02*
X36708760Y-72026562D01*
X36708760Y-72026562D02*
X36732569Y-72097990D01*
X36732569Y-72097990D02*
X36732569Y-72217038D01*
X36232569Y-71383705D02*
X36232569Y-71074181D01*
X36232569Y-71074181D02*
X36423045Y-71240848D01*
X36423045Y-71240848D02*
X36423045Y-71169419D01*
X36423045Y-71169419D02*
X36446855Y-71121800D01*
X36446855Y-71121800D02*
X36470664Y-71097991D01*
X36470664Y-71097991D02*
X36518283Y-71074181D01*
X36518283Y-71074181D02*
X36637331Y-71074181D01*
X36637331Y-71074181D02*
X36684950Y-71097991D01*
X36684950Y-71097991D02*
X36708760Y-71121800D01*
X36708760Y-71121800D02*
X36732569Y-71169419D01*
X36732569Y-71169419D02*
X36732569Y-71312276D01*
X36732569Y-71312276D02*
X36708760Y-71359895D01*
X36708760Y-71359895D02*
X36684950Y-71383705D01*
X36232569Y-70931324D02*
X36732569Y-70764658D01*
X36732569Y-70764658D02*
X36232569Y-70597991D01*
X36232569Y-70478944D02*
X36232569Y-70169420D01*
X36232569Y-70169420D02*
X36423045Y-70336087D01*
X36423045Y-70336087D02*
X36423045Y-70264658D01*
X36423045Y-70264658D02*
X36446855Y-70217039D01*
X36446855Y-70217039D02*
X36470664Y-70193230D01*
X36470664Y-70193230D02*
X36518283Y-70169420D01*
X36518283Y-70169420D02*
X36637331Y-70169420D01*
X36637331Y-70169420D02*
X36684950Y-70193230D01*
X36684950Y-70193230D02*
X36708760Y-70217039D01*
X36708760Y-70217039D02*
X36732569Y-70264658D01*
X36732569Y-70264658D02*
X36732569Y-70407515D01*
X36732569Y-70407515D02*
X36708760Y-70455134D01*
X36708760Y-70455134D02*
X36684950Y-70478944D01*
X36732569Y-69288469D02*
X36494474Y-69455135D01*
X36732569Y-69574183D02*
X36232569Y-69574183D01*
X36232569Y-69574183D02*
X36232569Y-69383707D01*
X36232569Y-69383707D02*
X36256379Y-69336088D01*
X36256379Y-69336088D02*
X36280188Y-69312278D01*
X36280188Y-69312278D02*
X36327807Y-69288469D01*
X36327807Y-69288469D02*
X36399236Y-69288469D01*
X36399236Y-69288469D02*
X36446855Y-69312278D01*
X36446855Y-69312278D02*
X36470664Y-69336088D01*
X36470664Y-69336088D02*
X36494474Y-69383707D01*
X36494474Y-69383707D02*
X36494474Y-69574183D01*
X36232569Y-69121802D02*
X36732569Y-68788469D01*
X36232569Y-68788469D02*
X36732569Y-69121802D01*
X36232569Y-68288469D02*
X36232569Y-68002755D01*
X36732569Y-68145612D02*
X36232569Y-68145612D01*
X36232569Y-67883708D02*
X36732569Y-67550375D01*
X36232569Y-67550375D02*
X36732569Y-67883708D01*
D14*
X58693409Y-73141993D02*
X58741028Y-72999136D01*
X58741028Y-72999136D02*
X58788647Y-72951517D01*
X58788647Y-72951517D02*
X58883885Y-72903898D01*
X58883885Y-72903898D02*
X59026742Y-72903898D01*
X59026742Y-72903898D02*
X59121980Y-72951517D01*
X59121980Y-72951517D02*
X59169600Y-72999136D01*
X59169600Y-72999136D02*
X59217219Y-73094374D01*
X59217219Y-73094374D02*
X59217219Y-73475326D01*
X59217219Y-73475326D02*
X58217219Y-73475326D01*
X58217219Y-73475326D02*
X58217219Y-73141993D01*
X58217219Y-73141993D02*
X58264838Y-73046755D01*
X58264838Y-73046755D02*
X58312457Y-72999136D01*
X58312457Y-72999136D02*
X58407695Y-72951517D01*
X58407695Y-72951517D02*
X58502933Y-72951517D01*
X58502933Y-72951517D02*
X58598171Y-72999136D01*
X58598171Y-72999136D02*
X58645790Y-73046755D01*
X58645790Y-73046755D02*
X58693409Y-73141993D01*
X58693409Y-73141993D02*
X58693409Y-73475326D01*
X58217219Y-72284850D02*
X58217219Y-72094374D01*
X58217219Y-72094374D02*
X58264838Y-71999136D01*
X58264838Y-71999136D02*
X58360076Y-71903898D01*
X58360076Y-71903898D02*
X58550552Y-71856279D01*
X58550552Y-71856279D02*
X58883885Y-71856279D01*
X58883885Y-71856279D02*
X59074361Y-71903898D01*
X59074361Y-71903898D02*
X59169600Y-71999136D01*
X59169600Y-71999136D02*
X59217219Y-72094374D01*
X59217219Y-72094374D02*
X59217219Y-72284850D01*
X59217219Y-72284850D02*
X59169600Y-72380088D01*
X59169600Y-72380088D02*
X59074361Y-72475326D01*
X59074361Y-72475326D02*
X58883885Y-72522945D01*
X58883885Y-72522945D02*
X58550552Y-72522945D01*
X58550552Y-72522945D02*
X58360076Y-72475326D01*
X58360076Y-72475326D02*
X58264838Y-72380088D01*
X58264838Y-72380088D02*
X58217219Y-72284850D01*
X58931504Y-71475326D02*
X58931504Y-70999136D01*
X59217219Y-71570564D02*
X58217219Y-71237231D01*
X58217219Y-71237231D02*
X59217219Y-70903898D01*
X59217219Y-69999136D02*
X58741028Y-70332469D01*
X59217219Y-70570564D02*
X58217219Y-70570564D01*
X58217219Y-70570564D02*
X58217219Y-70189612D01*
X58217219Y-70189612D02*
X58264838Y-70094374D01*
X58264838Y-70094374D02*
X58312457Y-70046755D01*
X58312457Y-70046755D02*
X58407695Y-69999136D01*
X58407695Y-69999136D02*
X58550552Y-69999136D01*
X58550552Y-69999136D02*
X58645790Y-70046755D01*
X58645790Y-70046755D02*
X58693409Y-70094374D01*
X58693409Y-70094374D02*
X58741028Y-70189612D01*
X58741028Y-70189612D02*
X58741028Y-70570564D01*
X59217219Y-69570564D02*
X58217219Y-69570564D01*
X58217219Y-69570564D02*
X58217219Y-69332469D01*
X58217219Y-69332469D02*
X58264838Y-69189612D01*
X58264838Y-69189612D02*
X58360076Y-69094374D01*
X58360076Y-69094374D02*
X58455314Y-69046755D01*
X58455314Y-69046755D02*
X58645790Y-68999136D01*
X58645790Y-68999136D02*
X58788647Y-68999136D01*
X58788647Y-68999136D02*
X58979123Y-69046755D01*
X58979123Y-69046755D02*
X59074361Y-69094374D01*
X59074361Y-69094374D02*
X59169600Y-69189612D01*
X59169600Y-69189612D02*
X59217219Y-69332469D01*
X59217219Y-69332469D02*
X59217219Y-69570564D01*
X59121980Y-68570564D02*
X59169600Y-68522945D01*
X59169600Y-68522945D02*
X59217219Y-68570564D01*
X59217219Y-68570564D02*
X59169600Y-68618183D01*
X59169600Y-68618183D02*
X59121980Y-68570564D01*
X59121980Y-68570564D02*
X59217219Y-68570564D01*
X58598171Y-68570564D02*
X58645790Y-68522945D01*
X58645790Y-68522945D02*
X58693409Y-68570564D01*
X58693409Y-68570564D02*
X58645790Y-68618183D01*
X58645790Y-68618183D02*
X58598171Y-68570564D01*
X58598171Y-68570564D02*
X58693409Y-68570564D01*
X58217219Y-67475326D02*
X58217219Y-66903898D01*
X59217219Y-67189612D02*
X58217219Y-67189612D01*
X58931504Y-66618183D02*
X58931504Y-66141993D01*
X59217219Y-66713421D02*
X58217219Y-66380088D01*
X58217219Y-66380088D02*
X59217219Y-66046755D01*
X58264838Y-65189612D02*
X58217219Y-65284850D01*
X58217219Y-65284850D02*
X58217219Y-65427707D01*
X58217219Y-65427707D02*
X58264838Y-65570564D01*
X58264838Y-65570564D02*
X58360076Y-65665802D01*
X58360076Y-65665802D02*
X58455314Y-65713421D01*
X58455314Y-65713421D02*
X58645790Y-65761040D01*
X58645790Y-65761040D02*
X58788647Y-65761040D01*
X58788647Y-65761040D02*
X58979123Y-65713421D01*
X58979123Y-65713421D02*
X59074361Y-65665802D01*
X59074361Y-65665802D02*
X59169600Y-65570564D01*
X59169600Y-65570564D02*
X59217219Y-65427707D01*
X59217219Y-65427707D02*
X59217219Y-65332469D01*
X59217219Y-65332469D02*
X59169600Y-65189612D01*
X59169600Y-65189612D02*
X59121980Y-65141993D01*
X59121980Y-65141993D02*
X58788647Y-65141993D01*
X58788647Y-65141993D02*
X58788647Y-65332469D01*
X59217219Y-63380088D02*
X58741028Y-63713421D01*
X59217219Y-63951516D02*
X58217219Y-63951516D01*
X58217219Y-63951516D02*
X58217219Y-63570564D01*
X58217219Y-63570564D02*
X58264838Y-63475326D01*
X58264838Y-63475326D02*
X58312457Y-63427707D01*
X58312457Y-63427707D02*
X58407695Y-63380088D01*
X58407695Y-63380088D02*
X58550552Y-63380088D01*
X58550552Y-63380088D02*
X58645790Y-63427707D01*
X58645790Y-63427707D02*
X58693409Y-63475326D01*
X58693409Y-63475326D02*
X58741028Y-63570564D01*
X58741028Y-63570564D02*
X58741028Y-63951516D01*
X58693409Y-62951516D02*
X58693409Y-62618183D01*
X59217219Y-62475326D02*
X59217219Y-62951516D01*
X59217219Y-62951516D02*
X58217219Y-62951516D01*
X58217219Y-62951516D02*
X58217219Y-62475326D01*
X58217219Y-62189611D02*
X59217219Y-61856278D01*
X59217219Y-61856278D02*
X58217219Y-61522945D01*
X58550552Y-60522944D02*
X59217219Y-60284849D01*
X59217219Y-60284849D02*
X58550552Y-60046754D01*
X59217219Y-59141992D02*
X59217219Y-59713420D01*
X59217219Y-59427706D02*
X58217219Y-59427706D01*
X58217219Y-59427706D02*
X58360076Y-59522944D01*
X58360076Y-59522944D02*
X58455314Y-59618182D01*
X58455314Y-59618182D02*
X58502933Y-59713420D01*
X59121980Y-58713420D02*
X59169600Y-58665801D01*
X59169600Y-58665801D02*
X59217219Y-58713420D01*
X59217219Y-58713420D02*
X59169600Y-58761039D01*
X59169600Y-58761039D02*
X59121980Y-58713420D01*
X59121980Y-58713420D02*
X59217219Y-58713420D01*
X59217219Y-57713421D02*
X59217219Y-58284849D01*
X59217219Y-57999135D02*
X58217219Y-57999135D01*
X58217219Y-57999135D02*
X58360076Y-58094373D01*
X58360076Y-58094373D02*
X58455314Y-58189611D01*
X58455314Y-58189611D02*
X58502933Y-58284849D01*
D12*
X32813220Y-87461133D02*
X32051316Y-87461133D01*
X32432268Y-87080180D02*
X32432268Y-87842085D01*
D10*
X57050375Y-55332569D02*
X57359899Y-55332569D01*
X57359899Y-55332569D02*
X57193232Y-55523045D01*
X57193232Y-55523045D02*
X57264661Y-55523045D01*
X57264661Y-55523045D02*
X57312280Y-55546855D01*
X57312280Y-55546855D02*
X57336089Y-55570664D01*
X57336089Y-55570664D02*
X57359899Y-55618283D01*
X57359899Y-55618283D02*
X57359899Y-55737331D01*
X57359899Y-55737331D02*
X57336089Y-55784950D01*
X57336089Y-55784950D02*
X57312280Y-55808760D01*
X57312280Y-55808760D02*
X57264661Y-55832569D01*
X57264661Y-55832569D02*
X57121804Y-55832569D01*
X57121804Y-55832569D02*
X57074185Y-55808760D01*
X57074185Y-55808760D02*
X57050375Y-55784950D01*
X57502756Y-55332569D02*
X57669422Y-55832569D01*
X57669422Y-55832569D02*
X57836089Y-55332569D01*
X57955136Y-55332569D02*
X58264660Y-55332569D01*
X58264660Y-55332569D02*
X58097993Y-55523045D01*
X58097993Y-55523045D02*
X58169422Y-55523045D01*
X58169422Y-55523045D02*
X58217041Y-55546855D01*
X58217041Y-55546855D02*
X58240850Y-55570664D01*
X58240850Y-55570664D02*
X58264660Y-55618283D01*
X58264660Y-55618283D02*
X58264660Y-55737331D01*
X58264660Y-55737331D02*
X58240850Y-55784950D01*
X58240850Y-55784950D02*
X58217041Y-55808760D01*
X58217041Y-55808760D02*
X58169422Y-55832569D01*
X58169422Y-55832569D02*
X58026565Y-55832569D01*
X58026565Y-55832569D02*
X57978946Y-55808760D01*
X57978946Y-55808760D02*
X57955136Y-55784950D01*
X59121802Y-55356379D02*
X59074183Y-55332569D01*
X59074183Y-55332569D02*
X59002754Y-55332569D01*
X59002754Y-55332569D02*
X58931326Y-55356379D01*
X58931326Y-55356379D02*
X58883707Y-55403998D01*
X58883707Y-55403998D02*
X58859897Y-55451617D01*
X58859897Y-55451617D02*
X58836088Y-55546855D01*
X58836088Y-55546855D02*
X58836088Y-55618283D01*
X58836088Y-55618283D02*
X58859897Y-55713521D01*
X58859897Y-55713521D02*
X58883707Y-55761140D01*
X58883707Y-55761140D02*
X58931326Y-55808760D01*
X58931326Y-55808760D02*
X59002754Y-55832569D01*
X59002754Y-55832569D02*
X59050373Y-55832569D01*
X59050373Y-55832569D02*
X59121802Y-55808760D01*
X59121802Y-55808760D02*
X59145611Y-55784950D01*
X59145611Y-55784950D02*
X59145611Y-55618283D01*
X59145611Y-55618283D02*
X59050373Y-55618283D01*
X59359897Y-55832569D02*
X59359897Y-55332569D01*
X59359897Y-55332569D02*
X59645611Y-55832569D01*
X59645611Y-55832569D02*
X59645611Y-55332569D01*
X59883707Y-55832569D02*
X59883707Y-55332569D01*
X59883707Y-55332569D02*
X60002755Y-55332569D01*
X60002755Y-55332569D02*
X60074183Y-55356379D01*
X60074183Y-55356379D02*
X60121802Y-55403998D01*
X60121802Y-55403998D02*
X60145612Y-55451617D01*
X60145612Y-55451617D02*
X60169421Y-55546855D01*
X60169421Y-55546855D02*
X60169421Y-55618283D01*
X60169421Y-55618283D02*
X60145612Y-55713521D01*
X60145612Y-55713521D02*
X60121802Y-55761140D01*
X60121802Y-55761140D02*
X60074183Y-55808760D01*
X60074183Y-55808760D02*
X60002755Y-55832569D01*
X60002755Y-55832569D02*
X59883707Y-55832569D01*
X60740850Y-55689712D02*
X60978945Y-55689712D01*
X60693231Y-55832569D02*
X60859897Y-55332569D01*
X60859897Y-55332569D02*
X61026564Y-55832569D01*
X61193230Y-55332569D02*
X61193230Y-55737331D01*
X61193230Y-55737331D02*
X61217040Y-55784950D01*
X61217040Y-55784950D02*
X61240849Y-55808760D01*
X61240849Y-55808760D02*
X61288468Y-55832569D01*
X61288468Y-55832569D02*
X61383706Y-55832569D01*
X61383706Y-55832569D02*
X61431325Y-55808760D01*
X61431325Y-55808760D02*
X61455135Y-55784950D01*
X61455135Y-55784950D02*
X61478944Y-55737331D01*
X61478944Y-55737331D02*
X61478944Y-55332569D01*
X61669421Y-55332569D02*
X62002754Y-55832569D01*
X62002754Y-55332569D02*
X61669421Y-55832569D01*
X62455135Y-55832569D02*
X62169421Y-55832569D01*
X62312278Y-55832569D02*
X62312278Y-55332569D01*
X62312278Y-55332569D02*
X62264659Y-55403998D01*
X62264659Y-55403998D02*
X62217040Y-55451617D01*
X62217040Y-55451617D02*
X62169421Y-55475426D01*
X63026563Y-55689712D02*
X63264658Y-55689712D01*
X62978944Y-55832569D02*
X63145610Y-55332569D01*
X63145610Y-55332569D02*
X63312277Y-55832569D01*
X63478943Y-55332569D02*
X63478943Y-55737331D01*
X63478943Y-55737331D02*
X63502753Y-55784950D01*
X63502753Y-55784950D02*
X63526562Y-55808760D01*
X63526562Y-55808760D02*
X63574181Y-55832569D01*
X63574181Y-55832569D02*
X63669419Y-55832569D01*
X63669419Y-55832569D02*
X63717038Y-55808760D01*
X63717038Y-55808760D02*
X63740848Y-55784950D01*
X63740848Y-55784950D02*
X63764657Y-55737331D01*
X63764657Y-55737331D02*
X63764657Y-55332569D01*
X63955134Y-55332569D02*
X64288467Y-55832569D01*
X64288467Y-55332569D02*
X63955134Y-55832569D01*
X64455134Y-55380188D02*
X64478943Y-55356379D01*
X64478943Y-55356379D02*
X64526562Y-55332569D01*
X64526562Y-55332569D02*
X64645610Y-55332569D01*
X64645610Y-55332569D02*
X64693229Y-55356379D01*
X64693229Y-55356379D02*
X64717038Y-55380188D01*
X64717038Y-55380188D02*
X64740848Y-55427807D01*
X64740848Y-55427807D02*
X64740848Y-55475426D01*
X64740848Y-55475426D02*
X64717038Y-55546855D01*
X64717038Y-55546855D02*
X64431324Y-55832569D01*
X64431324Y-55832569D02*
X64740848Y-55832569D01*
X44108760Y-95575814D02*
X44132569Y-95504386D01*
X44132569Y-95504386D02*
X44132569Y-95385338D01*
X44132569Y-95385338D02*
X44108760Y-95337719D01*
X44108760Y-95337719D02*
X44084950Y-95313910D01*
X44084950Y-95313910D02*
X44037331Y-95290100D01*
X44037331Y-95290100D02*
X43989712Y-95290100D01*
X43989712Y-95290100D02*
X43942093Y-95313910D01*
X43942093Y-95313910D02*
X43918283Y-95337719D01*
X43918283Y-95337719D02*
X43894474Y-95385338D01*
X43894474Y-95385338D02*
X43870664Y-95480576D01*
X43870664Y-95480576D02*
X43846855Y-95528195D01*
X43846855Y-95528195D02*
X43823045Y-95552005D01*
X43823045Y-95552005D02*
X43775426Y-95575814D01*
X43775426Y-95575814D02*
X43727807Y-95575814D01*
X43727807Y-95575814D02*
X43680188Y-95552005D01*
X43680188Y-95552005D02*
X43656379Y-95528195D01*
X43656379Y-95528195D02*
X43632569Y-95480576D01*
X43632569Y-95480576D02*
X43632569Y-95361529D01*
X43632569Y-95361529D02*
X43656379Y-95290100D01*
X43632569Y-95123434D02*
X44132569Y-95004386D01*
X44132569Y-95004386D02*
X43775426Y-94909148D01*
X43775426Y-94909148D02*
X44132569Y-94813910D01*
X44132569Y-94813910D02*
X43632569Y-94694863D01*
X44132569Y-94504386D02*
X43632569Y-94504386D01*
X43632569Y-94504386D02*
X43632569Y-94385338D01*
X43632569Y-94385338D02*
X43656379Y-94313910D01*
X43656379Y-94313910D02*
X43703998Y-94266291D01*
X43703998Y-94266291D02*
X43751617Y-94242481D01*
X43751617Y-94242481D02*
X43846855Y-94218672D01*
X43846855Y-94218672D02*
X43918283Y-94218672D01*
X43918283Y-94218672D02*
X44013521Y-94242481D01*
X44013521Y-94242481D02*
X44061140Y-94266291D01*
X44061140Y-94266291D02*
X44108760Y-94313910D01*
X44108760Y-94313910D02*
X44132569Y-94385338D01*
X44132569Y-94385338D02*
X44132569Y-94504386D01*
X44084950Y-93718672D02*
X44108760Y-93742481D01*
X44108760Y-93742481D02*
X44132569Y-93813910D01*
X44132569Y-93813910D02*
X44132569Y-93861529D01*
X44132569Y-93861529D02*
X44108760Y-93932957D01*
X44108760Y-93932957D02*
X44061140Y-93980576D01*
X44061140Y-93980576D02*
X44013521Y-94004386D01*
X44013521Y-94004386D02*
X43918283Y-94028195D01*
X43918283Y-94028195D02*
X43846855Y-94028195D01*
X43846855Y-94028195D02*
X43751617Y-94004386D01*
X43751617Y-94004386D02*
X43703998Y-93980576D01*
X43703998Y-93980576D02*
X43656379Y-93932957D01*
X43656379Y-93932957D02*
X43632569Y-93861529D01*
X43632569Y-93861529D02*
X43632569Y-93813910D01*
X43632569Y-93813910D02*
X43656379Y-93742481D01*
X43656379Y-93742481D02*
X43680188Y-93718672D01*
X44132569Y-93266291D02*
X44132569Y-93504386D01*
X44132569Y-93504386D02*
X43632569Y-93504386D01*
X44132569Y-93099624D02*
X43632569Y-93099624D01*
X44132569Y-92813910D02*
X43846855Y-93028195D01*
X43632569Y-92813910D02*
X43918283Y-93099624D01*
X44108760Y-92242481D02*
X44132569Y-92171053D01*
X44132569Y-92171053D02*
X44132569Y-92052005D01*
X44132569Y-92052005D02*
X44108760Y-92004386D01*
X44108760Y-92004386D02*
X44084950Y-91980577D01*
X44084950Y-91980577D02*
X44037331Y-91956767D01*
X44037331Y-91956767D02*
X43989712Y-91956767D01*
X43989712Y-91956767D02*
X43942093Y-91980577D01*
X43942093Y-91980577D02*
X43918283Y-92004386D01*
X43918283Y-92004386D02*
X43894474Y-92052005D01*
X43894474Y-92052005D02*
X43870664Y-92147243D01*
X43870664Y-92147243D02*
X43846855Y-92194862D01*
X43846855Y-92194862D02*
X43823045Y-92218672D01*
X43823045Y-92218672D02*
X43775426Y-92242481D01*
X43775426Y-92242481D02*
X43727807Y-92242481D01*
X43727807Y-92242481D02*
X43680188Y-92218672D01*
X43680188Y-92218672D02*
X43656379Y-92194862D01*
X43656379Y-92194862D02*
X43632569Y-92147243D01*
X43632569Y-92147243D02*
X43632569Y-92028196D01*
X43632569Y-92028196D02*
X43656379Y-91956767D01*
X43632569Y-91790101D02*
X44132569Y-91671053D01*
X44132569Y-91671053D02*
X43775426Y-91575815D01*
X43775426Y-91575815D02*
X44132569Y-91480577D01*
X44132569Y-91480577D02*
X43632569Y-91361530D01*
X44132569Y-91171053D02*
X43632569Y-91171053D01*
X43632569Y-91171053D02*
X43632569Y-91052005D01*
X43632569Y-91052005D02*
X43656379Y-90980577D01*
X43656379Y-90980577D02*
X43703998Y-90932958D01*
X43703998Y-90932958D02*
X43751617Y-90909148D01*
X43751617Y-90909148D02*
X43846855Y-90885339D01*
X43846855Y-90885339D02*
X43918283Y-90885339D01*
X43918283Y-90885339D02*
X44013521Y-90909148D01*
X44013521Y-90909148D02*
X44061140Y-90932958D01*
X44061140Y-90932958D02*
X44108760Y-90980577D01*
X44108760Y-90980577D02*
X44132569Y-91052005D01*
X44132569Y-91052005D02*
X44132569Y-91171053D01*
X44132569Y-90671053D02*
X43632569Y-90671053D01*
X43632569Y-90337720D02*
X43632569Y-90242482D01*
X43632569Y-90242482D02*
X43656379Y-90194863D01*
X43656379Y-90194863D02*
X43703998Y-90147244D01*
X43703998Y-90147244D02*
X43799236Y-90123434D01*
X43799236Y-90123434D02*
X43965902Y-90123434D01*
X43965902Y-90123434D02*
X44061140Y-90147244D01*
X44061140Y-90147244D02*
X44108760Y-90194863D01*
X44108760Y-90194863D02*
X44132569Y-90242482D01*
X44132569Y-90242482D02*
X44132569Y-90337720D01*
X44132569Y-90337720D02*
X44108760Y-90385339D01*
X44108760Y-90385339D02*
X44061140Y-90432958D01*
X44061140Y-90432958D02*
X43965902Y-90456767D01*
X43965902Y-90456767D02*
X43799236Y-90456767D01*
X43799236Y-90456767D02*
X43703998Y-90432958D01*
X43703998Y-90432958D02*
X43656379Y-90385339D01*
X43656379Y-90385339D02*
X43632569Y-90337720D01*
X43656379Y-89266291D02*
X43632569Y-89313910D01*
X43632569Y-89313910D02*
X43632569Y-89385339D01*
X43632569Y-89385339D02*
X43656379Y-89456767D01*
X43656379Y-89456767D02*
X43703998Y-89504386D01*
X43703998Y-89504386D02*
X43751617Y-89528196D01*
X43751617Y-89528196D02*
X43846855Y-89552005D01*
X43846855Y-89552005D02*
X43918283Y-89552005D01*
X43918283Y-89552005D02*
X44013521Y-89528196D01*
X44013521Y-89528196D02*
X44061140Y-89504386D01*
X44061140Y-89504386D02*
X44108760Y-89456767D01*
X44108760Y-89456767D02*
X44132569Y-89385339D01*
X44132569Y-89385339D02*
X44132569Y-89337720D01*
X44132569Y-89337720D02*
X44108760Y-89266291D01*
X44108760Y-89266291D02*
X44084950Y-89242482D01*
X44084950Y-89242482D02*
X43918283Y-89242482D01*
X43918283Y-89242482D02*
X43918283Y-89337720D01*
X44132569Y-89028196D02*
X43632569Y-89028196D01*
X43632569Y-89028196D02*
X44132569Y-88742482D01*
X44132569Y-88742482D02*
X43632569Y-88742482D01*
X44132569Y-88504386D02*
X43632569Y-88504386D01*
X43632569Y-88504386D02*
X43632569Y-88385338D01*
X43632569Y-88385338D02*
X43656379Y-88313910D01*
X43656379Y-88313910D02*
X43703998Y-88266291D01*
X43703998Y-88266291D02*
X43751617Y-88242481D01*
X43751617Y-88242481D02*
X43846855Y-88218672D01*
X43846855Y-88218672D02*
X43918283Y-88218672D01*
X43918283Y-88218672D02*
X44013521Y-88242481D01*
X44013521Y-88242481D02*
X44061140Y-88266291D01*
X44061140Y-88266291D02*
X44108760Y-88313910D01*
X44108760Y-88313910D02*
X44132569Y-88385338D01*
X44132569Y-88385338D02*
X44132569Y-88504386D01*
X43632569Y-87671053D02*
X43632569Y-87361529D01*
X43632569Y-87361529D02*
X43823045Y-87528196D01*
X43823045Y-87528196D02*
X43823045Y-87456767D01*
X43823045Y-87456767D02*
X43846855Y-87409148D01*
X43846855Y-87409148D02*
X43870664Y-87385339D01*
X43870664Y-87385339D02*
X43918283Y-87361529D01*
X43918283Y-87361529D02*
X44037331Y-87361529D01*
X44037331Y-87361529D02*
X44084950Y-87385339D01*
X44084950Y-87385339D02*
X44108760Y-87409148D01*
X44108760Y-87409148D02*
X44132569Y-87456767D01*
X44132569Y-87456767D02*
X44132569Y-87599624D01*
X44132569Y-87599624D02*
X44108760Y-87647243D01*
X44108760Y-87647243D02*
X44084950Y-87671053D01*
X43632569Y-87218672D02*
X44132569Y-87052006D01*
X44132569Y-87052006D02*
X43632569Y-86885339D01*
X43632569Y-86766292D02*
X43632569Y-86456768D01*
X43632569Y-86456768D02*
X43823045Y-86623435D01*
X43823045Y-86623435D02*
X43823045Y-86552006D01*
X43823045Y-86552006D02*
X43846855Y-86504387D01*
X43846855Y-86504387D02*
X43870664Y-86480578D01*
X43870664Y-86480578D02*
X43918283Y-86456768D01*
X43918283Y-86456768D02*
X44037331Y-86456768D01*
X44037331Y-86456768D02*
X44084950Y-86480578D01*
X44084950Y-86480578D02*
X44108760Y-86504387D01*
X44108760Y-86504387D02*
X44132569Y-86552006D01*
X44132569Y-86552006D02*
X44132569Y-86694863D01*
X44132569Y-86694863D02*
X44108760Y-86742482D01*
X44108760Y-86742482D02*
X44084950Y-86766292D01*
D12*
X32361133Y-95136779D02*
X32361133Y-95898684D01*
X44680839Y-101130466D02*
X44071316Y-101130466D01*
X44376077Y-100825704D02*
X44376077Y-101435228D01*
X38450839Y-101090466D02*
X37841316Y-101090466D01*
D10*
X66674185Y-56108760D02*
X66745613Y-56132569D01*
X66745613Y-56132569D02*
X66864661Y-56132569D01*
X66864661Y-56132569D02*
X66912280Y-56108760D01*
X66912280Y-56108760D02*
X66936089Y-56084950D01*
X66936089Y-56084950D02*
X66959899Y-56037331D01*
X66959899Y-56037331D02*
X66959899Y-55989712D01*
X66959899Y-55989712D02*
X66936089Y-55942093D01*
X66936089Y-55942093D02*
X66912280Y-55918283D01*
X66912280Y-55918283D02*
X66864661Y-55894474D01*
X66864661Y-55894474D02*
X66769423Y-55870664D01*
X66769423Y-55870664D02*
X66721804Y-55846855D01*
X66721804Y-55846855D02*
X66697994Y-55823045D01*
X66697994Y-55823045D02*
X66674185Y-55775426D01*
X66674185Y-55775426D02*
X66674185Y-55727807D01*
X66674185Y-55727807D02*
X66697994Y-55680188D01*
X66697994Y-55680188D02*
X66721804Y-55656379D01*
X66721804Y-55656379D02*
X66769423Y-55632569D01*
X66769423Y-55632569D02*
X66888470Y-55632569D01*
X66888470Y-55632569D02*
X66959899Y-55656379D01*
X67126565Y-55632569D02*
X67245613Y-56132569D01*
X67245613Y-56132569D02*
X67340851Y-55775426D01*
X67340851Y-55775426D02*
X67436089Y-56132569D01*
X67436089Y-56132569D02*
X67555137Y-55632569D01*
X67745613Y-56132569D02*
X67745613Y-55632569D01*
X67745613Y-55632569D02*
X67864661Y-55632569D01*
X67864661Y-55632569D02*
X67936089Y-55656379D01*
X67936089Y-55656379D02*
X67983708Y-55703998D01*
X67983708Y-55703998D02*
X68007518Y-55751617D01*
X68007518Y-55751617D02*
X68031327Y-55846855D01*
X68031327Y-55846855D02*
X68031327Y-55918283D01*
X68031327Y-55918283D02*
X68007518Y-56013521D01*
X68007518Y-56013521D02*
X67983708Y-56061140D01*
X67983708Y-56061140D02*
X67936089Y-56108760D01*
X67936089Y-56108760D02*
X67864661Y-56132569D01*
X67864661Y-56132569D02*
X67745613Y-56132569D01*
X68245613Y-56132569D02*
X68245613Y-55632569D01*
X68578946Y-55632569D02*
X68674184Y-55632569D01*
X68674184Y-55632569D02*
X68721803Y-55656379D01*
X68721803Y-55656379D02*
X68769422Y-55703998D01*
X68769422Y-55703998D02*
X68793232Y-55799236D01*
X68793232Y-55799236D02*
X68793232Y-55965902D01*
X68793232Y-55965902D02*
X68769422Y-56061140D01*
X68769422Y-56061140D02*
X68721803Y-56108760D01*
X68721803Y-56108760D02*
X68674184Y-56132569D01*
X68674184Y-56132569D02*
X68578946Y-56132569D01*
X68578946Y-56132569D02*
X68531327Y-56108760D01*
X68531327Y-56108760D02*
X68483708Y-56061140D01*
X68483708Y-56061140D02*
X68459899Y-55965902D01*
X68459899Y-55965902D02*
X68459899Y-55799236D01*
X68459899Y-55799236D02*
X68483708Y-55703998D01*
X68483708Y-55703998D02*
X68531327Y-55656379D01*
X68531327Y-55656379D02*
X68578946Y-55632569D01*
X69364661Y-56108760D02*
X69436089Y-56132569D01*
X69436089Y-56132569D02*
X69555137Y-56132569D01*
X69555137Y-56132569D02*
X69602756Y-56108760D01*
X69602756Y-56108760D02*
X69626565Y-56084950D01*
X69626565Y-56084950D02*
X69650375Y-56037331D01*
X69650375Y-56037331D02*
X69650375Y-55989712D01*
X69650375Y-55989712D02*
X69626565Y-55942093D01*
X69626565Y-55942093D02*
X69602756Y-55918283D01*
X69602756Y-55918283D02*
X69555137Y-55894474D01*
X69555137Y-55894474D02*
X69459899Y-55870664D01*
X69459899Y-55870664D02*
X69412280Y-55846855D01*
X69412280Y-55846855D02*
X69388470Y-55823045D01*
X69388470Y-55823045D02*
X69364661Y-55775426D01*
X69364661Y-55775426D02*
X69364661Y-55727807D01*
X69364661Y-55727807D02*
X69388470Y-55680188D01*
X69388470Y-55680188D02*
X69412280Y-55656379D01*
X69412280Y-55656379D02*
X69459899Y-55632569D01*
X69459899Y-55632569D02*
X69578946Y-55632569D01*
X69578946Y-55632569D02*
X69650375Y-55656379D01*
X69817041Y-55632569D02*
X69936089Y-56132569D01*
X69936089Y-56132569D02*
X70031327Y-55775426D01*
X70031327Y-55775426D02*
X70126565Y-56132569D01*
X70126565Y-56132569D02*
X70245613Y-55632569D01*
X70721803Y-56084950D02*
X70697994Y-56108760D01*
X70697994Y-56108760D02*
X70626565Y-56132569D01*
X70626565Y-56132569D02*
X70578946Y-56132569D01*
X70578946Y-56132569D02*
X70507518Y-56108760D01*
X70507518Y-56108760D02*
X70459899Y-56061140D01*
X70459899Y-56061140D02*
X70436089Y-56013521D01*
X70436089Y-56013521D02*
X70412280Y-55918283D01*
X70412280Y-55918283D02*
X70412280Y-55846855D01*
X70412280Y-55846855D02*
X70436089Y-55751617D01*
X70436089Y-55751617D02*
X70459899Y-55703998D01*
X70459899Y-55703998D02*
X70507518Y-55656379D01*
X70507518Y-55656379D02*
X70578946Y-55632569D01*
X70578946Y-55632569D02*
X70626565Y-55632569D01*
X70626565Y-55632569D02*
X70697994Y-55656379D01*
X70697994Y-55656379D02*
X70721803Y-55680188D01*
X70936089Y-56132569D02*
X70936089Y-55632569D01*
X71221803Y-56132569D02*
X71007518Y-55846855D01*
X71221803Y-55632569D02*
X70936089Y-55918283D01*
X72102755Y-56132569D02*
X71936089Y-55894474D01*
X71817041Y-56132569D02*
X71817041Y-55632569D01*
X71817041Y-55632569D02*
X72007517Y-55632569D01*
X72007517Y-55632569D02*
X72055136Y-55656379D01*
X72055136Y-55656379D02*
X72078946Y-55680188D01*
X72078946Y-55680188D02*
X72102755Y-55727807D01*
X72102755Y-55727807D02*
X72102755Y-55799236D01*
X72102755Y-55799236D02*
X72078946Y-55846855D01*
X72078946Y-55846855D02*
X72055136Y-55870664D01*
X72055136Y-55870664D02*
X72007517Y-55894474D01*
X72007517Y-55894474D02*
X71817041Y-55894474D01*
X72293232Y-56108760D02*
X72364660Y-56132569D01*
X72364660Y-56132569D02*
X72483708Y-56132569D01*
X72483708Y-56132569D02*
X72531327Y-56108760D01*
X72531327Y-56108760D02*
X72555136Y-56084950D01*
X72555136Y-56084950D02*
X72578946Y-56037331D01*
X72578946Y-56037331D02*
X72578946Y-55989712D01*
X72578946Y-55989712D02*
X72555136Y-55942093D01*
X72555136Y-55942093D02*
X72531327Y-55918283D01*
X72531327Y-55918283D02*
X72483708Y-55894474D01*
X72483708Y-55894474D02*
X72388470Y-55870664D01*
X72388470Y-55870664D02*
X72340851Y-55846855D01*
X72340851Y-55846855D02*
X72317041Y-55823045D01*
X72317041Y-55823045D02*
X72293232Y-55775426D01*
X72293232Y-55775426D02*
X72293232Y-55727807D01*
X72293232Y-55727807D02*
X72317041Y-55680188D01*
X72317041Y-55680188D02*
X72340851Y-55656379D01*
X72340851Y-55656379D02*
X72388470Y-55632569D01*
X72388470Y-55632569D02*
X72507517Y-55632569D01*
X72507517Y-55632569D02*
X72578946Y-55656379D01*
X72721803Y-55632569D02*
X73007517Y-55632569D01*
X72864660Y-56132569D02*
X72864660Y-55632569D01*
X73817040Y-55656379D02*
X73769421Y-55632569D01*
X73769421Y-55632569D02*
X73697992Y-55632569D01*
X73697992Y-55632569D02*
X73626564Y-55656379D01*
X73626564Y-55656379D02*
X73578945Y-55703998D01*
X73578945Y-55703998D02*
X73555135Y-55751617D01*
X73555135Y-55751617D02*
X73531326Y-55846855D01*
X73531326Y-55846855D02*
X73531326Y-55918283D01*
X73531326Y-55918283D02*
X73555135Y-56013521D01*
X73555135Y-56013521D02*
X73578945Y-56061140D01*
X73578945Y-56061140D02*
X73626564Y-56108760D01*
X73626564Y-56108760D02*
X73697992Y-56132569D01*
X73697992Y-56132569D02*
X73745611Y-56132569D01*
X73745611Y-56132569D02*
X73817040Y-56108760D01*
X73817040Y-56108760D02*
X73840849Y-56084950D01*
X73840849Y-56084950D02*
X73840849Y-55918283D01*
X73840849Y-55918283D02*
X73745611Y-55918283D01*
X74055135Y-56132569D02*
X74055135Y-55632569D01*
X74055135Y-55632569D02*
X74340849Y-56132569D01*
X74340849Y-56132569D02*
X74340849Y-55632569D01*
X74578945Y-56132569D02*
X74578945Y-55632569D01*
X74578945Y-55632569D02*
X74697993Y-55632569D01*
X74697993Y-55632569D02*
X74769421Y-55656379D01*
X74769421Y-55656379D02*
X74817040Y-55703998D01*
X74817040Y-55703998D02*
X74840850Y-55751617D01*
X74840850Y-55751617D02*
X74864659Y-55846855D01*
X74864659Y-55846855D02*
X74864659Y-55918283D01*
X74864659Y-55918283D02*
X74840850Y-56013521D01*
X74840850Y-56013521D02*
X74817040Y-56061140D01*
X74817040Y-56061140D02*
X74769421Y-56108760D01*
X74769421Y-56108760D02*
X74697993Y-56132569D01*
X74697993Y-56132569D02*
X74578945Y-56132569D01*
X75412278Y-55632569D02*
X75721802Y-55632569D01*
X75721802Y-55632569D02*
X75555135Y-55823045D01*
X75555135Y-55823045D02*
X75626564Y-55823045D01*
X75626564Y-55823045D02*
X75674183Y-55846855D01*
X75674183Y-55846855D02*
X75697992Y-55870664D01*
X75697992Y-55870664D02*
X75721802Y-55918283D01*
X75721802Y-55918283D02*
X75721802Y-56037331D01*
X75721802Y-56037331D02*
X75697992Y-56084950D01*
X75697992Y-56084950D02*
X75674183Y-56108760D01*
X75674183Y-56108760D02*
X75626564Y-56132569D01*
X75626564Y-56132569D02*
X75483707Y-56132569D01*
X75483707Y-56132569D02*
X75436088Y-56108760D01*
X75436088Y-56108760D02*
X75412278Y-56084950D01*
X75864659Y-55632569D02*
X76031325Y-56132569D01*
X76031325Y-56132569D02*
X76197992Y-55632569D01*
X76317039Y-55632569D02*
X76626563Y-55632569D01*
X76626563Y-55632569D02*
X76459896Y-55823045D01*
X76459896Y-55823045D02*
X76531325Y-55823045D01*
X76531325Y-55823045D02*
X76578944Y-55846855D01*
X76578944Y-55846855D02*
X76602753Y-55870664D01*
X76602753Y-55870664D02*
X76626563Y-55918283D01*
X76626563Y-55918283D02*
X76626563Y-56037331D01*
X76626563Y-56037331D02*
X76602753Y-56084950D01*
X76602753Y-56084950D02*
X76578944Y-56108760D01*
X76578944Y-56108760D02*
X76531325Y-56132569D01*
X76531325Y-56132569D02*
X76388468Y-56132569D01*
X76388468Y-56132569D02*
X76340849Y-56108760D01*
X76340849Y-56108760D02*
X76317039Y-56084950D01*
D12*
G36*
X60666999Y-100074980D02*
G01*
X60678359Y-100086340D01*
X60693571Y-100116762D01*
X60693571Y-100167065D01*
X60678360Y-100197486D01*
X60667001Y-100208845D01*
X60636579Y-100224057D01*
X60500714Y-100224057D01*
X60500714Y-100059771D01*
X60636581Y-100059771D01*
X60666999Y-100074980D01*
G37*
G36*
X59381285Y-100074980D02*
G01*
X59392645Y-100086340D01*
X59407857Y-100116762D01*
X59407857Y-100167065D01*
X59392646Y-100197486D01*
X59381287Y-100208845D01*
X59350865Y-100224057D01*
X59215000Y-100224057D01*
X59215000Y-100059771D01*
X59350867Y-100059771D01*
X59381285Y-100074980D01*
G37*
G36*
X60918571Y-100734753D02*
G01*
X58990000Y-100734753D01*
X58990000Y-99984771D01*
X59065000Y-99984771D01*
X59065000Y-100584771D01*
X59066441Y-100599403D01*
X59077640Y-100626439D01*
X59098332Y-100647131D01*
X59125368Y-100658330D01*
X59154632Y-100658330D01*
X59181668Y-100647131D01*
X59202360Y-100626439D01*
X59213559Y-100599403D01*
X59215000Y-100584771D01*
X59215000Y-100374057D01*
X59368571Y-100374057D01*
X59383203Y-100372616D01*
X59385691Y-100371585D01*
X59388381Y-100371394D01*
X59402112Y-100366139D01*
X59459255Y-100337567D01*
X59465551Y-100333603D01*
X59467382Y-100332845D01*
X59469443Y-100331153D01*
X59471698Y-100329734D01*
X59472994Y-100328238D01*
X59478747Y-100323518D01*
X59507318Y-100294947D01*
X59512038Y-100289194D01*
X59513534Y-100287898D01*
X59514953Y-100285643D01*
X59516645Y-100283582D01*
X59517403Y-100281751D01*
X59521367Y-100275455D01*
X59549939Y-100218313D01*
X59555194Y-100204581D01*
X59555385Y-100201891D01*
X59556416Y-100199403D01*
X59557857Y-100184771D01*
X59557857Y-100099057D01*
X59556416Y-100084425D01*
X59555385Y-100081936D01*
X59555194Y-100079247D01*
X59549939Y-100065515D01*
X59521367Y-100008373D01*
X59517404Y-100002078D01*
X59516646Y-100000247D01*
X59514952Y-99998183D01*
X59513534Y-99995930D01*
X59512039Y-99994633D01*
X59507319Y-99988882D01*
X59506012Y-99987575D01*
X59607909Y-99987575D01*
X59609897Y-100002143D01*
X59752753Y-100602142D01*
X59754483Y-100607164D01*
X59754723Y-100608964D01*
X59755664Y-100610591D01*
X59757544Y-100616043D01*
X59763929Y-100624865D01*
X59769385Y-100634289D01*
X59772443Y-100636630D01*
X59774701Y-100639749D01*
X59783972Y-100645454D01*
X59792623Y-100652076D01*
X59796344Y-100653068D01*
X59799623Y-100655086D01*
X59810372Y-100656809D01*
X59820898Y-100659616D01*
X59824716Y-100659108D01*
X59828518Y-100659718D01*
X59839107Y-100657196D01*
X59849907Y-100655762D01*
X59853241Y-100653831D01*
X59856986Y-100652940D01*
X59865806Y-100646557D01*
X59875232Y-100641100D01*
X59877572Y-100638042D01*
X59880693Y-100635784D01*
X59886400Y-100626508D01*
X59893019Y-100617862D01*
X59895044Y-100612462D01*
X59896029Y-100610862D01*
X59896316Y-100609070D01*
X59898182Y-100604096D01*
X59939999Y-100447279D01*
X59981817Y-100604095D01*
X59983682Y-100609069D01*
X59983970Y-100610862D01*
X59984955Y-100612463D01*
X59986980Y-100617862D01*
X59993598Y-100626508D01*
X59999306Y-100635784D01*
X60002426Y-100638042D01*
X60004767Y-100641100D01*
X60014185Y-100646552D01*
X60023013Y-100652941D01*
X60026763Y-100653833D01*
X60030092Y-100655761D01*
X60040876Y-100657194D01*
X60051481Y-100659719D01*
X60055285Y-100659109D01*
X60059100Y-100659616D01*
X60069621Y-100656810D01*
X60080376Y-100655086D01*
X60083655Y-100653068D01*
X60087376Y-100652076D01*
X60096022Y-100645457D01*
X60105298Y-100639750D01*
X60107556Y-100636629D01*
X60110614Y-100634289D01*
X60116068Y-100624867D01*
X60122455Y-100616043D01*
X60124333Y-100610592D01*
X60125276Y-100608964D01*
X60125515Y-100607162D01*
X60127245Y-100602143D01*
X60270104Y-100002142D01*
X60272091Y-99987574D01*
X60271642Y-99984771D01*
X60350714Y-99984771D01*
X60350714Y-100584771D01*
X60352155Y-100599403D01*
X60363354Y-100626439D01*
X60384046Y-100647131D01*
X60411082Y-100658330D01*
X60440346Y-100658330D01*
X60467382Y-100647131D01*
X60488074Y-100626439D01*
X60499273Y-100599403D01*
X60500714Y-100584771D01*
X60500714Y-100374057D01*
X60529522Y-100374057D01*
X60707128Y-100627780D01*
X60716700Y-100638941D01*
X60741378Y-100654667D01*
X60770196Y-100659753D01*
X60798767Y-100653423D01*
X60822741Y-100636642D01*
X60838468Y-100611963D01*
X60843553Y-100583145D01*
X60837223Y-100554574D01*
X60830013Y-100541761D01*
X60702086Y-100359008D01*
X60744969Y-100337567D01*
X60751265Y-100333603D01*
X60753096Y-100332845D01*
X60755157Y-100331153D01*
X60757412Y-100329734D01*
X60758708Y-100328238D01*
X60764461Y-100323518D01*
X60793032Y-100294947D01*
X60797752Y-100289194D01*
X60799248Y-100287898D01*
X60800667Y-100285643D01*
X60802359Y-100283582D01*
X60803117Y-100281751D01*
X60807081Y-100275455D01*
X60835653Y-100218313D01*
X60840908Y-100204581D01*
X60841099Y-100201891D01*
X60842130Y-100199403D01*
X60843571Y-100184771D01*
X60843571Y-100099057D01*
X60842130Y-100084425D01*
X60841099Y-100081936D01*
X60840908Y-100079247D01*
X60835653Y-100065515D01*
X60807081Y-100008373D01*
X60803118Y-100002078D01*
X60802360Y-100000247D01*
X60800666Y-99998183D01*
X60799248Y-99995930D01*
X60797753Y-99994633D01*
X60793033Y-99988882D01*
X60764462Y-99960310D01*
X60758710Y-99955589D01*
X60757412Y-99954092D01*
X60755156Y-99952672D01*
X60753097Y-99950982D01*
X60751266Y-99950223D01*
X60744969Y-99946260D01*
X60687826Y-99917689D01*
X60674094Y-99912434D01*
X60671406Y-99912243D01*
X60668917Y-99911212D01*
X60654285Y-99909771D01*
X60425714Y-99909771D01*
X60411082Y-99911212D01*
X60384046Y-99922411D01*
X60363354Y-99943103D01*
X60352155Y-99970139D01*
X60350714Y-99984771D01*
X60271642Y-99984771D01*
X60267458Y-99958680D01*
X60252122Y-99933758D01*
X60228415Y-99916601D01*
X60199947Y-99909823D01*
X60171052Y-99914455D01*
X60146130Y-99929792D01*
X60128974Y-99953499D01*
X60124183Y-99967399D01*
X60050169Y-100278255D01*
X60012468Y-100136875D01*
X60011182Y-100133447D01*
X60010991Y-100132006D01*
X60009999Y-100130293D01*
X60007305Y-100123109D01*
X60001291Y-100115252D01*
X59996329Y-100106681D01*
X59992468Y-100103726D01*
X59989518Y-100099871D01*
X59980958Y-100094915D01*
X59973092Y-100088894D01*
X59968394Y-100087641D01*
X59964193Y-100085209D01*
X59954386Y-100083906D01*
X59944816Y-100081354D01*
X59939997Y-100081994D01*
X59935185Y-100081355D01*
X59925624Y-100083904D01*
X59915807Y-100085209D01*
X59911601Y-100087643D01*
X59906909Y-100088895D01*
X59899049Y-100094910D01*
X59890482Y-100099871D01*
X59887528Y-100103729D01*
X59883671Y-100106682D01*
X59878712Y-100115247D01*
X59872695Y-100123108D01*
X59870000Y-100130294D01*
X59869009Y-100132007D01*
X59868817Y-100133449D01*
X59867533Y-100136875D01*
X59829830Y-100278256D01*
X59755817Y-99967399D01*
X59751027Y-99953499D01*
X59733870Y-99929792D01*
X59708948Y-99914456D01*
X59680053Y-99909823D01*
X59651585Y-99916601D01*
X59627878Y-99933758D01*
X59612542Y-99958680D01*
X59607909Y-99987575D01*
X59506012Y-99987575D01*
X59478748Y-99960310D01*
X59472996Y-99955589D01*
X59471698Y-99954092D01*
X59469442Y-99952672D01*
X59467383Y-99950982D01*
X59465552Y-99950223D01*
X59459255Y-99946260D01*
X59402112Y-99917689D01*
X59388380Y-99912434D01*
X59385692Y-99912243D01*
X59383203Y-99911212D01*
X59368571Y-99909771D01*
X59140000Y-99909771D01*
X59125368Y-99911212D01*
X59098332Y-99922411D01*
X59077640Y-99943103D01*
X59066441Y-99970139D01*
X59065000Y-99984771D01*
X58990000Y-99984771D01*
X58990000Y-99834771D01*
X60918571Y-99834771D01*
X60918571Y-100734753D01*
G37*
X46590476Y-90662295D02*
X46590476Y-91309914D01*
X46590476Y-91309914D02*
X46628571Y-91386104D01*
X46628571Y-91386104D02*
X46666666Y-91424200D01*
X46666666Y-91424200D02*
X46742857Y-91462295D01*
X46742857Y-91462295D02*
X46895238Y-91462295D01*
X46895238Y-91462295D02*
X46971428Y-91424200D01*
X46971428Y-91424200D02*
X47009523Y-91386104D01*
X47009523Y-91386104D02*
X47047619Y-91309914D01*
X47047619Y-91309914D02*
X47047619Y-90662295D01*
X47847618Y-91462295D02*
X47390475Y-91462295D01*
X47619047Y-91462295D02*
X47619047Y-90662295D01*
X47619047Y-90662295D02*
X47542856Y-90776580D01*
X47542856Y-90776580D02*
X47466666Y-90852771D01*
X47466666Y-90852771D02*
X47390475Y-90890866D01*
X49690476Y-95162295D02*
X49690476Y-95809914D01*
X49690476Y-95809914D02*
X49728571Y-95886104D01*
X49728571Y-95886104D02*
X49766666Y-95924200D01*
X49766666Y-95924200D02*
X49842857Y-95962295D01*
X49842857Y-95962295D02*
X49995238Y-95962295D01*
X49995238Y-95962295D02*
X50071428Y-95924200D01*
X50071428Y-95924200D02*
X50109523Y-95886104D01*
X50109523Y-95886104D02*
X50147619Y-95809914D01*
X50147619Y-95809914D02*
X50147619Y-95162295D01*
X50909523Y-95162295D02*
X50528571Y-95162295D01*
X50528571Y-95162295D02*
X50490475Y-95543247D01*
X50490475Y-95543247D02*
X50528571Y-95505152D01*
X50528571Y-95505152D02*
X50604761Y-95467057D01*
X50604761Y-95467057D02*
X50795237Y-95467057D01*
X50795237Y-95467057D02*
X50871428Y-95505152D01*
X50871428Y-95505152D02*
X50909523Y-95543247D01*
X50909523Y-95543247D02*
X50947618Y-95619438D01*
X50947618Y-95619438D02*
X50947618Y-95809914D01*
X50947618Y-95809914D02*
X50909523Y-95886104D01*
X50909523Y-95886104D02*
X50871428Y-95924200D01*
X50871428Y-95924200D02*
X50795237Y-95962295D01*
X50795237Y-95962295D02*
X50604761Y-95962295D01*
X50604761Y-95962295D02*
X50528571Y-95924200D01*
X50528571Y-95924200D02*
X50490475Y-95886104D01*
X53790357Y-88985629D02*
X53790357Y-88185629D01*
X53790357Y-88185629D02*
X53980833Y-88185629D01*
X53980833Y-88185629D02*
X54095119Y-88223724D01*
X54095119Y-88223724D02*
X54171309Y-88299914D01*
X54171309Y-88299914D02*
X54209404Y-88376105D01*
X54209404Y-88376105D02*
X54247500Y-88528486D01*
X54247500Y-88528486D02*
X54247500Y-88642772D01*
X54247500Y-88642772D02*
X54209404Y-88795153D01*
X54209404Y-88795153D02*
X54171309Y-88871343D01*
X54171309Y-88871343D02*
X54095119Y-88947534D01*
X54095119Y-88947534D02*
X53980833Y-88985629D01*
X53980833Y-88985629D02*
X53790357Y-88985629D01*
X54971309Y-88185629D02*
X54590357Y-88185629D01*
X54590357Y-88185629D02*
X54552261Y-88566581D01*
X54552261Y-88566581D02*
X54590357Y-88528486D01*
X54590357Y-88528486D02*
X54666547Y-88490391D01*
X54666547Y-88490391D02*
X54857023Y-88490391D01*
X54857023Y-88490391D02*
X54933214Y-88528486D01*
X54933214Y-88528486D02*
X54971309Y-88566581D01*
X54971309Y-88566581D02*
X55009404Y-88642772D01*
X55009404Y-88642772D02*
X55009404Y-88833248D01*
X55009404Y-88833248D02*
X54971309Y-88909438D01*
X54971309Y-88909438D02*
X54933214Y-88947534D01*
X54933214Y-88947534D02*
X54857023Y-88985629D01*
X54857023Y-88985629D02*
X54666547Y-88985629D01*
X54666547Y-88985629D02*
X54590357Y-88947534D01*
X54590357Y-88947534D02*
X54552261Y-88909438D01*
X52309524Y-65982295D02*
X52309524Y-65182295D01*
X52309524Y-65182295D02*
X52500000Y-65182295D01*
X52500000Y-65182295D02*
X52614286Y-65220390D01*
X52614286Y-65220390D02*
X52690476Y-65296580D01*
X52690476Y-65296580D02*
X52728571Y-65372771D01*
X52728571Y-65372771D02*
X52766667Y-65525152D01*
X52766667Y-65525152D02*
X52766667Y-65639438D01*
X52766667Y-65639438D02*
X52728571Y-65791819D01*
X52728571Y-65791819D02*
X52690476Y-65868009D01*
X52690476Y-65868009D02*
X52614286Y-65944200D01*
X52614286Y-65944200D02*
X52500000Y-65982295D01*
X52500000Y-65982295D02*
X52309524Y-65982295D01*
X53452381Y-65182295D02*
X53300000Y-65182295D01*
X53300000Y-65182295D02*
X53223809Y-65220390D01*
X53223809Y-65220390D02*
X53185714Y-65258485D01*
X53185714Y-65258485D02*
X53109524Y-65372771D01*
X53109524Y-65372771D02*
X53071428Y-65525152D01*
X53071428Y-65525152D02*
X53071428Y-65829914D01*
X53071428Y-65829914D02*
X53109524Y-65906104D01*
X53109524Y-65906104D02*
X53147619Y-65944200D01*
X53147619Y-65944200D02*
X53223809Y-65982295D01*
X53223809Y-65982295D02*
X53376190Y-65982295D01*
X53376190Y-65982295D02*
X53452381Y-65944200D01*
X53452381Y-65944200D02*
X53490476Y-65906104D01*
X53490476Y-65906104D02*
X53528571Y-65829914D01*
X53528571Y-65829914D02*
X53528571Y-65639438D01*
X53528571Y-65639438D02*
X53490476Y-65563247D01*
X53490476Y-65563247D02*
X53452381Y-65525152D01*
X53452381Y-65525152D02*
X53376190Y-65487057D01*
X53376190Y-65487057D02*
X53223809Y-65487057D01*
X53223809Y-65487057D02*
X53147619Y-65525152D01*
X53147619Y-65525152D02*
X53109524Y-65563247D01*
X53109524Y-65563247D02*
X53071428Y-65639438D01*
X36659524Y-65962295D02*
X36659524Y-65162295D01*
X36659524Y-65162295D02*
X36850000Y-65162295D01*
X36850000Y-65162295D02*
X36964286Y-65200390D01*
X36964286Y-65200390D02*
X37040476Y-65276580D01*
X37040476Y-65276580D02*
X37078571Y-65352771D01*
X37078571Y-65352771D02*
X37116667Y-65505152D01*
X37116667Y-65505152D02*
X37116667Y-65619438D01*
X37116667Y-65619438D02*
X37078571Y-65771819D01*
X37078571Y-65771819D02*
X37040476Y-65848009D01*
X37040476Y-65848009D02*
X36964286Y-65924200D01*
X36964286Y-65924200D02*
X36850000Y-65962295D01*
X36850000Y-65962295D02*
X36659524Y-65962295D01*
X37383333Y-65162295D02*
X37916667Y-65162295D01*
X37916667Y-65162295D02*
X37573809Y-65962295D01*
X46509524Y-82912295D02*
X46509524Y-82112295D01*
X46509524Y-82112295D02*
X46700000Y-82112295D01*
X46700000Y-82112295D02*
X46814286Y-82150390D01*
X46814286Y-82150390D02*
X46890476Y-82226580D01*
X46890476Y-82226580D02*
X46928571Y-82302771D01*
X46928571Y-82302771D02*
X46966667Y-82455152D01*
X46966667Y-82455152D02*
X46966667Y-82569438D01*
X46966667Y-82569438D02*
X46928571Y-82721819D01*
X46928571Y-82721819D02*
X46890476Y-82798009D01*
X46890476Y-82798009D02*
X46814286Y-82874200D01*
X46814286Y-82874200D02*
X46700000Y-82912295D01*
X46700000Y-82912295D02*
X46509524Y-82912295D01*
X47728571Y-82912295D02*
X47271428Y-82912295D01*
X47500000Y-82912295D02*
X47500000Y-82112295D01*
X47500000Y-82112295D02*
X47423809Y-82226580D01*
X47423809Y-82226580D02*
X47347619Y-82302771D01*
X47347619Y-82302771D02*
X47271428Y-82340866D01*
X74780715Y-75005485D02*
X74866429Y-75034057D01*
X74866429Y-75034057D02*
X74895000Y-75062628D01*
X74895000Y-75062628D02*
X74923572Y-75119771D01*
X74923572Y-75119771D02*
X74923572Y-75205485D01*
X74923572Y-75205485D02*
X74895000Y-75262628D01*
X74895000Y-75262628D02*
X74866429Y-75291200D01*
X74866429Y-75291200D02*
X74809286Y-75319771D01*
X74809286Y-75319771D02*
X74580715Y-75319771D01*
X74580715Y-75319771D02*
X74580715Y-74719771D01*
X74580715Y-74719771D02*
X74780715Y-74719771D01*
X74780715Y-74719771D02*
X74837858Y-74748342D01*
X74837858Y-74748342D02*
X74866429Y-74776914D01*
X74866429Y-74776914D02*
X74895000Y-74834057D01*
X74895000Y-74834057D02*
X74895000Y-74891200D01*
X74895000Y-74891200D02*
X74866429Y-74948342D01*
X74866429Y-74948342D02*
X74837858Y-74976914D01*
X74837858Y-74976914D02*
X74780715Y-75005485D01*
X74780715Y-75005485D02*
X74580715Y-75005485D01*
X75466429Y-75319771D02*
X75180715Y-75319771D01*
X75180715Y-75319771D02*
X75180715Y-74719771D01*
X75666429Y-75005485D02*
X75866429Y-75005485D01*
X75952143Y-75319771D02*
X75666429Y-75319771D01*
X75666429Y-75319771D02*
X75666429Y-74719771D01*
X75666429Y-74719771D02*
X75952143Y-74719771D01*
X76066429Y-75376914D02*
X76523571Y-75376914D01*
X77009286Y-75262628D02*
X76980714Y-75291200D01*
X76980714Y-75291200D02*
X76895000Y-75319771D01*
X76895000Y-75319771D02*
X76837857Y-75319771D01*
X76837857Y-75319771D02*
X76752143Y-75291200D01*
X76752143Y-75291200D02*
X76695000Y-75234057D01*
X76695000Y-75234057D02*
X76666429Y-75176914D01*
X76666429Y-75176914D02*
X76637857Y-75062628D01*
X76637857Y-75062628D02*
X76637857Y-74976914D01*
X76637857Y-74976914D02*
X76666429Y-74862628D01*
X76666429Y-74862628D02*
X76695000Y-74805485D01*
X76695000Y-74805485D02*
X76752143Y-74748342D01*
X76752143Y-74748342D02*
X76837857Y-74719771D01*
X76837857Y-74719771D02*
X76895000Y-74719771D01*
X76895000Y-74719771D02*
X76980714Y-74748342D01*
X76980714Y-74748342D02*
X77009286Y-74776914D01*
X77352143Y-75319771D02*
X77295000Y-75291200D01*
X77295000Y-75291200D02*
X77266429Y-75262628D01*
X77266429Y-75262628D02*
X77237857Y-75205485D01*
X77237857Y-75205485D02*
X77237857Y-75034057D01*
X77237857Y-75034057D02*
X77266429Y-74976914D01*
X77266429Y-74976914D02*
X77295000Y-74948342D01*
X77295000Y-74948342D02*
X77352143Y-74919771D01*
X77352143Y-74919771D02*
X77437857Y-74919771D01*
X77437857Y-74919771D02*
X77495000Y-74948342D01*
X77495000Y-74948342D02*
X77523572Y-74976914D01*
X77523572Y-74976914D02*
X77552143Y-75034057D01*
X77552143Y-75034057D02*
X77552143Y-75205485D01*
X77552143Y-75205485D02*
X77523572Y-75262628D01*
X77523572Y-75262628D02*
X77495000Y-75291200D01*
X77495000Y-75291200D02*
X77437857Y-75319771D01*
X77437857Y-75319771D02*
X77352143Y-75319771D01*
X77809286Y-74919771D02*
X77809286Y-75319771D01*
X77809286Y-74976914D02*
X77837857Y-74948342D01*
X77837857Y-74948342D02*
X77895000Y-74919771D01*
X77895000Y-74919771D02*
X77980714Y-74919771D01*
X77980714Y-74919771D02*
X78037857Y-74948342D01*
X78037857Y-74948342D02*
X78066429Y-75005485D01*
X78066429Y-75005485D02*
X78066429Y-75319771D01*
X78352143Y-74919771D02*
X78352143Y-75319771D01*
X78352143Y-74976914D02*
X78380714Y-74948342D01*
X78380714Y-74948342D02*
X78437857Y-74919771D01*
X78437857Y-74919771D02*
X78523571Y-74919771D01*
X78523571Y-74919771D02*
X78580714Y-74948342D01*
X78580714Y-74948342D02*
X78609286Y-75005485D01*
X78609286Y-75005485D02*
X78609286Y-75319771D01*
X67896666Y-88302295D02*
X67515714Y-88302295D01*
X67515714Y-88302295D02*
X67515714Y-87502295D01*
X68582380Y-88302295D02*
X68125237Y-88302295D01*
X68353809Y-88302295D02*
X68353809Y-87502295D01*
X68353809Y-87502295D02*
X68277618Y-87616580D01*
X68277618Y-87616580D02*
X68201428Y-87692771D01*
X68201428Y-87692771D02*
X68125237Y-87730866D01*
G36*
X66026999Y-61159980D02*
G01*
X66038359Y-61171340D01*
X66053571Y-61201762D01*
X66053571Y-61252065D01*
X66038360Y-61282486D01*
X66027001Y-61293845D01*
X65996579Y-61309057D01*
X65860714Y-61309057D01*
X65860714Y-61144771D01*
X65996581Y-61144771D01*
X66026999Y-61159980D01*
G37*
G36*
X68448559Y-61819771D02*
G01*
X65635714Y-61819771D01*
X65635714Y-61069771D01*
X65710714Y-61069771D01*
X65710714Y-61669771D01*
X65712155Y-61684403D01*
X65723354Y-61711439D01*
X65744046Y-61732131D01*
X65771082Y-61743330D01*
X65800346Y-61743330D01*
X65827382Y-61732131D01*
X65848074Y-61711439D01*
X65859273Y-61684403D01*
X65860714Y-61669771D01*
X65860714Y-61459057D01*
X65889522Y-61459057D01*
X66067128Y-61712780D01*
X66076700Y-61723941D01*
X66101378Y-61739667D01*
X66130196Y-61744753D01*
X66158767Y-61738423D01*
X66182741Y-61721642D01*
X66198468Y-61696963D01*
X66203553Y-61668145D01*
X66197223Y-61639574D01*
X66190013Y-61626761D01*
X66062086Y-61444008D01*
X66104969Y-61422567D01*
X66111265Y-61418603D01*
X66113096Y-61417845D01*
X66115157Y-61416153D01*
X66117412Y-61414734D01*
X66118708Y-61413238D01*
X66124461Y-61408518D01*
X66153032Y-61379947D01*
X66157752Y-61374194D01*
X66159248Y-61372898D01*
X66160667Y-61370643D01*
X66162359Y-61368582D01*
X66163117Y-61366751D01*
X66167081Y-61360455D01*
X66195653Y-61303313D01*
X66200908Y-61289581D01*
X66201099Y-61286891D01*
X66202130Y-61284403D01*
X66203571Y-61269771D01*
X66203571Y-61184057D01*
X66202130Y-61169425D01*
X66201099Y-61166936D01*
X66200908Y-61164247D01*
X66195653Y-61150515D01*
X66167081Y-61093373D01*
X66163118Y-61087078D01*
X66162360Y-61085247D01*
X66160666Y-61083183D01*
X66159248Y-61080930D01*
X66157753Y-61079633D01*
X66153033Y-61073882D01*
X66148922Y-61069771D01*
X66310714Y-61069771D01*
X66310714Y-61669771D01*
X66312155Y-61684403D01*
X66323354Y-61711439D01*
X66344046Y-61732131D01*
X66371082Y-61743330D01*
X66385714Y-61744771D01*
X66671428Y-61744771D01*
X66686060Y-61743330D01*
X66713096Y-61732131D01*
X66733788Y-61711439D01*
X66744987Y-61684403D01*
X66744987Y-61655139D01*
X66733788Y-61628103D01*
X66713096Y-61607411D01*
X66686060Y-61596212D01*
X66671428Y-61594771D01*
X66460714Y-61594771D01*
X66460714Y-61430485D01*
X66585714Y-61430485D01*
X66600346Y-61429044D01*
X66627382Y-61417845D01*
X66648074Y-61397153D01*
X66659273Y-61370117D01*
X66659273Y-61340853D01*
X66648074Y-61313817D01*
X66627382Y-61293125D01*
X66600346Y-61281926D01*
X66585714Y-61280485D01*
X66460714Y-61280485D01*
X66460714Y-61184057D01*
X66824999Y-61184057D01*
X66824999Y-61241200D01*
X66826440Y-61255832D01*
X66827470Y-61258320D01*
X66827662Y-61261010D01*
X66832917Y-61274742D01*
X66861489Y-61331884D01*
X66865452Y-61338180D01*
X66866210Y-61340009D01*
X66867900Y-61342068D01*
X66869322Y-61344327D01*
X66870819Y-61345625D01*
X66875537Y-61351374D01*
X66904108Y-61379946D01*
X66909862Y-61384669D01*
X66911159Y-61386164D01*
X66913411Y-61387581D01*
X66915473Y-61389274D01*
X66917305Y-61390032D01*
X66923601Y-61393996D01*
X66980745Y-61422567D01*
X66981812Y-61422975D01*
X66982249Y-61423299D01*
X66988409Y-61425500D01*
X66994477Y-61427822D01*
X66995015Y-61427860D01*
X66996095Y-61428246D01*
X67102396Y-61454822D01*
X67141285Y-61474266D01*
X67152645Y-61485626D01*
X67167856Y-61516047D01*
X67167856Y-61537780D01*
X67152645Y-61568201D01*
X67141285Y-61579561D01*
X67110867Y-61594771D01*
X66997885Y-61594771D01*
X66923716Y-61570049D01*
X66909379Y-61566789D01*
X66880189Y-61568864D01*
X66854015Y-61581951D01*
X66834842Y-61604058D01*
X66825588Y-61631820D01*
X66827663Y-61661010D01*
X66840750Y-61687184D01*
X66862857Y-61706357D01*
X66876282Y-61712351D01*
X66961997Y-61740922D01*
X66969250Y-61742571D01*
X66971082Y-61743330D01*
X66973736Y-61743591D01*
X66976334Y-61744182D01*
X66978308Y-61744041D01*
X66985714Y-61744771D01*
X67128571Y-61744771D01*
X67143203Y-61743330D01*
X67145692Y-61742298D01*
X67148380Y-61742108D01*
X67162112Y-61736853D01*
X67219255Y-61708282D01*
X67225552Y-61704318D01*
X67227383Y-61703560D01*
X67229442Y-61701869D01*
X67231698Y-61700450D01*
X67232996Y-61698952D01*
X67238748Y-61694232D01*
X67267319Y-61665660D01*
X67272039Y-61659907D01*
X67273535Y-61658611D01*
X67274954Y-61656356D01*
X67276646Y-61654295D01*
X67277404Y-61652464D01*
X67281367Y-61646169D01*
X67309938Y-61589025D01*
X67315193Y-61575293D01*
X67315383Y-61572606D01*
X67316415Y-61570117D01*
X67317856Y-61555485D01*
X67317856Y-61498342D01*
X67316415Y-61483710D01*
X67315383Y-61481220D01*
X67315193Y-61478533D01*
X67309938Y-61464801D01*
X67281367Y-61407659D01*
X67277403Y-61401362D01*
X67276646Y-61399533D01*
X67274956Y-61397474D01*
X67273535Y-61395216D01*
X67272036Y-61393916D01*
X67267319Y-61388168D01*
X67238748Y-61359596D01*
X67232996Y-61354875D01*
X67231698Y-61353378D01*
X67229442Y-61351958D01*
X67227383Y-61350268D01*
X67225552Y-61349509D01*
X67219255Y-61345546D01*
X67162112Y-61316975D01*
X67161042Y-61316565D01*
X67160607Y-61316243D01*
X67154461Y-61314047D01*
X67148380Y-61311720D01*
X67147840Y-61311681D01*
X67146761Y-61311296D01*
X67040460Y-61284720D01*
X67001569Y-61265275D01*
X66990210Y-61253916D01*
X66974999Y-61223493D01*
X66974999Y-61201762D01*
X66990210Y-61171339D01*
X67001569Y-61159980D01*
X67031990Y-61144771D01*
X67144972Y-61144771D01*
X67219139Y-61169493D01*
X67233476Y-61172753D01*
X67262666Y-61170678D01*
X67288839Y-61157591D01*
X67308013Y-61135484D01*
X67317267Y-61107722D01*
X67315192Y-61078532D01*
X67310811Y-61069771D01*
X67425000Y-61069771D01*
X67425000Y-61669771D01*
X67426441Y-61684403D01*
X67437640Y-61711439D01*
X67458332Y-61732131D01*
X67485368Y-61743330D01*
X67500000Y-61744771D01*
X67785714Y-61744771D01*
X67800346Y-61743330D01*
X67827382Y-61732131D01*
X67848074Y-61711439D01*
X67859273Y-61684403D01*
X67859273Y-61655139D01*
X67848074Y-61628103D01*
X67827382Y-61607411D01*
X67800346Y-61596212D01*
X67785714Y-61594771D01*
X67575000Y-61594771D01*
X67575000Y-61430485D01*
X67700000Y-61430485D01*
X67714632Y-61429044D01*
X67741668Y-61417845D01*
X67762360Y-61397153D01*
X67773559Y-61370117D01*
X67773559Y-61340853D01*
X67762360Y-61313817D01*
X67741668Y-61293125D01*
X67714632Y-61281926D01*
X67700000Y-61280485D01*
X67575000Y-61280485D01*
X67575000Y-61144771D01*
X67785714Y-61144771D01*
X67800346Y-61143330D01*
X67827382Y-61132131D01*
X67848074Y-61111439D01*
X67859273Y-61084403D01*
X67859273Y-61055139D01*
X67883583Y-61055139D01*
X67883583Y-61084403D01*
X67894782Y-61111439D01*
X67915474Y-61132131D01*
X67942510Y-61143330D01*
X67957142Y-61144771D01*
X68053571Y-61144771D01*
X68053571Y-61669771D01*
X68055012Y-61684403D01*
X68066211Y-61711439D01*
X68086903Y-61732131D01*
X68113939Y-61743330D01*
X68143203Y-61743330D01*
X68170239Y-61732131D01*
X68190931Y-61711439D01*
X68202130Y-61684403D01*
X68203571Y-61669771D01*
X68203571Y-61144771D01*
X68300000Y-61144771D01*
X68314632Y-61143330D01*
X68341668Y-61132131D01*
X68362360Y-61111439D01*
X68373559Y-61084403D01*
X68373559Y-61055139D01*
X68362360Y-61028103D01*
X68341668Y-61007411D01*
X68314632Y-60996212D01*
X68300000Y-60994771D01*
X67957142Y-60994771D01*
X67942510Y-60996212D01*
X67915474Y-61007411D01*
X67894782Y-61028103D01*
X67883583Y-61055139D01*
X67859273Y-61055139D01*
X67848074Y-61028103D01*
X67827382Y-61007411D01*
X67800346Y-60996212D01*
X67785714Y-60994771D01*
X67500000Y-60994771D01*
X67485368Y-60996212D01*
X67458332Y-61007411D01*
X67437640Y-61028103D01*
X67426441Y-61055139D01*
X67425000Y-61069771D01*
X67310811Y-61069771D01*
X67302105Y-61052358D01*
X67279998Y-61033185D01*
X67266572Y-61027191D01*
X67180859Y-60998620D01*
X67173605Y-60996970D01*
X67171774Y-60996212D01*
X67169119Y-60995950D01*
X67166522Y-60995360D01*
X67164547Y-60995500D01*
X67157142Y-60994771D01*
X67014285Y-60994771D01*
X66999653Y-60996212D01*
X66997163Y-60997243D01*
X66994477Y-60997434D01*
X66980745Y-61002689D01*
X66923601Y-61031260D01*
X66917305Y-61035223D01*
X66915473Y-61035982D01*
X66913411Y-61037674D01*
X66911159Y-61039092D01*
X66909862Y-61040586D01*
X66904108Y-61045310D01*
X66875537Y-61073882D01*
X66870816Y-61079633D01*
X66869322Y-61080930D01*
X66867903Y-61083183D01*
X66866210Y-61085247D01*
X66865451Y-61087078D01*
X66861489Y-61093373D01*
X66832917Y-61150516D01*
X66827662Y-61164247D01*
X66827470Y-61166936D01*
X66826440Y-61169425D01*
X66824999Y-61184057D01*
X66460714Y-61184057D01*
X66460714Y-61144771D01*
X66671428Y-61144771D01*
X66686060Y-61143330D01*
X66713096Y-61132131D01*
X66733788Y-61111439D01*
X66744987Y-61084403D01*
X66744987Y-61055139D01*
X66733788Y-61028103D01*
X66713096Y-61007411D01*
X66686060Y-60996212D01*
X66671428Y-60994771D01*
X66385714Y-60994771D01*
X66371082Y-60996212D01*
X66344046Y-61007411D01*
X66323354Y-61028103D01*
X66312155Y-61055139D01*
X66310714Y-61069771D01*
X66148922Y-61069771D01*
X66124462Y-61045310D01*
X66118710Y-61040589D01*
X66117412Y-61039092D01*
X66115156Y-61037672D01*
X66113097Y-61035982D01*
X66111266Y-61035223D01*
X66104969Y-61031260D01*
X66047826Y-61002689D01*
X66034094Y-60997434D01*
X66031406Y-60997243D01*
X66028917Y-60996212D01*
X66014285Y-60994771D01*
X65785714Y-60994771D01*
X65771082Y-60996212D01*
X65744046Y-61007411D01*
X65723354Y-61028103D01*
X65712155Y-61055139D01*
X65710714Y-61069771D01*
X65635714Y-61069771D01*
X65635714Y-60919771D01*
X68448559Y-60919771D01*
X68448559Y-61819771D01*
G37*
X63309523Y-87062295D02*
X63804761Y-87062295D01*
X63804761Y-87062295D02*
X63538095Y-87367057D01*
X63538095Y-87367057D02*
X63652380Y-87367057D01*
X63652380Y-87367057D02*
X63728571Y-87405152D01*
X63728571Y-87405152D02*
X63766666Y-87443247D01*
X63766666Y-87443247D02*
X63804761Y-87519438D01*
X63804761Y-87519438D02*
X63804761Y-87709914D01*
X63804761Y-87709914D02*
X63766666Y-87786104D01*
X63766666Y-87786104D02*
X63728571Y-87824200D01*
X63728571Y-87824200D02*
X63652380Y-87862295D01*
X63652380Y-87862295D02*
X63423809Y-87862295D01*
X63423809Y-87862295D02*
X63347618Y-87824200D01*
X63347618Y-87824200D02*
X63309523Y-87786104D01*
X64033333Y-87062295D02*
X64300000Y-87862295D01*
X64300000Y-87862295D02*
X64566666Y-87062295D01*
X64757142Y-87062295D02*
X65252380Y-87062295D01*
X65252380Y-87062295D02*
X64985714Y-87367057D01*
X64985714Y-87367057D02*
X65099999Y-87367057D01*
X65099999Y-87367057D02*
X65176190Y-87405152D01*
X65176190Y-87405152D02*
X65214285Y-87443247D01*
X65214285Y-87443247D02*
X65252380Y-87519438D01*
X65252380Y-87519438D02*
X65252380Y-87709914D01*
X65252380Y-87709914D02*
X65214285Y-87786104D01*
X65214285Y-87786104D02*
X65176190Y-87824200D01*
X65176190Y-87824200D02*
X65099999Y-87862295D01*
X65099999Y-87862295D02*
X64871428Y-87862295D01*
X64871428Y-87862295D02*
X64795237Y-87824200D01*
X64795237Y-87824200D02*
X64757142Y-87786104D01*
X77250476Y-91630390D02*
X77174286Y-91592295D01*
X77174286Y-91592295D02*
X77060000Y-91592295D01*
X77060000Y-91592295D02*
X76945714Y-91630390D01*
X76945714Y-91630390D02*
X76869524Y-91706580D01*
X76869524Y-91706580D02*
X76831429Y-91782771D01*
X76831429Y-91782771D02*
X76793333Y-91935152D01*
X76793333Y-91935152D02*
X76793333Y-92049438D01*
X76793333Y-92049438D02*
X76831429Y-92201819D01*
X76831429Y-92201819D02*
X76869524Y-92278009D01*
X76869524Y-92278009D02*
X76945714Y-92354200D01*
X76945714Y-92354200D02*
X77060000Y-92392295D01*
X77060000Y-92392295D02*
X77136191Y-92392295D01*
X77136191Y-92392295D02*
X77250476Y-92354200D01*
X77250476Y-92354200D02*
X77288572Y-92316104D01*
X77288572Y-92316104D02*
X77288572Y-92049438D01*
X77288572Y-92049438D02*
X77136191Y-92049438D01*
X77631429Y-92392295D02*
X77631429Y-91592295D01*
X77631429Y-91592295D02*
X78088572Y-92392295D01*
X78088572Y-92392295D02*
X78088572Y-91592295D01*
X78469524Y-92392295D02*
X78469524Y-91592295D01*
X78469524Y-91592295D02*
X78660000Y-91592295D01*
X78660000Y-91592295D02*
X78774286Y-91630390D01*
X78774286Y-91630390D02*
X78850476Y-91706580D01*
X78850476Y-91706580D02*
X78888571Y-91782771D01*
X78888571Y-91782771D02*
X78926667Y-91935152D01*
X78926667Y-91935152D02*
X78926667Y-92049438D01*
X78926667Y-92049438D02*
X78888571Y-92201819D01*
X78888571Y-92201819D02*
X78850476Y-92278009D01*
X78850476Y-92278009D02*
X78774286Y-92354200D01*
X78774286Y-92354200D02*
X78660000Y-92392295D01*
X78660000Y-92392295D02*
X78469524Y-92392295D01*
X35420476Y-97570390D02*
X35344286Y-97532295D01*
X35344286Y-97532295D02*
X35230000Y-97532295D01*
X35230000Y-97532295D02*
X35115714Y-97570390D01*
X35115714Y-97570390D02*
X35039524Y-97646580D01*
X35039524Y-97646580D02*
X35001429Y-97722771D01*
X35001429Y-97722771D02*
X34963333Y-97875152D01*
X34963333Y-97875152D02*
X34963333Y-97989438D01*
X34963333Y-97989438D02*
X35001429Y-98141819D01*
X35001429Y-98141819D02*
X35039524Y-98218009D01*
X35039524Y-98218009D02*
X35115714Y-98294200D01*
X35115714Y-98294200D02*
X35230000Y-98332295D01*
X35230000Y-98332295D02*
X35306191Y-98332295D01*
X35306191Y-98332295D02*
X35420476Y-98294200D01*
X35420476Y-98294200D02*
X35458572Y-98256104D01*
X35458572Y-98256104D02*
X35458572Y-97989438D01*
X35458572Y-97989438D02*
X35306191Y-97989438D01*
X35801429Y-98332295D02*
X35801429Y-97532295D01*
X35801429Y-97532295D02*
X36258572Y-98332295D01*
X36258572Y-98332295D02*
X36258572Y-97532295D01*
X36639524Y-98332295D02*
X36639524Y-97532295D01*
X36639524Y-97532295D02*
X36830000Y-97532295D01*
X36830000Y-97532295D02*
X36944286Y-97570390D01*
X36944286Y-97570390D02*
X37020476Y-97646580D01*
X37020476Y-97646580D02*
X37058571Y-97722771D01*
X37058571Y-97722771D02*
X37096667Y-97875152D01*
X37096667Y-97875152D02*
X37096667Y-97989438D01*
X37096667Y-97989438D02*
X37058571Y-98141819D01*
X37058571Y-98141819D02*
X37020476Y-98218009D01*
X37020476Y-98218009D02*
X36944286Y-98294200D01*
X36944286Y-98294200D02*
X36830000Y-98332295D01*
X36830000Y-98332295D02*
X36639524Y-98332295D01*
X57408571Y-87862295D02*
X57675238Y-88662295D01*
X57675238Y-88662295D02*
X57941904Y-87862295D01*
X58170475Y-88624200D02*
X58284761Y-88662295D01*
X58284761Y-88662295D02*
X58475237Y-88662295D01*
X58475237Y-88662295D02*
X58551428Y-88624200D01*
X58551428Y-88624200D02*
X58589523Y-88586104D01*
X58589523Y-88586104D02*
X58627618Y-88509914D01*
X58627618Y-88509914D02*
X58627618Y-88433723D01*
X58627618Y-88433723D02*
X58589523Y-88357533D01*
X58589523Y-88357533D02*
X58551428Y-88319438D01*
X58551428Y-88319438D02*
X58475237Y-88281342D01*
X58475237Y-88281342D02*
X58322856Y-88243247D01*
X58322856Y-88243247D02*
X58246666Y-88205152D01*
X58246666Y-88205152D02*
X58208571Y-88167057D01*
X58208571Y-88167057D02*
X58170475Y-88090866D01*
X58170475Y-88090866D02*
X58170475Y-88014676D01*
X58170475Y-88014676D02*
X58208571Y-87938485D01*
X58208571Y-87938485D02*
X58246666Y-87900390D01*
X58246666Y-87900390D02*
X58322856Y-87862295D01*
X58322856Y-87862295D02*
X58513333Y-87862295D01*
X58513333Y-87862295D02*
X58627618Y-87900390D01*
X59122857Y-88281342D02*
X59122857Y-88662295D01*
X58856190Y-87862295D02*
X59122857Y-88281342D01*
X59122857Y-88281342D02*
X59389523Y-87862295D01*
X59618094Y-88624200D02*
X59732380Y-88662295D01*
X59732380Y-88662295D02*
X59922856Y-88662295D01*
X59922856Y-88662295D02*
X59999047Y-88624200D01*
X59999047Y-88624200D02*
X60037142Y-88586104D01*
X60037142Y-88586104D02*
X60075237Y-88509914D01*
X60075237Y-88509914D02*
X60075237Y-88433723D01*
X60075237Y-88433723D02*
X60037142Y-88357533D01*
X60037142Y-88357533D02*
X59999047Y-88319438D01*
X59999047Y-88319438D02*
X59922856Y-88281342D01*
X59922856Y-88281342D02*
X59770475Y-88243247D01*
X59770475Y-88243247D02*
X59694285Y-88205152D01*
X59694285Y-88205152D02*
X59656190Y-88167057D01*
X59656190Y-88167057D02*
X59618094Y-88090866D01*
X59618094Y-88090866D02*
X59618094Y-88014676D01*
X59618094Y-88014676D02*
X59656190Y-87938485D01*
X59656190Y-87938485D02*
X59694285Y-87900390D01*
X59694285Y-87900390D02*
X59770475Y-87862295D01*
X59770475Y-87862295D02*
X59960952Y-87862295D01*
X59960952Y-87862295D02*
X60075237Y-87900390D01*
X45054761Y-100093247D02*
X45169047Y-100131342D01*
X45169047Y-100131342D02*
X45207142Y-100169438D01*
X45207142Y-100169438D02*
X45245238Y-100245628D01*
X45245238Y-100245628D02*
X45245238Y-100359914D01*
X45245238Y-100359914D02*
X45207142Y-100436104D01*
X45207142Y-100436104D02*
X45169047Y-100474200D01*
X45169047Y-100474200D02*
X45092857Y-100512295D01*
X45092857Y-100512295D02*
X44788095Y-100512295D01*
X44788095Y-100512295D02*
X44788095Y-99712295D01*
X44788095Y-99712295D02*
X45054761Y-99712295D01*
X45054761Y-99712295D02*
X45130952Y-99750390D01*
X45130952Y-99750390D02*
X45169047Y-99788485D01*
X45169047Y-99788485D02*
X45207142Y-99864676D01*
X45207142Y-99864676D02*
X45207142Y-99940866D01*
X45207142Y-99940866D02*
X45169047Y-100017057D01*
X45169047Y-100017057D02*
X45130952Y-100055152D01*
X45130952Y-100055152D02*
X45054761Y-100093247D01*
X45054761Y-100093247D02*
X44788095Y-100093247D01*
X45549999Y-100283723D02*
X45930952Y-100283723D01*
X45473809Y-100512295D02*
X45740476Y-99712295D01*
X45740476Y-99712295D02*
X46007142Y-100512295D01*
X46159523Y-99712295D02*
X46616666Y-99712295D01*
X46388094Y-100512295D02*
X46388094Y-99712295D01*
X46769047Y-99712295D02*
X47226190Y-99712295D01*
X46997618Y-100512295D02*
X46997618Y-99712295D01*
X47790476Y-70412295D02*
X47790476Y-71059914D01*
X47790476Y-71059914D02*
X47828571Y-71136104D01*
X47828571Y-71136104D02*
X47866666Y-71174200D01*
X47866666Y-71174200D02*
X47942857Y-71212295D01*
X47942857Y-71212295D02*
X48095238Y-71212295D01*
X48095238Y-71212295D02*
X48171428Y-71174200D01*
X48171428Y-71174200D02*
X48209523Y-71136104D01*
X48209523Y-71136104D02*
X48247619Y-71059914D01*
X48247619Y-71059914D02*
X48247619Y-70412295D01*
X48552380Y-70412295D02*
X49047618Y-70412295D01*
X49047618Y-70412295D02*
X48780952Y-70717057D01*
X48780952Y-70717057D02*
X48895237Y-70717057D01*
X48895237Y-70717057D02*
X48971428Y-70755152D01*
X48971428Y-70755152D02*
X49009523Y-70793247D01*
X49009523Y-70793247D02*
X49047618Y-70869438D01*
X49047618Y-70869438D02*
X49047618Y-71059914D01*
X49047618Y-71059914D02*
X49009523Y-71136104D01*
X49009523Y-71136104D02*
X48971428Y-71174200D01*
X48971428Y-71174200D02*
X48895237Y-71212295D01*
X48895237Y-71212295D02*
X48666666Y-71212295D01*
X48666666Y-71212295D02*
X48590475Y-71174200D01*
X48590475Y-71174200D02*
X48552380Y-71136104D01*
X70240476Y-94662295D02*
X70240476Y-95309914D01*
X70240476Y-95309914D02*
X70278571Y-95386104D01*
X70278571Y-95386104D02*
X70316666Y-95424200D01*
X70316666Y-95424200D02*
X70392857Y-95462295D01*
X70392857Y-95462295D02*
X70545238Y-95462295D01*
X70545238Y-95462295D02*
X70621428Y-95424200D01*
X70621428Y-95424200D02*
X70659523Y-95386104D01*
X70659523Y-95386104D02*
X70697619Y-95309914D01*
X70697619Y-95309914D02*
X70697619Y-94662295D01*
X71421428Y-94928961D02*
X71421428Y-95462295D01*
X71230952Y-94624200D02*
X71040475Y-95195628D01*
X71040475Y-95195628D02*
X71535714Y-95195628D01*
X44140476Y-76562295D02*
X44140476Y-77209914D01*
X44140476Y-77209914D02*
X44178571Y-77286104D01*
X44178571Y-77286104D02*
X44216666Y-77324200D01*
X44216666Y-77324200D02*
X44292857Y-77362295D01*
X44292857Y-77362295D02*
X44445238Y-77362295D01*
X44445238Y-77362295D02*
X44521428Y-77324200D01*
X44521428Y-77324200D02*
X44559523Y-77286104D01*
X44559523Y-77286104D02*
X44597619Y-77209914D01*
X44597619Y-77209914D02*
X44597619Y-76562295D01*
X44940475Y-76638485D02*
X44978571Y-76600390D01*
X44978571Y-76600390D02*
X45054761Y-76562295D01*
X45054761Y-76562295D02*
X45245237Y-76562295D01*
X45245237Y-76562295D02*
X45321428Y-76600390D01*
X45321428Y-76600390D02*
X45359523Y-76638485D01*
X45359523Y-76638485D02*
X45397618Y-76714676D01*
X45397618Y-76714676D02*
X45397618Y-76790866D01*
X45397618Y-76790866D02*
X45359523Y-76905152D01*
X45359523Y-76905152D02*
X44902380Y-77362295D01*
X44902380Y-77362295D02*
X45397618Y-77362295D01*
X64819048Y-80981342D02*
X64819048Y-81362295D01*
X64552381Y-80562295D02*
X64819048Y-80981342D01*
X64819048Y-80981342D02*
X65085714Y-80562295D01*
X65771428Y-81362295D02*
X65314285Y-81362295D01*
X65542857Y-81362295D02*
X65542857Y-80562295D01*
X65542857Y-80562295D02*
X65466666Y-80676580D01*
X65466666Y-80676580D02*
X65390476Y-80752771D01*
X65390476Y-80752771D02*
X65314285Y-80790866D01*
X69019048Y-76481342D02*
X69019048Y-76862295D01*
X68752381Y-76062295D02*
X69019048Y-76481342D01*
X69019048Y-76481342D02*
X69285714Y-76062295D01*
X69514285Y-76138485D02*
X69552381Y-76100390D01*
X69552381Y-76100390D02*
X69628571Y-76062295D01*
X69628571Y-76062295D02*
X69819047Y-76062295D01*
X69819047Y-76062295D02*
X69895238Y-76100390D01*
X69895238Y-76100390D02*
X69933333Y-76138485D01*
X69933333Y-76138485D02*
X69971428Y-76214676D01*
X69971428Y-76214676D02*
X69971428Y-76290866D01*
X69971428Y-76290866D02*
X69933333Y-76405152D01*
X69933333Y-76405152D02*
X69476190Y-76862295D01*
X69476190Y-76862295D02*
X69971428Y-76862295D01*
X57523809Y-98188485D02*
X57447619Y-98150390D01*
X57447619Y-98150390D02*
X57371428Y-98074200D01*
X57371428Y-98074200D02*
X57257142Y-97959914D01*
X57257142Y-97959914D02*
X57180952Y-97921819D01*
X57180952Y-97921819D02*
X57104761Y-97921819D01*
X57142857Y-98112295D02*
X57066666Y-98074200D01*
X57066666Y-98074200D02*
X56990476Y-97998009D01*
X56990476Y-97998009D02*
X56952380Y-97845628D01*
X56952380Y-97845628D02*
X56952380Y-97578961D01*
X56952380Y-97578961D02*
X56990476Y-97426580D01*
X56990476Y-97426580D02*
X57066666Y-97350390D01*
X57066666Y-97350390D02*
X57142857Y-97312295D01*
X57142857Y-97312295D02*
X57295238Y-97312295D01*
X57295238Y-97312295D02*
X57371428Y-97350390D01*
X57371428Y-97350390D02*
X57447619Y-97426580D01*
X57447619Y-97426580D02*
X57485714Y-97578961D01*
X57485714Y-97578961D02*
X57485714Y-97845628D01*
X57485714Y-97845628D02*
X57447619Y-97998009D01*
X57447619Y-97998009D02*
X57371428Y-98074200D01*
X57371428Y-98074200D02*
X57295238Y-98112295D01*
X57295238Y-98112295D02*
X57142857Y-98112295D01*
X58247618Y-98112295D02*
X57790475Y-98112295D01*
X58019047Y-98112295D02*
X58019047Y-97312295D01*
X58019047Y-97312295D02*
X57942856Y-97426580D01*
X57942856Y-97426580D02*
X57866666Y-97502771D01*
X57866666Y-97502771D02*
X57790475Y-97540866D01*
X37233333Y-86222295D02*
X37500000Y-87022295D01*
X37500000Y-87022295D02*
X37766666Y-86222295D01*
X38299999Y-86603247D02*
X38414285Y-86641342D01*
X38414285Y-86641342D02*
X38452380Y-86679438D01*
X38452380Y-86679438D02*
X38490476Y-86755628D01*
X38490476Y-86755628D02*
X38490476Y-86869914D01*
X38490476Y-86869914D02*
X38452380Y-86946104D01*
X38452380Y-86946104D02*
X38414285Y-86984200D01*
X38414285Y-86984200D02*
X38338095Y-87022295D01*
X38338095Y-87022295D02*
X38033333Y-87022295D01*
X38033333Y-87022295D02*
X38033333Y-86222295D01*
X38033333Y-86222295D02*
X38299999Y-86222295D01*
X38299999Y-86222295D02*
X38376190Y-86260390D01*
X38376190Y-86260390D02*
X38414285Y-86298485D01*
X38414285Y-86298485D02*
X38452380Y-86374676D01*
X38452380Y-86374676D02*
X38452380Y-86450866D01*
X38452380Y-86450866D02*
X38414285Y-86527057D01*
X38414285Y-86527057D02*
X38376190Y-86565152D01*
X38376190Y-86565152D02*
X38299999Y-86603247D01*
X38299999Y-86603247D02*
X38033333Y-86603247D01*
X38833333Y-86222295D02*
X38833333Y-86869914D01*
X38833333Y-86869914D02*
X38871428Y-86946104D01*
X38871428Y-86946104D02*
X38909523Y-86984200D01*
X38909523Y-86984200D02*
X38985714Y-87022295D01*
X38985714Y-87022295D02*
X39138095Y-87022295D01*
X39138095Y-87022295D02*
X39214285Y-86984200D01*
X39214285Y-86984200D02*
X39252380Y-86946104D01*
X39252380Y-86946104D02*
X39290476Y-86869914D01*
X39290476Y-86869914D02*
X39290476Y-86222295D01*
X39633332Y-86984200D02*
X39747618Y-87022295D01*
X39747618Y-87022295D02*
X39938094Y-87022295D01*
X39938094Y-87022295D02*
X40014285Y-86984200D01*
X40014285Y-86984200D02*
X40052380Y-86946104D01*
X40052380Y-86946104D02*
X40090475Y-86869914D01*
X40090475Y-86869914D02*
X40090475Y-86793723D01*
X40090475Y-86793723D02*
X40052380Y-86717533D01*
X40052380Y-86717533D02*
X40014285Y-86679438D01*
X40014285Y-86679438D02*
X39938094Y-86641342D01*
X39938094Y-86641342D02*
X39785713Y-86603247D01*
X39785713Y-86603247D02*
X39709523Y-86565152D01*
X39709523Y-86565152D02*
X39671428Y-86527057D01*
X39671428Y-86527057D02*
X39633332Y-86450866D01*
X39633332Y-86450866D02*
X39633332Y-86374676D01*
X39633332Y-86374676D02*
X39671428Y-86298485D01*
X39671428Y-86298485D02*
X39709523Y-86260390D01*
X39709523Y-86260390D02*
X39785713Y-86222295D01*
X39785713Y-86222295D02*
X39976190Y-86222295D01*
X39976190Y-86222295D02*
X40090475Y-86260390D01*
X71609524Y-78862295D02*
X71609524Y-78062295D01*
X71609524Y-78062295D02*
X71800000Y-78062295D01*
X71800000Y-78062295D02*
X71914286Y-78100390D01*
X71914286Y-78100390D02*
X71990476Y-78176580D01*
X71990476Y-78176580D02*
X72028571Y-78252771D01*
X72028571Y-78252771D02*
X72066667Y-78405152D01*
X72066667Y-78405152D02*
X72066667Y-78519438D01*
X72066667Y-78519438D02*
X72028571Y-78671819D01*
X72028571Y-78671819D02*
X71990476Y-78748009D01*
X71990476Y-78748009D02*
X71914286Y-78824200D01*
X71914286Y-78824200D02*
X71800000Y-78862295D01*
X71800000Y-78862295D02*
X71609524Y-78862295D01*
X72371428Y-78138485D02*
X72409524Y-78100390D01*
X72409524Y-78100390D02*
X72485714Y-78062295D01*
X72485714Y-78062295D02*
X72676190Y-78062295D01*
X72676190Y-78062295D02*
X72752381Y-78100390D01*
X72752381Y-78100390D02*
X72790476Y-78138485D01*
X72790476Y-78138485D02*
X72828571Y-78214676D01*
X72828571Y-78214676D02*
X72828571Y-78290866D01*
X72828571Y-78290866D02*
X72790476Y-78405152D01*
X72790476Y-78405152D02*
X72333333Y-78862295D01*
X72333333Y-78862295D02*
X72828571Y-78862295D01*
X53790357Y-84992295D02*
X53790357Y-84192295D01*
X53790357Y-84192295D02*
X53980833Y-84192295D01*
X53980833Y-84192295D02*
X54095119Y-84230390D01*
X54095119Y-84230390D02*
X54171309Y-84306580D01*
X54171309Y-84306580D02*
X54209404Y-84382771D01*
X54209404Y-84382771D02*
X54247500Y-84535152D01*
X54247500Y-84535152D02*
X54247500Y-84649438D01*
X54247500Y-84649438D02*
X54209404Y-84801819D01*
X54209404Y-84801819D02*
X54171309Y-84878009D01*
X54171309Y-84878009D02*
X54095119Y-84954200D01*
X54095119Y-84954200D02*
X53980833Y-84992295D01*
X53980833Y-84992295D02*
X53790357Y-84992295D01*
X54514166Y-84192295D02*
X55009404Y-84192295D01*
X55009404Y-84192295D02*
X54742738Y-84497057D01*
X54742738Y-84497057D02*
X54857023Y-84497057D01*
X54857023Y-84497057D02*
X54933214Y-84535152D01*
X54933214Y-84535152D02*
X54971309Y-84573247D01*
X54971309Y-84573247D02*
X55009404Y-84649438D01*
X55009404Y-84649438D02*
X55009404Y-84839914D01*
X55009404Y-84839914D02*
X54971309Y-84916104D01*
X54971309Y-84916104D02*
X54933214Y-84954200D01*
X54933214Y-84954200D02*
X54857023Y-84992295D01*
X54857023Y-84992295D02*
X54628452Y-84992295D01*
X54628452Y-84992295D02*
X54552261Y-84954200D01*
X54552261Y-84954200D02*
X54514166Y-84916104D01*
G36*
X67655571Y-56659980D02*
G01*
X67666931Y-56671340D01*
X67682143Y-56701762D01*
X67682143Y-56752065D01*
X67666932Y-56782486D01*
X67655573Y-56793845D01*
X67625151Y-56809057D01*
X67489286Y-56809057D01*
X67489286Y-56644771D01*
X67625153Y-56644771D01*
X67655571Y-56659980D01*
G37*
G36*
X67907143Y-57319771D02*
G01*
X65521429Y-57319771D01*
X65521429Y-56569771D01*
X65596429Y-56569771D01*
X65596429Y-57055485D01*
X65597870Y-57070117D01*
X65598901Y-57072606D01*
X65599092Y-57075294D01*
X65604347Y-57089026D01*
X65632918Y-57146169D01*
X65636882Y-57152468D01*
X65637640Y-57154296D01*
X65639328Y-57156352D01*
X65640750Y-57158612D01*
X65642248Y-57159911D01*
X65646967Y-57165661D01*
X65675539Y-57194233D01*
X65681289Y-57198953D01*
X65682588Y-57200450D01*
X65684842Y-57201869D01*
X65686904Y-57203561D01*
X65688736Y-57204319D01*
X65695031Y-57208282D01*
X65752173Y-57236853D01*
X65765905Y-57242108D01*
X65768592Y-57242298D01*
X65771082Y-57243330D01*
X65785714Y-57244771D01*
X65900000Y-57244771D01*
X65914632Y-57243330D01*
X65917121Y-57242298D01*
X65919809Y-57242108D01*
X65933541Y-57236853D01*
X65990684Y-57208282D01*
X65996981Y-57204318D01*
X65998812Y-57203560D01*
X66000871Y-57201869D01*
X66003127Y-57200450D01*
X66004425Y-57198952D01*
X66010177Y-57194232D01*
X66038748Y-57165660D01*
X66043468Y-57159908D01*
X66044963Y-57158612D01*
X66046381Y-57156358D01*
X66048075Y-57154295D01*
X66048833Y-57152463D01*
X66052796Y-57146169D01*
X66081368Y-57089027D01*
X66086623Y-57075295D01*
X66086814Y-57072605D01*
X66087845Y-57070117D01*
X66089286Y-57055485D01*
X66089286Y-56684057D01*
X66196428Y-56684057D01*
X66196428Y-56741200D01*
X66197869Y-56755832D01*
X66198899Y-56758320D01*
X66199091Y-56761010D01*
X66204346Y-56774742D01*
X66232918Y-56831884D01*
X66236881Y-56838180D01*
X66237639Y-56840009D01*
X66239329Y-56842068D01*
X66240751Y-56844327D01*
X66242248Y-56845625D01*
X66246966Y-56851374D01*
X66275537Y-56879946D01*
X66281291Y-56884669D01*
X66282588Y-56886164D01*
X66284840Y-56887581D01*
X66286902Y-56889274D01*
X66288734Y-56890032D01*
X66295030Y-56893996D01*
X66352174Y-56922567D01*
X66353241Y-56922975D01*
X66353678Y-56923299D01*
X66359838Y-56925500D01*
X66365906Y-56927822D01*
X66366444Y-56927860D01*
X66367524Y-56928246D01*
X66473825Y-56954822D01*
X66512714Y-56974266D01*
X66524074Y-56985626D01*
X66539285Y-57016047D01*
X66539285Y-57037780D01*
X66524074Y-57068201D01*
X66512714Y-57079561D01*
X66482296Y-57094771D01*
X66369314Y-57094771D01*
X66295145Y-57070049D01*
X66280808Y-57066789D01*
X66251618Y-57068864D01*
X66225444Y-57081951D01*
X66206271Y-57104058D01*
X66197017Y-57131820D01*
X66199092Y-57161010D01*
X66212179Y-57187184D01*
X66234286Y-57206357D01*
X66247711Y-57212351D01*
X66333426Y-57240922D01*
X66340679Y-57242571D01*
X66342511Y-57243330D01*
X66345165Y-57243591D01*
X66347763Y-57244182D01*
X66349737Y-57244041D01*
X66357143Y-57244771D01*
X66500000Y-57244771D01*
X66514632Y-57243330D01*
X66517121Y-57242298D01*
X66519809Y-57242108D01*
X66533541Y-57236853D01*
X66590684Y-57208282D01*
X66596981Y-57204318D01*
X66598812Y-57203560D01*
X66600871Y-57201869D01*
X66603127Y-57200450D01*
X66604425Y-57198952D01*
X66610177Y-57194232D01*
X66638748Y-57165660D01*
X66643468Y-57159907D01*
X66644964Y-57158611D01*
X66646383Y-57156356D01*
X66648075Y-57154295D01*
X66648833Y-57152464D01*
X66652796Y-57146169D01*
X66681367Y-57089025D01*
X66686622Y-57075293D01*
X66686812Y-57072606D01*
X66687844Y-57070117D01*
X66689285Y-57055485D01*
X66689285Y-56998342D01*
X66687844Y-56983710D01*
X66686812Y-56981220D01*
X66686622Y-56978533D01*
X66681367Y-56964801D01*
X66652796Y-56907659D01*
X66648832Y-56901362D01*
X66648075Y-56899533D01*
X66646385Y-56897474D01*
X66644964Y-56895216D01*
X66643465Y-56893916D01*
X66638748Y-56888168D01*
X66610177Y-56859596D01*
X66604425Y-56854875D01*
X66603127Y-56853378D01*
X66600871Y-56851958D01*
X66598812Y-56850268D01*
X66596981Y-56849509D01*
X66590684Y-56845546D01*
X66533541Y-56816975D01*
X66532471Y-56816565D01*
X66532036Y-56816243D01*
X66525890Y-56814047D01*
X66519809Y-56811720D01*
X66519269Y-56811681D01*
X66518190Y-56811296D01*
X66411889Y-56784720D01*
X66372998Y-56765275D01*
X66361639Y-56753916D01*
X66346428Y-56723493D01*
X66346428Y-56701762D01*
X66361639Y-56671339D01*
X66372998Y-56659980D01*
X66403419Y-56644771D01*
X66516401Y-56644771D01*
X66590568Y-56669493D01*
X66604905Y-56672753D01*
X66634095Y-56670678D01*
X66660268Y-56657591D01*
X66679442Y-56635484D01*
X66688696Y-56607722D01*
X66686621Y-56578532D01*
X66682240Y-56569771D01*
X66796429Y-56569771D01*
X66796429Y-57169771D01*
X66797870Y-57184403D01*
X66809069Y-57211439D01*
X66829761Y-57232131D01*
X66856797Y-57243330D01*
X66871429Y-57244771D01*
X67157143Y-57244771D01*
X67171775Y-57243330D01*
X67198811Y-57232131D01*
X67219503Y-57211439D01*
X67230702Y-57184403D01*
X67230702Y-57155139D01*
X67219503Y-57128103D01*
X67198811Y-57107411D01*
X67171775Y-57096212D01*
X67157143Y-57094771D01*
X66946429Y-57094771D01*
X66946429Y-56930485D01*
X67071429Y-56930485D01*
X67086061Y-56929044D01*
X67113097Y-56917845D01*
X67133789Y-56897153D01*
X67144988Y-56870117D01*
X67144988Y-56840853D01*
X67133789Y-56813817D01*
X67113097Y-56793125D01*
X67086061Y-56781926D01*
X67071429Y-56780485D01*
X66946429Y-56780485D01*
X66946429Y-56644771D01*
X67157143Y-56644771D01*
X67171775Y-56643330D01*
X67198811Y-56632131D01*
X67219503Y-56611439D01*
X67230702Y-56584403D01*
X67230702Y-56569771D01*
X67339286Y-56569771D01*
X67339286Y-57169771D01*
X67340727Y-57184403D01*
X67351926Y-57211439D01*
X67372618Y-57232131D01*
X67399654Y-57243330D01*
X67428918Y-57243330D01*
X67455954Y-57232131D01*
X67476646Y-57211439D01*
X67487845Y-57184403D01*
X67489286Y-57169771D01*
X67489286Y-56959057D01*
X67518094Y-56959057D01*
X67695700Y-57212780D01*
X67705272Y-57223941D01*
X67729950Y-57239667D01*
X67758768Y-57244753D01*
X67787339Y-57238423D01*
X67811313Y-57221642D01*
X67827040Y-57196963D01*
X67832125Y-57168145D01*
X67825795Y-57139574D01*
X67818585Y-57126761D01*
X67690658Y-56944008D01*
X67733541Y-56922567D01*
X67739837Y-56918603D01*
X67741668Y-56917845D01*
X67743729Y-56916153D01*
X67745984Y-56914734D01*
X67747280Y-56913238D01*
X67753033Y-56908518D01*
X67781604Y-56879947D01*
X67786324Y-56874194D01*
X67787820Y-56872898D01*
X67789239Y-56870643D01*
X67790931Y-56868582D01*
X67791689Y-56866751D01*
X67795653Y-56860455D01*
X67824225Y-56803313D01*
X67829480Y-56789581D01*
X67829671Y-56786891D01*
X67830702Y-56784403D01*
X67832143Y-56769771D01*
X67832143Y-56684057D01*
X67830702Y-56669425D01*
X67829671Y-56666936D01*
X67829480Y-56664247D01*
X67824225Y-56650515D01*
X67795653Y-56593373D01*
X67791690Y-56587078D01*
X67790932Y-56585247D01*
X67789238Y-56583183D01*
X67787820Y-56580930D01*
X67786325Y-56579633D01*
X67781605Y-56573882D01*
X67753034Y-56545310D01*
X67747282Y-56540589D01*
X67745984Y-56539092D01*
X67743728Y-56537672D01*
X67741669Y-56535982D01*
X67739838Y-56535223D01*
X67733541Y-56531260D01*
X67676398Y-56502689D01*
X67662666Y-56497434D01*
X67659978Y-56497243D01*
X67657489Y-56496212D01*
X67642857Y-56494771D01*
X67414286Y-56494771D01*
X67399654Y-56496212D01*
X67372618Y-56507411D01*
X67351926Y-56528103D01*
X67340727Y-56555139D01*
X67339286Y-56569771D01*
X67230702Y-56569771D01*
X67230702Y-56555139D01*
X67219503Y-56528103D01*
X67198811Y-56507411D01*
X67171775Y-56496212D01*
X67157143Y-56494771D01*
X66871429Y-56494771D01*
X66856797Y-56496212D01*
X66829761Y-56507411D01*
X66809069Y-56528103D01*
X66797870Y-56555139D01*
X66796429Y-56569771D01*
X66682240Y-56569771D01*
X66673534Y-56552358D01*
X66651427Y-56533185D01*
X66638001Y-56527191D01*
X66552288Y-56498620D01*
X66545034Y-56496970D01*
X66543203Y-56496212D01*
X66540548Y-56495950D01*
X66537951Y-56495360D01*
X66535976Y-56495500D01*
X66528571Y-56494771D01*
X66385714Y-56494771D01*
X66371082Y-56496212D01*
X66368592Y-56497243D01*
X66365906Y-56497434D01*
X66352174Y-56502689D01*
X66295030Y-56531260D01*
X66288734Y-56535223D01*
X66286902Y-56535982D01*
X66284840Y-56537674D01*
X66282588Y-56539092D01*
X66281291Y-56540586D01*
X66275537Y-56545310D01*
X66246966Y-56573882D01*
X66242245Y-56579633D01*
X66240751Y-56580930D01*
X66239332Y-56583183D01*
X66237639Y-56585247D01*
X66236880Y-56587078D01*
X66232918Y-56593373D01*
X66204346Y-56650516D01*
X66199091Y-56664247D01*
X66198899Y-56666936D01*
X66197869Y-56669425D01*
X66196428Y-56684057D01*
X66089286Y-56684057D01*
X66089286Y-56569771D01*
X66087845Y-56555139D01*
X66076646Y-56528103D01*
X66055954Y-56507411D01*
X66028918Y-56496212D01*
X65999654Y-56496212D01*
X65972618Y-56507411D01*
X65951926Y-56528103D01*
X65940727Y-56555139D01*
X65939286Y-56569771D01*
X65939286Y-57037779D01*
X65924074Y-57068201D01*
X65912714Y-57079561D01*
X65882296Y-57094771D01*
X65803419Y-57094771D01*
X65772999Y-57079561D01*
X65761638Y-57068200D01*
X65746429Y-57037780D01*
X65746429Y-56569771D01*
X65744988Y-56555139D01*
X65733789Y-56528103D01*
X65713097Y-56507411D01*
X65686061Y-56496212D01*
X65656797Y-56496212D01*
X65629761Y-56507411D01*
X65609069Y-56528103D01*
X65597870Y-56555139D01*
X65596429Y-56569771D01*
X65521429Y-56569771D01*
X65521429Y-56419771D01*
X67907143Y-56419771D01*
X67907143Y-57319771D01*
G37*
X38489523Y-71012295D02*
X38984761Y-71012295D01*
X38984761Y-71012295D02*
X38718095Y-71317057D01*
X38718095Y-71317057D02*
X38832380Y-71317057D01*
X38832380Y-71317057D02*
X38908571Y-71355152D01*
X38908571Y-71355152D02*
X38946666Y-71393247D01*
X38946666Y-71393247D02*
X38984761Y-71469438D01*
X38984761Y-71469438D02*
X38984761Y-71659914D01*
X38984761Y-71659914D02*
X38946666Y-71736104D01*
X38946666Y-71736104D02*
X38908571Y-71774200D01*
X38908571Y-71774200D02*
X38832380Y-71812295D01*
X38832380Y-71812295D02*
X38603809Y-71812295D01*
X38603809Y-71812295D02*
X38527618Y-71774200D01*
X38527618Y-71774200D02*
X38489523Y-71736104D01*
X39213333Y-71012295D02*
X39480000Y-71812295D01*
X39480000Y-71812295D02*
X39746666Y-71012295D01*
X39937142Y-71012295D02*
X40432380Y-71012295D01*
X40432380Y-71012295D02*
X40165714Y-71317057D01*
X40165714Y-71317057D02*
X40279999Y-71317057D01*
X40279999Y-71317057D02*
X40356190Y-71355152D01*
X40356190Y-71355152D02*
X40394285Y-71393247D01*
X40394285Y-71393247D02*
X40432380Y-71469438D01*
X40432380Y-71469438D02*
X40432380Y-71659914D01*
X40432380Y-71659914D02*
X40394285Y-71736104D01*
X40394285Y-71736104D02*
X40356190Y-71774200D01*
X40356190Y-71774200D02*
X40279999Y-71812295D01*
X40279999Y-71812295D02*
X40051428Y-71812295D01*
X40051428Y-71812295D02*
X39975237Y-71774200D01*
X39975237Y-71774200D02*
X39937142Y-71736104D01*
X53824524Y-87092295D02*
X53824524Y-86292295D01*
X53824524Y-86292295D02*
X54015000Y-86292295D01*
X54015000Y-86292295D02*
X54129286Y-86330390D01*
X54129286Y-86330390D02*
X54205476Y-86406580D01*
X54205476Y-86406580D02*
X54243571Y-86482771D01*
X54243571Y-86482771D02*
X54281667Y-86635152D01*
X54281667Y-86635152D02*
X54281667Y-86749438D01*
X54281667Y-86749438D02*
X54243571Y-86901819D01*
X54243571Y-86901819D02*
X54205476Y-86978009D01*
X54205476Y-86978009D02*
X54129286Y-87054200D01*
X54129286Y-87054200D02*
X54015000Y-87092295D01*
X54015000Y-87092295D02*
X53824524Y-87092295D01*
X54967381Y-86558961D02*
X54967381Y-87092295D01*
X54776905Y-86254200D02*
X54586428Y-86825628D01*
X54586428Y-86825628D02*
X55081667Y-86825628D01*
D10*
%TO.C,J4*%
X37160000Y-89440000D02*
X37160000Y-88190000D01*
X37160000Y-88190000D02*
X35910000Y-88190000D01*
X37060000Y-90250000D02*
X37060000Y-89950000D01*
X37060000Y-89950000D02*
X36860000Y-89950000D01*
X36960000Y-90250000D02*
X36960000Y-89950000D01*
X36860000Y-94610000D02*
X36860000Y-88490000D01*
X36860000Y-91050000D02*
X36250000Y-91050000D01*
X36860000Y-90250000D02*
X37060000Y-90250000D01*
X36860000Y-88490000D02*
X32140000Y-88490000D01*
X36250000Y-94000000D02*
X36250000Y-92050000D01*
X36250000Y-92050000D02*
X36860000Y-92050000D01*
X36250000Y-91050000D02*
X36250000Y-89100000D01*
X36250000Y-89100000D02*
X32750000Y-89100000D01*
X35550000Y-94610000D02*
X35550000Y-94000000D01*
X35550000Y-88490000D02*
X35550000Y-89100000D01*
X34250000Y-94610000D02*
X34250000Y-94000000D01*
X34250000Y-88490000D02*
X34250000Y-89100000D01*
X33250000Y-91650000D02*
X32750000Y-91650000D01*
X33250000Y-91450000D02*
X33250000Y-91650000D01*
X32750000Y-94000000D02*
X36250000Y-94000000D01*
X32750000Y-91550000D02*
X33250000Y-91550000D01*
X32750000Y-91450000D02*
X33250000Y-91450000D01*
X32750000Y-89100000D02*
X32750000Y-94000000D01*
X32140000Y-94610000D02*
X36860000Y-94610000D01*
X32140000Y-88490000D02*
X32140000Y-94610000D01*
%TO.C,J1*%
X32040000Y-84200000D02*
X31140000Y-84200000D01*
X35940000Y-74800000D02*
X33940000Y-74800000D01*
X35940000Y-84200000D02*
X33940000Y-84200000D01*
X32040000Y-74800000D02*
X31140000Y-74800000D01*
D15*
%TO.C,J9*%
X63910000Y-53875000D02*
X63910000Y-52895000D01*
X63910000Y-53875000D02*
X63030000Y-53875000D01*
X59030000Y-50975000D02*
X62790000Y-50975000D01*
X58790000Y-53875000D02*
X57910000Y-53875000D01*
X57910000Y-53875000D02*
X57910000Y-52895000D01*
%TO.C,J8*%
X67500000Y-54075000D02*
X67500000Y-53095000D01*
X68380000Y-54075000D02*
X67500000Y-54075000D01*
X68620000Y-51175000D02*
X73380000Y-51175000D01*
X74500000Y-54075000D02*
X73620000Y-54075000D01*
X74500000Y-54075000D02*
X74500000Y-53095000D01*
D10*
%TO.C,SW1*%
X53590000Y-98815000D02*
X53590000Y-99815000D01*
X54190000Y-98815000D02*
X53590000Y-98815000D01*
X54990000Y-101615000D02*
X56990000Y-101615000D01*
X57790000Y-98815000D02*
X58390000Y-98815000D01*
X58390000Y-98815000D02*
X58390000Y-99815000D01*
%TO.C,U1*%
X45435000Y-94655568D02*
X45435000Y-91860000D01*
X47805000Y-91860000D02*
X47805000Y-95080000D01*
X45430000Y-94950000D02*
X45240000Y-95090000D01*
X45240000Y-94810000D01*
X45430000Y-94950000D01*
G36*
X45430000Y-94950000D02*
G01*
X45240000Y-95090000D01*
X45240000Y-94810000D01*
X45430000Y-94950000D01*
G37*
%TO.C,U5*%
X51662807Y-94324038D02*
X51662807Y-94089038D01*
X51662807Y-97069038D02*
X51662807Y-96594038D01*
X52137807Y-93849038D02*
X51962807Y-93849038D01*
X52137807Y-97069038D02*
X51662807Y-97069038D01*
X54407807Y-93849038D02*
X54882807Y-93849038D01*
X54407807Y-97069038D02*
X54882807Y-97069038D01*
X54882807Y-93849038D02*
X54882807Y-94324038D01*
X54882807Y-97069038D02*
X54882807Y-96594038D01*
X51662807Y-93849038D02*
X51422807Y-93519038D01*
X51902807Y-93519038D01*
X51662807Y-93849038D01*
G36*
X51662807Y-93849038D02*
G01*
X51422807Y-93519038D01*
X51902807Y-93519038D01*
X51662807Y-93849038D01*
G37*
%TO.C,U7*%
X52090000Y-74890000D02*
X52090000Y-75365000D01*
X52090000Y-82110000D02*
X52090000Y-81635000D01*
X52565000Y-74890000D02*
X52090000Y-74890000D01*
X52565000Y-82110000D02*
X52090000Y-82110000D01*
X58835000Y-74890000D02*
X59310000Y-74890000D01*
X58835000Y-82110000D02*
X59010000Y-82110000D01*
X59310000Y-74890000D02*
X59310000Y-75365000D01*
X59310000Y-81635000D02*
X59310000Y-81870000D01*
X59550000Y-82440000D02*
X59070000Y-82440000D01*
X59310000Y-82110000D01*
X59550000Y-82440000D01*
G36*
X59550000Y-82440000D02*
G01*
X59070000Y-82440000D01*
X59310000Y-82110000D01*
X59550000Y-82440000D01*
G37*
%TO.C,C4*%
X46216267Y-96730000D02*
X45923733Y-96730000D01*
X46216267Y-95710000D02*
X45923733Y-95710000D01*
%TO.C,C1*%
X62705000Y-97711248D02*
X62705000Y-98233752D01*
X61235000Y-97711248D02*
X61235000Y-98233752D01*
%TO.C,C2*%
X64675000Y-97688748D02*
X64675000Y-98211252D01*
X63205000Y-97688748D02*
X63205000Y-98211252D01*
%TO.C,C3*%
X64940000Y-94173767D02*
X64940000Y-93881233D01*
X63920000Y-94173767D02*
X63920000Y-93881233D01*
%TO.C,C6*%
X55241252Y-91375000D02*
X54718748Y-91375000D01*
X55241252Y-89905000D02*
X54718748Y-89905000D01*
%TO.C,C8*%
X50685000Y-98318748D02*
X50685000Y-98841252D01*
X49215000Y-98318748D02*
X49215000Y-98841252D01*
%TO.C,C9*%
X57408748Y-91905000D02*
X57931252Y-91905000D01*
X57408748Y-93375000D02*
X57931252Y-93375000D01*
%TO.C,C5*%
X71400000Y-99351233D02*
X71400000Y-99643767D01*
X70380000Y-99351233D02*
X70380000Y-99643767D01*
%TO.C,C7*%
X62200000Y-93881233D02*
X62200000Y-94173767D01*
X63220000Y-93881233D02*
X63220000Y-94173767D01*
%TO.C,C12*%
X73476248Y-93398200D02*
X73998752Y-93398200D01*
X73476248Y-91928200D02*
X73998752Y-91928200D01*
%TO.C,C18*%
X58911252Y-87335000D02*
X58388748Y-87335000D01*
X58911252Y-85865000D02*
X58388748Y-85865000D01*
%TO.C,C19*%
X64516233Y-72510000D02*
X64808767Y-72510000D01*
X64516233Y-71490000D02*
X64808767Y-71490000D01*
%TO.C,C20*%
X61610000Y-83791233D02*
X61610000Y-84083767D01*
X60590000Y-83791233D02*
X60590000Y-84083767D01*
%TO.C,C21*%
X58863767Y-85360000D02*
X58571233Y-85360000D01*
X58863767Y-84340000D02*
X58571233Y-84340000D01*
%TO.C,C22*%
X50940000Y-82176267D02*
X50940000Y-81883733D01*
X49920000Y-82176267D02*
X49920000Y-81883733D01*
%TO.C,C23*%
X53088752Y-70715000D02*
X52566248Y-70715000D01*
X53088752Y-69245000D02*
X52566248Y-69245000D01*
%TO.C,C24*%
X51811233Y-73990000D02*
X52103767Y-73990000D01*
X51811233Y-72970000D02*
X52103767Y-72970000D01*
%TO.C,C27*%
X61910000Y-75286267D02*
X61910000Y-74993733D01*
X60890000Y-75286267D02*
X60890000Y-74993733D01*
%TO.C,C28*%
X62235000Y-69161252D02*
X62235000Y-68638748D01*
X60765000Y-69161252D02*
X60765000Y-68638748D01*
%TO.C,C29*%
X65835000Y-69161252D02*
X65835000Y-68638748D01*
X64365000Y-69161252D02*
X64365000Y-68638748D01*
%TO.C,C17*%
X71753733Y-61010000D02*
X72046267Y-61010000D01*
X71753733Y-59990000D02*
X72046267Y-59990000D01*
%TO.C,C16*%
X71838748Y-59435000D02*
X72361252Y-59435000D01*
X71838748Y-57965000D02*
X72361252Y-57965000D01*
%TO.C,C30*%
X34283767Y-59280000D02*
X33991233Y-59280000D01*
X34283767Y-58260000D02*
X33991233Y-58260000D01*
%TO.C,C31*%
X34283767Y-57730000D02*
X33991233Y-57730000D01*
X34283767Y-56710000D02*
X33991233Y-56710000D01*
%TO.C,C32*%
X34223752Y-61355000D02*
X33701248Y-61355000D01*
X34223752Y-59885000D02*
X33701248Y-59885000D01*
%TO.C,C10*%
X45140000Y-74943733D02*
X45140000Y-75236267D01*
X46160000Y-74943733D02*
X46160000Y-75236267D01*
%TO.C,C13*%
X42590000Y-70553733D02*
X42590000Y-70846267D01*
X43610000Y-70553733D02*
X43610000Y-70846267D01*
%TO.C,CY1*%
X64210000Y-78334767D02*
X64210000Y-78042233D01*
X63190000Y-78334767D02*
X63190000Y-78042233D01*
%TO.C,CY2*%
X64210000Y-74717233D02*
X64210000Y-75009767D01*
X63190000Y-74717233D02*
X63190000Y-75009767D01*
%TO.C,CY3(DNP)1*%
X69885000Y-82983767D02*
X69885000Y-82691233D01*
X68865000Y-82983767D02*
X68865000Y-82691233D01*
%TO.C,CY4(DNP)1*%
X69885000Y-79066233D02*
X69885000Y-79358767D01*
X68865000Y-79066233D02*
X68865000Y-79358767D01*
%TO.C,D5*%
X53490833Y-89358334D02*
X53490833Y-87888334D01*
X53490833Y-87888334D02*
X51030833Y-87888334D01*
X51030833Y-89358334D02*
X53490833Y-89358334D01*
%TO.C,D6*%
X51885000Y-66360000D02*
X51885000Y-64890000D01*
X51885000Y-64890000D02*
X49425000Y-64890000D01*
X49425000Y-66360000D02*
X51885000Y-66360000D01*
%TO.C,D7*%
X40675000Y-64865000D02*
X38215000Y-64865000D01*
X38215000Y-66335000D02*
X40675000Y-66335000D01*
X38215000Y-64865000D02*
X38215000Y-66335000D01*
%TO.C,D1*%
X46110000Y-83400000D02*
X46110000Y-81700000D01*
X46110000Y-83400000D02*
X43450000Y-83400000D01*
X46110000Y-81700000D02*
X43450000Y-81700000D01*
%TO.C,F1*%
X35910000Y-64702064D02*
X35910000Y-63497936D01*
X34090000Y-64702064D02*
X34090000Y-63497936D01*
D15*
%TO.C,J7*%
X34775000Y-73200000D02*
X33795000Y-73200000D01*
X34775000Y-72320000D02*
X34775000Y-73200000D01*
X34775000Y-67200000D02*
X34775000Y-68080000D01*
X34775000Y-67200000D02*
X33795000Y-67200000D01*
X31875000Y-72080000D02*
X31875000Y-68320000D01*
%TO.C,J6*%
X80150000Y-82920000D02*
X80150000Y-86680000D01*
X77250000Y-87800000D02*
X78230000Y-87800000D01*
X77250000Y-87800000D02*
X77250000Y-86920000D01*
X77250000Y-82680000D02*
X77250000Y-81800000D01*
X77250000Y-81800000D02*
X78230000Y-81800000D01*
D10*
%TO.C,J3*%
X77660000Y-79440000D02*
X77660000Y-78800000D01*
X77660000Y-78800000D02*
X78290000Y-78800000D01*
X77660000Y-76640000D02*
X77660000Y-77280000D01*
X74940000Y-79390000D02*
X74940000Y-76690000D01*
%TO.C,L1*%
X70110000Y-93270000D02*
X65890000Y-93270000D01*
X65890000Y-89050000D02*
X70110000Y-89050000D01*
%TO.C,R21*%
X65667224Y-85022500D02*
X65157776Y-85022500D01*
X65667224Y-83977500D02*
X65157776Y-83977500D01*
%TO.C,R5*%
X61702776Y-90552500D02*
X62212224Y-90552500D01*
X61702776Y-89507500D02*
X62212224Y-89507500D01*
%TO.C,R6*%
X51674724Y-91860000D02*
X51165276Y-91860000D01*
X51674724Y-92905000D02*
X51165276Y-92905000D01*
%TO.C,R1*%
X68215300Y-99242776D02*
X68215300Y-99752224D01*
X67170300Y-99242776D02*
X67170300Y-99752224D01*
%TO.C,R2*%
X66616700Y-99242776D02*
X66616700Y-99752224D01*
X65571700Y-99242776D02*
X65571700Y-99752224D01*
%TO.C,R4*%
X39817500Y-75342224D02*
X39817500Y-74832776D01*
X40862500Y-75342224D02*
X40862500Y-74832776D01*
%TO.C,R3*%
X39817500Y-84245276D02*
X39817500Y-84754724D01*
X40862500Y-84245276D02*
X40862500Y-84754724D01*
%TO.C,R8*%
X49562500Y-93025276D02*
X49562500Y-93534724D01*
X48517500Y-93025276D02*
X48517500Y-93534724D01*
%TO.C,R9*%
X73964564Y-98181800D02*
X73510436Y-98181800D01*
X73964564Y-96711800D02*
X73510436Y-96711800D01*
%TO.C,R10*%
X73510436Y-100528600D02*
X73964564Y-100528600D01*
X73510436Y-99058600D02*
X73964564Y-99058600D01*
%TO.C,R11*%
X69813900Y-99242776D02*
X69813900Y-99752224D01*
X68768900Y-99242776D02*
X68768900Y-99752224D01*
%TO.C,R15*%
X64757776Y-66522500D02*
X65267224Y-66522500D01*
X64757776Y-65477500D02*
X65267224Y-65477500D01*
%TO.C,R26*%
X55477500Y-85295276D02*
X55477500Y-85804724D01*
X56522500Y-85295276D02*
X56522500Y-85804724D01*
%TO.C,R20*%
X48223057Y-89152500D02*
X47713609Y-89152500D01*
X48223057Y-88107500D02*
X47713609Y-88107500D01*
%TO.C,R18*%
X48223057Y-85162500D02*
X47713609Y-85162500D01*
X48223057Y-84117500D02*
X47713609Y-84117500D01*
%TO.C,R16*%
X74222500Y-76329724D02*
X74222500Y-75820276D01*
X73177500Y-76329724D02*
X73177500Y-75820276D01*
%TO.C,R22*%
X46992224Y-66147500D02*
X46482776Y-66147500D01*
X46992224Y-65102500D02*
X46482776Y-65102500D01*
%TO.C,R23*%
X43107776Y-66122500D02*
X43617224Y-66122500D01*
X43107776Y-65077500D02*
X43617224Y-65077500D01*
%TO.C,R25*%
X52212224Y-72502500D02*
X51702776Y-72502500D01*
X52212224Y-71457500D02*
X51702776Y-71457500D01*
%TO.C,R7*%
X48887500Y-72552776D02*
X48887500Y-73062224D01*
X49932500Y-72552776D02*
X49932500Y-73062224D01*
%TO.C,R19*%
X48344724Y-87152500D02*
X47835276Y-87152500D01*
X48344724Y-86107500D02*
X47835276Y-86107500D01*
%TO.C,SW2*%
X61600000Y-65000000D02*
X64800000Y-65000000D01*
X61600000Y-61000000D02*
X64800000Y-61000000D01*
%TO.C,TP6*%
X62950000Y-87500000D02*
G75*
G02*
X61050000Y-87500000I-950000J0D01*
G01*
X61050000Y-87500000D02*
G75*
G02*
X62950000Y-87500000I950000J0D01*
G01*
%TO.C,TP2*%
X78810000Y-91230000D02*
X76910000Y-91230000D01*
X78810000Y-89330000D02*
X78810000Y-91230000D01*
X76910000Y-91230000D02*
X76910000Y-89330000D01*
X76910000Y-89330000D02*
X78810000Y-89330000D01*
%TO.C,TP5*%
X36980000Y-97170000D02*
X35080000Y-97170000D01*
X36980000Y-95270000D02*
X36980000Y-97170000D01*
X35080000Y-97170000D02*
X35080000Y-95270000D01*
X35080000Y-95270000D02*
X36980000Y-95270000D01*
%TO.C,TP3*%
X59460000Y-89820000D02*
G75*
G02*
X57560000Y-89820000I-950000J0D01*
G01*
X57560000Y-89820000D02*
G75*
G02*
X59460000Y-89820000I950000J0D01*
G01*
%TO.C,TP7*%
X46310000Y-98260000D02*
G75*
G02*
X44410000Y-98260000I-950000J0D01*
G01*
X44410000Y-98260000D02*
G75*
G02*
X46310000Y-98260000I950000J0D01*
G01*
D14*
%TO.C,U3*%
X46950000Y-69093500D02*
G75*
G02*
X46750000Y-69093500I-100000J0D01*
G01*
X46750000Y-69093500D02*
G75*
G02*
X46950000Y-69093500I100000J0D01*
G01*
D15*
X47250000Y-72662500D02*
X47195000Y-72662500D01*
X47250000Y-72107500D02*
X47250000Y-72662500D01*
X47250000Y-69662500D02*
X47250000Y-70217500D01*
X47250000Y-69662500D02*
X47195000Y-69662500D01*
X44750000Y-72662500D02*
X44805000Y-72662500D01*
X44750000Y-72662500D02*
X44750000Y-72107500D01*
X44750000Y-70217500D02*
X44750000Y-69662500D01*
X44750000Y-69662500D02*
X44805000Y-69662500D01*
D14*
%TO.C,U4*%
X66940800Y-97610000D02*
G75*
G02*
X66740800Y-97610000I-100000J0D01*
G01*
X66740800Y-97610000D02*
G75*
G02*
X66940800Y-97610000I100000J0D01*
G01*
D15*
X69490800Y-96860000D02*
X69185800Y-96860000D01*
X69490800Y-96780000D02*
X69490800Y-96860000D01*
X69490800Y-94360000D02*
X69490800Y-94440000D01*
X68985800Y-94360000D02*
X69490800Y-94360000D01*
X66490800Y-96860000D02*
X66795800Y-96860000D01*
X66490800Y-96780000D02*
X66490800Y-96860000D01*
X66490800Y-94440000D02*
X66490800Y-94360000D01*
X66490800Y-94360000D02*
X66995800Y-94360000D01*
D10*
%TO.C,U2*%
X43287750Y-78040000D02*
X43047750Y-77710000D01*
X43527750Y-77710000D01*
X43287750Y-78040000D01*
G36*
X43287750Y-78040000D02*
G01*
X43047750Y-77710000D01*
X43527750Y-77710000D01*
X43287750Y-78040000D01*
G37*
X44587750Y-81110000D02*
X45387750Y-81110000D01*
X44587750Y-81110000D02*
X43787750Y-81110000D01*
X44587750Y-77990000D02*
X45387750Y-77990000D01*
X44587750Y-77990000D02*
X43787750Y-77990000D01*
D16*
%TO.C,U6*%
G36*
X77699228Y-61764212D02*
G01*
X77299228Y-61164212D01*
X78099228Y-61164212D01*
X77699228Y-61764212D01*
G37*
D10*
X78100000Y-64750000D02*
G75*
G02*
X77300000Y-64750000I-400000J0D01*
G01*
X77300000Y-64750000D02*
G75*
G02*
X78100000Y-64750000I400000J0D01*
G01*
%TO.C,U8*%
X37600000Y-49848800D02*
X37100000Y-49848800D01*
X37600000Y-49348800D01*
X37600000Y-49848800D01*
G36*
X37600000Y-49848800D02*
G01*
X37100000Y-49848800D01*
X37600000Y-49348800D01*
X37600000Y-49848800D01*
G37*
X51500000Y-63648800D02*
X51500000Y-61898800D01*
X51500000Y-40148800D02*
X51500000Y-49948800D01*
X50750000Y-63648800D02*
X51500000Y-63648800D01*
X38750000Y-63648800D02*
X38000000Y-63648800D01*
X38000000Y-63648800D02*
X38000000Y-61898800D01*
X38000000Y-40148800D02*
X51500000Y-40148800D01*
X38000000Y-40148800D02*
X38000000Y-49898800D01*
%TO.C,Y1*%
X68050000Y-81675000D02*
X68050000Y-80325000D01*
X66300000Y-81675000D02*
X66300000Y-80325000D01*
%TO.C,Y2*%
X68260000Y-78586000D02*
X68260000Y-74466000D01*
X64840000Y-78586000D02*
X68260000Y-78586000D01*
%TO.C,Q1*%
X56420000Y-94010000D02*
X56180000Y-93680000D01*
X56660000Y-93680000D01*
X56420000Y-94010000D01*
G36*
X56420000Y-94010000D02*
G01*
X56180000Y-93680000D01*
X56660000Y-93680000D01*
X56420000Y-94010000D01*
G37*
X56870000Y-97060000D02*
X58470000Y-97060000D01*
X56870000Y-93860000D02*
X58470000Y-93860000D01*
%TO.C,R13*%
X62234724Y-92032500D02*
X61725276Y-92032500D01*
X62234724Y-90987500D02*
X61725276Y-90987500D01*
%TO.C,R12*%
X61512500Y-94282224D02*
X61512500Y-93772776D01*
X60467500Y-94282224D02*
X60467500Y-93772776D01*
%TO.C,R14*%
X60752500Y-98034724D02*
X60752500Y-97525276D01*
X59707500Y-98034724D02*
X59707500Y-97525276D01*
%TO.C,C15*%
X43256252Y-73685000D02*
X42733748Y-73685000D01*
X43256252Y-75155000D02*
X42733748Y-75155000D01*
%TO.C,TP1*%
X36950000Y-86660000D02*
G75*
G02*
X35050000Y-86660000I-950000J0D01*
G01*
X35050000Y-86660000D02*
G75*
G02*
X36950000Y-86660000I950000J0D01*
G01*
%TO.C,D2*%
X71465000Y-75275000D02*
X71465000Y-77735000D01*
X71465000Y-77735000D02*
X72935000Y-77735000D01*
X72935000Y-77735000D02*
X72935000Y-75275000D01*
%TO.C,D3*%
X51030833Y-85365000D02*
X53490833Y-85365000D01*
X53490833Y-83895000D02*
X51030833Y-83895000D01*
X53490833Y-85365000D02*
X53490833Y-83895000D01*
%TO.C,R24*%
X65667224Y-85477500D02*
X65157776Y-85477500D01*
X65667224Y-86522500D02*
X65157776Y-86522500D01*
%TO.C,C14*%
X73491248Y-89505000D02*
X74013752Y-89505000D01*
X73491248Y-90975000D02*
X74013752Y-90975000D01*
%TO.C,FB1*%
X62790000Y-69071267D02*
X62790000Y-68728733D01*
X63810000Y-69071267D02*
X63810000Y-68728733D01*
%TO.C,SW3*%
X61600000Y-56500000D02*
X64800000Y-56500000D01*
X61600000Y-60500000D02*
X64800000Y-60500000D01*
%TO.C,R17*%
X61370276Y-65477500D02*
X61879724Y-65477500D01*
X61370276Y-66522500D02*
X61879724Y-66522500D01*
D15*
%TO.C,J2*%
X39300000Y-97700000D02*
X39300000Y-98680000D01*
X39300000Y-97700000D02*
X40180000Y-97700000D01*
X42180000Y-100600000D02*
X40420000Y-100600000D01*
X42420000Y-97700000D02*
X43300000Y-97700000D01*
X43300000Y-97700000D02*
X43300000Y-98680000D01*
D14*
X41900000Y-95900000D02*
G75*
G02*
X41700000Y-95900000I-100000J0D01*
G01*
X41700000Y-95900000D02*
G75*
G02*
X41900000Y-95900000I100000J0D01*
G01*
D10*
%TO.C,TP16*%
X40450000Y-69750000D02*
G75*
G02*
X38550000Y-69750000I-950000J0D01*
G01*
X38550000Y-69750000D02*
G75*
G02*
X40450000Y-69750000I950000J0D01*
G01*
%TO.C,C11*%
X73476248Y-94335000D02*
X73998752Y-94335000D01*
X73476248Y-95805000D02*
X73998752Y-95805000D01*
%TO.C,D4*%
X51015000Y-87365000D02*
X53475000Y-87365000D01*
X53475000Y-85895000D02*
X51015000Y-85895000D01*
X53475000Y-87365000D02*
X53475000Y-85895000D01*
D15*
%TO.C,J5*%
X38987500Y-93380000D02*
X38987500Y-89620000D01*
X41887500Y-88500000D02*
X40907500Y-88500000D01*
X41887500Y-88500000D02*
X41887500Y-89380000D01*
X41887500Y-93620000D02*
X41887500Y-94500000D01*
X41887500Y-94500000D02*
X40907500Y-94500000D01*
%TD*%
M02*
