M48
; DRILL file {KiCad 9.0.7} date 2026-04-10T12:35:08+0700
; FORMAT={-:-/ absolute / metric / decimal}
; #@! TF.CreationDate,2026-04-10T12:35:08+07:00
; #@! TF.GenerationSoftware,Kicad,Pcbnew,9.0.7
; #@! TF.FileFunction,Plated,1,2,PTH
FMAT,2
METRIC
; #@! TA.AperFunction,Plated,PTH,ViaDrill
T1C0.250
; #@! TA.AperFunction,Plated,PTH,ViaDrill
T2C0.300
; #@! TA.AperFunction,Plated,PTH,ComponentDrill
T3C0.600
; #@! TA.AperFunction,Plated,PTH,ComponentDrill
T4C0.700
; #@! TA.AperFunction,Plated,PTH,ComponentDrill
T5C0.750
%
G90
G05
T1
X32.0Y-54.0
X32.0Y-57.0
X32.0Y-60.0
X32.0Y-63.0
X32.0Y-66.0
X32.0Y-69.0
X32.0Y-72.0
X32.0Y-76.0
X32.0Y-83.0
X32.0Y-86.0
X32.0Y-88.0
X32.0Y-90.0
X32.0Y-92.0
X32.0Y-94.0
X32.0Y-96.0
X32.0Y-98.0
X32.293Y-80.5
X32.306Y-78.0
X33.0Y-69.0
X33.0Y-70.7
X33.0Y-73.0
X34.0Y-56.0
X34.294Y-80.5
X34.3Y-78.0
X35.0Y-73.0
X35.0Y-101.0
X36.0Y-52.0
X36.0Y-54.0
X36.0Y-56.0
X37.0Y-65.0
X37.0Y-73.0
X37.1Y-70.8
X37.33Y-97.89
X37.35Y-100.91
X37.6Y-62.16
X37.6Y-62.96
X37.6Y-63.86
X38.0Y-90.0
X38.0Y-92.0
X38.0Y-94.0
X38.194Y-75.2
X38.4Y-62.16
X38.4Y-62.96
X38.4Y-63.86
X38.794Y-82.8
X38.795Y-83.6
X38.895Y-76.1
X38.98Y-64.51
X39.0Y-66.7
X39.0Y-67.45
X39.0Y-73.0
X39.44Y-71.07
X39.92Y-101.1
X40.0Y-67.45
X40.35Y-97.92
X40.602Y-81.1
X40.621Y-77.8
X40.627Y-79.5
X40.95Y-54.3
X41.0Y-67.45
X41.0Y-73.0
X41.2Y-55.5
X41.2Y-59.5
X41.3Y-61.5
X41.59Y-98.18
X41.64Y-83.585
X41.9Y-54.3
X41.96Y-75.99
X42.0Y-67.45
X42.4Y-77.79
X42.4Y-79.5
X42.41Y-81.09
X42.44Y-99.44
X42.9Y-54.3
X42.9Y-57.5
X42.9Y-61.5
X43.0Y-67.45
X43.3Y-93.8
X43.438Y-91.3
X43.63Y-101.02
X43.85Y-54.3
X44.0Y-67.45
X44.2Y-84.6
X44.28Y-71.4
X44.5Y-69.862
X44.6Y-95.5
X44.9Y-54.325
X44.9Y-55.5
X44.9Y-59.5
X44.949Y-93.919
X44.956Y-93.21
X45.0Y-67.45
X45.365Y-93.55
X45.6Y-77.5
X45.615Y-92.67
X45.798Y-93.205
X45.8Y-93.923
X45.9Y-54.3
X46.0Y-67.45
X46.102Y-86.702
X46.35Y-81.7
X46.65Y-76.85
X46.74Y-77.94
X46.8Y-81.13
X46.892Y-92.49
X46.892Y-93.99
X46.9Y-54.3
X46.9Y-57.5
X46.9Y-61.5
X46.9Y-87.5
X47.0Y-67.45
X47.0Y-101.0
X47.3Y-95.18
X47.31Y-78.21
X47.33Y-80.79
X47.38Y-84.71
X47.8Y-78.6
X47.81Y-80.39
X47.9Y-67.45
X47.9Y-88.4
X47.95Y-54.3
X47.96Y-74.69
X48.06Y-83.84
X48.4Y-78.6
X48.41Y-80.373
X48.72Y-75.79
X48.9Y-55.5
X48.9Y-59.5
X48.92Y-85.2
X48.925Y-54.3
X48.997Y-78.606
X49.0Y-80.37
X49.3Y-86.87
X49.4Y-82.1
X49.59Y-83.63
X49.799Y-70.05
X50.0Y-101.0
X50.21Y-89.37
X50.52Y-85.7
X50.949Y-70.02
X51.0Y-62.2
X51.0Y-63.0
X51.0Y-63.9
X51.1Y-97.6
X51.23Y-99.66
X51.238Y-80.928
X51.63Y-89.34
X51.8Y-62.2
X51.8Y-63.0
X51.8Y-63.9
X52.1Y-65.7
X52.139Y-95.5
X52.159Y-94.749
X52.325Y-92.803
X52.533Y-95.124
X52.9Y-89.35
X52.9Y-94.749
X52.91Y-95.495
X53.0Y-51.0
X53.0Y-51.75
X53.0Y-52.5
X53.0Y-60.2
X53.0Y-61.3
X53.0Y-64.8
X53.0Y-101.0
X53.013Y-97.463
X53.03Y-87.74
X53.05Y-55.3
X53.675Y-55.3
X53.75Y-51.0
X53.75Y-51.75
X53.75Y-52.5
X53.8Y-76.74
X53.85Y-78.49
X53.9Y-80.24
X53.95Y-89.35
X54.03Y-87.74
X54.32Y-93.14
X54.59Y-96.67
X54.612Y-71.429
X54.894Y-87.14
X54.9Y-89.35
X55.0Y-51.0
X55.0Y-61.5
X55.0Y-62.75
X55.0Y-64.0
X55.0Y-65.25
X55.0Y-66.35
X55.01Y-53.5
X55.137Y-84.593
X55.225Y-70.77
X55.36Y-91.87
X55.48Y-87.75
X55.7Y-76.74
X55.7Y-80.24
X55.75Y-94.125
X55.76Y-92.41
X56.04Y-89.35
X56.125Y-54.75
X56.26Y-52.125
X56.28Y-87.75
X56.81Y-90.46
X57.1Y-51.0
X57.22Y-89.34
X57.25Y-56.0
X57.31Y-97.8
X57.5Y-76.74
X57.5Y-78.49
X57.5Y-80.24
X57.51Y-53.5
X57.6Y-58.8
X57.86Y-87.77
X57.88Y-85.56
X57.907Y-84.278
X58.28Y-95.04
X58.44Y-89.36
X58.6Y-87.77
X58.63Y-54.75
X58.93Y-57.69
X59.01Y-98.5
X59.25Y-60.75
X59.4Y-65.6
X59.4Y-68.3
X59.4Y-70.3
X59.5Y-63.0
X59.528Y-92.422
X59.71Y-89.16
X59.96Y-101.34
X60.0Y-51.0
X60.0Y-52.25
X60.0Y-60.37
X60.39Y-92.239
X60.75Y-77.675
X60.88Y-57.43
X61.05Y-71.1
X61.07Y-88.79
X61.3Y-64.44
X61.375Y-61.62
X61.42Y-73.18
X61.5Y-68.75
X61.55Y-66.8
X61.75Y-51.0
X61.75Y-52.25
X61.86Y-84.77
X61.95Y-80.975
X61.96Y-100.17
X62.5Y-57.75
X62.5Y-60.375
X62.7Y-62.96
X62.9Y-88.9
X62.96Y-101.34
X63.325Y-82.375
X63.75Y-54.0
X63.75Y-56.5
X63.75Y-58.95
X63.95Y-100.15
X64.175Y-80.975
X64.8Y-74.0
X64.8Y-79.0
X65.0Y-55.125
X65.0Y-101.35
X65.1Y-66.8
X65.3Y-60.4
X65.6Y-73.2
X65.6Y-79.0
X65.75Y-51.0
X65.75Y-52.25
X65.9Y-81.0
X65.95Y-89.3
X65.95Y-90.1
X65.95Y-90.9
X65.95Y-91.7
X65.95Y-92.5
X65.95Y-93.3
X66.25Y-53.875
X66.3Y-56.3
X66.3Y-67.85
X66.591Y-88.81
X67.1Y-73.3
X67.1Y-97.0
X67.391Y-88.81
X67.5Y-55.125
X67.5Y-57.75
X67.59Y-84.56
X67.7Y-73.9
X67.99Y-101.35
X68.191Y-88.81
X68.3Y-74.5
X68.35Y-60.45
X68.4Y-56.5
X68.48Y-64.25
X68.48Y-65.0
X68.48Y-67.9
X68.491Y-93.7
X68.5Y-69.5
X68.5Y-71.0
X68.9Y-75.1
X68.991Y-88.81
X69.0Y-62.0
X69.0Y-63.0
X69.23Y-64.25
X69.23Y-65.0
X69.23Y-67.9
X69.41Y-84.64
X69.5Y-51.0
X69.5Y-52.25
X69.5Y-75.7
X69.791Y-88.81
X69.85Y-97.02
X70.2Y-76.4
X70.4Y-77.2
X70.4Y-78.0
X70.4Y-78.8
X70.4Y-79.6
X70.4Y-80.4
X70.4Y-81.2
X70.4Y-82.0
X70.591Y-88.81
X70.591Y-94.135
X70.866Y-96.085
X70.9Y-74.69
X71.0Y-68.0
X71.07Y-89.32
X71.07Y-90.12
X71.07Y-90.92
X71.07Y-91.72
X71.07Y-92.52
X71.07Y-93.32
X71.9Y-51.0
X71.9Y-52.25
X71.949Y-100.793
X72.0Y-78.0
X72.0Y-81.0
X72.02Y-76.22
X72.02Y-82.46
X72.03Y-79.54
X72.13Y-56.42
X72.27Y-84.05
X72.66Y-87.17
X73.0Y-71.0
X73.775Y-61.49
X73.89Y-92.66
X74.0Y-66.0
X74.05Y-59.0
X74.06Y-53.775
X74.06Y-56.275
X74.5Y-76.575
X74.78Y-93.85
X74.78Y-96.24
X74.8Y-89.18
X75.175Y-60.24
X75.3Y-51.0
X75.3Y-52.25
X75.3Y-57.65
X75.31Y-54.9
X75.5Y-101.01
X75.88Y-90.26
X75.88Y-99.76
X76.0Y-68.0
X76.0Y-71.0
X76.0Y-97.0
X76.55Y-59.0
X76.55Y-61.5
X76.56Y-53.65
X76.56Y-56.275
X77.74Y-64.63
X77.74Y-65.38
X77.74Y-66.105
X77.74Y-66.88
X77.74Y-67.63
X77.74Y-68.38
X77.74Y-69.155
X77.74Y-69.88
X77.74Y-70.63
X77.74Y-71.38
X77.75Y-58.0
X77.75Y-59.0
X77.75Y-60.0
X77.75Y-61.0
X77.75Y-76.0
X77.75Y-81.0
X77.8Y-54.895
X77.82Y-79.485
X77.848Y-77.491
X78.2Y-57.35
X78.32Y-79.465
X78.365Y-77.469
X78.42Y-75.205
X78.43Y-74.705
X78.72Y-79.155
X78.8Y-94.6
X79.16Y-76.595
X79.16Y-77.095
X79.17Y-75.595
X79.17Y-76.095
X79.2Y-57.35
X79.235Y-79.155
X79.73Y-97.18
X79.744Y-79.155
X79.75Y-89.45
X79.75Y-91.1
X79.8Y-96.1
X80.0Y-83.0
X80.0Y-86.3
X80.01Y-84.69
X80.2Y-57.35
X80.247Y-79.155
T2
X35.962Y-81.481
X36.011Y-77.55
X37.19Y-68.7
X37.2Y-69.7
X40.075Y-92.01
X40.389Y-66.623
X40.5Y-57.0
X40.75Y-93.01
X43.22Y-88.98
X44.3Y-91.3
X44.75Y-83.2
X44.8Y-76.8
X44.8Y-77.55
X44.95Y-83.75
X45.1Y-90.48
X45.975Y-68.763
X46.59Y-85.4
X48.677Y-76.723
X48.705Y-77.622
X48.79Y-81.42
X49.425Y-70.795
X49.505Y-74.685
X49.668Y-75.793
X49.833Y-76.678
X50.391Y-74.5
X51.0Y-96.6
X51.62Y-83.0
X52.22Y-83.81
X52.51Y-62.631
X53.025Y-66.63
X54.375Y-72.571
X55.05Y-67.275
X55.05Y-68.65
X55.28Y-86.34
X55.7Y-78.5
X55.909Y-61.547
X56.75Y-67.975
X56.825Y-83.059
X57.3Y-83.703
X57.7Y-69.25
X58.735Y-56.845
X59.29Y-56.1
X59.425Y-71.75
X59.492Y-72.932
X60.2Y-95.8
X60.3Y-67.0
X60.42Y-90.385
X62.275Y-82.384
X63.313Y-83.734
X63.9Y-71.0
X64.0Y-64.9
X64.4Y-88.852
X64.45Y-60.35
X64.49Y-82.97
X69.0Y-57.4
X70.0Y-56.9
X70.0Y-64.7
X71.0Y-56.4
X71.0Y-65.9
X72.2Y-61.5
X72.51Y-85.9
X72.52Y-84.83
X73.325Y-78.375
X75.925Y-89.325
X75.987Y-66.388
X76.0Y-93.7
X76.23Y-91.57
X76.6Y-65.3
X76.7Y-95.45
T4
X38.78Y-96.48
X38.78Y-99.48
T5
X36.1Y-90.5
X36.1Y-92.5
T3
G00X32.783Y-75.18
M15
G01X32.183Y-75.18
M16
G05
G00X32.783Y-83.82
M15
G01X32.183Y-83.82
M16
G05
G00X37.213Y-75.18
M15
G01X36.113Y-75.18
M16
G05
G00X37.213Y-83.82
M15
G01X36.113Y-83.82
M16
G05
M30
