%TF.GenerationSoftware,KiCad,Pcbnew,9.0.7*%
%TF.CreationDate,2026-05-06T22:58:21+07:00*%
%TF.ProjectId,tag,7461672e-6b69-4636-9164-5f7063625858,rev?*%
%TF.SameCoordinates,Original*%
%TF.FileFunction,Copper,L2,Bot*%
%TF.FilePolarity,Positive*%
%FSLAX46Y46*%
G04 Gerber Fmt 4.6, Leading zero omitted, Abs format (unit mm)*
G04 Created by KiCad (PCBNEW 9.0.7) date 2026-05-06 22:58:21*
%MOMM*%
%LPD*%
G01*
G04 APERTURE LIST*
G04 Aperture macros list*
%AMRoundRect*
0 Rectangle with rounded corners*
0 $1 Rounding radius*
0 $2 $3 $4 $5 $6 $7 $8 $9 X,Y pos of 4 corners*
0 Add a 4 corners polygon primitive as box body*
4,1,4,$2,$3,$4,$5,$6,$7,$8,$9,$2,$3,0*
0 Add four circle primitives for the rounded corners*
1,1,$1+$1,$2,$3*
1,1,$1+$1,$4,$5*
1,1,$1+$1,$6,$7*
1,1,$1+$1,$8,$9*
0 Add four rect primitives between the rounded corners*
20,1,$1+$1,$2,$3,$4,$5,0*
20,1,$1+$1,$4,$5,$6,$7,0*
20,1,$1+$1,$6,$7,$8,$9,0*
20,1,$1+$1,$8,$9,$2,$3,0*%
G04 Aperture macros list end*
%TA.AperFunction,ComponentPad*%
%ADD10RoundRect,0.250000X-0.625000X0.350000X-0.625000X-0.350000X0.625000X-0.350000X0.625000X0.350000X0*%
%TD*%
%TA.AperFunction,ComponentPad*%
%ADD11O,1.750000X1.200000*%
%TD*%
%TA.AperFunction,ComponentPad*%
%ADD12RoundRect,0.250000X0.550000X-0.550000X0.550000X0.550000X-0.550000X0.550000X-0.550000X-0.550000X0*%
%TD*%
%TA.AperFunction,ComponentPad*%
%ADD13C,1.600000*%
%TD*%
%TA.AperFunction,HeatsinkPad*%
%ADD14O,2.100000X1.000000*%
%TD*%
%TA.AperFunction,HeatsinkPad*%
%ADD15O,1.600000X1.000000*%
%TD*%
%TA.AperFunction,SMDPad,CuDef*%
%ADD16C,1.000000*%
%TD*%
%TA.AperFunction,SMDPad,CuDef*%
%ADD17R,1.000000X1.000000*%
%TD*%
%TA.AperFunction,ViaPad*%
%ADD18C,0.500000*%
%TD*%
%TA.AperFunction,ViaPad*%
%ADD19C,0.600000*%
%TD*%
%TA.AperFunction,ViaPad*%
%ADD20C,0.700000*%
%TD*%
%TA.AperFunction,Conductor*%
%ADD21C,0.250000*%
%TD*%
%TA.AperFunction,Conductor*%
%ADD22C,0.600000*%
%TD*%
%TA.AperFunction,Conductor*%
%ADD23C,0.200000*%
%TD*%
%TA.AperFunction,Conductor*%
%ADD24C,0.500000*%
%TD*%
G04 APERTURE END LIST*
D10*
%TO.P,J4,1,Pin_1*%
%TO.N,VBUS*%
X35900000Y-90500000D03*
D11*
%TO.P,J4,2,Pin_2*%
%TO.N,GND*%
X35900000Y-92500000D03*
%TD*%
D12*
%TO.P,J10,1,Pin_1*%
%TO.N,GND*%
X37470000Y-99540000D03*
D13*
%TO.P,J10,2,Pin_2*%
%TO.N,+BATT*%
X37470000Y-96540000D03*
%TD*%
D14*
%TO.P,J1,S1,SHIELD*%
%TO.N,GND*%
X36663500Y-75180000D03*
D15*
X32483500Y-75180000D03*
D14*
X36663500Y-83820000D03*
D15*
X32483500Y-83820000D03*
%TD*%
D16*
%TO.P,TP10,1,1*%
%TO.N,/SPI_MOSI*%
X55900000Y-63070000D03*
%TD*%
%TO.P,TP11,1,1*%
%TO.N,/BLE_TX*%
X74650000Y-68280000D03*
%TD*%
%TO.P,TP9,1,1*%
%TO.N,/SPI_SCK*%
X57700000Y-66960000D03*
%TD*%
%TO.P,TP12,1,1*%
%TO.N,/UWB_RST*%
X40390000Y-58650000D03*
%TD*%
%TO.P,TP15,1,1*%
%TO.N,/SPI_CS2*%
X51400000Y-75675000D03*
%TD*%
%TO.P,TP4,1,1*%
%TO.N,/BLE_RX*%
X72150000Y-68490000D03*
%TD*%
%TO.P,TP13,1,1*%
%TO.N,/SPI_MISO*%
X56750000Y-65170000D03*
%TD*%
D17*
%TO.P,TP8,1,1*%
%TO.N,GND*%
X62525000Y-64250000D03*
%TD*%
D16*
%TO.P,TP14,1,1*%
%TO.N,/SPI_CS1*%
X50910000Y-71990000D03*
%TD*%
D18*
%TO.N,GND*%
X49010000Y-100990000D03*
X49000000Y-98990000D03*
X47000000Y-99000000D03*
X63960000Y-100570000D03*
X61940000Y-100510000D03*
D19*
X60500000Y-92700000D03*
X62160000Y-91800000D03*
%TO.N,Net-(C7-Pad2)*%
X63870000Y-90960000D03*
D20*
%TO.N,+3.3V*%
X46590000Y-85400000D03*
X44800000Y-76800000D03*
X44800000Y-77550000D03*
X45147702Y-83957702D03*
X43220000Y-88980000D03*
X44749923Y-83200052D03*
D19*
%TO.N,Net-(D4-A)*%
X60360000Y-88960000D03*
D20*
X76000000Y-93700000D03*
%TO.N,/LED_USR*%
X62275000Y-82383883D03*
X52220000Y-83810000D03*
%TO.N,/SPI_CS1*%
X52509587Y-62630553D03*
X50390671Y-74500484D03*
%TO.N,/SPI_MISO*%
X56750000Y-67975000D03*
X55050000Y-67275000D03*
%TO.N,/SPI_SCK*%
X55050000Y-68650000D03*
X57700000Y-69250000D03*
%TO.N,/SPI_MOSI*%
X55908949Y-61547017D03*
%TO.N,/UWB_RST*%
X53025000Y-66630000D03*
X40388711Y-66622687D03*
X40500000Y-57000000D03*
X54375000Y-72571104D03*
D19*
%TO.N,/PB8 {slash} I2C1_SCL*%
X56795405Y-83006689D03*
D20*
X45100000Y-90480000D03*
X73125000Y-84900000D03*
X64489934Y-82970066D03*
%TO.N,/PB9 {slash} I2C1_SDA*%
X73125000Y-85900000D03*
X63313037Y-83733883D03*
D19*
X57190000Y-83702604D03*
D20*
X44300000Y-91300000D03*
D19*
%TO.N,/PB0 {slash} ADC_IN8*%
X55225000Y-70770000D03*
D20*
X58735447Y-56845154D03*
%TO.N,/PA0{slash}BTN_USR*%
X60300000Y-67000000D03*
X64450000Y-60350000D03*
%TO.N,/PB1 {slash} ADC_IN9*%
X59290000Y-56100465D03*
D19*
X54612500Y-71429428D03*
D20*
%TO.N,/SPI_CS2*%
X49425000Y-70795404D03*
X49505000Y-74685000D03*
D18*
%TO.N,GND*%
X35000000Y-101000000D03*
X42900000Y-61500000D03*
X59250000Y-60750000D03*
X68500000Y-69500000D03*
X55000000Y-65250000D03*
X47000000Y-101000000D03*
X77740000Y-71380000D03*
X77740000Y-66105000D03*
X74500000Y-76575000D03*
X53750000Y-52500000D03*
X46800000Y-81130000D03*
X44900000Y-59500000D03*
X37000000Y-73000000D03*
X63325000Y-82375000D03*
X55000000Y-64000000D03*
X57250000Y-56000000D03*
X70400000Y-79600000D03*
X70865800Y-96085000D03*
X46000000Y-67450000D03*
X66250000Y-90900000D03*
X67500000Y-55125000D03*
X47330000Y-80790000D03*
X46900000Y-54300000D03*
X69500000Y-75700000D03*
X48060000Y-83840000D03*
X66250000Y-53875000D03*
X55360000Y-91870000D03*
X45165229Y-93550000D03*
X76550000Y-61500000D03*
X46900000Y-57500000D03*
X36000000Y-54000000D03*
X66250000Y-93300000D03*
X72020000Y-76220000D03*
X65300000Y-60400000D03*
X47810000Y-80390000D03*
X52100000Y-65700000D03*
X53000000Y-52500000D03*
X68500000Y-71000000D03*
X77750000Y-58000000D03*
X61750000Y-52250000D03*
X69500000Y-51000000D03*
X77740000Y-67630000D03*
X53750000Y-51750000D03*
X47310000Y-78210000D03*
X69230000Y-65000000D03*
X68300000Y-74500000D03*
X79700000Y-96300000D03*
X68490800Y-88810000D03*
X75300000Y-57650000D03*
X42000000Y-67450000D03*
X78720000Y-79155000D03*
X53980000Y-89140000D03*
X38000000Y-92000000D03*
X53900000Y-80240000D03*
X32000000Y-66000000D03*
X38895000Y-76100000D03*
X61420000Y-71070000D03*
X65000000Y-101350000D03*
X68790800Y-93700000D03*
X53850000Y-78490000D03*
X79234541Y-79155000D03*
X64175000Y-80975000D03*
X51660000Y-89130000D03*
X41000000Y-73000000D03*
X60750000Y-77675000D03*
X50949000Y-70020000D03*
X53000000Y-51750000D03*
X79200000Y-57350000D03*
X37350000Y-100910000D03*
X34300000Y-78000000D03*
X58930000Y-57690000D03*
X77740000Y-70630000D03*
X44749132Y-93919030D03*
X62700000Y-62960000D03*
X34293500Y-80500000D03*
X77848189Y-77490520D03*
X68480000Y-64250000D03*
X62960000Y-101340000D03*
X55000000Y-66350000D03*
X56280000Y-90680000D03*
X40601500Y-81100000D03*
X63750000Y-58950000D03*
X58630000Y-54750000D03*
X48400000Y-78600000D03*
X61375000Y-61620000D03*
X65750000Y-52250000D03*
X62650000Y-99890000D03*
X37600000Y-63860000D03*
X57100000Y-51000000D03*
X74060000Y-56275000D03*
X71370000Y-93320000D03*
X61660000Y-98600000D03*
X32000000Y-83000000D03*
X46900000Y-61500000D03*
X55700000Y-76740000D03*
X79744131Y-79155000D03*
X32000000Y-92000000D03*
X51000000Y-63900000D03*
X53000000Y-64800000D03*
X44000000Y-67450000D03*
X57190000Y-85420000D03*
X70890800Y-88810000D03*
X62500000Y-57750000D03*
X70090800Y-88810000D03*
X56070000Y-89140000D03*
X47960000Y-74690000D03*
X35000000Y-73000000D03*
X67590000Y-84560000D03*
X51800000Y-62200000D03*
X38793500Y-82800000D03*
X44200000Y-84600000D03*
X50520000Y-85700000D03*
X37600000Y-62960000D03*
X70400000Y-78800000D03*
X46920000Y-93690000D03*
X37600000Y-62160000D03*
X61420000Y-73180000D03*
X45598358Y-93205373D03*
X39000000Y-73000000D03*
X56940000Y-89150000D03*
X72030000Y-79540000D03*
X48720000Y-75790000D03*
X52380000Y-92070000D03*
X42400000Y-77790000D03*
X40440000Y-98140000D03*
X36000000Y-56000000D03*
X48996504Y-78606128D03*
X48925000Y-54300000D03*
X41200000Y-55500000D03*
X50240000Y-89160000D03*
X51238345Y-80928401D03*
X67100000Y-73300000D03*
X40950000Y-54300000D03*
X71370000Y-90120000D03*
X55700000Y-80240000D03*
X55000000Y-62750000D03*
X65100000Y-66800000D03*
X32293250Y-80500000D03*
X42440000Y-99440000D03*
X75300000Y-51000000D03*
X32000000Y-98000000D03*
X48410000Y-80372752D03*
X77820000Y-79485000D03*
X79750000Y-91100000D03*
X53000000Y-61300000D03*
X64610000Y-99890000D03*
X52909820Y-95208462D03*
X52700000Y-100720000D03*
X41000000Y-67450000D03*
X78200000Y-57350000D03*
X38400000Y-63860000D03*
X71370000Y-91720000D03*
X54330000Y-96710000D03*
X39000000Y-67450000D03*
X33000000Y-70700000D03*
X80000000Y-86300000D03*
X73890000Y-92660000D03*
X80200000Y-57350000D03*
X62040000Y-84520000D03*
X32000000Y-76000000D03*
X55010000Y-53500000D03*
X32000000Y-72000000D03*
X46900000Y-87500000D03*
X48900000Y-55500000D03*
X79160000Y-77095000D03*
X61750000Y-51000000D03*
X53750000Y-51000000D03*
X77740000Y-65380000D03*
X78365248Y-77468805D03*
X38000000Y-90000000D03*
X32000000Y-88000000D03*
X76560000Y-53650000D03*
X43900000Y-94900000D03*
X63750000Y-54000000D03*
X77750000Y-60000000D03*
X74000000Y-66000000D03*
X49300000Y-86870000D03*
X54930000Y-89140000D03*
X74780000Y-96240000D03*
X46510000Y-95920000D03*
X64826130Y-91375849D03*
X65600000Y-73200000D03*
X69290800Y-88810000D03*
X43850000Y-54300000D03*
X32000000Y-86000000D03*
X37100000Y-70800000D03*
X68480000Y-67900000D03*
X71900000Y-52250000D03*
X33000000Y-73000000D03*
X40000000Y-67450000D03*
X74050000Y-59000000D03*
X47460000Y-94750000D03*
X43437502Y-91300000D03*
X47800000Y-78600000D03*
X75880000Y-99760000D03*
X44280000Y-71400000D03*
X72000000Y-81000000D03*
X69500000Y-52250000D03*
X57500000Y-78490000D03*
X47380000Y-84710000D03*
X53000000Y-60200000D03*
X45600000Y-77500000D03*
X72130000Y-56420000D03*
X63864151Y-89486130D03*
X43630000Y-101020000D03*
X60000000Y-51000000D03*
X78320000Y-79465000D03*
X39440000Y-71070000D03*
X32000000Y-63000000D03*
X59500000Y-63000000D03*
X57510000Y-53500000D03*
X68900000Y-75100000D03*
X61550000Y-66800000D03*
X79160000Y-76595000D03*
X64826130Y-92315849D03*
X45600000Y-93922933D03*
X79170000Y-76095000D03*
X71900000Y-51000000D03*
X57600000Y-58800000D03*
X52138907Y-95213372D03*
X47900000Y-88400000D03*
X32000000Y-94000000D03*
X53000000Y-51000000D03*
X75300000Y-52250000D03*
X65000000Y-55125000D03*
X52900000Y-94462500D03*
X77740000Y-69880000D03*
X43300000Y-93800000D03*
X46350000Y-81700000D03*
X77750000Y-76000000D03*
X75310000Y-54900000D03*
X46740000Y-77940000D03*
X53675003Y-55300000D03*
X42400000Y-79500000D03*
X52158549Y-94462500D03*
X77800000Y-54895000D03*
X71949427Y-100792653D03*
X73000000Y-71000000D03*
X62500000Y-60375000D03*
X48900000Y-59500000D03*
X68350000Y-60450000D03*
X41200000Y-59500000D03*
X42410000Y-81090000D03*
X75175000Y-60240000D03*
X56160000Y-85640000D03*
X32000000Y-54000000D03*
X45000000Y-67450000D03*
X59400000Y-70300000D03*
X71370000Y-90920000D03*
X60880000Y-57430000D03*
X33000000Y-69000000D03*
X65900000Y-81000000D03*
X39920000Y-101100000D03*
X77750000Y-59000000D03*
X44755773Y-93210068D03*
X34000000Y-56000000D03*
X70200000Y-76400000D03*
X79170000Y-75595000D03*
X69230000Y-67900000D03*
X36000000Y-52000000D03*
X67300000Y-97200000D03*
X66250000Y-90100000D03*
X46650000Y-76850000D03*
X68400000Y-56500000D03*
X64800000Y-74000000D03*
X39000000Y-66700000D03*
X40621500Y-77800000D03*
X51800000Y-63000000D03*
X76000000Y-68000000D03*
X73775000Y-61490000D03*
X56260000Y-52125000D03*
X67990000Y-101350000D03*
D19*
X55700000Y-78500000D03*
D18*
X59960000Y-101340000D03*
X61950000Y-80975000D03*
X49590000Y-83630000D03*
X74780000Y-93850000D03*
X77750000Y-81000000D03*
X44900000Y-54325000D03*
X55000000Y-61500000D03*
X77740000Y-64630000D03*
X37460000Y-98290000D03*
X59400000Y-65600000D03*
X71000000Y-68000000D03*
X67690800Y-88810000D03*
X72020000Y-82460000D03*
X74060000Y-53775000D03*
X77740000Y-68380000D03*
X46101587Y-86701587D03*
X80010000Y-84690000D03*
X55760000Y-92410000D03*
X71370000Y-92520000D03*
X41900000Y-54300000D03*
X46920000Y-92230000D03*
X66250000Y-91700000D03*
X51000000Y-63000000D03*
X51800000Y-63900000D03*
X68480000Y-65000000D03*
X32000000Y-69000000D03*
X38795000Y-83600000D03*
X66890800Y-88810000D03*
X61500000Y-68750000D03*
X58850000Y-85550000D03*
X47900000Y-67450000D03*
X78420000Y-75205000D03*
X69000000Y-62000000D03*
X51000000Y-62200000D03*
X57500000Y-80240000D03*
X49799000Y-70050000D03*
X60000000Y-60370000D03*
X70400000Y-82000000D03*
X70400000Y-80400000D03*
X76560000Y-56275000D03*
X70900000Y-74690000D03*
X41960000Y-75990000D03*
X45415229Y-92670000D03*
X70300000Y-97300000D03*
X67500000Y-57750000D03*
X32000000Y-90000000D03*
X47950000Y-54300000D03*
X44500000Y-69862500D03*
X65600000Y-79000000D03*
X57500000Y-76740000D03*
X41300000Y-61500000D03*
X55000000Y-51000000D03*
X42900000Y-54300000D03*
X64816130Y-90425849D03*
X49400000Y-82100000D03*
X69410000Y-84640000D03*
X65750000Y-51000000D03*
X66250000Y-92500000D03*
X42900000Y-57500000D03*
X32000000Y-96000000D03*
X77740000Y-66880000D03*
X41639649Y-83585211D03*
X70400000Y-77200000D03*
X44900000Y-55500000D03*
X66300000Y-56300000D03*
X70400000Y-78000000D03*
X52532627Y-94837500D03*
X53800000Y-76740000D03*
X60000000Y-52250000D03*
X64810000Y-89480000D03*
X37000000Y-65000000D03*
X32306500Y-78000000D03*
X80246915Y-79155000D03*
X76550000Y-59000000D03*
X38000000Y-94000000D03*
X69230000Y-64250000D03*
X66250000Y-89300000D03*
X80000000Y-83000000D03*
X64800000Y-79000000D03*
X72000000Y-78000000D03*
X47000000Y-67450000D03*
X76000000Y-71000000D03*
X67700000Y-73900000D03*
X72270000Y-84050000D03*
X61300000Y-64440000D03*
X53050000Y-55300000D03*
X77750000Y-61000000D03*
X56125000Y-54750000D03*
X75500000Y-101010000D03*
X38980000Y-64510000D03*
X38193500Y-75200000D03*
X43000000Y-67450000D03*
X59400000Y-68300000D03*
X32000000Y-57000000D03*
X70400000Y-81200000D03*
X40626750Y-79500000D03*
X63750000Y-56500000D03*
X66300000Y-67850000D03*
X79730000Y-97180000D03*
X38400000Y-62160000D03*
X49000000Y-80370000D03*
X52930000Y-89140000D03*
X77740000Y-69155000D03*
X70890800Y-94135000D03*
X69000000Y-63000000D03*
X79750000Y-89450000D03*
X71370000Y-89320000D03*
X32000000Y-60000000D03*
X78430000Y-74705000D03*
X73800000Y-91400000D03*
X45900000Y-54300000D03*
X38400000Y-62960000D03*
X76000000Y-97000000D03*
D20*
%TO.N,/STM_SWDIO*%
X48790000Y-81420000D03*
X39800000Y-92000000D03*
%TO.N,/STM_SWDCLK*%
X40500000Y-93010000D03*
X51620000Y-83000000D03*
%TO.N,/BLE_RST*%
X72200000Y-61500000D03*
X71000000Y-56400000D03*
%TO.N,/BLE_SWDIO*%
X71000000Y-65900000D03*
X70000000Y-56900000D03*
%TO.N,/BLE_SWDCLK*%
X70000000Y-64700000D03*
X69000000Y-57400000D03*
%TO.N,/BLE_RX*%
X59425000Y-71750000D03*
X76600000Y-65300000D03*
%TO.N,/BLE_TX*%
X75987500Y-66387500D03*
X59492500Y-72932500D03*
%TO.N,/PA10 {slash} UART1_RX*%
X37200000Y-69700000D03*
X48704983Y-77622279D03*
%TO.N,/PA9 {slash} UART1_TX*%
X48677298Y-76722702D03*
X37190000Y-68700000D03*
%TO.N,Net-(D5-A)*%
X76700000Y-95450000D03*
D19*
X55200000Y-86500000D03*
D20*
%TO.N,/IMU_IQR*%
X49667981Y-75793495D03*
X45975000Y-68762500D03*
D19*
%TO.N,Net-(D3-A)*%
X55200000Y-85500000D03*
D20*
X76800000Y-91300000D03*
%TO.N,Net-(U7-NRST)*%
X64000000Y-64900000D03*
X63900000Y-71000000D03*
%TO.N,Net-(D2-A)*%
X75925000Y-89325000D03*
X73325000Y-78375000D03*
D18*
%TO.N,Net-(U5-ILIM)*%
X53000000Y-98325000D03*
D19*
X54320000Y-92853372D03*
D20*
%TO.N,/PM_SCL*%
X49832859Y-76678264D03*
D19*
%TO.N,/CHG*%
X54920000Y-95990000D03*
X78800000Y-94600000D03*
D20*
%TO.N,/V_USB*%
X35962500Y-81480944D03*
X36011303Y-77550000D03*
%TO.N,/CHARGE_EN*%
X51000000Y-96313372D03*
D19*
X55200000Y-84500000D03*
%TO.N,Net-(Q2-G)*%
X55750000Y-100460000D03*
X60530000Y-100250000D03*
X62210000Y-92860000D03*
X57485000Y-95360000D03*
%TO.N,Net-(C7-Pad2)*%
X58480000Y-98070000D03*
%TD*%
D21*
%TO.N,Net-(D4-A)*%
X76000000Y-92599998D02*
X76000000Y-93700000D01*
X71300002Y-87900000D02*
X76000000Y-92599998D01*
X61420000Y-87900000D02*
X71300002Y-87900000D01*
X60360000Y-88960000D02*
X61420000Y-87900000D01*
%TO.N,Net-(C7-Pad2)*%
X63870000Y-92550000D02*
X63870000Y-90960000D01*
X58480000Y-97940000D02*
X63870000Y-92550000D01*
X58480000Y-98070000D02*
X58480000Y-97940000D01*
%TO.N,Net-(Q2-G)*%
X59710000Y-95360000D02*
X57485000Y-95360000D01*
X62210000Y-92860000D02*
X59710000Y-95360000D01*
D22*
%TO.N,+3.3V*%
X44800000Y-77550000D02*
X44800000Y-83149975D01*
X45147702Y-83947702D02*
X44747702Y-83547702D01*
X45147702Y-83957702D02*
X45147702Y-83947702D01*
X44800000Y-77550000D02*
X44800000Y-76800000D01*
X44800000Y-83149975D02*
X44749923Y-83200052D01*
D21*
X43220000Y-88980000D02*
X43220000Y-88770000D01*
D22*
X44747702Y-83547702D02*
X44747702Y-83202273D01*
D21*
X43220000Y-88770000D02*
X46590000Y-85400000D01*
D22*
X44747702Y-83202273D02*
X44749923Y-83200052D01*
D23*
%TO.N,/LED_USR*%
X52420000Y-83780000D02*
X52250000Y-83780000D01*
X53816117Y-82383883D02*
X52420000Y-83780000D01*
X62275000Y-82383883D02*
X53816117Y-82383883D01*
X52250000Y-83780000D02*
X52220000Y-83810000D01*
D21*
%TO.N,/SPI_CS1*%
X50374000Y-74483813D02*
X50390671Y-74500484D01*
X52509587Y-64290413D02*
X50374000Y-66426000D01*
X52509587Y-62630553D02*
X52509587Y-64290413D01*
X50374000Y-66426000D02*
X50374000Y-74483813D01*
%TO.N,/SPI_MISO*%
X56750000Y-67975000D02*
X56750000Y-65170000D01*
X56055954Y-67275000D02*
X55050000Y-67275000D01*
X56344533Y-67394533D02*
X56750000Y-67800000D01*
X56750000Y-67975000D02*
X56750000Y-67800000D01*
X56344533Y-67394533D02*
G75*
G03*
X56055954Y-67275029I-288533J-288567D01*
G01*
%TO.N,/SPI_SCK*%
X57219533Y-68769533D02*
X57700000Y-69250000D01*
X57700000Y-66950000D02*
X57700000Y-69250000D01*
X57710000Y-66940000D02*
X57700000Y-66950000D01*
X56930954Y-68650000D02*
X55050000Y-68650000D01*
X57219533Y-68769533D02*
G75*
G03*
X56930954Y-68650029I-288533J-288567D01*
G01*
%TO.N,/SPI_MOSI*%
X55900000Y-63070000D02*
X55900000Y-61555966D01*
X55900000Y-61555966D02*
X55908949Y-61547017D01*
%TO.N,/UWB_RST*%
X53025000Y-71479596D02*
X54122588Y-72577184D01*
X40388711Y-66622687D02*
X40388711Y-57111289D01*
X40388711Y-57111289D02*
X40500000Y-57000000D01*
X54122588Y-72577184D02*
X54368920Y-72577184D01*
X54368920Y-72577184D02*
X54375000Y-72571104D01*
X53025000Y-66630000D02*
X53025000Y-71479596D01*
%TO.N,/PB8 {slash} I2C1_SCL*%
X71930000Y-84830000D02*
X70070066Y-82970066D01*
X73125000Y-84900000D02*
X73055000Y-84830000D01*
X70070066Y-82970066D02*
X64489934Y-82970066D01*
X56825000Y-83058883D02*
X54101117Y-83058883D01*
X73055000Y-84830000D02*
X71930000Y-84830000D01*
X64401117Y-83058883D02*
X56825000Y-83058883D01*
X54101117Y-83058883D02*
X46680000Y-90480000D01*
X46680000Y-90480000D02*
X45100000Y-90480000D01*
%TO.N,/PB9 {slash} I2C1_SDA*%
X54677396Y-83702604D02*
X47093663Y-91286337D01*
X72030000Y-85900000D02*
X69863883Y-83733883D01*
X73125000Y-85900000D02*
X72030000Y-85900000D01*
X57300000Y-83702604D02*
X54677396Y-83702604D01*
X47093663Y-91286337D02*
X44313663Y-91286337D01*
X44313663Y-91286337D02*
X44300000Y-91300000D01*
X69863883Y-83733883D02*
X63313037Y-83733883D01*
X63313037Y-83733883D02*
X63281758Y-83702604D01*
X63281758Y-83702604D02*
X57300000Y-83702604D01*
%TO.N,/PB0 {slash} ADC_IN8*%
X54374000Y-69919000D02*
X55225000Y-70770000D01*
X58454846Y-56845154D02*
X54374000Y-60926000D01*
X54374000Y-60926000D02*
X54374000Y-69919000D01*
X58735447Y-56845154D02*
X58454846Y-56845154D01*
%TO.N,/PA0{slash}BTN_USR*%
X60300000Y-67000000D02*
X60300000Y-64500000D01*
X60300000Y-64500000D02*
X64450000Y-60350000D01*
%TO.N,/PB1 {slash} ADC_IN9*%
X59284135Y-56106330D02*
X58043670Y-56106330D01*
X53700000Y-60450000D02*
X53700000Y-70516928D01*
X53700000Y-70516928D02*
X54612500Y-71429428D01*
X59290000Y-56100465D02*
X59284135Y-56106330D01*
X58043670Y-56106330D02*
X53700000Y-60450000D01*
%TO.N,/SPI_CS2*%
X49491048Y-74691048D02*
X49491048Y-74576731D01*
X49505000Y-74685000D02*
X49585000Y-74685000D01*
X49491048Y-74576731D02*
X49491048Y-74641048D01*
X49505000Y-74685000D02*
X49515495Y-74685000D01*
X49505000Y-70875406D02*
X49425000Y-70795406D01*
X51300000Y-75780000D02*
X51390000Y-75690000D01*
X49425000Y-70795406D02*
X49425000Y-70795404D01*
X50680000Y-75780000D02*
X51300000Y-75780000D01*
X49505000Y-74685000D02*
X49505000Y-74590683D01*
X49505000Y-74685000D02*
X49505000Y-70875406D01*
X49585000Y-74685000D02*
X50680000Y-75780000D01*
X49505000Y-74590683D02*
X49491048Y-74576731D01*
%TO.N,/STM_SWDIO*%
X39800000Y-92000000D02*
X39800000Y-90260000D01*
X39800000Y-90260000D02*
X48640000Y-81420000D01*
X48640000Y-81420000D02*
X48790000Y-81420000D01*
%TO.N,/STM_SWDCLK*%
X48040000Y-83000000D02*
X51620000Y-83000000D01*
X40500000Y-93010000D02*
X40500000Y-90540000D01*
X46309991Y-84724000D02*
X46316000Y-84724000D01*
X46316000Y-84724000D02*
X48040000Y-83000000D01*
X45914000Y-85126000D02*
X45914000Y-85119991D01*
X45914000Y-85119991D02*
X46309991Y-84724000D01*
X40500000Y-90540000D02*
X45914000Y-85126000D01*
%TO.N,/BLE_RST*%
X72200000Y-57600000D02*
X71000000Y-56400000D01*
X72200000Y-61500000D02*
X72200000Y-57600000D01*
%TO.N,/BLE_SWDIO*%
X71000000Y-65900000D02*
X71000000Y-57900000D01*
X71000000Y-57900000D02*
X70000000Y-56900000D01*
%TO.N,/BLE_SWDCLK*%
X70000000Y-64700000D02*
X70000000Y-58400000D01*
X70000000Y-58400000D02*
X69000000Y-57400000D01*
%TO.N,/BLE_RX*%
X75975000Y-65300000D02*
X72312500Y-68962500D01*
X76600000Y-65300000D02*
X75975000Y-65300000D01*
X69525000Y-71750000D02*
X72312500Y-68962500D01*
X72350000Y-68925000D02*
X72312500Y-68962500D01*
X59425000Y-71750000D02*
X69525000Y-71750000D01*
%TO.N,/BLE_TX*%
X69875000Y-72500000D02*
X72787500Y-69587500D01*
X75987500Y-66387500D02*
X72787500Y-69587500D01*
X59492500Y-72932500D02*
X59925000Y-72500000D01*
X59925000Y-72500000D02*
X69875000Y-72500000D01*
%TO.N,/PA10 {slash} UART1_RX*%
X40380000Y-69700000D02*
X48302279Y-77622279D01*
X37200000Y-69700000D02*
X40380000Y-69700000D01*
X48302279Y-77622279D02*
X48704983Y-77622279D01*
%TO.N,/PA9 {slash} UART1_TX*%
X48757277Y-76507277D02*
X48757277Y-76642723D01*
X37190000Y-68700000D02*
X40654596Y-68700000D01*
X40654596Y-68700000D02*
X48677298Y-76722702D01*
X48757277Y-76642723D02*
X48677298Y-76722702D01*
%TO.N,Net-(D5-A)*%
X71539843Y-87139843D02*
X76700000Y-92300000D01*
X76700000Y-92300000D02*
X76700000Y-95450000D01*
X55839843Y-87139843D02*
X71539843Y-87139843D01*
X55200000Y-86500000D02*
X55839843Y-87139843D01*
%TO.N,/IMU_IQR*%
X48750000Y-70800000D02*
X46712500Y-68762500D01*
X48750000Y-74884596D02*
X48750000Y-70800000D01*
X49658899Y-75793495D02*
X48750000Y-74884596D01*
X49667981Y-75793495D02*
X49658899Y-75793495D01*
X46712500Y-68762500D02*
X45975000Y-68762500D01*
%TO.N,Net-(D3-A)*%
X55200000Y-85540000D02*
X56000000Y-86340000D01*
X56000000Y-86340000D02*
X56039720Y-86340000D01*
X56039720Y-86340000D02*
X56039860Y-86339860D01*
X55200000Y-85500000D02*
X55200000Y-85540000D01*
X56039860Y-86339860D02*
X71839860Y-86339860D01*
X71839860Y-86339860D02*
X76800000Y-91300000D01*
%TO.N,Net-(U7-NRST)*%
X64000000Y-65000000D02*
X64000000Y-64900000D01*
X63900000Y-71000000D02*
X63900000Y-65100000D01*
X63900000Y-65100000D02*
X64000000Y-65000000D01*
%TO.N,Net-(D2-A)*%
X73800000Y-87200000D02*
X75925000Y-89325000D01*
X73325000Y-78375000D02*
X73325000Y-78550000D01*
X73325000Y-78550000D02*
X73800000Y-79025000D01*
X73800000Y-79025000D02*
X73800000Y-87200000D01*
%TO.N,Net-(U5-ILIM)*%
X54320000Y-92853372D02*
X53639237Y-93534135D01*
X53639237Y-93534135D02*
X53639237Y-97685763D01*
X53639237Y-97685763D02*
X53000000Y-98325000D01*
%TO.N,/CHG*%
X78800000Y-95170000D02*
X78800000Y-94600000D01*
X54920000Y-95990000D02*
X58194000Y-99264000D01*
X74706000Y-99264000D02*
X78800000Y-95170000D01*
X58194000Y-99264000D02*
X74706000Y-99264000D01*
D24*
%TO.N,/V_USB*%
X36011303Y-77550000D02*
X36011303Y-81432141D01*
D21*
%TO.N,/CHARGE_EN*%
X51000000Y-88700000D02*
X51000000Y-96313372D01*
X55200000Y-84500000D02*
X51000000Y-88700000D01*
%TO.N,Net-(Q2-G)*%
X56056000Y-100916000D02*
X58467140Y-100916000D01*
X55750000Y-100610000D02*
X56056000Y-100916000D01*
X55750000Y-100460000D02*
X55750000Y-100610000D01*
X59133140Y-100250000D02*
X60530000Y-100250000D01*
X58467140Y-100916000D02*
X59133140Y-100250000D01*
%TD*%
%TA.AperFunction,Conductor*%
%TO.N,GND*%
G36*
X56802653Y-84097789D02*
G01*
X56823295Y-84114423D01*
X56851985Y-84143113D01*
X56851986Y-84143114D01*
X56851988Y-84143115D01*
X56977511Y-84215586D01*
X56977512Y-84215586D01*
X56977515Y-84215588D01*
X57117525Y-84253104D01*
X57117528Y-84253104D01*
X57262472Y-84253104D01*
X57262475Y-84253104D01*
X57402485Y-84215588D01*
X57528015Y-84143113D01*
X57556705Y-84114423D01*
X57618028Y-84080938D01*
X57644386Y-84078104D01*
X62756660Y-84078104D01*
X62823699Y-84097789D01*
X62844341Y-84114423D01*
X62944321Y-84214403D01*
X62944323Y-84214404D01*
X62944327Y-84214407D01*
X63030408Y-84264105D01*
X63081253Y-84293460D01*
X63233980Y-84334383D01*
X63233982Y-84334383D01*
X63392092Y-84334383D01*
X63392094Y-84334383D01*
X63544821Y-84293460D01*
X63681753Y-84214403D01*
X63750454Y-84145702D01*
X63811777Y-84112217D01*
X63838135Y-84109383D01*
X69656984Y-84109383D01*
X69724023Y-84129068D01*
X69744665Y-84145702D01*
X71351642Y-85752679D01*
X71385127Y-85814002D01*
X71380143Y-85883694D01*
X71338271Y-85939627D01*
X71272807Y-85964044D01*
X71263961Y-85964360D01*
X56206760Y-85964360D01*
X56139721Y-85944675D01*
X56119079Y-85928041D01*
X55786819Y-85595781D01*
X55753334Y-85534458D01*
X55750500Y-85508100D01*
X55750500Y-85427527D01*
X55750500Y-85427525D01*
X55712984Y-85287515D01*
X55702130Y-85268716D01*
X55640511Y-85161988D01*
X55640506Y-85161982D01*
X55566205Y-85087681D01*
X55532720Y-85026358D01*
X55537704Y-84956666D01*
X55566205Y-84912319D01*
X55590673Y-84887851D01*
X55640509Y-84838015D01*
X55712984Y-84712485D01*
X55750500Y-84572475D01*
X55750500Y-84427525D01*
X55712984Y-84287515D01*
X55699467Y-84264104D01*
X55682995Y-84196205D01*
X55705847Y-84130178D01*
X55760768Y-84086987D01*
X55806855Y-84078104D01*
X56735614Y-84078104D01*
X56802653Y-84097789D01*
G37*
%TD.AperFunction*%
%TA.AperFunction,Conductor*%
G36*
X39613039Y-50620185D02*
G01*
X39658794Y-50672989D01*
X39670000Y-50724500D01*
X39670000Y-53900012D01*
X39670000Y-53900013D01*
X49830000Y-53899982D01*
X49830000Y-52493713D01*
X77149500Y-52493713D01*
X77149500Y-52706286D01*
X77182753Y-52916239D01*
X77248444Y-53118414D01*
X77344951Y-53307820D01*
X77469890Y-53479786D01*
X77620213Y-53630109D01*
X77792179Y-53755048D01*
X77792181Y-53755049D01*
X77792184Y-53755051D01*
X77981588Y-53851557D01*
X78183757Y-53917246D01*
X78393713Y-53950500D01*
X78393714Y-53950500D01*
X78606286Y-53950500D01*
X78606287Y-53950500D01*
X78816243Y-53917246D01*
X79018412Y-53851557D01*
X79207816Y-53755051D01*
X79229789Y-53739086D01*
X79379786Y-53630109D01*
X79379788Y-53630106D01*
X79379792Y-53630104D01*
X79530104Y-53479792D01*
X79530106Y-53479788D01*
X79530109Y-53479786D01*
X79655048Y-53307820D01*
X79655047Y-53307820D01*
X79655051Y-53307816D01*
X79751557Y-53118412D01*
X79817246Y-52916243D01*
X79850500Y-52706287D01*
X79850500Y-52493713D01*
X79817246Y-52283757D01*
X79751557Y-52081588D01*
X79655051Y-51892184D01*
X79655049Y-51892181D01*
X79655048Y-51892179D01*
X79530109Y-51720213D01*
X79379786Y-51569890D01*
X79207820Y-51444951D01*
X79018414Y-51348444D01*
X79018413Y-51348443D01*
X79018412Y-51348443D01*
X78816243Y-51282754D01*
X78816241Y-51282753D01*
X78816240Y-51282753D01*
X78654957Y-51257208D01*
X78606287Y-51249500D01*
X78393713Y-51249500D01*
X78345042Y-51257208D01*
X78183760Y-51282753D01*
X77981585Y-51348444D01*
X77792179Y-51444951D01*
X77620213Y-51569890D01*
X77469890Y-51720213D01*
X77344951Y-51892179D01*
X77248444Y-52081585D01*
X77182753Y-52283760D01*
X77149500Y-52493713D01*
X49830000Y-52493713D01*
X49830000Y-50724500D01*
X49849685Y-50657461D01*
X49902489Y-50611706D01*
X49954000Y-50600500D01*
X78734108Y-50600500D01*
X78795572Y-50600500D01*
X78804418Y-50600816D01*
X79033020Y-50617165D01*
X79050529Y-50619683D01*
X79270144Y-50667458D01*
X79287103Y-50672437D01*
X79497694Y-50750983D01*
X79513777Y-50758327D01*
X79711036Y-50866040D01*
X79725919Y-50875605D01*
X79905836Y-51010289D01*
X79919207Y-51021875D01*
X80078124Y-51180792D01*
X80089710Y-51194163D01*
X80224394Y-51374080D01*
X80233959Y-51388963D01*
X80341669Y-51586217D01*
X80349019Y-51602311D01*
X80427559Y-51812887D01*
X80432543Y-51829862D01*
X80480316Y-52049470D01*
X80482834Y-52066982D01*
X80499184Y-52295581D01*
X80499500Y-52304427D01*
X80499500Y-57616000D01*
X80479815Y-57683039D01*
X80427011Y-57728794D01*
X80375500Y-57740000D01*
X78070000Y-57740000D01*
X78070000Y-69490000D01*
X78070000Y-72090000D01*
X80375500Y-72090000D01*
X80442539Y-72109685D01*
X80488294Y-72162489D01*
X80499500Y-72214000D01*
X80499500Y-99895572D01*
X80499184Y-99904418D01*
X80482834Y-100133017D01*
X80480316Y-100150529D01*
X80432543Y-100370137D01*
X80427559Y-100387112D01*
X80349019Y-100597688D01*
X80341669Y-100613782D01*
X80233959Y-100811036D01*
X80224394Y-100825919D01*
X80089710Y-101005836D01*
X80078124Y-101019207D01*
X79919207Y-101178124D01*
X79905836Y-101189710D01*
X79725919Y-101324394D01*
X79711036Y-101333959D01*
X79513782Y-101441669D01*
X79497688Y-101449019D01*
X79287112Y-101527559D01*
X79270137Y-101532543D01*
X79050529Y-101580316D01*
X79033017Y-101582834D01*
X78804418Y-101599184D01*
X78795572Y-101599500D01*
X33204428Y-101599500D01*
X33195582Y-101599184D01*
X32966982Y-101582834D01*
X32949470Y-101580316D01*
X32729862Y-101532543D01*
X32712887Y-101527559D01*
X32502311Y-101449019D01*
X32486217Y-101441669D01*
X32288963Y-101333959D01*
X32274080Y-101324394D01*
X32094163Y-101189710D01*
X32080792Y-101178124D01*
X31921875Y-101019207D01*
X31910289Y-101005836D01*
X31775605Y-100825919D01*
X31766040Y-100811036D01*
X31758928Y-100798011D01*
X31658327Y-100613777D01*
X31650983Y-100597694D01*
X31572437Y-100387103D01*
X31567458Y-100370144D01*
X31519683Y-100150529D01*
X31517165Y-100133017D01*
X31516120Y-100118412D01*
X31500816Y-99904418D01*
X31500500Y-99895572D01*
X31500500Y-99493713D01*
X32149500Y-99493713D01*
X32149500Y-99706287D01*
X32159471Y-99769240D01*
X32182079Y-99911985D01*
X32182754Y-99916243D01*
X32242024Y-100098657D01*
X32248444Y-100118414D01*
X32344951Y-100307820D01*
X32469890Y-100479786D01*
X32620213Y-100630109D01*
X32792179Y-100755048D01*
X32792181Y-100755049D01*
X32792184Y-100755051D01*
X32981588Y-100851557D01*
X33183757Y-100917246D01*
X33393713Y-100950500D01*
X33393714Y-100950500D01*
X33606286Y-100950500D01*
X33606287Y-100950500D01*
X33816243Y-100917246D01*
X34018412Y-100851557D01*
X34207816Y-100755051D01*
X34295586Y-100691283D01*
X34379786Y-100630109D01*
X34379788Y-100630106D01*
X34379792Y-100630104D01*
X34530104Y-100479792D01*
X34530106Y-100479788D01*
X34530109Y-100479786D01*
X34655048Y-100307820D01*
X34655047Y-100307820D01*
X34655051Y-100307816D01*
X34732584Y-100155649D01*
X36270000Y-100155649D01*
X36272899Y-100192489D01*
X36272900Y-100192495D01*
X36318716Y-100350193D01*
X36318717Y-100350196D01*
X36402314Y-100491552D01*
X36402321Y-100491561D01*
X36518438Y-100607678D01*
X36518447Y-100607685D01*
X36659803Y-100691282D01*
X36659806Y-100691283D01*
X36817504Y-100737099D01*
X36817510Y-100737100D01*
X36854350Y-100739999D01*
X36854366Y-100740000D01*
X37170000Y-100740000D01*
X37770000Y-100740000D01*
X38085634Y-100740000D01*
X38085649Y-100739999D01*
X38122489Y-100737100D01*
X38122495Y-100737099D01*
X38280193Y-100691283D01*
X38280196Y-100691282D01*
X38421552Y-100607685D01*
X38421561Y-100607678D01*
X38537678Y-100491561D01*
X38537685Y-100491552D01*
X38621282Y-100350196D01*
X38621283Y-100350193D01*
X38667099Y-100192495D01*
X38667100Y-100192489D01*
X38669736Y-100158995D01*
X52924499Y-100158995D01*
X52951418Y-100294322D01*
X52951421Y-100294332D01*
X53004221Y-100421804D01*
X53004228Y-100421817D01*
X53080885Y-100536541D01*
X53080888Y-100536545D01*
X53178454Y-100634111D01*
X53178458Y-100634114D01*
X53293182Y-100710771D01*
X53293195Y-100710778D01*
X53400074Y-100755048D01*
X53420672Y-100763580D01*
X53420676Y-100763580D01*
X53420677Y-100763581D01*
X53556004Y-100790500D01*
X53556007Y-100790500D01*
X53693995Y-100790500D01*
X53785041Y-100772389D01*
X53829328Y-100763580D01*
X53956811Y-100710775D01*
X54071542Y-100634114D01*
X54169114Y-100536542D01*
X54245775Y-100421811D01*
X54298580Y-100294328D01*
X54318837Y-100192489D01*
X54325500Y-100158995D01*
X54325500Y-100021004D01*
X54298581Y-99885677D01*
X54298580Y-99885676D01*
X54298580Y-99885672D01*
X54297257Y-99882477D01*
X54245778Y-99758195D01*
X54245771Y-99758182D01*
X54169114Y-99643458D01*
X54169111Y-99643454D01*
X54071545Y-99545888D01*
X54071541Y-99545885D01*
X53956817Y-99469228D01*
X53956804Y-99469221D01*
X53829332Y-99416421D01*
X53829322Y-99416418D01*
X53693995Y-99389500D01*
X53693993Y-99389500D01*
X53556007Y-99389500D01*
X53556005Y-99389500D01*
X53420677Y-99416418D01*
X53420667Y-99416421D01*
X53293195Y-99469221D01*
X53293182Y-99469228D01*
X53178458Y-99545885D01*
X53178454Y-99545888D01*
X53080888Y-99643454D01*
X53080885Y-99643458D01*
X53004228Y-99758182D01*
X53004221Y-99758195D01*
X52951421Y-99885667D01*
X52951418Y-99885677D01*
X52924500Y-100021004D01*
X52924500Y-100021007D01*
X52924500Y-100158993D01*
X52924500Y-100158995D01*
X52924499Y-100158995D01*
X38669736Y-100158995D01*
X38669999Y-100155649D01*
X38670000Y-100155634D01*
X38670000Y-99840000D01*
X37770000Y-99840000D01*
X37770000Y-100740000D01*
X37170000Y-100740000D01*
X37170000Y-99840000D01*
X36270000Y-99840000D01*
X36270000Y-100155649D01*
X34732584Y-100155649D01*
X34751557Y-100118412D01*
X34817246Y-99916243D01*
X34850500Y-99706287D01*
X34850500Y-99493922D01*
X37120000Y-99493922D01*
X37120000Y-99586078D01*
X37143852Y-99675095D01*
X37189930Y-99754905D01*
X37255095Y-99820070D01*
X37334905Y-99866148D01*
X37423922Y-99890000D01*
X37516078Y-99890000D01*
X37605095Y-99866148D01*
X37684905Y-99820070D01*
X37750070Y-99754905D01*
X37796148Y-99675095D01*
X37820000Y-99586078D01*
X37820000Y-99493922D01*
X37796148Y-99404905D01*
X37750070Y-99325095D01*
X37684905Y-99259930D01*
X37650385Y-99240000D01*
X37770000Y-99240000D01*
X38670000Y-99240000D01*
X38670000Y-98924365D01*
X38669999Y-98924350D01*
X38667100Y-98887510D01*
X38667099Y-98887504D01*
X38621283Y-98729806D01*
X38621282Y-98729803D01*
X38537685Y-98588447D01*
X38537678Y-98588438D01*
X38421561Y-98472321D01*
X38421552Y-98472314D01*
X38280196Y-98388717D01*
X38280193Y-98388716D01*
X38215968Y-98370057D01*
X38122495Y-98342900D01*
X38122489Y-98342899D01*
X38085649Y-98340000D01*
X37770000Y-98340000D01*
X37770000Y-99240000D01*
X37650385Y-99240000D01*
X37605095Y-99213852D01*
X37516078Y-99190000D01*
X37423922Y-99190000D01*
X37334905Y-99213852D01*
X37255095Y-99259930D01*
X37189930Y-99325095D01*
X37143852Y-99404905D01*
X37120000Y-99493922D01*
X34850500Y-99493922D01*
X34850500Y-99493713D01*
X34817246Y-99283757D01*
X34751557Y-99081588D01*
X34671440Y-98924350D01*
X36270000Y-98924350D01*
X36270000Y-99240000D01*
X37170000Y-99240000D01*
X37170000Y-98340000D01*
X36854350Y-98340000D01*
X36817510Y-98342899D01*
X36817504Y-98342900D01*
X36659806Y-98388716D01*
X36659803Y-98388717D01*
X36518447Y-98472314D01*
X36518438Y-98472321D01*
X36402321Y-98588438D01*
X36402314Y-98588447D01*
X36318717Y-98729803D01*
X36318716Y-98729806D01*
X36272900Y-98887504D01*
X36272899Y-98887510D01*
X36270000Y-98924350D01*
X34671440Y-98924350D01*
X34655051Y-98892184D01*
X34655050Y-98892182D01*
X34530109Y-98720213D01*
X34379786Y-98569890D01*
X34207820Y-98444951D01*
X34018414Y-98348444D01*
X34018413Y-98348443D01*
X34018412Y-98348443D01*
X33816243Y-98282754D01*
X33816241Y-98282753D01*
X33816240Y-98282753D01*
X33666953Y-98259108D01*
X52499500Y-98259108D01*
X52499500Y-98390891D01*
X52533608Y-98518187D01*
X52563459Y-98569890D01*
X52599500Y-98632314D01*
X52692686Y-98725500D01*
X52806814Y-98791392D01*
X52934108Y-98825500D01*
X52934110Y-98825500D01*
X53065890Y-98825500D01*
X53065892Y-98825500D01*
X53193186Y-98791392D01*
X53307314Y-98725500D01*
X53400500Y-98632314D01*
X53466392Y-98518186D01*
X53500500Y-98390892D01*
X53500500Y-98390890D01*
X53502603Y-98383042D01*
X53504109Y-98383445D01*
X53528631Y-98328012D01*
X53535611Y-98320425D01*
X53939712Y-97916326D01*
X53989148Y-97830700D01*
X54014737Y-97735199D01*
X54014737Y-97636327D01*
X54014737Y-95917525D01*
X54369500Y-95917525D01*
X54369500Y-96062475D01*
X54407016Y-96202485D01*
X54407017Y-96202488D01*
X54479488Y-96328011D01*
X54479490Y-96328013D01*
X54479491Y-96328015D01*
X54581985Y-96430509D01*
X54581986Y-96430510D01*
X54581988Y-96430511D01*
X54707511Y-96502982D01*
X54707512Y-96502982D01*
X54707515Y-96502984D01*
X54847525Y-96540500D01*
X54888101Y-96540500D01*
X54955140Y-96560185D01*
X54975782Y-96576819D01*
X57641773Y-99242810D01*
X57675258Y-99304133D01*
X57670274Y-99373825D01*
X57628402Y-99429758D01*
X57601546Y-99445051D01*
X57543197Y-99469220D01*
X57543182Y-99469228D01*
X57428458Y-99545885D01*
X57428454Y-99545888D01*
X57330888Y-99643454D01*
X57330885Y-99643458D01*
X57254228Y-99758182D01*
X57254221Y-99758195D01*
X57201421Y-99885667D01*
X57201418Y-99885677D01*
X57174500Y-100021004D01*
X57174500Y-100021007D01*
X57174500Y-100158993D01*
X57174500Y-100158995D01*
X57174499Y-100158995D01*
X57201418Y-100294322D01*
X57201421Y-100294332D01*
X57232369Y-100369048D01*
X57239838Y-100438518D01*
X57208562Y-100500997D01*
X57148473Y-100536648D01*
X57117808Y-100540500D01*
X56424500Y-100540500D01*
X56357461Y-100520815D01*
X56311706Y-100468011D01*
X56300500Y-100416500D01*
X56300500Y-100387527D01*
X56300500Y-100387525D01*
X56262984Y-100247515D01*
X56222576Y-100177527D01*
X56190511Y-100121988D01*
X56190506Y-100121982D01*
X56088017Y-100019493D01*
X56088011Y-100019488D01*
X55962488Y-99947017D01*
X55962489Y-99947017D01*
X55951006Y-99943940D01*
X55822475Y-99909500D01*
X55677525Y-99909500D01*
X55548993Y-99943940D01*
X55537511Y-99947017D01*
X55411988Y-100019488D01*
X55411982Y-100019493D01*
X55309493Y-100121982D01*
X55309488Y-100121988D01*
X55237017Y-100247511D01*
X55237016Y-100247515D01*
X55199500Y-100387525D01*
X55199500Y-100532475D01*
X55229701Y-100645185D01*
X55237017Y-100672488D01*
X55309488Y-100798011D01*
X55309490Y-100798013D01*
X55309491Y-100798015D01*
X55411985Y-100900509D01*
X55411986Y-100900510D01*
X55411988Y-100900511D01*
X55537511Y-100972982D01*
X55537512Y-100972982D01*
X55537515Y-100972984D01*
X55566117Y-100980647D01*
X55621704Y-101012741D01*
X55755525Y-101146562D01*
X55825438Y-101216475D01*
X55911059Y-101265908D01*
X55911062Y-101265910D01*
X55958811Y-101278705D01*
X55958812Y-101278705D01*
X55968903Y-101281408D01*
X56006564Y-101291500D01*
X56006565Y-101291500D01*
X56006566Y-101291500D01*
X58516575Y-101291500D01*
X58516576Y-101291500D01*
X58564326Y-101278705D01*
X58612078Y-101265910D01*
X58697702Y-101216475D01*
X58767615Y-101146562D01*
X59252358Y-100661819D01*
X59313681Y-100628334D01*
X59340039Y-100625500D01*
X60075614Y-100625500D01*
X60142653Y-100645185D01*
X60163295Y-100661819D01*
X60191985Y-100690509D01*
X60191986Y-100690510D01*
X60191988Y-100690511D01*
X60317511Y-100762982D01*
X60317512Y-100762982D01*
X60317515Y-100762984D01*
X60457525Y-100800500D01*
X60457528Y-100800500D01*
X60602472Y-100800500D01*
X60602475Y-100800500D01*
X60742485Y-100762984D01*
X60868015Y-100690509D01*
X60970509Y-100588015D01*
X61042984Y-100462485D01*
X61080500Y-100322475D01*
X61080500Y-100177525D01*
X61042984Y-100037515D01*
X61033451Y-100021004D01*
X60970511Y-99911988D01*
X60970506Y-99911982D01*
X60909705Y-99851181D01*
X60876220Y-99789858D01*
X60881204Y-99720166D01*
X60923076Y-99664233D01*
X60988540Y-99639816D01*
X60997386Y-99639500D01*
X74755435Y-99639500D01*
X74755436Y-99639500D01*
X74803186Y-99626705D01*
X74850938Y-99613910D01*
X74936562Y-99564475D01*
X75006475Y-99494562D01*
X75007324Y-99493713D01*
X77149500Y-99493713D01*
X77149500Y-99706287D01*
X77159471Y-99769240D01*
X77182079Y-99911985D01*
X77182754Y-99916243D01*
X77242024Y-100098657D01*
X77248444Y-100118414D01*
X77344951Y-100307820D01*
X77469890Y-100479786D01*
X77620213Y-100630109D01*
X77792179Y-100755048D01*
X77792181Y-100755049D01*
X77792184Y-100755051D01*
X77981588Y-100851557D01*
X78183757Y-100917246D01*
X78393713Y-100950500D01*
X78393714Y-100950500D01*
X78606286Y-100950500D01*
X78606287Y-100950500D01*
X78816243Y-100917246D01*
X79018412Y-100851557D01*
X79207816Y-100755051D01*
X79295586Y-100691283D01*
X79379786Y-100630109D01*
X79379788Y-100630106D01*
X79379792Y-100630104D01*
X79530104Y-100479792D01*
X79530106Y-100479788D01*
X79530109Y-100479786D01*
X79655048Y-100307820D01*
X79655047Y-100307820D01*
X79655051Y-100307816D01*
X79751557Y-100118412D01*
X79817246Y-99916243D01*
X79850500Y-99706287D01*
X79850500Y-99493713D01*
X79817246Y-99283757D01*
X79751557Y-99081588D01*
X79655051Y-98892184D01*
X79655049Y-98892181D01*
X79655048Y-98892179D01*
X79530109Y-98720213D01*
X79379786Y-98569890D01*
X79207820Y-98444951D01*
X79018414Y-98348444D01*
X79018413Y-98348443D01*
X79018412Y-98348443D01*
X78816243Y-98282754D01*
X78816241Y-98282753D01*
X78816240Y-98282753D01*
X78654957Y-98257208D01*
X78606287Y-98249500D01*
X78393713Y-98249500D01*
X78345042Y-98257208D01*
X78183760Y-98282753D01*
X77981585Y-98348444D01*
X77792179Y-98444951D01*
X77620213Y-98569890D01*
X77469890Y-98720213D01*
X77344951Y-98892179D01*
X77248444Y-99081585D01*
X77182753Y-99283760D01*
X77153378Y-99469228D01*
X77149500Y-99493713D01*
X75007324Y-99493713D01*
X79100474Y-95400563D01*
X79100475Y-95400562D01*
X79149910Y-95314938D01*
X79175500Y-95219435D01*
X79175500Y-95054386D01*
X79195185Y-94987347D01*
X79211819Y-94966705D01*
X79213709Y-94964815D01*
X79240509Y-94938015D01*
X79312984Y-94812485D01*
X79350500Y-94672475D01*
X79350500Y-94527525D01*
X79312984Y-94387515D01*
X79309575Y-94381611D01*
X79240511Y-94261988D01*
X79240506Y-94261982D01*
X79138017Y-94159493D01*
X79138011Y-94159488D01*
X79012488Y-94087017D01*
X79012489Y-94087017D01*
X79001006Y-94083940D01*
X78872475Y-94049500D01*
X78727525Y-94049500D01*
X78598993Y-94083940D01*
X78587511Y-94087017D01*
X78461988Y-94159488D01*
X78461982Y-94159493D01*
X78359493Y-94261982D01*
X78359488Y-94261988D01*
X78287017Y-94387511D01*
X78287016Y-94387515D01*
X78249500Y-94527525D01*
X78249500Y-94672475D01*
X78286216Y-94809500D01*
X78287017Y-94812488D01*
X78363555Y-94945054D01*
X78360527Y-94946802D01*
X78379908Y-94997026D01*
X78365828Y-95065463D01*
X78344013Y-95094949D01*
X74586782Y-98852181D01*
X74525459Y-98885666D01*
X74499101Y-98888500D01*
X58400899Y-98888500D01*
X58333860Y-98868815D01*
X58313218Y-98852181D01*
X58289447Y-98828410D01*
X58255962Y-98767087D01*
X58260946Y-98697395D01*
X58302818Y-98641462D01*
X58368282Y-98617045D01*
X58399393Y-98620015D01*
X58399469Y-98619439D01*
X58407523Y-98620499D01*
X58407525Y-98620500D01*
X58407527Y-98620500D01*
X58552472Y-98620500D01*
X58552475Y-98620500D01*
X58692485Y-98582984D01*
X58818015Y-98510509D01*
X58920509Y-98408015D01*
X58992984Y-98282485D01*
X59030500Y-98142475D01*
X59030500Y-97997525D01*
X59030498Y-97997520D01*
X59029525Y-97990129D01*
X59040285Y-97921093D01*
X59064779Y-97886256D01*
X63581037Y-93370000D01*
X66600000Y-93370000D01*
X70990000Y-93360000D01*
X70980000Y-89190000D01*
X66600000Y-89190000D01*
X66600000Y-93370000D01*
X63581037Y-93370000D01*
X64170474Y-92780563D01*
X64171829Y-92778216D01*
X64219910Y-92694938D01*
X64245500Y-92599435D01*
X64245500Y-91414386D01*
X64265185Y-91347347D01*
X64281819Y-91326705D01*
X64310509Y-91298015D01*
X64382984Y-91172485D01*
X64420500Y-91032475D01*
X64420500Y-90887525D01*
X64382984Y-90747515D01*
X64382628Y-90746899D01*
X64310511Y-90621988D01*
X64310506Y-90621982D01*
X64208017Y-90519493D01*
X64208011Y-90519488D01*
X64082488Y-90447017D01*
X64082489Y-90447017D01*
X64071006Y-90443940D01*
X63942475Y-90409500D01*
X63797525Y-90409500D01*
X63668993Y-90443940D01*
X63657511Y-90447017D01*
X63531988Y-90519488D01*
X63531982Y-90519493D01*
X63429493Y-90621982D01*
X63429488Y-90621988D01*
X63357017Y-90747511D01*
X63357016Y-90747515D01*
X63319500Y-90887525D01*
X63319500Y-91032475D01*
X63335538Y-91092328D01*
X63357017Y-91172488D01*
X63429488Y-91298011D01*
X63429493Y-91298017D01*
X63458181Y-91326705D01*
X63491666Y-91388028D01*
X63494500Y-91414386D01*
X63494500Y-92343100D01*
X63474815Y-92410139D01*
X63458181Y-92430781D01*
X62972181Y-92916781D01*
X62910858Y-92950266D01*
X62841166Y-92945282D01*
X62785233Y-92903410D01*
X62760816Y-92837946D01*
X62760500Y-92829100D01*
X62760500Y-92787527D01*
X62760500Y-92787525D01*
X62722984Y-92647515D01*
X62719385Y-92641282D01*
X62650511Y-92521988D01*
X62650506Y-92521982D01*
X62548017Y-92419493D01*
X62548011Y-92419488D01*
X62422488Y-92347017D01*
X62422489Y-92347017D01*
X62397749Y-92340388D01*
X62282475Y-92309500D01*
X62137525Y-92309500D01*
X62022251Y-92340388D01*
X61997511Y-92347017D01*
X61871988Y-92419488D01*
X61871982Y-92419493D01*
X61769493Y-92521982D01*
X61769488Y-92521988D01*
X61697017Y-92647511D01*
X61697016Y-92647515D01*
X61659500Y-92787525D01*
X61659500Y-92787527D01*
X61659500Y-92828101D01*
X61639815Y-92895140D01*
X61623181Y-92915782D01*
X59590782Y-94948181D01*
X59529459Y-94981666D01*
X59503101Y-94984500D01*
X57939386Y-94984500D01*
X57872347Y-94964815D01*
X57851705Y-94948181D01*
X57823017Y-94919493D01*
X57823011Y-94919488D01*
X57697488Y-94847017D01*
X57697489Y-94847017D01*
X57686006Y-94843940D01*
X57557475Y-94809500D01*
X57412525Y-94809500D01*
X57283993Y-94843940D01*
X57272511Y-94847017D01*
X57146988Y-94919488D01*
X57146982Y-94919493D01*
X57044493Y-95021982D01*
X57044488Y-95021988D01*
X56972017Y-95147511D01*
X56972016Y-95147515D01*
X56934500Y-95287525D01*
X56934500Y-95432475D01*
X56972016Y-95572485D01*
X56972017Y-95572488D01*
X57044488Y-95698011D01*
X57044490Y-95698013D01*
X57044491Y-95698015D01*
X57146985Y-95800509D01*
X57146986Y-95800510D01*
X57146988Y-95800511D01*
X57272511Y-95872982D01*
X57272512Y-95872982D01*
X57272515Y-95872984D01*
X57412525Y-95910500D01*
X57412528Y-95910500D01*
X57557472Y-95910500D01*
X57557475Y-95910500D01*
X57697485Y-95872984D01*
X57823015Y-95800509D01*
X57851705Y-95771819D01*
X57913028Y-95738334D01*
X57939386Y-95735500D01*
X59759435Y-95735500D01*
X59759436Y-95735500D01*
X59802264Y-95724024D01*
X59807183Y-95722706D01*
X59807184Y-95722705D01*
X59807186Y-95722705D01*
X59850683Y-95711050D01*
X59920532Y-95712713D01*
X59978395Y-95751876D01*
X60005898Y-95816105D01*
X59994311Y-95885007D01*
X59970456Y-95918506D01*
X58379024Y-97509937D01*
X58323438Y-97542030D01*
X58267518Y-97557014D01*
X58267511Y-97557017D01*
X58141988Y-97629488D01*
X58141982Y-97629493D01*
X58039493Y-97731982D01*
X58039488Y-97731988D01*
X57967017Y-97857511D01*
X57967016Y-97857515D01*
X57929500Y-97997525D01*
X57929500Y-97997527D01*
X57929500Y-98142473D01*
X57930561Y-98150531D01*
X57928809Y-98150761D01*
X57927378Y-98210640D01*
X57888210Y-98268498D01*
X57823978Y-98295996D01*
X57755077Y-98284402D01*
X57721589Y-98260552D01*
X55506819Y-96045782D01*
X55473334Y-95984459D01*
X55470500Y-95958101D01*
X55470500Y-95917527D01*
X55470500Y-95917525D01*
X55432984Y-95777515D01*
X55429695Y-95771819D01*
X55360511Y-95651988D01*
X55360506Y-95651982D01*
X55258017Y-95549493D01*
X55258011Y-95549488D01*
X55132488Y-95477017D01*
X55132489Y-95477017D01*
X55121006Y-95473940D01*
X54992475Y-95439500D01*
X54847525Y-95439500D01*
X54718993Y-95473940D01*
X54707511Y-95477017D01*
X54581988Y-95549488D01*
X54581982Y-95549493D01*
X54479493Y-95651982D01*
X54479488Y-95651988D01*
X54407017Y-95777511D01*
X54407016Y-95777515D01*
X54369500Y-95917525D01*
X54014737Y-95917525D01*
X54014737Y-93741034D01*
X54034422Y-93673995D01*
X54051056Y-93653353D01*
X54264218Y-93440191D01*
X54325541Y-93406706D01*
X54351899Y-93403872D01*
X54392472Y-93403872D01*
X54392475Y-93403872D01*
X54532485Y-93366356D01*
X54658015Y-93293881D01*
X54760509Y-93191387D01*
X54832984Y-93065857D01*
X54870500Y-92925847D01*
X54870500Y-92780897D01*
X54832984Y-92640887D01*
X54809666Y-92600500D01*
X54760511Y-92515360D01*
X54760506Y-92515354D01*
X54658017Y-92412865D01*
X54658011Y-92412860D01*
X54532488Y-92340389D01*
X54532489Y-92340389D01*
X54521006Y-92337312D01*
X54392475Y-92302872D01*
X54247525Y-92302872D01*
X54118993Y-92337312D01*
X54107511Y-92340389D01*
X53981988Y-92412860D01*
X53981982Y-92412865D01*
X53879493Y-92515354D01*
X53879488Y-92515360D01*
X53807017Y-92640883D01*
X53807016Y-92640887D01*
X53769500Y-92780897D01*
X53769500Y-92780899D01*
X53769500Y-92821473D01*
X53749815Y-92888512D01*
X53733181Y-92909154D01*
X53338763Y-93303571D01*
X53289328Y-93389194D01*
X53289328Y-93389195D01*
X53289327Y-93389197D01*
X53263737Y-93484700D01*
X53263737Y-93484702D01*
X53263737Y-97478863D01*
X53244052Y-97545902D01*
X53227418Y-97566544D01*
X53004586Y-97789375D01*
X52943263Y-97822860D01*
X52934572Y-97824375D01*
X52806812Y-97858608D01*
X52692686Y-97924500D01*
X52692683Y-97924502D01*
X52599502Y-98017683D01*
X52599500Y-98017686D01*
X52533608Y-98131812D01*
X52499500Y-98259108D01*
X33666953Y-98259108D01*
X33654957Y-98257208D01*
X33606287Y-98249500D01*
X33393713Y-98249500D01*
X33345042Y-98257208D01*
X33183760Y-98282753D01*
X32981585Y-98348444D01*
X32792179Y-98444951D01*
X32620213Y-98569890D01*
X32469890Y-98720213D01*
X32344951Y-98892179D01*
X32248444Y-99081585D01*
X32182753Y-99283760D01*
X32153378Y-99469228D01*
X32149500Y-99493713D01*
X31500500Y-99493713D01*
X31500500Y-96436530D01*
X36419500Y-96436530D01*
X36419500Y-96643469D01*
X36459868Y-96846412D01*
X36459870Y-96846420D01*
X36539058Y-97037596D01*
X36654024Y-97209657D01*
X36800342Y-97355975D01*
X36800345Y-97355977D01*
X36972402Y-97470941D01*
X37163580Y-97550130D01*
X37366530Y-97590499D01*
X37366534Y-97590500D01*
X37366535Y-97590500D01*
X37573466Y-97590500D01*
X37573467Y-97590499D01*
X37776420Y-97550130D01*
X37967598Y-97470941D01*
X38139655Y-97355977D01*
X38285977Y-97209655D01*
X38400941Y-97037598D01*
X38480130Y-96846420D01*
X38520500Y-96643465D01*
X38520500Y-96436535D01*
X38480130Y-96233580D01*
X38400941Y-96042402D01*
X38285977Y-95870345D01*
X38285975Y-95870342D01*
X38139657Y-95724024D01*
X38031837Y-95651982D01*
X37967598Y-95609059D01*
X37879308Y-95572488D01*
X37776420Y-95529870D01*
X37776412Y-95529868D01*
X37573469Y-95489500D01*
X37573465Y-95489500D01*
X37366535Y-95489500D01*
X37366530Y-95489500D01*
X37163587Y-95529868D01*
X37163579Y-95529870D01*
X36972403Y-95609058D01*
X36800342Y-95724024D01*
X36654024Y-95870342D01*
X36539058Y-96042403D01*
X36459870Y-96233579D01*
X36459868Y-96233587D01*
X36419500Y-96436530D01*
X31500500Y-96436530D01*
X31500500Y-92800000D01*
X34666872Y-92800000D01*
X34738811Y-92973678D01*
X34738812Y-92973681D01*
X34848248Y-93137462D01*
X34848251Y-93137466D01*
X34987533Y-93276748D01*
X34987537Y-93276751D01*
X35151315Y-93386185D01*
X35151328Y-93386192D01*
X35333306Y-93461569D01*
X35333318Y-93461572D01*
X35526504Y-93499999D01*
X35526508Y-93500000D01*
X35600000Y-93500000D01*
X36200000Y-93500000D01*
X36273492Y-93500000D01*
X36273495Y-93499999D01*
X36466681Y-93461572D01*
X36466693Y-93461569D01*
X36648671Y-93386192D01*
X36648684Y-93386185D01*
X36812462Y-93276751D01*
X36812466Y-93276748D01*
X36951748Y-93137466D01*
X36951751Y-93137462D01*
X37061187Y-92973681D01*
X37061188Y-92973678D01*
X37133128Y-92800000D01*
X36200000Y-92800000D01*
X36200000Y-93500000D01*
X35600000Y-93500000D01*
X35600000Y-92800000D01*
X34666872Y-92800000D01*
X31500500Y-92800000D01*
X31500500Y-92199999D01*
X34666871Y-92199999D01*
X34666872Y-92200000D01*
X35669670Y-92200000D01*
X35599925Y-92269745D01*
X35550556Y-92355255D01*
X35525000Y-92450630D01*
X35525000Y-92549370D01*
X35550556Y-92644745D01*
X35599925Y-92730255D01*
X35669745Y-92800075D01*
X35755255Y-92849444D01*
X35850630Y-92875000D01*
X35949370Y-92875000D01*
X36044745Y-92849444D01*
X36130255Y-92800075D01*
X36200075Y-92730255D01*
X36249444Y-92644745D01*
X36275000Y-92549370D01*
X36275000Y-92450630D01*
X36249444Y-92355255D01*
X36200075Y-92269745D01*
X36130330Y-92200000D01*
X37133128Y-92200000D01*
X37133128Y-92199999D01*
X37061188Y-92026321D01*
X37061187Y-92026318D01*
X37031379Y-91981707D01*
X36990777Y-91920943D01*
X39199500Y-91920943D01*
X39199500Y-92079057D01*
X39231907Y-92199999D01*
X39240423Y-92231783D01*
X39240426Y-92231790D01*
X39319475Y-92368709D01*
X39319479Y-92368714D01*
X39319480Y-92368716D01*
X39431284Y-92480520D01*
X39431286Y-92480521D01*
X39431290Y-92480524D01*
X39503104Y-92521985D01*
X39568216Y-92559577D01*
X39720943Y-92600500D01*
X39720945Y-92600500D01*
X39828456Y-92600500D01*
X39895495Y-92620185D01*
X39941250Y-92672989D01*
X39951194Y-92742147D01*
X39943019Y-92771949D01*
X39940425Y-92778212D01*
X39940423Y-92778216D01*
X39899500Y-92930943D01*
X39899500Y-93089057D01*
X39936265Y-93226264D01*
X39940423Y-93241783D01*
X39940426Y-93241790D01*
X40019475Y-93378709D01*
X40019479Y-93378714D01*
X40019480Y-93378716D01*
X40131284Y-93490520D01*
X40131286Y-93490521D01*
X40131290Y-93490524D01*
X40268209Y-93569573D01*
X40268216Y-93569577D01*
X40420943Y-93610500D01*
X40420945Y-93610500D01*
X40579055Y-93610500D01*
X40579057Y-93610500D01*
X40731784Y-93569577D01*
X40868716Y-93490520D01*
X40980520Y-93378716D01*
X41059577Y-93241784D01*
X41100500Y-93089057D01*
X41100500Y-92930943D01*
X41059577Y-92778216D01*
X40998825Y-92672989D01*
X40980524Y-92641290D01*
X40980518Y-92641282D01*
X40911819Y-92572583D01*
X40878334Y-92511260D01*
X40875500Y-92484902D01*
X40875500Y-90746899D01*
X40895185Y-90679860D01*
X40911819Y-90659218D01*
X41671547Y-89899490D01*
X42444912Y-89126124D01*
X42506233Y-89092641D01*
X42575925Y-89097625D01*
X42631858Y-89139497D01*
X42652366Y-89181713D01*
X42660423Y-89211785D01*
X42660426Y-89211790D01*
X42739475Y-89348709D01*
X42739479Y-89348714D01*
X42739480Y-89348716D01*
X42851284Y-89460520D01*
X42851286Y-89460521D01*
X42851290Y-89460524D01*
X42988209Y-89539573D01*
X42988216Y-89539577D01*
X43140943Y-89580500D01*
X43140945Y-89580500D01*
X43299055Y-89580500D01*
X43299057Y-89580500D01*
X43451784Y-89539577D01*
X43588716Y-89460520D01*
X43700520Y-89348716D01*
X43779577Y-89211784D01*
X43820500Y-89059057D01*
X43820500Y-88900943D01*
X43796677Y-88812034D01*
X43798340Y-88742189D01*
X43828769Y-88692266D01*
X46484219Y-86036819D01*
X46545542Y-86003334D01*
X46571900Y-86000500D01*
X46669055Y-86000500D01*
X46669057Y-86000500D01*
X46821784Y-85959577D01*
X46958716Y-85880520D01*
X47070520Y-85768716D01*
X47149577Y-85631784D01*
X47190500Y-85479057D01*
X47190500Y-85320943D01*
X47149577Y-85168216D01*
X47103081Y-85087681D01*
X47070524Y-85031290D01*
X47070518Y-85031282D01*
X46958717Y-84919481D01*
X46958712Y-84919477D01*
X46903933Y-84887851D01*
X46855718Y-84837285D01*
X46842494Y-84768678D01*
X46868462Y-84703813D01*
X46878243Y-84692792D01*
X48159218Y-83411819D01*
X48220541Y-83378334D01*
X48246899Y-83375500D01*
X51094902Y-83375500D01*
X51161941Y-83395185D01*
X51182583Y-83411819D01*
X51251284Y-83480520D01*
X51251286Y-83480521D01*
X51251290Y-83480524D01*
X51355076Y-83540444D01*
X51388216Y-83559577D01*
X51528372Y-83597131D01*
X51588032Y-83633496D01*
X51618561Y-83696343D01*
X51619034Y-83722816D01*
X51619500Y-83722816D01*
X51619500Y-83889056D01*
X51660423Y-84041783D01*
X51660426Y-84041790D01*
X51739475Y-84178709D01*
X51739479Y-84178714D01*
X51739480Y-84178716D01*
X51851284Y-84290520D01*
X51851286Y-84290521D01*
X51851290Y-84290524D01*
X51988209Y-84369573D01*
X51988216Y-84369577D01*
X51994622Y-84371293D01*
X52054281Y-84407652D01*
X52084814Y-84470497D01*
X52076523Y-84539874D01*
X52050213Y-84578749D01*
X46560782Y-90068181D01*
X46499459Y-90101666D01*
X46473101Y-90104500D01*
X45625098Y-90104500D01*
X45558059Y-90084815D01*
X45537417Y-90068181D01*
X45468717Y-89999481D01*
X45468709Y-89999475D01*
X45331790Y-89920426D01*
X45331786Y-89920424D01*
X45331784Y-89920423D01*
X45179057Y-89879500D01*
X45020943Y-89879500D01*
X44868216Y-89920423D01*
X44868209Y-89920426D01*
X44731290Y-89999475D01*
X44731282Y-89999481D01*
X44619481Y-90111282D01*
X44619475Y-90111290D01*
X44540426Y-90248209D01*
X44540423Y-90248216D01*
X44499500Y-90400943D01*
X44499500Y-90559057D01*
X44499501Y-90559060D01*
X44499534Y-90559312D01*
X44499500Y-90559530D01*
X44499500Y-90567184D01*
X44498307Y-90567184D01*
X44488770Y-90628348D01*
X44442391Y-90680604D01*
X44376595Y-90699500D01*
X44220943Y-90699500D01*
X44068216Y-90740423D01*
X44068209Y-90740426D01*
X43931290Y-90819475D01*
X43931282Y-90819481D01*
X43819481Y-90931282D01*
X43819475Y-90931290D01*
X43740426Y-91068209D01*
X43740423Y-91068216D01*
X43699500Y-91220943D01*
X43699500Y-91379057D01*
X43713281Y-91430486D01*
X43740423Y-91531783D01*
X43740426Y-91531790D01*
X43819475Y-91668709D01*
X43819479Y-91668714D01*
X43819480Y-91668716D01*
X43931284Y-91780520D01*
X43931286Y-91780521D01*
X43931290Y-91780524D01*
X44068209Y-91859573D01*
X44068216Y-91859577D01*
X44220943Y-91900500D01*
X44220945Y-91900500D01*
X44379055Y-91900500D01*
X44379057Y-91900500D01*
X44531784Y-91859577D01*
X44668716Y-91780520D01*
X44751080Y-91698156D01*
X44812403Y-91664671D01*
X44838761Y-91661837D01*
X47143098Y-91661837D01*
X47143099Y-91661837D01*
X47190849Y-91649042D01*
X47238601Y-91636247D01*
X47324225Y-91586812D01*
X47394138Y-91516899D01*
X50430515Y-88480521D01*
X50433191Y-88479060D01*
X50434781Y-88476453D01*
X50463658Y-88462424D01*
X50491836Y-88447038D01*
X50494881Y-88447255D01*
X50497627Y-88445922D01*
X50529499Y-88449731D01*
X50561528Y-88452022D01*
X50563972Y-88453851D01*
X50567003Y-88454214D01*
X50591764Y-88474657D01*
X50617461Y-88493894D01*
X50618527Y-88496752D01*
X50620882Y-88498697D01*
X50630660Y-88529282D01*
X50641878Y-88559358D01*
X50641509Y-88563217D01*
X50642159Y-88565249D01*
X50637970Y-88600293D01*
X50631336Y-88625055D01*
X50631334Y-88625062D01*
X50624500Y-88650564D01*
X50624500Y-95788274D01*
X50604815Y-95855313D01*
X50588181Y-95875955D01*
X50519481Y-95944654D01*
X50519475Y-95944662D01*
X50440426Y-96081581D01*
X50440423Y-96081588D01*
X50399500Y-96234315D01*
X50399500Y-96392429D01*
X50439176Y-96540500D01*
X50440423Y-96545155D01*
X50440426Y-96545162D01*
X50519475Y-96682081D01*
X50519479Y-96682086D01*
X50519480Y-96682088D01*
X50631284Y-96793892D01*
X50631286Y-96793893D01*
X50631290Y-96793896D01*
X50722252Y-96846412D01*
X50768216Y-96872949D01*
X50920943Y-96913872D01*
X50920945Y-96913872D01*
X51079055Y-96913872D01*
X51079057Y-96913872D01*
X51231784Y-96872949D01*
X51368716Y-96793892D01*
X51480520Y-96682088D01*
X51559577Y-96545156D01*
X51600500Y-96392429D01*
X51600500Y-96234315D01*
X51559577Y-96081588D01*
X51548542Y-96062475D01*
X51480524Y-95944662D01*
X51480518Y-95944654D01*
X51411819Y-95875955D01*
X51378334Y-95814632D01*
X51375500Y-95788274D01*
X51375500Y-88906898D01*
X51395185Y-88839859D01*
X51411814Y-88819222D01*
X54511087Y-85719948D01*
X54526142Y-85711727D01*
X54538141Y-85699462D01*
X54556172Y-85695330D01*
X54572408Y-85686465D01*
X54589522Y-85687688D01*
X54606246Y-85683857D01*
X54623647Y-85690129D01*
X54642100Y-85691449D01*
X54656145Y-85701843D01*
X54671976Y-85707549D01*
X54688031Y-85725439D01*
X54697207Y-85732229D01*
X54702113Y-85738634D01*
X54759491Y-85838015D01*
X54839583Y-85918107D01*
X54844555Y-85924598D01*
X54854301Y-85949873D01*
X54867280Y-85973642D01*
X54866683Y-85981984D01*
X54869693Y-85989789D01*
X54864228Y-86016318D01*
X54862296Y-86043334D01*
X54856949Y-86051653D01*
X54855596Y-86058222D01*
X54847233Y-86066771D01*
X54833795Y-86087681D01*
X54759493Y-86161982D01*
X54759488Y-86161988D01*
X54687017Y-86287511D01*
X54687016Y-86287515D01*
X54649500Y-86427525D01*
X54649500Y-86572475D01*
X54657688Y-86603032D01*
X54687017Y-86712488D01*
X54759488Y-86838011D01*
X54759490Y-86838013D01*
X54759491Y-86838015D01*
X54861985Y-86940509D01*
X54861986Y-86940510D01*
X54861988Y-86940511D01*
X54987511Y-87012982D01*
X54987512Y-87012982D01*
X54987515Y-87012984D01*
X55127525Y-87050500D01*
X55168101Y-87050500D01*
X55235140Y-87070185D01*
X55255781Y-87086818D01*
X55609280Y-87440318D01*
X55694906Y-87489754D01*
X55790407Y-87515343D01*
X55790408Y-87515343D01*
X60974258Y-87515343D01*
X61041297Y-87535028D01*
X61087052Y-87587832D01*
X61096996Y-87656990D01*
X61067971Y-87720546D01*
X61061939Y-87727024D01*
X60415782Y-88373181D01*
X60354459Y-88406666D01*
X60328101Y-88409500D01*
X60287525Y-88409500D01*
X60158993Y-88443940D01*
X60147511Y-88447017D01*
X60021988Y-88519488D01*
X60021982Y-88519493D01*
X59919493Y-88621982D01*
X59919488Y-88621988D01*
X59847017Y-88747511D01*
X59847016Y-88747515D01*
X59809500Y-88887525D01*
X59809500Y-89032475D01*
X59834594Y-89126126D01*
X59847017Y-89172488D01*
X59919488Y-89298011D01*
X59919490Y-89298013D01*
X59919491Y-89298015D01*
X60021985Y-89400509D01*
X60021986Y-89400510D01*
X60021988Y-89400511D01*
X60147511Y-89472982D01*
X60147512Y-89472982D01*
X60147515Y-89472984D01*
X60287525Y-89510500D01*
X60287528Y-89510500D01*
X60432472Y-89510500D01*
X60432475Y-89510500D01*
X60572485Y-89472984D01*
X60698015Y-89400509D01*
X60800509Y-89298015D01*
X60872984Y-89172485D01*
X60910500Y-89032475D01*
X60910500Y-88981797D01*
X60912136Y-88971825D01*
X60923073Y-88949077D01*
X60930185Y-88924860D01*
X60941426Y-88910910D01*
X60942414Y-88908856D01*
X60943737Y-88908042D01*
X60946819Y-88904218D01*
X61539218Y-88311819D01*
X61600541Y-88278334D01*
X61626899Y-88275500D01*
X71093103Y-88275500D01*
X71160142Y-88295185D01*
X71180784Y-88311819D01*
X75588181Y-92719216D01*
X75621666Y-92780539D01*
X75624500Y-92806897D01*
X75624500Y-93174902D01*
X75604815Y-93241941D01*
X75588181Y-93262583D01*
X75519481Y-93331282D01*
X75519475Y-93331290D01*
X75440426Y-93468209D01*
X75440423Y-93468216D01*
X75399500Y-93620943D01*
X75399500Y-93779056D01*
X75440423Y-93931783D01*
X75440426Y-93931790D01*
X75519475Y-94068709D01*
X75519479Y-94068714D01*
X75519480Y-94068716D01*
X75631284Y-94180520D01*
X75631286Y-94180521D01*
X75631290Y-94180524D01*
X75675498Y-94206047D01*
X75768216Y-94259577D01*
X75920943Y-94300500D01*
X75920945Y-94300500D01*
X76079054Y-94300500D01*
X76079057Y-94300500D01*
X76168409Y-94276558D01*
X76238256Y-94278221D01*
X76296119Y-94317383D01*
X76323623Y-94381611D01*
X76324500Y-94396333D01*
X76324500Y-94924902D01*
X76304815Y-94991941D01*
X76288181Y-95012583D01*
X76219481Y-95081282D01*
X76219475Y-95081290D01*
X76140426Y-95218209D01*
X76140423Y-95218216D01*
X76099500Y-95370943D01*
X76099500Y-95529057D01*
X76134714Y-95660475D01*
X76140423Y-95681783D01*
X76140426Y-95681790D01*
X76219475Y-95818709D01*
X76219479Y-95818714D01*
X76219480Y-95818716D01*
X76331284Y-95930520D01*
X76331286Y-95930521D01*
X76331290Y-95930524D01*
X76468209Y-96009573D01*
X76468216Y-96009577D01*
X76620943Y-96050500D01*
X76620945Y-96050500D01*
X76779055Y-96050500D01*
X76779057Y-96050500D01*
X76931784Y-96009577D01*
X77068716Y-95930520D01*
X77180520Y-95818716D01*
X77259577Y-95681784D01*
X77300500Y-95529057D01*
X77300500Y-95370943D01*
X77259577Y-95218216D01*
X77218756Y-95147511D01*
X77180524Y-95081290D01*
X77180518Y-95081282D01*
X77111819Y-95012583D01*
X77078334Y-94951260D01*
X77075500Y-94924902D01*
X77075500Y-92250567D01*
X77075498Y-92250557D01*
X77074253Y-92245910D01*
X77074250Y-92245901D01*
X77049910Y-92155064D01*
X77049909Y-92155060D01*
X77044533Y-92145749D01*
X77000475Y-92069438D01*
X76992475Y-92061438D01*
X76958990Y-92000115D01*
X76963974Y-91930423D01*
X77005846Y-91874490D01*
X77024783Y-91863706D01*
X77024746Y-91863641D01*
X77168709Y-91780524D01*
X77168708Y-91780524D01*
X77168716Y-91780520D01*
X77280520Y-91668716D01*
X77359577Y-91531784D01*
X77400500Y-91379057D01*
X77400500Y-91220943D01*
X77359577Y-91068216D01*
X77338942Y-91032475D01*
X77280524Y-90931290D01*
X77280518Y-90931282D01*
X77168717Y-90819481D01*
X77168709Y-90819475D01*
X77031790Y-90740426D01*
X77031786Y-90740424D01*
X77031784Y-90740423D01*
X76879057Y-90699500D01*
X76879056Y-90699500D01*
X76781899Y-90699500D01*
X76714860Y-90679815D01*
X76694218Y-90663181D01*
X76117475Y-90086438D01*
X76083990Y-90025115D01*
X76088974Y-89955423D01*
X76130846Y-89899490D01*
X76149783Y-89888706D01*
X76149746Y-89888641D01*
X76293709Y-89805524D01*
X76293708Y-89805524D01*
X76293716Y-89805520D01*
X76405520Y-89693716D01*
X76484577Y-89556784D01*
X76525500Y-89404057D01*
X76525500Y-89245943D01*
X76484577Y-89093216D01*
X76484245Y-89092641D01*
X76405524Y-88956290D01*
X76405518Y-88956282D01*
X76293717Y-88844481D01*
X76293709Y-88844475D01*
X76156790Y-88765426D01*
X76156786Y-88765424D01*
X76156784Y-88765423D01*
X76004057Y-88724500D01*
X76004056Y-88724500D01*
X75906900Y-88724500D01*
X75839861Y-88704815D01*
X75819219Y-88688181D01*
X74211819Y-87080781D01*
X74178334Y-87019458D01*
X74175500Y-86993100D01*
X74175500Y-79425000D01*
X74855000Y-79425000D01*
X76945000Y-79425000D01*
X76945000Y-77525000D01*
X74855000Y-77525000D01*
X74855000Y-79425000D01*
X74175500Y-79425000D01*
X74175500Y-78975567D01*
X74175500Y-78975565D01*
X74149910Y-78880062D01*
X74100475Y-78794438D01*
X74030562Y-78724525D01*
X73941168Y-78635131D01*
X73907683Y-78573808D01*
X73909073Y-78515358D01*
X73925500Y-78454057D01*
X73925500Y-78295943D01*
X73884577Y-78143216D01*
X73861245Y-78102803D01*
X73805524Y-78006290D01*
X73805518Y-78006282D01*
X73693717Y-77894481D01*
X73693709Y-77894475D01*
X73556790Y-77815426D01*
X73556786Y-77815424D01*
X73556784Y-77815423D01*
X73404057Y-77774500D01*
X73245943Y-77774500D01*
X73093216Y-77815423D01*
X73093209Y-77815426D01*
X72956290Y-77894475D01*
X72956282Y-77894481D01*
X72844481Y-78006282D01*
X72844475Y-78006290D01*
X72765426Y-78143209D01*
X72765423Y-78143216D01*
X72724500Y-78295943D01*
X72724500Y-78454056D01*
X72765423Y-78606783D01*
X72765426Y-78606790D01*
X72844475Y-78743709D01*
X72844479Y-78743714D01*
X72844480Y-78743716D01*
X72956284Y-78855520D01*
X72956286Y-78855521D01*
X72956290Y-78855524D01*
X72998792Y-78880062D01*
X73093216Y-78934577D01*
X73177677Y-78957208D01*
X73191563Y-78965224D01*
X73205010Y-78968150D01*
X73233264Y-78989301D01*
X73388181Y-79144218D01*
X73421666Y-79205541D01*
X73424500Y-79231899D01*
X73424500Y-84196967D01*
X73404815Y-84264006D01*
X73352011Y-84309761D01*
X73282853Y-84319705D01*
X73268408Y-84316742D01*
X73204058Y-84299500D01*
X73204057Y-84299500D01*
X73045943Y-84299500D01*
X72893216Y-84340423D01*
X72893209Y-84340426D01*
X72756290Y-84419475D01*
X72749839Y-84424426D01*
X72748748Y-84423004D01*
X72696260Y-84451666D01*
X72669902Y-84454500D01*
X72136899Y-84454500D01*
X72069860Y-84434815D01*
X72049218Y-84418181D01*
X70300629Y-82669592D01*
X70300628Y-82669591D01*
X70222528Y-82624500D01*
X70215006Y-82620157D01*
X70215005Y-82620156D01*
X70215004Y-82620156D01*
X70167252Y-82607361D01*
X70167250Y-82607360D01*
X70167248Y-82607359D01*
X70119502Y-82594566D01*
X70119501Y-82594566D01*
X65015032Y-82594566D01*
X64947993Y-82574881D01*
X64927351Y-82558247D01*
X64858651Y-82489547D01*
X64858643Y-82489541D01*
X64721724Y-82410492D01*
X64721720Y-82410490D01*
X64721718Y-82410489D01*
X64568991Y-82369566D01*
X64410877Y-82369566D01*
X64258150Y-82410489D01*
X64258143Y-82410492D01*
X64121224Y-82489541D01*
X64121216Y-82489547D01*
X64009413Y-82601350D01*
X63997849Y-82621382D01*
X63947282Y-82669598D01*
X63890461Y-82683383D01*
X62978032Y-82683383D01*
X62910993Y-82663698D01*
X62865238Y-82610894D01*
X62855294Y-82541736D01*
X62858254Y-82527301D01*
X62875500Y-82462940D01*
X62875500Y-82304826D01*
X62834577Y-82152099D01*
X62806469Y-82103414D01*
X62755524Y-82015173D01*
X62755518Y-82015165D01*
X62643717Y-81903364D01*
X62643709Y-81903358D01*
X62506790Y-81824309D01*
X62506786Y-81824307D01*
X62506784Y-81824306D01*
X62354057Y-81783383D01*
X62195943Y-81783383D01*
X62043216Y-81824306D01*
X62043209Y-81824309D01*
X61906290Y-81903358D01*
X61906282Y-81903364D01*
X61812583Y-81997064D01*
X61751260Y-82030549D01*
X61724902Y-82033383D01*
X53769970Y-82033383D01*
X53743333Y-82040520D01*
X53743334Y-82040521D01*
X53680827Y-82057269D01*
X53680826Y-82057270D01*
X53600908Y-82103410D01*
X53600903Y-82103414D01*
X52504071Y-83200245D01*
X52493537Y-83205996D01*
X52485894Y-83215254D01*
X52463436Y-83222432D01*
X52442748Y-83233730D01*
X52429112Y-83233405D01*
X52419342Y-83236529D01*
X52384297Y-83232339D01*
X52311628Y-83212868D01*
X52251968Y-83176504D01*
X52221438Y-83113657D01*
X52220968Y-83087184D01*
X52220500Y-83087184D01*
X52220500Y-82920945D01*
X52220500Y-82920943D01*
X52179577Y-82768216D01*
X52165231Y-82743367D01*
X52100524Y-82631290D01*
X52100518Y-82631282D01*
X51988717Y-82519481D01*
X51988709Y-82519475D01*
X51851790Y-82440426D01*
X51851786Y-82440424D01*
X51851784Y-82440423D01*
X51699057Y-82399500D01*
X51540943Y-82399500D01*
X51388216Y-82440423D01*
X51388209Y-82440426D01*
X51251290Y-82519475D01*
X51251282Y-82519481D01*
X51182583Y-82588181D01*
X51121260Y-82621666D01*
X51094902Y-82624500D01*
X48265898Y-82624500D01*
X48198859Y-82604815D01*
X48153104Y-82552011D01*
X48143160Y-82482853D01*
X48172185Y-82419297D01*
X48178217Y-82412819D01*
X48286210Y-82304826D01*
X48549586Y-82041449D01*
X48610907Y-82007966D01*
X48669357Y-82009356D01*
X48710943Y-82020500D01*
X48710945Y-82020500D01*
X48869055Y-82020500D01*
X48869057Y-82020500D01*
X49021784Y-81979577D01*
X49158716Y-81900520D01*
X49270520Y-81788716D01*
X49349577Y-81651784D01*
X49390500Y-81499057D01*
X49390500Y-81340943D01*
X49349577Y-81188216D01*
X49289065Y-81083405D01*
X49270524Y-81051290D01*
X49270518Y-81051282D01*
X49158717Y-80939481D01*
X49158709Y-80939475D01*
X49021790Y-80860426D01*
X49021786Y-80860424D01*
X49021784Y-80860423D01*
X48869057Y-80819500D01*
X48710943Y-80819500D01*
X48558216Y-80860423D01*
X48558209Y-80860426D01*
X48421290Y-80939475D01*
X48421282Y-80939481D01*
X48309481Y-81051282D01*
X48309475Y-81051290D01*
X48230426Y-81188209D01*
X48230421Y-81188220D01*
X48198639Y-81306829D01*
X48166546Y-81362415D01*
X45856600Y-83672361D01*
X45795277Y-83705846D01*
X45725585Y-83700862D01*
X45669652Y-83658990D01*
X45661532Y-83646680D01*
X45628224Y-83588989D01*
X45628220Y-83588984D01*
X45516419Y-83477183D01*
X45516418Y-83477182D01*
X45409098Y-83415221D01*
X45360884Y-83364656D01*
X45347215Y-83302464D01*
X45347803Y-83288883D01*
X45350423Y-83279109D01*
X45350423Y-83228474D01*
X45350500Y-83226699D01*
X45350500Y-77828362D01*
X45358167Y-77789822D01*
X45357473Y-77789636D01*
X45361529Y-77774500D01*
X45400500Y-77629057D01*
X45400500Y-77470943D01*
X45359577Y-77318216D01*
X45359576Y-77318214D01*
X45357473Y-77310365D01*
X45357888Y-77310253D01*
X45355523Y-77306572D01*
X45350500Y-77271637D01*
X45350500Y-77078362D01*
X45358167Y-77039822D01*
X45357473Y-77039636D01*
X45363154Y-77018435D01*
X45400500Y-76879057D01*
X45400500Y-76720943D01*
X45359577Y-76568216D01*
X45339958Y-76534234D01*
X45280524Y-76431290D01*
X45280518Y-76431282D01*
X45168717Y-76319481D01*
X45168709Y-76319475D01*
X45031790Y-76240426D01*
X45031786Y-76240424D01*
X45031784Y-76240423D01*
X44879057Y-76199500D01*
X44720943Y-76199500D01*
X44568216Y-76240423D01*
X44568209Y-76240426D01*
X44431290Y-76319475D01*
X44431282Y-76319481D01*
X44319481Y-76431282D01*
X44319475Y-76431290D01*
X44240426Y-76568209D01*
X44240423Y-76568216D01*
X44199500Y-76720943D01*
X44199500Y-76879057D01*
X44236846Y-77018435D01*
X44242527Y-77039636D01*
X44242112Y-77039747D01*
X44244477Y-77043427D01*
X44249500Y-77078362D01*
X44249500Y-77271637D01*
X44241834Y-77310179D01*
X44242527Y-77310365D01*
X44240423Y-77318214D01*
X44240423Y-77318216D01*
X44221056Y-77390495D01*
X44199500Y-77470943D01*
X44199500Y-77629056D01*
X44242527Y-77789636D01*
X44241832Y-77789822D01*
X44249500Y-77828362D01*
X44249500Y-82832584D01*
X44232887Y-82894584D01*
X44190347Y-82968265D01*
X44190346Y-82968268D01*
X44149423Y-83120995D01*
X44149423Y-83279109D01*
X44184982Y-83411819D01*
X44192450Y-83439687D01*
X44190659Y-83440166D01*
X44197202Y-83473052D01*
X44197202Y-83620178D01*
X44214422Y-83684446D01*
X44234716Y-83760182D01*
X44234718Y-83760187D01*
X44292053Y-83859496D01*
X44307191Y-83885715D01*
X44307193Y-83885718D01*
X44556271Y-84134796D01*
X44583804Y-84182478D01*
X44585015Y-84181977D01*
X44588124Y-84189482D01*
X44588125Y-84189486D01*
X44588126Y-84189489D01*
X44588128Y-84189492D01*
X44667177Y-84326411D01*
X44667181Y-84326416D01*
X44667182Y-84326418D01*
X44778986Y-84438222D01*
X44778987Y-84438223D01*
X44778989Y-84438224D01*
X44836680Y-84471532D01*
X44884896Y-84522099D01*
X44898119Y-84590706D01*
X44872151Y-84655571D01*
X44862361Y-84666600D01*
X39569438Y-89959525D01*
X39499527Y-90029435D01*
X39499525Y-90029437D01*
X39499525Y-90029438D01*
X39491974Y-90042517D01*
X39450091Y-90115059D01*
X39450090Y-90115061D01*
X39450090Y-90115062D01*
X39437295Y-90162813D01*
X39437294Y-90162814D01*
X39426337Y-90203709D01*
X39426336Y-90203714D01*
X39424500Y-90210564D01*
X39424500Y-91474902D01*
X39404815Y-91541941D01*
X39388181Y-91562583D01*
X39319481Y-91631282D01*
X39319475Y-91631290D01*
X39240426Y-91768209D01*
X39240423Y-91768216D01*
X39199500Y-91920943D01*
X36990777Y-91920943D01*
X36951751Y-91862537D01*
X36951748Y-91862533D01*
X36812466Y-91723251D01*
X36812462Y-91723248D01*
X36648684Y-91613814D01*
X36648675Y-91613809D01*
X36577208Y-91584207D01*
X36522805Y-91540366D01*
X36500740Y-91474072D01*
X36518019Y-91406373D01*
X36569156Y-91358762D01*
X36611408Y-91346356D01*
X36632483Y-91344091D01*
X36767331Y-91293796D01*
X36882546Y-91207546D01*
X36968796Y-91092331D01*
X37019091Y-90957483D01*
X37025500Y-90897873D01*
X37025499Y-90102128D01*
X37019091Y-90042517D01*
X37012600Y-90025115D01*
X36968797Y-89907671D01*
X36968793Y-89907664D01*
X36882547Y-89792455D01*
X36882544Y-89792452D01*
X36767335Y-89706206D01*
X36767328Y-89706202D01*
X36632482Y-89655908D01*
X36632483Y-89655908D01*
X36572883Y-89649501D01*
X36572881Y-89649500D01*
X36572873Y-89649500D01*
X36572864Y-89649500D01*
X35227129Y-89649500D01*
X35227123Y-89649501D01*
X35167516Y-89655908D01*
X35032671Y-89706202D01*
X35032664Y-89706206D01*
X34917455Y-89792452D01*
X34917452Y-89792455D01*
X34831206Y-89907664D01*
X34831202Y-89907671D01*
X34780908Y-90042517D01*
X34774501Y-90102116D01*
X34774501Y-90102123D01*
X34774500Y-90102135D01*
X34774500Y-90897870D01*
X34774501Y-90897876D01*
X34780908Y-90957483D01*
X34831202Y-91092328D01*
X34831206Y-91092335D01*
X34917452Y-91207544D01*
X34917455Y-91207547D01*
X35032664Y-91293793D01*
X35032671Y-91293797D01*
X35043986Y-91298017D01*
X35167517Y-91344091D01*
X35188594Y-91346357D01*
X35253144Y-91373094D01*
X35292992Y-91430486D01*
X35295486Y-91500311D01*
X35259834Y-91560401D01*
X35222791Y-91584207D01*
X35151325Y-91613809D01*
X35151315Y-91613814D01*
X34987537Y-91723248D01*
X34987533Y-91723251D01*
X34848251Y-91862533D01*
X34848248Y-91862537D01*
X34738812Y-92026318D01*
X34738811Y-92026321D01*
X34666871Y-92199999D01*
X31500500Y-92199999D01*
X31500500Y-84678043D01*
X31520185Y-84611004D01*
X31572989Y-84565249D01*
X31642147Y-84555305D01*
X31693391Y-84574941D01*
X31757184Y-84617566D01*
X31757192Y-84617571D01*
X31920979Y-84685413D01*
X31920987Y-84685415D01*
X32094853Y-84719999D01*
X32094857Y-84720000D01*
X32183500Y-84720000D01*
X32183500Y-84120000D01*
X32783500Y-84120000D01*
X32783500Y-84720000D01*
X32872143Y-84720000D01*
X32872146Y-84719999D01*
X33046012Y-84685415D01*
X33046020Y-84685413D01*
X33209807Y-84617571D01*
X33209816Y-84617566D01*
X33357216Y-84519076D01*
X33357220Y-84519073D01*
X33482573Y-84393720D01*
X33482579Y-84393712D01*
X33581069Y-84246311D01*
X33581071Y-84246308D01*
X33633389Y-84120000D01*
X32822996Y-84120000D01*
X32899296Y-84099556D01*
X32967705Y-84060060D01*
X33023560Y-84004205D01*
X33063056Y-83935796D01*
X33083500Y-83859496D01*
X33083500Y-83780504D01*
X33063056Y-83704204D01*
X33023560Y-83635795D01*
X32967705Y-83579940D01*
X32899296Y-83540444D01*
X32822996Y-83520000D01*
X33633389Y-83520000D01*
X33633389Y-83519999D01*
X33581071Y-83393691D01*
X33581069Y-83393688D01*
X33482579Y-83246287D01*
X33482573Y-83246279D01*
X33357220Y-83120926D01*
X33357216Y-83120923D01*
X33209816Y-83022433D01*
X33209807Y-83022428D01*
X33046020Y-82954586D01*
X33046012Y-82954584D01*
X32872146Y-82920000D01*
X32783500Y-82920000D01*
X32783500Y-83520000D01*
X32183500Y-83520000D01*
X32183500Y-82920000D01*
X32094853Y-82920000D01*
X31920987Y-82954584D01*
X31920979Y-82954586D01*
X31757192Y-83022428D01*
X31757185Y-83022432D01*
X31693390Y-83065059D01*
X31626713Y-83085936D01*
X31559333Y-83067451D01*
X31512643Y-83015472D01*
X31500500Y-82961956D01*
X31500500Y-76038043D01*
X31520185Y-75971004D01*
X31572989Y-75925249D01*
X31642147Y-75915305D01*
X31693391Y-75934941D01*
X31757184Y-75977566D01*
X31757192Y-75977571D01*
X31920979Y-76045413D01*
X31920987Y-76045415D01*
X32094853Y-76079999D01*
X32094857Y-76080000D01*
X32183500Y-76080000D01*
X32183500Y-75480000D01*
X32783500Y-75480000D01*
X32783500Y-76080000D01*
X32872143Y-76080000D01*
X32872146Y-76079999D01*
X33046012Y-76045415D01*
X33046020Y-76045413D01*
X33209807Y-75977571D01*
X33209816Y-75977566D01*
X33357216Y-75879076D01*
X33357220Y-75879073D01*
X33482573Y-75753720D01*
X33482579Y-75753712D01*
X33581069Y-75606311D01*
X33581071Y-75606308D01*
X33633389Y-75480000D01*
X32822996Y-75480000D01*
X32899296Y-75459556D01*
X32967705Y-75420060D01*
X33023560Y-75364205D01*
X33063056Y-75295796D01*
X33083500Y-75219496D01*
X33083500Y-75140504D01*
X33063056Y-75064204D01*
X33023560Y-74995795D01*
X32967705Y-74939940D01*
X32899296Y-74900444D01*
X32822996Y-74880000D01*
X33633389Y-74880000D01*
X33633389Y-74879999D01*
X35263610Y-74879999D01*
X35263611Y-74880000D01*
X36074004Y-74880000D01*
X35997704Y-74900444D01*
X35929295Y-74939940D01*
X35873440Y-74995795D01*
X35833944Y-75064204D01*
X35813500Y-75140504D01*
X35813500Y-75219496D01*
X35833944Y-75295796D01*
X35873440Y-75364205D01*
X35929295Y-75420060D01*
X35997704Y-75459556D01*
X36074004Y-75480000D01*
X35263611Y-75480000D01*
X35315928Y-75606308D01*
X35315930Y-75606311D01*
X35414420Y-75753712D01*
X35414426Y-75753720D01*
X35539779Y-75879073D01*
X35539783Y-75879076D01*
X35687183Y-75977566D01*
X35687191Y-75977570D01*
X35703017Y-75984125D01*
X35757422Y-76027964D01*
X35779490Y-76094257D01*
X35762213Y-76161957D01*
X35743251Y-76186369D01*
X35672985Y-76256635D01*
X35597219Y-76387863D01*
X35585585Y-76431284D01*
X35558000Y-76534234D01*
X35558000Y-76685766D01*
X35597219Y-76832135D01*
X35653125Y-76928967D01*
X35669598Y-76996865D01*
X35646746Y-77062892D01*
X35633420Y-77078647D01*
X35530781Y-77181286D01*
X35530778Y-77181290D01*
X35451729Y-77318209D01*
X35451726Y-77318216D01*
X35410803Y-77470943D01*
X35410803Y-77629057D01*
X35451726Y-77781784D01*
X35493455Y-77854062D01*
X35494190Y-77855334D01*
X35510803Y-77917334D01*
X35510803Y-81032573D01*
X35491118Y-81099612D01*
X35485178Y-81108061D01*
X35481974Y-81112235D01*
X35402926Y-81249153D01*
X35402923Y-81249160D01*
X35362000Y-81401887D01*
X35362000Y-81560000D01*
X35402923Y-81712727D01*
X35402926Y-81712734D01*
X35481975Y-81849653D01*
X35481981Y-81849661D01*
X35599531Y-81967211D01*
X35598301Y-81968440D01*
X35633673Y-82016881D01*
X35637830Y-82086627D01*
X35624373Y-82120831D01*
X35597219Y-82167862D01*
X35560521Y-82304826D01*
X35558000Y-82314234D01*
X35558000Y-82465766D01*
X35572393Y-82519481D01*
X35597219Y-82612136D01*
X35608278Y-82631290D01*
X35672985Y-82743365D01*
X35672987Y-82743367D01*
X35743250Y-82813630D01*
X35776735Y-82874953D01*
X35771751Y-82944645D01*
X35729879Y-83000578D01*
X35703022Y-83015872D01*
X35687192Y-83022428D01*
X35687183Y-83022433D01*
X35539783Y-83120923D01*
X35539779Y-83120926D01*
X35414426Y-83246279D01*
X35414420Y-83246287D01*
X35315930Y-83393688D01*
X35315928Y-83393691D01*
X35263610Y-83519999D01*
X35263611Y-83520000D01*
X36074004Y-83520000D01*
X35997704Y-83540444D01*
X35929295Y-83579940D01*
X35873440Y-83635795D01*
X35833944Y-83704204D01*
X35813500Y-83780504D01*
X35813500Y-83859496D01*
X35833944Y-83935796D01*
X35873440Y-84004205D01*
X35929295Y-84060060D01*
X35997704Y-84099556D01*
X36074004Y-84120000D01*
X35263611Y-84120000D01*
X35315928Y-84246308D01*
X35315930Y-84246311D01*
X35414420Y-84393712D01*
X35414426Y-84393720D01*
X35539779Y-84519073D01*
X35539783Y-84519076D01*
X35687183Y-84617566D01*
X35687192Y-84617571D01*
X35850979Y-84685413D01*
X35850987Y-84685415D01*
X36024853Y-84719999D01*
X36024857Y-84720000D01*
X36363500Y-84720000D01*
X36363500Y-84120000D01*
X36963500Y-84120000D01*
X36963500Y-84720000D01*
X37302143Y-84720000D01*
X37302146Y-84719999D01*
X37476012Y-84685415D01*
X37476020Y-84685413D01*
X37639807Y-84617571D01*
X37639816Y-84617566D01*
X37787216Y-84519076D01*
X37787220Y-84519073D01*
X37912573Y-84393720D01*
X37912579Y-84393712D01*
X38011069Y-84246311D01*
X38011071Y-84246308D01*
X38063389Y-84120000D01*
X37252996Y-84120000D01*
X37329296Y-84099556D01*
X37397705Y-84060060D01*
X37453560Y-84004205D01*
X37493056Y-83935796D01*
X37513500Y-83859496D01*
X37513500Y-83780504D01*
X37493056Y-83704204D01*
X37453560Y-83635795D01*
X37397705Y-83579940D01*
X37329296Y-83540444D01*
X37252996Y-83520000D01*
X38063389Y-83520000D01*
X38063389Y-83519999D01*
X38011071Y-83393691D01*
X38011069Y-83393688D01*
X37912579Y-83246287D01*
X37912573Y-83246279D01*
X37787220Y-83120926D01*
X37787216Y-83120923D01*
X37639816Y-83022433D01*
X37639807Y-83022428D01*
X37476020Y-82954586D01*
X37476012Y-82954584D01*
X37302146Y-82920000D01*
X36963500Y-82920000D01*
X36963500Y-83520000D01*
X36363500Y-83520000D01*
X36363500Y-82993331D01*
X36383185Y-82926292D01*
X36410261Y-82896325D01*
X36417490Y-82890568D01*
X36486865Y-82850515D01*
X36594015Y-82743365D01*
X36669781Y-82612135D01*
X36709000Y-82465766D01*
X36709000Y-82314234D01*
X36669781Y-82167865D01*
X36594015Y-82036635D01*
X36497130Y-81939750D01*
X36463645Y-81878427D01*
X36468629Y-81808735D01*
X36477421Y-81790074D01*
X36522077Y-81712728D01*
X36563000Y-81560001D01*
X36563000Y-81401887D01*
X36522077Y-81249160D01*
X36522075Y-81249157D01*
X36522074Y-81249152D01*
X36521239Y-81247136D01*
X36520390Y-81242867D01*
X36519973Y-81241311D01*
X36520075Y-81241283D01*
X36511803Y-81199691D01*
X36511803Y-77917334D01*
X36528416Y-77855334D01*
X36529150Y-77854063D01*
X36570880Y-77781784D01*
X36611803Y-77629057D01*
X36611803Y-77470943D01*
X36570880Y-77318216D01*
X36497036Y-77190314D01*
X36480565Y-77122415D01*
X36503418Y-77056388D01*
X36516733Y-77040646D01*
X36594015Y-76963365D01*
X36669781Y-76832135D01*
X36709000Y-76685766D01*
X36709000Y-76534234D01*
X36669781Y-76387865D01*
X36594015Y-76256635D01*
X36486865Y-76149485D01*
X36486863Y-76149484D01*
X36486861Y-76149482D01*
X36425498Y-76114053D01*
X36377283Y-76063485D01*
X36363500Y-76006667D01*
X36363500Y-75480000D01*
X36963500Y-75480000D01*
X36963500Y-76080000D01*
X37302143Y-76080000D01*
X37302146Y-76079999D01*
X37476012Y-76045415D01*
X37476020Y-76045413D01*
X37639807Y-75977571D01*
X37639816Y-75977566D01*
X37787216Y-75879076D01*
X37787220Y-75879073D01*
X37912573Y-75753720D01*
X37912579Y-75753712D01*
X38011069Y-75606311D01*
X38011071Y-75606308D01*
X38063389Y-75480000D01*
X37252996Y-75480000D01*
X37329296Y-75459556D01*
X37397705Y-75420060D01*
X37453560Y-75364205D01*
X37493056Y-75295796D01*
X37513500Y-75219496D01*
X37513500Y-75140504D01*
X37493056Y-75064204D01*
X37453560Y-74995795D01*
X37397705Y-74939940D01*
X37329296Y-74900444D01*
X37252996Y-74880000D01*
X38063389Y-74880000D01*
X38063389Y-74879999D01*
X38011071Y-74753691D01*
X38011069Y-74753688D01*
X37912579Y-74606287D01*
X37912573Y-74606279D01*
X37787220Y-74480926D01*
X37787216Y-74480923D01*
X37639816Y-74382433D01*
X37639807Y-74382428D01*
X37476020Y-74314586D01*
X37476012Y-74314584D01*
X37302146Y-74280000D01*
X36963500Y-74280000D01*
X36963500Y-74880000D01*
X36363500Y-74880000D01*
X36363500Y-74280000D01*
X36024853Y-74280000D01*
X35850987Y-74314584D01*
X35850979Y-74314586D01*
X35687192Y-74382428D01*
X35687183Y-74382433D01*
X35539783Y-74480923D01*
X35539779Y-74480926D01*
X35414426Y-74606279D01*
X35414420Y-74606287D01*
X35315930Y-74753688D01*
X35315928Y-74753691D01*
X35263610Y-74879999D01*
X33633389Y-74879999D01*
X33581071Y-74753691D01*
X33581069Y-74753688D01*
X33482579Y-74606287D01*
X33482573Y-74606279D01*
X33357220Y-74480926D01*
X33357216Y-74480923D01*
X33209816Y-74382433D01*
X33209807Y-74382428D01*
X33046020Y-74314586D01*
X33046012Y-74314584D01*
X32872146Y-74280000D01*
X32783500Y-74280000D01*
X32783500Y-74880000D01*
X32183500Y-74880000D01*
X32183500Y-74280000D01*
X32094853Y-74280000D01*
X31920987Y-74314584D01*
X31920979Y-74314586D01*
X31757192Y-74382428D01*
X31757185Y-74382432D01*
X31693390Y-74425059D01*
X31626713Y-74445936D01*
X31559333Y-74427451D01*
X31512643Y-74375472D01*
X31500500Y-74321956D01*
X31500500Y-68620943D01*
X36589500Y-68620943D01*
X36589500Y-68779057D01*
X36617470Y-68883440D01*
X36630423Y-68931783D01*
X36630426Y-68931790D01*
X36709475Y-69068709D01*
X36709481Y-69068717D01*
X36758082Y-69117318D01*
X36791567Y-69178641D01*
X36786583Y-69248333D01*
X36758084Y-69292678D01*
X36719482Y-69331281D01*
X36719475Y-69331290D01*
X36640426Y-69468209D01*
X36640423Y-69468216D01*
X36599500Y-69620943D01*
X36599500Y-69779056D01*
X36640423Y-69931783D01*
X36640426Y-69931790D01*
X36719475Y-70068709D01*
X36719479Y-70068714D01*
X36719480Y-70068716D01*
X36831284Y-70180520D01*
X36831286Y-70180521D01*
X36831290Y-70180524D01*
X36963780Y-70257016D01*
X36968216Y-70259577D01*
X37120943Y-70300500D01*
X37120945Y-70300500D01*
X37279055Y-70300500D01*
X37279057Y-70300500D01*
X37431784Y-70259577D01*
X37568716Y-70180520D01*
X37637417Y-70111819D01*
X37698740Y-70078334D01*
X37725098Y-70075500D01*
X40173101Y-70075500D01*
X40240140Y-70095185D01*
X40260782Y-70111819D01*
X48001804Y-77852841D01*
X48071717Y-77922754D01*
X48157341Y-77972189D01*
X48191251Y-77981275D01*
X48246836Y-78013368D01*
X48336267Y-78102799D01*
X48336269Y-78102800D01*
X48336273Y-78102803D01*
X48473192Y-78181852D01*
X48473199Y-78181856D01*
X48625926Y-78222779D01*
X48625928Y-78222779D01*
X48784038Y-78222779D01*
X48784040Y-78222779D01*
X48936767Y-78181856D01*
X49073699Y-78102799D01*
X49185503Y-77990995D01*
X49264560Y-77854063D01*
X49305483Y-77701336D01*
X49305483Y-77543222D01*
X49264560Y-77390495D01*
X49222826Y-77318209D01*
X49185507Y-77253569D01*
X49185501Y-77253561D01*
X49175882Y-77243942D01*
X49162536Y-77219501D01*
X49146383Y-77196817D01*
X49146022Y-77189259D01*
X49142397Y-77182619D01*
X49144383Y-77154844D01*
X49143058Y-77127026D01*
X49147093Y-77116946D01*
X49147381Y-77112927D01*
X49156176Y-77094261D01*
X49157816Y-77091419D01*
X49157818Y-77091418D01*
X49164483Y-77079872D01*
X49215050Y-77031657D01*
X49283657Y-77018435D01*
X49348522Y-77044403D01*
X49359551Y-77054192D01*
X49464143Y-77158784D01*
X49464145Y-77158785D01*
X49464149Y-77158788D01*
X49569309Y-77219501D01*
X49601075Y-77237841D01*
X49753802Y-77278764D01*
X49753804Y-77278764D01*
X49911914Y-77278764D01*
X49911916Y-77278764D01*
X50064643Y-77237841D01*
X50201575Y-77158784D01*
X50313379Y-77046980D01*
X50392436Y-76910048D01*
X50433359Y-76757321D01*
X50433359Y-76599207D01*
X50392436Y-76446480D01*
X50363672Y-76396658D01*
X50313383Y-76309554D01*
X50313377Y-76309546D01*
X50222201Y-76218370D01*
X50208856Y-76193932D01*
X50192704Y-76171250D01*
X50192343Y-76163690D01*
X50188716Y-76157047D01*
X50190702Y-76129272D01*
X50189376Y-76101460D01*
X50193412Y-76091376D01*
X50193700Y-76087355D01*
X50202489Y-76068699D01*
X50207767Y-76059557D01*
X50258330Y-76011342D01*
X50326937Y-75998116D01*
X50391803Y-76024081D01*
X50402836Y-76033874D01*
X50449437Y-76080475D01*
X50468318Y-76091376D01*
X50472810Y-76093969D01*
X50535062Y-76129910D01*
X50535066Y-76129911D01*
X50582811Y-76142705D01*
X50582812Y-76142705D01*
X50592903Y-76145408D01*
X50630564Y-76155500D01*
X50630565Y-76155500D01*
X50767771Y-76155500D01*
X50834810Y-76175185D01*
X50855447Y-76191814D01*
X50904056Y-76240423D01*
X50921585Y-76257952D01*
X51044498Y-76340080D01*
X51044511Y-76340087D01*
X51181082Y-76396656D01*
X51181087Y-76396658D01*
X51181091Y-76396658D01*
X51181092Y-76396659D01*
X51326079Y-76425500D01*
X51326082Y-76425500D01*
X51473920Y-76425500D01*
X51571462Y-76406096D01*
X51618913Y-76396658D01*
X51755495Y-76340084D01*
X51878416Y-76257951D01*
X51982951Y-76153416D01*
X52065084Y-76030495D01*
X52121658Y-75893913D01*
X52149545Y-75753720D01*
X52150500Y-75748920D01*
X52150500Y-75601079D01*
X52121659Y-75456092D01*
X52121658Y-75456091D01*
X52121658Y-75456087D01*
X52106735Y-75420060D01*
X52065087Y-75319511D01*
X52065080Y-75319498D01*
X51982951Y-75196584D01*
X51982948Y-75196580D01*
X51878419Y-75092051D01*
X51878415Y-75092048D01*
X51755501Y-75009919D01*
X51755488Y-75009912D01*
X51618917Y-74953343D01*
X51618907Y-74953340D01*
X51473920Y-74924500D01*
X51473918Y-74924500D01*
X51326082Y-74924500D01*
X51326080Y-74924500D01*
X51181092Y-74953340D01*
X51181082Y-74953343D01*
X51047423Y-75008706D01*
X50977953Y-75016175D01*
X50915474Y-74984899D01*
X50879823Y-74924810D01*
X50882317Y-74854985D01*
X50892582Y-74832149D01*
X50950248Y-74732268D01*
X50991171Y-74579541D01*
X50991171Y-74421427D01*
X50950248Y-74268700D01*
X50900842Y-74183125D01*
X50871195Y-74131774D01*
X50871192Y-74131770D01*
X50871191Y-74131768D01*
X50785818Y-74046395D01*
X50752334Y-73985071D01*
X50749500Y-73958714D01*
X50749500Y-72864500D01*
X50769185Y-72797461D01*
X50821989Y-72751706D01*
X50873500Y-72740500D01*
X50983920Y-72740500D01*
X51081462Y-72721096D01*
X51128913Y-72711658D01*
X51265495Y-72655084D01*
X51388416Y-72572951D01*
X51492951Y-72468416D01*
X51575084Y-72345495D01*
X51631658Y-72208913D01*
X51641096Y-72161462D01*
X51660500Y-72063920D01*
X51660500Y-71916079D01*
X51631659Y-71771092D01*
X51631658Y-71771091D01*
X51631658Y-71771087D01*
X51631656Y-71771082D01*
X51575087Y-71634511D01*
X51575080Y-71634498D01*
X51492951Y-71511584D01*
X51492948Y-71511580D01*
X51388419Y-71407051D01*
X51388415Y-71407048D01*
X51265501Y-71324919D01*
X51265488Y-71324912D01*
X51128917Y-71268343D01*
X51128907Y-71268340D01*
X50983920Y-71239500D01*
X50983918Y-71239500D01*
X50873500Y-71239500D01*
X50806461Y-71219815D01*
X50760706Y-71167011D01*
X50749500Y-71115500D01*
X50749500Y-66632899D01*
X50769185Y-66565860D01*
X50785819Y-66545218D01*
X51682622Y-65648415D01*
X52810061Y-64520976D01*
X52810062Y-64520975D01*
X52859497Y-64435351D01*
X52881010Y-64355063D01*
X52881011Y-64355062D01*
X52881871Y-64351848D01*
X52885087Y-64339849D01*
X52885087Y-64240977D01*
X52885087Y-63155651D01*
X52904772Y-63088612D01*
X52921406Y-63067970D01*
X52990107Y-62999269D01*
X53069164Y-62862337D01*
X53080725Y-62819187D01*
X53117090Y-62759528D01*
X53179937Y-62728999D01*
X53249312Y-62737294D01*
X53303190Y-62781779D01*
X53324465Y-62848331D01*
X53324500Y-62851282D01*
X53324500Y-65926967D01*
X53304815Y-65994006D01*
X53252011Y-66039761D01*
X53182853Y-66049705D01*
X53168408Y-66046742D01*
X53104058Y-66029500D01*
X53104057Y-66029500D01*
X52945943Y-66029500D01*
X52793216Y-66070423D01*
X52793209Y-66070426D01*
X52656290Y-66149475D01*
X52656282Y-66149481D01*
X52544481Y-66261282D01*
X52544475Y-66261290D01*
X52465426Y-66398209D01*
X52465423Y-66398216D01*
X52424500Y-66550943D01*
X52424500Y-66709057D01*
X52463464Y-66854471D01*
X52465423Y-66861783D01*
X52465426Y-66861790D01*
X52544475Y-66998709D01*
X52544481Y-66998717D01*
X52613181Y-67067417D01*
X52646666Y-67128740D01*
X52649500Y-67155098D01*
X52649500Y-71529031D01*
X52675090Y-71624534D01*
X52675091Y-71624535D01*
X52675091Y-71624536D01*
X52724526Y-71710159D01*
X53801376Y-72787010D01*
X53821082Y-72812691D01*
X53894477Y-72939816D01*
X53894479Y-72939819D01*
X53894480Y-72939820D01*
X54006284Y-73051624D01*
X54006286Y-73051625D01*
X54006290Y-73051628D01*
X54143209Y-73130677D01*
X54143216Y-73130681D01*
X54295943Y-73171604D01*
X54295945Y-73171604D01*
X54454055Y-73171604D01*
X54454057Y-73171604D01*
X54606784Y-73130681D01*
X54743716Y-73051624D01*
X54855520Y-72939820D01*
X54934577Y-72802888D01*
X54975500Y-72650161D01*
X54975500Y-72492047D01*
X54934577Y-72339320D01*
X54915369Y-72306051D01*
X54855524Y-72202394D01*
X54855518Y-72202386D01*
X54793793Y-72140661D01*
X54760308Y-72079338D01*
X54765292Y-72009646D01*
X54807164Y-71953713D01*
X54819474Y-71945593D01*
X54824982Y-71942412D01*
X54824985Y-71942412D01*
X54950515Y-71869937D01*
X55053009Y-71767443D01*
X55108723Y-71670943D01*
X58824500Y-71670943D01*
X58824500Y-71829057D01*
X58862428Y-71970604D01*
X58865423Y-71981783D01*
X58865426Y-71981790D01*
X58944475Y-72118709D01*
X58944479Y-72118714D01*
X58944480Y-72118716D01*
X59056284Y-72230520D01*
X59099527Y-72255486D01*
X59147742Y-72306051D01*
X59160967Y-72374658D01*
X59135000Y-72439523D01*
X59125210Y-72450554D01*
X59011978Y-72563786D01*
X59011975Y-72563790D01*
X58932926Y-72700709D01*
X58932923Y-72700716D01*
X58892000Y-72853443D01*
X58892000Y-73011557D01*
X58902736Y-73051622D01*
X58932923Y-73164283D01*
X58932926Y-73164290D01*
X59011975Y-73301209D01*
X59011979Y-73301214D01*
X59011980Y-73301216D01*
X59123784Y-73413020D01*
X59123786Y-73413021D01*
X59123790Y-73413024D01*
X59260709Y-73492073D01*
X59260716Y-73492077D01*
X59413443Y-73533000D01*
X59413445Y-73533000D01*
X59571555Y-73533000D01*
X59571557Y-73533000D01*
X59724284Y-73492077D01*
X59861216Y-73413020D01*
X59973020Y-73301216D01*
X60052077Y-73164284D01*
X60093000Y-73011557D01*
X60093000Y-72999500D01*
X60112685Y-72932461D01*
X60165489Y-72886706D01*
X60217000Y-72875500D01*
X69924435Y-72875500D01*
X69924436Y-72875500D01*
X69972186Y-72862705D01*
X70019938Y-72849910D01*
X70105562Y-72800475D01*
X70175475Y-72730562D01*
X73087974Y-69818063D01*
X74022598Y-68883438D01*
X74083919Y-68849955D01*
X74153610Y-68854939D01*
X74179168Y-68868019D01*
X74294498Y-68945080D01*
X74294511Y-68945087D01*
X74413299Y-68994290D01*
X74431087Y-69001658D01*
X74431091Y-69001658D01*
X74431092Y-69001659D01*
X74576079Y-69030500D01*
X74576082Y-69030500D01*
X74723920Y-69030500D01*
X74821462Y-69011096D01*
X74868913Y-69001658D01*
X75005495Y-68945084D01*
X75128416Y-68862951D01*
X75232951Y-68758416D01*
X75315084Y-68635495D01*
X75371658Y-68498913D01*
X75392570Y-68393784D01*
X75400500Y-68353920D01*
X75400500Y-68206079D01*
X75371659Y-68061092D01*
X75371658Y-68061091D01*
X75371658Y-68061087D01*
X75366859Y-68049500D01*
X75315087Y-67924511D01*
X75315080Y-67924498D01*
X75238019Y-67809168D01*
X75217141Y-67742490D01*
X75235626Y-67675110D01*
X75253436Y-67652600D01*
X75881718Y-67024319D01*
X75943041Y-66990834D01*
X75969399Y-66988000D01*
X76066555Y-66988000D01*
X76066557Y-66988000D01*
X76219284Y-66947077D01*
X76356216Y-66868020D01*
X76468020Y-66756216D01*
X76547077Y-66619284D01*
X76588000Y-66466557D01*
X76588000Y-66308443D01*
X76547077Y-66155716D01*
X76507115Y-66086499D01*
X76490643Y-66018599D01*
X76513496Y-65952572D01*
X76568418Y-65909382D01*
X76614503Y-65900500D01*
X76679055Y-65900500D01*
X76679057Y-65900500D01*
X76831784Y-65859577D01*
X76968716Y-65780520D01*
X77080520Y-65668716D01*
X77159577Y-65531784D01*
X77200500Y-65379057D01*
X77200500Y-65220943D01*
X77159577Y-65068216D01*
X77156385Y-65062687D01*
X77080524Y-64931290D01*
X77080518Y-64931282D01*
X76968717Y-64819481D01*
X76968709Y-64819475D01*
X76831790Y-64740426D01*
X76831786Y-64740424D01*
X76831784Y-64740423D01*
X76679057Y-64699500D01*
X76520943Y-64699500D01*
X76368216Y-64740423D01*
X76368209Y-64740426D01*
X76231290Y-64819475D01*
X76231282Y-64819481D01*
X76162583Y-64888181D01*
X76101260Y-64921666D01*
X76074902Y-64924500D01*
X75925564Y-64924500D01*
X75877812Y-64937295D01*
X75877811Y-64937294D01*
X75830063Y-64950089D01*
X75830062Y-64950089D01*
X75744435Y-64999527D01*
X72820346Y-67923616D01*
X72759023Y-67957101D01*
X72689331Y-67952117D01*
X72644984Y-67923616D01*
X72628419Y-67907051D01*
X72628415Y-67907048D01*
X72505501Y-67824919D01*
X72505488Y-67824912D01*
X72368917Y-67768343D01*
X72368907Y-67768340D01*
X72223920Y-67739500D01*
X72223918Y-67739500D01*
X72076082Y-67739500D01*
X72076080Y-67739500D01*
X71931092Y-67768340D01*
X71931082Y-67768343D01*
X71794511Y-67824912D01*
X71794498Y-67824919D01*
X71671584Y-67907048D01*
X71671580Y-67907051D01*
X71567051Y-68011580D01*
X71567048Y-68011584D01*
X71484919Y-68134498D01*
X71484912Y-68134511D01*
X71428343Y-68271082D01*
X71428340Y-68271092D01*
X71399500Y-68416079D01*
X71399500Y-68416082D01*
X71399500Y-68563918D01*
X71399500Y-68563920D01*
X71399499Y-68563920D01*
X71428340Y-68708907D01*
X71428343Y-68708917D01*
X71484912Y-68845488D01*
X71484919Y-68845501D01*
X71567048Y-68968415D01*
X71567051Y-68968419D01*
X71583616Y-68984984D01*
X71617101Y-69046307D01*
X71612117Y-69115999D01*
X71583616Y-69160346D01*
X69405782Y-71338181D01*
X69344459Y-71371666D01*
X69318101Y-71374500D01*
X64582936Y-71374500D01*
X64515897Y-71354815D01*
X64470142Y-71302011D01*
X64460198Y-71232853D01*
X64463161Y-71218407D01*
X64465277Y-71210511D01*
X64500500Y-71079057D01*
X64500500Y-70920943D01*
X64459577Y-70768216D01*
X64418764Y-70697525D01*
X64380524Y-70631290D01*
X64380518Y-70631282D01*
X64311819Y-70562583D01*
X64278334Y-70501260D01*
X64275500Y-70474902D01*
X64275500Y-65505929D01*
X64295185Y-65438890D01*
X64337502Y-65398541D01*
X64339237Y-65397538D01*
X64368716Y-65380520D01*
X64480520Y-65268716D01*
X64559577Y-65131784D01*
X64600500Y-64979057D01*
X64600500Y-64820943D01*
X64559577Y-64668216D01*
X64491326Y-64550000D01*
X64480524Y-64531290D01*
X64480518Y-64531282D01*
X64368717Y-64419481D01*
X64368709Y-64419475D01*
X64231790Y-64340426D01*
X64231786Y-64340424D01*
X64231784Y-64340423D01*
X64079057Y-64299500D01*
X63920943Y-64299500D01*
X63768216Y-64340423D01*
X63768209Y-64340426D01*
X63631290Y-64419475D01*
X63631282Y-64419481D01*
X63537083Y-64513681D01*
X63475760Y-64547166D01*
X63449402Y-64550000D01*
X62825000Y-64550000D01*
X62825000Y-65149999D01*
X63056479Y-65149999D01*
X63150149Y-65135164D01*
X63150152Y-65135163D01*
X63271469Y-65073348D01*
X63277315Y-65072249D01*
X63282003Y-65068585D01*
X63311264Y-65065873D01*
X63340138Y-65060451D01*
X63345649Y-65062687D01*
X63351575Y-65062139D01*
X63377658Y-65075679D01*
X63404879Y-65086727D01*
X63409666Y-65092295D01*
X63413587Y-65094330D01*
X63421999Y-65106637D01*
X63435326Y-65122135D01*
X63440039Y-65130352D01*
X63440423Y-65131784D01*
X63507930Y-65248712D01*
X63508061Y-65248939D01*
X63508845Y-65252214D01*
X63524500Y-65310636D01*
X63524500Y-70474902D01*
X63504815Y-70541941D01*
X63488181Y-70562583D01*
X63419481Y-70631282D01*
X63419475Y-70631290D01*
X63340426Y-70768209D01*
X63340423Y-70768216D01*
X63299500Y-70920943D01*
X63299500Y-71079057D01*
X63334722Y-71210509D01*
X63336839Y-71218407D01*
X63335176Y-71288256D01*
X63296014Y-71346119D01*
X63231785Y-71373623D01*
X63217064Y-71374500D01*
X59950098Y-71374500D01*
X59883059Y-71354815D01*
X59862417Y-71338181D01*
X59793717Y-71269481D01*
X59793709Y-71269475D01*
X59656790Y-71190426D01*
X59656786Y-71190424D01*
X59656784Y-71190423D01*
X59504057Y-71149500D01*
X59345943Y-71149500D01*
X59193216Y-71190423D01*
X59193209Y-71190426D01*
X59056290Y-71269475D01*
X59056282Y-71269481D01*
X58944481Y-71381282D01*
X58944475Y-71381290D01*
X58865426Y-71518209D01*
X58865423Y-71518216D01*
X58824500Y-71670943D01*
X55108723Y-71670943D01*
X55125484Y-71641913D01*
X55163000Y-71501903D01*
X55163000Y-71433584D01*
X55164908Y-71422833D01*
X55175794Y-71400928D01*
X55182685Y-71377461D01*
X55191066Y-71370198D01*
X55196003Y-71360265D01*
X55217005Y-71347721D01*
X55235489Y-71331706D01*
X55248599Y-71328853D01*
X55255990Y-71324440D01*
X55267196Y-71324808D01*
X55287000Y-71320500D01*
X55297472Y-71320500D01*
X55297475Y-71320500D01*
X55437485Y-71282984D01*
X55563015Y-71210509D01*
X55665509Y-71108015D01*
X55737984Y-70982485D01*
X55775500Y-70842475D01*
X55775500Y-70697525D01*
X55737984Y-70557515D01*
X55728992Y-70541941D01*
X55665511Y-70431988D01*
X55665506Y-70431982D01*
X55563017Y-70329493D01*
X55563011Y-70329488D01*
X55437488Y-70257017D01*
X55437489Y-70257017D01*
X55426006Y-70253940D01*
X55297475Y-70219500D01*
X55297472Y-70219500D01*
X55256900Y-70219500D01*
X55189861Y-70199815D01*
X55169219Y-70183181D01*
X54785819Y-69799781D01*
X54752334Y-69738458D01*
X54749500Y-69712100D01*
X54749500Y-69352764D01*
X54769185Y-69285725D01*
X54821989Y-69239970D01*
X54891147Y-69230026D01*
X54905580Y-69232986D01*
X54970943Y-69250500D01*
X54970946Y-69250500D01*
X55129055Y-69250500D01*
X55129057Y-69250500D01*
X55281784Y-69209577D01*
X55418716Y-69130520D01*
X55487417Y-69061819D01*
X55548740Y-69028334D01*
X55575098Y-69025500D01*
X56867939Y-69025500D01*
X56876992Y-69025501D01*
X56877008Y-69025506D01*
X56893125Y-69025504D01*
X56927973Y-69035742D01*
X56960132Y-69045181D01*
X56960150Y-69045195D01*
X56960161Y-69045199D01*
X56960176Y-69045216D01*
X56980786Y-69061823D01*
X57063181Y-69144218D01*
X57096666Y-69205541D01*
X57099500Y-69231899D01*
X57099500Y-69329057D01*
X57136788Y-69468216D01*
X57140423Y-69481783D01*
X57140426Y-69481790D01*
X57219475Y-69618709D01*
X57219479Y-69618714D01*
X57219480Y-69618716D01*
X57331284Y-69730520D01*
X57331286Y-69730521D01*
X57331290Y-69730524D01*
X57468209Y-69809573D01*
X57468216Y-69809577D01*
X57620943Y-69850500D01*
X57620945Y-69850500D01*
X57779055Y-69850500D01*
X57779057Y-69850500D01*
X57931784Y-69809577D01*
X58068716Y-69730520D01*
X58180520Y-69618716D01*
X58259577Y-69481784D01*
X58300500Y-69329057D01*
X58300500Y-69170943D01*
X58259577Y-69018216D01*
X58250016Y-69001656D01*
X58180524Y-68881290D01*
X58180518Y-68881282D01*
X58111819Y-68812583D01*
X58078334Y-68751260D01*
X58075500Y-68724902D01*
X58075500Y-67677996D01*
X58095185Y-67610957D01*
X58130611Y-67574893D01*
X58153533Y-67559577D01*
X58178416Y-67542951D01*
X58282951Y-67438416D01*
X58365084Y-67315495D01*
X58421658Y-67178913D01*
X58436612Y-67103736D01*
X58450500Y-67033920D01*
X58450500Y-66920943D01*
X59699500Y-66920943D01*
X59699500Y-67079057D01*
X59738120Y-67223187D01*
X59740423Y-67231783D01*
X59740426Y-67231790D01*
X59819475Y-67368709D01*
X59819479Y-67368714D01*
X59819480Y-67368716D01*
X59931284Y-67480520D01*
X59931286Y-67480521D01*
X59931290Y-67480524D01*
X60039420Y-67542952D01*
X60068216Y-67559577D01*
X60220943Y-67600500D01*
X60220945Y-67600500D01*
X60379055Y-67600500D01*
X60379057Y-67600500D01*
X60531784Y-67559577D01*
X60668716Y-67480520D01*
X60780520Y-67368716D01*
X60859577Y-67231784D01*
X60900500Y-67079057D01*
X60900500Y-66920943D01*
X60859577Y-66768216D01*
X60859573Y-66768209D01*
X60780524Y-66631290D01*
X60780518Y-66631282D01*
X60711819Y-66562583D01*
X60678334Y-66501260D01*
X60675500Y-66474902D01*
X60675500Y-64781479D01*
X61625001Y-64781479D01*
X61639835Y-64875149D01*
X61639837Y-64875155D01*
X61697356Y-64988041D01*
X61697363Y-64988050D01*
X61786949Y-65077636D01*
X61786953Y-65077639D01*
X61899855Y-65135166D01*
X61993514Y-65149999D01*
X62224999Y-65149999D01*
X62225000Y-65149998D01*
X62225000Y-64550000D01*
X61625001Y-64550000D01*
X61625001Y-64781479D01*
X60675500Y-64781479D01*
X60675500Y-64706898D01*
X60695185Y-64639859D01*
X60711814Y-64619222D01*
X61415339Y-63915697D01*
X61476660Y-63882214D01*
X61546352Y-63887198D01*
X61590699Y-63915699D01*
X61625000Y-63950000D01*
X62225000Y-63950000D01*
X62825000Y-63950000D01*
X63424999Y-63950000D01*
X63424999Y-63718520D01*
X63410164Y-63624850D01*
X63410162Y-63624844D01*
X63352643Y-63511958D01*
X63352636Y-63511949D01*
X63263050Y-63422363D01*
X63263046Y-63422360D01*
X63150144Y-63364833D01*
X63056486Y-63350000D01*
X62825000Y-63350000D01*
X62825000Y-63950000D01*
X62225000Y-63950000D01*
X62225000Y-63350000D01*
X62190699Y-63315700D01*
X62157214Y-63254377D01*
X62162198Y-63184685D01*
X62162198Y-63184684D01*
X62162202Y-63184677D01*
X62190697Y-63140339D01*
X64344218Y-60986819D01*
X64405541Y-60953334D01*
X64431899Y-60950500D01*
X64529055Y-60950500D01*
X64529057Y-60950500D01*
X64681784Y-60909577D01*
X64818716Y-60830520D01*
X64930520Y-60718716D01*
X65009577Y-60581784D01*
X65050500Y-60429057D01*
X65050500Y-60270943D01*
X65009577Y-60118216D01*
X65009573Y-60118209D01*
X64930524Y-59981290D01*
X64930518Y-59981282D01*
X64818717Y-59869481D01*
X64818709Y-59869475D01*
X64681790Y-59790426D01*
X64681786Y-59790424D01*
X64681784Y-59790423D01*
X64529057Y-59749500D01*
X64370943Y-59749500D01*
X64218216Y-59790423D01*
X64218209Y-59790426D01*
X64081290Y-59869475D01*
X64081282Y-59869481D01*
X63969481Y-59981282D01*
X63969475Y-59981290D01*
X63890426Y-60118209D01*
X63890423Y-60118216D01*
X63849500Y-60270943D01*
X63849500Y-60368101D01*
X63829815Y-60435140D01*
X63813181Y-60455782D01*
X59999527Y-64269435D01*
X59950091Y-64355059D01*
X59950090Y-64355061D01*
X59950090Y-64355062D01*
X59937295Y-64402813D01*
X59937294Y-64402814D01*
X59925101Y-64448323D01*
X59925095Y-64448345D01*
X59924500Y-64450563D01*
X59924500Y-66474902D01*
X59904815Y-66541941D01*
X59888181Y-66562583D01*
X59819481Y-66631282D01*
X59819475Y-66631290D01*
X59740426Y-66768209D01*
X59740423Y-66768216D01*
X59699500Y-66920943D01*
X58450500Y-66920943D01*
X58450500Y-66886079D01*
X58421659Y-66741092D01*
X58421658Y-66741091D01*
X58421658Y-66741087D01*
X58408391Y-66709057D01*
X58365087Y-66604511D01*
X58365080Y-66604498D01*
X58282951Y-66481584D01*
X58282948Y-66481580D01*
X58178419Y-66377051D01*
X58178415Y-66377048D01*
X58055501Y-66294919D01*
X58055488Y-66294912D01*
X57918917Y-66238343D01*
X57918907Y-66238340D01*
X57773920Y-66209500D01*
X57773918Y-66209500D01*
X57626082Y-66209500D01*
X57626080Y-66209500D01*
X57481092Y-66238340D01*
X57481082Y-66238343D01*
X57344511Y-66294912D01*
X57344493Y-66294922D01*
X57318390Y-66312364D01*
X57251713Y-66333242D01*
X57184333Y-66314757D01*
X57137643Y-66262778D01*
X57125500Y-66209262D01*
X57125500Y-65887996D01*
X57145185Y-65820957D01*
X57180611Y-65784893D01*
X57187159Y-65780518D01*
X57228416Y-65752951D01*
X57332951Y-65648416D01*
X57415084Y-65525495D01*
X57423189Y-65505929D01*
X57456187Y-65426264D01*
X57471658Y-65388913D01*
X57495567Y-65268717D01*
X57500500Y-65243920D01*
X57500500Y-65096079D01*
X57471659Y-64951092D01*
X57471658Y-64951091D01*
X57471658Y-64951087D01*
X57463665Y-64931790D01*
X57415087Y-64814511D01*
X57415080Y-64814498D01*
X57332951Y-64691584D01*
X57332948Y-64691580D01*
X57228419Y-64587051D01*
X57228415Y-64587048D01*
X57105501Y-64504919D01*
X57105488Y-64504912D01*
X56968917Y-64448343D01*
X56968907Y-64448340D01*
X56823920Y-64419500D01*
X56823918Y-64419500D01*
X56676082Y-64419500D01*
X56676080Y-64419500D01*
X56531092Y-64448340D01*
X56531082Y-64448343D01*
X56394511Y-64504912D01*
X56394498Y-64504919D01*
X56271584Y-64587048D01*
X56271580Y-64587051D01*
X56167051Y-64691580D01*
X56167048Y-64691584D01*
X56084919Y-64814498D01*
X56084912Y-64814511D01*
X56028343Y-64951082D01*
X56028340Y-64951092D01*
X55999500Y-65096079D01*
X55999500Y-65096082D01*
X55999500Y-65243918D01*
X55999500Y-65243920D01*
X55999499Y-65243920D01*
X56028340Y-65388907D01*
X56028343Y-65388917D01*
X56084912Y-65525488D01*
X56084919Y-65525501D01*
X56167048Y-65648415D01*
X56167051Y-65648419D01*
X56271580Y-65752948D01*
X56271585Y-65752952D01*
X56319389Y-65784893D01*
X56364195Y-65838505D01*
X56374500Y-65887996D01*
X56374500Y-66796405D01*
X56370091Y-66811420D01*
X56370651Y-66827061D01*
X56360447Y-66844261D01*
X56354815Y-66863444D01*
X56342990Y-66873690D01*
X56335004Y-66887153D01*
X56317120Y-66896106D01*
X56302011Y-66909199D01*
X56285684Y-66911845D01*
X56272527Y-66918433D01*
X56246466Y-66918202D01*
X56237256Y-66919696D01*
X56231745Y-66919103D01*
X56133095Y-66899491D01*
X56055912Y-66899500D01*
X55575098Y-66899500D01*
X55508059Y-66879815D01*
X55487417Y-66863181D01*
X55418717Y-66794481D01*
X55418709Y-66794475D01*
X55281790Y-66715426D01*
X55281786Y-66715424D01*
X55281784Y-66715423D01*
X55129057Y-66674500D01*
X54970943Y-66674500D01*
X54970941Y-66674500D01*
X54905592Y-66692010D01*
X54835742Y-66690347D01*
X54777880Y-66651184D01*
X54750377Y-66586955D01*
X54749500Y-66572235D01*
X54749500Y-63143920D01*
X55149499Y-63143920D01*
X55178340Y-63288907D01*
X55178343Y-63288917D01*
X55234912Y-63425488D01*
X55234919Y-63425501D01*
X55317048Y-63548415D01*
X55317051Y-63548419D01*
X55421580Y-63652948D01*
X55421584Y-63652951D01*
X55544498Y-63735080D01*
X55544511Y-63735087D01*
X55681082Y-63791656D01*
X55681087Y-63791658D01*
X55681091Y-63791658D01*
X55681092Y-63791659D01*
X55826079Y-63820500D01*
X55826082Y-63820500D01*
X55973920Y-63820500D01*
X56071462Y-63801096D01*
X56118913Y-63791658D01*
X56255495Y-63735084D01*
X56378416Y-63652951D01*
X56482951Y-63548416D01*
X56565084Y-63425495D01*
X56621658Y-63288913D01*
X56642391Y-63184684D01*
X56650500Y-63143920D01*
X56650500Y-62996079D01*
X56621659Y-62851092D01*
X56621658Y-62851091D01*
X56621658Y-62851087D01*
X56621656Y-62851082D01*
X56565087Y-62714511D01*
X56565080Y-62714498D01*
X56482951Y-62591584D01*
X56482948Y-62591580D01*
X56378419Y-62487051D01*
X56378413Y-62487046D01*
X56330608Y-62455103D01*
X56285803Y-62401490D01*
X56275500Y-62352002D01*
X56275500Y-62081064D01*
X56295185Y-62014025D01*
X56311819Y-61993383D01*
X56329717Y-61975485D01*
X56389469Y-61915733D01*
X56468526Y-61778801D01*
X56509449Y-61626074D01*
X56509449Y-61467960D01*
X56468526Y-61315233D01*
X56441377Y-61268209D01*
X56389473Y-61178307D01*
X56389467Y-61178299D01*
X56277666Y-61066498D01*
X56277658Y-61066492D01*
X56140739Y-60987443D01*
X56140735Y-60987441D01*
X56140733Y-60987440D01*
X55988006Y-60946517D01*
X55829892Y-60946517D01*
X55677165Y-60987440D01*
X55677158Y-60987443D01*
X55540239Y-61066492D01*
X55540231Y-61066498D01*
X55428430Y-61178299D01*
X55428424Y-61178307D01*
X55349375Y-61315226D01*
X55349372Y-61315233D01*
X55308449Y-61467960D01*
X55308449Y-61626074D01*
X55336776Y-61731790D01*
X55349372Y-61778800D01*
X55349375Y-61778807D01*
X55428424Y-61915726D01*
X55428430Y-61915734D01*
X55488181Y-61975485D01*
X55521666Y-62036808D01*
X55524500Y-62063166D01*
X55524500Y-62352002D01*
X55504815Y-62419041D01*
X55469392Y-62455103D01*
X55421586Y-62487046D01*
X55421580Y-62487051D01*
X55317051Y-62591580D01*
X55317048Y-62591584D01*
X55234919Y-62714498D01*
X55234912Y-62714511D01*
X55178343Y-62851082D01*
X55178340Y-62851092D01*
X55149500Y-62996079D01*
X55149500Y-62996082D01*
X55149500Y-63143918D01*
X55149500Y-63143920D01*
X55149499Y-63143920D01*
X54749500Y-63143920D01*
X54749500Y-61132899D01*
X54769185Y-61065860D01*
X54785819Y-61045218D01*
X56567006Y-59264031D01*
X58392032Y-57439004D01*
X58453353Y-57405521D01*
X58511802Y-57406911D01*
X58656390Y-57445654D01*
X58656392Y-57445654D01*
X58814502Y-57445654D01*
X58814504Y-57445654D01*
X58967231Y-57404731D01*
X59104163Y-57325674D01*
X59108894Y-57320943D01*
X68399500Y-57320943D01*
X68399500Y-57479057D01*
X68418661Y-57550565D01*
X68440423Y-57631783D01*
X68440426Y-57631790D01*
X68519475Y-57768709D01*
X68519479Y-57768714D01*
X68519480Y-57768716D01*
X68631284Y-57880520D01*
X68631286Y-57880521D01*
X68631290Y-57880524D01*
X68718963Y-57931141D01*
X68768216Y-57959577D01*
X68920943Y-58000500D01*
X69018101Y-58000500D01*
X69085140Y-58020185D01*
X69105782Y-58036819D01*
X69588181Y-58519218D01*
X69621666Y-58580541D01*
X69624500Y-58606899D01*
X69624500Y-64174902D01*
X69604815Y-64241941D01*
X69588181Y-64262583D01*
X69519481Y-64331282D01*
X69519475Y-64331290D01*
X69440426Y-64468209D01*
X69440423Y-64468216D01*
X69399500Y-64620943D01*
X69399500Y-64779057D01*
X69440289Y-64931282D01*
X69440423Y-64931783D01*
X69440426Y-64931790D01*
X69519475Y-65068709D01*
X69519479Y-65068714D01*
X69519480Y-65068716D01*
X69631284Y-65180520D01*
X69631286Y-65180521D01*
X69631290Y-65180524D01*
X69741097Y-65243920D01*
X69768216Y-65259577D01*
X69920943Y-65300500D01*
X69920945Y-65300500D01*
X70079055Y-65300500D01*
X70079057Y-65300500D01*
X70231784Y-65259577D01*
X70368716Y-65180520D01*
X70412819Y-65136417D01*
X70432255Y-65125804D01*
X70448989Y-65111304D01*
X70462320Y-65109387D01*
X70474142Y-65102932D01*
X70496228Y-65104511D01*
X70518147Y-65101360D01*
X70530398Y-65106955D01*
X70543834Y-65107916D01*
X70561560Y-65121186D01*
X70581703Y-65130385D01*
X70588985Y-65141716D01*
X70599767Y-65149788D01*
X70607504Y-65170533D01*
X70619477Y-65189163D01*
X70622628Y-65211081D01*
X70624184Y-65215252D01*
X70624500Y-65224098D01*
X70624500Y-65374902D01*
X70604815Y-65441941D01*
X70588181Y-65462583D01*
X70519481Y-65531282D01*
X70519475Y-65531290D01*
X70440426Y-65668209D01*
X70440423Y-65668216D01*
X70399500Y-65820943D01*
X70399500Y-65979057D01*
X70431261Y-66097589D01*
X70440423Y-66131783D01*
X70440426Y-66131790D01*
X70519475Y-66268709D01*
X70519479Y-66268714D01*
X70519480Y-66268716D01*
X70631284Y-66380520D01*
X70631286Y-66380521D01*
X70631290Y-66380524D01*
X70697998Y-66419037D01*
X70768216Y-66459577D01*
X70920943Y-66500500D01*
X70920945Y-66500500D01*
X71079055Y-66500500D01*
X71079057Y-66500500D01*
X71231784Y-66459577D01*
X71368716Y-66380520D01*
X71480520Y-66268716D01*
X71559577Y-66131784D01*
X71600500Y-65979057D01*
X71600500Y-65820943D01*
X71559577Y-65668216D01*
X71548145Y-65648415D01*
X71480524Y-65531290D01*
X71480518Y-65531282D01*
X71411819Y-65462583D01*
X71378334Y-65401260D01*
X71375500Y-65374902D01*
X71375500Y-61684950D01*
X71395185Y-61617911D01*
X71447989Y-61572156D01*
X71517147Y-61562212D01*
X71580703Y-61591237D01*
X71618477Y-61650015D01*
X71619275Y-61652857D01*
X71640423Y-61731783D01*
X71640426Y-61731790D01*
X71719475Y-61868709D01*
X71719479Y-61868714D01*
X71719480Y-61868716D01*
X71831284Y-61980520D01*
X71831286Y-61980521D01*
X71831290Y-61980524D01*
X71968209Y-62059573D01*
X71968216Y-62059577D01*
X72120943Y-62100500D01*
X72120945Y-62100500D01*
X72279055Y-62100500D01*
X72279057Y-62100500D01*
X72431784Y-62059577D01*
X72568716Y-61980520D01*
X72680520Y-61868716D01*
X72759577Y-61731784D01*
X72800500Y-61579057D01*
X72800500Y-61420943D01*
X72759577Y-61268216D01*
X72759573Y-61268209D01*
X72680524Y-61131290D01*
X72680518Y-61131282D01*
X72611819Y-61062583D01*
X72578334Y-61001260D01*
X72575500Y-60974902D01*
X72575500Y-57550567D01*
X72575500Y-57550565D01*
X72549910Y-57455062D01*
X72500475Y-57369438D01*
X72430562Y-57299525D01*
X71636819Y-56505782D01*
X71603334Y-56444459D01*
X71600500Y-56418101D01*
X71600500Y-56320945D01*
X71600500Y-56320943D01*
X71559577Y-56168216D01*
X71559573Y-56168209D01*
X71480524Y-56031290D01*
X71480518Y-56031282D01*
X71368717Y-55919481D01*
X71368709Y-55919475D01*
X71231790Y-55840426D01*
X71231786Y-55840424D01*
X71231784Y-55840423D01*
X71079057Y-55799500D01*
X70920943Y-55799500D01*
X70768216Y-55840423D01*
X70768209Y-55840426D01*
X70631290Y-55919475D01*
X70631282Y-55919481D01*
X70519481Y-56031282D01*
X70519475Y-56031290D01*
X70440426Y-56168209D01*
X70440423Y-56168214D01*
X70414335Y-56265578D01*
X70377969Y-56325238D01*
X70315122Y-56355767D01*
X70245747Y-56347472D01*
X70232560Y-56340871D01*
X70231786Y-56340424D01*
X70231785Y-56340423D01*
X70231784Y-56340423D01*
X70079057Y-56299500D01*
X69920943Y-56299500D01*
X69768216Y-56340423D01*
X69768209Y-56340426D01*
X69631290Y-56419475D01*
X69631282Y-56419481D01*
X69519481Y-56531282D01*
X69519475Y-56531290D01*
X69440426Y-56668209D01*
X69440423Y-56668214D01*
X69414335Y-56765578D01*
X69377969Y-56825238D01*
X69315122Y-56855767D01*
X69245747Y-56847472D01*
X69232560Y-56840871D01*
X69231786Y-56840424D01*
X69231785Y-56840423D01*
X69231784Y-56840423D01*
X69079057Y-56799500D01*
X68920943Y-56799500D01*
X68768216Y-56840423D01*
X68768209Y-56840426D01*
X68631290Y-56919475D01*
X68631282Y-56919481D01*
X68519481Y-57031282D01*
X68519475Y-57031290D01*
X68440426Y-57168209D01*
X68440423Y-57168216D01*
X68399500Y-57320943D01*
X59108894Y-57320943D01*
X59215967Y-57213870D01*
X59295024Y-57076938D01*
X59335947Y-56924211D01*
X59335947Y-56804985D01*
X59355632Y-56737946D01*
X59408436Y-56692191D01*
X59427849Y-56685211D01*
X59521784Y-56660042D01*
X59658716Y-56580985D01*
X59770520Y-56469181D01*
X59849577Y-56332249D01*
X59890500Y-56179522D01*
X59890500Y-56021408D01*
X59849577Y-55868681D01*
X59833264Y-55840426D01*
X59770524Y-55731755D01*
X59770518Y-55731747D01*
X59658717Y-55619946D01*
X59658709Y-55619940D01*
X59521790Y-55540891D01*
X59521786Y-55540889D01*
X59521784Y-55540888D01*
X59369057Y-55499965D01*
X59210943Y-55499965D01*
X59058216Y-55540888D01*
X59058209Y-55540891D01*
X58921290Y-55619940D01*
X58921282Y-55619946D01*
X58846718Y-55694511D01*
X58785395Y-55727996D01*
X58759037Y-55730830D01*
X57994234Y-55730830D01*
X57946482Y-55743625D01*
X57946481Y-55743624D01*
X57898733Y-55756419D01*
X57898732Y-55756419D01*
X57813105Y-55805857D01*
X53399527Y-60219435D01*
X53350091Y-60305060D01*
X53350090Y-60305064D01*
X53324816Y-60399388D01*
X53324803Y-60399436D01*
X53324500Y-60400564D01*
X53324500Y-62409823D01*
X53304815Y-62476862D01*
X53252011Y-62522617D01*
X53182853Y-62532561D01*
X53119297Y-62503536D01*
X53081523Y-62444758D01*
X53080725Y-62441917D01*
X53069164Y-62398769D01*
X53069160Y-62398762D01*
X52990111Y-62261843D01*
X52990105Y-62261835D01*
X52878304Y-62150034D01*
X52878296Y-62150028D01*
X52741377Y-62070979D01*
X52741373Y-62070977D01*
X52741371Y-62070976D01*
X52588644Y-62030053D01*
X52430530Y-62030053D01*
X52277803Y-62070976D01*
X52277796Y-62070979D01*
X52140877Y-62150028D01*
X52140869Y-62150034D01*
X52029068Y-62261835D01*
X52029062Y-62261843D01*
X51950013Y-62398762D01*
X51950011Y-62398767D01*
X51950010Y-62398769D01*
X51909087Y-62551496D01*
X51909087Y-62709610D01*
X51946995Y-62851082D01*
X51950010Y-62862336D01*
X51950013Y-62862343D01*
X52029062Y-62999262D01*
X52029068Y-62999270D01*
X52097768Y-63067970D01*
X52131253Y-63129293D01*
X52134087Y-63155651D01*
X52134087Y-64083514D01*
X52114402Y-64150553D01*
X52097768Y-64171195D01*
X50073526Y-66195436D01*
X50024091Y-66281059D01*
X50024091Y-66281060D01*
X50024090Y-66281062D01*
X49998500Y-66376565D01*
X49998500Y-66376567D01*
X49998500Y-70220573D01*
X49978815Y-70287612D01*
X49926011Y-70333367D01*
X49856853Y-70343311D01*
X49799014Y-70318949D01*
X49793712Y-70314881D01*
X49656790Y-70235830D01*
X49656786Y-70235828D01*
X49656784Y-70235827D01*
X49504057Y-70194904D01*
X49345943Y-70194904D01*
X49193216Y-70235827D01*
X49193209Y-70235830D01*
X49056290Y-70314879D01*
X49056282Y-70314885D01*
X49013782Y-70357385D01*
X48952459Y-70390869D01*
X48882767Y-70385884D01*
X48838421Y-70357384D01*
X46943063Y-68462026D01*
X46943062Y-68462025D01*
X46880382Y-68425837D01*
X46857440Y-68412591D01*
X46857433Y-68412588D01*
X46808680Y-68399524D01*
X46808680Y-68399525D01*
X46761936Y-68387000D01*
X46761935Y-68387000D01*
X46500098Y-68387000D01*
X46433059Y-68367315D01*
X46412417Y-68350681D01*
X46343717Y-68281981D01*
X46343709Y-68281975D01*
X46206790Y-68202926D01*
X46206786Y-68202924D01*
X46206784Y-68202923D01*
X46054057Y-68162000D01*
X45895943Y-68162000D01*
X45743216Y-68202923D01*
X45743209Y-68202926D01*
X45606290Y-68281975D01*
X45606282Y-68281981D01*
X45494481Y-68393782D01*
X45494475Y-68393790D01*
X45415426Y-68530709D01*
X45415423Y-68530716D01*
X45374500Y-68683443D01*
X45374500Y-68841557D01*
X45408492Y-68968415D01*
X45415423Y-68994283D01*
X45415426Y-68994290D01*
X45494475Y-69131209D01*
X45494479Y-69131214D01*
X45494480Y-69131216D01*
X45606284Y-69243020D01*
X45606286Y-69243021D01*
X45606290Y-69243024D01*
X45692295Y-69292678D01*
X45743216Y-69322077D01*
X45895943Y-69363000D01*
X45895945Y-69363000D01*
X46054055Y-69363000D01*
X46054057Y-69363000D01*
X46206784Y-69322077D01*
X46343716Y-69243020D01*
X46412417Y-69174319D01*
X46439344Y-69159615D01*
X46465163Y-69143023D01*
X46471363Y-69142131D01*
X46473740Y-69140834D01*
X46500098Y-69138000D01*
X46505601Y-69138000D01*
X46572640Y-69157685D01*
X46593282Y-69174319D01*
X48338181Y-70919218D01*
X48371666Y-70980541D01*
X48374500Y-71006899D01*
X48374500Y-74934031D01*
X48400090Y-75029534D01*
X48400091Y-75029537D01*
X48432401Y-75085499D01*
X48449527Y-75115161D01*
X49031162Y-75696795D01*
X49064647Y-75758118D01*
X49067481Y-75784476D01*
X49067481Y-75872552D01*
X49095620Y-75977570D01*
X49110508Y-76033130D01*
X49107152Y-76034029D01*
X49112701Y-76087862D01*
X49081153Y-76150204D01*
X49020908Y-76185592D01*
X48953459Y-76183565D01*
X48940521Y-76179483D01*
X48902215Y-76157367D01*
X48806712Y-76131777D01*
X48792089Y-76131777D01*
X48773690Y-76126846D01*
X48773687Y-76126846D01*
X48756356Y-76122202D01*
X48756355Y-76122202D01*
X48659197Y-76122202D01*
X48592158Y-76102517D01*
X48571516Y-76085883D01*
X44548133Y-72062500D01*
X45350000Y-72062500D01*
X46650000Y-72062500D01*
X46650000Y-70262500D01*
X45350000Y-70262500D01*
X45350000Y-72062500D01*
X44548133Y-72062500D01*
X40885159Y-68399526D01*
X40885158Y-68399525D01*
X40799534Y-68350090D01*
X40751782Y-68337295D01*
X40751780Y-68337294D01*
X40751778Y-68337293D01*
X40704032Y-68324500D01*
X40704031Y-68324500D01*
X37715098Y-68324500D01*
X37648059Y-68304815D01*
X37627417Y-68288181D01*
X37558717Y-68219481D01*
X37558709Y-68219475D01*
X37421790Y-68140426D01*
X37421786Y-68140424D01*
X37421784Y-68140423D01*
X37269057Y-68099500D01*
X37110943Y-68099500D01*
X36958216Y-68140423D01*
X36958209Y-68140426D01*
X36821290Y-68219475D01*
X36821282Y-68219481D01*
X36709481Y-68331282D01*
X36709475Y-68331290D01*
X36630426Y-68468209D01*
X36630423Y-68468216D01*
X36589500Y-68620943D01*
X31500500Y-68620943D01*
X31500500Y-58723920D01*
X39639499Y-58723920D01*
X39668340Y-58868907D01*
X39668343Y-58868917D01*
X39724912Y-59005488D01*
X39724919Y-59005501D01*
X39807048Y-59128415D01*
X39807051Y-59128419D01*
X39911578Y-59232946D01*
X39911581Y-59232948D01*
X39911584Y-59232951D01*
X39958101Y-59264032D01*
X40002906Y-59317643D01*
X40013211Y-59367134D01*
X40013211Y-66097589D01*
X39993526Y-66164628D01*
X39976892Y-66185270D01*
X39908192Y-66253969D01*
X39908186Y-66253977D01*
X39829137Y-66390896D01*
X39829134Y-66390903D01*
X39788211Y-66543630D01*
X39788211Y-66701744D01*
X39826399Y-66844261D01*
X39829134Y-66854470D01*
X39829137Y-66854477D01*
X39908186Y-66991396D01*
X39908190Y-66991401D01*
X39908191Y-66991403D01*
X40019995Y-67103207D01*
X40019997Y-67103208D01*
X40020001Y-67103211D01*
X40151112Y-67178907D01*
X40156927Y-67182264D01*
X40309654Y-67223187D01*
X40309656Y-67223187D01*
X40467766Y-67223187D01*
X40467768Y-67223187D01*
X40620495Y-67182264D01*
X40757427Y-67103207D01*
X40869231Y-66991403D01*
X40948288Y-66854471D01*
X40989211Y-66701744D01*
X40989211Y-66543630D01*
X40948288Y-66390903D01*
X40942296Y-66380524D01*
X40869235Y-66253977D01*
X40869229Y-66253969D01*
X40800530Y-66185270D01*
X40767045Y-66123947D01*
X40764211Y-66097589D01*
X40764211Y-59368857D01*
X40783896Y-59301818D01*
X40819322Y-59265754D01*
X40821901Y-59264031D01*
X40868416Y-59232951D01*
X40972951Y-59128416D01*
X41055084Y-59005495D01*
X41111658Y-58868913D01*
X41140500Y-58723918D01*
X41140500Y-58576082D01*
X41140500Y-58576079D01*
X41111659Y-58431092D01*
X41111658Y-58431091D01*
X41111658Y-58431087D01*
X41078304Y-58350563D01*
X41055087Y-58294511D01*
X41055080Y-58294498D01*
X40972951Y-58171584D01*
X40972948Y-58171580D01*
X40868419Y-58067051D01*
X40819319Y-58034243D01*
X40774515Y-57980630D01*
X40764211Y-57931141D01*
X40764211Y-57612447D01*
X40783896Y-57545408D01*
X40826211Y-57505059D01*
X40868716Y-57480520D01*
X40980520Y-57368716D01*
X41059577Y-57231784D01*
X41100500Y-57079057D01*
X41100500Y-56920943D01*
X41059577Y-56768216D01*
X41020750Y-56700965D01*
X40980524Y-56631290D01*
X40980518Y-56631282D01*
X40868717Y-56519481D01*
X40868709Y-56519475D01*
X40731790Y-56440426D01*
X40731786Y-56440424D01*
X40731784Y-56440423D01*
X40579057Y-56399500D01*
X40420943Y-56399500D01*
X40268216Y-56440423D01*
X40268209Y-56440426D01*
X40131290Y-56519475D01*
X40131282Y-56519481D01*
X40019481Y-56631282D01*
X40019475Y-56631290D01*
X39940426Y-56768209D01*
X39940423Y-56768216D01*
X39899500Y-56920943D01*
X39899500Y-57079057D01*
X39938642Y-57225135D01*
X39940423Y-57231783D01*
X39940424Y-57231786D01*
X39996598Y-57329082D01*
X40013211Y-57391082D01*
X40013211Y-57932864D01*
X39993526Y-57999903D01*
X39958102Y-58035966D01*
X39911584Y-58067048D01*
X39911580Y-58067051D01*
X39807051Y-58171580D01*
X39807048Y-58171584D01*
X39724919Y-58294498D01*
X39724912Y-58294511D01*
X39668343Y-58431082D01*
X39668340Y-58431092D01*
X39639500Y-58576079D01*
X39639500Y-58576082D01*
X39639500Y-58723918D01*
X39639500Y-58723920D01*
X39639499Y-58723920D01*
X31500500Y-58723920D01*
X31500500Y-52493713D01*
X32149500Y-52493713D01*
X32149500Y-52706286D01*
X32182753Y-52916239D01*
X32248444Y-53118414D01*
X32344951Y-53307820D01*
X32469890Y-53479786D01*
X32620213Y-53630109D01*
X32792179Y-53755048D01*
X32792181Y-53755049D01*
X32792184Y-53755051D01*
X32981588Y-53851557D01*
X33183757Y-53917246D01*
X33393713Y-53950500D01*
X33393714Y-53950500D01*
X33606286Y-53950500D01*
X33606287Y-53950500D01*
X33816243Y-53917246D01*
X34018412Y-53851557D01*
X34207816Y-53755051D01*
X34229789Y-53739086D01*
X34379786Y-53630109D01*
X34379788Y-53630106D01*
X34379792Y-53630104D01*
X34530104Y-53479792D01*
X34530106Y-53479788D01*
X34530109Y-53479786D01*
X34655048Y-53307820D01*
X34655047Y-53307820D01*
X34655051Y-53307816D01*
X34751557Y-53118412D01*
X34817246Y-52916243D01*
X34850500Y-52706287D01*
X34850500Y-52493713D01*
X34817246Y-52283757D01*
X34751557Y-52081588D01*
X34655051Y-51892184D01*
X34655049Y-51892181D01*
X34655048Y-51892179D01*
X34530109Y-51720213D01*
X34379786Y-51569890D01*
X34207820Y-51444951D01*
X34018414Y-51348444D01*
X34018413Y-51348443D01*
X34018412Y-51348443D01*
X33816243Y-51282754D01*
X33816241Y-51282753D01*
X33816240Y-51282753D01*
X33654957Y-51257208D01*
X33606287Y-51249500D01*
X33393713Y-51249500D01*
X33345042Y-51257208D01*
X33183760Y-51282753D01*
X32981585Y-51348444D01*
X32792179Y-51444951D01*
X32620213Y-51569890D01*
X32469890Y-51720213D01*
X32344951Y-51892179D01*
X32248444Y-52081585D01*
X32182753Y-52283760D01*
X32149500Y-52493713D01*
X31500500Y-52493713D01*
X31500500Y-52304427D01*
X31500816Y-52295581D01*
X31501662Y-52283757D01*
X31517165Y-52066977D01*
X31519683Y-52049470D01*
X31563742Y-51846937D01*
X31567459Y-51829851D01*
X31572436Y-51812900D01*
X31650985Y-51602299D01*
X31658325Y-51586227D01*
X31766044Y-51388956D01*
X31775600Y-51374086D01*
X31910294Y-51194156D01*
X31921868Y-51180799D01*
X32080799Y-51021868D01*
X32094156Y-51010294D01*
X32274086Y-50875600D01*
X32288956Y-50866044D01*
X32486227Y-50758325D01*
X32502299Y-50750985D01*
X32712900Y-50672436D01*
X32729851Y-50667459D01*
X32949472Y-50619682D01*
X32966977Y-50617165D01*
X33195582Y-50600816D01*
X33204428Y-50600500D01*
X33265892Y-50600500D01*
X39546000Y-50600500D01*
X39613039Y-50620185D01*
G37*
%TD.AperFunction*%
%TD*%
M02*
