%TF.GenerationSoftware,KiCad,Pcbnew,9.0.7*%
%TF.CreationDate,2026-03-16T21:40:21+07:00*%
%TF.ProjectId,tag,7461672e-6b69-4636-9164-5f7063625858,rev?*%
%TF.SameCoordinates,Original*%
%TF.FileFunction,Copper,L2,Bot*%
%TF.FilePolarity,Positive*%
%FSLAX46Y46*%
G04 Gerber Fmt 4.6, Leading zero omitted, Abs format (unit mm)*
G04 Created by KiCad (PCBNEW 9.0.7) date 2026-03-16 21:40:21*
%MOMM*%
%LPD*%
G01*
G04 APERTURE LIST*
G04 Aperture macros list*
%AMRoundRect*
0 Rectangle with rounded corners*
0 $1 Rounding radius*
0 $2 $3 $4 $5 $6 $7 $8 $9 X,Y pos of 4 corners*
0 Add a 4 corners polygon primitive as box body*
4,1,4,$2,$3,$4,$5,$6,$7,$8,$9,$2,$3,0*
0 Add four circle primitives for the rounded corners*
1,1,$1+$1,$2,$3*
1,1,$1+$1,$4,$5*
1,1,$1+$1,$6,$7*
1,1,$1+$1,$8,$9*
0 Add four rect primitives between the rounded corners*
20,1,$1+$1,$2,$3,$4,$5,0*
20,1,$1+$1,$4,$5,$6,$7,0*
20,1,$1+$1,$6,$7,$8,$9,0*
20,1,$1+$1,$8,$9,$2,$3,0*%
G04 Aperture macros list end*
%TA.AperFunction,ComponentPad*%
%ADD10RoundRect,0.250000X-0.625000X0.350000X-0.625000X-0.350000X0.625000X-0.350000X0.625000X0.350000X0*%
%TD*%
%TA.AperFunction,ComponentPad*%
%ADD11O,1.750000X1.200000*%
%TD*%
%TA.AperFunction,ComponentPad*%
%ADD12RoundRect,0.250000X0.550000X-0.550000X0.550000X0.550000X-0.550000X0.550000X-0.550000X-0.550000X0*%
%TD*%
%TA.AperFunction,ComponentPad*%
%ADD13C,1.600000*%
%TD*%
%TA.AperFunction,HeatsinkPad*%
%ADD14O,2.100000X1.000000*%
%TD*%
%TA.AperFunction,HeatsinkPad*%
%ADD15O,1.600000X1.000000*%
%TD*%
%TA.AperFunction,SMDPad,CuDef*%
%ADD16C,1.000000*%
%TD*%
%TA.AperFunction,SMDPad,CuDef*%
%ADD17R,1.500000X1.500000*%
%TD*%
%TA.AperFunction,ViaPad*%
%ADD18C,0.700000*%
%TD*%
%TA.AperFunction,ViaPad*%
%ADD19C,0.600000*%
%TD*%
%TA.AperFunction,ViaPad*%
%ADD20C,0.500000*%
%TD*%
%TA.AperFunction,Conductor*%
%ADD21C,0.600000*%
%TD*%
%TA.AperFunction,Conductor*%
%ADD22C,0.250000*%
%TD*%
%TA.AperFunction,Conductor*%
%ADD23C,0.200000*%
%TD*%
%TA.AperFunction,Conductor*%
%ADD24C,0.300000*%
%TD*%
%TA.AperFunction,Conductor*%
%ADD25C,0.500000*%
%TD*%
G04 APERTURE END LIST*
D10*
%TO.P,J4,1,1*%
%TO.N,VBUS*%
X35050000Y-90400000D03*
D11*
%TO.P,J4,2,2*%
%TO.N,GND*%
X35050000Y-92400000D03*
%TD*%
D12*
%TO.P,J10,1,Pin_1*%
%TO.N,GND*%
X38780000Y-99480000D03*
D13*
%TO.P,J10,2,Pin_2*%
%TO.N,+BATT*%
X38780000Y-96480000D03*
%TD*%
D14*
%TO.P,J1,S1,SHIELD*%
%TO.N,GND*%
X36663500Y-75180000D03*
D15*
X32483500Y-75180000D03*
D14*
X36663500Y-83820000D03*
D15*
X32483500Y-83820000D03*
%TD*%
D16*
%TO.P,TP9,1,1*%
%TO.N,/SPI_SCK*%
X57700000Y-67000000D03*
%TD*%
%TO.P,TP14,1,1*%
%TO.N,/SPI_CS1*%
X52200000Y-65050000D03*
%TD*%
D17*
%TO.P,TP8,1,1*%
%TO.N,GND*%
X43060000Y-68960000D03*
%TD*%
D16*
%TO.P,TP12,1,1*%
%TO.N,/UWB_RST*%
X40370000Y-58680000D03*
%TD*%
%TO.P,TP10,1,1*%
%TO.N,/SPI_MOSI*%
X55900000Y-62950000D03*
%TD*%
%TO.P,TP4,1,1*%
%TO.N,/BLE_RX*%
X72150000Y-68490000D03*
%TD*%
%TO.P,TP13,1,1*%
%TO.N,/SPI_MISO*%
X56750000Y-64950000D03*
%TD*%
%TO.P,TP11,1,1*%
%TO.N,/BLE_TX*%
X74230000Y-68850000D03*
%TD*%
%TO.P,TP15,1,1*%
%TO.N,/SPI_CS2*%
X50700000Y-75600000D03*
%TD*%
D18*
%TO.N,+3.3V*%
X46362221Y-85557779D03*
X44800000Y-76800000D03*
X44800000Y-77550000D03*
X44749923Y-83945481D03*
X42870000Y-88930000D03*
X44749923Y-83200052D03*
%TO.N,Net-(D4-A)*%
X64400000Y-88852500D03*
X76175000Y-94100000D03*
%TO.N,/LED_USR*%
X62650000Y-82383883D03*
X52350295Y-83591446D03*
%TO.N,/SPI_CS1*%
X52509587Y-62630553D03*
X50390671Y-74500484D03*
%TO.N,/SPI_MISO*%
X56750000Y-67975000D03*
X55050000Y-67275000D03*
%TO.N,/SPI_SCK*%
X55050000Y-68650000D03*
X57700000Y-69250000D03*
%TO.N,/SPI_MOSI*%
X55908949Y-61547017D03*
%TO.N,/UWB_RST*%
X53025000Y-66630000D03*
X40388711Y-66622687D03*
X40500000Y-57000000D03*
X54375000Y-72571104D03*
D19*
%TO.N,/PB8 {slash} I2C1_SCL*%
X56825000Y-83058883D03*
D18*
X44880000Y-90480000D03*
X72350000Y-85250000D03*
X64489934Y-82970066D03*
%TO.N,/PB9 {slash} I2C1_SDA*%
X72320000Y-86300000D03*
X63313037Y-83733883D03*
D19*
X57300000Y-83702604D03*
D18*
X44553798Y-91318806D03*
D19*
%TO.N,/PB0 {slash} ADC_IN8*%
X55225000Y-70770000D03*
D18*
X62410000Y-56830000D03*
%TO.N,/PA0{slash}BTN_USR*%
X60300000Y-67000000D03*
X64450000Y-60350000D03*
%TO.N,/PB1 {slash} ADC_IN9*%
X61400000Y-56110000D03*
D19*
X54612500Y-71429428D03*
D18*
%TO.N,/SPI_CS2*%
X49425000Y-70795406D03*
X49505000Y-74685000D03*
D20*
%TO.N,GND*%
X35000000Y-101000000D03*
X42900000Y-61500000D03*
X55480000Y-87780000D03*
X68500000Y-69500000D03*
X47000000Y-101000000D03*
X77740000Y-71380000D03*
X77740000Y-66105000D03*
X74760000Y-76620000D03*
X53750000Y-52500000D03*
X46800000Y-81130000D03*
X44900000Y-59500000D03*
X37000000Y-73000000D03*
X62700000Y-81500000D03*
X57250000Y-56000000D03*
X70400000Y-79600000D03*
X70865800Y-96085000D03*
X46000000Y-67450000D03*
X65450000Y-90900000D03*
X67500000Y-55125000D03*
X47330000Y-80790000D03*
X46900000Y-54300000D03*
X69500000Y-75700000D03*
X48000000Y-83800000D03*
X66250000Y-53875000D03*
X46165229Y-93470000D03*
X76550000Y-61500000D03*
X46900000Y-57500000D03*
X36000000Y-54000000D03*
X65450000Y-93300000D03*
X65300000Y-60400000D03*
X47810000Y-80390000D03*
X53000000Y-52500000D03*
X68500000Y-71000000D03*
X77750000Y-58000000D03*
X51250000Y-96950000D03*
X61750000Y-52250000D03*
X69500000Y-51000000D03*
X77740000Y-67630000D03*
X53750000Y-51750000D03*
X47310000Y-78210000D03*
X69230000Y-65000000D03*
X51230000Y-99660000D03*
X68300000Y-74500000D03*
X79730000Y-95160000D03*
X67690800Y-88810000D03*
X75300000Y-57650000D03*
X42000000Y-67450000D03*
X78720000Y-78750000D03*
X38000000Y-92000000D03*
X53900000Y-80240000D03*
X32000000Y-66000000D03*
X38895000Y-76100000D03*
X61050000Y-71100000D03*
X41590000Y-98180000D03*
X65000000Y-101350000D03*
X67990800Y-93490000D03*
X53850000Y-78490000D03*
X79234541Y-78750000D03*
X64000000Y-80800000D03*
X41000000Y-73000000D03*
X60750000Y-77675000D03*
X50949000Y-70020000D03*
X53000000Y-51750000D03*
X79200000Y-57350000D03*
X37350000Y-100910000D03*
X34300000Y-78000000D03*
X58960000Y-57470000D03*
X77740000Y-70630000D03*
X45749132Y-93839030D03*
X62700000Y-62960000D03*
X34293500Y-80500000D03*
X77848189Y-77085520D03*
X68480000Y-64250000D03*
X62960000Y-101340000D03*
X55200000Y-65800000D03*
X40601500Y-81100000D03*
X63750000Y-58950000D03*
X51900000Y-94100000D03*
X58630000Y-54750000D03*
X48400000Y-78600000D03*
X61375000Y-61620000D03*
X65750000Y-52250000D03*
X55200000Y-65200000D03*
X37600000Y-63860000D03*
X57100000Y-51000000D03*
X74060000Y-56275000D03*
X70570000Y-93320000D03*
X32000000Y-83000000D03*
X46900000Y-61500000D03*
X55700000Y-76740000D03*
X79744131Y-78750000D03*
X32000000Y-92000000D03*
X51000000Y-63900000D03*
X44000000Y-67450000D03*
X70090800Y-88810000D03*
X62500000Y-57750000D03*
X69290800Y-88810000D03*
X56030000Y-89470000D03*
X47960000Y-74690000D03*
X35000000Y-73000000D03*
X67590000Y-84560000D03*
X51800000Y-62200000D03*
X38793500Y-82800000D03*
X44200000Y-84600000D03*
X37600000Y-62960000D03*
X70400000Y-78800000D03*
X79700000Y-92970000D03*
X37600000Y-62160000D03*
X61420000Y-73180000D03*
X46598358Y-93125373D03*
X39000000Y-73000000D03*
X68000000Y-95990800D03*
X48720000Y-75790000D03*
X50510000Y-93350000D03*
X53150000Y-93100000D03*
X42400000Y-77790000D03*
X40350000Y-97920000D03*
X36000000Y-56000000D03*
X48996504Y-78606128D03*
X48925000Y-54300000D03*
X41200000Y-55500000D03*
X50000000Y-89300000D03*
X51238345Y-80928401D03*
X67100000Y-73300000D03*
X40950000Y-54300000D03*
X70570000Y-90120000D03*
X55700000Y-80240000D03*
X65100000Y-66800000D03*
X32293250Y-80500000D03*
X42440000Y-99440000D03*
X72660000Y-87170000D03*
X75300000Y-51000000D03*
X32000000Y-98000000D03*
X48410000Y-80372752D03*
X77820000Y-79080000D03*
X79700000Y-90950000D03*
X53650000Y-95830000D03*
X53000000Y-101000000D03*
X57907199Y-84277604D03*
X41000000Y-67450000D03*
X78200000Y-57350000D03*
X38400000Y-63860000D03*
X70570000Y-91720000D03*
X39000000Y-67450000D03*
X33000000Y-70700000D03*
X62900000Y-88900000D03*
X80000000Y-86600000D03*
X73890000Y-92660000D03*
X80200000Y-57350000D03*
X61860000Y-84770000D03*
X32000000Y-76000000D03*
X55010000Y-53500000D03*
X32000000Y-72000000D03*
X48900000Y-55500000D03*
X79160000Y-76690000D03*
X61750000Y-51000000D03*
X53750000Y-51000000D03*
X77740000Y-65380000D03*
X78365248Y-77063805D03*
X38000000Y-90000000D03*
X32000000Y-88000000D03*
X76560000Y-53650000D03*
X44700000Y-94900000D03*
X63750000Y-54000000D03*
X77750000Y-60000000D03*
X74000000Y-66000000D03*
X54900000Y-89300000D03*
X59960000Y-95660000D03*
X74780000Y-96240000D03*
X65600000Y-73200000D03*
X68490800Y-88810000D03*
X43850000Y-54300000D03*
X74800000Y-89180000D03*
X32000000Y-86000000D03*
X37100000Y-70800000D03*
X68480000Y-67900000D03*
X71900000Y-52250000D03*
X33000000Y-73000000D03*
X40000000Y-67450000D03*
X74050000Y-59000000D03*
X43437502Y-91300000D03*
X47800000Y-78600000D03*
X75880000Y-99760000D03*
X44280000Y-71400000D03*
X72000000Y-81000000D03*
X69500000Y-52250000D03*
X57500000Y-78490000D03*
X45600000Y-77500000D03*
X72130000Y-56420000D03*
X43630000Y-101020000D03*
X60000000Y-51000000D03*
X78320000Y-79060000D03*
X32000000Y-63000000D03*
X59500000Y-63000000D03*
X57510000Y-53500000D03*
X68900000Y-75100000D03*
X61550000Y-66800000D03*
X79160000Y-76190000D03*
X46600000Y-93842933D03*
X79170000Y-75690000D03*
X71900000Y-51000000D03*
X57600000Y-58800000D03*
X52879087Y-95834910D03*
X47700000Y-88100000D03*
X32000000Y-94000000D03*
X53000000Y-51000000D03*
X75300000Y-52250000D03*
X65000000Y-55125000D03*
X53640180Y-95084038D03*
X77740000Y-69880000D03*
X43300000Y-93800000D03*
X46350000Y-81700000D03*
X63567065Y-93158778D03*
X76300000Y-74950000D03*
X75310000Y-54900000D03*
X46740000Y-77940000D03*
X53675003Y-55300000D03*
X42400000Y-79500000D03*
X52898729Y-95084038D03*
X77800000Y-54895000D03*
X71949427Y-100792653D03*
X73000000Y-71000000D03*
X62500000Y-60375000D03*
X48900000Y-59500000D03*
X57590000Y-87770000D03*
X68350000Y-60450000D03*
X56280000Y-87780000D03*
X41200000Y-59500000D03*
X42410000Y-81090000D03*
X75175000Y-60240000D03*
X32000000Y-54000000D03*
X45000000Y-67450000D03*
X59400000Y-70300000D03*
X70570000Y-90920000D03*
X60880000Y-57430000D03*
X33000000Y-69000000D03*
X65900000Y-81000000D03*
X39920000Y-101100000D03*
X77750000Y-59000000D03*
X45755773Y-93130068D03*
X34000000Y-56000000D03*
X70200000Y-76400000D03*
X79170000Y-75190000D03*
X69230000Y-67900000D03*
X36000000Y-52000000D03*
X66540800Y-97110000D03*
X65450000Y-90100000D03*
X46650000Y-76850000D03*
X68400000Y-56500000D03*
X64800000Y-74000000D03*
X39000000Y-66700000D03*
X53520000Y-97840000D03*
X40621500Y-77800000D03*
X51800000Y-63000000D03*
X76000000Y-68000000D03*
X73775000Y-61490000D03*
X56260000Y-52125000D03*
X67990000Y-101350000D03*
D19*
X55700000Y-78500000D03*
D20*
X59960000Y-101340000D03*
X62100000Y-80900000D03*
X51800000Y-96950000D03*
X74780000Y-93850000D03*
X78000000Y-81000000D03*
X44900000Y-54325000D03*
X77740000Y-64630000D03*
X37330000Y-97890000D03*
X59400000Y-65600000D03*
X71000000Y-68000000D03*
X57300000Y-89300000D03*
X66890800Y-88810000D03*
X50000000Y-101000000D03*
X74060000Y-53775000D03*
X77740000Y-68380000D03*
X46500000Y-86900000D03*
X80000000Y-85000000D03*
X58680000Y-87780000D03*
X70570000Y-92520000D03*
X59820000Y-92630000D03*
X41900000Y-54300000D03*
X65450000Y-91700000D03*
X51000000Y-63000000D03*
X51800000Y-63900000D03*
X48070000Y-94900000D03*
X68480000Y-65000000D03*
X32000000Y-69000000D03*
X38795000Y-83600000D03*
X66090800Y-88810000D03*
X61500000Y-68750000D03*
X47900000Y-67450000D03*
X78420000Y-74800000D03*
X48010000Y-92360000D03*
X69000000Y-62000000D03*
X51000000Y-62200000D03*
X57500000Y-80240000D03*
X49799000Y-70050000D03*
X60000000Y-60370000D03*
X70400000Y-82000000D03*
X70400000Y-80400000D03*
X76560000Y-56275000D03*
X41960000Y-75990000D03*
X46415229Y-92590000D03*
X69850000Y-97020000D03*
X67500000Y-57750000D03*
X32000000Y-90000000D03*
X47950000Y-54300000D03*
X44500000Y-69862500D03*
X65600000Y-79000000D03*
X46400000Y-88400000D03*
X57500000Y-76740000D03*
X41300000Y-61500000D03*
X55000000Y-51000000D03*
X42900000Y-54300000D03*
X49400000Y-82100000D03*
X69410000Y-84640000D03*
X65750000Y-51000000D03*
X65450000Y-92500000D03*
X42900000Y-57500000D03*
X32000000Y-96000000D03*
X77740000Y-66880000D03*
X41639649Y-83585211D03*
X70400000Y-77200000D03*
X44900000Y-55500000D03*
X66300000Y-56300000D03*
X70400000Y-78000000D03*
X63950000Y-100150000D03*
X53272807Y-95459038D03*
X61960000Y-100170000D03*
X53800000Y-76740000D03*
X60000000Y-52250000D03*
X37000000Y-65000000D03*
X32306500Y-78000000D03*
X80246915Y-78750000D03*
X76550000Y-59000000D03*
X38000000Y-94000000D03*
X69230000Y-64250000D03*
X65450000Y-89300000D03*
X80000000Y-83000000D03*
X64800000Y-79000000D03*
X72000000Y-78000000D03*
X47000000Y-67450000D03*
X76000000Y-71000000D03*
X67700000Y-73900000D03*
X72270000Y-84050000D03*
X61300000Y-64440000D03*
X53050000Y-55300000D03*
X55150000Y-61800000D03*
X77750000Y-61000000D03*
X56125000Y-54750000D03*
X75500000Y-101010000D03*
X38980000Y-64510000D03*
X38193500Y-75200000D03*
X43000000Y-67450000D03*
X59400000Y-68300000D03*
X32000000Y-57000000D03*
X70400000Y-81200000D03*
X40626750Y-79500000D03*
X63750000Y-56500000D03*
X66300000Y-67850000D03*
X79730000Y-97180000D03*
X75880000Y-90260000D03*
X38400000Y-62160000D03*
X49000000Y-80370000D03*
X52700000Y-89300000D03*
X77740000Y-69155000D03*
X70090800Y-94135000D03*
X69000000Y-63000000D03*
X79700000Y-88930000D03*
X70570000Y-89320000D03*
X32000000Y-60000000D03*
X78430000Y-74300000D03*
X45900000Y-54300000D03*
X47100000Y-84700000D03*
X38400000Y-62960000D03*
X76000000Y-97000000D03*
D18*
%TO.N,/STM_SWDIO*%
X48790000Y-81420000D03*
X40075000Y-92010000D03*
%TO.N,/STM_SWDCLK*%
X40750000Y-93010000D03*
X51620000Y-83000000D03*
%TO.N,/BLE_RST*%
X72200000Y-61500000D03*
X71000000Y-56400000D03*
%TO.N,/BLE_SWDIO*%
X71000000Y-65900000D03*
X70000000Y-56900000D03*
%TO.N,/BLE_SWDCLK*%
X70000000Y-64700000D03*
X69000000Y-57400000D03*
%TO.N,/BLE_RX*%
X59425000Y-71750000D03*
X76600000Y-65300000D03*
%TO.N,/BLE_TX*%
X75987500Y-66387500D03*
X59492500Y-72932500D03*
%TO.N,/PA10 {slash} UART1_RX*%
X37200000Y-69700000D03*
X48704983Y-77622279D03*
%TO.N,/PA9 {slash} UART1_TX*%
X48677298Y-76722702D03*
X37190000Y-68700000D03*
%TO.N,Net-(D5-A)*%
X76900000Y-95400000D03*
X54200000Y-87500000D03*
%TO.N,/IMU_IQR*%
X49667981Y-75793495D03*
X45975000Y-68762500D03*
%TO.N,Net-(D3-A)*%
X55050000Y-85350000D03*
X76400000Y-91800000D03*
D19*
%TO.N,Net-(C7-Pad2)*%
X59010000Y-98500000D03*
D18*
X59900000Y-94770000D03*
%TO.N,Net-(U7-NRST)*%
X64000000Y-64900000D03*
X63900000Y-71000000D03*
%TO.N,Net-(D2-A)*%
X76810000Y-89770000D03*
X73720000Y-78700000D03*
D19*
%TO.N,Net-(Q1A-G1)*%
X57700000Y-97850000D03*
X57735380Y-94505380D03*
%TO.N,Net-(U5-ILIM)*%
X55225855Y-93476004D03*
D18*
X59900000Y-89800000D03*
%TO.N,/PM_SCL*%
X49832859Y-76678264D03*
D19*
%TO.N,/CHG*%
X78840000Y-95130000D03*
X54710307Y-96680000D03*
D18*
%TO.N,/V_USB*%
X35962500Y-81480944D03*
X36011303Y-77550000D03*
%TD*%
D21*
%TO.N,+3.3V*%
X44749923Y-83945481D02*
X44747702Y-83943260D01*
X44747702Y-83202273D02*
X44749923Y-83200052D01*
X44800000Y-77550000D02*
X44800000Y-83149975D01*
X44747702Y-83943260D02*
X44747702Y-83202273D01*
X44800000Y-77550000D02*
X44800000Y-76800000D01*
X44800000Y-83149975D02*
X44749923Y-83200052D01*
D22*
X46242221Y-85557779D02*
X42870000Y-88930000D01*
X46362221Y-85557779D02*
X46242221Y-85557779D01*
%TO.N,Net-(D4-A)*%
X64426250Y-88826250D02*
X64426250Y-88626250D01*
X65152500Y-87900000D02*
X70300000Y-87900000D01*
X70300000Y-87900000D02*
X76175000Y-93775000D01*
X64400000Y-88852500D02*
X64426250Y-88826250D01*
X76175000Y-93775000D02*
X76175000Y-94100000D01*
X64426250Y-88626250D02*
X65152500Y-87900000D01*
D23*
%TO.N,/LED_USR*%
X52839798Y-83105856D02*
X53561771Y-82383883D01*
X52350295Y-83591446D02*
X52835885Y-83105856D01*
X53561771Y-82383883D02*
X62650000Y-82383883D01*
X52835885Y-83105856D02*
X52839798Y-83105856D01*
D22*
%TO.N,/SPI_CS1*%
X50374000Y-74483813D02*
X50390671Y-74500484D01*
X52509587Y-64290413D02*
X50374000Y-66426000D01*
X52509587Y-62630553D02*
X52509587Y-64290413D01*
X50374000Y-66426000D02*
X50374000Y-74483813D01*
%TO.N,/SPI_MISO*%
X56025000Y-67275000D02*
X55050000Y-67275000D01*
X56750000Y-67975000D02*
X56750000Y-64950000D01*
X56725000Y-67975000D02*
X56025000Y-67275000D01*
X56750000Y-67975000D02*
X56725000Y-67975000D01*
D23*
%TO.N,/SPI_SCK*%
X57700000Y-67000000D02*
X57700000Y-69250000D01*
D22*
X57700000Y-69250000D02*
X57100000Y-68650000D01*
X57100000Y-68650000D02*
X55050000Y-68650000D01*
%TO.N,/SPI_MOSI*%
X55900000Y-61555966D02*
X55908949Y-61547017D01*
X55900000Y-62950000D02*
X55900000Y-61555966D01*
%TO.N,/UWB_RST*%
X53025000Y-71479596D02*
X54122588Y-72577184D01*
X40388711Y-66622687D02*
X40388711Y-57111289D01*
X40388711Y-57111289D02*
X40500000Y-57000000D01*
X54122588Y-72577184D02*
X54368920Y-72577184D01*
X54368920Y-72577184D02*
X54375000Y-72571104D01*
X53025000Y-66630000D02*
X53025000Y-71479596D01*
%TO.N,/PB8 {slash} I2C1_SCL*%
X72350000Y-85250000D02*
X70070066Y-82970066D01*
X56825000Y-83058883D02*
X54101117Y-83058883D01*
X46680000Y-90480000D02*
X44880000Y-90480000D01*
X54101117Y-83058883D02*
X46680000Y-90480000D01*
X70070066Y-82970066D02*
X64489934Y-82970066D01*
X64401117Y-83058883D02*
X56825000Y-83058883D01*
%TO.N,/PB9 {slash} I2C1_SDA*%
X54677396Y-83702604D02*
X47093663Y-91286337D01*
X47093663Y-91286337D02*
X44586267Y-91286337D01*
X57300000Y-83702604D02*
X54677396Y-83702604D01*
X69753883Y-83733883D02*
X72320000Y-86300000D01*
X63313037Y-83733883D02*
X63281758Y-83702604D01*
X63313037Y-83733883D02*
X69753883Y-83733883D01*
X44586267Y-91286337D02*
X44553798Y-91318806D01*
X63281758Y-83702604D02*
X57300000Y-83702604D01*
%TO.N,/PB0 {slash} ADC_IN8*%
X54374000Y-60926000D02*
X54374000Y-69919000D01*
X62410000Y-56830000D02*
X58470000Y-56830000D01*
X58470000Y-56830000D02*
X54374000Y-60926000D01*
X54374000Y-69919000D02*
X55225000Y-70770000D01*
%TO.N,/PA0{slash}BTN_USR*%
X60300000Y-67000000D02*
X60300000Y-64500000D01*
X60300000Y-64500000D02*
X64450000Y-60350000D01*
%TO.N,/PB1 {slash} ADC_IN9*%
X58040000Y-56110000D02*
X53700000Y-60450000D01*
X53700000Y-70516928D02*
X54612500Y-71429428D01*
X61400000Y-56110000D02*
X58040000Y-56110000D01*
X53700000Y-60450000D02*
X53700000Y-70516928D01*
%TO.N,/SPI_CS2*%
X49491048Y-74691048D02*
X49491048Y-74576731D01*
X49505000Y-74585405D02*
X49505000Y-74685000D01*
X49505000Y-74685000D02*
X49505000Y-74590683D01*
X50800000Y-75950000D02*
X50800000Y-76000000D01*
X49491048Y-74576731D02*
X49491048Y-74641048D01*
X49491048Y-74641048D02*
X50800000Y-75950000D01*
X49491048Y-70861454D02*
X49491048Y-74571453D01*
X49505000Y-74590683D02*
X49491048Y-74576731D01*
X49491048Y-74571453D02*
X49505000Y-74585405D01*
X49425000Y-70795406D02*
X49491048Y-70861454D01*
%TO.N,/STM_SWDIO*%
X48430000Y-81420000D02*
X40500000Y-89350000D01*
X40500000Y-89350000D02*
X40075000Y-89775000D01*
X40075000Y-89775000D02*
X40075000Y-92010000D01*
X48790000Y-81420000D02*
X48430000Y-81420000D01*
%TO.N,/STM_SWDCLK*%
X47800000Y-83000000D02*
X45503298Y-85296702D01*
X40750000Y-90043991D02*
X40750000Y-93010000D01*
X51620000Y-83000000D02*
X47800000Y-83000000D01*
X45497289Y-85296702D02*
X40750000Y-90043991D01*
X45503298Y-85296702D02*
X45497289Y-85296702D01*
%TO.N,/BLE_RST*%
X72200000Y-57600000D02*
X71000000Y-56400000D01*
X72200000Y-61500000D02*
X72200000Y-57600000D01*
%TO.N,/BLE_SWDIO*%
X71000000Y-65900000D02*
X71000000Y-57900000D01*
X71000000Y-57900000D02*
X70000000Y-56900000D01*
%TO.N,/BLE_SWDCLK*%
X70000000Y-64700000D02*
X70000000Y-58400000D01*
X70000000Y-58400000D02*
X69000000Y-57400000D01*
%TO.N,/BLE_RX*%
X75975000Y-65300000D02*
X72312500Y-68962500D01*
X76600000Y-65300000D02*
X75975000Y-65300000D01*
X69525000Y-71750000D02*
X72312500Y-68962500D01*
X72350000Y-68925000D02*
X72312500Y-68962500D01*
X59425000Y-71750000D02*
X69525000Y-71750000D01*
%TO.N,/BLE_TX*%
X69875000Y-72500000D02*
X72787500Y-69587500D01*
X75987500Y-66387500D02*
X72787500Y-69587500D01*
X59492500Y-72932500D02*
X59925000Y-72500000D01*
X59925000Y-72500000D02*
X69875000Y-72500000D01*
%TO.N,/PA10 {slash} UART1_RX*%
X40380000Y-69700000D02*
X48302279Y-77622279D01*
X37200000Y-69700000D02*
X40380000Y-69700000D01*
X48302279Y-77622279D02*
X48704983Y-77622279D01*
%TO.N,/PA9 {slash} UART1_TX*%
X48757277Y-76507277D02*
X48757277Y-76642723D01*
X37190000Y-68700000D02*
X40654596Y-68700000D01*
X40654596Y-68700000D02*
X48677298Y-76722702D01*
X48757277Y-76642723D02*
X48677298Y-76722702D01*
%TO.N,Net-(D5-A)*%
X76851000Y-93351000D02*
X70639843Y-87139843D01*
X70639843Y-87139843D02*
X54560157Y-87139843D01*
X76851000Y-95249000D02*
X76851000Y-93351000D01*
X54560157Y-87139843D02*
X54200000Y-87500000D01*
X76900000Y-95298000D02*
X76851000Y-95249000D01*
X76900000Y-95400000D02*
X76900000Y-95298000D01*
%TO.N,/IMU_IQR*%
X48750000Y-74884596D02*
X48750000Y-70375000D01*
X47137500Y-68762500D02*
X45975000Y-68762500D01*
X49667981Y-75793495D02*
X49658899Y-75793495D01*
X48750000Y-70375000D02*
X47137500Y-68762500D01*
X49658899Y-75793495D02*
X48750000Y-74884596D01*
%TO.N,Net-(D3-A)*%
X70939860Y-86339860D02*
X76400000Y-91800000D01*
X55050000Y-85350000D02*
X56039860Y-86339860D01*
X56039860Y-86339860D02*
X70939860Y-86339860D01*
D24*
%TO.N,Net-(C7-Pad2)*%
X59010000Y-95660000D02*
X59900000Y-94770000D01*
X59010000Y-98500000D02*
X59010000Y-95660000D01*
D22*
%TO.N,Net-(U7-NRST)*%
X64000000Y-65000000D02*
X64000000Y-64900000D01*
X63900000Y-71000000D02*
X63900000Y-65100000D01*
X63900000Y-65100000D02*
X64000000Y-65000000D01*
%TO.N,Net-(D2-A)*%
X73720000Y-87110000D02*
X73720000Y-78700000D01*
X76380000Y-89770000D02*
X73720000Y-87110000D01*
X76810000Y-89770000D02*
X76380000Y-89770000D01*
D24*
%TO.N,Net-(Q1A-G1)*%
X57740000Y-94510000D02*
X57740000Y-97590000D01*
X57740000Y-97590000D02*
X57700000Y-97630000D01*
X57700000Y-97630000D02*
X57700000Y-97850000D01*
X57735380Y-94505380D02*
X57740000Y-94510000D01*
D22*
%TO.N,Net-(U5-ILIM)*%
X59900000Y-89800000D02*
X56223996Y-93476004D01*
X55279851Y-93422008D02*
X55279851Y-93530000D01*
X56223996Y-93476004D02*
X55333847Y-93476004D01*
X55279851Y-93530000D02*
X55225855Y-93476004D01*
X55333847Y-93476004D02*
X55279851Y-93422008D01*
%TO.N,/CHG*%
X74770000Y-99200000D02*
X78840000Y-95130000D01*
X58555785Y-99200000D02*
X68962768Y-99200000D01*
X57230307Y-99200000D02*
X54710307Y-96680000D01*
X58555785Y-99200000D02*
X57230307Y-99200000D01*
X68962768Y-99200000D02*
X74770000Y-99200000D01*
D23*
X54710307Y-96680000D02*
X54710307Y-96830307D01*
D25*
%TO.N,/V_USB*%
X36011303Y-77550000D02*
X36011303Y-81432141D01*
%TD*%
%TA.AperFunction,Conductor*%
%TO.N,GND*%
G36*
X39613039Y-50620185D02*
G01*
X39658794Y-50672989D01*
X39670000Y-50724500D01*
X39670000Y-53900012D01*
X39670000Y-53900013D01*
X49830000Y-53899982D01*
X49830000Y-52493713D01*
X77149500Y-52493713D01*
X77149500Y-52706286D01*
X77182753Y-52916239D01*
X77248444Y-53118414D01*
X77344951Y-53307820D01*
X77469890Y-53479786D01*
X77620213Y-53630109D01*
X77792179Y-53755048D01*
X77792181Y-53755049D01*
X77792184Y-53755051D01*
X77981588Y-53851557D01*
X78183757Y-53917246D01*
X78393713Y-53950500D01*
X78393714Y-53950500D01*
X78606286Y-53950500D01*
X78606287Y-53950500D01*
X78816243Y-53917246D01*
X79018412Y-53851557D01*
X79207816Y-53755051D01*
X79229789Y-53739086D01*
X79379786Y-53630109D01*
X79379788Y-53630106D01*
X79379792Y-53630104D01*
X79530104Y-53479792D01*
X79530106Y-53479788D01*
X79530109Y-53479786D01*
X79655048Y-53307820D01*
X79655047Y-53307820D01*
X79655051Y-53307816D01*
X79751557Y-53118412D01*
X79817246Y-52916243D01*
X79850500Y-52706287D01*
X79850500Y-52493713D01*
X79817246Y-52283757D01*
X79751557Y-52081588D01*
X79655051Y-51892184D01*
X79655049Y-51892181D01*
X79655048Y-51892179D01*
X79530109Y-51720213D01*
X79379786Y-51569890D01*
X79207820Y-51444951D01*
X79018414Y-51348444D01*
X79018413Y-51348443D01*
X79018412Y-51348443D01*
X78816243Y-51282754D01*
X78816241Y-51282753D01*
X78816240Y-51282753D01*
X78654957Y-51257208D01*
X78606287Y-51249500D01*
X78393713Y-51249500D01*
X78345042Y-51257208D01*
X78183760Y-51282753D01*
X77981585Y-51348444D01*
X77792179Y-51444951D01*
X77620213Y-51569890D01*
X77469890Y-51720213D01*
X77344951Y-51892179D01*
X77248444Y-52081585D01*
X77182753Y-52283760D01*
X77149500Y-52493713D01*
X49830000Y-52493713D01*
X49830000Y-50724500D01*
X49849685Y-50657461D01*
X49902489Y-50611706D01*
X49954000Y-50600500D01*
X78734108Y-50600500D01*
X78795572Y-50600500D01*
X78804418Y-50600816D01*
X79033020Y-50617165D01*
X79050529Y-50619683D01*
X79270144Y-50667458D01*
X79287103Y-50672437D01*
X79497694Y-50750983D01*
X79513777Y-50758327D01*
X79711036Y-50866040D01*
X79725919Y-50875605D01*
X79905836Y-51010289D01*
X79919207Y-51021875D01*
X80078124Y-51180792D01*
X80089710Y-51194163D01*
X80224394Y-51374080D01*
X80233959Y-51388963D01*
X80341669Y-51586217D01*
X80349019Y-51602311D01*
X80427559Y-51812887D01*
X80432543Y-51829862D01*
X80480316Y-52049470D01*
X80482834Y-52066982D01*
X80499184Y-52295581D01*
X80499500Y-52304427D01*
X80499500Y-57616000D01*
X80479815Y-57683039D01*
X80427011Y-57728794D01*
X80375500Y-57740000D01*
X78070000Y-57740000D01*
X78070000Y-69490000D01*
X78070000Y-72090000D01*
X80375500Y-72090000D01*
X80442539Y-72109685D01*
X80488294Y-72162489D01*
X80499500Y-72214000D01*
X80499500Y-99895572D01*
X80499184Y-99904418D01*
X80482834Y-100133017D01*
X80480316Y-100150529D01*
X80432543Y-100370137D01*
X80427559Y-100387112D01*
X80349019Y-100597688D01*
X80341669Y-100613782D01*
X80233959Y-100811036D01*
X80224394Y-100825919D01*
X80089710Y-101005836D01*
X80078124Y-101019207D01*
X79919207Y-101178124D01*
X79905836Y-101189710D01*
X79725919Y-101324394D01*
X79711036Y-101333959D01*
X79513782Y-101441669D01*
X79497688Y-101449019D01*
X79287112Y-101527559D01*
X79270137Y-101532543D01*
X79050529Y-101580316D01*
X79033017Y-101582834D01*
X78804418Y-101599184D01*
X78795572Y-101599500D01*
X33204428Y-101599500D01*
X33195582Y-101599184D01*
X32966982Y-101582834D01*
X32949470Y-101580316D01*
X32729862Y-101532543D01*
X32712887Y-101527559D01*
X32502311Y-101449019D01*
X32486217Y-101441669D01*
X32288963Y-101333959D01*
X32274080Y-101324394D01*
X32094163Y-101189710D01*
X32080792Y-101178124D01*
X31921875Y-101019207D01*
X31910289Y-101005836D01*
X31775605Y-100825919D01*
X31766040Y-100811036D01*
X31692904Y-100677099D01*
X31658327Y-100613777D01*
X31650983Y-100597694D01*
X31572437Y-100387103D01*
X31567458Y-100370144D01*
X31519683Y-100150529D01*
X31517165Y-100133017D01*
X31517127Y-100132489D01*
X31500816Y-99904418D01*
X31500500Y-99895572D01*
X31500500Y-99493713D01*
X32149500Y-99493713D01*
X32149500Y-99706287D01*
X32157937Y-99759556D01*
X32179496Y-99895677D01*
X32182754Y-99916243D01*
X32220043Y-100031007D01*
X32248444Y-100118414D01*
X32344951Y-100307820D01*
X32469890Y-100479786D01*
X32620213Y-100630109D01*
X32792179Y-100755048D01*
X32792181Y-100755049D01*
X32792184Y-100755051D01*
X32981588Y-100851557D01*
X33183757Y-100917246D01*
X33393713Y-100950500D01*
X33393714Y-100950500D01*
X33606286Y-100950500D01*
X33606287Y-100950500D01*
X33816243Y-100917246D01*
X34018412Y-100851557D01*
X34207816Y-100755051D01*
X34311117Y-100679999D01*
X34379786Y-100630109D01*
X34379788Y-100630106D01*
X34379792Y-100630104D01*
X34530104Y-100479792D01*
X34530106Y-100479788D01*
X34530109Y-100479786D01*
X34655048Y-100307820D01*
X34655047Y-100307820D01*
X34655051Y-100307816D01*
X34751557Y-100118412D01*
X34758953Y-100095649D01*
X37580000Y-100095649D01*
X37582899Y-100132489D01*
X37582900Y-100132495D01*
X37628716Y-100290193D01*
X37628717Y-100290196D01*
X37712314Y-100431552D01*
X37712321Y-100431561D01*
X37828438Y-100547678D01*
X37828447Y-100547685D01*
X37969803Y-100631282D01*
X37969806Y-100631283D01*
X38127504Y-100677099D01*
X38127510Y-100677100D01*
X38164350Y-100679999D01*
X38164366Y-100680000D01*
X38480000Y-100680000D01*
X39080000Y-100680000D01*
X39395634Y-100680000D01*
X39395649Y-100679999D01*
X39432489Y-100677100D01*
X39432495Y-100677099D01*
X39590193Y-100631283D01*
X39590196Y-100631282D01*
X39731552Y-100547685D01*
X39731561Y-100547678D01*
X39847678Y-100431561D01*
X39847685Y-100431552D01*
X39931282Y-100290196D01*
X39931283Y-100290193D01*
X39966495Y-100168995D01*
X53174499Y-100168995D01*
X53201418Y-100304322D01*
X53201421Y-100304332D01*
X53254221Y-100431804D01*
X53254228Y-100431817D01*
X53330885Y-100546541D01*
X53330888Y-100546545D01*
X53428454Y-100644111D01*
X53428458Y-100644114D01*
X53543182Y-100720771D01*
X53543195Y-100720778D01*
X53670667Y-100773578D01*
X53670672Y-100773580D01*
X53670676Y-100773580D01*
X53670677Y-100773581D01*
X53806004Y-100800500D01*
X53806007Y-100800500D01*
X53943995Y-100800500D01*
X54035041Y-100782389D01*
X54079328Y-100773580D01*
X54206811Y-100720775D01*
X54321542Y-100644114D01*
X54419114Y-100546542D01*
X54495775Y-100431811D01*
X54548580Y-100304328D01*
X54575500Y-100168993D01*
X54575500Y-100031007D01*
X54575500Y-100031004D01*
X54548581Y-99895677D01*
X54548580Y-99895676D01*
X54548580Y-99895672D01*
X54548539Y-99895572D01*
X54495778Y-99768195D01*
X54495771Y-99768182D01*
X54419114Y-99653458D01*
X54419111Y-99653454D01*
X54321545Y-99555888D01*
X54321540Y-99555884D01*
X54206817Y-99479228D01*
X54206804Y-99479221D01*
X54079332Y-99426421D01*
X54079322Y-99426418D01*
X53943995Y-99399500D01*
X53943993Y-99399500D01*
X53806007Y-99399500D01*
X53806005Y-99399500D01*
X53670677Y-99426418D01*
X53670667Y-99426421D01*
X53543195Y-99479221D01*
X53543182Y-99479228D01*
X53428460Y-99555884D01*
X53428454Y-99555888D01*
X53330888Y-99653454D01*
X53330885Y-99653458D01*
X53254228Y-99768182D01*
X53254221Y-99768195D01*
X53201421Y-99895667D01*
X53201418Y-99895677D01*
X53174500Y-100031004D01*
X53174500Y-100031007D01*
X53174500Y-100168993D01*
X53174500Y-100168995D01*
X53174499Y-100168995D01*
X39966495Y-100168995D01*
X39977099Y-100132495D01*
X39977100Y-100132489D01*
X39979999Y-100095649D01*
X39980000Y-100095634D01*
X39980000Y-99780000D01*
X39080000Y-99780000D01*
X39080000Y-100680000D01*
X38480000Y-100680000D01*
X38480000Y-99780000D01*
X37580000Y-99780000D01*
X37580000Y-100095649D01*
X34758953Y-100095649D01*
X34817246Y-99916243D01*
X34850500Y-99706287D01*
X34850500Y-99493713D01*
X34842072Y-99440504D01*
X38480000Y-99440504D01*
X38480000Y-99519496D01*
X38500444Y-99595796D01*
X38539940Y-99664205D01*
X38595795Y-99720060D01*
X38664204Y-99759556D01*
X38740504Y-99780000D01*
X38819496Y-99780000D01*
X38895796Y-99759556D01*
X38964205Y-99720060D01*
X39020060Y-99664205D01*
X39059556Y-99595796D01*
X39080000Y-99519496D01*
X39080000Y-99440504D01*
X39059556Y-99364204D01*
X39020060Y-99295795D01*
X38964205Y-99239940D01*
X38895796Y-99200444D01*
X38819496Y-99180000D01*
X39080000Y-99180000D01*
X39980000Y-99180000D01*
X39980000Y-98864365D01*
X39979999Y-98864350D01*
X39977100Y-98827510D01*
X39977099Y-98827504D01*
X39931283Y-98669806D01*
X39931282Y-98669803D01*
X39847685Y-98528447D01*
X39847678Y-98528438D01*
X39731561Y-98412321D01*
X39731552Y-98412314D01*
X39590196Y-98328717D01*
X39590193Y-98328716D01*
X39432495Y-98282900D01*
X39432489Y-98282899D01*
X39395649Y-98280000D01*
X39080000Y-98280000D01*
X39080000Y-99180000D01*
X38819496Y-99180000D01*
X38740504Y-99180000D01*
X38664204Y-99200444D01*
X38595795Y-99239940D01*
X38539940Y-99295795D01*
X38500444Y-99364204D01*
X38480000Y-99440504D01*
X34842072Y-99440504D01*
X34817246Y-99283757D01*
X34751557Y-99081588D01*
X34655051Y-98892184D01*
X34647023Y-98881134D01*
X34634829Y-98864350D01*
X37580000Y-98864350D01*
X37580000Y-99180000D01*
X38480000Y-99180000D01*
X38480000Y-98280000D01*
X38164350Y-98280000D01*
X38127510Y-98282899D01*
X38127504Y-98282900D01*
X37969806Y-98328716D01*
X37969803Y-98328717D01*
X37828447Y-98412314D01*
X37828438Y-98412321D01*
X37712321Y-98528438D01*
X37712314Y-98528447D01*
X37628717Y-98669803D01*
X37628716Y-98669806D01*
X37582900Y-98827504D01*
X37582899Y-98827510D01*
X37580000Y-98864350D01*
X34634829Y-98864350D01*
X34530109Y-98720213D01*
X34379786Y-98569890D01*
X34207820Y-98444951D01*
X34018414Y-98348444D01*
X34018413Y-98348443D01*
X34018412Y-98348443D01*
X33816243Y-98282754D01*
X33816241Y-98282753D01*
X33816240Y-98282753D01*
X33654957Y-98257208D01*
X33606287Y-98249500D01*
X33393713Y-98249500D01*
X33345042Y-98257208D01*
X33183760Y-98282753D01*
X32981585Y-98348444D01*
X32792179Y-98444951D01*
X32620213Y-98569890D01*
X32469890Y-98720213D01*
X32344951Y-98892179D01*
X32248444Y-99081585D01*
X32182753Y-99283760D01*
X32151795Y-99479221D01*
X32149500Y-99493713D01*
X31500500Y-99493713D01*
X31500500Y-96376530D01*
X37729500Y-96376530D01*
X37729500Y-96583469D01*
X37769868Y-96786412D01*
X37769870Y-96786420D01*
X37849058Y-96977596D01*
X37964024Y-97149657D01*
X38110342Y-97295975D01*
X38110345Y-97295977D01*
X38282402Y-97410941D01*
X38473580Y-97490130D01*
X38676530Y-97530499D01*
X38676534Y-97530500D01*
X38676535Y-97530500D01*
X38883466Y-97530500D01*
X38883467Y-97530499D01*
X39086420Y-97490130D01*
X39277598Y-97410941D01*
X39449655Y-97295977D01*
X39595977Y-97149655D01*
X39710941Y-96977598D01*
X39790130Y-96786420D01*
X39830500Y-96583465D01*
X39830500Y-96376535D01*
X39790130Y-96173580D01*
X39710941Y-95982402D01*
X39595977Y-95810345D01*
X39595975Y-95810342D01*
X39449657Y-95664024D01*
X39309696Y-95570506D01*
X39277598Y-95549059D01*
X39172225Y-95505412D01*
X39086420Y-95469870D01*
X39086412Y-95469868D01*
X38883469Y-95429500D01*
X38883465Y-95429500D01*
X38676535Y-95429500D01*
X38676530Y-95429500D01*
X38473587Y-95469868D01*
X38473579Y-95469870D01*
X38282403Y-95549058D01*
X38110342Y-95664024D01*
X37964024Y-95810342D01*
X37849058Y-95982403D01*
X37769870Y-96173579D01*
X37769868Y-96173587D01*
X37729500Y-96376530D01*
X31500500Y-96376530D01*
X31500500Y-92700000D01*
X33816872Y-92700000D01*
X33888811Y-92873678D01*
X33888812Y-92873681D01*
X33998248Y-93037462D01*
X33998251Y-93037466D01*
X34137533Y-93176748D01*
X34137537Y-93176751D01*
X34301315Y-93286185D01*
X34301328Y-93286192D01*
X34483306Y-93361569D01*
X34483318Y-93361572D01*
X34676504Y-93399999D01*
X34676508Y-93400000D01*
X34750000Y-93400000D01*
X35350000Y-93400000D01*
X35423492Y-93400000D01*
X35423495Y-93399999D01*
X35616681Y-93361572D01*
X35616693Y-93361569D01*
X35798671Y-93286192D01*
X35798684Y-93286185D01*
X35962462Y-93176751D01*
X35962466Y-93176748D01*
X36101748Y-93037466D01*
X36101751Y-93037462D01*
X36211187Y-92873681D01*
X36211188Y-92873678D01*
X36283128Y-92700000D01*
X35350000Y-92700000D01*
X35350000Y-93400000D01*
X34750000Y-93400000D01*
X34750000Y-92700000D01*
X33816872Y-92700000D01*
X31500500Y-92700000D01*
X31500500Y-92099999D01*
X33816871Y-92099999D01*
X33816872Y-92100000D01*
X34819670Y-92100000D01*
X34749925Y-92169745D01*
X34700556Y-92255255D01*
X34675000Y-92350630D01*
X34675000Y-92449370D01*
X34700556Y-92544745D01*
X34749925Y-92630255D01*
X34819745Y-92700075D01*
X34905255Y-92749444D01*
X35000630Y-92775000D01*
X35099370Y-92775000D01*
X35194745Y-92749444D01*
X35280255Y-92700075D01*
X35350075Y-92630255D01*
X35399444Y-92544745D01*
X35425000Y-92449370D01*
X35425000Y-92350630D01*
X35399444Y-92255255D01*
X35350075Y-92169745D01*
X35280330Y-92100000D01*
X36283128Y-92100000D01*
X36283128Y-92099999D01*
X36229392Y-91970268D01*
X36213103Y-91930943D01*
X39474500Y-91930943D01*
X39474500Y-92089057D01*
X39496121Y-92169745D01*
X39515423Y-92241783D01*
X39515426Y-92241790D01*
X39594475Y-92378709D01*
X39594479Y-92378714D01*
X39594480Y-92378716D01*
X39706284Y-92490520D01*
X39706286Y-92490521D01*
X39706290Y-92490524D01*
X39800205Y-92544745D01*
X39843216Y-92569577D01*
X39995943Y-92610500D01*
X39995945Y-92610500D01*
X40074314Y-92610500D01*
X40141353Y-92630185D01*
X40187108Y-92682989D01*
X40197052Y-92752147D01*
X40192087Y-92770247D01*
X40192527Y-92770365D01*
X40190423Y-92778214D01*
X40190423Y-92778216D01*
X40149500Y-92930943D01*
X40149500Y-93089057D01*
X40180852Y-93206062D01*
X40190423Y-93241783D01*
X40190426Y-93241790D01*
X40269475Y-93378709D01*
X40269479Y-93378714D01*
X40269480Y-93378716D01*
X40381284Y-93490520D01*
X40381286Y-93490521D01*
X40381290Y-93490524D01*
X40481673Y-93548479D01*
X40518216Y-93569577D01*
X40670943Y-93610500D01*
X40670945Y-93610500D01*
X40829055Y-93610500D01*
X40829057Y-93610500D01*
X40981784Y-93569577D01*
X41118716Y-93490520D01*
X41205707Y-93403529D01*
X54675355Y-93403529D01*
X54675355Y-93548479D01*
X54691974Y-93610500D01*
X54712872Y-93688492D01*
X54785343Y-93814015D01*
X54785345Y-93814017D01*
X54785346Y-93814019D01*
X54887840Y-93916513D01*
X54887841Y-93916514D01*
X54887843Y-93916515D01*
X55013366Y-93988986D01*
X55013367Y-93988986D01*
X55013370Y-93988988D01*
X55153380Y-94026504D01*
X55153383Y-94026504D01*
X55298327Y-94026504D01*
X55298330Y-94026504D01*
X55438340Y-93988988D01*
X55563870Y-93916513D01*
X55592560Y-93887823D01*
X55653883Y-93854338D01*
X55680241Y-93851504D01*
X56273430Y-93851504D01*
X56273432Y-93851504D01*
X56351912Y-93830475D01*
X56368934Y-93825914D01*
X56454558Y-93776479D01*
X56524471Y-93706566D01*
X56524470Y-93706566D01*
X56583039Y-93647997D01*
X56583038Y-93647997D01*
X59794219Y-90436819D01*
X59855542Y-90403334D01*
X59881900Y-90400500D01*
X59979055Y-90400500D01*
X59979057Y-90400500D01*
X60131784Y-90359577D01*
X60268716Y-90280520D01*
X60380520Y-90168716D01*
X60459577Y-90031784D01*
X60500500Y-89879057D01*
X60500500Y-89720943D01*
X60459577Y-89568216D01*
X60448772Y-89549501D01*
X60380524Y-89431290D01*
X60380518Y-89431282D01*
X60268717Y-89319481D01*
X60268709Y-89319475D01*
X60131790Y-89240426D01*
X60131786Y-89240424D01*
X60131784Y-89240423D01*
X59979057Y-89199500D01*
X59820943Y-89199500D01*
X59668216Y-89240423D01*
X59668209Y-89240426D01*
X59531290Y-89319475D01*
X59531282Y-89319481D01*
X59419481Y-89431282D01*
X59419475Y-89431290D01*
X59340426Y-89568209D01*
X59340423Y-89568216D01*
X59299500Y-89720943D01*
X59299500Y-89818100D01*
X59279815Y-89885139D01*
X59263181Y-89905781D01*
X56104778Y-93064185D01*
X56043455Y-93097670D01*
X56017097Y-93100504D01*
X55680241Y-93100504D01*
X55613202Y-93080819D01*
X55592560Y-93064185D01*
X55563872Y-93035497D01*
X55563866Y-93035492D01*
X55438343Y-92963021D01*
X55438344Y-92963021D01*
X55426861Y-92959944D01*
X55298330Y-92925504D01*
X55153380Y-92925504D01*
X55024848Y-92959944D01*
X55013366Y-92963021D01*
X54887843Y-93035492D01*
X54887837Y-93035497D01*
X54785348Y-93137986D01*
X54785343Y-93137992D01*
X54712872Y-93263515D01*
X54712871Y-93263519D01*
X54675355Y-93403529D01*
X41205707Y-93403529D01*
X41230520Y-93378716D01*
X41309577Y-93241784D01*
X41350500Y-93089057D01*
X41350500Y-92930943D01*
X41309577Y-92778216D01*
X41264463Y-92700075D01*
X41230524Y-92641290D01*
X41230518Y-92641282D01*
X41161819Y-92572583D01*
X41128334Y-92511260D01*
X41125500Y-92484902D01*
X41125500Y-90250889D01*
X41145185Y-90183850D01*
X41161814Y-90163212D01*
X42142284Y-89182742D01*
X42203605Y-89149259D01*
X42273296Y-89154243D01*
X42329230Y-89196115D01*
X42337350Y-89208425D01*
X42389477Y-89298712D01*
X42389479Y-89298715D01*
X42389480Y-89298716D01*
X42501284Y-89410520D01*
X42501286Y-89410521D01*
X42501290Y-89410524D01*
X42574860Y-89452999D01*
X42638216Y-89489577D01*
X42790943Y-89530500D01*
X42790945Y-89530500D01*
X42949055Y-89530500D01*
X42949057Y-89530500D01*
X43101784Y-89489577D01*
X43238716Y-89410520D01*
X43350520Y-89298716D01*
X43429577Y-89161784D01*
X43470500Y-89009057D01*
X43470500Y-88911899D01*
X43490185Y-88844860D01*
X43506819Y-88824218D01*
X44815694Y-87515343D01*
X46145468Y-86185568D01*
X46206789Y-86152085D01*
X46265239Y-86153475D01*
X46283164Y-86158279D01*
X46283166Y-86158279D01*
X46441276Y-86158279D01*
X46441278Y-86158279D01*
X46594005Y-86117356D01*
X46730937Y-86038299D01*
X46842741Y-85926495D01*
X46921798Y-85789563D01*
X46962721Y-85636836D01*
X46962721Y-85478722D01*
X46921798Y-85325995D01*
X46890014Y-85270943D01*
X46842745Y-85189069D01*
X46842739Y-85189061D01*
X46730938Y-85077260D01*
X46730930Y-85077254D01*
X46594011Y-84998205D01*
X46594008Y-84998203D01*
X46594005Y-84998202D01*
X46594001Y-84998201D01*
X46586498Y-84995093D01*
X46587149Y-84993519D01*
X46535820Y-84962232D01*
X46505292Y-84899384D01*
X46513587Y-84830009D01*
X46539891Y-84791145D01*
X47919218Y-83411819D01*
X47980541Y-83378334D01*
X48006899Y-83375500D01*
X51094902Y-83375500D01*
X51161941Y-83395185D01*
X51182583Y-83411819D01*
X51251284Y-83480520D01*
X51251286Y-83480521D01*
X51251290Y-83480524D01*
X51355076Y-83540444D01*
X51388216Y-83559577D01*
X51540943Y-83600500D01*
X51540945Y-83600500D01*
X51635890Y-83600500D01*
X51702929Y-83620185D01*
X51748684Y-83672989D01*
X51755661Y-83692397D01*
X51790067Y-83820800D01*
X51790718Y-83823229D01*
X51790721Y-83823236D01*
X51869770Y-83960155D01*
X51869774Y-83960160D01*
X51869775Y-83960162D01*
X51981579Y-84071966D01*
X51981581Y-84071967D01*
X51981585Y-84071970D01*
X52051296Y-84112217D01*
X52118511Y-84151023D01*
X52194528Y-84171391D01*
X52254188Y-84207756D01*
X52284717Y-84270603D01*
X52276422Y-84339979D01*
X52250115Y-84378847D01*
X46560782Y-90068181D01*
X46499459Y-90101666D01*
X46473101Y-90104500D01*
X45405098Y-90104500D01*
X45338059Y-90084815D01*
X45317417Y-90068181D01*
X45248717Y-89999481D01*
X45248709Y-89999475D01*
X45111790Y-89920426D01*
X45111786Y-89920424D01*
X45111784Y-89920423D01*
X44959057Y-89879500D01*
X44800943Y-89879500D01*
X44648216Y-89920423D01*
X44648209Y-89920426D01*
X44511290Y-89999475D01*
X44511282Y-89999481D01*
X44399481Y-90111282D01*
X44399475Y-90111290D01*
X44320426Y-90248209D01*
X44320423Y-90248216D01*
X44279500Y-90400943D01*
X44279500Y-90559056D01*
X44307019Y-90661761D01*
X44305356Y-90731611D01*
X44266193Y-90789473D01*
X44249245Y-90801241D01*
X44185082Y-90838285D01*
X44073279Y-90950088D01*
X44073273Y-90950096D01*
X43994224Y-91087015D01*
X43994221Y-91087022D01*
X43953298Y-91239749D01*
X43953298Y-91397863D01*
X43990383Y-91536264D01*
X43994221Y-91550589D01*
X43994224Y-91550596D01*
X44073273Y-91687515D01*
X44073277Y-91687520D01*
X44073278Y-91687522D01*
X44185082Y-91799326D01*
X44185084Y-91799327D01*
X44185088Y-91799330D01*
X44322007Y-91878379D01*
X44322014Y-91878383D01*
X44474741Y-91919306D01*
X44474743Y-91919306D01*
X44632853Y-91919306D01*
X44632855Y-91919306D01*
X44785582Y-91878383D01*
X44922514Y-91799326D01*
X45023684Y-91698156D01*
X45085007Y-91664671D01*
X45111365Y-91661837D01*
X47143098Y-91661837D01*
X47143099Y-91661837D01*
X47191440Y-91648883D01*
X47204394Y-91645413D01*
X47219810Y-91641282D01*
X47238601Y-91636247D01*
X47324225Y-91586812D01*
X47394138Y-91516899D01*
X54796614Y-84114423D01*
X54857937Y-84080938D01*
X54884295Y-84078104D01*
X56845614Y-84078104D01*
X56912653Y-84097789D01*
X56933295Y-84114423D01*
X56961985Y-84143113D01*
X56961986Y-84143114D01*
X56961988Y-84143115D01*
X57087511Y-84215586D01*
X57087512Y-84215586D01*
X57087515Y-84215588D01*
X57227525Y-84253104D01*
X57227528Y-84253104D01*
X57372472Y-84253104D01*
X57372475Y-84253104D01*
X57512485Y-84215588D01*
X57638015Y-84143113D01*
X57666705Y-84114423D01*
X57728028Y-84080938D01*
X57754386Y-84078104D01*
X62756660Y-84078104D01*
X62823699Y-84097789D01*
X62844341Y-84114423D01*
X62944321Y-84214403D01*
X62944323Y-84214404D01*
X62944327Y-84214407D01*
X63041663Y-84270603D01*
X63081253Y-84293460D01*
X63233980Y-84334383D01*
X63233982Y-84334383D01*
X63392092Y-84334383D01*
X63392094Y-84334383D01*
X63544821Y-84293460D01*
X63681753Y-84214403D01*
X63750454Y-84145702D01*
X63811777Y-84112217D01*
X63838135Y-84109383D01*
X69546984Y-84109383D01*
X69614023Y-84129068D01*
X69634665Y-84145702D01*
X71683181Y-86194218D01*
X71697884Y-86221145D01*
X71714477Y-86246964D01*
X71715368Y-86253164D01*
X71716666Y-86255541D01*
X71719500Y-86281899D01*
X71719500Y-86289101D01*
X71699815Y-86356140D01*
X71647011Y-86401895D01*
X71577853Y-86411839D01*
X71514297Y-86382814D01*
X71507819Y-86376782D01*
X71170423Y-86039386D01*
X71170422Y-86039385D01*
X71084798Y-85989950D01*
X71037046Y-85977155D01*
X71037044Y-85977154D01*
X71037042Y-85977153D01*
X70989296Y-85964360D01*
X70989295Y-85964360D01*
X56246759Y-85964360D01*
X56179720Y-85944675D01*
X56159078Y-85928041D01*
X55686819Y-85455782D01*
X55653334Y-85394459D01*
X55650500Y-85368101D01*
X55650500Y-85270945D01*
X55650500Y-85270943D01*
X55609577Y-85118216D01*
X55551843Y-85018216D01*
X55530524Y-84981290D01*
X55530518Y-84981282D01*
X55418717Y-84869481D01*
X55418709Y-84869475D01*
X55281790Y-84790426D01*
X55281786Y-84790424D01*
X55281784Y-84790423D01*
X55129057Y-84749500D01*
X54970943Y-84749500D01*
X54818216Y-84790423D01*
X54818209Y-84790426D01*
X54681290Y-84869475D01*
X54681282Y-84869481D01*
X54569481Y-84981282D01*
X54569475Y-84981290D01*
X54490426Y-85118209D01*
X54490423Y-85118216D01*
X54449500Y-85270943D01*
X54449500Y-85429056D01*
X54490423Y-85581783D01*
X54490426Y-85581790D01*
X54569475Y-85718709D01*
X54569479Y-85718714D01*
X54569480Y-85718716D01*
X54681284Y-85830520D01*
X54681286Y-85830521D01*
X54681290Y-85830524D01*
X54762970Y-85877681D01*
X54818216Y-85909577D01*
X54970943Y-85950500D01*
X55068101Y-85950500D01*
X55135140Y-85970185D01*
X55155782Y-85986819D01*
X55721625Y-86552662D01*
X55755110Y-86613985D01*
X55750126Y-86683677D01*
X55708254Y-86739610D01*
X55642790Y-86764027D01*
X55633944Y-86764343D01*
X54510721Y-86764343D01*
X54462969Y-86777138D01*
X54462968Y-86777137D01*
X54415220Y-86789932D01*
X54415219Y-86789932D01*
X54329592Y-86839370D01*
X54305782Y-86863181D01*
X54244459Y-86896666D01*
X54218101Y-86899500D01*
X54120943Y-86899500D01*
X53968216Y-86940423D01*
X53968209Y-86940426D01*
X53831290Y-87019475D01*
X53831282Y-87019481D01*
X53719481Y-87131282D01*
X53719475Y-87131290D01*
X53640426Y-87268209D01*
X53640423Y-87268216D01*
X53599500Y-87420943D01*
X53599500Y-87579057D01*
X53607055Y-87607250D01*
X53640423Y-87731783D01*
X53640426Y-87731790D01*
X53719475Y-87868709D01*
X53719479Y-87868714D01*
X53719480Y-87868716D01*
X53831284Y-87980520D01*
X53831286Y-87980521D01*
X53831290Y-87980524D01*
X53968209Y-88059573D01*
X53968216Y-88059577D01*
X54120943Y-88100500D01*
X54120945Y-88100500D01*
X54279055Y-88100500D01*
X54279057Y-88100500D01*
X54431784Y-88059577D01*
X54568716Y-87980520D01*
X54680520Y-87868716D01*
X54759577Y-87731784D01*
X54792946Y-87607247D01*
X54829310Y-87547589D01*
X54892157Y-87517060D01*
X54912720Y-87515343D01*
X64706758Y-87515343D01*
X64773797Y-87535028D01*
X64819552Y-87587832D01*
X64829496Y-87656990D01*
X64800471Y-87720546D01*
X64794439Y-87727024D01*
X64274113Y-88247348D01*
X64218527Y-88279441D01*
X64168222Y-88292920D01*
X64168209Y-88292926D01*
X64031290Y-88371975D01*
X64031282Y-88371981D01*
X63919481Y-88483782D01*
X63919475Y-88483790D01*
X63840426Y-88620709D01*
X63840423Y-88620716D01*
X63799500Y-88773443D01*
X63799500Y-88931557D01*
X63831110Y-89049525D01*
X63840423Y-89084283D01*
X63840426Y-89084290D01*
X63919475Y-89221209D01*
X63919479Y-89221214D01*
X63919480Y-89221216D01*
X64031284Y-89333020D01*
X64031286Y-89333021D01*
X64031290Y-89333024D01*
X64149518Y-89401282D01*
X64168216Y-89412077D01*
X64320943Y-89453000D01*
X64320945Y-89453000D01*
X64479055Y-89453000D01*
X64479057Y-89453000D01*
X64631784Y-89412077D01*
X64768716Y-89333020D01*
X64880520Y-89221216D01*
X64959577Y-89084284D01*
X65000500Y-88931557D01*
X65000500Y-88773443D01*
X64978791Y-88692424D01*
X64980454Y-88622576D01*
X65010885Y-88572651D01*
X65271718Y-88311819D01*
X65333041Y-88278334D01*
X65359399Y-88275500D01*
X70093101Y-88275500D01*
X70160140Y-88295185D01*
X70180782Y-88311819D01*
X75592708Y-93723746D01*
X75626193Y-93785069D01*
X75621209Y-93854761D01*
X75618428Y-93860662D01*
X75618534Y-93860706D01*
X75615423Y-93868216D01*
X75574500Y-94020943D01*
X75574500Y-94179057D01*
X75604087Y-94289475D01*
X75615423Y-94331783D01*
X75615426Y-94331790D01*
X75694475Y-94468709D01*
X75694479Y-94468714D01*
X75694480Y-94468716D01*
X75806284Y-94580520D01*
X75806286Y-94580521D01*
X75806290Y-94580524D01*
X75943209Y-94659573D01*
X75943216Y-94659577D01*
X76095943Y-94700500D01*
X76095945Y-94700500D01*
X76254054Y-94700500D01*
X76254057Y-94700500D01*
X76319408Y-94682989D01*
X76344401Y-94683584D01*
X76369147Y-94680026D01*
X76378727Y-94684401D01*
X76389256Y-94684652D01*
X76409960Y-94698664D01*
X76432703Y-94709051D01*
X76438396Y-94717910D01*
X76447119Y-94723814D01*
X76456960Y-94746797D01*
X76470477Y-94767829D01*
X76472756Y-94783684D01*
X76474623Y-94788043D01*
X76475500Y-94802764D01*
X76475500Y-94923902D01*
X76455815Y-94990941D01*
X76439181Y-95011583D01*
X76419481Y-95031282D01*
X76419475Y-95031290D01*
X76340426Y-95168209D01*
X76340423Y-95168216D01*
X76299500Y-95320943D01*
X76299500Y-95479057D01*
X76333856Y-95607273D01*
X76340423Y-95631783D01*
X76340426Y-95631790D01*
X76419475Y-95768709D01*
X76419479Y-95768714D01*
X76419480Y-95768716D01*
X76531284Y-95880520D01*
X76531286Y-95880521D01*
X76531290Y-95880524D01*
X76668209Y-95959573D01*
X76668216Y-95959577D01*
X76820943Y-96000500D01*
X76820945Y-96000500D01*
X76979055Y-96000500D01*
X76979057Y-96000500D01*
X77131784Y-95959577D01*
X77138530Y-95955681D01*
X77206430Y-95939207D01*
X77272457Y-95962058D01*
X77315649Y-96016978D01*
X77322293Y-96086531D01*
X77290278Y-96148634D01*
X77288214Y-96150748D01*
X74650782Y-98788181D01*
X74589459Y-98821666D01*
X74563101Y-98824500D01*
X59654569Y-98824500D01*
X59587530Y-98804815D01*
X59541775Y-98752011D01*
X59531831Y-98682853D01*
X59534790Y-98668423D01*
X59560500Y-98572475D01*
X59560500Y-98427525D01*
X59522984Y-98287515D01*
X59520235Y-98282754D01*
X59450511Y-98161988D01*
X59450506Y-98161982D01*
X59446819Y-98158295D01*
X59413334Y-98096972D01*
X59410500Y-98070614D01*
X59410500Y-95877255D01*
X59430185Y-95810216D01*
X59446819Y-95789574D01*
X59829574Y-95406819D01*
X59890897Y-95373334D01*
X59917255Y-95370500D01*
X59979055Y-95370500D01*
X59979057Y-95370500D01*
X60131784Y-95329577D01*
X60268716Y-95250520D01*
X60380520Y-95138716D01*
X60459577Y-95001784D01*
X60500500Y-94849057D01*
X60500500Y-94690943D01*
X60459577Y-94538216D01*
X60419452Y-94468716D01*
X60380524Y-94401290D01*
X60380518Y-94401282D01*
X60268717Y-94289481D01*
X60268709Y-94289475D01*
X60131790Y-94210426D01*
X60131786Y-94210424D01*
X60131784Y-94210423D01*
X59979057Y-94169500D01*
X59820943Y-94169500D01*
X59668216Y-94210423D01*
X59668209Y-94210426D01*
X59531290Y-94289475D01*
X59531282Y-94289481D01*
X59419481Y-94401282D01*
X59419475Y-94401290D01*
X59340426Y-94538209D01*
X59340423Y-94538216D01*
X59299500Y-94690943D01*
X59299500Y-94752745D01*
X59279815Y-94819784D01*
X59263181Y-94840426D01*
X58689522Y-95414084D01*
X58689520Y-95414087D01*
X58636794Y-95505409D01*
X58636793Y-95505411D01*
X58636793Y-95505412D01*
X58630590Y-95528562D01*
X58630589Y-95528563D01*
X58609500Y-95607271D01*
X58609500Y-98070614D01*
X58589815Y-98137653D01*
X58573181Y-98158295D01*
X58569493Y-98161982D01*
X58569488Y-98161988D01*
X58497017Y-98287511D01*
X58496214Y-98290509D01*
X58459500Y-98427525D01*
X58459500Y-98572475D01*
X58485205Y-98668409D01*
X58483543Y-98738256D01*
X58444381Y-98796118D01*
X58380153Y-98823623D01*
X58365431Y-98824500D01*
X57437206Y-98824500D01*
X57370167Y-98804815D01*
X57349525Y-98788181D01*
X56338869Y-97777525D01*
X57149500Y-97777525D01*
X57149500Y-97922475D01*
X57187016Y-98062485D01*
X57187017Y-98062488D01*
X57259488Y-98188011D01*
X57259490Y-98188013D01*
X57259491Y-98188015D01*
X57361985Y-98290509D01*
X57361986Y-98290510D01*
X57361988Y-98290511D01*
X57487511Y-98362982D01*
X57487512Y-98362982D01*
X57487515Y-98362984D01*
X57627525Y-98400500D01*
X57627528Y-98400500D01*
X57772472Y-98400500D01*
X57772475Y-98400500D01*
X57912485Y-98362984D01*
X58038015Y-98290509D01*
X58140509Y-98188015D01*
X58212984Y-98062485D01*
X58250500Y-97922475D01*
X58250500Y-97777525D01*
X58212984Y-97637515D01*
X58212982Y-97637511D01*
X58157113Y-97540743D01*
X58140500Y-97478743D01*
X58140500Y-94930146D01*
X58160185Y-94863107D01*
X58172274Y-94848104D01*
X58175884Y-94843399D01*
X58175889Y-94843395D01*
X58248364Y-94717865D01*
X58285880Y-94577855D01*
X58285880Y-94432905D01*
X58248364Y-94292895D01*
X58246392Y-94289480D01*
X58175891Y-94167368D01*
X58175886Y-94167362D01*
X58073397Y-94064873D01*
X58073391Y-94064868D01*
X57947868Y-93992397D01*
X57947869Y-93992397D01*
X57935139Y-93988986D01*
X57807855Y-93954880D01*
X57662905Y-93954880D01*
X57535621Y-93988986D01*
X57522891Y-93992397D01*
X57397368Y-94064868D01*
X57397362Y-94064873D01*
X57294873Y-94167362D01*
X57294868Y-94167368D01*
X57222397Y-94292891D01*
X57222396Y-94292895D01*
X57184880Y-94432905D01*
X57184880Y-94577855D01*
X57222396Y-94717865D01*
X57222397Y-94717868D01*
X57294868Y-94843391D01*
X57294873Y-94843397D01*
X57303181Y-94851705D01*
X57336666Y-94913028D01*
X57339500Y-94939386D01*
X57339500Y-97380614D01*
X57319815Y-97447653D01*
X57303181Y-97468295D01*
X57259493Y-97511982D01*
X57259488Y-97511988D01*
X57187017Y-97637511D01*
X57187016Y-97637515D01*
X57149500Y-97777525D01*
X56338869Y-97777525D01*
X55297126Y-96735782D01*
X55263641Y-96674459D01*
X55260807Y-96648101D01*
X55260807Y-96607527D01*
X55260807Y-96607525D01*
X55223291Y-96467515D01*
X55150816Y-96341985D01*
X55048322Y-96239491D01*
X55048320Y-96239490D01*
X55048318Y-96239488D01*
X54922795Y-96167017D01*
X54922796Y-96167017D01*
X54911313Y-96163940D01*
X54782782Y-96129500D01*
X54637832Y-96129500D01*
X54509300Y-96163940D01*
X54497818Y-96167017D01*
X54372295Y-96239488D01*
X54372289Y-96239493D01*
X54269800Y-96341982D01*
X54269795Y-96341988D01*
X54197324Y-96467511D01*
X54197323Y-96467515D01*
X54159807Y-96607525D01*
X54159807Y-96752475D01*
X54168903Y-96786420D01*
X54197324Y-96892488D01*
X54269795Y-97018011D01*
X54269797Y-97018013D01*
X54269798Y-97018015D01*
X54372292Y-97120509D01*
X54372293Y-97120510D01*
X54372295Y-97120511D01*
X54497818Y-97192982D01*
X54497819Y-97192982D01*
X54497822Y-97192984D01*
X54637832Y-97230500D01*
X54678408Y-97230500D01*
X54745447Y-97250185D01*
X54766089Y-97266819D01*
X56929832Y-99430562D01*
X56999745Y-99500475D01*
X57085369Y-99549910D01*
X57107672Y-99555886D01*
X57180871Y-99575500D01*
X57180872Y-99575500D01*
X57400987Y-99575500D01*
X57468026Y-99595185D01*
X57513781Y-99647989D01*
X57523725Y-99717147D01*
X57506375Y-99762427D01*
X57507098Y-99762814D01*
X57504221Y-99768195D01*
X57451421Y-99895667D01*
X57451418Y-99895677D01*
X57424500Y-100031004D01*
X57424500Y-100031007D01*
X57424500Y-100168993D01*
X57424500Y-100168995D01*
X57424499Y-100168995D01*
X57451418Y-100304322D01*
X57451421Y-100304332D01*
X57504221Y-100431804D01*
X57504228Y-100431817D01*
X57580885Y-100546541D01*
X57580888Y-100546545D01*
X57678454Y-100644111D01*
X57678458Y-100644114D01*
X57793182Y-100720771D01*
X57793195Y-100720778D01*
X57920667Y-100773578D01*
X57920672Y-100773580D01*
X57920676Y-100773580D01*
X57920677Y-100773581D01*
X58056004Y-100800500D01*
X58056007Y-100800500D01*
X58193995Y-100800500D01*
X58285041Y-100782389D01*
X58329328Y-100773580D01*
X58456811Y-100720775D01*
X58571542Y-100644114D01*
X58669114Y-100546542D01*
X58745775Y-100431811D01*
X58798580Y-100304328D01*
X58825500Y-100168993D01*
X58825500Y-100031007D01*
X58825500Y-100031004D01*
X58798581Y-99895677D01*
X58798580Y-99895676D01*
X58798580Y-99895672D01*
X58798539Y-99895572D01*
X58745778Y-99768195D01*
X58742902Y-99762814D01*
X58743981Y-99762236D01*
X58725033Y-99701707D01*
X58743521Y-99634328D01*
X58795502Y-99587640D01*
X58849013Y-99575500D01*
X74819434Y-99575500D01*
X74819436Y-99575500D01*
X74892635Y-99555886D01*
X74914938Y-99549910D01*
X75000562Y-99500475D01*
X75007324Y-99493713D01*
X77149500Y-99493713D01*
X77149500Y-99706287D01*
X77157937Y-99759556D01*
X77179496Y-99895677D01*
X77182754Y-99916243D01*
X77220043Y-100031007D01*
X77248444Y-100118414D01*
X77344951Y-100307820D01*
X77469890Y-100479786D01*
X77620213Y-100630109D01*
X77792179Y-100755048D01*
X77792181Y-100755049D01*
X77792184Y-100755051D01*
X77981588Y-100851557D01*
X78183757Y-100917246D01*
X78393713Y-100950500D01*
X78393714Y-100950500D01*
X78606286Y-100950500D01*
X78606287Y-100950500D01*
X78816243Y-100917246D01*
X79018412Y-100851557D01*
X79207816Y-100755051D01*
X79311117Y-100679999D01*
X79379786Y-100630109D01*
X79379788Y-100630106D01*
X79379792Y-100630104D01*
X79530104Y-100479792D01*
X79530106Y-100479788D01*
X79530109Y-100479786D01*
X79655048Y-100307820D01*
X79655047Y-100307820D01*
X79655051Y-100307816D01*
X79751557Y-100118412D01*
X79817246Y-99916243D01*
X79850500Y-99706287D01*
X79850500Y-99493713D01*
X79817246Y-99283757D01*
X79751557Y-99081588D01*
X79655051Y-98892184D01*
X79655049Y-98892181D01*
X79655048Y-98892179D01*
X79530109Y-98720213D01*
X79379786Y-98569890D01*
X79207820Y-98444951D01*
X79018414Y-98348444D01*
X79018413Y-98348443D01*
X79018412Y-98348443D01*
X78816243Y-98282754D01*
X78816241Y-98282753D01*
X78816240Y-98282753D01*
X78654957Y-98257208D01*
X78606287Y-98249500D01*
X78393713Y-98249500D01*
X78345042Y-98257208D01*
X78183760Y-98282753D01*
X77981585Y-98348444D01*
X77792179Y-98444951D01*
X77620213Y-98569890D01*
X77469890Y-98720213D01*
X77344951Y-98892179D01*
X77248444Y-99081585D01*
X77182753Y-99283760D01*
X77151795Y-99479221D01*
X77149500Y-99493713D01*
X75007324Y-99493713D01*
X75070475Y-99430562D01*
X78784218Y-95716819D01*
X78845541Y-95683334D01*
X78871899Y-95680500D01*
X78912472Y-95680500D01*
X78912475Y-95680500D01*
X79052485Y-95642984D01*
X79178015Y-95570509D01*
X79280509Y-95468015D01*
X79352984Y-95342485D01*
X79390500Y-95202475D01*
X79390500Y-95057525D01*
X79352984Y-94917515D01*
X79350800Y-94913733D01*
X79280511Y-94791988D01*
X79280506Y-94791982D01*
X79178017Y-94689493D01*
X79178011Y-94689488D01*
X79052488Y-94617017D01*
X79052489Y-94617017D01*
X79041006Y-94613940D01*
X78912475Y-94579500D01*
X78767525Y-94579500D01*
X78638993Y-94613940D01*
X78627511Y-94617017D01*
X78501988Y-94689488D01*
X78501982Y-94689493D01*
X78399493Y-94791982D01*
X78399488Y-94791988D01*
X78327017Y-94917511D01*
X78327016Y-94917515D01*
X78289500Y-95057525D01*
X78289500Y-95057527D01*
X78289500Y-95098101D01*
X78269815Y-95165140D01*
X78253181Y-95185782D01*
X77650748Y-95788214D01*
X77589425Y-95821699D01*
X77519733Y-95816715D01*
X77463800Y-95774843D01*
X77439383Y-95709379D01*
X77454235Y-95641106D01*
X77455682Y-95638530D01*
X77459577Y-95631784D01*
X77500500Y-95479057D01*
X77500500Y-95320943D01*
X77459577Y-95168216D01*
X77442541Y-95138709D01*
X77380524Y-95031290D01*
X77380521Y-95031286D01*
X77380520Y-95031284D01*
X77268716Y-94919480D01*
X77268715Y-94919479D01*
X77262969Y-94913733D01*
X77265458Y-94911243D01*
X77233787Y-94867819D01*
X77226500Y-94825936D01*
X77226500Y-93301567D01*
X77226500Y-93301565D01*
X77200910Y-93206062D01*
X77151475Y-93120438D01*
X77081562Y-93050525D01*
X76592475Y-92561438D01*
X76558990Y-92500115D01*
X76563974Y-92430423D01*
X76605846Y-92374490D01*
X76624783Y-92363706D01*
X76624746Y-92363641D01*
X76768709Y-92280524D01*
X76768708Y-92280524D01*
X76768716Y-92280520D01*
X76880520Y-92168716D01*
X76959577Y-92031784D01*
X77000500Y-91879057D01*
X77000500Y-91720943D01*
X76959577Y-91568216D01*
X76941130Y-91536264D01*
X76880524Y-91431290D01*
X76880518Y-91431282D01*
X76768717Y-91319481D01*
X76768709Y-91319475D01*
X76631790Y-91240426D01*
X76631786Y-91240424D01*
X76631784Y-91240423D01*
X76479057Y-91199500D01*
X76479056Y-91199500D01*
X76381899Y-91199500D01*
X76314860Y-91179815D01*
X76294218Y-91163181D01*
X72243218Y-87112181D01*
X72209733Y-87050858D01*
X72214717Y-86981166D01*
X72256589Y-86925233D01*
X72322053Y-86900816D01*
X72330899Y-86900500D01*
X72399055Y-86900500D01*
X72399057Y-86900500D01*
X72551784Y-86859577D01*
X72688716Y-86780520D01*
X72800520Y-86668716D01*
X72879577Y-86531784D01*
X72920500Y-86379057D01*
X72920500Y-86220943D01*
X72879577Y-86068216D01*
X72862305Y-86038299D01*
X72800524Y-85931290D01*
X72800518Y-85931282D01*
X72746917Y-85877681D01*
X72713432Y-85816358D01*
X72718416Y-85746666D01*
X72746917Y-85702319D01*
X72830520Y-85618716D01*
X72909577Y-85481784D01*
X72950500Y-85329057D01*
X72950500Y-85170943D01*
X72909577Y-85018216D01*
X72888258Y-84981290D01*
X72830524Y-84881290D01*
X72830518Y-84881282D01*
X72718717Y-84769481D01*
X72718709Y-84769475D01*
X72581790Y-84690426D01*
X72581786Y-84690424D01*
X72581784Y-84690423D01*
X72429057Y-84649500D01*
X72429056Y-84649500D01*
X72331899Y-84649500D01*
X72264860Y-84629815D01*
X72244218Y-84613181D01*
X70300629Y-82669592D01*
X70300628Y-82669591D01*
X70222528Y-82624500D01*
X70215006Y-82620157D01*
X70215005Y-82620156D01*
X70215004Y-82620156D01*
X70167252Y-82607361D01*
X70167250Y-82607360D01*
X70167248Y-82607359D01*
X70119502Y-82594566D01*
X70119501Y-82594566D01*
X65015032Y-82594566D01*
X64947993Y-82574881D01*
X64927351Y-82558247D01*
X64858651Y-82489547D01*
X64858643Y-82489541D01*
X64721724Y-82410492D01*
X64721720Y-82410490D01*
X64721718Y-82410489D01*
X64568991Y-82369566D01*
X64410877Y-82369566D01*
X64258150Y-82410489D01*
X64258143Y-82410492D01*
X64121224Y-82489541D01*
X64121216Y-82489547D01*
X64009413Y-82601350D01*
X63997849Y-82621382D01*
X63947282Y-82669598D01*
X63890461Y-82683383D01*
X63353032Y-82683383D01*
X63285993Y-82663698D01*
X63240238Y-82610894D01*
X63230294Y-82541736D01*
X63233254Y-82527301D01*
X63250500Y-82462940D01*
X63250500Y-82304826D01*
X63209577Y-82152099D01*
X63181469Y-82103414D01*
X63130524Y-82015173D01*
X63130518Y-82015165D01*
X63018717Y-81903364D01*
X63018709Y-81903358D01*
X62881790Y-81824309D01*
X62881786Y-81824307D01*
X62881784Y-81824306D01*
X62729057Y-81783383D01*
X62570943Y-81783383D01*
X62418216Y-81824306D01*
X62418209Y-81824309D01*
X62281290Y-81903358D01*
X62281282Y-81903364D01*
X62187583Y-81997064D01*
X62126260Y-82030549D01*
X62099902Y-82033383D01*
X53515627Y-82033383D01*
X53426483Y-82057269D01*
X53426480Y-82057270D01*
X53346562Y-82103410D01*
X53346557Y-82103414D01*
X52641473Y-82808497D01*
X52640308Y-82809648D01*
X52629210Y-82820455D01*
X52620673Y-82825386D01*
X52490812Y-82955246D01*
X52490266Y-82955778D01*
X52460029Y-82971773D01*
X52430108Y-82988112D01*
X52428899Y-82988241D01*
X52428506Y-82988450D01*
X52427644Y-82988376D01*
X52403750Y-82990946D01*
X52334405Y-82990946D01*
X52267366Y-82971261D01*
X52221611Y-82918457D01*
X52214633Y-82899048D01*
X52179577Y-82768216D01*
X52165231Y-82743367D01*
X52100524Y-82631290D01*
X52100518Y-82631282D01*
X51988717Y-82519481D01*
X51988709Y-82519475D01*
X51851790Y-82440426D01*
X51851786Y-82440424D01*
X51851784Y-82440423D01*
X51699057Y-82399500D01*
X51540943Y-82399500D01*
X51388216Y-82440423D01*
X51388209Y-82440426D01*
X51251290Y-82519475D01*
X51251282Y-82519481D01*
X51182583Y-82588181D01*
X51121260Y-82621666D01*
X51094902Y-82624500D01*
X48055899Y-82624500D01*
X47988860Y-82604815D01*
X47943105Y-82552011D01*
X47933161Y-82482853D01*
X47962186Y-82419297D01*
X47968218Y-82412819D01*
X48066803Y-82314234D01*
X48391557Y-81989478D01*
X48452878Y-81955995D01*
X48522569Y-81960979D01*
X48541234Y-81969772D01*
X48558216Y-81979577D01*
X48710943Y-82020500D01*
X48710945Y-82020500D01*
X48869055Y-82020500D01*
X48869057Y-82020500D01*
X49021784Y-81979577D01*
X49158716Y-81900520D01*
X49270520Y-81788716D01*
X49349577Y-81651784D01*
X49390500Y-81499057D01*
X49390500Y-81340943D01*
X49349577Y-81188216D01*
X49309919Y-81119525D01*
X49270524Y-81051290D01*
X49270518Y-81051282D01*
X49158717Y-80939481D01*
X49158709Y-80939475D01*
X49021790Y-80860426D01*
X49021786Y-80860424D01*
X49021784Y-80860423D01*
X48869057Y-80819500D01*
X48710943Y-80819500D01*
X48558216Y-80860423D01*
X48558209Y-80860426D01*
X48421290Y-80939475D01*
X48421286Y-80939478D01*
X48309885Y-81050879D01*
X48284205Y-81070583D01*
X48199444Y-81119521D01*
X48199435Y-81119527D01*
X45523870Y-83795092D01*
X45520512Y-83796925D01*
X45518481Y-83800169D01*
X45490086Y-83813539D01*
X45462547Y-83828577D01*
X45458730Y-83828304D01*
X45455269Y-83829934D01*
X45424157Y-83825831D01*
X45392855Y-83823593D01*
X45389792Y-83821300D01*
X45385999Y-83820800D01*
X45362040Y-83800524D01*
X45336922Y-83781721D01*
X45334737Y-83777419D01*
X45332664Y-83775665D01*
X45323592Y-83755477D01*
X45317628Y-83743734D01*
X45316992Y-83741661D01*
X45309500Y-83713697D01*
X45307211Y-83709732D01*
X45303641Y-83698079D01*
X45303529Y-83688540D01*
X45298202Y-83661756D01*
X45298202Y-83483776D01*
X45307641Y-83436322D01*
X45309494Y-83431846D01*
X45309500Y-83431836D01*
X45350423Y-83279109D01*
X45350423Y-83231171D01*
X45350500Y-83229997D01*
X45350500Y-78620943D01*
X73119500Y-78620943D01*
X73119500Y-78779056D01*
X73160423Y-78931783D01*
X73160426Y-78931790D01*
X73239475Y-79068709D01*
X73239481Y-79068717D01*
X73308181Y-79137417D01*
X73341666Y-79198740D01*
X73344500Y-79225098D01*
X73344500Y-87159435D01*
X73370090Y-87254938D01*
X73387320Y-87284781D01*
X73419526Y-87340563D01*
X76079525Y-90000562D01*
X76149438Y-90070475D01*
X76235062Y-90119910D01*
X76235066Y-90119911D01*
X76273051Y-90130090D01*
X76306254Y-90138986D01*
X76361844Y-90171080D01*
X76441284Y-90250520D01*
X76441286Y-90250521D01*
X76441290Y-90250524D01*
X76578209Y-90329573D01*
X76578216Y-90329577D01*
X76730943Y-90370500D01*
X76730945Y-90370500D01*
X76889055Y-90370500D01*
X76889057Y-90370500D01*
X77041784Y-90329577D01*
X77178716Y-90250520D01*
X77290520Y-90138716D01*
X77369577Y-90001784D01*
X77410500Y-89849057D01*
X77410500Y-89690943D01*
X77369577Y-89538216D01*
X77341493Y-89489573D01*
X77290524Y-89401290D01*
X77290518Y-89401282D01*
X77178717Y-89289481D01*
X77178709Y-89289475D01*
X77041790Y-89210426D01*
X77041786Y-89210424D01*
X77041784Y-89210423D01*
X76889057Y-89169500D01*
X76730943Y-89169500D01*
X76578216Y-89210423D01*
X76578209Y-89210426D01*
X76516858Y-89245847D01*
X76448958Y-89262320D01*
X76382931Y-89239467D01*
X76367178Y-89226141D01*
X74131819Y-86990782D01*
X74098334Y-86929459D01*
X74095500Y-86903101D01*
X74095500Y-79225098D01*
X74115185Y-79158059D01*
X74131819Y-79137417D01*
X74200520Y-79068716D01*
X74228646Y-79020000D01*
X75105000Y-79020000D01*
X77195000Y-79020000D01*
X77195000Y-77120000D01*
X75105000Y-77120000D01*
X75105000Y-79020000D01*
X74228646Y-79020000D01*
X74279577Y-78931784D01*
X74320500Y-78779057D01*
X74320500Y-78620943D01*
X74279577Y-78468216D01*
X74279573Y-78468209D01*
X74200524Y-78331290D01*
X74200518Y-78331282D01*
X74088717Y-78219481D01*
X74088709Y-78219475D01*
X73951790Y-78140426D01*
X73951786Y-78140424D01*
X73951784Y-78140423D01*
X73799057Y-78099500D01*
X73640943Y-78099500D01*
X73488216Y-78140423D01*
X73488209Y-78140426D01*
X73351290Y-78219475D01*
X73351282Y-78219481D01*
X73239481Y-78331282D01*
X73239475Y-78331290D01*
X73160426Y-78468209D01*
X73160423Y-78468216D01*
X73119500Y-78620943D01*
X45350500Y-78620943D01*
X45350500Y-77828362D01*
X45358167Y-77789822D01*
X45357473Y-77789636D01*
X45359577Y-77781783D01*
X45400500Y-77629057D01*
X45400500Y-77470943D01*
X45359577Y-77318216D01*
X45359576Y-77318214D01*
X45357473Y-77310365D01*
X45357888Y-77310253D01*
X45355523Y-77306572D01*
X45350500Y-77271637D01*
X45350500Y-77078362D01*
X45358167Y-77039822D01*
X45357473Y-77039636D01*
X45366315Y-77006638D01*
X45400500Y-76879057D01*
X45400500Y-76720943D01*
X45359577Y-76568216D01*
X45339958Y-76534234D01*
X45280524Y-76431290D01*
X45280518Y-76431282D01*
X45168717Y-76319481D01*
X45168709Y-76319475D01*
X45031790Y-76240426D01*
X45031786Y-76240424D01*
X45031784Y-76240423D01*
X44879057Y-76199500D01*
X44720943Y-76199500D01*
X44568216Y-76240423D01*
X44568209Y-76240426D01*
X44431290Y-76319475D01*
X44431282Y-76319481D01*
X44319481Y-76431282D01*
X44319475Y-76431290D01*
X44240426Y-76568209D01*
X44240423Y-76568216D01*
X44199500Y-76720943D01*
X44199500Y-76879057D01*
X44233685Y-77006638D01*
X44242527Y-77039636D01*
X44242112Y-77039747D01*
X44244477Y-77043427D01*
X44249500Y-77078362D01*
X44249500Y-77271637D01*
X44241834Y-77310179D01*
X44242527Y-77310365D01*
X44199500Y-77470943D01*
X44199500Y-77629056D01*
X44242527Y-77789636D01*
X44241832Y-77789822D01*
X44249500Y-77828362D01*
X44249500Y-82832584D01*
X44232887Y-82894584D01*
X44190347Y-82968265D01*
X44190346Y-82968268D01*
X44149423Y-83120995D01*
X44149423Y-83279109D01*
X44190345Y-83431832D01*
X44191922Y-83437717D01*
X44192179Y-83438117D01*
X44192352Y-83439322D01*
X44192450Y-83439687D01*
X44192406Y-83439698D01*
X44197202Y-83473052D01*
X44197202Y-83672479D01*
X44190661Y-83705368D01*
X44192449Y-83705847D01*
X44160300Y-83825831D01*
X44149423Y-83866424D01*
X44149423Y-84024538D01*
X44183315Y-84151023D01*
X44190346Y-84177264D01*
X44190349Y-84177271D01*
X44269398Y-84314190D01*
X44269402Y-84314195D01*
X44269403Y-84314197D01*
X44381207Y-84426001D01*
X44381209Y-84426002D01*
X44381213Y-84426005D01*
X44518132Y-84505054D01*
X44518139Y-84505058D01*
X44543945Y-84511972D01*
X44603606Y-84548336D01*
X44634136Y-84611182D01*
X44625842Y-84680558D01*
X44599534Y-84719428D01*
X40269437Y-89049525D01*
X39844438Y-89474525D01*
X39774526Y-89544436D01*
X39725091Y-89630059D01*
X39725091Y-89630060D01*
X39725090Y-89630062D01*
X39699500Y-89725565D01*
X39699500Y-89725567D01*
X39699500Y-91484902D01*
X39679815Y-91551941D01*
X39663181Y-91572583D01*
X39594481Y-91641282D01*
X39594475Y-91641290D01*
X39515426Y-91778209D01*
X39515423Y-91778216D01*
X39474500Y-91930943D01*
X36213103Y-91930943D01*
X36211188Y-91926321D01*
X36211187Y-91926318D01*
X36101751Y-91762537D01*
X36101748Y-91762533D01*
X35962466Y-91623251D01*
X35962462Y-91623248D01*
X35798684Y-91513814D01*
X35798675Y-91513809D01*
X35727208Y-91484207D01*
X35672805Y-91440366D01*
X35650740Y-91374072D01*
X35668019Y-91306373D01*
X35719156Y-91258762D01*
X35761408Y-91246356D01*
X35782483Y-91244091D01*
X35917331Y-91193796D01*
X36032546Y-91107546D01*
X36118796Y-90992331D01*
X36169091Y-90857483D01*
X36175500Y-90797873D01*
X36175499Y-90002128D01*
X36169091Y-89942517D01*
X36160850Y-89920423D01*
X36118797Y-89807671D01*
X36118793Y-89807664D01*
X36032547Y-89692455D01*
X36032544Y-89692452D01*
X35917335Y-89606206D01*
X35917328Y-89606202D01*
X35782482Y-89555908D01*
X35782483Y-89555908D01*
X35722883Y-89549501D01*
X35722881Y-89549500D01*
X35722873Y-89549500D01*
X35722864Y-89549500D01*
X34377129Y-89549500D01*
X34377123Y-89549501D01*
X34317516Y-89555908D01*
X34182671Y-89606202D01*
X34182664Y-89606206D01*
X34067455Y-89692452D01*
X34067452Y-89692455D01*
X33981206Y-89807664D01*
X33981202Y-89807671D01*
X33930908Y-89942517D01*
X33924784Y-89999481D01*
X33924501Y-90002123D01*
X33924500Y-90002135D01*
X33924500Y-90797870D01*
X33924501Y-90797876D01*
X33930908Y-90857483D01*
X33981202Y-90992328D01*
X33981206Y-90992335D01*
X34067452Y-91107544D01*
X34067455Y-91107547D01*
X34182664Y-91193793D01*
X34182671Y-91193797D01*
X34197962Y-91199500D01*
X34317517Y-91244091D01*
X34338594Y-91246357D01*
X34403144Y-91273094D01*
X34442992Y-91330486D01*
X34445486Y-91400311D01*
X34409834Y-91460401D01*
X34372791Y-91484207D01*
X34301325Y-91513809D01*
X34301315Y-91513814D01*
X34137537Y-91623248D01*
X34137533Y-91623251D01*
X33998251Y-91762533D01*
X33998248Y-91762537D01*
X33888812Y-91926318D01*
X33888811Y-91926321D01*
X33816871Y-92099999D01*
X31500500Y-92099999D01*
X31500500Y-84678043D01*
X31520185Y-84611004D01*
X31572989Y-84565249D01*
X31642147Y-84555305D01*
X31693391Y-84574941D01*
X31757184Y-84617566D01*
X31757192Y-84617571D01*
X31920979Y-84685413D01*
X31920987Y-84685415D01*
X32094853Y-84719999D01*
X32094857Y-84720000D01*
X32183500Y-84720000D01*
X32183500Y-84120000D01*
X32783500Y-84120000D01*
X32783500Y-84720000D01*
X32872143Y-84720000D01*
X32872146Y-84719999D01*
X33046012Y-84685415D01*
X33046020Y-84685413D01*
X33209807Y-84617571D01*
X33209816Y-84617566D01*
X33357216Y-84519076D01*
X33357220Y-84519073D01*
X33482573Y-84393720D01*
X33482579Y-84393712D01*
X33581069Y-84246311D01*
X33581071Y-84246308D01*
X33633389Y-84120000D01*
X32822996Y-84120000D01*
X32899296Y-84099556D01*
X32967705Y-84060060D01*
X33023560Y-84004205D01*
X33063056Y-83935796D01*
X33083500Y-83859496D01*
X33083500Y-83780504D01*
X33063056Y-83704204D01*
X33023560Y-83635795D01*
X32967705Y-83579940D01*
X32899296Y-83540444D01*
X32822996Y-83520000D01*
X33633389Y-83520000D01*
X33633389Y-83519999D01*
X33581071Y-83393691D01*
X33581069Y-83393688D01*
X33482579Y-83246287D01*
X33482573Y-83246279D01*
X33357220Y-83120926D01*
X33357216Y-83120923D01*
X33209816Y-83022433D01*
X33209807Y-83022428D01*
X33046020Y-82954586D01*
X33046012Y-82954584D01*
X32872146Y-82920000D01*
X32783500Y-82920000D01*
X32783500Y-83520000D01*
X32183500Y-83520000D01*
X32183500Y-82920000D01*
X32094853Y-82920000D01*
X31920987Y-82954584D01*
X31920979Y-82954586D01*
X31757192Y-83022428D01*
X31757185Y-83022432D01*
X31693390Y-83065059D01*
X31626713Y-83085936D01*
X31559333Y-83067451D01*
X31512643Y-83015472D01*
X31500500Y-82961956D01*
X31500500Y-76038043D01*
X31520185Y-75971004D01*
X31572989Y-75925249D01*
X31642147Y-75915305D01*
X31693391Y-75934941D01*
X31757184Y-75977566D01*
X31757192Y-75977571D01*
X31920979Y-76045413D01*
X31920987Y-76045415D01*
X32094853Y-76079999D01*
X32094857Y-76080000D01*
X32183500Y-76080000D01*
X32183500Y-75480000D01*
X32783500Y-75480000D01*
X32783500Y-76080000D01*
X32872143Y-76080000D01*
X32872146Y-76079999D01*
X33046012Y-76045415D01*
X33046020Y-76045413D01*
X33209807Y-75977571D01*
X33209816Y-75977566D01*
X33357216Y-75879076D01*
X33357220Y-75879073D01*
X33482573Y-75753720D01*
X33482579Y-75753712D01*
X33581069Y-75606311D01*
X33581071Y-75606308D01*
X33633389Y-75480000D01*
X32822996Y-75480000D01*
X32899296Y-75459556D01*
X32967705Y-75420060D01*
X33023560Y-75364205D01*
X33063056Y-75295796D01*
X33083500Y-75219496D01*
X33083500Y-75140504D01*
X33063056Y-75064204D01*
X33023560Y-74995795D01*
X32967705Y-74939940D01*
X32899296Y-74900444D01*
X32822996Y-74880000D01*
X33633389Y-74880000D01*
X33633389Y-74879999D01*
X35263610Y-74879999D01*
X35263611Y-74880000D01*
X36074004Y-74880000D01*
X35997704Y-74900444D01*
X35929295Y-74939940D01*
X35873440Y-74995795D01*
X35833944Y-75064204D01*
X35813500Y-75140504D01*
X35813500Y-75219496D01*
X35833944Y-75295796D01*
X35873440Y-75364205D01*
X35929295Y-75420060D01*
X35997704Y-75459556D01*
X36074004Y-75480000D01*
X35263611Y-75480000D01*
X35315928Y-75606308D01*
X35315930Y-75606311D01*
X35414420Y-75753712D01*
X35414426Y-75753720D01*
X35539779Y-75879073D01*
X35539783Y-75879076D01*
X35687183Y-75977566D01*
X35687191Y-75977570D01*
X35703017Y-75984125D01*
X35757422Y-76027964D01*
X35779490Y-76094257D01*
X35762213Y-76161957D01*
X35743251Y-76186369D01*
X35672985Y-76256635D01*
X35597219Y-76387863D01*
X35569606Y-76490918D01*
X35558000Y-76534234D01*
X35558000Y-76685766D01*
X35597219Y-76832135D01*
X35653125Y-76928967D01*
X35669598Y-76996865D01*
X35646746Y-77062892D01*
X35633420Y-77078647D01*
X35530781Y-77181286D01*
X35530778Y-77181290D01*
X35451729Y-77318209D01*
X35451726Y-77318216D01*
X35410803Y-77470943D01*
X35410803Y-77629057D01*
X35451726Y-77781784D01*
X35493455Y-77854062D01*
X35494190Y-77855334D01*
X35510803Y-77917334D01*
X35510803Y-81032573D01*
X35491118Y-81099612D01*
X35485178Y-81108061D01*
X35481974Y-81112235D01*
X35402926Y-81249153D01*
X35402923Y-81249160D01*
X35362000Y-81401887D01*
X35362000Y-81560000D01*
X35402923Y-81712727D01*
X35402926Y-81712734D01*
X35481975Y-81849653D01*
X35481981Y-81849661D01*
X35599531Y-81967211D01*
X35598301Y-81968440D01*
X35633673Y-82016881D01*
X35637830Y-82086627D01*
X35624373Y-82120831D01*
X35597219Y-82167862D01*
X35560521Y-82304826D01*
X35558000Y-82314234D01*
X35558000Y-82465766D01*
X35572393Y-82519481D01*
X35597219Y-82612136D01*
X35608278Y-82631290D01*
X35672985Y-82743365D01*
X35672987Y-82743367D01*
X35743250Y-82813630D01*
X35776735Y-82874953D01*
X35771751Y-82944645D01*
X35729879Y-83000578D01*
X35703022Y-83015872D01*
X35687192Y-83022428D01*
X35687183Y-83022433D01*
X35539783Y-83120923D01*
X35539779Y-83120926D01*
X35414426Y-83246279D01*
X35414420Y-83246287D01*
X35315930Y-83393688D01*
X35315928Y-83393691D01*
X35263610Y-83519999D01*
X35263611Y-83520000D01*
X36074004Y-83520000D01*
X35997704Y-83540444D01*
X35929295Y-83579940D01*
X35873440Y-83635795D01*
X35833944Y-83704204D01*
X35813500Y-83780504D01*
X35813500Y-83859496D01*
X35833944Y-83935796D01*
X35873440Y-84004205D01*
X35929295Y-84060060D01*
X35997704Y-84099556D01*
X36074004Y-84120000D01*
X35263611Y-84120000D01*
X35315928Y-84246308D01*
X35315930Y-84246311D01*
X35414420Y-84393712D01*
X35414426Y-84393720D01*
X35539779Y-84519073D01*
X35539783Y-84519076D01*
X35687183Y-84617566D01*
X35687192Y-84617571D01*
X35850979Y-84685413D01*
X35850987Y-84685415D01*
X36024853Y-84719999D01*
X36024857Y-84720000D01*
X36363500Y-84720000D01*
X36363500Y-84120000D01*
X36963500Y-84120000D01*
X36963500Y-84720000D01*
X37302143Y-84720000D01*
X37302146Y-84719999D01*
X37476012Y-84685415D01*
X37476020Y-84685413D01*
X37639807Y-84617571D01*
X37639816Y-84617566D01*
X37787216Y-84519076D01*
X37787220Y-84519073D01*
X37912573Y-84393720D01*
X37912579Y-84393712D01*
X38011069Y-84246311D01*
X38011071Y-84246308D01*
X38063389Y-84120000D01*
X37252996Y-84120000D01*
X37329296Y-84099556D01*
X37397705Y-84060060D01*
X37453560Y-84004205D01*
X37493056Y-83935796D01*
X37513500Y-83859496D01*
X37513500Y-83780504D01*
X37493056Y-83704204D01*
X37453560Y-83635795D01*
X37397705Y-83579940D01*
X37329296Y-83540444D01*
X37252996Y-83520000D01*
X38063389Y-83520000D01*
X38063389Y-83519999D01*
X38011071Y-83393691D01*
X38011069Y-83393688D01*
X37912579Y-83246287D01*
X37912573Y-83246279D01*
X37787220Y-83120926D01*
X37787216Y-83120923D01*
X37639816Y-83022433D01*
X37639807Y-83022428D01*
X37476020Y-82954586D01*
X37476012Y-82954584D01*
X37302146Y-82920000D01*
X36963500Y-82920000D01*
X36963500Y-83520000D01*
X36363500Y-83520000D01*
X36363500Y-82993331D01*
X36383185Y-82926292D01*
X36410261Y-82896325D01*
X36417490Y-82890568D01*
X36486865Y-82850515D01*
X36594015Y-82743365D01*
X36669781Y-82612135D01*
X36709000Y-82465766D01*
X36709000Y-82314234D01*
X36669781Y-82167865D01*
X36594015Y-82036635D01*
X36497130Y-81939750D01*
X36463645Y-81878427D01*
X36468629Y-81808735D01*
X36477421Y-81790074D01*
X36522077Y-81712728D01*
X36563000Y-81560001D01*
X36563000Y-81401887D01*
X36522077Y-81249160D01*
X36522075Y-81249157D01*
X36522074Y-81249152D01*
X36521239Y-81247136D01*
X36520390Y-81242867D01*
X36519973Y-81241311D01*
X36520075Y-81241283D01*
X36511803Y-81199691D01*
X36511803Y-77917334D01*
X36528416Y-77855334D01*
X36529150Y-77854063D01*
X36570880Y-77781784D01*
X36611803Y-77629057D01*
X36611803Y-77470943D01*
X36570880Y-77318216D01*
X36497036Y-77190314D01*
X36480565Y-77122415D01*
X36503418Y-77056388D01*
X36516733Y-77040646D01*
X36594015Y-76963365D01*
X36669781Y-76832135D01*
X36709000Y-76685766D01*
X36709000Y-76534234D01*
X36669781Y-76387865D01*
X36662641Y-76375499D01*
X36654669Y-76361691D01*
X36594015Y-76256635D01*
X36486865Y-76149485D01*
X36486863Y-76149484D01*
X36486861Y-76149482D01*
X36425498Y-76114053D01*
X36377283Y-76063485D01*
X36363500Y-76006667D01*
X36363500Y-75480000D01*
X36963500Y-75480000D01*
X36963500Y-76080000D01*
X37302143Y-76080000D01*
X37302146Y-76079999D01*
X37476012Y-76045415D01*
X37476020Y-76045413D01*
X37639807Y-75977571D01*
X37639816Y-75977566D01*
X37787216Y-75879076D01*
X37787220Y-75879073D01*
X37912573Y-75753720D01*
X37912579Y-75753712D01*
X38011069Y-75606311D01*
X38011071Y-75606308D01*
X38063389Y-75480000D01*
X37252996Y-75480000D01*
X37329296Y-75459556D01*
X37397705Y-75420060D01*
X37453560Y-75364205D01*
X37493056Y-75295796D01*
X37513500Y-75219496D01*
X37513500Y-75140504D01*
X37493056Y-75064204D01*
X37453560Y-74995795D01*
X37397705Y-74939940D01*
X37329296Y-74900444D01*
X37252996Y-74880000D01*
X38063389Y-74880000D01*
X38063389Y-74879999D01*
X38011071Y-74753691D01*
X38011069Y-74753688D01*
X37912579Y-74606287D01*
X37912573Y-74606279D01*
X37787220Y-74480926D01*
X37787216Y-74480923D01*
X37639816Y-74382433D01*
X37639807Y-74382428D01*
X37476020Y-74314586D01*
X37476012Y-74314584D01*
X37302146Y-74280000D01*
X36963500Y-74280000D01*
X36963500Y-74880000D01*
X36363500Y-74880000D01*
X36363500Y-74280000D01*
X36024853Y-74280000D01*
X35850987Y-74314584D01*
X35850979Y-74314586D01*
X35687192Y-74382428D01*
X35687183Y-74382433D01*
X35539783Y-74480923D01*
X35539779Y-74480926D01*
X35414426Y-74606279D01*
X35414420Y-74606287D01*
X35315930Y-74753688D01*
X35315928Y-74753691D01*
X35263610Y-74879999D01*
X33633389Y-74879999D01*
X33581071Y-74753691D01*
X33581069Y-74753688D01*
X33482579Y-74606287D01*
X33482573Y-74606279D01*
X33357220Y-74480926D01*
X33357216Y-74480923D01*
X33209816Y-74382433D01*
X33209807Y-74382428D01*
X33046020Y-74314586D01*
X33046012Y-74314584D01*
X32872146Y-74280000D01*
X32783500Y-74280000D01*
X32783500Y-74880000D01*
X32183500Y-74880000D01*
X32183500Y-74280000D01*
X32094853Y-74280000D01*
X31920987Y-74314584D01*
X31920979Y-74314586D01*
X31757192Y-74382428D01*
X31757185Y-74382432D01*
X31693390Y-74425059D01*
X31626713Y-74445936D01*
X31559333Y-74427451D01*
X31512643Y-74375472D01*
X31500500Y-74321956D01*
X31500500Y-68620943D01*
X36589500Y-68620943D01*
X36589500Y-68779057D01*
X36628316Y-68923918D01*
X36630423Y-68931783D01*
X36630426Y-68931790D01*
X36709475Y-69068709D01*
X36709481Y-69068717D01*
X36758082Y-69117318D01*
X36791567Y-69178641D01*
X36786583Y-69248333D01*
X36758084Y-69292678D01*
X36719482Y-69331281D01*
X36719475Y-69331290D01*
X36640426Y-69468209D01*
X36640423Y-69468216D01*
X36599500Y-69620943D01*
X36599500Y-69779057D01*
X36614529Y-69835144D01*
X36640423Y-69931783D01*
X36640426Y-69931790D01*
X36719475Y-70068709D01*
X36719479Y-70068714D01*
X36719480Y-70068716D01*
X36831284Y-70180520D01*
X36831286Y-70180521D01*
X36831290Y-70180524D01*
X36927083Y-70235829D01*
X36968216Y-70259577D01*
X37120943Y-70300500D01*
X37120945Y-70300500D01*
X37279055Y-70300500D01*
X37279057Y-70300500D01*
X37431784Y-70259577D01*
X37568716Y-70180520D01*
X37637417Y-70111819D01*
X37698740Y-70078334D01*
X37725098Y-70075500D01*
X40173101Y-70075500D01*
X40240140Y-70095185D01*
X40260782Y-70111819D01*
X48001804Y-77852841D01*
X48071717Y-77922754D01*
X48157341Y-77972189D01*
X48191251Y-77981275D01*
X48246836Y-78013368D01*
X48336267Y-78102799D01*
X48336269Y-78102800D01*
X48336273Y-78102803D01*
X48401434Y-78140423D01*
X48473199Y-78181856D01*
X48625926Y-78222779D01*
X48625928Y-78222779D01*
X48784038Y-78222779D01*
X48784040Y-78222779D01*
X48936767Y-78181856D01*
X49073699Y-78102799D01*
X49185503Y-77990995D01*
X49264560Y-77854063D01*
X49305483Y-77701336D01*
X49305483Y-77543222D01*
X49264560Y-77390495D01*
X49222826Y-77318209D01*
X49185507Y-77253569D01*
X49185501Y-77253561D01*
X49175882Y-77243942D01*
X49162536Y-77219501D01*
X49146383Y-77196817D01*
X49146022Y-77189259D01*
X49142397Y-77182619D01*
X49144383Y-77154844D01*
X49143058Y-77127026D01*
X49147093Y-77116946D01*
X49147381Y-77112927D01*
X49156176Y-77094261D01*
X49157816Y-77091419D01*
X49157818Y-77091418D01*
X49164483Y-77079872D01*
X49215050Y-77031657D01*
X49283657Y-77018435D01*
X49348522Y-77044403D01*
X49359551Y-77054192D01*
X49464143Y-77158784D01*
X49464145Y-77158785D01*
X49464149Y-77158788D01*
X49569309Y-77219501D01*
X49601075Y-77237841D01*
X49753802Y-77278764D01*
X49753804Y-77278764D01*
X49911914Y-77278764D01*
X49911916Y-77278764D01*
X50064643Y-77237841D01*
X50201575Y-77158784D01*
X50313379Y-77046980D01*
X50329237Y-77019513D01*
X50336671Y-77006638D01*
X50381514Y-76928965D01*
X50392436Y-76910048D01*
X50433359Y-76757321D01*
X50433359Y-76599207D01*
X50403726Y-76488615D01*
X50404536Y-76454582D01*
X50404846Y-76420509D01*
X50405366Y-76419715D01*
X50405389Y-76418768D01*
X50424487Y-76390549D01*
X50443154Y-76362077D01*
X50444018Y-76361691D01*
X50444551Y-76360905D01*
X50475880Y-76347489D01*
X50506970Y-76333631D01*
X50508156Y-76333668D01*
X50508780Y-76333401D01*
X50542263Y-76333952D01*
X50544990Y-76334369D01*
X50626082Y-76350500D01*
X50650371Y-76350500D01*
X50659700Y-76351928D01*
X50662800Y-76353378D01*
X50673031Y-76354725D01*
X50687674Y-76358648D01*
X50750565Y-76375500D01*
X50750567Y-76375500D01*
X50849432Y-76375500D01*
X50849435Y-76375500D01*
X50944938Y-76349910D01*
X51030562Y-76300475D01*
X51078382Y-76252654D01*
X51097156Y-76237245D01*
X51178416Y-76182951D01*
X51282951Y-76078416D01*
X51365084Y-75955495D01*
X51421658Y-75818913D01*
X51438725Y-75733114D01*
X51450500Y-75673920D01*
X51450500Y-75526079D01*
X51421659Y-75381092D01*
X51421658Y-75381091D01*
X51421658Y-75381087D01*
X51414665Y-75364205D01*
X51365087Y-75244511D01*
X51365080Y-75244498D01*
X51282951Y-75121584D01*
X51282948Y-75121580D01*
X51178419Y-75017051D01*
X51178415Y-75017048D01*
X51055501Y-74934919D01*
X51055491Y-74934914D01*
X51006772Y-74914734D01*
X50952369Y-74870893D01*
X50930304Y-74804599D01*
X50946843Y-74738165D01*
X50950247Y-74732269D01*
X50950248Y-74732268D01*
X50991171Y-74579541D01*
X50991171Y-74421427D01*
X50950248Y-74268700D01*
X50911784Y-74202078D01*
X50871195Y-74131774D01*
X50871192Y-74131770D01*
X50871191Y-74131768D01*
X50785818Y-74046395D01*
X50752334Y-73985071D01*
X50749500Y-73958714D01*
X50749500Y-66632899D01*
X50769185Y-66565860D01*
X50785819Y-66545218D01*
X51207090Y-66123947D01*
X51635541Y-65695495D01*
X51696862Y-65662012D01*
X51766553Y-65666996D01*
X51792111Y-65680076D01*
X51844498Y-65715080D01*
X51844511Y-65715087D01*
X51981082Y-65771656D01*
X51981087Y-65771658D01*
X51981091Y-65771658D01*
X51981092Y-65771659D01*
X52126079Y-65800500D01*
X52126082Y-65800500D01*
X52273920Y-65800500D01*
X52374372Y-65780518D01*
X52418913Y-65771658D01*
X52555495Y-65715084D01*
X52678416Y-65632951D01*
X52782951Y-65528416D01*
X52865084Y-65405495D01*
X52867965Y-65398541D01*
X52908574Y-65300500D01*
X52921658Y-65268913D01*
X52939241Y-65180518D01*
X52950500Y-65123920D01*
X52950500Y-64976079D01*
X52921659Y-64831092D01*
X52921658Y-64831091D01*
X52921658Y-64831087D01*
X52916848Y-64819475D01*
X52865087Y-64694511D01*
X52865080Y-64694498D01*
X52824659Y-64634004D01*
X52822348Y-64626624D01*
X52817061Y-64620983D01*
X52812054Y-64593749D01*
X52803781Y-64567327D01*
X52805507Y-64558138D01*
X52804428Y-64552265D01*
X52809618Y-64536264D01*
X52813044Y-64518039D01*
X52816206Y-64510333D01*
X52859497Y-64435351D01*
X52881010Y-64355063D01*
X52885087Y-64339849D01*
X52885087Y-64240977D01*
X52885087Y-63155651D01*
X52904772Y-63088612D01*
X52921406Y-63067970D01*
X52990107Y-62999269D01*
X53069164Y-62862337D01*
X53080725Y-62819187D01*
X53117090Y-62759528D01*
X53179937Y-62728999D01*
X53249312Y-62737294D01*
X53303190Y-62781779D01*
X53324465Y-62848331D01*
X53324500Y-62851282D01*
X53324500Y-65926967D01*
X53304815Y-65994006D01*
X53252011Y-66039761D01*
X53182853Y-66049705D01*
X53168408Y-66046742D01*
X53104058Y-66029500D01*
X53104057Y-66029500D01*
X52945943Y-66029500D01*
X52793216Y-66070423D01*
X52793209Y-66070426D01*
X52656290Y-66149475D01*
X52656282Y-66149481D01*
X52544481Y-66261282D01*
X52544475Y-66261290D01*
X52465426Y-66398209D01*
X52465423Y-66398216D01*
X52424500Y-66550943D01*
X52424500Y-66709057D01*
X52463464Y-66854471D01*
X52465423Y-66861783D01*
X52465426Y-66861790D01*
X52544475Y-66998709D01*
X52544481Y-66998717D01*
X52613181Y-67067417D01*
X52646666Y-67128740D01*
X52649500Y-67155098D01*
X52649500Y-71529031D01*
X52675090Y-71624534D01*
X52675091Y-71624535D01*
X52675091Y-71624536D01*
X52724526Y-71710159D01*
X53801376Y-72787010D01*
X53821082Y-72812691D01*
X53894477Y-72939816D01*
X53894479Y-72939819D01*
X53894480Y-72939820D01*
X54006284Y-73051624D01*
X54006286Y-73051625D01*
X54006290Y-73051628D01*
X54143209Y-73130677D01*
X54143216Y-73130681D01*
X54295943Y-73171604D01*
X54295945Y-73171604D01*
X54454055Y-73171604D01*
X54454057Y-73171604D01*
X54606784Y-73130681D01*
X54743716Y-73051624D01*
X54855520Y-72939820D01*
X54934577Y-72802888D01*
X54975500Y-72650161D01*
X54975500Y-72492047D01*
X54934577Y-72339320D01*
X54915369Y-72306051D01*
X54855524Y-72202394D01*
X54855518Y-72202386D01*
X54793793Y-72140661D01*
X54760308Y-72079338D01*
X54765292Y-72009646D01*
X54807164Y-71953713D01*
X54819474Y-71945593D01*
X54824982Y-71942412D01*
X54824985Y-71942412D01*
X54950515Y-71869937D01*
X55053009Y-71767443D01*
X55108723Y-71670943D01*
X58824500Y-71670943D01*
X58824500Y-71829057D01*
X58862428Y-71970604D01*
X58865423Y-71981783D01*
X58865426Y-71981790D01*
X58944475Y-72118709D01*
X58944479Y-72118714D01*
X58944480Y-72118716D01*
X59056284Y-72230520D01*
X59099527Y-72255486D01*
X59147742Y-72306051D01*
X59160967Y-72374658D01*
X59135000Y-72439523D01*
X59125210Y-72450554D01*
X59011978Y-72563786D01*
X59011975Y-72563790D01*
X58932926Y-72700709D01*
X58932923Y-72700716D01*
X58892000Y-72853443D01*
X58892000Y-73011557D01*
X58902736Y-73051622D01*
X58932923Y-73164283D01*
X58932926Y-73164290D01*
X59011975Y-73301209D01*
X59011979Y-73301214D01*
X59011980Y-73301216D01*
X59123784Y-73413020D01*
X59123786Y-73413021D01*
X59123790Y-73413024D01*
X59260709Y-73492073D01*
X59260716Y-73492077D01*
X59413443Y-73533000D01*
X59413445Y-73533000D01*
X59571555Y-73533000D01*
X59571557Y-73533000D01*
X59724284Y-73492077D01*
X59861216Y-73413020D01*
X59973020Y-73301216D01*
X60052077Y-73164284D01*
X60093000Y-73011557D01*
X60093000Y-72999500D01*
X60112685Y-72932461D01*
X60165489Y-72886706D01*
X60217000Y-72875500D01*
X69924435Y-72875500D01*
X69924436Y-72875500D01*
X69972186Y-72862705D01*
X70019938Y-72849910D01*
X70105562Y-72800475D01*
X70175475Y-72730562D01*
X73087974Y-69818063D01*
X73524653Y-69381382D01*
X73585976Y-69347898D01*
X73655667Y-69352882D01*
X73700015Y-69381383D01*
X73751580Y-69432948D01*
X73751584Y-69432951D01*
X73874498Y-69515080D01*
X73874511Y-69515087D01*
X74011082Y-69571656D01*
X74011087Y-69571658D01*
X74011091Y-69571658D01*
X74011092Y-69571659D01*
X74156079Y-69600500D01*
X74156082Y-69600500D01*
X74303920Y-69600500D01*
X74401462Y-69581096D01*
X74448913Y-69571658D01*
X74585495Y-69515084D01*
X74708416Y-69432951D01*
X74812951Y-69328416D01*
X74895084Y-69205495D01*
X74900234Y-69193063D01*
X74913785Y-69160346D01*
X74951658Y-69068913D01*
X74978934Y-68931790D01*
X74980500Y-68923920D01*
X74980500Y-68776079D01*
X74951659Y-68631092D01*
X74951658Y-68631091D01*
X74951658Y-68631087D01*
X74910083Y-68530716D01*
X74895087Y-68494511D01*
X74895080Y-68494498D01*
X74812951Y-68371584D01*
X74812948Y-68371580D01*
X74761383Y-68320015D01*
X74727898Y-68258692D01*
X74732882Y-68189000D01*
X74761383Y-68144653D01*
X75299753Y-67606284D01*
X75881718Y-67024319D01*
X75943041Y-66990834D01*
X75969399Y-66988000D01*
X76066555Y-66988000D01*
X76066557Y-66988000D01*
X76219284Y-66947077D01*
X76356216Y-66868020D01*
X76468020Y-66756216D01*
X76547077Y-66619284D01*
X76588000Y-66466557D01*
X76588000Y-66308443D01*
X76547077Y-66155716D01*
X76507115Y-66086499D01*
X76490643Y-66018599D01*
X76513496Y-65952572D01*
X76568418Y-65909382D01*
X76614503Y-65900500D01*
X76679055Y-65900500D01*
X76679057Y-65900500D01*
X76831784Y-65859577D01*
X76968716Y-65780520D01*
X77080520Y-65668716D01*
X77159577Y-65531784D01*
X77200500Y-65379057D01*
X77200500Y-65220943D01*
X77159577Y-65068216D01*
X77108101Y-64979056D01*
X77080524Y-64931290D01*
X77080518Y-64931282D01*
X76968717Y-64819481D01*
X76968709Y-64819475D01*
X76831790Y-64740426D01*
X76831786Y-64740424D01*
X76831784Y-64740423D01*
X76679057Y-64699500D01*
X76520943Y-64699500D01*
X76368216Y-64740423D01*
X76368209Y-64740426D01*
X76231290Y-64819475D01*
X76231282Y-64819481D01*
X76162583Y-64888181D01*
X76101260Y-64921666D01*
X76074902Y-64924500D01*
X75925564Y-64924500D01*
X75877812Y-64937295D01*
X75877811Y-64937294D01*
X75830063Y-64950089D01*
X75830062Y-64950089D01*
X75744435Y-64999527D01*
X72820346Y-67923616D01*
X72759023Y-67957101D01*
X72689331Y-67952117D01*
X72644984Y-67923616D01*
X72628419Y-67907051D01*
X72628415Y-67907048D01*
X72505501Y-67824919D01*
X72505488Y-67824912D01*
X72368917Y-67768343D01*
X72368907Y-67768340D01*
X72223920Y-67739500D01*
X72223918Y-67739500D01*
X72076082Y-67739500D01*
X72076080Y-67739500D01*
X71931092Y-67768340D01*
X71931082Y-67768343D01*
X71794511Y-67824912D01*
X71794498Y-67824919D01*
X71671584Y-67907048D01*
X71671580Y-67907051D01*
X71567051Y-68011580D01*
X71567048Y-68011584D01*
X71484919Y-68134498D01*
X71484912Y-68134511D01*
X71428343Y-68271082D01*
X71428340Y-68271092D01*
X71399500Y-68416079D01*
X71399500Y-68416082D01*
X71399500Y-68563918D01*
X71399500Y-68563920D01*
X71399499Y-68563920D01*
X71428340Y-68708907D01*
X71428343Y-68708917D01*
X71484912Y-68845488D01*
X71484919Y-68845501D01*
X71567048Y-68968415D01*
X71567051Y-68968419D01*
X71583616Y-68984984D01*
X71617101Y-69046307D01*
X71612117Y-69115999D01*
X71583616Y-69160346D01*
X69405782Y-71338181D01*
X69344459Y-71371666D01*
X69318101Y-71374500D01*
X64582936Y-71374500D01*
X64515897Y-71354815D01*
X64470142Y-71302011D01*
X64460198Y-71232853D01*
X64463161Y-71218407D01*
X64465277Y-71210511D01*
X64500500Y-71079057D01*
X64500500Y-70920943D01*
X64459577Y-70768216D01*
X64418764Y-70697525D01*
X64380524Y-70631290D01*
X64380518Y-70631282D01*
X64311819Y-70562583D01*
X64278334Y-70501260D01*
X64275500Y-70474902D01*
X64275500Y-65505929D01*
X64295185Y-65438890D01*
X64337502Y-65398541D01*
X64339237Y-65397538D01*
X64368716Y-65380520D01*
X64480520Y-65268716D01*
X64559577Y-65131784D01*
X64600500Y-64979057D01*
X64600500Y-64820943D01*
X64559577Y-64668216D01*
X64517024Y-64594511D01*
X64480524Y-64531290D01*
X64480518Y-64531282D01*
X64368717Y-64419481D01*
X64368709Y-64419475D01*
X64231790Y-64340426D01*
X64231786Y-64340424D01*
X64231784Y-64340423D01*
X64079057Y-64299500D01*
X63920943Y-64299500D01*
X63768216Y-64340423D01*
X63768209Y-64340426D01*
X63631290Y-64419475D01*
X63631282Y-64419481D01*
X63519481Y-64531282D01*
X63519475Y-64531290D01*
X63440426Y-64668209D01*
X63440423Y-64668216D01*
X63399500Y-64820943D01*
X63399500Y-64979057D01*
X63438316Y-65123918D01*
X63440423Y-65131783D01*
X63440424Y-65131786D01*
X63468559Y-65180518D01*
X63491898Y-65220943D01*
X63507887Y-65248636D01*
X63524500Y-65310636D01*
X63524500Y-70474902D01*
X63504815Y-70541941D01*
X63488181Y-70562583D01*
X63419481Y-70631282D01*
X63419475Y-70631290D01*
X63340426Y-70768209D01*
X63340423Y-70768216D01*
X63299500Y-70920943D01*
X63299500Y-71079057D01*
X63334722Y-71210509D01*
X63336839Y-71218407D01*
X63335176Y-71288256D01*
X63296014Y-71346119D01*
X63231785Y-71373623D01*
X63217064Y-71374500D01*
X59950098Y-71374500D01*
X59883059Y-71354815D01*
X59862417Y-71338181D01*
X59793717Y-71269481D01*
X59793709Y-71269475D01*
X59656790Y-71190426D01*
X59656786Y-71190424D01*
X59656784Y-71190423D01*
X59504057Y-71149500D01*
X59345943Y-71149500D01*
X59193216Y-71190423D01*
X59193209Y-71190426D01*
X59056290Y-71269475D01*
X59056282Y-71269481D01*
X58944481Y-71381282D01*
X58944475Y-71381290D01*
X58865426Y-71518209D01*
X58865423Y-71518216D01*
X58824500Y-71670943D01*
X55108723Y-71670943D01*
X55125484Y-71641913D01*
X55163000Y-71501903D01*
X55163000Y-71433584D01*
X55164908Y-71422833D01*
X55175794Y-71400928D01*
X55182685Y-71377461D01*
X55191066Y-71370198D01*
X55196003Y-71360265D01*
X55217005Y-71347721D01*
X55235489Y-71331706D01*
X55248599Y-71328853D01*
X55255990Y-71324440D01*
X55267196Y-71324808D01*
X55287000Y-71320500D01*
X55297472Y-71320500D01*
X55297475Y-71320500D01*
X55437485Y-71282984D01*
X55563015Y-71210509D01*
X55665509Y-71108015D01*
X55737984Y-70982485D01*
X55775500Y-70842475D01*
X55775500Y-70697525D01*
X55737984Y-70557515D01*
X55736844Y-70555541D01*
X55665511Y-70431988D01*
X55665506Y-70431982D01*
X55563017Y-70329493D01*
X55563011Y-70329488D01*
X55437488Y-70257017D01*
X55437489Y-70257017D01*
X55426006Y-70253940D01*
X55297475Y-70219500D01*
X55297472Y-70219500D01*
X55256900Y-70219500D01*
X55189861Y-70199815D01*
X55169219Y-70183181D01*
X54785819Y-69799781D01*
X54752334Y-69738458D01*
X54749500Y-69712100D01*
X54749500Y-69352764D01*
X54769185Y-69285725D01*
X54821989Y-69239970D01*
X54891147Y-69230026D01*
X54905580Y-69232986D01*
X54970943Y-69250500D01*
X54970946Y-69250500D01*
X55129055Y-69250500D01*
X55129057Y-69250500D01*
X55281784Y-69209577D01*
X55418716Y-69130520D01*
X55487417Y-69061819D01*
X55548740Y-69028334D01*
X55575098Y-69025500D01*
X56893101Y-69025500D01*
X56922541Y-69034144D01*
X56952528Y-69040668D01*
X56957543Y-69044422D01*
X56960140Y-69045185D01*
X56980782Y-69061819D01*
X57063181Y-69144218D01*
X57096666Y-69205541D01*
X57099500Y-69231899D01*
X57099500Y-69329057D01*
X57136788Y-69468216D01*
X57140423Y-69481783D01*
X57140426Y-69481790D01*
X57219475Y-69618709D01*
X57219479Y-69618714D01*
X57219480Y-69618716D01*
X57331284Y-69730520D01*
X57331286Y-69730521D01*
X57331290Y-69730524D01*
X57468209Y-69809573D01*
X57468216Y-69809577D01*
X57620943Y-69850500D01*
X57620945Y-69850500D01*
X57779055Y-69850500D01*
X57779057Y-69850500D01*
X57931784Y-69809577D01*
X58068716Y-69730520D01*
X58180520Y-69618716D01*
X58259577Y-69481784D01*
X58300500Y-69329057D01*
X58300500Y-69170943D01*
X58259577Y-69018216D01*
X58259573Y-69018209D01*
X58180524Y-68881290D01*
X58180518Y-68881282D01*
X58086819Y-68787583D01*
X58053334Y-68726260D01*
X58050500Y-68699902D01*
X58050500Y-67734701D01*
X58070185Y-67667662D01*
X58105610Y-67631599D01*
X58154487Y-67598939D01*
X58178416Y-67582951D01*
X58282951Y-67478416D01*
X58365084Y-67355495D01*
X58421658Y-67218913D01*
X58444674Y-67103207D01*
X58450500Y-67073920D01*
X58450500Y-66926079D01*
X58449478Y-66920943D01*
X59699500Y-66920943D01*
X59699500Y-67079057D01*
X59738120Y-67223187D01*
X59740423Y-67231783D01*
X59740426Y-67231790D01*
X59819475Y-67368709D01*
X59819479Y-67368714D01*
X59819480Y-67368716D01*
X59931284Y-67480520D01*
X59931286Y-67480521D01*
X59931290Y-67480524D01*
X60068209Y-67559573D01*
X60068216Y-67559577D01*
X60220943Y-67600500D01*
X60220945Y-67600500D01*
X60379055Y-67600500D01*
X60379057Y-67600500D01*
X60531784Y-67559577D01*
X60668716Y-67480520D01*
X60780520Y-67368716D01*
X60859577Y-67231784D01*
X60900500Y-67079057D01*
X60900500Y-66920943D01*
X60859577Y-66768216D01*
X60859573Y-66768209D01*
X60780524Y-66631290D01*
X60780518Y-66631282D01*
X60711819Y-66562583D01*
X60678334Y-66501260D01*
X60675500Y-66474902D01*
X60675500Y-64706899D01*
X60695185Y-64639860D01*
X60711819Y-64619218D01*
X64344218Y-60986819D01*
X64405541Y-60953334D01*
X64431899Y-60950500D01*
X64529055Y-60950500D01*
X64529057Y-60950500D01*
X64681784Y-60909577D01*
X64818716Y-60830520D01*
X64930520Y-60718716D01*
X65009577Y-60581784D01*
X65050500Y-60429057D01*
X65050500Y-60270943D01*
X65009577Y-60118216D01*
X65009573Y-60118209D01*
X64930524Y-59981290D01*
X64930518Y-59981282D01*
X64818717Y-59869481D01*
X64818709Y-59869475D01*
X64681790Y-59790426D01*
X64681786Y-59790424D01*
X64681784Y-59790423D01*
X64529057Y-59749500D01*
X64370943Y-59749500D01*
X64218216Y-59790423D01*
X64218209Y-59790426D01*
X64081290Y-59869475D01*
X64081282Y-59869481D01*
X63969481Y-59981282D01*
X63969475Y-59981290D01*
X63890426Y-60118209D01*
X63890423Y-60118216D01*
X63849500Y-60270943D01*
X63849500Y-60368101D01*
X63829815Y-60435140D01*
X63813181Y-60455782D01*
X59999526Y-64269436D01*
X59950089Y-64355063D01*
X59950088Y-64355064D01*
X59942091Y-64384913D01*
X59942091Y-64384915D01*
X59928578Y-64435347D01*
X59928577Y-64435350D01*
X59924500Y-64450564D01*
X59924500Y-66474902D01*
X59904815Y-66541941D01*
X59888181Y-66562583D01*
X59819481Y-66631282D01*
X59819475Y-66631290D01*
X59740426Y-66768209D01*
X59740423Y-66768216D01*
X59699500Y-66920943D01*
X58449478Y-66920943D01*
X58421659Y-66781092D01*
X58421658Y-66781091D01*
X58421658Y-66781087D01*
X58410892Y-66755095D01*
X58365087Y-66644511D01*
X58365080Y-66644498D01*
X58282951Y-66521584D01*
X58282948Y-66521580D01*
X58178419Y-66417051D01*
X58178415Y-66417048D01*
X58055501Y-66334919D01*
X58055488Y-66334912D01*
X57918917Y-66278343D01*
X57918907Y-66278340D01*
X57773920Y-66249500D01*
X57773918Y-66249500D01*
X57626082Y-66249500D01*
X57626080Y-66249500D01*
X57481092Y-66278340D01*
X57481082Y-66278343D01*
X57344511Y-66334912D01*
X57344493Y-66334922D01*
X57318390Y-66352364D01*
X57251713Y-66373242D01*
X57184333Y-66354757D01*
X57137643Y-66302778D01*
X57125500Y-66249262D01*
X57125500Y-65667996D01*
X57145185Y-65600957D01*
X57180611Y-65564893D01*
X57228416Y-65532951D01*
X57332951Y-65428416D01*
X57415084Y-65305495D01*
X57471658Y-65168913D01*
X57484783Y-65102932D01*
X57500500Y-65023920D01*
X57500500Y-64876079D01*
X57471659Y-64731092D01*
X57471658Y-64731091D01*
X57471658Y-64731087D01*
X57456505Y-64694505D01*
X57415087Y-64594511D01*
X57415080Y-64594498D01*
X57332951Y-64471584D01*
X57332948Y-64471580D01*
X57228419Y-64367051D01*
X57228415Y-64367048D01*
X57105501Y-64284919D01*
X57105488Y-64284912D01*
X56968917Y-64228343D01*
X56968907Y-64228340D01*
X56823920Y-64199500D01*
X56823918Y-64199500D01*
X56676082Y-64199500D01*
X56676080Y-64199500D01*
X56531092Y-64228340D01*
X56531082Y-64228343D01*
X56394511Y-64284912D01*
X56394498Y-64284919D01*
X56271584Y-64367048D01*
X56271580Y-64367051D01*
X56167051Y-64471580D01*
X56167048Y-64471584D01*
X56084919Y-64594498D01*
X56084912Y-64594511D01*
X56028343Y-64731082D01*
X56028340Y-64731092D01*
X55999500Y-64876079D01*
X55999500Y-64876082D01*
X55999500Y-65023918D01*
X55999500Y-65023920D01*
X55999499Y-65023920D01*
X56028340Y-65168907D01*
X56028343Y-65168917D01*
X56084912Y-65305488D01*
X56084919Y-65305501D01*
X56167048Y-65428415D01*
X56167051Y-65428419D01*
X56271580Y-65532948D01*
X56271585Y-65532952D01*
X56319389Y-65564893D01*
X56364195Y-65618505D01*
X56374500Y-65667996D01*
X56374500Y-66828419D01*
X56354815Y-66895458D01*
X56302011Y-66941213D01*
X56232853Y-66951157D01*
X56207155Y-66944596D01*
X56197454Y-66940976D01*
X56169938Y-66925090D01*
X56122186Y-66912295D01*
X56116488Y-66910768D01*
X56116477Y-66910764D01*
X56074436Y-66899500D01*
X56074435Y-66899500D01*
X55575098Y-66899500D01*
X55508059Y-66879815D01*
X55487417Y-66863181D01*
X55418717Y-66794481D01*
X55418709Y-66794475D01*
X55281790Y-66715426D01*
X55281786Y-66715424D01*
X55281784Y-66715423D01*
X55129057Y-66674500D01*
X54970943Y-66674500D01*
X54970941Y-66674500D01*
X54905592Y-66692010D01*
X54835742Y-66690347D01*
X54777880Y-66651184D01*
X54750377Y-66586955D01*
X54749500Y-66572235D01*
X54749500Y-63023920D01*
X55149499Y-63023920D01*
X55178340Y-63168907D01*
X55178343Y-63168917D01*
X55234912Y-63305488D01*
X55234919Y-63305501D01*
X55317048Y-63428415D01*
X55317051Y-63428419D01*
X55421580Y-63532948D01*
X55421584Y-63532951D01*
X55544498Y-63615080D01*
X55544511Y-63615087D01*
X55681082Y-63671656D01*
X55681087Y-63671658D01*
X55681091Y-63671658D01*
X55681092Y-63671659D01*
X55826079Y-63700500D01*
X55826082Y-63700500D01*
X55973920Y-63700500D01*
X56071462Y-63681096D01*
X56118913Y-63671658D01*
X56255495Y-63615084D01*
X56378416Y-63532951D01*
X56482951Y-63428416D01*
X56565084Y-63305495D01*
X56621658Y-63168913D01*
X56637631Y-63088612D01*
X56650500Y-63023920D01*
X56650500Y-62876079D01*
X56621659Y-62731092D01*
X56621658Y-62731091D01*
X56621658Y-62731087D01*
X56612762Y-62709609D01*
X56565087Y-62594511D01*
X56565080Y-62594498D01*
X56482951Y-62471584D01*
X56482948Y-62471580D01*
X56378419Y-62367051D01*
X56378413Y-62367046D01*
X56330608Y-62335103D01*
X56325518Y-62329012D01*
X56318297Y-62325715D01*
X56303432Y-62302585D01*
X56285803Y-62281490D01*
X56283851Y-62272116D01*
X56280523Y-62266937D01*
X56275500Y-62232002D01*
X56275500Y-62081064D01*
X56295185Y-62014025D01*
X56311819Y-61993383D01*
X56329717Y-61975485D01*
X56389469Y-61915733D01*
X56468526Y-61778801D01*
X56509449Y-61626074D01*
X56509449Y-61467960D01*
X56468526Y-61315233D01*
X56441377Y-61268209D01*
X56389473Y-61178307D01*
X56389467Y-61178299D01*
X56277666Y-61066498D01*
X56277658Y-61066492D01*
X56140739Y-60987443D01*
X56140735Y-60987441D01*
X56140733Y-60987440D01*
X55988006Y-60946517D01*
X55829892Y-60946517D01*
X55677165Y-60987440D01*
X55677158Y-60987443D01*
X55540239Y-61066492D01*
X55540231Y-61066498D01*
X55428430Y-61178299D01*
X55428424Y-61178307D01*
X55349375Y-61315226D01*
X55349372Y-61315233D01*
X55308449Y-61467960D01*
X55308449Y-61626074D01*
X55336776Y-61731790D01*
X55349372Y-61778800D01*
X55349375Y-61778807D01*
X55428424Y-61915726D01*
X55428430Y-61915734D01*
X55488181Y-61975485D01*
X55502884Y-62002412D01*
X55519477Y-62028231D01*
X55520368Y-62034431D01*
X55521666Y-62036808D01*
X55524500Y-62063166D01*
X55524500Y-62232002D01*
X55504815Y-62299041D01*
X55469392Y-62335103D01*
X55421586Y-62367046D01*
X55421580Y-62367051D01*
X55317051Y-62471580D01*
X55317048Y-62471584D01*
X55234919Y-62594498D01*
X55234912Y-62594511D01*
X55178343Y-62731082D01*
X55178340Y-62731092D01*
X55149500Y-62876079D01*
X55149500Y-62876082D01*
X55149500Y-63023918D01*
X55149500Y-63023920D01*
X55149499Y-63023920D01*
X54749500Y-63023920D01*
X54749500Y-61132899D01*
X54769185Y-61065860D01*
X54785819Y-61045218D01*
X58589219Y-57241819D01*
X58650542Y-57208334D01*
X58676900Y-57205500D01*
X61884902Y-57205500D01*
X61951941Y-57225185D01*
X61972583Y-57241819D01*
X62041284Y-57310520D01*
X62041286Y-57310521D01*
X62041290Y-57310524D01*
X62142071Y-57368709D01*
X62178216Y-57389577D01*
X62330943Y-57430500D01*
X62330945Y-57430500D01*
X62489055Y-57430500D01*
X62489057Y-57430500D01*
X62641784Y-57389577D01*
X62760663Y-57320943D01*
X68399500Y-57320943D01*
X68399500Y-57479057D01*
X68418661Y-57550565D01*
X68440423Y-57631783D01*
X68440426Y-57631790D01*
X68519475Y-57768709D01*
X68519479Y-57768714D01*
X68519480Y-57768716D01*
X68631284Y-57880520D01*
X68631286Y-57880521D01*
X68631290Y-57880524D01*
X68750762Y-57949500D01*
X68768216Y-57959577D01*
X68920943Y-58000500D01*
X69018101Y-58000500D01*
X69085140Y-58020185D01*
X69105782Y-58036819D01*
X69588181Y-58519218D01*
X69621666Y-58580541D01*
X69624500Y-58606899D01*
X69624500Y-64174902D01*
X69604815Y-64241941D01*
X69588181Y-64262583D01*
X69519481Y-64331282D01*
X69519475Y-64331290D01*
X69440426Y-64468209D01*
X69440423Y-64468216D01*
X69399500Y-64620943D01*
X69399500Y-64779057D01*
X69440289Y-64931282D01*
X69440423Y-64931783D01*
X69440426Y-64931790D01*
X69519475Y-65068709D01*
X69519479Y-65068714D01*
X69519480Y-65068716D01*
X69631284Y-65180520D01*
X69631286Y-65180521D01*
X69631290Y-65180524D01*
X69706764Y-65224098D01*
X69768216Y-65259577D01*
X69920943Y-65300500D01*
X69920945Y-65300500D01*
X70079055Y-65300500D01*
X70079057Y-65300500D01*
X70231784Y-65259577D01*
X70368716Y-65180520D01*
X70412819Y-65136417D01*
X70432255Y-65125804D01*
X70448989Y-65111304D01*
X70462320Y-65109387D01*
X70474142Y-65102932D01*
X70496228Y-65104511D01*
X70518147Y-65101360D01*
X70530398Y-65106955D01*
X70543834Y-65107916D01*
X70561560Y-65121186D01*
X70581703Y-65130385D01*
X70588985Y-65141716D01*
X70599767Y-65149788D01*
X70607504Y-65170533D01*
X70619477Y-65189163D01*
X70622628Y-65211081D01*
X70624184Y-65215252D01*
X70624500Y-65224098D01*
X70624500Y-65374902D01*
X70604815Y-65441941D01*
X70588181Y-65462583D01*
X70519481Y-65531282D01*
X70519475Y-65531290D01*
X70440426Y-65668209D01*
X70440423Y-65668216D01*
X70399500Y-65820943D01*
X70399500Y-65979057D01*
X70431261Y-66097589D01*
X70440423Y-66131783D01*
X70440426Y-66131790D01*
X70519475Y-66268709D01*
X70519479Y-66268714D01*
X70519480Y-66268716D01*
X70631284Y-66380520D01*
X70631286Y-66380521D01*
X70631290Y-66380524D01*
X70694558Y-66417051D01*
X70768216Y-66459577D01*
X70920943Y-66500500D01*
X70920945Y-66500500D01*
X71079055Y-66500500D01*
X71079057Y-66500500D01*
X71231784Y-66459577D01*
X71368716Y-66380520D01*
X71480520Y-66268716D01*
X71559577Y-66131784D01*
X71600500Y-65979057D01*
X71600500Y-65820943D01*
X71559577Y-65668216D01*
X71521184Y-65601717D01*
X71480524Y-65531290D01*
X71480518Y-65531282D01*
X71411819Y-65462583D01*
X71378334Y-65401260D01*
X71375500Y-65374902D01*
X71375500Y-61684950D01*
X71395185Y-61617911D01*
X71447989Y-61572156D01*
X71517147Y-61562212D01*
X71580703Y-61591237D01*
X71618477Y-61650015D01*
X71619275Y-61652857D01*
X71640423Y-61731783D01*
X71640426Y-61731790D01*
X71719475Y-61868709D01*
X71719479Y-61868714D01*
X71719480Y-61868716D01*
X71831284Y-61980520D01*
X71831286Y-61980521D01*
X71831290Y-61980524D01*
X71968209Y-62059573D01*
X71968216Y-62059577D01*
X72120943Y-62100500D01*
X72120945Y-62100500D01*
X72279055Y-62100500D01*
X72279057Y-62100500D01*
X72431784Y-62059577D01*
X72568716Y-61980520D01*
X72680520Y-61868716D01*
X72759577Y-61731784D01*
X72800500Y-61579057D01*
X72800500Y-61420943D01*
X72759577Y-61268216D01*
X72759573Y-61268209D01*
X72680524Y-61131290D01*
X72680518Y-61131282D01*
X72611819Y-61062583D01*
X72578334Y-61001260D01*
X72575500Y-60974902D01*
X72575500Y-57550567D01*
X72575500Y-57550565D01*
X72549910Y-57455062D01*
X72500475Y-57369438D01*
X72430562Y-57299525D01*
X71636819Y-56505782D01*
X71603334Y-56444459D01*
X71600500Y-56418101D01*
X71600500Y-56320945D01*
X71600500Y-56320943D01*
X71559577Y-56168216D01*
X71553942Y-56158456D01*
X71480524Y-56031290D01*
X71480518Y-56031282D01*
X71368717Y-55919481D01*
X71368709Y-55919475D01*
X71231790Y-55840426D01*
X71231786Y-55840424D01*
X71231784Y-55840423D01*
X71079057Y-55799500D01*
X70920943Y-55799500D01*
X70768216Y-55840423D01*
X70768209Y-55840426D01*
X70631290Y-55919475D01*
X70631282Y-55919481D01*
X70519481Y-56031282D01*
X70519475Y-56031290D01*
X70440426Y-56168209D01*
X70440423Y-56168214D01*
X70414335Y-56265578D01*
X70377969Y-56325238D01*
X70315122Y-56355767D01*
X70245747Y-56347472D01*
X70232560Y-56340871D01*
X70231786Y-56340424D01*
X70231785Y-56340423D01*
X70231784Y-56340423D01*
X70079057Y-56299500D01*
X69920943Y-56299500D01*
X69768216Y-56340423D01*
X69768209Y-56340426D01*
X69631290Y-56419475D01*
X69631282Y-56419481D01*
X69519481Y-56531282D01*
X69519475Y-56531290D01*
X69440426Y-56668209D01*
X69440423Y-56668214D01*
X69414335Y-56765578D01*
X69377969Y-56825238D01*
X69315122Y-56855767D01*
X69245747Y-56847472D01*
X69232560Y-56840871D01*
X69231786Y-56840424D01*
X69231785Y-56840423D01*
X69231784Y-56840423D01*
X69079057Y-56799500D01*
X68920943Y-56799500D01*
X68768216Y-56840423D01*
X68768209Y-56840426D01*
X68631290Y-56919475D01*
X68631282Y-56919481D01*
X68519481Y-57031282D01*
X68519475Y-57031290D01*
X68440426Y-57168209D01*
X68440423Y-57168216D01*
X68399500Y-57320943D01*
X62760663Y-57320943D01*
X62778716Y-57310520D01*
X62890520Y-57198716D01*
X62969577Y-57061784D01*
X63010500Y-56909057D01*
X63010500Y-56750943D01*
X62969577Y-56598216D01*
X62924119Y-56519480D01*
X62890524Y-56461290D01*
X62890518Y-56461282D01*
X62778717Y-56349481D01*
X62778709Y-56349475D01*
X62641790Y-56270426D01*
X62641786Y-56270424D01*
X62641784Y-56270423D01*
X62489057Y-56229500D01*
X62330943Y-56229500D01*
X62178216Y-56270423D01*
X62171949Y-56273019D01*
X62102479Y-56280485D01*
X62040001Y-56249208D01*
X62004351Y-56189118D01*
X62000500Y-56158456D01*
X62000500Y-56030945D01*
X62000500Y-56030943D01*
X61959577Y-55878216D01*
X61937759Y-55840426D01*
X61880524Y-55741290D01*
X61880518Y-55741282D01*
X61768717Y-55629481D01*
X61768709Y-55629475D01*
X61631790Y-55550426D01*
X61631786Y-55550424D01*
X61631784Y-55550423D01*
X61479057Y-55509500D01*
X61320943Y-55509500D01*
X61168216Y-55550423D01*
X61168209Y-55550426D01*
X61031290Y-55629475D01*
X61031282Y-55629481D01*
X60962583Y-55698181D01*
X60901260Y-55731666D01*
X60874902Y-55734500D01*
X57990564Y-55734500D01*
X57942812Y-55747295D01*
X57942811Y-55747294D01*
X57895066Y-55760088D01*
X57895059Y-55760091D01*
X57871126Y-55773908D01*
X57852250Y-55784807D01*
X57841546Y-55790986D01*
X57809440Y-55809522D01*
X57809435Y-55809526D01*
X53469438Y-60149525D01*
X53399527Y-60219435D01*
X53350091Y-60305060D01*
X53350090Y-60305064D01*
X53324816Y-60399388D01*
X53324803Y-60399436D01*
X53324500Y-60400564D01*
X53324500Y-62409823D01*
X53304815Y-62476862D01*
X53252011Y-62522617D01*
X53182853Y-62532561D01*
X53119297Y-62503536D01*
X53081523Y-62444758D01*
X53080725Y-62441917D01*
X53069164Y-62398769D01*
X53011587Y-62299041D01*
X52990111Y-62261843D01*
X52990105Y-62261835D01*
X52878304Y-62150034D01*
X52878296Y-62150028D01*
X52741377Y-62070979D01*
X52741373Y-62070977D01*
X52741371Y-62070976D01*
X52588644Y-62030053D01*
X52430530Y-62030053D01*
X52277803Y-62070976D01*
X52277796Y-62070979D01*
X52140877Y-62150028D01*
X52140869Y-62150034D01*
X52029068Y-62261835D01*
X52029062Y-62261843D01*
X51950013Y-62398762D01*
X51950011Y-62398767D01*
X51950010Y-62398769D01*
X51909087Y-62551496D01*
X51909087Y-62709610D01*
X51922463Y-62759528D01*
X51950010Y-62862336D01*
X51950013Y-62862343D01*
X52029062Y-62999262D01*
X52029068Y-62999270D01*
X52097768Y-63067970D01*
X52131253Y-63129293D01*
X52134087Y-63155651D01*
X52134087Y-64083513D01*
X52125442Y-64112953D01*
X52118919Y-64142940D01*
X52115164Y-64147955D01*
X52114402Y-64150552D01*
X52097768Y-64171195D01*
X51929448Y-64339514D01*
X51889223Y-64366392D01*
X51844505Y-64384916D01*
X51721581Y-64467050D01*
X51617050Y-64571581D01*
X51534916Y-64694505D01*
X51516392Y-64739223D01*
X51489513Y-64779448D01*
X50143438Y-66125525D01*
X50073526Y-66195436D01*
X50024091Y-66281059D01*
X50024091Y-66281060D01*
X50024090Y-66281062D01*
X49998500Y-66376565D01*
X49998500Y-66376567D01*
X49998500Y-70220575D01*
X49978815Y-70287614D01*
X49926011Y-70333369D01*
X49856853Y-70343313D01*
X49799014Y-70318951D01*
X49793712Y-70314883D01*
X49656790Y-70235832D01*
X49656786Y-70235830D01*
X49656784Y-70235829D01*
X49504057Y-70194906D01*
X49345943Y-70194906D01*
X49207199Y-70232082D01*
X49137349Y-70230419D01*
X49079487Y-70191256D01*
X49067719Y-70174306D01*
X49050475Y-70144438D01*
X48980562Y-70074525D01*
X47368063Y-68462026D01*
X47368062Y-68462025D01*
X47305382Y-68425837D01*
X47282440Y-68412591D01*
X47282433Y-68412588D01*
X47233680Y-68399524D01*
X47233680Y-68399525D01*
X47186936Y-68387000D01*
X47186935Y-68387000D01*
X46500098Y-68387000D01*
X46433059Y-68367315D01*
X46412417Y-68350681D01*
X46343717Y-68281981D01*
X46343709Y-68281975D01*
X46206790Y-68202926D01*
X46206786Y-68202924D01*
X46206784Y-68202923D01*
X46054057Y-68162000D01*
X45895943Y-68162000D01*
X45743216Y-68202923D01*
X45743209Y-68202926D01*
X45606290Y-68281975D01*
X45606282Y-68281981D01*
X45494481Y-68393782D01*
X45494475Y-68393790D01*
X45415426Y-68530709D01*
X45415423Y-68530716D01*
X45374500Y-68683443D01*
X45374500Y-68841557D01*
X45408492Y-68968415D01*
X45415423Y-68994283D01*
X45415426Y-68994290D01*
X45494475Y-69131209D01*
X45494479Y-69131214D01*
X45494480Y-69131216D01*
X45606284Y-69243020D01*
X45606286Y-69243021D01*
X45606290Y-69243024D01*
X45692295Y-69292678D01*
X45743216Y-69322077D01*
X45895943Y-69363000D01*
X45895945Y-69363000D01*
X46054055Y-69363000D01*
X46054057Y-69363000D01*
X46206784Y-69322077D01*
X46343716Y-69243020D01*
X46412417Y-69174319D01*
X46473740Y-69140834D01*
X46500098Y-69138000D01*
X46930601Y-69138000D01*
X46997640Y-69157685D01*
X47018282Y-69174319D01*
X48338181Y-70494218D01*
X48371666Y-70555541D01*
X48374500Y-70581899D01*
X48374500Y-74934031D01*
X48396745Y-75017049D01*
X48400091Y-75029537D01*
X48432401Y-75085499D01*
X48449527Y-75115161D01*
X49031162Y-75696795D01*
X49064647Y-75758118D01*
X49067481Y-75784476D01*
X49067481Y-75872552D01*
X49095620Y-75977570D01*
X49110508Y-76033130D01*
X49107152Y-76034029D01*
X49112701Y-76087862D01*
X49081153Y-76150204D01*
X49020908Y-76185592D01*
X48953459Y-76183565D01*
X48940521Y-76179483D01*
X48902215Y-76157367D01*
X48806712Y-76131777D01*
X48792089Y-76131777D01*
X48773690Y-76126846D01*
X48773687Y-76126846D01*
X48756356Y-76122202D01*
X48756355Y-76122202D01*
X48659197Y-76122202D01*
X48592158Y-76102517D01*
X48571516Y-76085883D01*
X44548133Y-72062500D01*
X45350000Y-72062500D01*
X46650000Y-72062500D01*
X46650000Y-70262500D01*
X45350000Y-70262500D01*
X45350000Y-72062500D01*
X44548133Y-72062500D01*
X42765497Y-70279864D01*
X42732012Y-70218541D01*
X42736996Y-70148849D01*
X42760000Y-70113055D01*
X42760000Y-70109999D01*
X43360000Y-70109999D01*
X43841479Y-70109999D01*
X43935152Y-70095163D01*
X44048041Y-70037643D01*
X44048050Y-70037636D01*
X44137636Y-69948050D01*
X44137639Y-69948046D01*
X44195166Y-69835144D01*
X44210000Y-69741486D01*
X44210000Y-69260000D01*
X43360000Y-69260000D01*
X43360000Y-70109999D01*
X42760000Y-70109999D01*
X42760000Y-69260000D01*
X41905430Y-69260000D01*
X41854170Y-69287988D01*
X41784479Y-69283001D01*
X41740135Y-69254502D01*
X40885159Y-68399526D01*
X40885158Y-68399525D01*
X40799534Y-68350090D01*
X40751782Y-68337295D01*
X40751780Y-68337294D01*
X40751778Y-68337293D01*
X40704032Y-68324500D01*
X40704031Y-68324500D01*
X37715098Y-68324500D01*
X37685657Y-68315855D01*
X37655671Y-68309332D01*
X37650655Y-68305577D01*
X37648059Y-68304815D01*
X37627417Y-68288181D01*
X37558717Y-68219481D01*
X37558709Y-68219475D01*
X37487760Y-68178513D01*
X41910000Y-68178513D01*
X41910000Y-68660000D01*
X42760000Y-68660000D01*
X43360000Y-68660000D01*
X44209999Y-68660000D01*
X44209999Y-68178520D01*
X44195164Y-68084850D01*
X44195162Y-68084844D01*
X44137643Y-67971958D01*
X44137636Y-67971949D01*
X44048050Y-67882363D01*
X44048046Y-67882360D01*
X43935144Y-67824833D01*
X43841486Y-67810000D01*
X43360000Y-67810000D01*
X43360000Y-68660000D01*
X42760000Y-68660000D01*
X42760000Y-67810000D01*
X42278520Y-67810000D01*
X42184850Y-67824835D01*
X42184844Y-67824837D01*
X42071958Y-67882356D01*
X42071949Y-67882363D01*
X41982363Y-67971949D01*
X41982360Y-67971953D01*
X41924833Y-68084855D01*
X41910000Y-68178513D01*
X37487760Y-68178513D01*
X37421790Y-68140426D01*
X37421786Y-68140424D01*
X37421784Y-68140423D01*
X37269057Y-68099500D01*
X37110943Y-68099500D01*
X36958216Y-68140423D01*
X36958209Y-68140426D01*
X36821290Y-68219475D01*
X36821282Y-68219481D01*
X36709481Y-68331282D01*
X36709475Y-68331290D01*
X36630426Y-68468209D01*
X36630423Y-68468216D01*
X36589500Y-68620943D01*
X31500500Y-68620943D01*
X31500500Y-58753920D01*
X39619499Y-58753920D01*
X39648340Y-58898907D01*
X39648343Y-58898917D01*
X39704912Y-59035488D01*
X39704919Y-59035501D01*
X39787048Y-59158415D01*
X39787051Y-59158419D01*
X39891580Y-59262948D01*
X39891585Y-59262952D01*
X39958100Y-59307395D01*
X40002906Y-59361007D01*
X40013211Y-59410498D01*
X40013211Y-66097589D01*
X39993526Y-66164628D01*
X39976892Y-66185270D01*
X39908192Y-66253969D01*
X39908186Y-66253977D01*
X39829137Y-66390896D01*
X39829134Y-66390903D01*
X39788211Y-66543630D01*
X39788211Y-66701744D01*
X39822154Y-66828419D01*
X39829134Y-66854470D01*
X39829137Y-66854477D01*
X39908186Y-66991396D01*
X39908190Y-66991401D01*
X39908191Y-66991403D01*
X40019995Y-67103207D01*
X40019997Y-67103208D01*
X40020001Y-67103211D01*
X40156920Y-67182260D01*
X40156927Y-67182264D01*
X40309654Y-67223187D01*
X40309656Y-67223187D01*
X40467766Y-67223187D01*
X40467768Y-67223187D01*
X40620495Y-67182264D01*
X40757427Y-67103207D01*
X40869231Y-66991403D01*
X40948288Y-66854471D01*
X40989211Y-66701744D01*
X40989211Y-66543630D01*
X40948288Y-66390903D01*
X40942296Y-66380524D01*
X40869235Y-66253977D01*
X40869229Y-66253969D01*
X40800530Y-66185270D01*
X40767045Y-66123947D01*
X40764211Y-66097589D01*
X40764211Y-59385493D01*
X40783896Y-59318454D01*
X40819317Y-59282393D01*
X40848416Y-59262951D01*
X40952951Y-59158416D01*
X41035084Y-59035495D01*
X41091658Y-58898913D01*
X41120500Y-58753918D01*
X41120500Y-58606082D01*
X41120500Y-58606079D01*
X41091659Y-58461092D01*
X41091658Y-58461091D01*
X41091658Y-58461087D01*
X41045879Y-58350566D01*
X41035087Y-58324511D01*
X41035080Y-58324498D01*
X40952951Y-58201584D01*
X40952948Y-58201580D01*
X40848419Y-58097051D01*
X40848415Y-58097048D01*
X40819320Y-58077607D01*
X40774515Y-58023994D01*
X40764211Y-57974505D01*
X40764211Y-57612447D01*
X40783896Y-57545408D01*
X40826211Y-57505059D01*
X40868716Y-57480520D01*
X40980520Y-57368716D01*
X41059577Y-57231784D01*
X41100500Y-57079057D01*
X41100500Y-56920943D01*
X41059577Y-56768216D01*
X41001843Y-56668216D01*
X40980524Y-56631290D01*
X40980518Y-56631282D01*
X40868717Y-56519481D01*
X40868709Y-56519475D01*
X40731790Y-56440426D01*
X40731786Y-56440424D01*
X40731784Y-56440423D01*
X40579057Y-56399500D01*
X40420943Y-56399500D01*
X40268216Y-56440423D01*
X40268209Y-56440426D01*
X40131290Y-56519475D01*
X40131282Y-56519481D01*
X40019481Y-56631282D01*
X40019475Y-56631290D01*
X39940426Y-56768209D01*
X39940423Y-56768216D01*
X39899500Y-56920943D01*
X39899500Y-57079057D01*
X39940423Y-57231784D01*
X39985883Y-57310524D01*
X39996598Y-57329082D01*
X40013211Y-57391082D01*
X40013211Y-57949500D01*
X39993526Y-58016539D01*
X39958102Y-58052602D01*
X39891584Y-58097048D01*
X39891580Y-58097051D01*
X39787051Y-58201580D01*
X39787048Y-58201584D01*
X39704919Y-58324498D01*
X39704912Y-58324511D01*
X39648343Y-58461082D01*
X39648340Y-58461092D01*
X39619500Y-58606079D01*
X39619500Y-58606082D01*
X39619500Y-58753918D01*
X39619500Y-58753920D01*
X39619499Y-58753920D01*
X31500500Y-58753920D01*
X31500500Y-52493713D01*
X32149500Y-52493713D01*
X32149500Y-52706286D01*
X32182753Y-52916239D01*
X32248444Y-53118414D01*
X32344951Y-53307820D01*
X32469890Y-53479786D01*
X32620213Y-53630109D01*
X32792179Y-53755048D01*
X32792181Y-53755049D01*
X32792184Y-53755051D01*
X32981588Y-53851557D01*
X33183757Y-53917246D01*
X33393713Y-53950500D01*
X33393714Y-53950500D01*
X33606286Y-53950500D01*
X33606287Y-53950500D01*
X33816243Y-53917246D01*
X34018412Y-53851557D01*
X34207816Y-53755051D01*
X34229789Y-53739086D01*
X34379786Y-53630109D01*
X34379788Y-53630106D01*
X34379792Y-53630104D01*
X34530104Y-53479792D01*
X34530106Y-53479788D01*
X34530109Y-53479786D01*
X34655048Y-53307820D01*
X34655047Y-53307820D01*
X34655051Y-53307816D01*
X34751557Y-53118412D01*
X34817246Y-52916243D01*
X34850500Y-52706287D01*
X34850500Y-52493713D01*
X34817246Y-52283757D01*
X34751557Y-52081588D01*
X34655051Y-51892184D01*
X34655049Y-51892181D01*
X34655048Y-51892179D01*
X34530109Y-51720213D01*
X34379786Y-51569890D01*
X34207820Y-51444951D01*
X34018414Y-51348444D01*
X34018413Y-51348443D01*
X34018412Y-51348443D01*
X33816243Y-51282754D01*
X33816241Y-51282753D01*
X33816240Y-51282753D01*
X33654957Y-51257208D01*
X33606287Y-51249500D01*
X33393713Y-51249500D01*
X33345042Y-51257208D01*
X33183760Y-51282753D01*
X32981585Y-51348444D01*
X32792179Y-51444951D01*
X32620213Y-51569890D01*
X32469890Y-51720213D01*
X32344951Y-51892179D01*
X32248444Y-52081585D01*
X32182753Y-52283760D01*
X32149500Y-52493713D01*
X31500500Y-52493713D01*
X31500500Y-52304427D01*
X31500816Y-52295581D01*
X31501662Y-52283757D01*
X31517165Y-52066977D01*
X31519683Y-52049470D01*
X31563742Y-51846937D01*
X31567459Y-51829851D01*
X31572436Y-51812900D01*
X31650985Y-51602299D01*
X31658325Y-51586227D01*
X31766044Y-51388956D01*
X31775600Y-51374086D01*
X31910294Y-51194156D01*
X31921868Y-51180799D01*
X32080799Y-51021868D01*
X32094156Y-51010294D01*
X32274086Y-50875600D01*
X32288956Y-50866044D01*
X32486227Y-50758325D01*
X32502299Y-50750985D01*
X32712900Y-50672436D01*
X32729851Y-50667459D01*
X32949472Y-50619682D01*
X32966977Y-50617165D01*
X33195582Y-50600816D01*
X33204428Y-50600500D01*
X33265892Y-50600500D01*
X39546000Y-50600500D01*
X39613039Y-50620185D01*
G37*
%TD.AperFunction*%
%TD*%
M02*
