%TF.GenerationSoftware,KiCad,Pcbnew,9.0.7*%
%TF.CreationDate,2026-05-06T22:58:21+07:00*%
%TF.ProjectId,tag,7461672e-6b69-4636-9164-5f7063625858,rev?*%
%TF.SameCoordinates,Original*%
%TF.FileFunction,Paste,Top*%
%TF.FilePolarity,Positive*%
%FSLAX46Y46*%
G04 Gerber Fmt 4.6, Leading zero omitted, Abs format (unit mm)*
G04 Created by KiCad (PCBNEW 9.0.7) date 2026-05-06 22:58:21*
%MOMM*%
%LPD*%
G01*
G04 APERTURE LIST*
G04 Aperture macros list*
%AMRoundRect*
0 Rectangle with rounded corners*
0 $1 Rounding radius*
0 $2 $3 $4 $5 $6 $7 $8 $9 X,Y pos of 4 corners*
0 Add a 4 corners polygon primitive as box body*
4,1,4,$2,$3,$4,$5,$6,$7,$8,$9,$2,$3,0*
0 Add four circle primitives for the rounded corners*
1,1,$1+$1,$2,$3*
1,1,$1+$1,$4,$5*
1,1,$1+$1,$6,$7*
1,1,$1+$1,$8,$9*
0 Add four rect primitives between the rounded corners*
20,1,$1+$1,$2,$3,$4,$5,0*
20,1,$1+$1,$4,$5,$6,$7,0*
20,1,$1+$1,$6,$7,$8,$9,0*
20,1,$1+$1,$8,$9,$2,$3,0*%
G04 Aperture macros list end*
%ADD10C,0.010000*%
%ADD11RoundRect,0.237500X-0.237500X0.250000X-0.237500X-0.250000X0.237500X-0.250000X0.237500X0.250000X0*%
%ADD12RoundRect,0.200000X-0.275000X0.200000X-0.275000X-0.200000X0.275000X-0.200000X0.275000X0.200000X0*%
%ADD13RoundRect,0.237500X-0.250000X-0.237500X0.250000X-0.237500X0.250000X0.237500X-0.250000X0.237500X0*%
%ADD14RoundRect,0.250000X0.350000X0.450000X-0.350000X0.450000X-0.350000X-0.450000X0.350000X-0.450000X0*%
%ADD15RoundRect,0.200000X0.200000X0.275000X-0.200000X0.275000X-0.200000X-0.275000X0.200000X-0.275000X0*%
%ADD16RoundRect,0.187500X-0.187500X-0.712500X0.187500X-0.712500X0.187500X0.712500X-0.187500X0.712500X0*%
%ADD17RoundRect,0.150000X-0.150000X-0.750000X0.150000X-0.750000X0.150000X0.750000X-0.150000X0.750000X0*%
%ADD18RoundRect,0.225000X-0.425000X-0.225000X0.425000X-0.225000X0.425000X0.225000X-0.425000X0.225000X0*%
%ADD19RoundRect,0.237500X0.300000X0.237500X-0.300000X0.237500X-0.300000X-0.237500X0.300000X-0.237500X0*%
%ADD20RoundRect,0.250000X0.475000X-0.337500X0.475000X0.337500X-0.475000X0.337500X-0.475000X-0.337500X0*%
%ADD21RoundRect,0.250000X0.337500X0.475000X-0.337500X0.475000X-0.337500X-0.475000X0.337500X-0.475000X0*%
%ADD22RoundRect,0.150000X-0.512500X-0.150000X0.512500X-0.150000X0.512500X0.150000X-0.512500X0.150000X0*%
%ADD23RoundRect,0.150000X-0.150000X0.587500X-0.150000X-0.587500X0.150000X-0.587500X0.150000X0.587500X0*%
%ADD24RoundRect,0.237500X-0.300000X-0.237500X0.300000X-0.237500X0.300000X0.237500X-0.300000X0.237500X0*%
%ADD25R,0.600000X1.550000*%
%ADD26R,1.200000X1.800000*%
%ADD27RoundRect,0.250000X0.275000X0.250000X-0.275000X0.250000X-0.275000X-0.250000X0.275000X-0.250000X0*%
%ADD28RoundRect,0.250000X0.850000X0.275000X-0.850000X0.275000X-0.850000X-0.275000X0.850000X-0.275000X0*%
%ADD29RoundRect,0.237500X0.287500X0.237500X-0.287500X0.237500X-0.287500X-0.237500X0.287500X-0.237500X0*%
%ADD30RoundRect,0.140000X0.140000X0.170000X-0.140000X0.170000X-0.140000X-0.170000X0.140000X-0.170000X0*%
%ADD31RoundRect,0.237500X0.250000X0.237500X-0.250000X0.237500X-0.250000X-0.237500X0.250000X-0.237500X0*%
%ADD32R,1.550000X0.600000*%
%ADD33R,1.800000X1.200000*%
%ADD34RoundRect,0.250000X0.250000X0.475000X-0.250000X0.475000X-0.250000X-0.475000X0.250000X-0.475000X0*%
%ADD35RoundRect,0.200000X-0.200000X-0.275000X0.200000X-0.275000X0.200000X0.275000X-0.200000X0.275000X0*%
%ADD36RoundRect,0.237500X-0.287500X-0.237500X0.287500X-0.237500X0.287500X0.237500X-0.287500X0.237500X0*%
%ADD37RoundRect,0.250000X-0.250000X-0.475000X0.250000X-0.475000X0.250000X0.475000X-0.250000X0.475000X0*%
%ADD38R,0.250000X0.475000*%
%ADD39R,0.475000X0.250000*%
%ADD40R,2.450000X1.000000*%
%ADD41R,1.000000X2.450000*%
%ADD42R,1.450000X0.600000*%
%ADD43R,1.450000X0.300000*%
%ADD44RoundRect,0.225000X0.225000X0.250000X-0.225000X0.250000X-0.225000X-0.250000X0.225000X-0.250000X0*%
%ADD45RoundRect,0.237500X0.237500X-0.287500X0.237500X0.287500X-0.237500X0.287500X-0.237500X-0.287500X0*%
%ADD46RoundRect,0.350000X-0.550000X-0.350000X0.550000X-0.350000X0.550000X0.350000X-0.550000X0.350000X0*%
%ADD47RoundRect,0.225000X0.250000X-0.225000X0.250000X0.225000X-0.250000X0.225000X-0.250000X-0.225000X0*%
%ADD48RoundRect,0.237500X-0.237500X0.300000X-0.237500X-0.300000X0.237500X-0.300000X0.237500X0.300000X0*%
%ADD49RoundRect,0.250000X-0.350000X-0.450000X0.350000X-0.450000X0.350000X0.450000X-0.350000X0.450000X0*%
%ADD50RoundRect,0.250000X-0.475000X0.250000X-0.475000X-0.250000X0.475000X-0.250000X0.475000X0.250000X0*%
%ADD51RoundRect,0.006250X0.118750X-0.293750X0.118750X0.293750X-0.118750X0.293750X-0.118750X-0.293750X0*%
%ADD52RoundRect,0.006250X0.293750X-0.118750X0.293750X0.118750X-0.293750X0.118750X-0.293750X-0.118750X0*%
%ADD53RoundRect,0.237500X0.237500X-0.300000X0.237500X0.300000X-0.237500X0.300000X-0.237500X-0.300000X0*%
%ADD54RoundRect,0.250000X0.625000X-0.375000X0.625000X0.375000X-0.625000X0.375000X-0.625000X-0.375000X0*%
%ADD55R,1.800000X1.000000*%
%ADD56RoundRect,0.250000X0.300000X1.600000X-0.300000X1.600000X-0.300000X-1.600000X0.300000X-1.600000X0*%
%ADD57RoundRect,0.225000X0.225000X0.375000X-0.225000X0.375000X-0.225000X-0.375000X0.225000X-0.375000X0*%
%ADD58RoundRect,0.160000X-0.160000X-0.160000X0.160000X-0.160000X0.160000X0.160000X-0.160000X0.160000X0*%
%ADD59RoundRect,0.062500X-0.375000X-0.062500X0.375000X-0.062500X0.375000X0.062500X-0.375000X0.062500X0*%
%ADD60RoundRect,0.062500X-0.062500X-0.375000X0.062500X-0.375000X0.062500X0.375000X-0.062500X0.375000X0*%
%ADD61RoundRect,0.237500X0.237500X-0.250000X0.237500X0.250000X-0.237500X0.250000X-0.237500X-0.250000X0*%
%ADD62RoundRect,0.112500X0.187500X0.112500X-0.187500X0.112500X-0.187500X-0.112500X0.187500X-0.112500X0*%
%ADD63R,0.600000X1.800000*%
%ADD64R,1.800000X0.600000*%
%ADD65RoundRect,0.140000X0.180000X-0.140000X0.180000X0.140000X-0.180000X0.140000X-0.180000X-0.140000X0*%
%ADD66RoundRect,0.087500X0.087500X-0.175000X0.087500X0.175000X-0.087500X0.175000X-0.087500X-0.175000X0*%
%ADD67RoundRect,0.225000X-0.250000X0.225000X-0.250000X-0.225000X0.250000X-0.225000X0.250000X0.225000X0*%
%ADD68RoundRect,0.147500X-0.172500X0.147500X-0.172500X-0.147500X0.172500X-0.147500X0.172500X0.147500X0*%
%ADD69RoundRect,0.250000X0.315000X0.315000X-0.315000X0.315000X-0.315000X-0.315000X0.315000X-0.315000X0*%
%ADD70RoundRect,0.062500X0.375000X0.062500X-0.375000X0.062500X-0.375000X-0.062500X0.375000X-0.062500X0*%
%ADD71RoundRect,0.062500X0.062500X0.375000X-0.062500X0.375000X-0.062500X-0.375000X0.062500X-0.375000X0*%
%ADD72RoundRect,0.250000X0.350000X-0.450000X0.350000X0.450000X-0.350000X0.450000X-0.350000X-0.450000X0*%
%ADD73RoundRect,0.250000X0.300000X-0.300000X0.300000X0.300000X-0.300000X0.300000X-0.300000X-0.300000X0*%
%ADD74RoundRect,0.250000X0.475000X-0.250000X0.475000X0.250000X-0.475000X0.250000X-0.475000X-0.250000X0*%
%ADD75RoundRect,0.250000X-0.337500X-0.475000X0.337500X-0.475000X0.337500X0.475000X-0.337500X0.475000X0*%
G04 APERTURE END LIST*
D10*
%TO.C,U4*%
X68415800Y-94734500D02*
X68165800Y-94734500D01*
X68165800Y-94159500D01*
X68415800Y-94159500D01*
X68415800Y-94734500D01*
G36*
X68415800Y-94734500D02*
G01*
X68165800Y-94734500D01*
X68165800Y-94159500D01*
X68415800Y-94159500D01*
X68415800Y-94734500D01*
G37*
X68415800Y-95509500D02*
X68165800Y-95509500D01*
X68165800Y-94934500D01*
X68415800Y-94934500D01*
X68415800Y-95509500D01*
G36*
X68415800Y-95509500D02*
G01*
X68165800Y-95509500D01*
X68165800Y-94934500D01*
X68415800Y-94934500D01*
X68415800Y-95509500D01*
G37*
X68915800Y-94910000D02*
X68665800Y-94910000D01*
X68665800Y-94190000D01*
X68915800Y-94190000D01*
X68915800Y-94910000D01*
G36*
X68915800Y-94910000D02*
G01*
X68665800Y-94910000D01*
X68665800Y-94190000D01*
X68915800Y-94190000D01*
X68915800Y-94910000D01*
G37*
X68915800Y-95830000D02*
X68665800Y-95830000D01*
X68665800Y-95110000D01*
X68915800Y-95110000D01*
X68915800Y-95830000D01*
G36*
X68915800Y-95830000D02*
G01*
X68665800Y-95830000D01*
X68665800Y-95110000D01*
X68915800Y-95110000D01*
X68915800Y-95830000D01*
G37*
X69415800Y-94734500D02*
X69165800Y-94734500D01*
X69165800Y-94159500D01*
X69415800Y-94159500D01*
X69415800Y-94734500D01*
G36*
X69415800Y-94734500D02*
G01*
X69165800Y-94734500D01*
X69165800Y-94159500D01*
X69415800Y-94159500D01*
X69415800Y-94734500D01*
G37*
X69415800Y-95509500D02*
X69165800Y-95509500D01*
X69165800Y-94934500D01*
X69415800Y-94934500D01*
X69415800Y-95509500D01*
G36*
X69415800Y-95509500D02*
G01*
X69165800Y-95509500D01*
X69165800Y-94934500D01*
X69415800Y-94934500D01*
X69415800Y-95509500D01*
G37*
X67690800Y-95460000D02*
X67090800Y-95460000D01*
X67090800Y-95210000D01*
X67440800Y-95210000D01*
X67440800Y-94960000D01*
X67090800Y-94960000D01*
X67090800Y-94710000D01*
X67690800Y-94710000D01*
X67690800Y-95460000D01*
G36*
X67690800Y-95460000D02*
G01*
X67090800Y-95460000D01*
X67090800Y-95210000D01*
X67440800Y-95210000D01*
X67440800Y-94960000D01*
X67090800Y-94960000D01*
X67090800Y-94710000D01*
X67690800Y-94710000D01*
X67690800Y-95460000D01*
G37*
X70490800Y-94960000D02*
X70140800Y-94960000D01*
X70140800Y-95210000D01*
X70490800Y-95210000D01*
X70490800Y-95460000D01*
X69890800Y-95460000D01*
X69890800Y-94710000D01*
X70490800Y-94710000D01*
X70490800Y-94960000D01*
G36*
X70490800Y-94960000D02*
G01*
X70140800Y-94960000D01*
X70140800Y-95210000D01*
X70490800Y-95210000D01*
X70490800Y-95460000D01*
X69890800Y-95460000D01*
X69890800Y-94710000D01*
X70490800Y-94710000D01*
X70490800Y-94960000D01*
G37*
%TD*%
D11*
%TO.C,R26*%
X56340000Y-84600000D03*
X56340000Y-86425000D03*
%TD*%
D12*
%TO.C,R1*%
X67970000Y-98672500D03*
X67970000Y-100322500D03*
%TD*%
D13*
%TO.C,R23*%
X42450000Y-65600000D03*
X44275000Y-65600000D03*
%TD*%
D14*
%TO.C,R9*%
X74737500Y-97446800D03*
X72737500Y-97446800D03*
%TD*%
D15*
%TO.C,R6*%
X49325000Y-92203372D03*
X47675000Y-92203372D03*
%TD*%
D16*
%TO.C,SW1*%
X54525000Y-99190000D03*
X56975000Y-99190000D03*
D17*
X55750000Y-99190000D03*
D18*
X53900000Y-101140000D03*
X57600000Y-101140000D03*
%TD*%
D19*
%TO.C,C30*%
X35000000Y-58770000D03*
X33275000Y-58770000D03*
%TD*%
%TO.C,C21*%
X59582500Y-84610000D03*
X57857500Y-84610000D03*
%TD*%
D20*
%TO.C,C29*%
X65100000Y-69937500D03*
X65100000Y-67862500D03*
%TD*%
D21*
%TO.C,C23*%
X53865000Y-69980000D03*
X51790000Y-69980000D03*
%TD*%
D22*
%TO.C,U2*%
X43450250Y-78600000D03*
X43450250Y-79550000D03*
X43450250Y-80500000D03*
X45725250Y-80500000D03*
X45725250Y-79550000D03*
X45725250Y-78600000D03*
%TD*%
D23*
%TO.C,Q2*%
X63102500Y-92800000D03*
X61202500Y-92800000D03*
X62152500Y-94675000D03*
%TD*%
D24*
%TO.C,C24*%
X51095000Y-73480000D03*
X52820000Y-73480000D03*
%TD*%
%TO.C,C17*%
X71037500Y-60500000D03*
X72762500Y-60500000D03*
%TD*%
D25*
%TO.C,J8*%
X69000000Y-54400000D03*
X70000000Y-54400000D03*
X71000000Y-54400000D03*
X72000000Y-54400000D03*
X73000000Y-54400000D03*
D26*
X67700000Y-51875000D03*
X74300000Y-51875000D03*
%TD*%
D27*
%TO.C,J3*%
X77480000Y-78475000D03*
D28*
X75955000Y-79950000D03*
X75955000Y-77000000D03*
%TD*%
D29*
%TO.C,D2*%
X79675000Y-90350000D03*
X77925000Y-90350000D03*
%TD*%
%TO.C,D3*%
X79675000Y-92050000D03*
X77925000Y-92050000D03*
%TD*%
D15*
%TO.C,R19*%
X59497500Y-89510000D03*
X57847500Y-89510000D03*
%TD*%
D30*
%TO.C,C25*%
X80090000Y-74945000D03*
X79130000Y-74945000D03*
%TD*%
D21*
%TO.C,C15*%
X44032500Y-74420000D03*
X41957500Y-74420000D03*
%TD*%
D31*
%TO.C,R22*%
X47650000Y-65625000D03*
X45825000Y-65625000D03*
%TD*%
D32*
%TO.C,J7*%
X34925000Y-71700000D03*
X34925000Y-70700000D03*
X34925000Y-69700000D03*
X34925000Y-68700000D03*
D33*
X32400000Y-73000000D03*
X32400000Y-67400000D03*
%TD*%
D31*
%TO.C,R24*%
X66325000Y-86000000D03*
X64500000Y-86000000D03*
%TD*%
D34*
%TO.C,C8*%
X49272500Y-95940000D03*
X47372500Y-95940000D03*
%TD*%
D35*
%TO.C,R8*%
X47675000Y-93703372D03*
X49325000Y-93703372D03*
%TD*%
D36*
%TO.C,D7*%
X39000000Y-65600000D03*
X40750000Y-65600000D03*
%TD*%
D37*
%TO.C,C14*%
X72802500Y-90240000D03*
X74702500Y-90240000D03*
%TD*%
D31*
%TO.C,R20*%
X54022500Y-86470000D03*
X52197500Y-86470000D03*
%TD*%
D38*
%TO.C,U3*%
X46750000Y-70000000D03*
X46250000Y-70000000D03*
X45750000Y-70000000D03*
X45250000Y-70000000D03*
D39*
X45087500Y-70662500D03*
X45087500Y-71162500D03*
X45087500Y-71662500D03*
D38*
X45250000Y-72325000D03*
X45750000Y-72325000D03*
X46250000Y-72325000D03*
X46750000Y-72325000D03*
D39*
X46912500Y-71662500D03*
X46912500Y-71162500D03*
X46912500Y-70662500D03*
%TD*%
D11*
%TO.C,R7*%
X49410000Y-71895000D03*
X49410000Y-73720000D03*
%TD*%
D40*
%TO.C,U8*%
X38450000Y-51100000D03*
X38450000Y-52500000D03*
X38450000Y-53900000D03*
X38450000Y-55300000D03*
X38450000Y-56700000D03*
X38450000Y-58100000D03*
X38450000Y-59500000D03*
X38450000Y-60900000D03*
D41*
X39850000Y-63195000D03*
X41250000Y-63195000D03*
X42650000Y-63195000D03*
X44050000Y-63195000D03*
X45450000Y-63195000D03*
X46850000Y-63195000D03*
X48250000Y-63195000D03*
X49650000Y-63195000D03*
D40*
X51050000Y-60898800D03*
X51050000Y-59498800D03*
X51050000Y-58100000D03*
X51050000Y-56700000D03*
X51050000Y-55300000D03*
X51050000Y-53900000D03*
X51050000Y-52500000D03*
X51050000Y-51100000D03*
%TD*%
D42*
%TO.C,J1*%
X37578500Y-76250000D03*
X37578500Y-77050000D03*
D43*
X37578500Y-78250000D03*
X37578500Y-79250000D03*
X37578500Y-79750000D03*
X37578500Y-80750000D03*
D42*
X37578500Y-81950000D03*
X37578500Y-82750000D03*
X37578500Y-82750000D03*
X37578500Y-81950000D03*
D43*
X37578500Y-81250000D03*
X37578500Y-80250000D03*
X37578500Y-78750000D03*
X37578500Y-77750000D03*
D42*
X37578500Y-77050000D03*
X37578500Y-76250000D03*
%TD*%
D21*
%TO.C,C18*%
X59987500Y-86320000D03*
X57912500Y-86320000D03*
%TD*%
%TO.C,C32*%
X35000000Y-60620000D03*
X32925000Y-60620000D03*
%TD*%
D44*
%TO.C,C4*%
X45495000Y-96180000D03*
X43945000Y-96180000D03*
%TD*%
D45*
%TO.C,FB1*%
X63300000Y-69775000D03*
X63300000Y-68025000D03*
%TD*%
D12*
%TO.C,R11*%
X69430000Y-98672500D03*
X69430000Y-100322500D03*
%TD*%
D31*
%TO.C,R21*%
X66325000Y-84500000D03*
X64500000Y-84500000D03*
%TD*%
D46*
%TO.C,SW3*%
X60850000Y-58500000D03*
X65550000Y-58500000D03*
%TD*%
D47*
%TO.C,C3*%
X64590000Y-95060000D03*
X64590000Y-93510000D03*
%TD*%
D48*
%TO.C,C13*%
X43100000Y-69837500D03*
X43100000Y-71562500D03*
%TD*%
D13*
%TO.C,R17*%
X60712500Y-66000000D03*
X62537500Y-66000000D03*
%TD*%
D12*
%TO.C,R27*%
X50300000Y-98305000D03*
X50300000Y-99955000D03*
%TD*%
%TO.C,R5*%
X51760000Y-98305000D03*
X51760000Y-99955000D03*
%TD*%
D49*
%TO.C,R10*%
X72737500Y-99793600D03*
X74737500Y-99793600D03*
%TD*%
D50*
%TO.C,C1*%
X62640000Y-96840000D03*
X62640000Y-98740000D03*
%TD*%
D51*
%TO.C,U4*%
X68040800Y-96760000D03*
X68540800Y-96760000D03*
X69040800Y-96760000D03*
X69540800Y-96760000D03*
D52*
X70190800Y-96335000D03*
X70190800Y-95835000D03*
X67390800Y-95835000D03*
X67390800Y-96335000D03*
%TD*%
D25*
%TO.C,J2*%
X42300000Y-98165000D03*
X41300000Y-98165000D03*
D26*
X43600000Y-100690000D03*
X40000000Y-100690000D03*
%TD*%
D53*
%TO.C,CY1*%
X63700000Y-79051000D03*
X63700000Y-77326000D03*
%TD*%
D29*
%TO.C,D6*%
X51100000Y-65625000D03*
X49350000Y-65625000D03*
%TD*%
D20*
%TO.C,C28*%
X61500000Y-69937500D03*
X61500000Y-67862500D03*
%TD*%
D30*
%TO.C,C26*%
X80090000Y-77745000D03*
X79130000Y-77745000D03*
%TD*%
D19*
%TO.C,C31*%
X35000000Y-57220000D03*
X33275000Y-57220000D03*
%TD*%
D54*
%TO.C,F2*%
X34390000Y-65410000D03*
X34390000Y-62610000D03*
%TD*%
D15*
%TO.C,R12*%
X62970000Y-90930000D03*
X61320000Y-90930000D03*
%TD*%
D24*
%TO.C,C19*%
X63800000Y-72000000D03*
X65525000Y-72000000D03*
%TD*%
D34*
%TO.C,C6*%
X54980000Y-90720000D03*
X53080000Y-90720000D03*
%TD*%
D53*
%TO.C,C27*%
X61400000Y-76002500D03*
X61400000Y-74277500D03*
%TD*%
D55*
%TO.C,Y1*%
X67175000Y-79750000D03*
X67175000Y-82250000D03*
%TD*%
D56*
%TO.C,L1*%
X70300000Y-91300000D03*
X67300000Y-91300000D03*
%TD*%
D46*
%TO.C,SW2*%
X60850000Y-63000000D03*
X65550000Y-63000000D03*
%TD*%
D57*
%TO.C,D9*%
X60967500Y-96880000D03*
X57667500Y-96880000D03*
%TD*%
D31*
%TO.C,R18*%
X54022500Y-84800000D03*
X52197500Y-84800000D03*
%TD*%
D53*
%TO.C,CY3(DNP)1*%
X69375000Y-83700000D03*
X69375000Y-81975000D03*
%TD*%
D48*
%TO.C,CY2*%
X63700000Y-74001000D03*
X63700000Y-75726000D03*
%TD*%
D44*
%TO.C,C7*%
X62920000Y-89460000D03*
X61370000Y-89460000D03*
%TD*%
D58*
%TO.C,U5*%
X52100000Y-94437500D03*
X52100000Y-95237500D03*
X52900000Y-94437500D03*
X52900000Y-95237500D03*
D59*
X51062500Y-94087500D03*
X51062500Y-94587500D03*
X51062500Y-95087500D03*
X51062500Y-95587500D03*
D60*
X51750000Y-96275000D03*
X52250000Y-96275000D03*
X52750000Y-96275000D03*
X53250000Y-96275000D03*
D59*
X53937500Y-95587500D03*
X53937500Y-95087500D03*
X53937500Y-94587500D03*
X53937500Y-94087500D03*
D60*
X53250000Y-93400000D03*
X52750000Y-93400000D03*
X52250000Y-93400000D03*
X51750000Y-93400000D03*
%TD*%
D61*
%TO.C,R4*%
X40340000Y-76012500D03*
X40340000Y-74187500D03*
%TD*%
D62*
%TO.C,D1*%
X45050000Y-82300000D03*
X42950000Y-82300000D03*
%TD*%
D63*
%TO.C,U6*%
X77770000Y-62990000D03*
X76670000Y-62990000D03*
X75570000Y-62990000D03*
X74470000Y-62990000D03*
X73370000Y-62990000D03*
X72270000Y-62990000D03*
X71170000Y-62990000D03*
X70070000Y-62990000D03*
D64*
X69220000Y-65890000D03*
X69220000Y-66990000D03*
D63*
X70070000Y-72990000D03*
X71170000Y-72990000D03*
X72270000Y-72990000D03*
X73370000Y-72990000D03*
X74470000Y-72990000D03*
X75570000Y-72990000D03*
X76670000Y-72990000D03*
X77770000Y-72990000D03*
X78870000Y-72990000D03*
X79970000Y-72990000D03*
%TD*%
D25*
%TO.C,J9*%
X59410000Y-54075000D03*
X60410000Y-54075000D03*
X61410000Y-54075000D03*
X62410000Y-54075000D03*
D26*
X58110000Y-51550000D03*
X63710000Y-51550000D03*
%TD*%
D65*
%TO.C,U1*%
X44765229Y-93900000D03*
X45565229Y-93900000D03*
X44765229Y-93200000D03*
X45565229Y-93200000D03*
D66*
X44415229Y-94837500D03*
X44915229Y-94837500D03*
X45415229Y-94837500D03*
X45915229Y-94837500D03*
X45915229Y-92262500D03*
X45415229Y-92262500D03*
X44915229Y-92262500D03*
X44415229Y-92262500D03*
%TD*%
D37*
%TO.C,C11*%
X72787500Y-95070000D03*
X74687500Y-95070000D03*
%TD*%
D61*
%TO.C,R16*%
X73000000Y-77012500D03*
X73000000Y-75187500D03*
%TD*%
D67*
%TO.C,C5*%
X70890000Y-98722500D03*
X70890000Y-100272500D03*
%TD*%
D29*
%TO.C,D4*%
X79675000Y-93750000D03*
X77925000Y-93750000D03*
%TD*%
D53*
%TO.C,C22*%
X50430000Y-82892500D03*
X50430000Y-81167500D03*
%TD*%
D68*
%TO.C,L2*%
X80050000Y-75870000D03*
X80050000Y-76840000D03*
%TD*%
D69*
%TO.C,U7*%
X57800000Y-80600000D03*
X57800000Y-79200000D03*
X57800000Y-77800000D03*
X57800000Y-76400000D03*
X56400000Y-80600000D03*
X56400000Y-79200000D03*
X56400000Y-77800000D03*
X56400000Y-76400000D03*
X55000000Y-80600000D03*
X55000000Y-79200000D03*
X55000000Y-77800000D03*
X55000000Y-76400000D03*
X53600000Y-80600000D03*
X53600000Y-79200000D03*
X53600000Y-77800000D03*
X53600000Y-76400000D03*
D70*
X59137500Y-81250000D03*
X59137500Y-80750000D03*
X59137500Y-80250000D03*
X59137500Y-79750000D03*
X59137500Y-79250000D03*
X59137500Y-78750000D03*
X59137500Y-78250000D03*
X59137500Y-77750000D03*
X59137500Y-77250000D03*
X59137500Y-76750000D03*
X59137500Y-76250000D03*
X59137500Y-75750000D03*
D71*
X58450000Y-75062500D03*
X57950000Y-75062500D03*
X57450000Y-75062500D03*
X56950000Y-75062500D03*
X56450000Y-75062500D03*
X55950000Y-75062500D03*
X55450000Y-75062500D03*
X54950000Y-75062500D03*
X54450000Y-75062500D03*
X53950000Y-75062500D03*
X53450000Y-75062500D03*
X52950000Y-75062500D03*
D70*
X52262500Y-75750000D03*
X52262500Y-76250000D03*
X52262500Y-76750000D03*
X52262500Y-77250000D03*
X52262500Y-77750000D03*
X52262500Y-78250000D03*
X52262500Y-78750000D03*
X52262500Y-79250000D03*
X52262500Y-79750000D03*
X52262500Y-80250000D03*
X52262500Y-80750000D03*
X52262500Y-81250000D03*
D71*
X52950000Y-81937500D03*
X53450000Y-81937500D03*
X53950000Y-81937500D03*
X54450000Y-81937500D03*
X54950000Y-81937500D03*
X55450000Y-81937500D03*
X55950000Y-81937500D03*
X56450000Y-81937500D03*
X56950000Y-81937500D03*
X57450000Y-81937500D03*
X57950000Y-81937500D03*
X58450000Y-81937500D03*
%TD*%
D31*
%TO.C,R25*%
X52870000Y-71980000D03*
X51045000Y-71980000D03*
%TD*%
D48*
%TO.C,C20*%
X61100000Y-82820000D03*
X61100000Y-84545000D03*
%TD*%
D15*
%TO.C,R14*%
X61000000Y-100290000D03*
X59350000Y-100290000D03*
%TD*%
D72*
%TO.C,Y2*%
X67400000Y-77626000D03*
X67400000Y-75426000D03*
X65700000Y-75426000D03*
X65700000Y-77626000D03*
%TD*%
D23*
%TO.C,Q3*%
X59630000Y-92800000D03*
X57730000Y-92800000D03*
X58680000Y-94675000D03*
%TD*%
D32*
%TO.C,J6*%
X76950000Y-83130000D03*
X76950000Y-84130000D03*
X76950000Y-85130000D03*
X76950000Y-86130000D03*
D33*
X79475000Y-81830000D03*
X79475000Y-87430000D03*
%TD*%
D29*
%TO.C,D5*%
X79675000Y-95450000D03*
X77925000Y-95450000D03*
%TD*%
D12*
%TO.C,R2*%
X66510000Y-98672500D03*
X66510000Y-100322500D03*
%TD*%
D15*
%TO.C,R13*%
X59497500Y-90980000D03*
X57847500Y-90980000D03*
%TD*%
D32*
%TO.C,J5*%
X41975000Y-93000000D03*
X41975000Y-92000000D03*
X41975000Y-91000000D03*
X41975000Y-90000000D03*
D33*
X39450000Y-94300000D03*
X39450000Y-88700000D03*
%TD*%
D50*
%TO.C,C2*%
X64600000Y-96850000D03*
X64600000Y-98750000D03*
%TD*%
D73*
%TO.C,D8*%
X42800000Y-86850000D03*
X42800000Y-84050000D03*
%TD*%
D35*
%TO.C,R28*%
X59350000Y-98830000D03*
X61000000Y-98830000D03*
%TD*%
D48*
%TO.C,CY4(DNP)1*%
X69375000Y-78350000D03*
X69375000Y-80075000D03*
%TD*%
D37*
%TO.C,C12*%
X72787500Y-92663200D03*
X74687500Y-92663200D03*
%TD*%
D11*
%TO.C,R3*%
X40400000Y-83600000D03*
X40400000Y-85425000D03*
%TD*%
D13*
%TO.C,R15*%
X64100000Y-66000000D03*
X65925000Y-66000000D03*
%TD*%
D74*
%TO.C,C9*%
X55750000Y-94853372D03*
X55750000Y-92953372D03*
%TD*%
D48*
%TO.C,C10*%
X45620000Y-74037500D03*
X45620000Y-75762500D03*
%TD*%
D75*
%TO.C,C16*%
X71062500Y-58700000D03*
X73137500Y-58700000D03*
%TD*%
M02*
