%TF.GenerationSoftware,KiCad,Pcbnew,9.0.7*%
%TF.CreationDate,2026-04-10T12:35:05+07:00*%
%TF.ProjectId,tag,7461672e-6b69-4636-9164-5f7063625858,rev?*%
%TF.SameCoordinates,Original*%
%TF.FileFunction,Legend,Top*%
%TF.FilePolarity,Positive*%
%FSLAX46Y46*%
G04 Gerber Fmt 4.6, Leading zero omitted, Abs format (unit mm)*
G04 Created by KiCad (PCBNEW 9.0.7) date 2026-04-10 12:35:05*
%MOMM*%
%LPD*%
G01*
G04 APERTURE LIST*
%ADD10C,0.005999*%
%ADD11C,0.150000*%
%ADD12C,0.350000*%
%ADD13C,0.120000*%
%ADD14C,0.200000*%
%ADD15C,0.127000*%
%ADD16C,0.100000*%
%ADD17C,0.000000*%
G04 APERTURE END LIST*
D10*
X48845083Y-83138899D02*
X48858935Y-83161339D01*
X48880176Y-83196916D01*
X48908081Y-83244079D01*
X48941681Y-83301318D01*
X48980142Y-83367140D01*
X49022558Y-83440039D01*
X49068097Y-83518518D01*
X49115860Y-83600957D01*
X49164996Y-83685977D01*
X49214618Y-83772018D01*
X49263818Y-83857519D01*
X49311819Y-83940979D01*
X49357660Y-84020959D01*
X49400497Y-84095900D01*
X49439435Y-84164239D01*
X49473703Y-84224536D01*
X49502258Y-84275297D01*
X49524396Y-84314898D01*
X49539099Y-84341957D01*
X49545636Y-84354857D01*
X49545883Y-84355639D01*
X49537781Y-84366617D01*
X49515341Y-84383357D01*
X49481201Y-84404240D01*
X49438061Y-84427696D01*
X49392880Y-84449898D01*
X49331439Y-84476896D01*
X49266757Y-84501140D01*
X49196737Y-84523218D01*
X49119037Y-84543556D01*
X49031503Y-84562819D01*
X48931903Y-84581537D01*
X48818020Y-84600140D01*
X48700183Y-84617480D01*
X48597763Y-84632898D01*
X48511777Y-84648137D01*
X48440082Y-84663980D01*
X48380435Y-84681196D01*
X48330758Y-84700519D01*
X48288882Y-84722720D01*
X48252582Y-84748520D01*
X48219760Y-84778760D01*
X48209195Y-84789979D01*
X48186279Y-84816076D01*
X48169296Y-84837440D01*
X48161441Y-84849978D01*
X48161258Y-84850999D01*
X48158502Y-84857298D01*
X48148962Y-84857358D01*
X48130661Y-84850400D01*
X48101675Y-84835458D01*
X48060037Y-84811819D01*
X48031115Y-84794777D01*
X47988040Y-84768139D01*
X47954495Y-84745398D01*
X47932898Y-84728058D01*
X47925335Y-84717859D01*
X47925335Y-84717799D01*
X47930023Y-84708017D01*
X47943216Y-84683659D01*
X47964163Y-84645976D01*
X47992123Y-84596300D01*
X48026263Y-84535939D01*
X48065860Y-84466217D01*
X48110199Y-84388580D01*
X48158438Y-84304219D01*
X48209799Y-84214520D01*
X48263623Y-84120798D01*
X48319003Y-84024379D01*
X48375281Y-83926637D01*
X48431677Y-83828836D01*
X48487414Y-83732358D01*
X48541659Y-83638516D01*
X48593735Y-83548579D01*
X48642880Y-83463980D01*
X48688235Y-83385977D01*
X48729159Y-83315898D01*
X48764801Y-83255116D01*
X48794381Y-83204959D01*
X48817178Y-83166740D01*
X48832422Y-83141719D01*
X48839316Y-83131337D01*
X48839618Y-83131099D01*
X48845083Y-83138899D01*
G36*
X48845083Y-83138899D02*
G01*
X48858935Y-83161339D01*
X48880176Y-83196916D01*
X48908081Y-83244079D01*
X48941681Y-83301318D01*
X48980142Y-83367140D01*
X49022558Y-83440039D01*
X49068097Y-83518518D01*
X49115860Y-83600957D01*
X49164996Y-83685977D01*
X49214618Y-83772018D01*
X49263818Y-83857519D01*
X49311819Y-83940979D01*
X49357660Y-84020959D01*
X49400497Y-84095900D01*
X49439435Y-84164239D01*
X49473703Y-84224536D01*
X49502258Y-84275297D01*
X49524396Y-84314898D01*
X49539099Y-84341957D01*
X49545636Y-84354857D01*
X49545883Y-84355639D01*
X49537781Y-84366617D01*
X49515341Y-84383357D01*
X49481201Y-84404240D01*
X49438061Y-84427696D01*
X49392880Y-84449898D01*
X49331439Y-84476896D01*
X49266757Y-84501140D01*
X49196737Y-84523218D01*
X49119037Y-84543556D01*
X49031503Y-84562819D01*
X48931903Y-84581537D01*
X48818020Y-84600140D01*
X48700183Y-84617480D01*
X48597763Y-84632898D01*
X48511777Y-84648137D01*
X48440082Y-84663980D01*
X48380435Y-84681196D01*
X48330758Y-84700519D01*
X48288882Y-84722720D01*
X48252582Y-84748520D01*
X48219760Y-84778760D01*
X48209195Y-84789979D01*
X48186279Y-84816076D01*
X48169296Y-84837440D01*
X48161441Y-84849978D01*
X48161258Y-84850999D01*
X48158502Y-84857298D01*
X48148962Y-84857358D01*
X48130661Y-84850400D01*
X48101675Y-84835458D01*
X48060037Y-84811819D01*
X48031115Y-84794777D01*
X47988040Y-84768139D01*
X47954495Y-84745398D01*
X47932898Y-84728058D01*
X47925335Y-84717859D01*
X47925335Y-84717799D01*
X47930023Y-84708017D01*
X47943216Y-84683659D01*
X47964163Y-84645976D01*
X47992123Y-84596300D01*
X48026263Y-84535939D01*
X48065860Y-84466217D01*
X48110199Y-84388580D01*
X48158438Y-84304219D01*
X48209799Y-84214520D01*
X48263623Y-84120798D01*
X48319003Y-84024379D01*
X48375281Y-83926637D01*
X48431677Y-83828836D01*
X48487414Y-83732358D01*
X48541659Y-83638516D01*
X48593735Y-83548579D01*
X48642880Y-83463980D01*
X48688235Y-83385977D01*
X48729159Y-83315898D01*
X48764801Y-83255116D01*
X48794381Y-83204959D01*
X48817178Y-83166740D01*
X48832422Y-83141719D01*
X48839316Y-83131337D01*
X48839618Y-83131099D01*
X48845083Y-83138899D01*
G37*
X47739941Y-85062138D02*
X47759442Y-85069636D01*
X47789197Y-85084637D01*
X47831915Y-85108157D01*
X47835220Y-85110020D01*
X47874579Y-85132519D01*
X47907757Y-85152199D01*
X47931579Y-85167140D01*
X47942676Y-85175297D01*
X47942978Y-85175718D01*
X47940277Y-85187057D01*
X47927981Y-85212376D01*
X47906796Y-85250297D01*
X47877582Y-85299498D01*
X47841098Y-85358476D01*
X47798196Y-85425978D01*
X47787521Y-85442540D01*
X47759735Y-85488440D01*
X47739456Y-85527977D01*
X47728598Y-85557498D01*
X47727463Y-85563316D01*
X47727939Y-85588997D01*
X47733523Y-85629738D01*
X47743475Y-85682898D01*
X47757098Y-85745959D01*
X47773715Y-85816157D01*
X47792621Y-85890979D01*
X47813138Y-85967778D01*
X47834561Y-86043977D01*
X47856158Y-86116940D01*
X47877334Y-86184076D01*
X47897320Y-86242697D01*
X47915375Y-86290277D01*
X47928036Y-86318480D01*
X47942859Y-86348536D01*
X47956903Y-86377339D01*
X47957681Y-86378900D01*
X47980899Y-86407936D01*
X48014801Y-86427496D01*
X48054223Y-86436917D01*
X48094177Y-86435356D01*
X48129397Y-86422278D01*
X48149255Y-86405057D01*
X48177820Y-86357779D01*
X48198703Y-86298860D01*
X48210220Y-86234297D01*
X48211841Y-86197699D01*
X48205295Y-86129359D01*
X48186041Y-86072839D01*
X48153100Y-86025259D01*
X48142837Y-86014639D01*
X48112295Y-85984939D01*
X48110199Y-85775059D01*
X48108102Y-85565120D01*
X48161560Y-85484118D01*
X48186700Y-85447456D01*
X48210815Y-85414520D01*
X48230618Y-85389796D01*
X48239142Y-85380737D01*
X48263257Y-85358298D01*
X48295895Y-85375880D01*
X48316476Y-85388478D01*
X48327756Y-85398260D01*
X48328479Y-85400000D01*
X48336215Y-85407438D01*
X48349417Y-85413019D01*
X48362143Y-85417999D01*
X48381698Y-85427479D01*
X48409659Y-85442416D01*
X48447763Y-85463716D01*
X48497677Y-85492276D01*
X48561096Y-85529057D01*
X48595538Y-85549158D01*
X48636041Y-85573277D01*
X48662619Y-85590439D01*
X48677615Y-85602620D01*
X48683319Y-85611976D01*
X48682174Y-85620317D01*
X48681222Y-85622299D01*
X48671921Y-85634599D01*
X48651935Y-85657638D01*
X48623736Y-85688840D01*
X48589477Y-85725676D01*
X48559897Y-85756877D01*
X48491681Y-85830980D01*
X48438342Y-85895176D01*
X48399341Y-85950140D01*
X48374255Y-85996576D01*
X48365796Y-86020160D01*
X48362317Y-86040736D01*
X48358719Y-86075957D01*
X48355295Y-86121678D01*
X48352420Y-86173936D01*
X48351037Y-86206996D01*
X48349179Y-86264120D01*
X48348337Y-86305877D01*
X48348822Y-86335458D01*
X48350799Y-86356158D01*
X48354635Y-86371040D01*
X48360522Y-86383459D01*
X48365136Y-86391076D01*
X48391723Y-86420236D01*
X48426037Y-86440579D01*
X48462100Y-86449460D01*
X48489163Y-86446278D01*
X48513635Y-86432358D01*
X48544296Y-86407519D01*
X48576880Y-86375957D01*
X48607120Y-86342119D01*
X48630575Y-86310318D01*
X48639218Y-86294960D01*
X48652182Y-86273898D01*
X48675757Y-86241859D01*
X48707736Y-86201297D01*
X48746078Y-86154738D01*
X48788495Y-86104699D01*
X48832962Y-86053636D01*
X48877237Y-86004138D01*
X48919241Y-85958600D01*
X48956796Y-85919658D01*
X48986258Y-85891038D01*
X49018960Y-85862419D01*
X49046435Y-85841357D01*
X49065762Y-85829959D01*
X49072180Y-85828760D01*
X49082022Y-85833800D01*
X49106503Y-85847299D01*
X49144241Y-85868539D01*
X49193799Y-85896678D01*
X49253857Y-85930818D01*
X49322915Y-85970176D01*
X49399536Y-86014039D01*
X49482400Y-86061496D01*
X49569998Y-86111717D01*
X49661020Y-86163980D01*
X49753955Y-86217438D01*
X49847439Y-86271197D01*
X49940017Y-86324536D01*
X50030380Y-86376680D01*
X50117016Y-86426658D01*
X50198498Y-86473817D01*
X50273498Y-86517199D01*
X50340515Y-86556137D01*
X50398239Y-86589737D01*
X50445160Y-86617157D01*
X50479895Y-86637678D01*
X50501016Y-86650400D01*
X50507196Y-86654419D01*
X50498919Y-86655197D01*
X50472937Y-86655980D01*
X50430099Y-86656698D01*
X50371295Y-86657417D01*
X50297320Y-86658076D01*
X50209118Y-86658740D01*
X50107541Y-86659340D01*
X49993356Y-86659880D01*
X49867599Y-86660420D01*
X49730975Y-86660837D01*
X49584399Y-86661258D01*
X49428814Y-86661619D01*
X49264963Y-86661857D01*
X49093841Y-86662100D01*
X48916183Y-86662219D01*
X48732940Y-86662338D01*
X48656018Y-86662338D01*
X46796078Y-86662338D01*
X46928738Y-86432298D01*
X46956817Y-86383638D01*
X46992935Y-86320938D01*
X47035956Y-86246300D01*
X47084616Y-86161879D01*
X47137716Y-86069717D01*
X47194003Y-85971980D01*
X47252377Y-85870700D01*
X47311538Y-85767978D01*
X47370343Y-85665919D01*
X47385156Y-85640120D01*
X47439401Y-85546159D01*
X47491055Y-85456698D01*
X47539422Y-85373179D01*
X47583761Y-85296856D01*
X47623239Y-85229057D01*
X47657077Y-85171219D01*
X47684561Y-85124536D01*
X47704840Y-85090396D01*
X47717199Y-85070176D01*
X47720678Y-85065017D01*
X47727939Y-85060939D01*
X47739941Y-85062138D01*
G36*
X47739941Y-85062138D02*
G01*
X47759442Y-85069636D01*
X47789197Y-85084637D01*
X47831915Y-85108157D01*
X47835220Y-85110020D01*
X47874579Y-85132519D01*
X47907757Y-85152199D01*
X47931579Y-85167140D01*
X47942676Y-85175297D01*
X47942978Y-85175718D01*
X47940277Y-85187057D01*
X47927981Y-85212376D01*
X47906796Y-85250297D01*
X47877582Y-85299498D01*
X47841098Y-85358476D01*
X47798196Y-85425978D01*
X47787521Y-85442540D01*
X47759735Y-85488440D01*
X47739456Y-85527977D01*
X47728598Y-85557498D01*
X47727463Y-85563316D01*
X47727939Y-85588997D01*
X47733523Y-85629738D01*
X47743475Y-85682898D01*
X47757098Y-85745959D01*
X47773715Y-85816157D01*
X47792621Y-85890979D01*
X47813138Y-85967778D01*
X47834561Y-86043977D01*
X47856158Y-86116940D01*
X47877334Y-86184076D01*
X47897320Y-86242697D01*
X47915375Y-86290277D01*
X47928036Y-86318480D01*
X47942859Y-86348536D01*
X47956903Y-86377339D01*
X47957681Y-86378900D01*
X47980899Y-86407936D01*
X48014801Y-86427496D01*
X48054223Y-86436917D01*
X48094177Y-86435356D01*
X48129397Y-86422278D01*
X48149255Y-86405057D01*
X48177820Y-86357779D01*
X48198703Y-86298860D01*
X48210220Y-86234297D01*
X48211841Y-86197699D01*
X48205295Y-86129359D01*
X48186041Y-86072839D01*
X48153100Y-86025259D01*
X48142837Y-86014639D01*
X48112295Y-85984939D01*
X48110199Y-85775059D01*
X48108102Y-85565120D01*
X48161560Y-85484118D01*
X48186700Y-85447456D01*
X48210815Y-85414520D01*
X48230618Y-85389796D01*
X48239142Y-85380737D01*
X48263257Y-85358298D01*
X48295895Y-85375880D01*
X48316476Y-85388478D01*
X48327756Y-85398260D01*
X48328479Y-85400000D01*
X48336215Y-85407438D01*
X48349417Y-85413019D01*
X48362143Y-85417999D01*
X48381698Y-85427479D01*
X48409659Y-85442416D01*
X48447763Y-85463716D01*
X48497677Y-85492276D01*
X48561096Y-85529057D01*
X48595538Y-85549158D01*
X48636041Y-85573277D01*
X48662619Y-85590439D01*
X48677615Y-85602620D01*
X48683319Y-85611976D01*
X48682174Y-85620317D01*
X48681222Y-85622299D01*
X48671921Y-85634599D01*
X48651935Y-85657638D01*
X48623736Y-85688840D01*
X48589477Y-85725676D01*
X48559897Y-85756877D01*
X48491681Y-85830980D01*
X48438342Y-85895176D01*
X48399341Y-85950140D01*
X48374255Y-85996576D01*
X48365796Y-86020160D01*
X48362317Y-86040736D01*
X48358719Y-86075957D01*
X48355295Y-86121678D01*
X48352420Y-86173936D01*
X48351037Y-86206996D01*
X48349179Y-86264120D01*
X48348337Y-86305877D01*
X48348822Y-86335458D01*
X48350799Y-86356158D01*
X48354635Y-86371040D01*
X48360522Y-86383459D01*
X48365136Y-86391076D01*
X48391723Y-86420236D01*
X48426037Y-86440579D01*
X48462100Y-86449460D01*
X48489163Y-86446278D01*
X48513635Y-86432358D01*
X48544296Y-86407519D01*
X48576880Y-86375957D01*
X48607120Y-86342119D01*
X48630575Y-86310318D01*
X48639218Y-86294960D01*
X48652182Y-86273898D01*
X48675757Y-86241859D01*
X48707736Y-86201297D01*
X48746078Y-86154738D01*
X48788495Y-86104699D01*
X48832962Y-86053636D01*
X48877237Y-86004138D01*
X48919241Y-85958600D01*
X48956796Y-85919658D01*
X48986258Y-85891038D01*
X49018960Y-85862419D01*
X49046435Y-85841357D01*
X49065762Y-85829959D01*
X49072180Y-85828760D01*
X49082022Y-85833800D01*
X49106503Y-85847299D01*
X49144241Y-85868539D01*
X49193799Y-85896678D01*
X49253857Y-85930818D01*
X49322915Y-85970176D01*
X49399536Y-86014039D01*
X49482400Y-86061496D01*
X49569998Y-86111717D01*
X49661020Y-86163980D01*
X49753955Y-86217438D01*
X49847439Y-86271197D01*
X49940017Y-86324536D01*
X50030380Y-86376680D01*
X50117016Y-86426658D01*
X50198498Y-86473817D01*
X50273498Y-86517199D01*
X50340515Y-86556137D01*
X50398239Y-86589737D01*
X50445160Y-86617157D01*
X50479895Y-86637678D01*
X50501016Y-86650400D01*
X50507196Y-86654419D01*
X50498919Y-86655197D01*
X50472937Y-86655980D01*
X50430099Y-86656698D01*
X50371295Y-86657417D01*
X50297320Y-86658076D01*
X50209118Y-86658740D01*
X50107541Y-86659340D01*
X49993356Y-86659880D01*
X49867599Y-86660420D01*
X49730975Y-86660837D01*
X49584399Y-86661258D01*
X49428814Y-86661619D01*
X49264963Y-86661857D01*
X49093841Y-86662100D01*
X48916183Y-86662219D01*
X48732940Y-86662338D01*
X48656018Y-86662338D01*
X46796078Y-86662338D01*
X46928738Y-86432298D01*
X46956817Y-86383638D01*
X46992935Y-86320938D01*
X47035956Y-86246300D01*
X47084616Y-86161879D01*
X47137716Y-86069717D01*
X47194003Y-85971980D01*
X47252377Y-85870700D01*
X47311538Y-85767978D01*
X47370343Y-85665919D01*
X47385156Y-85640120D01*
X47439401Y-85546159D01*
X47491055Y-85456698D01*
X47539422Y-85373179D01*
X47583761Y-85296856D01*
X47623239Y-85229057D01*
X47657077Y-85171219D01*
X47684561Y-85124536D01*
X47704840Y-85090396D01*
X47717199Y-85070176D01*
X47720678Y-85065017D01*
X47727939Y-85060939D01*
X47739941Y-85062138D01*
G37*
D11*
X57700000Y-73970000D02*
X57700000Y-57670000D01*
D10*
X49939175Y-85028177D02*
X49946023Y-85039639D01*
X49961377Y-85065860D01*
X49984475Y-85105580D01*
X50014596Y-85157477D01*
X50050961Y-85220236D01*
X50092782Y-85292540D01*
X50139337Y-85373056D01*
X50189856Y-85460539D01*
X50243615Y-85553598D01*
X50298877Y-85649417D01*
X50355337Y-85747278D01*
X50409518Y-85841238D01*
X50460696Y-85929916D01*
X50508038Y-86011938D01*
X50550757Y-86085977D01*
X50588083Y-86150659D01*
X50619220Y-86204657D01*
X50643399Y-86246538D01*
X50659842Y-86274978D01*
X50667578Y-86288299D01*
X50680176Y-86310798D01*
X50687015Y-86324898D01*
X50687436Y-86327356D01*
X50679040Y-86322737D01*
X50655823Y-86309540D01*
X50618982Y-86288418D01*
X50569662Y-86260037D01*
X50509118Y-86225178D01*
X50438559Y-86184497D01*
X50359183Y-86138656D01*
X50272235Y-86088440D01*
X50178943Y-86034497D01*
X50080478Y-85977560D01*
X50042978Y-85955839D01*
X49942782Y-85897877D01*
X49847137Y-85842557D01*
X49757315Y-85790719D01*
X49674515Y-85742956D01*
X49600000Y-85700000D01*
X49534961Y-85662619D01*
X49480661Y-85631418D01*
X49438363Y-85607179D01*
X49409195Y-85590617D01*
X49394500Y-85582396D01*
X49392935Y-85581618D01*
X49397439Y-85574536D01*
X49413040Y-85555699D01*
X49438235Y-85526777D01*
X49471295Y-85489520D01*
X49510782Y-85445657D01*
X49555002Y-85396997D01*
X49602398Y-85345160D01*
X49651297Y-85292000D01*
X49700259Y-85239137D01*
X49747537Y-85188380D01*
X49791583Y-85141459D01*
X49830823Y-85100119D01*
X49863635Y-85066038D01*
X49888482Y-85041017D01*
X49896997Y-85032860D01*
X49925195Y-85006337D01*
X49939175Y-85028177D01*
G36*
X49939175Y-85028177D02*
G01*
X49946023Y-85039639D01*
X49961377Y-85065860D01*
X49984475Y-85105580D01*
X50014596Y-85157477D01*
X50050961Y-85220236D01*
X50092782Y-85292540D01*
X50139337Y-85373056D01*
X50189856Y-85460539D01*
X50243615Y-85553598D01*
X50298877Y-85649417D01*
X50355337Y-85747278D01*
X50409518Y-85841238D01*
X50460696Y-85929916D01*
X50508038Y-86011938D01*
X50550757Y-86085977D01*
X50588083Y-86150659D01*
X50619220Y-86204657D01*
X50643399Y-86246538D01*
X50659842Y-86274978D01*
X50667578Y-86288299D01*
X50680176Y-86310798D01*
X50687015Y-86324898D01*
X50687436Y-86327356D01*
X50679040Y-86322737D01*
X50655823Y-86309540D01*
X50618982Y-86288418D01*
X50569662Y-86260037D01*
X50509118Y-86225178D01*
X50438559Y-86184497D01*
X50359183Y-86138656D01*
X50272235Y-86088440D01*
X50178943Y-86034497D01*
X50080478Y-85977560D01*
X50042978Y-85955839D01*
X49942782Y-85897877D01*
X49847137Y-85842557D01*
X49757315Y-85790719D01*
X49674515Y-85742956D01*
X49600000Y-85700000D01*
X49534961Y-85662619D01*
X49480661Y-85631418D01*
X49438363Y-85607179D01*
X49409195Y-85590617D01*
X49394500Y-85582396D01*
X49392935Y-85581618D01*
X49397439Y-85574536D01*
X49413040Y-85555699D01*
X49438235Y-85526777D01*
X49471295Y-85489520D01*
X49510782Y-85445657D01*
X49555002Y-85396997D01*
X49602398Y-85345160D01*
X49651297Y-85292000D01*
X49700259Y-85239137D01*
X49747537Y-85188380D01*
X49791583Y-85141459D01*
X49830823Y-85100119D01*
X49863635Y-85066038D01*
X49888482Y-85041017D01*
X49896997Y-85032860D01*
X49925195Y-85006337D01*
X49939175Y-85028177D01*
G37*
D12*
X55252038Y-73483546D02*
X56871085Y-73483546D01*
X56871085Y-73483546D02*
X57061561Y-73388308D01*
X57061561Y-73388308D02*
X57156800Y-73293070D01*
X57156800Y-73293070D02*
X57252038Y-73102594D01*
X57252038Y-73102594D02*
X57252038Y-72721641D01*
X57252038Y-72721641D02*
X57156800Y-72531165D01*
X57156800Y-72531165D02*
X57061561Y-72435927D01*
X57061561Y-72435927D02*
X56871085Y-72340689D01*
X56871085Y-72340689D02*
X55252038Y-72340689D01*
X55252038Y-71578784D02*
X57252038Y-71102594D01*
X57252038Y-71102594D02*
X55823466Y-70721641D01*
X55823466Y-70721641D02*
X57252038Y-70340689D01*
X57252038Y-70340689D02*
X55252038Y-69864499D01*
X56204419Y-68435927D02*
X56299657Y-68150213D01*
X56299657Y-68150213D02*
X56394895Y-68054975D01*
X56394895Y-68054975D02*
X56585371Y-67959737D01*
X56585371Y-67959737D02*
X56871085Y-67959737D01*
X56871085Y-67959737D02*
X57061561Y-68054975D01*
X57061561Y-68054975D02*
X57156800Y-68150213D01*
X57156800Y-68150213D02*
X57252038Y-68340689D01*
X57252038Y-68340689D02*
X57252038Y-69102594D01*
X57252038Y-69102594D02*
X55252038Y-69102594D01*
X55252038Y-69102594D02*
X55252038Y-68435927D01*
X55252038Y-68435927D02*
X55347276Y-68245451D01*
X55347276Y-68245451D02*
X55442514Y-68150213D01*
X55442514Y-68150213D02*
X55632990Y-68054975D01*
X55632990Y-68054975D02*
X55823466Y-68054975D01*
X55823466Y-68054975D02*
X56013942Y-68150213D01*
X56013942Y-68150213D02*
X56109180Y-68245451D01*
X56109180Y-68245451D02*
X56204419Y-68435927D01*
X56204419Y-68435927D02*
X56204419Y-69102594D01*
X56490133Y-67102594D02*
X56490133Y-65578785D01*
X57252038Y-63483547D02*
X56299657Y-64150214D01*
X57252038Y-64626404D02*
X55252038Y-64626404D01*
X55252038Y-64626404D02*
X55252038Y-63864499D01*
X55252038Y-63864499D02*
X55347276Y-63674023D01*
X55347276Y-63674023D02*
X55442514Y-63578785D01*
X55442514Y-63578785D02*
X55632990Y-63483547D01*
X55632990Y-63483547D02*
X55918704Y-63483547D01*
X55918704Y-63483547D02*
X56109180Y-63578785D01*
X56109180Y-63578785D02*
X56204419Y-63674023D01*
X56204419Y-63674023D02*
X56299657Y-63864499D01*
X56299657Y-63864499D02*
X56299657Y-64626404D01*
X55252038Y-62912118D02*
X55252038Y-61769261D01*
X57252038Y-62340690D02*
X55252038Y-62340690D01*
X57252038Y-60150213D02*
X57252038Y-61102594D01*
X57252038Y-61102594D02*
X55252038Y-61102594D01*
X57156800Y-59578784D02*
X57252038Y-59293070D01*
X57252038Y-59293070D02*
X57252038Y-58816879D01*
X57252038Y-58816879D02*
X57156800Y-58626403D01*
X57156800Y-58626403D02*
X57061561Y-58531165D01*
X57061561Y-58531165D02*
X56871085Y-58435927D01*
X56871085Y-58435927D02*
X56680609Y-58435927D01*
X56680609Y-58435927D02*
X56490133Y-58531165D01*
X56490133Y-58531165D02*
X56394895Y-58626403D01*
X56394895Y-58626403D02*
X56299657Y-58816879D01*
X56299657Y-58816879D02*
X56204419Y-59197832D01*
X56204419Y-59197832D02*
X56109180Y-59388308D01*
X56109180Y-59388308D02*
X56013942Y-59483546D01*
X56013942Y-59483546D02*
X55823466Y-59578784D01*
X55823466Y-59578784D02*
X55632990Y-59578784D01*
X55632990Y-59578784D02*
X55442514Y-59483546D01*
X55442514Y-59483546D02*
X55347276Y-59388308D01*
X55347276Y-59388308D02*
X55252038Y-59197832D01*
X55252038Y-59197832D02*
X55252038Y-58721641D01*
X55252038Y-58721641D02*
X55347276Y-58435927D01*
D13*
X36256379Y-72978943D02*
X36232569Y-73026562D01*
X36232569Y-73026562D02*
X36232569Y-73097991D01*
X36232569Y-73097991D02*
X36256379Y-73169419D01*
X36256379Y-73169419D02*
X36303998Y-73217038D01*
X36303998Y-73217038D02*
X36351617Y-73240848D01*
X36351617Y-73240848D02*
X36446855Y-73264657D01*
X36446855Y-73264657D02*
X36518283Y-73264657D01*
X36518283Y-73264657D02*
X36613521Y-73240848D01*
X36613521Y-73240848D02*
X36661140Y-73217038D01*
X36661140Y-73217038D02*
X36708760Y-73169419D01*
X36708760Y-73169419D02*
X36732569Y-73097991D01*
X36732569Y-73097991D02*
X36732569Y-73050372D01*
X36732569Y-73050372D02*
X36708760Y-72978943D01*
X36708760Y-72978943D02*
X36684950Y-72955134D01*
X36684950Y-72955134D02*
X36518283Y-72955134D01*
X36518283Y-72955134D02*
X36518283Y-73050372D01*
X36732569Y-72740848D02*
X36232569Y-72740848D01*
X36232569Y-72740848D02*
X36732569Y-72455134D01*
X36732569Y-72455134D02*
X36232569Y-72455134D01*
X36732569Y-72217038D02*
X36232569Y-72217038D01*
X36232569Y-72217038D02*
X36232569Y-72097990D01*
X36232569Y-72097990D02*
X36256379Y-72026562D01*
X36256379Y-72026562D02*
X36303998Y-71978943D01*
X36303998Y-71978943D02*
X36351617Y-71955133D01*
X36351617Y-71955133D02*
X36446855Y-71931324D01*
X36446855Y-71931324D02*
X36518283Y-71931324D01*
X36518283Y-71931324D02*
X36613521Y-71955133D01*
X36613521Y-71955133D02*
X36661140Y-71978943D01*
X36661140Y-71978943D02*
X36708760Y-72026562D01*
X36708760Y-72026562D02*
X36732569Y-72097990D01*
X36732569Y-72097990D02*
X36732569Y-72217038D01*
X36232569Y-71383705D02*
X36232569Y-71074181D01*
X36232569Y-71074181D02*
X36423045Y-71240848D01*
X36423045Y-71240848D02*
X36423045Y-71169419D01*
X36423045Y-71169419D02*
X36446855Y-71121800D01*
X36446855Y-71121800D02*
X36470664Y-71097991D01*
X36470664Y-71097991D02*
X36518283Y-71074181D01*
X36518283Y-71074181D02*
X36637331Y-71074181D01*
X36637331Y-71074181D02*
X36684950Y-71097991D01*
X36684950Y-71097991D02*
X36708760Y-71121800D01*
X36708760Y-71121800D02*
X36732569Y-71169419D01*
X36732569Y-71169419D02*
X36732569Y-71312276D01*
X36732569Y-71312276D02*
X36708760Y-71359895D01*
X36708760Y-71359895D02*
X36684950Y-71383705D01*
X36232569Y-70931324D02*
X36732569Y-70764658D01*
X36732569Y-70764658D02*
X36232569Y-70597991D01*
X36232569Y-70478944D02*
X36232569Y-70169420D01*
X36232569Y-70169420D02*
X36423045Y-70336087D01*
X36423045Y-70336087D02*
X36423045Y-70264658D01*
X36423045Y-70264658D02*
X36446855Y-70217039D01*
X36446855Y-70217039D02*
X36470664Y-70193230D01*
X36470664Y-70193230D02*
X36518283Y-70169420D01*
X36518283Y-70169420D02*
X36637331Y-70169420D01*
X36637331Y-70169420D02*
X36684950Y-70193230D01*
X36684950Y-70193230D02*
X36708760Y-70217039D01*
X36708760Y-70217039D02*
X36732569Y-70264658D01*
X36732569Y-70264658D02*
X36732569Y-70407515D01*
X36732569Y-70407515D02*
X36708760Y-70455134D01*
X36708760Y-70455134D02*
X36684950Y-70478944D01*
X36732569Y-69288469D02*
X36494474Y-69455135D01*
X36732569Y-69574183D02*
X36232569Y-69574183D01*
X36232569Y-69574183D02*
X36232569Y-69383707D01*
X36232569Y-69383707D02*
X36256379Y-69336088D01*
X36256379Y-69336088D02*
X36280188Y-69312278D01*
X36280188Y-69312278D02*
X36327807Y-69288469D01*
X36327807Y-69288469D02*
X36399236Y-69288469D01*
X36399236Y-69288469D02*
X36446855Y-69312278D01*
X36446855Y-69312278D02*
X36470664Y-69336088D01*
X36470664Y-69336088D02*
X36494474Y-69383707D01*
X36494474Y-69383707D02*
X36494474Y-69574183D01*
X36232569Y-69121802D02*
X36732569Y-68788469D01*
X36232569Y-68788469D02*
X36732569Y-69121802D01*
X36232569Y-68288469D02*
X36232569Y-68002755D01*
X36732569Y-68145612D02*
X36232569Y-68145612D01*
X36232569Y-67883708D02*
X36732569Y-67550375D01*
X36232569Y-67550375D02*
X36732569Y-67883708D01*
D14*
X58693409Y-73511993D02*
X58741028Y-73369136D01*
X58741028Y-73369136D02*
X58788647Y-73321517D01*
X58788647Y-73321517D02*
X58883885Y-73273898D01*
X58883885Y-73273898D02*
X59026742Y-73273898D01*
X59026742Y-73273898D02*
X59121980Y-73321517D01*
X59121980Y-73321517D02*
X59169600Y-73369136D01*
X59169600Y-73369136D02*
X59217219Y-73464374D01*
X59217219Y-73464374D02*
X59217219Y-73845326D01*
X59217219Y-73845326D02*
X58217219Y-73845326D01*
X58217219Y-73845326D02*
X58217219Y-73511993D01*
X58217219Y-73511993D02*
X58264838Y-73416755D01*
X58264838Y-73416755D02*
X58312457Y-73369136D01*
X58312457Y-73369136D02*
X58407695Y-73321517D01*
X58407695Y-73321517D02*
X58502933Y-73321517D01*
X58502933Y-73321517D02*
X58598171Y-73369136D01*
X58598171Y-73369136D02*
X58645790Y-73416755D01*
X58645790Y-73416755D02*
X58693409Y-73511993D01*
X58693409Y-73511993D02*
X58693409Y-73845326D01*
X58217219Y-72654850D02*
X58217219Y-72464374D01*
X58217219Y-72464374D02*
X58264838Y-72369136D01*
X58264838Y-72369136D02*
X58360076Y-72273898D01*
X58360076Y-72273898D02*
X58550552Y-72226279D01*
X58550552Y-72226279D02*
X58883885Y-72226279D01*
X58883885Y-72226279D02*
X59074361Y-72273898D01*
X59074361Y-72273898D02*
X59169600Y-72369136D01*
X59169600Y-72369136D02*
X59217219Y-72464374D01*
X59217219Y-72464374D02*
X59217219Y-72654850D01*
X59217219Y-72654850D02*
X59169600Y-72750088D01*
X59169600Y-72750088D02*
X59074361Y-72845326D01*
X59074361Y-72845326D02*
X58883885Y-72892945D01*
X58883885Y-72892945D02*
X58550552Y-72892945D01*
X58550552Y-72892945D02*
X58360076Y-72845326D01*
X58360076Y-72845326D02*
X58264838Y-72750088D01*
X58264838Y-72750088D02*
X58217219Y-72654850D01*
X58931504Y-71845326D02*
X58931504Y-71369136D01*
X59217219Y-71940564D02*
X58217219Y-71607231D01*
X58217219Y-71607231D02*
X59217219Y-71273898D01*
X59217219Y-70369136D02*
X58741028Y-70702469D01*
X59217219Y-70940564D02*
X58217219Y-70940564D01*
X58217219Y-70940564D02*
X58217219Y-70559612D01*
X58217219Y-70559612D02*
X58264838Y-70464374D01*
X58264838Y-70464374D02*
X58312457Y-70416755D01*
X58312457Y-70416755D02*
X58407695Y-70369136D01*
X58407695Y-70369136D02*
X58550552Y-70369136D01*
X58550552Y-70369136D02*
X58645790Y-70416755D01*
X58645790Y-70416755D02*
X58693409Y-70464374D01*
X58693409Y-70464374D02*
X58741028Y-70559612D01*
X58741028Y-70559612D02*
X58741028Y-70940564D01*
X59217219Y-69940564D02*
X58217219Y-69940564D01*
X58217219Y-69940564D02*
X58217219Y-69702469D01*
X58217219Y-69702469D02*
X58264838Y-69559612D01*
X58264838Y-69559612D02*
X58360076Y-69464374D01*
X58360076Y-69464374D02*
X58455314Y-69416755D01*
X58455314Y-69416755D02*
X58645790Y-69369136D01*
X58645790Y-69369136D02*
X58788647Y-69369136D01*
X58788647Y-69369136D02*
X58979123Y-69416755D01*
X58979123Y-69416755D02*
X59074361Y-69464374D01*
X59074361Y-69464374D02*
X59169600Y-69559612D01*
X59169600Y-69559612D02*
X59217219Y-69702469D01*
X59217219Y-69702469D02*
X59217219Y-69940564D01*
X59121980Y-68940564D02*
X59169600Y-68892945D01*
X59169600Y-68892945D02*
X59217219Y-68940564D01*
X59217219Y-68940564D02*
X59169600Y-68988183D01*
X59169600Y-68988183D02*
X59121980Y-68940564D01*
X59121980Y-68940564D02*
X59217219Y-68940564D01*
X58598171Y-68940564D02*
X58645790Y-68892945D01*
X58645790Y-68892945D02*
X58693409Y-68940564D01*
X58693409Y-68940564D02*
X58645790Y-68988183D01*
X58645790Y-68988183D02*
X58598171Y-68940564D01*
X58598171Y-68940564D02*
X58693409Y-68940564D01*
X58217219Y-67845326D02*
X58217219Y-67273898D01*
X59217219Y-67559612D02*
X58217219Y-67559612D01*
X58931504Y-66988183D02*
X58931504Y-66511993D01*
X59217219Y-67083421D02*
X58217219Y-66750088D01*
X58217219Y-66750088D02*
X59217219Y-66416755D01*
X58264838Y-65559612D02*
X58217219Y-65654850D01*
X58217219Y-65654850D02*
X58217219Y-65797707D01*
X58217219Y-65797707D02*
X58264838Y-65940564D01*
X58264838Y-65940564D02*
X58360076Y-66035802D01*
X58360076Y-66035802D02*
X58455314Y-66083421D01*
X58455314Y-66083421D02*
X58645790Y-66131040D01*
X58645790Y-66131040D02*
X58788647Y-66131040D01*
X58788647Y-66131040D02*
X58979123Y-66083421D01*
X58979123Y-66083421D02*
X59074361Y-66035802D01*
X59074361Y-66035802D02*
X59169600Y-65940564D01*
X59169600Y-65940564D02*
X59217219Y-65797707D01*
X59217219Y-65797707D02*
X59217219Y-65702469D01*
X59217219Y-65702469D02*
X59169600Y-65559612D01*
X59169600Y-65559612D02*
X59121980Y-65511993D01*
X59121980Y-65511993D02*
X58788647Y-65511993D01*
X58788647Y-65511993D02*
X58788647Y-65702469D01*
X59550552Y-64845326D02*
X58121980Y-64845326D01*
X59217219Y-63559612D02*
X58741028Y-63892945D01*
X59217219Y-64131040D02*
X58217219Y-64131040D01*
X58217219Y-64131040D02*
X58217219Y-63750088D01*
X58217219Y-63750088D02*
X58264838Y-63654850D01*
X58264838Y-63654850D02*
X58312457Y-63607231D01*
X58312457Y-63607231D02*
X58407695Y-63559612D01*
X58407695Y-63559612D02*
X58550552Y-63559612D01*
X58550552Y-63559612D02*
X58645790Y-63607231D01*
X58645790Y-63607231D02*
X58693409Y-63654850D01*
X58693409Y-63654850D02*
X58741028Y-63750088D01*
X58741028Y-63750088D02*
X58741028Y-64131040D01*
X58693409Y-63131040D02*
X58693409Y-62797707D01*
X59217219Y-62654850D02*
X59217219Y-63131040D01*
X59217219Y-63131040D02*
X58217219Y-63131040D01*
X58217219Y-63131040D02*
X58217219Y-62654850D01*
X58217219Y-62369135D02*
X59217219Y-62035802D01*
X59217219Y-62035802D02*
X58217219Y-61702469D01*
X59121980Y-61369135D02*
X59169600Y-61321516D01*
X59169600Y-61321516D02*
X59217219Y-61369135D01*
X59217219Y-61369135D02*
X59169600Y-61416754D01*
X59169600Y-61416754D02*
X59121980Y-61369135D01*
X59121980Y-61369135D02*
X59217219Y-61369135D01*
X58598171Y-61369135D02*
X58645790Y-61321516D01*
X58645790Y-61321516D02*
X58693409Y-61369135D01*
X58693409Y-61369135D02*
X58645790Y-61416754D01*
X58645790Y-61416754D02*
X58598171Y-61369135D01*
X58598171Y-61369135D02*
X58693409Y-61369135D01*
X58550552Y-60226278D02*
X59217219Y-59988183D01*
X59217219Y-59988183D02*
X58550552Y-59750088D01*
X59217219Y-58845326D02*
X59217219Y-59416754D01*
X59217219Y-59131040D02*
X58217219Y-59131040D01*
X58217219Y-59131040D02*
X58360076Y-59226278D01*
X58360076Y-59226278D02*
X58455314Y-59321516D01*
X58455314Y-59321516D02*
X58502933Y-59416754D01*
X59121980Y-58416754D02*
X59169600Y-58369135D01*
X59169600Y-58369135D02*
X59217219Y-58416754D01*
X59217219Y-58416754D02*
X59169600Y-58464373D01*
X59169600Y-58464373D02*
X59121980Y-58416754D01*
X59121980Y-58416754D02*
X59217219Y-58416754D01*
X58550552Y-57511993D02*
X59217219Y-57511993D01*
X58169600Y-57750088D02*
X58883885Y-57988183D01*
X58883885Y-57988183D02*
X58883885Y-57369136D01*
D11*
X32763220Y-87611133D02*
X32001316Y-87611133D01*
X32382268Y-87230180D02*
X32382268Y-87992085D01*
D13*
X57050375Y-55332569D02*
X57359899Y-55332569D01*
X57359899Y-55332569D02*
X57193232Y-55523045D01*
X57193232Y-55523045D02*
X57264661Y-55523045D01*
X57264661Y-55523045D02*
X57312280Y-55546855D01*
X57312280Y-55546855D02*
X57336089Y-55570664D01*
X57336089Y-55570664D02*
X57359899Y-55618283D01*
X57359899Y-55618283D02*
X57359899Y-55737331D01*
X57359899Y-55737331D02*
X57336089Y-55784950D01*
X57336089Y-55784950D02*
X57312280Y-55808760D01*
X57312280Y-55808760D02*
X57264661Y-55832569D01*
X57264661Y-55832569D02*
X57121804Y-55832569D01*
X57121804Y-55832569D02*
X57074185Y-55808760D01*
X57074185Y-55808760D02*
X57050375Y-55784950D01*
X57502756Y-55332569D02*
X57669422Y-55832569D01*
X57669422Y-55832569D02*
X57836089Y-55332569D01*
X57955136Y-55332569D02*
X58264660Y-55332569D01*
X58264660Y-55332569D02*
X58097993Y-55523045D01*
X58097993Y-55523045D02*
X58169422Y-55523045D01*
X58169422Y-55523045D02*
X58217041Y-55546855D01*
X58217041Y-55546855D02*
X58240850Y-55570664D01*
X58240850Y-55570664D02*
X58264660Y-55618283D01*
X58264660Y-55618283D02*
X58264660Y-55737331D01*
X58264660Y-55737331D02*
X58240850Y-55784950D01*
X58240850Y-55784950D02*
X58217041Y-55808760D01*
X58217041Y-55808760D02*
X58169422Y-55832569D01*
X58169422Y-55832569D02*
X58026565Y-55832569D01*
X58026565Y-55832569D02*
X57978946Y-55808760D01*
X57978946Y-55808760D02*
X57955136Y-55784950D01*
X59121802Y-55356379D02*
X59074183Y-55332569D01*
X59074183Y-55332569D02*
X59002754Y-55332569D01*
X59002754Y-55332569D02*
X58931326Y-55356379D01*
X58931326Y-55356379D02*
X58883707Y-55403998D01*
X58883707Y-55403998D02*
X58859897Y-55451617D01*
X58859897Y-55451617D02*
X58836088Y-55546855D01*
X58836088Y-55546855D02*
X58836088Y-55618283D01*
X58836088Y-55618283D02*
X58859897Y-55713521D01*
X58859897Y-55713521D02*
X58883707Y-55761140D01*
X58883707Y-55761140D02*
X58931326Y-55808760D01*
X58931326Y-55808760D02*
X59002754Y-55832569D01*
X59002754Y-55832569D02*
X59050373Y-55832569D01*
X59050373Y-55832569D02*
X59121802Y-55808760D01*
X59121802Y-55808760D02*
X59145611Y-55784950D01*
X59145611Y-55784950D02*
X59145611Y-55618283D01*
X59145611Y-55618283D02*
X59050373Y-55618283D01*
X59359897Y-55832569D02*
X59359897Y-55332569D01*
X59359897Y-55332569D02*
X59645611Y-55832569D01*
X59645611Y-55832569D02*
X59645611Y-55332569D01*
X59883707Y-55832569D02*
X59883707Y-55332569D01*
X59883707Y-55332569D02*
X60002755Y-55332569D01*
X60002755Y-55332569D02*
X60074183Y-55356379D01*
X60074183Y-55356379D02*
X60121802Y-55403998D01*
X60121802Y-55403998D02*
X60145612Y-55451617D01*
X60145612Y-55451617D02*
X60169421Y-55546855D01*
X60169421Y-55546855D02*
X60169421Y-55618283D01*
X60169421Y-55618283D02*
X60145612Y-55713521D01*
X60145612Y-55713521D02*
X60121802Y-55761140D01*
X60121802Y-55761140D02*
X60074183Y-55808760D01*
X60074183Y-55808760D02*
X60002755Y-55832569D01*
X60002755Y-55832569D02*
X59883707Y-55832569D01*
X60740850Y-55689712D02*
X60978945Y-55689712D01*
X60693231Y-55832569D02*
X60859897Y-55332569D01*
X60859897Y-55332569D02*
X61026564Y-55832569D01*
X61193230Y-55332569D02*
X61193230Y-55737331D01*
X61193230Y-55737331D02*
X61217040Y-55784950D01*
X61217040Y-55784950D02*
X61240849Y-55808760D01*
X61240849Y-55808760D02*
X61288468Y-55832569D01*
X61288468Y-55832569D02*
X61383706Y-55832569D01*
X61383706Y-55832569D02*
X61431325Y-55808760D01*
X61431325Y-55808760D02*
X61455135Y-55784950D01*
X61455135Y-55784950D02*
X61478944Y-55737331D01*
X61478944Y-55737331D02*
X61478944Y-55332569D01*
X61669421Y-55332569D02*
X62002754Y-55832569D01*
X62002754Y-55332569D02*
X61669421Y-55832569D01*
X62455135Y-55832569D02*
X62169421Y-55832569D01*
X62312278Y-55832569D02*
X62312278Y-55332569D01*
X62312278Y-55332569D02*
X62264659Y-55403998D01*
X62264659Y-55403998D02*
X62217040Y-55451617D01*
X62217040Y-55451617D02*
X62169421Y-55475426D01*
X63026563Y-55689712D02*
X63264658Y-55689712D01*
X62978944Y-55832569D02*
X63145610Y-55332569D01*
X63145610Y-55332569D02*
X63312277Y-55832569D01*
X63478943Y-55332569D02*
X63478943Y-55737331D01*
X63478943Y-55737331D02*
X63502753Y-55784950D01*
X63502753Y-55784950D02*
X63526562Y-55808760D01*
X63526562Y-55808760D02*
X63574181Y-55832569D01*
X63574181Y-55832569D02*
X63669419Y-55832569D01*
X63669419Y-55832569D02*
X63717038Y-55808760D01*
X63717038Y-55808760D02*
X63740848Y-55784950D01*
X63740848Y-55784950D02*
X63764657Y-55737331D01*
X63764657Y-55737331D02*
X63764657Y-55332569D01*
X63955134Y-55332569D02*
X64288467Y-55832569D01*
X64288467Y-55332569D02*
X63955134Y-55832569D01*
X64455134Y-55380188D02*
X64478943Y-55356379D01*
X64478943Y-55356379D02*
X64526562Y-55332569D01*
X64526562Y-55332569D02*
X64645610Y-55332569D01*
X64645610Y-55332569D02*
X64693229Y-55356379D01*
X64693229Y-55356379D02*
X64717038Y-55380188D01*
X64717038Y-55380188D02*
X64740848Y-55427807D01*
X64740848Y-55427807D02*
X64740848Y-55475426D01*
X64740848Y-55475426D02*
X64717038Y-55546855D01*
X64717038Y-55546855D02*
X64431324Y-55832569D01*
X64431324Y-55832569D02*
X64740848Y-55832569D01*
X43884950Y-94416291D02*
X43908760Y-94440100D01*
X43908760Y-94440100D02*
X43932569Y-94511529D01*
X43932569Y-94511529D02*
X43932569Y-94559148D01*
X43932569Y-94559148D02*
X43908760Y-94630576D01*
X43908760Y-94630576D02*
X43861140Y-94678195D01*
X43861140Y-94678195D02*
X43813521Y-94702005D01*
X43813521Y-94702005D02*
X43718283Y-94725814D01*
X43718283Y-94725814D02*
X43646855Y-94725814D01*
X43646855Y-94725814D02*
X43551617Y-94702005D01*
X43551617Y-94702005D02*
X43503998Y-94678195D01*
X43503998Y-94678195D02*
X43456379Y-94630576D01*
X43456379Y-94630576D02*
X43432569Y-94559148D01*
X43432569Y-94559148D02*
X43432569Y-94511529D01*
X43432569Y-94511529D02*
X43456379Y-94440100D01*
X43456379Y-94440100D02*
X43480188Y-94416291D01*
X43932569Y-93963910D02*
X43932569Y-94202005D01*
X43932569Y-94202005D02*
X43432569Y-94202005D01*
X43932569Y-93797243D02*
X43432569Y-93797243D01*
X43932569Y-93511529D02*
X43646855Y-93725814D01*
X43432569Y-93511529D02*
X43718283Y-93797243D01*
X43932569Y-92916291D02*
X43432569Y-92916291D01*
X43432569Y-92916291D02*
X43432569Y-92797243D01*
X43432569Y-92797243D02*
X43456379Y-92725815D01*
X43456379Y-92725815D02*
X43503998Y-92678196D01*
X43503998Y-92678196D02*
X43551617Y-92654386D01*
X43551617Y-92654386D02*
X43646855Y-92630577D01*
X43646855Y-92630577D02*
X43718283Y-92630577D01*
X43718283Y-92630577D02*
X43813521Y-92654386D01*
X43813521Y-92654386D02*
X43861140Y-92678196D01*
X43861140Y-92678196D02*
X43908760Y-92725815D01*
X43908760Y-92725815D02*
X43932569Y-92797243D01*
X43932569Y-92797243D02*
X43932569Y-92916291D01*
X43932569Y-92416291D02*
X43432569Y-92416291D01*
X43432569Y-92082958D02*
X43432569Y-91987720D01*
X43432569Y-91987720D02*
X43456379Y-91940101D01*
X43456379Y-91940101D02*
X43503998Y-91892482D01*
X43503998Y-91892482D02*
X43599236Y-91868672D01*
X43599236Y-91868672D02*
X43765902Y-91868672D01*
X43765902Y-91868672D02*
X43861140Y-91892482D01*
X43861140Y-91892482D02*
X43908760Y-91940101D01*
X43908760Y-91940101D02*
X43932569Y-91987720D01*
X43932569Y-91987720D02*
X43932569Y-92082958D01*
X43932569Y-92082958D02*
X43908760Y-92130577D01*
X43908760Y-92130577D02*
X43861140Y-92178196D01*
X43861140Y-92178196D02*
X43765902Y-92202005D01*
X43765902Y-92202005D02*
X43599236Y-92202005D01*
X43599236Y-92202005D02*
X43503998Y-92178196D01*
X43503998Y-92178196D02*
X43456379Y-92130577D01*
X43456379Y-92130577D02*
X43432569Y-92082958D01*
X43456379Y-91011529D02*
X43432569Y-91059148D01*
X43432569Y-91059148D02*
X43432569Y-91130577D01*
X43432569Y-91130577D02*
X43456379Y-91202005D01*
X43456379Y-91202005D02*
X43503998Y-91249624D01*
X43503998Y-91249624D02*
X43551617Y-91273434D01*
X43551617Y-91273434D02*
X43646855Y-91297243D01*
X43646855Y-91297243D02*
X43718283Y-91297243D01*
X43718283Y-91297243D02*
X43813521Y-91273434D01*
X43813521Y-91273434D02*
X43861140Y-91249624D01*
X43861140Y-91249624D02*
X43908760Y-91202005D01*
X43908760Y-91202005D02*
X43932569Y-91130577D01*
X43932569Y-91130577D02*
X43932569Y-91082958D01*
X43932569Y-91082958D02*
X43908760Y-91011529D01*
X43908760Y-91011529D02*
X43884950Y-90987720D01*
X43884950Y-90987720D02*
X43718283Y-90987720D01*
X43718283Y-90987720D02*
X43718283Y-91082958D01*
X43932569Y-90773434D02*
X43432569Y-90773434D01*
X43432569Y-90773434D02*
X43932569Y-90487720D01*
X43932569Y-90487720D02*
X43432569Y-90487720D01*
X43932569Y-90249624D02*
X43432569Y-90249624D01*
X43432569Y-90249624D02*
X43432569Y-90130576D01*
X43432569Y-90130576D02*
X43456379Y-90059148D01*
X43456379Y-90059148D02*
X43503998Y-90011529D01*
X43503998Y-90011529D02*
X43551617Y-89987719D01*
X43551617Y-89987719D02*
X43646855Y-89963910D01*
X43646855Y-89963910D02*
X43718283Y-89963910D01*
X43718283Y-89963910D02*
X43813521Y-89987719D01*
X43813521Y-89987719D02*
X43861140Y-90011529D01*
X43861140Y-90011529D02*
X43908760Y-90059148D01*
X43908760Y-90059148D02*
X43932569Y-90130576D01*
X43932569Y-90130576D02*
X43932569Y-90249624D01*
X43432569Y-89416291D02*
X43432569Y-89106767D01*
X43432569Y-89106767D02*
X43623045Y-89273434D01*
X43623045Y-89273434D02*
X43623045Y-89202005D01*
X43623045Y-89202005D02*
X43646855Y-89154386D01*
X43646855Y-89154386D02*
X43670664Y-89130577D01*
X43670664Y-89130577D02*
X43718283Y-89106767D01*
X43718283Y-89106767D02*
X43837331Y-89106767D01*
X43837331Y-89106767D02*
X43884950Y-89130577D01*
X43884950Y-89130577D02*
X43908760Y-89154386D01*
X43908760Y-89154386D02*
X43932569Y-89202005D01*
X43932569Y-89202005D02*
X43932569Y-89344862D01*
X43932569Y-89344862D02*
X43908760Y-89392481D01*
X43908760Y-89392481D02*
X43884950Y-89416291D01*
X43432569Y-88963910D02*
X43932569Y-88797244D01*
X43932569Y-88797244D02*
X43432569Y-88630577D01*
X43432569Y-88511530D02*
X43432569Y-88202006D01*
X43432569Y-88202006D02*
X43623045Y-88368673D01*
X43623045Y-88368673D02*
X43623045Y-88297244D01*
X43623045Y-88297244D02*
X43646855Y-88249625D01*
X43646855Y-88249625D02*
X43670664Y-88225816D01*
X43670664Y-88225816D02*
X43718283Y-88202006D01*
X43718283Y-88202006D02*
X43837331Y-88202006D01*
X43837331Y-88202006D02*
X43884950Y-88225816D01*
X43884950Y-88225816D02*
X43908760Y-88249625D01*
X43908760Y-88249625D02*
X43932569Y-88297244D01*
X43932569Y-88297244D02*
X43932569Y-88440101D01*
X43932569Y-88440101D02*
X43908760Y-88487720D01*
X43908760Y-88487720D02*
X43884950Y-88511530D01*
D11*
X32311133Y-95036779D02*
X32311133Y-95798684D01*
D13*
X75398760Y-88175814D02*
X75422569Y-88104386D01*
X75422569Y-88104386D02*
X75422569Y-87985338D01*
X75422569Y-87985338D02*
X75398760Y-87937719D01*
X75398760Y-87937719D02*
X75374950Y-87913910D01*
X75374950Y-87913910D02*
X75327331Y-87890100D01*
X75327331Y-87890100D02*
X75279712Y-87890100D01*
X75279712Y-87890100D02*
X75232093Y-87913910D01*
X75232093Y-87913910D02*
X75208283Y-87937719D01*
X75208283Y-87937719D02*
X75184474Y-87985338D01*
X75184474Y-87985338D02*
X75160664Y-88080576D01*
X75160664Y-88080576D02*
X75136855Y-88128195D01*
X75136855Y-88128195D02*
X75113045Y-88152005D01*
X75113045Y-88152005D02*
X75065426Y-88175814D01*
X75065426Y-88175814D02*
X75017807Y-88175814D01*
X75017807Y-88175814D02*
X74970188Y-88152005D01*
X74970188Y-88152005D02*
X74946379Y-88128195D01*
X74946379Y-88128195D02*
X74922569Y-88080576D01*
X74922569Y-88080576D02*
X74922569Y-87961529D01*
X74922569Y-87961529D02*
X74946379Y-87890100D01*
X75422569Y-87675815D02*
X74922569Y-87675815D01*
X74922569Y-87675815D02*
X74922569Y-87556767D01*
X74922569Y-87556767D02*
X74946379Y-87485339D01*
X74946379Y-87485339D02*
X74993998Y-87437720D01*
X74993998Y-87437720D02*
X75041617Y-87413910D01*
X75041617Y-87413910D02*
X75136855Y-87390101D01*
X75136855Y-87390101D02*
X75208283Y-87390101D01*
X75208283Y-87390101D02*
X75303521Y-87413910D01*
X75303521Y-87413910D02*
X75351140Y-87437720D01*
X75351140Y-87437720D02*
X75398760Y-87485339D01*
X75398760Y-87485339D02*
X75422569Y-87556767D01*
X75422569Y-87556767D02*
X75422569Y-87675815D01*
X75279712Y-87199624D02*
X75279712Y-86961529D01*
X75422569Y-87247243D02*
X74922569Y-87080577D01*
X74922569Y-87080577D02*
X75422569Y-86913910D01*
X75398760Y-86390101D02*
X75422569Y-86318673D01*
X75422569Y-86318673D02*
X75422569Y-86199625D01*
X75422569Y-86199625D02*
X75398760Y-86152006D01*
X75398760Y-86152006D02*
X75374950Y-86128197D01*
X75374950Y-86128197D02*
X75327331Y-86104387D01*
X75327331Y-86104387D02*
X75279712Y-86104387D01*
X75279712Y-86104387D02*
X75232093Y-86128197D01*
X75232093Y-86128197D02*
X75208283Y-86152006D01*
X75208283Y-86152006D02*
X75184474Y-86199625D01*
X75184474Y-86199625D02*
X75160664Y-86294863D01*
X75160664Y-86294863D02*
X75136855Y-86342482D01*
X75136855Y-86342482D02*
X75113045Y-86366292D01*
X75113045Y-86366292D02*
X75065426Y-86390101D01*
X75065426Y-86390101D02*
X75017807Y-86390101D01*
X75017807Y-86390101D02*
X74970188Y-86366292D01*
X74970188Y-86366292D02*
X74946379Y-86342482D01*
X74946379Y-86342482D02*
X74922569Y-86294863D01*
X74922569Y-86294863D02*
X74922569Y-86175816D01*
X74922569Y-86175816D02*
X74946379Y-86104387D01*
X75374950Y-85604388D02*
X75398760Y-85628197D01*
X75398760Y-85628197D02*
X75422569Y-85699626D01*
X75422569Y-85699626D02*
X75422569Y-85747245D01*
X75422569Y-85747245D02*
X75398760Y-85818673D01*
X75398760Y-85818673D02*
X75351140Y-85866292D01*
X75351140Y-85866292D02*
X75303521Y-85890102D01*
X75303521Y-85890102D02*
X75208283Y-85913911D01*
X75208283Y-85913911D02*
X75136855Y-85913911D01*
X75136855Y-85913911D02*
X75041617Y-85890102D01*
X75041617Y-85890102D02*
X74993998Y-85866292D01*
X74993998Y-85866292D02*
X74946379Y-85818673D01*
X74946379Y-85818673D02*
X74922569Y-85747245D01*
X74922569Y-85747245D02*
X74922569Y-85699626D01*
X74922569Y-85699626D02*
X74946379Y-85628197D01*
X74946379Y-85628197D02*
X74970188Y-85604388D01*
X75422569Y-85152007D02*
X75422569Y-85390102D01*
X75422569Y-85390102D02*
X74922569Y-85390102D01*
X74946379Y-84342483D02*
X74922569Y-84390102D01*
X74922569Y-84390102D02*
X74922569Y-84461531D01*
X74922569Y-84461531D02*
X74946379Y-84532959D01*
X74946379Y-84532959D02*
X74993998Y-84580578D01*
X74993998Y-84580578D02*
X75041617Y-84604388D01*
X75041617Y-84604388D02*
X75136855Y-84628197D01*
X75136855Y-84628197D02*
X75208283Y-84628197D01*
X75208283Y-84628197D02*
X75303521Y-84604388D01*
X75303521Y-84604388D02*
X75351140Y-84580578D01*
X75351140Y-84580578D02*
X75398760Y-84532959D01*
X75398760Y-84532959D02*
X75422569Y-84461531D01*
X75422569Y-84461531D02*
X75422569Y-84413912D01*
X75422569Y-84413912D02*
X75398760Y-84342483D01*
X75398760Y-84342483D02*
X75374950Y-84318674D01*
X75374950Y-84318674D02*
X75208283Y-84318674D01*
X75208283Y-84318674D02*
X75208283Y-84413912D01*
X75422569Y-84104388D02*
X74922569Y-84104388D01*
X74922569Y-84104388D02*
X75422569Y-83818674D01*
X75422569Y-83818674D02*
X74922569Y-83818674D01*
X75422569Y-83580578D02*
X74922569Y-83580578D01*
X74922569Y-83580578D02*
X74922569Y-83461530D01*
X74922569Y-83461530D02*
X74946379Y-83390102D01*
X74946379Y-83390102D02*
X74993998Y-83342483D01*
X74993998Y-83342483D02*
X75041617Y-83318673D01*
X75041617Y-83318673D02*
X75136855Y-83294864D01*
X75136855Y-83294864D02*
X75208283Y-83294864D01*
X75208283Y-83294864D02*
X75303521Y-83318673D01*
X75303521Y-83318673D02*
X75351140Y-83342483D01*
X75351140Y-83342483D02*
X75398760Y-83390102D01*
X75398760Y-83390102D02*
X75422569Y-83461530D01*
X75422569Y-83461530D02*
X75422569Y-83580578D01*
X74922569Y-82747245D02*
X74922569Y-82437721D01*
X74922569Y-82437721D02*
X75113045Y-82604388D01*
X75113045Y-82604388D02*
X75113045Y-82532959D01*
X75113045Y-82532959D02*
X75136855Y-82485340D01*
X75136855Y-82485340D02*
X75160664Y-82461531D01*
X75160664Y-82461531D02*
X75208283Y-82437721D01*
X75208283Y-82437721D02*
X75327331Y-82437721D01*
X75327331Y-82437721D02*
X75374950Y-82461531D01*
X75374950Y-82461531D02*
X75398760Y-82485340D01*
X75398760Y-82485340D02*
X75422569Y-82532959D01*
X75422569Y-82532959D02*
X75422569Y-82675816D01*
X75422569Y-82675816D02*
X75398760Y-82723435D01*
X75398760Y-82723435D02*
X75374950Y-82747245D01*
X74922569Y-82294864D02*
X75422569Y-82128198D01*
X75422569Y-82128198D02*
X74922569Y-81961531D01*
X74922569Y-81842484D02*
X74922569Y-81532960D01*
X74922569Y-81532960D02*
X75113045Y-81699627D01*
X75113045Y-81699627D02*
X75113045Y-81628198D01*
X75113045Y-81628198D02*
X75136855Y-81580579D01*
X75136855Y-81580579D02*
X75160664Y-81556770D01*
X75160664Y-81556770D02*
X75208283Y-81532960D01*
X75208283Y-81532960D02*
X75327331Y-81532960D01*
X75327331Y-81532960D02*
X75374950Y-81556770D01*
X75374950Y-81556770D02*
X75398760Y-81580579D01*
X75398760Y-81580579D02*
X75422569Y-81628198D01*
X75422569Y-81628198D02*
X75422569Y-81771055D01*
X75422569Y-81771055D02*
X75398760Y-81818674D01*
X75398760Y-81818674D02*
X75374950Y-81842484D01*
D11*
X46390839Y-101140466D02*
X45781316Y-101140466D01*
X46086077Y-100835704D02*
X46086077Y-101445228D01*
X39650839Y-101170466D02*
X39041316Y-101170466D01*
D13*
X67233708Y-56084950D02*
X67209899Y-56108760D01*
X67209899Y-56108760D02*
X67138470Y-56132569D01*
X67138470Y-56132569D02*
X67090851Y-56132569D01*
X67090851Y-56132569D02*
X67019423Y-56108760D01*
X67019423Y-56108760D02*
X66971804Y-56061140D01*
X66971804Y-56061140D02*
X66947994Y-56013521D01*
X66947994Y-56013521D02*
X66924185Y-55918283D01*
X66924185Y-55918283D02*
X66924185Y-55846855D01*
X66924185Y-55846855D02*
X66947994Y-55751617D01*
X66947994Y-55751617D02*
X66971804Y-55703998D01*
X66971804Y-55703998D02*
X67019423Y-55656379D01*
X67019423Y-55656379D02*
X67090851Y-55632569D01*
X67090851Y-55632569D02*
X67138470Y-55632569D01*
X67138470Y-55632569D02*
X67209899Y-55656379D01*
X67209899Y-55656379D02*
X67233708Y-55680188D01*
X67686089Y-56132569D02*
X67447994Y-56132569D01*
X67447994Y-56132569D02*
X67447994Y-55632569D01*
X67852756Y-56132569D02*
X67852756Y-55632569D01*
X68138470Y-56132569D02*
X67924185Y-55846855D01*
X68138470Y-55632569D02*
X67852756Y-55918283D01*
X68733708Y-56132569D02*
X68733708Y-55632569D01*
X68733708Y-55632569D02*
X68852756Y-55632569D01*
X68852756Y-55632569D02*
X68924184Y-55656379D01*
X68924184Y-55656379D02*
X68971803Y-55703998D01*
X68971803Y-55703998D02*
X68995613Y-55751617D01*
X68995613Y-55751617D02*
X69019422Y-55846855D01*
X69019422Y-55846855D02*
X69019422Y-55918283D01*
X69019422Y-55918283D02*
X68995613Y-56013521D01*
X68995613Y-56013521D02*
X68971803Y-56061140D01*
X68971803Y-56061140D02*
X68924184Y-56108760D01*
X68924184Y-56108760D02*
X68852756Y-56132569D01*
X68852756Y-56132569D02*
X68733708Y-56132569D01*
X69233708Y-56132569D02*
X69233708Y-55632569D01*
X69567041Y-55632569D02*
X69662279Y-55632569D01*
X69662279Y-55632569D02*
X69709898Y-55656379D01*
X69709898Y-55656379D02*
X69757517Y-55703998D01*
X69757517Y-55703998D02*
X69781327Y-55799236D01*
X69781327Y-55799236D02*
X69781327Y-55965902D01*
X69781327Y-55965902D02*
X69757517Y-56061140D01*
X69757517Y-56061140D02*
X69709898Y-56108760D01*
X69709898Y-56108760D02*
X69662279Y-56132569D01*
X69662279Y-56132569D02*
X69567041Y-56132569D01*
X69567041Y-56132569D02*
X69519422Y-56108760D01*
X69519422Y-56108760D02*
X69471803Y-56061140D01*
X69471803Y-56061140D02*
X69447994Y-55965902D01*
X69447994Y-55965902D02*
X69447994Y-55799236D01*
X69447994Y-55799236D02*
X69471803Y-55703998D01*
X69471803Y-55703998D02*
X69519422Y-55656379D01*
X69519422Y-55656379D02*
X69567041Y-55632569D01*
X70662279Y-56132569D02*
X70495613Y-55894474D01*
X70376565Y-56132569D02*
X70376565Y-55632569D01*
X70376565Y-55632569D02*
X70567041Y-55632569D01*
X70567041Y-55632569D02*
X70614660Y-55656379D01*
X70614660Y-55656379D02*
X70638470Y-55680188D01*
X70638470Y-55680188D02*
X70662279Y-55727807D01*
X70662279Y-55727807D02*
X70662279Y-55799236D01*
X70662279Y-55799236D02*
X70638470Y-55846855D01*
X70638470Y-55846855D02*
X70614660Y-55870664D01*
X70614660Y-55870664D02*
X70567041Y-55894474D01*
X70567041Y-55894474D02*
X70376565Y-55894474D01*
X70852756Y-56108760D02*
X70924184Y-56132569D01*
X70924184Y-56132569D02*
X71043232Y-56132569D01*
X71043232Y-56132569D02*
X71090851Y-56108760D01*
X71090851Y-56108760D02*
X71114660Y-56084950D01*
X71114660Y-56084950D02*
X71138470Y-56037331D01*
X71138470Y-56037331D02*
X71138470Y-55989712D01*
X71138470Y-55989712D02*
X71114660Y-55942093D01*
X71114660Y-55942093D02*
X71090851Y-55918283D01*
X71090851Y-55918283D02*
X71043232Y-55894474D01*
X71043232Y-55894474D02*
X70947994Y-55870664D01*
X70947994Y-55870664D02*
X70900375Y-55846855D01*
X70900375Y-55846855D02*
X70876565Y-55823045D01*
X70876565Y-55823045D02*
X70852756Y-55775426D01*
X70852756Y-55775426D02*
X70852756Y-55727807D01*
X70852756Y-55727807D02*
X70876565Y-55680188D01*
X70876565Y-55680188D02*
X70900375Y-55656379D01*
X70900375Y-55656379D02*
X70947994Y-55632569D01*
X70947994Y-55632569D02*
X71067041Y-55632569D01*
X71067041Y-55632569D02*
X71138470Y-55656379D01*
X71281327Y-55632569D02*
X71567041Y-55632569D01*
X71424184Y-56132569D02*
X71424184Y-55632569D01*
X72376564Y-55656379D02*
X72328945Y-55632569D01*
X72328945Y-55632569D02*
X72257516Y-55632569D01*
X72257516Y-55632569D02*
X72186088Y-55656379D01*
X72186088Y-55656379D02*
X72138469Y-55703998D01*
X72138469Y-55703998D02*
X72114659Y-55751617D01*
X72114659Y-55751617D02*
X72090850Y-55846855D01*
X72090850Y-55846855D02*
X72090850Y-55918283D01*
X72090850Y-55918283D02*
X72114659Y-56013521D01*
X72114659Y-56013521D02*
X72138469Y-56061140D01*
X72138469Y-56061140D02*
X72186088Y-56108760D01*
X72186088Y-56108760D02*
X72257516Y-56132569D01*
X72257516Y-56132569D02*
X72305135Y-56132569D01*
X72305135Y-56132569D02*
X72376564Y-56108760D01*
X72376564Y-56108760D02*
X72400373Y-56084950D01*
X72400373Y-56084950D02*
X72400373Y-55918283D01*
X72400373Y-55918283D02*
X72305135Y-55918283D01*
X72614659Y-56132569D02*
X72614659Y-55632569D01*
X72614659Y-55632569D02*
X72900373Y-56132569D01*
X72900373Y-56132569D02*
X72900373Y-55632569D01*
X73138469Y-56132569D02*
X73138469Y-55632569D01*
X73138469Y-55632569D02*
X73257517Y-55632569D01*
X73257517Y-55632569D02*
X73328945Y-55656379D01*
X73328945Y-55656379D02*
X73376564Y-55703998D01*
X73376564Y-55703998D02*
X73400374Y-55751617D01*
X73400374Y-55751617D02*
X73424183Y-55846855D01*
X73424183Y-55846855D02*
X73424183Y-55918283D01*
X73424183Y-55918283D02*
X73400374Y-56013521D01*
X73400374Y-56013521D02*
X73376564Y-56061140D01*
X73376564Y-56061140D02*
X73328945Y-56108760D01*
X73328945Y-56108760D02*
X73257517Y-56132569D01*
X73257517Y-56132569D02*
X73138469Y-56132569D01*
X73971802Y-55632569D02*
X74281326Y-55632569D01*
X74281326Y-55632569D02*
X74114659Y-55823045D01*
X74114659Y-55823045D02*
X74186088Y-55823045D01*
X74186088Y-55823045D02*
X74233707Y-55846855D01*
X74233707Y-55846855D02*
X74257516Y-55870664D01*
X74257516Y-55870664D02*
X74281326Y-55918283D01*
X74281326Y-55918283D02*
X74281326Y-56037331D01*
X74281326Y-56037331D02*
X74257516Y-56084950D01*
X74257516Y-56084950D02*
X74233707Y-56108760D01*
X74233707Y-56108760D02*
X74186088Y-56132569D01*
X74186088Y-56132569D02*
X74043231Y-56132569D01*
X74043231Y-56132569D02*
X73995612Y-56108760D01*
X73995612Y-56108760D02*
X73971802Y-56084950D01*
X74424183Y-55632569D02*
X74590849Y-56132569D01*
X74590849Y-56132569D02*
X74757516Y-55632569D01*
X74876563Y-55632569D02*
X75186087Y-55632569D01*
X75186087Y-55632569D02*
X75019420Y-55823045D01*
X75019420Y-55823045D02*
X75090849Y-55823045D01*
X75090849Y-55823045D02*
X75138468Y-55846855D01*
X75138468Y-55846855D02*
X75162277Y-55870664D01*
X75162277Y-55870664D02*
X75186087Y-55918283D01*
X75186087Y-55918283D02*
X75186087Y-56037331D01*
X75186087Y-56037331D02*
X75162277Y-56084950D01*
X75162277Y-56084950D02*
X75138468Y-56108760D01*
X75138468Y-56108760D02*
X75090849Y-56132569D01*
X75090849Y-56132569D02*
X74947992Y-56132569D01*
X74947992Y-56132569D02*
X74900373Y-56108760D01*
X74900373Y-56108760D02*
X74876563Y-56084950D01*
D11*
G36*
X52806999Y-100769980D02*
G01*
X52818359Y-100781340D01*
X52833571Y-100811762D01*
X52833571Y-100862065D01*
X52818360Y-100892486D01*
X52807001Y-100903845D01*
X52776579Y-100919057D01*
X52640714Y-100919057D01*
X52640714Y-100754771D01*
X52776581Y-100754771D01*
X52806999Y-100769980D01*
G37*
G36*
X51521285Y-100769980D02*
G01*
X51532645Y-100781340D01*
X51547857Y-100811762D01*
X51547857Y-100862065D01*
X51532646Y-100892486D01*
X51521287Y-100903845D01*
X51490865Y-100919057D01*
X51355000Y-100919057D01*
X51355000Y-100754771D01*
X51490867Y-100754771D01*
X51521285Y-100769980D01*
G37*
G36*
X53058571Y-101429753D02*
G01*
X51130000Y-101429753D01*
X51130000Y-100679771D01*
X51205000Y-100679771D01*
X51205000Y-101279771D01*
X51206441Y-101294403D01*
X51217640Y-101321439D01*
X51238332Y-101342131D01*
X51265368Y-101353330D01*
X51294632Y-101353330D01*
X51321668Y-101342131D01*
X51342360Y-101321439D01*
X51353559Y-101294403D01*
X51355000Y-101279771D01*
X51355000Y-101069057D01*
X51508571Y-101069057D01*
X51523203Y-101067616D01*
X51525691Y-101066585D01*
X51528381Y-101066394D01*
X51542112Y-101061139D01*
X51599255Y-101032567D01*
X51605551Y-101028603D01*
X51607382Y-101027845D01*
X51609443Y-101026153D01*
X51611698Y-101024734D01*
X51612994Y-101023238D01*
X51618747Y-101018518D01*
X51647318Y-100989947D01*
X51652038Y-100984194D01*
X51653534Y-100982898D01*
X51654953Y-100980643D01*
X51656645Y-100978582D01*
X51657403Y-100976751D01*
X51661367Y-100970455D01*
X51689939Y-100913313D01*
X51695194Y-100899581D01*
X51695385Y-100896891D01*
X51696416Y-100894403D01*
X51697857Y-100879771D01*
X51697857Y-100794057D01*
X51696416Y-100779425D01*
X51695385Y-100776936D01*
X51695194Y-100774247D01*
X51689939Y-100760515D01*
X51661367Y-100703373D01*
X51657404Y-100697078D01*
X51656646Y-100695247D01*
X51654952Y-100693183D01*
X51653534Y-100690930D01*
X51652039Y-100689633D01*
X51647319Y-100683882D01*
X51646012Y-100682575D01*
X51747909Y-100682575D01*
X51749897Y-100697143D01*
X51892753Y-101297142D01*
X51894483Y-101302164D01*
X51894723Y-101303964D01*
X51895664Y-101305591D01*
X51897544Y-101311043D01*
X51903929Y-101319865D01*
X51909385Y-101329289D01*
X51912443Y-101331630D01*
X51914701Y-101334749D01*
X51923972Y-101340454D01*
X51932623Y-101347076D01*
X51936344Y-101348068D01*
X51939623Y-101350086D01*
X51950372Y-101351809D01*
X51960898Y-101354616D01*
X51964716Y-101354108D01*
X51968518Y-101354718D01*
X51979107Y-101352196D01*
X51989907Y-101350762D01*
X51993241Y-101348831D01*
X51996986Y-101347940D01*
X52005806Y-101341557D01*
X52015232Y-101336100D01*
X52017572Y-101333042D01*
X52020693Y-101330784D01*
X52026400Y-101321508D01*
X52033019Y-101312862D01*
X52035044Y-101307462D01*
X52036029Y-101305862D01*
X52036316Y-101304070D01*
X52038182Y-101299096D01*
X52079999Y-101142279D01*
X52121817Y-101299095D01*
X52123682Y-101304069D01*
X52123970Y-101305862D01*
X52124955Y-101307463D01*
X52126980Y-101312862D01*
X52133598Y-101321508D01*
X52139306Y-101330784D01*
X52142426Y-101333042D01*
X52144767Y-101336100D01*
X52154185Y-101341552D01*
X52163013Y-101347941D01*
X52166763Y-101348833D01*
X52170092Y-101350761D01*
X52180876Y-101352194D01*
X52191481Y-101354719D01*
X52195285Y-101354109D01*
X52199100Y-101354616D01*
X52209621Y-101351810D01*
X52220376Y-101350086D01*
X52223655Y-101348068D01*
X52227376Y-101347076D01*
X52236022Y-101340457D01*
X52245298Y-101334750D01*
X52247556Y-101331629D01*
X52250614Y-101329289D01*
X52256068Y-101319867D01*
X52262455Y-101311043D01*
X52264333Y-101305592D01*
X52265276Y-101303964D01*
X52265515Y-101302162D01*
X52267245Y-101297143D01*
X52410104Y-100697142D01*
X52412091Y-100682574D01*
X52411642Y-100679771D01*
X52490714Y-100679771D01*
X52490714Y-101279771D01*
X52492155Y-101294403D01*
X52503354Y-101321439D01*
X52524046Y-101342131D01*
X52551082Y-101353330D01*
X52580346Y-101353330D01*
X52607382Y-101342131D01*
X52628074Y-101321439D01*
X52639273Y-101294403D01*
X52640714Y-101279771D01*
X52640714Y-101069057D01*
X52669522Y-101069057D01*
X52847128Y-101322780D01*
X52856700Y-101333941D01*
X52881378Y-101349667D01*
X52910196Y-101354753D01*
X52938767Y-101348423D01*
X52962741Y-101331642D01*
X52978468Y-101306963D01*
X52983553Y-101278145D01*
X52977223Y-101249574D01*
X52970013Y-101236761D01*
X52842086Y-101054008D01*
X52884969Y-101032567D01*
X52891265Y-101028603D01*
X52893096Y-101027845D01*
X52895157Y-101026153D01*
X52897412Y-101024734D01*
X52898708Y-101023238D01*
X52904461Y-101018518D01*
X52933032Y-100989947D01*
X52937752Y-100984194D01*
X52939248Y-100982898D01*
X52940667Y-100980643D01*
X52942359Y-100978582D01*
X52943117Y-100976751D01*
X52947081Y-100970455D01*
X52975653Y-100913313D01*
X52980908Y-100899581D01*
X52981099Y-100896891D01*
X52982130Y-100894403D01*
X52983571Y-100879771D01*
X52983571Y-100794057D01*
X52982130Y-100779425D01*
X52981099Y-100776936D01*
X52980908Y-100774247D01*
X52975653Y-100760515D01*
X52947081Y-100703373D01*
X52943118Y-100697078D01*
X52942360Y-100695247D01*
X52940666Y-100693183D01*
X52939248Y-100690930D01*
X52937753Y-100689633D01*
X52933033Y-100683882D01*
X52904462Y-100655310D01*
X52898710Y-100650589D01*
X52897412Y-100649092D01*
X52895156Y-100647672D01*
X52893097Y-100645982D01*
X52891266Y-100645223D01*
X52884969Y-100641260D01*
X52827826Y-100612689D01*
X52814094Y-100607434D01*
X52811406Y-100607243D01*
X52808917Y-100606212D01*
X52794285Y-100604771D01*
X52565714Y-100604771D01*
X52551082Y-100606212D01*
X52524046Y-100617411D01*
X52503354Y-100638103D01*
X52492155Y-100665139D01*
X52490714Y-100679771D01*
X52411642Y-100679771D01*
X52407458Y-100653680D01*
X52392122Y-100628758D01*
X52368415Y-100611601D01*
X52339947Y-100604823D01*
X52311052Y-100609455D01*
X52286130Y-100624792D01*
X52268974Y-100648499D01*
X52264183Y-100662399D01*
X52190169Y-100973255D01*
X52152468Y-100831875D01*
X52151182Y-100828447D01*
X52150991Y-100827006D01*
X52149999Y-100825293D01*
X52147305Y-100818109D01*
X52141291Y-100810252D01*
X52136329Y-100801681D01*
X52132468Y-100798726D01*
X52129518Y-100794871D01*
X52120958Y-100789915D01*
X52113092Y-100783894D01*
X52108394Y-100782641D01*
X52104193Y-100780209D01*
X52094386Y-100778906D01*
X52084816Y-100776354D01*
X52079997Y-100776994D01*
X52075185Y-100776355D01*
X52065624Y-100778904D01*
X52055807Y-100780209D01*
X52051601Y-100782643D01*
X52046909Y-100783895D01*
X52039049Y-100789910D01*
X52030482Y-100794871D01*
X52027528Y-100798729D01*
X52023671Y-100801682D01*
X52018712Y-100810247D01*
X52012695Y-100818108D01*
X52010000Y-100825294D01*
X52009009Y-100827007D01*
X52008817Y-100828449D01*
X52007533Y-100831875D01*
X51969830Y-100973256D01*
X51895817Y-100662399D01*
X51891027Y-100648499D01*
X51873870Y-100624792D01*
X51848948Y-100609456D01*
X51820053Y-100604823D01*
X51791585Y-100611601D01*
X51767878Y-100628758D01*
X51752542Y-100653680D01*
X51747909Y-100682575D01*
X51646012Y-100682575D01*
X51618748Y-100655310D01*
X51612996Y-100650589D01*
X51611698Y-100649092D01*
X51609442Y-100647672D01*
X51607383Y-100645982D01*
X51605552Y-100645223D01*
X51599255Y-100641260D01*
X51542112Y-100612689D01*
X51528380Y-100607434D01*
X51525692Y-100607243D01*
X51523203Y-100606212D01*
X51508571Y-100604771D01*
X51280000Y-100604771D01*
X51265368Y-100606212D01*
X51238332Y-100617411D01*
X51217640Y-100638103D01*
X51206441Y-100665139D01*
X51205000Y-100679771D01*
X51130000Y-100679771D01*
X51130000Y-100529771D01*
X53058571Y-100529771D01*
X53058571Y-101429753D01*
G37*
X44140476Y-76562295D02*
X44140476Y-77209914D01*
X44140476Y-77209914D02*
X44178571Y-77286104D01*
X44178571Y-77286104D02*
X44216666Y-77324200D01*
X44216666Y-77324200D02*
X44292857Y-77362295D01*
X44292857Y-77362295D02*
X44445238Y-77362295D01*
X44445238Y-77362295D02*
X44521428Y-77324200D01*
X44521428Y-77324200D02*
X44559523Y-77286104D01*
X44559523Y-77286104D02*
X44597619Y-77209914D01*
X44597619Y-77209914D02*
X44597619Y-76562295D01*
X44940475Y-76638485D02*
X44978571Y-76600390D01*
X44978571Y-76600390D02*
X45054761Y-76562295D01*
X45054761Y-76562295D02*
X45245237Y-76562295D01*
X45245237Y-76562295D02*
X45321428Y-76600390D01*
X45321428Y-76600390D02*
X45359523Y-76638485D01*
X45359523Y-76638485D02*
X45397618Y-76714676D01*
X45397618Y-76714676D02*
X45397618Y-76790866D01*
X45397618Y-76790866D02*
X45359523Y-76905152D01*
X45359523Y-76905152D02*
X44902380Y-77362295D01*
X44902380Y-77362295D02*
X45397618Y-77362295D01*
X74435715Y-75440485D02*
X74521429Y-75469057D01*
X74521429Y-75469057D02*
X74550000Y-75497628D01*
X74550000Y-75497628D02*
X74578572Y-75554771D01*
X74578572Y-75554771D02*
X74578572Y-75640485D01*
X74578572Y-75640485D02*
X74550000Y-75697628D01*
X74550000Y-75697628D02*
X74521429Y-75726200D01*
X74521429Y-75726200D02*
X74464286Y-75754771D01*
X74464286Y-75754771D02*
X74235715Y-75754771D01*
X74235715Y-75754771D02*
X74235715Y-75154771D01*
X74235715Y-75154771D02*
X74435715Y-75154771D01*
X74435715Y-75154771D02*
X74492858Y-75183342D01*
X74492858Y-75183342D02*
X74521429Y-75211914D01*
X74521429Y-75211914D02*
X74550000Y-75269057D01*
X74550000Y-75269057D02*
X74550000Y-75326200D01*
X74550000Y-75326200D02*
X74521429Y-75383342D01*
X74521429Y-75383342D02*
X74492858Y-75411914D01*
X74492858Y-75411914D02*
X74435715Y-75440485D01*
X74435715Y-75440485D02*
X74235715Y-75440485D01*
X75121429Y-75754771D02*
X74835715Y-75754771D01*
X74835715Y-75754771D02*
X74835715Y-75154771D01*
X75321429Y-75440485D02*
X75521429Y-75440485D01*
X75607143Y-75754771D02*
X75321429Y-75754771D01*
X75321429Y-75754771D02*
X75321429Y-75154771D01*
X75321429Y-75154771D02*
X75607143Y-75154771D01*
X75721429Y-75811914D02*
X76178571Y-75811914D01*
X76664286Y-75697628D02*
X76635714Y-75726200D01*
X76635714Y-75726200D02*
X76550000Y-75754771D01*
X76550000Y-75754771D02*
X76492857Y-75754771D01*
X76492857Y-75754771D02*
X76407143Y-75726200D01*
X76407143Y-75726200D02*
X76350000Y-75669057D01*
X76350000Y-75669057D02*
X76321429Y-75611914D01*
X76321429Y-75611914D02*
X76292857Y-75497628D01*
X76292857Y-75497628D02*
X76292857Y-75411914D01*
X76292857Y-75411914D02*
X76321429Y-75297628D01*
X76321429Y-75297628D02*
X76350000Y-75240485D01*
X76350000Y-75240485D02*
X76407143Y-75183342D01*
X76407143Y-75183342D02*
X76492857Y-75154771D01*
X76492857Y-75154771D02*
X76550000Y-75154771D01*
X76550000Y-75154771D02*
X76635714Y-75183342D01*
X76635714Y-75183342D02*
X76664286Y-75211914D01*
X77007143Y-75754771D02*
X76950000Y-75726200D01*
X76950000Y-75726200D02*
X76921429Y-75697628D01*
X76921429Y-75697628D02*
X76892857Y-75640485D01*
X76892857Y-75640485D02*
X76892857Y-75469057D01*
X76892857Y-75469057D02*
X76921429Y-75411914D01*
X76921429Y-75411914D02*
X76950000Y-75383342D01*
X76950000Y-75383342D02*
X77007143Y-75354771D01*
X77007143Y-75354771D02*
X77092857Y-75354771D01*
X77092857Y-75354771D02*
X77150000Y-75383342D01*
X77150000Y-75383342D02*
X77178572Y-75411914D01*
X77178572Y-75411914D02*
X77207143Y-75469057D01*
X77207143Y-75469057D02*
X77207143Y-75640485D01*
X77207143Y-75640485D02*
X77178572Y-75697628D01*
X77178572Y-75697628D02*
X77150000Y-75726200D01*
X77150000Y-75726200D02*
X77092857Y-75754771D01*
X77092857Y-75754771D02*
X77007143Y-75754771D01*
X77464286Y-75354771D02*
X77464286Y-75754771D01*
X77464286Y-75411914D02*
X77492857Y-75383342D01*
X77492857Y-75383342D02*
X77550000Y-75354771D01*
X77550000Y-75354771D02*
X77635714Y-75354771D01*
X77635714Y-75354771D02*
X77692857Y-75383342D01*
X77692857Y-75383342D02*
X77721429Y-75440485D01*
X77721429Y-75440485D02*
X77721429Y-75754771D01*
X78007143Y-75354771D02*
X78007143Y-75754771D01*
X78007143Y-75411914D02*
X78035714Y-75383342D01*
X78035714Y-75383342D02*
X78092857Y-75354771D01*
X78092857Y-75354771D02*
X78178571Y-75354771D01*
X78178571Y-75354771D02*
X78235714Y-75383342D01*
X78235714Y-75383342D02*
X78264286Y-75440485D01*
X78264286Y-75440485D02*
X78264286Y-75754771D01*
X75934524Y-90742295D02*
X75934524Y-89942295D01*
X75934524Y-89942295D02*
X76125000Y-89942295D01*
X76125000Y-89942295D02*
X76239286Y-89980390D01*
X76239286Y-89980390D02*
X76315476Y-90056580D01*
X76315476Y-90056580D02*
X76353571Y-90132771D01*
X76353571Y-90132771D02*
X76391667Y-90285152D01*
X76391667Y-90285152D02*
X76391667Y-90399438D01*
X76391667Y-90399438D02*
X76353571Y-90551819D01*
X76353571Y-90551819D02*
X76315476Y-90628009D01*
X76315476Y-90628009D02*
X76239286Y-90704200D01*
X76239286Y-90704200D02*
X76125000Y-90742295D01*
X76125000Y-90742295D02*
X75934524Y-90742295D01*
X76696428Y-90018485D02*
X76734524Y-89980390D01*
X76734524Y-89980390D02*
X76810714Y-89942295D01*
X76810714Y-89942295D02*
X77001190Y-89942295D01*
X77001190Y-89942295D02*
X77077381Y-89980390D01*
X77077381Y-89980390D02*
X77115476Y-90018485D01*
X77115476Y-90018485D02*
X77153571Y-90094676D01*
X77153571Y-90094676D02*
X77153571Y-90170866D01*
X77153571Y-90170866D02*
X77115476Y-90285152D01*
X77115476Y-90285152D02*
X76658333Y-90742295D01*
X76658333Y-90742295D02*
X77153571Y-90742295D01*
X75809524Y-92412295D02*
X75809524Y-91612295D01*
X75809524Y-91612295D02*
X76000000Y-91612295D01*
X76000000Y-91612295D02*
X76114286Y-91650390D01*
X76114286Y-91650390D02*
X76190476Y-91726580D01*
X76190476Y-91726580D02*
X76228571Y-91802771D01*
X76228571Y-91802771D02*
X76266667Y-91955152D01*
X76266667Y-91955152D02*
X76266667Y-92069438D01*
X76266667Y-92069438D02*
X76228571Y-92221819D01*
X76228571Y-92221819D02*
X76190476Y-92298009D01*
X76190476Y-92298009D02*
X76114286Y-92374200D01*
X76114286Y-92374200D02*
X76000000Y-92412295D01*
X76000000Y-92412295D02*
X75809524Y-92412295D01*
X76533333Y-91612295D02*
X77028571Y-91612295D01*
X77028571Y-91612295D02*
X76761905Y-91917057D01*
X76761905Y-91917057D02*
X76876190Y-91917057D01*
X76876190Y-91917057D02*
X76952381Y-91955152D01*
X76952381Y-91955152D02*
X76990476Y-91993247D01*
X76990476Y-91993247D02*
X77028571Y-92069438D01*
X77028571Y-92069438D02*
X77028571Y-92259914D01*
X77028571Y-92259914D02*
X76990476Y-92336104D01*
X76990476Y-92336104D02*
X76952381Y-92374200D01*
X76952381Y-92374200D02*
X76876190Y-92412295D01*
X76876190Y-92412295D02*
X76647619Y-92412295D01*
X76647619Y-92412295D02*
X76571428Y-92374200D01*
X76571428Y-92374200D02*
X76533333Y-92336104D01*
X45974761Y-99918247D02*
X46089047Y-99956342D01*
X46089047Y-99956342D02*
X46127142Y-99994438D01*
X46127142Y-99994438D02*
X46165238Y-100070628D01*
X46165238Y-100070628D02*
X46165238Y-100184914D01*
X46165238Y-100184914D02*
X46127142Y-100261104D01*
X46127142Y-100261104D02*
X46089047Y-100299200D01*
X46089047Y-100299200D02*
X46012857Y-100337295D01*
X46012857Y-100337295D02*
X45708095Y-100337295D01*
X45708095Y-100337295D02*
X45708095Y-99537295D01*
X45708095Y-99537295D02*
X45974761Y-99537295D01*
X45974761Y-99537295D02*
X46050952Y-99575390D01*
X46050952Y-99575390D02*
X46089047Y-99613485D01*
X46089047Y-99613485D02*
X46127142Y-99689676D01*
X46127142Y-99689676D02*
X46127142Y-99765866D01*
X46127142Y-99765866D02*
X46089047Y-99842057D01*
X46089047Y-99842057D02*
X46050952Y-99880152D01*
X46050952Y-99880152D02*
X45974761Y-99918247D01*
X45974761Y-99918247D02*
X45708095Y-99918247D01*
X46469999Y-100108723D02*
X46850952Y-100108723D01*
X46393809Y-100337295D02*
X46660476Y-99537295D01*
X46660476Y-99537295D02*
X46927142Y-100337295D01*
X47079523Y-99537295D02*
X47536666Y-99537295D01*
X47308094Y-100337295D02*
X47308094Y-99537295D01*
X47689047Y-99537295D02*
X48146190Y-99537295D01*
X47917618Y-100337295D02*
X47917618Y-99537295D01*
X36659524Y-65962295D02*
X36659524Y-65162295D01*
X36659524Y-65162295D02*
X36850000Y-65162295D01*
X36850000Y-65162295D02*
X36964286Y-65200390D01*
X36964286Y-65200390D02*
X37040476Y-65276580D01*
X37040476Y-65276580D02*
X37078571Y-65352771D01*
X37078571Y-65352771D02*
X37116667Y-65505152D01*
X37116667Y-65505152D02*
X37116667Y-65619438D01*
X37116667Y-65619438D02*
X37078571Y-65771819D01*
X37078571Y-65771819D02*
X37040476Y-65848009D01*
X37040476Y-65848009D02*
X36964286Y-65924200D01*
X36964286Y-65924200D02*
X36850000Y-65962295D01*
X36850000Y-65962295D02*
X36659524Y-65962295D01*
X37383333Y-65162295D02*
X37916667Y-65162295D01*
X37916667Y-65162295D02*
X37573809Y-65962295D01*
X47790476Y-70412295D02*
X47790476Y-71059914D01*
X47790476Y-71059914D02*
X47828571Y-71136104D01*
X47828571Y-71136104D02*
X47866666Y-71174200D01*
X47866666Y-71174200D02*
X47942857Y-71212295D01*
X47942857Y-71212295D02*
X48095238Y-71212295D01*
X48095238Y-71212295D02*
X48171428Y-71174200D01*
X48171428Y-71174200D02*
X48209523Y-71136104D01*
X48209523Y-71136104D02*
X48247619Y-71059914D01*
X48247619Y-71059914D02*
X48247619Y-70412295D01*
X48552380Y-70412295D02*
X49047618Y-70412295D01*
X49047618Y-70412295D02*
X48780952Y-70717057D01*
X48780952Y-70717057D02*
X48895237Y-70717057D01*
X48895237Y-70717057D02*
X48971428Y-70755152D01*
X48971428Y-70755152D02*
X49009523Y-70793247D01*
X49009523Y-70793247D02*
X49047618Y-70869438D01*
X49047618Y-70869438D02*
X49047618Y-71059914D01*
X49047618Y-71059914D02*
X49009523Y-71136104D01*
X49009523Y-71136104D02*
X48971428Y-71174200D01*
X48971428Y-71174200D02*
X48895237Y-71212295D01*
X48895237Y-71212295D02*
X48666666Y-71212295D01*
X48666666Y-71212295D02*
X48590475Y-71174200D01*
X48590475Y-71174200D02*
X48552380Y-71136104D01*
X39226833Y-79062295D02*
X39226833Y-79633723D01*
X39226833Y-79633723D02*
X39188738Y-79748009D01*
X39188738Y-79748009D02*
X39112547Y-79824200D01*
X39112547Y-79824200D02*
X38998262Y-79862295D01*
X38998262Y-79862295D02*
X38922071Y-79862295D01*
X40026833Y-79862295D02*
X39569690Y-79862295D01*
X39798262Y-79862295D02*
X39798262Y-79062295D01*
X39798262Y-79062295D02*
X39722071Y-79176580D01*
X39722071Y-79176580D02*
X39645881Y-79252771D01*
X39645881Y-79252771D02*
X39569690Y-79290866D01*
X70715476Y-85825390D02*
X70639286Y-85787295D01*
X70639286Y-85787295D02*
X70525000Y-85787295D01*
X70525000Y-85787295D02*
X70410714Y-85825390D01*
X70410714Y-85825390D02*
X70334524Y-85901580D01*
X70334524Y-85901580D02*
X70296429Y-85977771D01*
X70296429Y-85977771D02*
X70258333Y-86130152D01*
X70258333Y-86130152D02*
X70258333Y-86244438D01*
X70258333Y-86244438D02*
X70296429Y-86396819D01*
X70296429Y-86396819D02*
X70334524Y-86473009D01*
X70334524Y-86473009D02*
X70410714Y-86549200D01*
X70410714Y-86549200D02*
X70525000Y-86587295D01*
X70525000Y-86587295D02*
X70601191Y-86587295D01*
X70601191Y-86587295D02*
X70715476Y-86549200D01*
X70715476Y-86549200D02*
X70753572Y-86511104D01*
X70753572Y-86511104D02*
X70753572Y-86244438D01*
X70753572Y-86244438D02*
X70601191Y-86244438D01*
X71096429Y-86587295D02*
X71096429Y-85787295D01*
X71096429Y-85787295D02*
X71553572Y-86587295D01*
X71553572Y-86587295D02*
X71553572Y-85787295D01*
X71934524Y-86587295D02*
X71934524Y-85787295D01*
X71934524Y-85787295D02*
X72125000Y-85787295D01*
X72125000Y-85787295D02*
X72239286Y-85825390D01*
X72239286Y-85825390D02*
X72315476Y-85901580D01*
X72315476Y-85901580D02*
X72353571Y-85977771D01*
X72353571Y-85977771D02*
X72391667Y-86130152D01*
X72391667Y-86130152D02*
X72391667Y-86244438D01*
X72391667Y-86244438D02*
X72353571Y-86396819D01*
X72353571Y-86396819D02*
X72315476Y-86473009D01*
X72315476Y-86473009D02*
X72239286Y-86549200D01*
X72239286Y-86549200D02*
X72125000Y-86587295D01*
X72125000Y-86587295D02*
X71934524Y-86587295D01*
G36*
X67655571Y-56659980D02*
G01*
X67666931Y-56671340D01*
X67682143Y-56701762D01*
X67682143Y-56752065D01*
X67666932Y-56782486D01*
X67655573Y-56793845D01*
X67625151Y-56809057D01*
X67489286Y-56809057D01*
X67489286Y-56644771D01*
X67625153Y-56644771D01*
X67655571Y-56659980D01*
G37*
G36*
X67907143Y-57319771D02*
G01*
X65521429Y-57319771D01*
X65521429Y-56569771D01*
X65596429Y-56569771D01*
X65596429Y-57055485D01*
X65597870Y-57070117D01*
X65598901Y-57072606D01*
X65599092Y-57075294D01*
X65604347Y-57089026D01*
X65632918Y-57146169D01*
X65636882Y-57152468D01*
X65637640Y-57154296D01*
X65639328Y-57156352D01*
X65640750Y-57158612D01*
X65642248Y-57159911D01*
X65646967Y-57165661D01*
X65675539Y-57194233D01*
X65681289Y-57198953D01*
X65682588Y-57200450D01*
X65684842Y-57201869D01*
X65686904Y-57203561D01*
X65688736Y-57204319D01*
X65695031Y-57208282D01*
X65752173Y-57236853D01*
X65765905Y-57242108D01*
X65768592Y-57242298D01*
X65771082Y-57243330D01*
X65785714Y-57244771D01*
X65900000Y-57244771D01*
X65914632Y-57243330D01*
X65917121Y-57242298D01*
X65919809Y-57242108D01*
X65933541Y-57236853D01*
X65990684Y-57208282D01*
X65996981Y-57204318D01*
X65998812Y-57203560D01*
X66000871Y-57201869D01*
X66003127Y-57200450D01*
X66004425Y-57198952D01*
X66010177Y-57194232D01*
X66038748Y-57165660D01*
X66043468Y-57159908D01*
X66044963Y-57158612D01*
X66046381Y-57156358D01*
X66048075Y-57154295D01*
X66048833Y-57152463D01*
X66052796Y-57146169D01*
X66081368Y-57089027D01*
X66086623Y-57075295D01*
X66086814Y-57072605D01*
X66087845Y-57070117D01*
X66089286Y-57055485D01*
X66089286Y-56684057D01*
X66196428Y-56684057D01*
X66196428Y-56741200D01*
X66197869Y-56755832D01*
X66198899Y-56758320D01*
X66199091Y-56761010D01*
X66204346Y-56774742D01*
X66232918Y-56831884D01*
X66236881Y-56838180D01*
X66237639Y-56840009D01*
X66239329Y-56842068D01*
X66240751Y-56844327D01*
X66242248Y-56845625D01*
X66246966Y-56851374D01*
X66275537Y-56879946D01*
X66281291Y-56884669D01*
X66282588Y-56886164D01*
X66284840Y-56887581D01*
X66286902Y-56889274D01*
X66288734Y-56890032D01*
X66295030Y-56893996D01*
X66352174Y-56922567D01*
X66353241Y-56922975D01*
X66353678Y-56923299D01*
X66359838Y-56925500D01*
X66365906Y-56927822D01*
X66366444Y-56927860D01*
X66367524Y-56928246D01*
X66473825Y-56954822D01*
X66512714Y-56974266D01*
X66524074Y-56985626D01*
X66539285Y-57016047D01*
X66539285Y-57037780D01*
X66524074Y-57068201D01*
X66512714Y-57079561D01*
X66482296Y-57094771D01*
X66369314Y-57094771D01*
X66295145Y-57070049D01*
X66280808Y-57066789D01*
X66251618Y-57068864D01*
X66225444Y-57081951D01*
X66206271Y-57104058D01*
X66197017Y-57131820D01*
X66199092Y-57161010D01*
X66212179Y-57187184D01*
X66234286Y-57206357D01*
X66247711Y-57212351D01*
X66333426Y-57240922D01*
X66340679Y-57242571D01*
X66342511Y-57243330D01*
X66345165Y-57243591D01*
X66347763Y-57244182D01*
X66349737Y-57244041D01*
X66357143Y-57244771D01*
X66500000Y-57244771D01*
X66514632Y-57243330D01*
X66517121Y-57242298D01*
X66519809Y-57242108D01*
X66533541Y-57236853D01*
X66590684Y-57208282D01*
X66596981Y-57204318D01*
X66598812Y-57203560D01*
X66600871Y-57201869D01*
X66603127Y-57200450D01*
X66604425Y-57198952D01*
X66610177Y-57194232D01*
X66638748Y-57165660D01*
X66643468Y-57159907D01*
X66644964Y-57158611D01*
X66646383Y-57156356D01*
X66648075Y-57154295D01*
X66648833Y-57152464D01*
X66652796Y-57146169D01*
X66681367Y-57089025D01*
X66686622Y-57075293D01*
X66686812Y-57072606D01*
X66687844Y-57070117D01*
X66689285Y-57055485D01*
X66689285Y-56998342D01*
X66687844Y-56983710D01*
X66686812Y-56981220D01*
X66686622Y-56978533D01*
X66681367Y-56964801D01*
X66652796Y-56907659D01*
X66648832Y-56901362D01*
X66648075Y-56899533D01*
X66646385Y-56897474D01*
X66644964Y-56895216D01*
X66643465Y-56893916D01*
X66638748Y-56888168D01*
X66610177Y-56859596D01*
X66604425Y-56854875D01*
X66603127Y-56853378D01*
X66600871Y-56851958D01*
X66598812Y-56850268D01*
X66596981Y-56849509D01*
X66590684Y-56845546D01*
X66533541Y-56816975D01*
X66532471Y-56816565D01*
X66532036Y-56816243D01*
X66525890Y-56814047D01*
X66519809Y-56811720D01*
X66519269Y-56811681D01*
X66518190Y-56811296D01*
X66411889Y-56784720D01*
X66372998Y-56765275D01*
X66361639Y-56753916D01*
X66346428Y-56723493D01*
X66346428Y-56701762D01*
X66361639Y-56671339D01*
X66372998Y-56659980D01*
X66403419Y-56644771D01*
X66516401Y-56644771D01*
X66590568Y-56669493D01*
X66604905Y-56672753D01*
X66634095Y-56670678D01*
X66660268Y-56657591D01*
X66679442Y-56635484D01*
X66688696Y-56607722D01*
X66686621Y-56578532D01*
X66682240Y-56569771D01*
X66796429Y-56569771D01*
X66796429Y-57169771D01*
X66797870Y-57184403D01*
X66809069Y-57211439D01*
X66829761Y-57232131D01*
X66856797Y-57243330D01*
X66871429Y-57244771D01*
X67157143Y-57244771D01*
X67171775Y-57243330D01*
X67198811Y-57232131D01*
X67219503Y-57211439D01*
X67230702Y-57184403D01*
X67230702Y-57155139D01*
X67219503Y-57128103D01*
X67198811Y-57107411D01*
X67171775Y-57096212D01*
X67157143Y-57094771D01*
X66946429Y-57094771D01*
X66946429Y-56930485D01*
X67071429Y-56930485D01*
X67086061Y-56929044D01*
X67113097Y-56917845D01*
X67133789Y-56897153D01*
X67144988Y-56870117D01*
X67144988Y-56840853D01*
X67133789Y-56813817D01*
X67113097Y-56793125D01*
X67086061Y-56781926D01*
X67071429Y-56780485D01*
X66946429Y-56780485D01*
X66946429Y-56644771D01*
X67157143Y-56644771D01*
X67171775Y-56643330D01*
X67198811Y-56632131D01*
X67219503Y-56611439D01*
X67230702Y-56584403D01*
X67230702Y-56569771D01*
X67339286Y-56569771D01*
X67339286Y-57169771D01*
X67340727Y-57184403D01*
X67351926Y-57211439D01*
X67372618Y-57232131D01*
X67399654Y-57243330D01*
X67428918Y-57243330D01*
X67455954Y-57232131D01*
X67476646Y-57211439D01*
X67487845Y-57184403D01*
X67489286Y-57169771D01*
X67489286Y-56959057D01*
X67518094Y-56959057D01*
X67695700Y-57212780D01*
X67705272Y-57223941D01*
X67729950Y-57239667D01*
X67758768Y-57244753D01*
X67787339Y-57238423D01*
X67811313Y-57221642D01*
X67827040Y-57196963D01*
X67832125Y-57168145D01*
X67825795Y-57139574D01*
X67818585Y-57126761D01*
X67690658Y-56944008D01*
X67733541Y-56922567D01*
X67739837Y-56918603D01*
X67741668Y-56917845D01*
X67743729Y-56916153D01*
X67745984Y-56914734D01*
X67747280Y-56913238D01*
X67753033Y-56908518D01*
X67781604Y-56879947D01*
X67786324Y-56874194D01*
X67787820Y-56872898D01*
X67789239Y-56870643D01*
X67790931Y-56868582D01*
X67791689Y-56866751D01*
X67795653Y-56860455D01*
X67824225Y-56803313D01*
X67829480Y-56789581D01*
X67829671Y-56786891D01*
X67830702Y-56784403D01*
X67832143Y-56769771D01*
X67832143Y-56684057D01*
X67830702Y-56669425D01*
X67829671Y-56666936D01*
X67829480Y-56664247D01*
X67824225Y-56650515D01*
X67795653Y-56593373D01*
X67791690Y-56587078D01*
X67790932Y-56585247D01*
X67789238Y-56583183D01*
X67787820Y-56580930D01*
X67786325Y-56579633D01*
X67781605Y-56573882D01*
X67753034Y-56545310D01*
X67747282Y-56540589D01*
X67745984Y-56539092D01*
X67743728Y-56537672D01*
X67741669Y-56535982D01*
X67739838Y-56535223D01*
X67733541Y-56531260D01*
X67676398Y-56502689D01*
X67662666Y-56497434D01*
X67659978Y-56497243D01*
X67657489Y-56496212D01*
X67642857Y-56494771D01*
X67414286Y-56494771D01*
X67399654Y-56496212D01*
X67372618Y-56507411D01*
X67351926Y-56528103D01*
X67340727Y-56555139D01*
X67339286Y-56569771D01*
X67230702Y-56569771D01*
X67230702Y-56555139D01*
X67219503Y-56528103D01*
X67198811Y-56507411D01*
X67171775Y-56496212D01*
X67157143Y-56494771D01*
X66871429Y-56494771D01*
X66856797Y-56496212D01*
X66829761Y-56507411D01*
X66809069Y-56528103D01*
X66797870Y-56555139D01*
X66796429Y-56569771D01*
X66682240Y-56569771D01*
X66673534Y-56552358D01*
X66651427Y-56533185D01*
X66638001Y-56527191D01*
X66552288Y-56498620D01*
X66545034Y-56496970D01*
X66543203Y-56496212D01*
X66540548Y-56495950D01*
X66537951Y-56495360D01*
X66535976Y-56495500D01*
X66528571Y-56494771D01*
X66385714Y-56494771D01*
X66371082Y-56496212D01*
X66368592Y-56497243D01*
X66365906Y-56497434D01*
X66352174Y-56502689D01*
X66295030Y-56531260D01*
X66288734Y-56535223D01*
X66286902Y-56535982D01*
X66284840Y-56537674D01*
X66282588Y-56539092D01*
X66281291Y-56540586D01*
X66275537Y-56545310D01*
X66246966Y-56573882D01*
X66242245Y-56579633D01*
X66240751Y-56580930D01*
X66239332Y-56583183D01*
X66237639Y-56585247D01*
X66236880Y-56587078D01*
X66232918Y-56593373D01*
X66204346Y-56650516D01*
X66199091Y-56664247D01*
X66198899Y-56666936D01*
X66197869Y-56669425D01*
X66196428Y-56684057D01*
X66089286Y-56684057D01*
X66089286Y-56569771D01*
X66087845Y-56555139D01*
X66076646Y-56528103D01*
X66055954Y-56507411D01*
X66028918Y-56496212D01*
X65999654Y-56496212D01*
X65972618Y-56507411D01*
X65951926Y-56528103D01*
X65940727Y-56555139D01*
X65939286Y-56569771D01*
X65939286Y-57037779D01*
X65924074Y-57068201D01*
X65912714Y-57079561D01*
X65882296Y-57094771D01*
X65803419Y-57094771D01*
X65772999Y-57079561D01*
X65761638Y-57068200D01*
X65746429Y-57037780D01*
X65746429Y-56569771D01*
X65744988Y-56555139D01*
X65733789Y-56528103D01*
X65713097Y-56507411D01*
X65686061Y-56496212D01*
X65656797Y-56496212D01*
X65629761Y-56507411D01*
X65609069Y-56528103D01*
X65597870Y-56555139D01*
X65596429Y-56569771D01*
X65521429Y-56569771D01*
X65521429Y-56419771D01*
X67907143Y-56419771D01*
X67907143Y-57319771D01*
G37*
X37233333Y-86222295D02*
X37500000Y-87022295D01*
X37500000Y-87022295D02*
X37766666Y-86222295D01*
X38299999Y-86603247D02*
X38414285Y-86641342D01*
X38414285Y-86641342D02*
X38452380Y-86679438D01*
X38452380Y-86679438D02*
X38490476Y-86755628D01*
X38490476Y-86755628D02*
X38490476Y-86869914D01*
X38490476Y-86869914D02*
X38452380Y-86946104D01*
X38452380Y-86946104D02*
X38414285Y-86984200D01*
X38414285Y-86984200D02*
X38338095Y-87022295D01*
X38338095Y-87022295D02*
X38033333Y-87022295D01*
X38033333Y-87022295D02*
X38033333Y-86222295D01*
X38033333Y-86222295D02*
X38299999Y-86222295D01*
X38299999Y-86222295D02*
X38376190Y-86260390D01*
X38376190Y-86260390D02*
X38414285Y-86298485D01*
X38414285Y-86298485D02*
X38452380Y-86374676D01*
X38452380Y-86374676D02*
X38452380Y-86450866D01*
X38452380Y-86450866D02*
X38414285Y-86527057D01*
X38414285Y-86527057D02*
X38376190Y-86565152D01*
X38376190Y-86565152D02*
X38299999Y-86603247D01*
X38299999Y-86603247D02*
X38033333Y-86603247D01*
X38833333Y-86222295D02*
X38833333Y-86869914D01*
X38833333Y-86869914D02*
X38871428Y-86946104D01*
X38871428Y-86946104D02*
X38909523Y-86984200D01*
X38909523Y-86984200D02*
X38985714Y-87022295D01*
X38985714Y-87022295D02*
X39138095Y-87022295D01*
X39138095Y-87022295D02*
X39214285Y-86984200D01*
X39214285Y-86984200D02*
X39252380Y-86946104D01*
X39252380Y-86946104D02*
X39290476Y-86869914D01*
X39290476Y-86869914D02*
X39290476Y-86222295D01*
X39633332Y-86984200D02*
X39747618Y-87022295D01*
X39747618Y-87022295D02*
X39938094Y-87022295D01*
X39938094Y-87022295D02*
X40014285Y-86984200D01*
X40014285Y-86984200D02*
X40052380Y-86946104D01*
X40052380Y-86946104D02*
X40090475Y-86869914D01*
X40090475Y-86869914D02*
X40090475Y-86793723D01*
X40090475Y-86793723D02*
X40052380Y-86717533D01*
X40052380Y-86717533D02*
X40014285Y-86679438D01*
X40014285Y-86679438D02*
X39938094Y-86641342D01*
X39938094Y-86641342D02*
X39785713Y-86603247D01*
X39785713Y-86603247D02*
X39709523Y-86565152D01*
X39709523Y-86565152D02*
X39671428Y-86527057D01*
X39671428Y-86527057D02*
X39633332Y-86450866D01*
X39633332Y-86450866D02*
X39633332Y-86374676D01*
X39633332Y-86374676D02*
X39671428Y-86298485D01*
X39671428Y-86298485D02*
X39709523Y-86260390D01*
X39709523Y-86260390D02*
X39785713Y-86222295D01*
X39785713Y-86222295D02*
X39976190Y-86222295D01*
X39976190Y-86222295D02*
X40090475Y-86260390D01*
X35300476Y-97550390D02*
X35224286Y-97512295D01*
X35224286Y-97512295D02*
X35110000Y-97512295D01*
X35110000Y-97512295D02*
X34995714Y-97550390D01*
X34995714Y-97550390D02*
X34919524Y-97626580D01*
X34919524Y-97626580D02*
X34881429Y-97702771D01*
X34881429Y-97702771D02*
X34843333Y-97855152D01*
X34843333Y-97855152D02*
X34843333Y-97969438D01*
X34843333Y-97969438D02*
X34881429Y-98121819D01*
X34881429Y-98121819D02*
X34919524Y-98198009D01*
X34919524Y-98198009D02*
X34995714Y-98274200D01*
X34995714Y-98274200D02*
X35110000Y-98312295D01*
X35110000Y-98312295D02*
X35186191Y-98312295D01*
X35186191Y-98312295D02*
X35300476Y-98274200D01*
X35300476Y-98274200D02*
X35338572Y-98236104D01*
X35338572Y-98236104D02*
X35338572Y-97969438D01*
X35338572Y-97969438D02*
X35186191Y-97969438D01*
X35681429Y-98312295D02*
X35681429Y-97512295D01*
X35681429Y-97512295D02*
X36138572Y-98312295D01*
X36138572Y-98312295D02*
X36138572Y-97512295D01*
X36519524Y-98312295D02*
X36519524Y-97512295D01*
X36519524Y-97512295D02*
X36710000Y-97512295D01*
X36710000Y-97512295D02*
X36824286Y-97550390D01*
X36824286Y-97550390D02*
X36900476Y-97626580D01*
X36900476Y-97626580D02*
X36938571Y-97702771D01*
X36938571Y-97702771D02*
X36976667Y-97855152D01*
X36976667Y-97855152D02*
X36976667Y-97969438D01*
X36976667Y-97969438D02*
X36938571Y-98121819D01*
X36938571Y-98121819D02*
X36900476Y-98198009D01*
X36900476Y-98198009D02*
X36824286Y-98274200D01*
X36824286Y-98274200D02*
X36710000Y-98312295D01*
X36710000Y-98312295D02*
X36519524Y-98312295D01*
X70740476Y-94662295D02*
X70740476Y-95309914D01*
X70740476Y-95309914D02*
X70778571Y-95386104D01*
X70778571Y-95386104D02*
X70816666Y-95424200D01*
X70816666Y-95424200D02*
X70892857Y-95462295D01*
X70892857Y-95462295D02*
X71045238Y-95462295D01*
X71045238Y-95462295D02*
X71121428Y-95424200D01*
X71121428Y-95424200D02*
X71159523Y-95386104D01*
X71159523Y-95386104D02*
X71197619Y-95309914D01*
X71197619Y-95309914D02*
X71197619Y-94662295D01*
X71921428Y-94928961D02*
X71921428Y-95462295D01*
X71730952Y-94624200D02*
X71540475Y-95195628D01*
X71540475Y-95195628D02*
X72035714Y-95195628D01*
X52309524Y-65982295D02*
X52309524Y-65182295D01*
X52309524Y-65182295D02*
X52500000Y-65182295D01*
X52500000Y-65182295D02*
X52614286Y-65220390D01*
X52614286Y-65220390D02*
X52690476Y-65296580D01*
X52690476Y-65296580D02*
X52728571Y-65372771D01*
X52728571Y-65372771D02*
X52766667Y-65525152D01*
X52766667Y-65525152D02*
X52766667Y-65639438D01*
X52766667Y-65639438D02*
X52728571Y-65791819D01*
X52728571Y-65791819D02*
X52690476Y-65868009D01*
X52690476Y-65868009D02*
X52614286Y-65944200D01*
X52614286Y-65944200D02*
X52500000Y-65982295D01*
X52500000Y-65982295D02*
X52309524Y-65982295D01*
X53452381Y-65182295D02*
X53300000Y-65182295D01*
X53300000Y-65182295D02*
X53223809Y-65220390D01*
X53223809Y-65220390D02*
X53185714Y-65258485D01*
X53185714Y-65258485D02*
X53109524Y-65372771D01*
X53109524Y-65372771D02*
X53071428Y-65525152D01*
X53071428Y-65525152D02*
X53071428Y-65829914D01*
X53071428Y-65829914D02*
X53109524Y-65906104D01*
X53109524Y-65906104D02*
X53147619Y-65944200D01*
X53147619Y-65944200D02*
X53223809Y-65982295D01*
X53223809Y-65982295D02*
X53376190Y-65982295D01*
X53376190Y-65982295D02*
X53452381Y-65944200D01*
X53452381Y-65944200D02*
X53490476Y-65906104D01*
X53490476Y-65906104D02*
X53528571Y-65829914D01*
X53528571Y-65829914D02*
X53528571Y-65639438D01*
X53528571Y-65639438D02*
X53490476Y-65563247D01*
X53490476Y-65563247D02*
X53452381Y-65525152D01*
X53452381Y-65525152D02*
X53376190Y-65487057D01*
X53376190Y-65487057D02*
X53223809Y-65487057D01*
X53223809Y-65487057D02*
X53147619Y-65525152D01*
X53147619Y-65525152D02*
X53109524Y-65563247D01*
X53109524Y-65563247D02*
X53071428Y-65639438D01*
X64819048Y-80981342D02*
X64819048Y-81362295D01*
X64552381Y-80562295D02*
X64819048Y-80981342D01*
X64819048Y-80981342D02*
X65085714Y-80562295D01*
X65771428Y-81362295D02*
X65314285Y-81362295D01*
X65542857Y-81362295D02*
X65542857Y-80562295D01*
X65542857Y-80562295D02*
X65466666Y-80676580D01*
X65466666Y-80676580D02*
X65390476Y-80752771D01*
X65390476Y-80752771D02*
X65314285Y-80790866D01*
X68396666Y-88442295D02*
X68015714Y-88442295D01*
X68015714Y-88442295D02*
X68015714Y-87642295D01*
X69082380Y-88442295D02*
X68625237Y-88442295D01*
X68853809Y-88442295D02*
X68853809Y-87642295D01*
X68853809Y-87642295D02*
X68777618Y-87756580D01*
X68777618Y-87756580D02*
X68701428Y-87832771D01*
X68701428Y-87832771D02*
X68625237Y-87870866D01*
G36*
X66026999Y-61159980D02*
G01*
X66038359Y-61171340D01*
X66053571Y-61201762D01*
X66053571Y-61252065D01*
X66038360Y-61282486D01*
X66027001Y-61293845D01*
X65996579Y-61309057D01*
X65860714Y-61309057D01*
X65860714Y-61144771D01*
X65996581Y-61144771D01*
X66026999Y-61159980D01*
G37*
G36*
X68448559Y-61819771D02*
G01*
X65635714Y-61819771D01*
X65635714Y-61069771D01*
X65710714Y-61069771D01*
X65710714Y-61669771D01*
X65712155Y-61684403D01*
X65723354Y-61711439D01*
X65744046Y-61732131D01*
X65771082Y-61743330D01*
X65800346Y-61743330D01*
X65827382Y-61732131D01*
X65848074Y-61711439D01*
X65859273Y-61684403D01*
X65860714Y-61669771D01*
X65860714Y-61459057D01*
X65889522Y-61459057D01*
X66067128Y-61712780D01*
X66076700Y-61723941D01*
X66101378Y-61739667D01*
X66130196Y-61744753D01*
X66158767Y-61738423D01*
X66182741Y-61721642D01*
X66198468Y-61696963D01*
X66203553Y-61668145D01*
X66197223Y-61639574D01*
X66190013Y-61626761D01*
X66062086Y-61444008D01*
X66104969Y-61422567D01*
X66111265Y-61418603D01*
X66113096Y-61417845D01*
X66115157Y-61416153D01*
X66117412Y-61414734D01*
X66118708Y-61413238D01*
X66124461Y-61408518D01*
X66153032Y-61379947D01*
X66157752Y-61374194D01*
X66159248Y-61372898D01*
X66160667Y-61370643D01*
X66162359Y-61368582D01*
X66163117Y-61366751D01*
X66167081Y-61360455D01*
X66195653Y-61303313D01*
X66200908Y-61289581D01*
X66201099Y-61286891D01*
X66202130Y-61284403D01*
X66203571Y-61269771D01*
X66203571Y-61184057D01*
X66202130Y-61169425D01*
X66201099Y-61166936D01*
X66200908Y-61164247D01*
X66195653Y-61150515D01*
X66167081Y-61093373D01*
X66163118Y-61087078D01*
X66162360Y-61085247D01*
X66160666Y-61083183D01*
X66159248Y-61080930D01*
X66157753Y-61079633D01*
X66153033Y-61073882D01*
X66148922Y-61069771D01*
X66310714Y-61069771D01*
X66310714Y-61669771D01*
X66312155Y-61684403D01*
X66323354Y-61711439D01*
X66344046Y-61732131D01*
X66371082Y-61743330D01*
X66385714Y-61744771D01*
X66671428Y-61744771D01*
X66686060Y-61743330D01*
X66713096Y-61732131D01*
X66733788Y-61711439D01*
X66744987Y-61684403D01*
X66744987Y-61655139D01*
X66733788Y-61628103D01*
X66713096Y-61607411D01*
X66686060Y-61596212D01*
X66671428Y-61594771D01*
X66460714Y-61594771D01*
X66460714Y-61430485D01*
X66585714Y-61430485D01*
X66600346Y-61429044D01*
X66627382Y-61417845D01*
X66648074Y-61397153D01*
X66659273Y-61370117D01*
X66659273Y-61340853D01*
X66648074Y-61313817D01*
X66627382Y-61293125D01*
X66600346Y-61281926D01*
X66585714Y-61280485D01*
X66460714Y-61280485D01*
X66460714Y-61184057D01*
X66824999Y-61184057D01*
X66824999Y-61241200D01*
X66826440Y-61255832D01*
X66827470Y-61258320D01*
X66827662Y-61261010D01*
X66832917Y-61274742D01*
X66861489Y-61331884D01*
X66865452Y-61338180D01*
X66866210Y-61340009D01*
X66867900Y-61342068D01*
X66869322Y-61344327D01*
X66870819Y-61345625D01*
X66875537Y-61351374D01*
X66904108Y-61379946D01*
X66909862Y-61384669D01*
X66911159Y-61386164D01*
X66913411Y-61387581D01*
X66915473Y-61389274D01*
X66917305Y-61390032D01*
X66923601Y-61393996D01*
X66980745Y-61422567D01*
X66981812Y-61422975D01*
X66982249Y-61423299D01*
X66988409Y-61425500D01*
X66994477Y-61427822D01*
X66995015Y-61427860D01*
X66996095Y-61428246D01*
X67102396Y-61454822D01*
X67141285Y-61474266D01*
X67152645Y-61485626D01*
X67167856Y-61516047D01*
X67167856Y-61537780D01*
X67152645Y-61568201D01*
X67141285Y-61579561D01*
X67110867Y-61594771D01*
X66997885Y-61594771D01*
X66923716Y-61570049D01*
X66909379Y-61566789D01*
X66880189Y-61568864D01*
X66854015Y-61581951D01*
X66834842Y-61604058D01*
X66825588Y-61631820D01*
X66827663Y-61661010D01*
X66840750Y-61687184D01*
X66862857Y-61706357D01*
X66876282Y-61712351D01*
X66961997Y-61740922D01*
X66969250Y-61742571D01*
X66971082Y-61743330D01*
X66973736Y-61743591D01*
X66976334Y-61744182D01*
X66978308Y-61744041D01*
X66985714Y-61744771D01*
X67128571Y-61744771D01*
X67143203Y-61743330D01*
X67145692Y-61742298D01*
X67148380Y-61742108D01*
X67162112Y-61736853D01*
X67219255Y-61708282D01*
X67225552Y-61704318D01*
X67227383Y-61703560D01*
X67229442Y-61701869D01*
X67231698Y-61700450D01*
X67232996Y-61698952D01*
X67238748Y-61694232D01*
X67267319Y-61665660D01*
X67272039Y-61659907D01*
X67273535Y-61658611D01*
X67274954Y-61656356D01*
X67276646Y-61654295D01*
X67277404Y-61652464D01*
X67281367Y-61646169D01*
X67309938Y-61589025D01*
X67315193Y-61575293D01*
X67315383Y-61572606D01*
X67316415Y-61570117D01*
X67317856Y-61555485D01*
X67317856Y-61498342D01*
X67316415Y-61483710D01*
X67315383Y-61481220D01*
X67315193Y-61478533D01*
X67309938Y-61464801D01*
X67281367Y-61407659D01*
X67277403Y-61401362D01*
X67276646Y-61399533D01*
X67274956Y-61397474D01*
X67273535Y-61395216D01*
X67272036Y-61393916D01*
X67267319Y-61388168D01*
X67238748Y-61359596D01*
X67232996Y-61354875D01*
X67231698Y-61353378D01*
X67229442Y-61351958D01*
X67227383Y-61350268D01*
X67225552Y-61349509D01*
X67219255Y-61345546D01*
X67162112Y-61316975D01*
X67161042Y-61316565D01*
X67160607Y-61316243D01*
X67154461Y-61314047D01*
X67148380Y-61311720D01*
X67147840Y-61311681D01*
X67146761Y-61311296D01*
X67040460Y-61284720D01*
X67001569Y-61265275D01*
X66990210Y-61253916D01*
X66974999Y-61223493D01*
X66974999Y-61201762D01*
X66990210Y-61171339D01*
X67001569Y-61159980D01*
X67031990Y-61144771D01*
X67144972Y-61144771D01*
X67219139Y-61169493D01*
X67233476Y-61172753D01*
X67262666Y-61170678D01*
X67288839Y-61157591D01*
X67308013Y-61135484D01*
X67317267Y-61107722D01*
X67315192Y-61078532D01*
X67310811Y-61069771D01*
X67425000Y-61069771D01*
X67425000Y-61669771D01*
X67426441Y-61684403D01*
X67437640Y-61711439D01*
X67458332Y-61732131D01*
X67485368Y-61743330D01*
X67500000Y-61744771D01*
X67785714Y-61744771D01*
X67800346Y-61743330D01*
X67827382Y-61732131D01*
X67848074Y-61711439D01*
X67859273Y-61684403D01*
X67859273Y-61655139D01*
X67848074Y-61628103D01*
X67827382Y-61607411D01*
X67800346Y-61596212D01*
X67785714Y-61594771D01*
X67575000Y-61594771D01*
X67575000Y-61430485D01*
X67700000Y-61430485D01*
X67714632Y-61429044D01*
X67741668Y-61417845D01*
X67762360Y-61397153D01*
X67773559Y-61370117D01*
X67773559Y-61340853D01*
X67762360Y-61313817D01*
X67741668Y-61293125D01*
X67714632Y-61281926D01*
X67700000Y-61280485D01*
X67575000Y-61280485D01*
X67575000Y-61144771D01*
X67785714Y-61144771D01*
X67800346Y-61143330D01*
X67827382Y-61132131D01*
X67848074Y-61111439D01*
X67859273Y-61084403D01*
X67859273Y-61055139D01*
X67883583Y-61055139D01*
X67883583Y-61084403D01*
X67894782Y-61111439D01*
X67915474Y-61132131D01*
X67942510Y-61143330D01*
X67957142Y-61144771D01*
X68053571Y-61144771D01*
X68053571Y-61669771D01*
X68055012Y-61684403D01*
X68066211Y-61711439D01*
X68086903Y-61732131D01*
X68113939Y-61743330D01*
X68143203Y-61743330D01*
X68170239Y-61732131D01*
X68190931Y-61711439D01*
X68202130Y-61684403D01*
X68203571Y-61669771D01*
X68203571Y-61144771D01*
X68300000Y-61144771D01*
X68314632Y-61143330D01*
X68341668Y-61132131D01*
X68362360Y-61111439D01*
X68373559Y-61084403D01*
X68373559Y-61055139D01*
X68362360Y-61028103D01*
X68341668Y-61007411D01*
X68314632Y-60996212D01*
X68300000Y-60994771D01*
X67957142Y-60994771D01*
X67942510Y-60996212D01*
X67915474Y-61007411D01*
X67894782Y-61028103D01*
X67883583Y-61055139D01*
X67859273Y-61055139D01*
X67848074Y-61028103D01*
X67827382Y-61007411D01*
X67800346Y-60996212D01*
X67785714Y-60994771D01*
X67500000Y-60994771D01*
X67485368Y-60996212D01*
X67458332Y-61007411D01*
X67437640Y-61028103D01*
X67426441Y-61055139D01*
X67425000Y-61069771D01*
X67310811Y-61069771D01*
X67302105Y-61052358D01*
X67279998Y-61033185D01*
X67266572Y-61027191D01*
X67180859Y-60998620D01*
X67173605Y-60996970D01*
X67171774Y-60996212D01*
X67169119Y-60995950D01*
X67166522Y-60995360D01*
X67164547Y-60995500D01*
X67157142Y-60994771D01*
X67014285Y-60994771D01*
X66999653Y-60996212D01*
X66997163Y-60997243D01*
X66994477Y-60997434D01*
X66980745Y-61002689D01*
X66923601Y-61031260D01*
X66917305Y-61035223D01*
X66915473Y-61035982D01*
X66913411Y-61037674D01*
X66911159Y-61039092D01*
X66909862Y-61040586D01*
X66904108Y-61045310D01*
X66875537Y-61073882D01*
X66870816Y-61079633D01*
X66869322Y-61080930D01*
X66867903Y-61083183D01*
X66866210Y-61085247D01*
X66865451Y-61087078D01*
X66861489Y-61093373D01*
X66832917Y-61150516D01*
X66827662Y-61164247D01*
X66827470Y-61166936D01*
X66826440Y-61169425D01*
X66824999Y-61184057D01*
X66460714Y-61184057D01*
X66460714Y-61144771D01*
X66671428Y-61144771D01*
X66686060Y-61143330D01*
X66713096Y-61132131D01*
X66733788Y-61111439D01*
X66744987Y-61084403D01*
X66744987Y-61055139D01*
X66733788Y-61028103D01*
X66713096Y-61007411D01*
X66686060Y-60996212D01*
X66671428Y-60994771D01*
X66385714Y-60994771D01*
X66371082Y-60996212D01*
X66344046Y-61007411D01*
X66323354Y-61028103D01*
X66312155Y-61055139D01*
X66310714Y-61069771D01*
X66148922Y-61069771D01*
X66124462Y-61045310D01*
X66118710Y-61040589D01*
X66117412Y-61039092D01*
X66115156Y-61037672D01*
X66113097Y-61035982D01*
X66111266Y-61035223D01*
X66104969Y-61031260D01*
X66047826Y-61002689D01*
X66034094Y-60997434D01*
X66031406Y-60997243D01*
X66028917Y-60996212D01*
X66014285Y-60994771D01*
X65785714Y-60994771D01*
X65771082Y-60996212D01*
X65744046Y-61007411D01*
X65723354Y-61028103D01*
X65712155Y-61055139D01*
X65710714Y-61069771D01*
X65635714Y-61069771D01*
X65635714Y-60919771D01*
X68448559Y-60919771D01*
X68448559Y-61819771D01*
G37*
X38489523Y-71012295D02*
X38984761Y-71012295D01*
X38984761Y-71012295D02*
X38718095Y-71317057D01*
X38718095Y-71317057D02*
X38832380Y-71317057D01*
X38832380Y-71317057D02*
X38908571Y-71355152D01*
X38908571Y-71355152D02*
X38946666Y-71393247D01*
X38946666Y-71393247D02*
X38984761Y-71469438D01*
X38984761Y-71469438D02*
X38984761Y-71659914D01*
X38984761Y-71659914D02*
X38946666Y-71736104D01*
X38946666Y-71736104D02*
X38908571Y-71774200D01*
X38908571Y-71774200D02*
X38832380Y-71812295D01*
X38832380Y-71812295D02*
X38603809Y-71812295D01*
X38603809Y-71812295D02*
X38527618Y-71774200D01*
X38527618Y-71774200D02*
X38489523Y-71736104D01*
X39213333Y-71012295D02*
X39480000Y-71812295D01*
X39480000Y-71812295D02*
X39746666Y-71012295D01*
X39937142Y-71012295D02*
X40432380Y-71012295D01*
X40432380Y-71012295D02*
X40165714Y-71317057D01*
X40165714Y-71317057D02*
X40279999Y-71317057D01*
X40279999Y-71317057D02*
X40356190Y-71355152D01*
X40356190Y-71355152D02*
X40394285Y-71393247D01*
X40394285Y-71393247D02*
X40432380Y-71469438D01*
X40432380Y-71469438D02*
X40432380Y-71659914D01*
X40432380Y-71659914D02*
X40394285Y-71736104D01*
X40394285Y-71736104D02*
X40356190Y-71774200D01*
X40356190Y-71774200D02*
X40279999Y-71812295D01*
X40279999Y-71812295D02*
X40051428Y-71812295D01*
X40051428Y-71812295D02*
X39975237Y-71774200D01*
X39975237Y-71774200D02*
X39937142Y-71736104D01*
X48917669Y-94827385D02*
X48917669Y-95475004D01*
X48917669Y-95475004D02*
X48955764Y-95551194D01*
X48955764Y-95551194D02*
X48993859Y-95589290D01*
X48993859Y-95589290D02*
X49070050Y-95627385D01*
X49070050Y-95627385D02*
X49222431Y-95627385D01*
X49222431Y-95627385D02*
X49298621Y-95589290D01*
X49298621Y-95589290D02*
X49336716Y-95551194D01*
X49336716Y-95551194D02*
X49374812Y-95475004D01*
X49374812Y-95475004D02*
X49374812Y-94827385D01*
X50136716Y-94827385D02*
X49755764Y-94827385D01*
X49755764Y-94827385D02*
X49717668Y-95208337D01*
X49717668Y-95208337D02*
X49755764Y-95170242D01*
X49755764Y-95170242D02*
X49831954Y-95132147D01*
X49831954Y-95132147D02*
X50022430Y-95132147D01*
X50022430Y-95132147D02*
X50098621Y-95170242D01*
X50098621Y-95170242D02*
X50136716Y-95208337D01*
X50136716Y-95208337D02*
X50174811Y-95284528D01*
X50174811Y-95284528D02*
X50174811Y-95475004D01*
X50174811Y-95475004D02*
X50136716Y-95551194D01*
X50136716Y-95551194D02*
X50098621Y-95589290D01*
X50098621Y-95589290D02*
X50022430Y-95627385D01*
X50022430Y-95627385D02*
X49831954Y-95627385D01*
X49831954Y-95627385D02*
X49755764Y-95589290D01*
X49755764Y-95589290D02*
X49717668Y-95551194D01*
X46009524Y-82662295D02*
X46009524Y-81862295D01*
X46009524Y-81862295D02*
X46200000Y-81862295D01*
X46200000Y-81862295D02*
X46314286Y-81900390D01*
X46314286Y-81900390D02*
X46390476Y-81976580D01*
X46390476Y-81976580D02*
X46428571Y-82052771D01*
X46428571Y-82052771D02*
X46466667Y-82205152D01*
X46466667Y-82205152D02*
X46466667Y-82319438D01*
X46466667Y-82319438D02*
X46428571Y-82471819D01*
X46428571Y-82471819D02*
X46390476Y-82548009D01*
X46390476Y-82548009D02*
X46314286Y-82624200D01*
X46314286Y-82624200D02*
X46200000Y-82662295D01*
X46200000Y-82662295D02*
X46009524Y-82662295D01*
X47228571Y-82662295D02*
X46771428Y-82662295D01*
X47000000Y-82662295D02*
X47000000Y-81862295D01*
X47000000Y-81862295D02*
X46923809Y-81976580D01*
X46923809Y-81976580D02*
X46847619Y-82052771D01*
X46847619Y-82052771D02*
X46771428Y-82090866D01*
X63709523Y-87062295D02*
X64204761Y-87062295D01*
X64204761Y-87062295D02*
X63938095Y-87367057D01*
X63938095Y-87367057D02*
X64052380Y-87367057D01*
X64052380Y-87367057D02*
X64128571Y-87405152D01*
X64128571Y-87405152D02*
X64166666Y-87443247D01*
X64166666Y-87443247D02*
X64204761Y-87519438D01*
X64204761Y-87519438D02*
X64204761Y-87709914D01*
X64204761Y-87709914D02*
X64166666Y-87786104D01*
X64166666Y-87786104D02*
X64128571Y-87824200D01*
X64128571Y-87824200D02*
X64052380Y-87862295D01*
X64052380Y-87862295D02*
X63823809Y-87862295D01*
X63823809Y-87862295D02*
X63747618Y-87824200D01*
X63747618Y-87824200D02*
X63709523Y-87786104D01*
X64433333Y-87062295D02*
X64700000Y-87862295D01*
X64700000Y-87862295D02*
X64966666Y-87062295D01*
X65157142Y-87062295D02*
X65652380Y-87062295D01*
X65652380Y-87062295D02*
X65385714Y-87367057D01*
X65385714Y-87367057D02*
X65499999Y-87367057D01*
X65499999Y-87367057D02*
X65576190Y-87405152D01*
X65576190Y-87405152D02*
X65614285Y-87443247D01*
X65614285Y-87443247D02*
X65652380Y-87519438D01*
X65652380Y-87519438D02*
X65652380Y-87709914D01*
X65652380Y-87709914D02*
X65614285Y-87786104D01*
X65614285Y-87786104D02*
X65576190Y-87824200D01*
X65576190Y-87824200D02*
X65499999Y-87862295D01*
X65499999Y-87862295D02*
X65271428Y-87862295D01*
X65271428Y-87862295D02*
X65195237Y-87824200D01*
X65195237Y-87824200D02*
X65157142Y-87786104D01*
X45655705Y-90662295D02*
X45655705Y-91309914D01*
X45655705Y-91309914D02*
X45693800Y-91386104D01*
X45693800Y-91386104D02*
X45731895Y-91424200D01*
X45731895Y-91424200D02*
X45808086Y-91462295D01*
X45808086Y-91462295D02*
X45960467Y-91462295D01*
X45960467Y-91462295D02*
X46036657Y-91424200D01*
X46036657Y-91424200D02*
X46074752Y-91386104D01*
X46074752Y-91386104D02*
X46112848Y-91309914D01*
X46112848Y-91309914D02*
X46112848Y-90662295D01*
X46912847Y-91462295D02*
X46455704Y-91462295D01*
X46684276Y-91462295D02*
X46684276Y-90662295D01*
X46684276Y-90662295D02*
X46608085Y-90776580D01*
X46608085Y-90776580D02*
X46531895Y-90852771D01*
X46531895Y-90852771D02*
X46455704Y-90890866D01*
X75859524Y-94212295D02*
X75859524Y-93412295D01*
X75859524Y-93412295D02*
X76050000Y-93412295D01*
X76050000Y-93412295D02*
X76164286Y-93450390D01*
X76164286Y-93450390D02*
X76240476Y-93526580D01*
X76240476Y-93526580D02*
X76278571Y-93602771D01*
X76278571Y-93602771D02*
X76316667Y-93755152D01*
X76316667Y-93755152D02*
X76316667Y-93869438D01*
X76316667Y-93869438D02*
X76278571Y-94021819D01*
X76278571Y-94021819D02*
X76240476Y-94098009D01*
X76240476Y-94098009D02*
X76164286Y-94174200D01*
X76164286Y-94174200D02*
X76050000Y-94212295D01*
X76050000Y-94212295D02*
X75859524Y-94212295D01*
X77002381Y-93678961D02*
X77002381Y-94212295D01*
X76811905Y-93374200D02*
X76621428Y-93945628D01*
X76621428Y-93945628D02*
X77116667Y-93945628D01*
X60230476Y-78072295D02*
X60230476Y-78719914D01*
X60230476Y-78719914D02*
X60268571Y-78796104D01*
X60268571Y-78796104D02*
X60306666Y-78834200D01*
X60306666Y-78834200D02*
X60382857Y-78872295D01*
X60382857Y-78872295D02*
X60535238Y-78872295D01*
X60535238Y-78872295D02*
X60611428Y-78834200D01*
X60611428Y-78834200D02*
X60649523Y-78796104D01*
X60649523Y-78796104D02*
X60687619Y-78719914D01*
X60687619Y-78719914D02*
X60687619Y-78072295D01*
X60992380Y-78072295D02*
X61525714Y-78072295D01*
X61525714Y-78072295D02*
X61182856Y-78872295D01*
X69019048Y-76481342D02*
X69019048Y-76862295D01*
X68752381Y-76062295D02*
X69019048Y-76481342D01*
X69019048Y-76481342D02*
X69285714Y-76062295D01*
X69514285Y-76138485D02*
X69552381Y-76100390D01*
X69552381Y-76100390D02*
X69628571Y-76062295D01*
X69628571Y-76062295D02*
X69819047Y-76062295D01*
X69819047Y-76062295D02*
X69895238Y-76100390D01*
X69895238Y-76100390D02*
X69933333Y-76138485D01*
X69933333Y-76138485D02*
X69971428Y-76214676D01*
X69971428Y-76214676D02*
X69971428Y-76290866D01*
X69971428Y-76290866D02*
X69933333Y-76405152D01*
X69933333Y-76405152D02*
X69476190Y-76862295D01*
X69476190Y-76862295D02*
X69971428Y-76862295D01*
X75823691Y-95848961D02*
X75823691Y-95048961D01*
X75823691Y-95048961D02*
X76014167Y-95048961D01*
X76014167Y-95048961D02*
X76128453Y-95087056D01*
X76128453Y-95087056D02*
X76204643Y-95163246D01*
X76204643Y-95163246D02*
X76242738Y-95239437D01*
X76242738Y-95239437D02*
X76280834Y-95391818D01*
X76280834Y-95391818D02*
X76280834Y-95506104D01*
X76280834Y-95506104D02*
X76242738Y-95658485D01*
X76242738Y-95658485D02*
X76204643Y-95734675D01*
X76204643Y-95734675D02*
X76128453Y-95810866D01*
X76128453Y-95810866D02*
X76014167Y-95848961D01*
X76014167Y-95848961D02*
X75823691Y-95848961D01*
X77004643Y-95048961D02*
X76623691Y-95048961D01*
X76623691Y-95048961D02*
X76585595Y-95429913D01*
X76585595Y-95429913D02*
X76623691Y-95391818D01*
X76623691Y-95391818D02*
X76699881Y-95353723D01*
X76699881Y-95353723D02*
X76890357Y-95353723D01*
X76890357Y-95353723D02*
X76966548Y-95391818D01*
X76966548Y-95391818D02*
X77004643Y-95429913D01*
X77004643Y-95429913D02*
X77042738Y-95506104D01*
X77042738Y-95506104D02*
X77042738Y-95696580D01*
X77042738Y-95696580D02*
X77004643Y-95772770D01*
X77004643Y-95772770D02*
X76966548Y-95810866D01*
X76966548Y-95810866D02*
X76890357Y-95848961D01*
X76890357Y-95848961D02*
X76699881Y-95848961D01*
X76699881Y-95848961D02*
X76623691Y-95810866D01*
X76623691Y-95810866D02*
X76585595Y-95772770D01*
X44309524Y-85862295D02*
X44309524Y-85062295D01*
X44309524Y-85062295D02*
X44500000Y-85062295D01*
X44500000Y-85062295D02*
X44614286Y-85100390D01*
X44614286Y-85100390D02*
X44690476Y-85176580D01*
X44690476Y-85176580D02*
X44728571Y-85252771D01*
X44728571Y-85252771D02*
X44766667Y-85405152D01*
X44766667Y-85405152D02*
X44766667Y-85519438D01*
X44766667Y-85519438D02*
X44728571Y-85671819D01*
X44728571Y-85671819D02*
X44690476Y-85748009D01*
X44690476Y-85748009D02*
X44614286Y-85824200D01*
X44614286Y-85824200D02*
X44500000Y-85862295D01*
X44500000Y-85862295D02*
X44309524Y-85862295D01*
X45223809Y-85405152D02*
X45147619Y-85367057D01*
X45147619Y-85367057D02*
X45109524Y-85328961D01*
X45109524Y-85328961D02*
X45071428Y-85252771D01*
X45071428Y-85252771D02*
X45071428Y-85214676D01*
X45071428Y-85214676D02*
X45109524Y-85138485D01*
X45109524Y-85138485D02*
X45147619Y-85100390D01*
X45147619Y-85100390D02*
X45223809Y-85062295D01*
X45223809Y-85062295D02*
X45376190Y-85062295D01*
X45376190Y-85062295D02*
X45452381Y-85100390D01*
X45452381Y-85100390D02*
X45490476Y-85138485D01*
X45490476Y-85138485D02*
X45528571Y-85214676D01*
X45528571Y-85214676D02*
X45528571Y-85252771D01*
X45528571Y-85252771D02*
X45490476Y-85328961D01*
X45490476Y-85328961D02*
X45452381Y-85367057D01*
X45452381Y-85367057D02*
X45376190Y-85405152D01*
X45376190Y-85405152D02*
X45223809Y-85405152D01*
X45223809Y-85405152D02*
X45147619Y-85443247D01*
X45147619Y-85443247D02*
X45109524Y-85481342D01*
X45109524Y-85481342D02*
X45071428Y-85557533D01*
X45071428Y-85557533D02*
X45071428Y-85709914D01*
X45071428Y-85709914D02*
X45109524Y-85786104D01*
X45109524Y-85786104D02*
X45147619Y-85824200D01*
X45147619Y-85824200D02*
X45223809Y-85862295D01*
X45223809Y-85862295D02*
X45376190Y-85862295D01*
X45376190Y-85862295D02*
X45452381Y-85824200D01*
X45452381Y-85824200D02*
X45490476Y-85786104D01*
X45490476Y-85786104D02*
X45528571Y-85709914D01*
X45528571Y-85709914D02*
X45528571Y-85557533D01*
X45528571Y-85557533D02*
X45490476Y-85481342D01*
X45490476Y-85481342D02*
X45452381Y-85443247D01*
X45452381Y-85443247D02*
X45376190Y-85405152D01*
D13*
%TO.C,R26*%
X55817500Y-85515276D02*
X55817500Y-86024724D01*
X56862500Y-85515276D02*
X56862500Y-86024724D01*
%TO.C,R1*%
X67170300Y-99242776D02*
X67170300Y-99752224D01*
X68215300Y-99242776D02*
X68215300Y-99752224D01*
%TO.C,R23*%
X43107776Y-65077500D02*
X43617224Y-65077500D01*
X43107776Y-66122500D02*
X43617224Y-66122500D01*
%TO.C,R9*%
X73964564Y-96711800D02*
X73510436Y-96711800D01*
X73964564Y-98181800D02*
X73510436Y-98181800D01*
%TO.C,R6*%
X48882224Y-91967500D02*
X48372776Y-91967500D01*
X48882224Y-93012500D02*
X48372776Y-93012500D01*
%TO.C,SW1*%
X53600000Y-98600000D02*
X53600000Y-99600000D01*
X54200000Y-98600000D02*
X53600000Y-98600000D01*
X55000000Y-101400000D02*
X57000000Y-101400000D01*
X57800000Y-98600000D02*
X58400000Y-98600000D01*
X58400000Y-98600000D02*
X58400000Y-99600000D01*
%TO.C,C30*%
X34283767Y-58260000D02*
X33991233Y-58260000D01*
X34283767Y-59280000D02*
X33991233Y-59280000D01*
%TO.C,C21*%
X58863767Y-84340000D02*
X58571233Y-84340000D01*
X58863767Y-85360000D02*
X58571233Y-85360000D01*
%TO.C,C29*%
X64365000Y-69161252D02*
X64365000Y-68638748D01*
X65835000Y-69161252D02*
X65835000Y-68638748D01*
%TO.C,C23*%
X53088752Y-69245000D02*
X52566248Y-69245000D01*
X53088752Y-70715000D02*
X52566248Y-70715000D01*
%TO.C,U2*%
X44587750Y-77990000D02*
X43787750Y-77990000D01*
X44587750Y-77990000D02*
X45387750Y-77990000D01*
X44587750Y-81110000D02*
X43787750Y-81110000D01*
X44587750Y-81110000D02*
X45387750Y-81110000D01*
X43287750Y-78040000D02*
X43047750Y-77710000D01*
X43527750Y-77710000D01*
X43287750Y-78040000D01*
G36*
X43287750Y-78040000D02*
G01*
X43047750Y-77710000D01*
X43527750Y-77710000D01*
X43287750Y-78040000D01*
G37*
%TO.C,Q2*%
X57000000Y-90640000D02*
X57050000Y-90640000D01*
X57000000Y-92160000D02*
X57000000Y-90640000D01*
X58000000Y-92160000D02*
X57000000Y-92160000D01*
X58170000Y-90640000D02*
X58950000Y-90640000D01*
X60070000Y-90640000D02*
X60120000Y-90640000D01*
X60120000Y-90640000D02*
X60120000Y-92160000D01*
X60120000Y-92160000D02*
X59120000Y-92160000D01*
X58940000Y-90100000D02*
X58610000Y-90340000D01*
X58610000Y-89860000D01*
X58940000Y-90100000D01*
G36*
X58940000Y-90100000D02*
G01*
X58610000Y-90340000D01*
X58610000Y-89860000D01*
X58940000Y-90100000D01*
G37*
%TO.C,C24*%
X51811233Y-72970000D02*
X52103767Y-72970000D01*
X51811233Y-73990000D02*
X52103767Y-73990000D01*
%TO.C,C17*%
X71753733Y-59990000D02*
X72046267Y-59990000D01*
X71753733Y-61010000D02*
X72046267Y-61010000D01*
D15*
%TO.C,J8*%
X67500000Y-54075000D02*
X67500000Y-53095000D01*
X68380000Y-54075000D02*
X67500000Y-54075000D01*
X68620000Y-51175000D02*
X73380000Y-51175000D01*
X74500000Y-54075000D02*
X73620000Y-54075000D01*
X74500000Y-54075000D02*
X74500000Y-53095000D01*
D13*
%TO.C,J4*%
X33190000Y-88440000D02*
X33190000Y-94560000D01*
X33190000Y-94560000D02*
X37910000Y-94560000D01*
X33800000Y-89050000D02*
X33800000Y-93950000D01*
X33800000Y-91400000D02*
X34300000Y-91400000D01*
X33800000Y-91500000D02*
X34300000Y-91500000D01*
X33800000Y-93950000D02*
X37300000Y-93950000D01*
X34300000Y-91400000D02*
X34300000Y-91600000D01*
X34300000Y-91600000D02*
X33800000Y-91600000D01*
X35300000Y-88440000D02*
X35300000Y-89050000D01*
X35300000Y-94560000D02*
X35300000Y-93950000D01*
X36600000Y-88440000D02*
X36600000Y-89050000D01*
X36600000Y-94560000D02*
X36600000Y-93950000D01*
X37300000Y-89050000D02*
X33800000Y-89050000D01*
X37300000Y-91000000D02*
X37300000Y-89050000D01*
X37300000Y-92000000D02*
X37910000Y-92000000D01*
X37300000Y-93950000D02*
X37300000Y-92000000D01*
X37910000Y-88440000D02*
X33190000Y-88440000D01*
X37910000Y-90200000D02*
X38110000Y-90200000D01*
X37910000Y-91000000D02*
X37300000Y-91000000D01*
X37910000Y-94560000D02*
X37910000Y-88440000D01*
X38010000Y-90200000D02*
X38010000Y-89900000D01*
X38110000Y-89900000D02*
X37910000Y-89900000D01*
X38110000Y-90200000D02*
X38110000Y-89900000D01*
X38210000Y-88140000D02*
X36960000Y-88140000D01*
X38210000Y-89390000D02*
X38210000Y-88140000D01*
%TO.C,J3*%
X74595000Y-79825000D02*
X74595000Y-77125000D01*
X77315000Y-77075000D02*
X77315000Y-77715000D01*
X77315000Y-79235000D02*
X77945000Y-79235000D01*
X77315000Y-79875000D02*
X77315000Y-79235000D01*
%TO.C,D2*%
X78000000Y-91085000D02*
X80460000Y-91085000D01*
X80460000Y-89615000D02*
X78000000Y-89615000D01*
X80460000Y-91085000D02*
X80460000Y-89615000D01*
%TO.C,D3*%
X78000000Y-92785000D02*
X80460000Y-92785000D01*
X80460000Y-91315000D02*
X78000000Y-91315000D01*
X80460000Y-92785000D02*
X80460000Y-91315000D01*
%TO.C,R19*%
X63877500Y-90445276D02*
X63877500Y-90954724D01*
X64922500Y-90445276D02*
X64922500Y-90954724D01*
%TO.C,C25*%
X79717836Y-74585000D02*
X79502164Y-74585000D01*
X79717836Y-75305000D02*
X79502164Y-75305000D01*
%TO.C,C15*%
X43256252Y-73685000D02*
X42733748Y-73685000D01*
X43256252Y-75155000D02*
X42733748Y-75155000D01*
%TO.C,R22*%
X46992224Y-65102500D02*
X46482776Y-65102500D01*
X46992224Y-66147500D02*
X46482776Y-66147500D01*
D15*
%TO.C,J7*%
X31700000Y-72080000D02*
X31700000Y-68320000D01*
X34600000Y-67200000D02*
X33620000Y-67200000D01*
X34600000Y-67200000D02*
X34600000Y-68080000D01*
X34600000Y-72320000D02*
X34600000Y-73200000D01*
X34600000Y-73200000D02*
X33620000Y-73200000D01*
D13*
%TO.C,R24*%
X65667224Y-85477500D02*
X65157776Y-85477500D01*
X65667224Y-86522500D02*
X65157776Y-86522500D01*
%TO.C,TP7*%
X47800000Y-98175000D02*
G75*
G02*
X45900000Y-98175000I-950000J0D01*
G01*
X45900000Y-98175000D02*
G75*
G02*
X47800000Y-98175000I950000J0D01*
G01*
%TO.C,J10*%
D16*
X37780000Y-100480000D02*
X39780000Y-100480000D01*
X39780000Y-98480000D01*
X37780000Y-98480000D01*
X37780000Y-100480000D01*
X39799804Y-96480000D02*
G75*
G02*
X37760196Y-96480000I-1019804J0D01*
G01*
X37760196Y-96480000D02*
G75*
G02*
X39799804Y-96480000I1019804J0D01*
G01*
D13*
%TO.C,C8*%
X48540000Y-98263748D02*
X48540000Y-98786252D01*
X50010000Y-98263748D02*
X50010000Y-98786252D01*
%TO.C,R8*%
X48372776Y-93467500D02*
X48882224Y-93467500D01*
X48372776Y-94512500D02*
X48882224Y-94512500D01*
%TO.C,D7*%
X38215000Y-64865000D02*
X38215000Y-66335000D01*
X38215000Y-66335000D02*
X40675000Y-66335000D01*
X40675000Y-64865000D02*
X38215000Y-64865000D01*
%TO.C,C14*%
X73491248Y-89505000D02*
X74013752Y-89505000D01*
X73491248Y-90975000D02*
X74013752Y-90975000D01*
%TO.C,R20*%
X53364724Y-85947500D02*
X52855276Y-85947500D01*
X53364724Y-86992500D02*
X52855276Y-86992500D01*
D15*
%TO.C,U3*%
X44750000Y-69662500D02*
X44805000Y-69662500D01*
X44750000Y-70217500D02*
X44750000Y-69662500D01*
X44750000Y-72662500D02*
X44750000Y-72107500D01*
X44750000Y-72662500D02*
X44805000Y-72662500D01*
X47250000Y-69662500D02*
X47195000Y-69662500D01*
X47250000Y-69662500D02*
X47250000Y-70217500D01*
X47250000Y-72107500D02*
X47250000Y-72662500D01*
X47250000Y-72662500D02*
X47195000Y-72662500D01*
D14*
X46950000Y-69093500D02*
G75*
G02*
X46750000Y-69093500I-100000J0D01*
G01*
X46750000Y-69093500D02*
G75*
G02*
X46950000Y-69093500I100000J0D01*
G01*
D13*
%TO.C,R7*%
X48887500Y-72552776D02*
X48887500Y-73062224D01*
X49932500Y-72552776D02*
X49932500Y-73062224D01*
%TO.C,U8*%
X38000000Y-40148800D02*
X38000000Y-49898800D01*
X38000000Y-40148800D02*
X51500000Y-40148800D01*
X38000000Y-63648800D02*
X38000000Y-61898800D01*
X38750000Y-63648800D02*
X38000000Y-63648800D01*
X50750000Y-63648800D02*
X51500000Y-63648800D01*
X51500000Y-40148800D02*
X51500000Y-49948800D01*
X51500000Y-63648800D02*
X51500000Y-61898800D01*
X37600000Y-49848800D02*
X37100000Y-49848800D01*
X37600000Y-49348800D01*
X37600000Y-49848800D01*
G36*
X37600000Y-49848800D02*
G01*
X37100000Y-49848800D01*
X37600000Y-49348800D01*
X37600000Y-49848800D01*
G37*
%TO.C,J1*%
X31533500Y-74800000D02*
X30633500Y-74800000D01*
X31533500Y-84200000D02*
X30633500Y-84200000D01*
X35433500Y-74800000D02*
X33433500Y-74800000D01*
X35433500Y-84200000D02*
X33433500Y-84200000D01*
%TO.C,C18*%
X59211252Y-85825000D02*
X58688748Y-85825000D01*
X59211252Y-87295000D02*
X58688748Y-87295000D01*
%TO.C,TP2*%
X67890000Y-85260000D02*
X69790000Y-85260000D01*
X67890000Y-87160000D02*
X67890000Y-85260000D01*
X69790000Y-85260000D02*
X69790000Y-87160000D01*
X69790000Y-87160000D02*
X67890000Y-87160000D01*
%TO.C,C32*%
X34223752Y-59885000D02*
X33701248Y-59885000D01*
X34223752Y-61355000D02*
X33701248Y-61355000D01*
%TO.C,C4*%
X46291233Y-95570000D02*
X46583767Y-95570000D01*
X46291233Y-96590000D02*
X46583767Y-96590000D01*
%TO.C,FB1*%
X62790000Y-69071267D02*
X62790000Y-68728733D01*
X63810000Y-69071267D02*
X63810000Y-68728733D01*
%TO.C,R11*%
X68768900Y-99242776D02*
X68768900Y-99752224D01*
X69813900Y-99242776D02*
X69813900Y-99752224D01*
%TO.C,R21*%
X65667224Y-83977500D02*
X65157776Y-83977500D01*
X65667224Y-85022500D02*
X65157776Y-85022500D01*
%TO.C,SW3*%
X61600000Y-56500000D02*
X64800000Y-56500000D01*
X61600000Y-60500000D02*
X64800000Y-60500000D01*
%TO.C,C3*%
X63890000Y-94173767D02*
X63890000Y-93881233D01*
X64910000Y-94173767D02*
X64910000Y-93881233D01*
%TO.C,C13*%
X42590000Y-70553733D02*
X42590000Y-70846267D01*
X43610000Y-70553733D02*
X43610000Y-70846267D01*
%TO.C,R17*%
X61370276Y-65477500D02*
X61879724Y-65477500D01*
X61370276Y-66522500D02*
X61879724Y-66522500D01*
%TO.C,TP1*%
X36950000Y-86660000D02*
G75*
G02*
X35050000Y-86660000I-950000J0D01*
G01*
X35050000Y-86660000D02*
G75*
G02*
X36950000Y-86660000I950000J0D01*
G01*
%TO.C,TP5*%
X34960000Y-95250000D02*
X36860000Y-95250000D01*
X34960000Y-97150000D02*
X34960000Y-95250000D01*
X36860000Y-95250000D02*
X36860000Y-97150000D01*
X36860000Y-97150000D02*
X34960000Y-97150000D01*
%TO.C,C2*%
X63505000Y-97718748D02*
X63505000Y-98241252D01*
X64975000Y-97718748D02*
X64975000Y-98241252D01*
%TO.C,R5*%
X61772776Y-89252500D02*
X62282224Y-89252500D01*
X61772776Y-90297500D02*
X62282224Y-90297500D01*
%TO.C,R10*%
X73510436Y-99058600D02*
X73964564Y-99058600D01*
X73510436Y-100528600D02*
X73964564Y-100528600D01*
%TO.C,C1*%
X61545000Y-97718748D02*
X61545000Y-98241252D01*
X63015000Y-97718748D02*
X63015000Y-98241252D01*
D15*
%TO.C,U4*%
X66990800Y-94360000D02*
X67495800Y-94360000D01*
X66990800Y-94440000D02*
X66990800Y-94360000D01*
X66990800Y-96780000D02*
X66990800Y-96860000D01*
X66990800Y-96860000D02*
X67295800Y-96860000D01*
X69485800Y-94360000D02*
X69990800Y-94360000D01*
X69990800Y-94360000D02*
X69990800Y-94440000D01*
X69990800Y-96780000D02*
X69990800Y-96860000D01*
X69990800Y-96860000D02*
X69685800Y-96860000D01*
D14*
X67440800Y-97610000D02*
G75*
G02*
X67240800Y-97610000I-100000J0D01*
G01*
X67240800Y-97610000D02*
G75*
G02*
X67440800Y-97610000I100000J0D01*
G01*
D15*
%TO.C,J2*%
X40920000Y-98450000D02*
X40920000Y-99430000D01*
X40920000Y-98450000D02*
X41800000Y-98450000D01*
X43800000Y-101350000D02*
X42040000Y-101350000D01*
X44040000Y-98450000D02*
X44920000Y-98450000D01*
X44920000Y-98450000D02*
X44920000Y-99430000D01*
D14*
X43520000Y-96650000D02*
G75*
G02*
X43320000Y-96650000I-100000J0D01*
G01*
X43320000Y-96650000D02*
G75*
G02*
X43520000Y-96650000I100000J0D01*
G01*
D13*
%TO.C,CY1*%
X63190000Y-78334767D02*
X63190000Y-78042233D01*
X64210000Y-78334767D02*
X64210000Y-78042233D01*
%TO.C,D6*%
X49425000Y-66360000D02*
X51885000Y-66360000D01*
X51885000Y-64890000D02*
X49425000Y-64890000D01*
X51885000Y-66360000D02*
X51885000Y-64890000D01*
%TO.C,C28*%
X60765000Y-69161252D02*
X60765000Y-68638748D01*
X62235000Y-69161252D02*
X62235000Y-68638748D01*
%TO.C,C26*%
X79717836Y-77385000D02*
X79502164Y-77385000D01*
X79717836Y-78105000D02*
X79502164Y-78105000D01*
%TO.C,C31*%
X34283767Y-56710000D02*
X33991233Y-56710000D01*
X34283767Y-57730000D02*
X33991233Y-57730000D01*
%TO.C,F2*%
X33480000Y-64612064D02*
X33480000Y-63407936D01*
X35300000Y-64612064D02*
X35300000Y-63407936D01*
%TO.C,R12*%
X60547500Y-94247224D02*
X60547500Y-93737776D01*
X61592500Y-94247224D02*
X61592500Y-93737776D01*
%TO.C,C19*%
X64516233Y-71490000D02*
X64808767Y-71490000D01*
X64516233Y-72510000D02*
X64808767Y-72510000D01*
%TO.C,C6*%
X54581252Y-89955000D02*
X54058748Y-89955000D01*
X54581252Y-91425000D02*
X54058748Y-91425000D01*
%TO.C,C27*%
X60890000Y-75286267D02*
X60890000Y-74993733D01*
X61910000Y-75286267D02*
X61910000Y-74993733D01*
%TO.C,Y1*%
X66300000Y-81675000D02*
X66300000Y-80325000D01*
X68050000Y-81675000D02*
X68050000Y-80325000D01*
%TO.C,L1*%
X66390000Y-89190000D02*
X70610000Y-89190000D01*
X70610000Y-93410000D02*
X66390000Y-93410000D01*
%TO.C,SW2*%
X61600000Y-61000000D02*
X64800000Y-61000000D01*
X61600000Y-65000000D02*
X64800000Y-65000000D01*
%TO.C,R18*%
X53364724Y-84277500D02*
X52855276Y-84277500D01*
X53364724Y-85322500D02*
X52855276Y-85322500D01*
%TO.C,TP16*%
X40450000Y-69750000D02*
G75*
G02*
X38550000Y-69750000I-950000J0D01*
G01*
X38550000Y-69750000D02*
G75*
G02*
X40450000Y-69750000I950000J0D01*
G01*
%TO.C,CY3(DNP)1*%
X68865000Y-82983767D02*
X68865000Y-82691233D01*
X69885000Y-82983767D02*
X69885000Y-82691233D01*
%TO.C,CY2*%
X63190000Y-74717233D02*
X63190000Y-75009767D01*
X64210000Y-74717233D02*
X64210000Y-75009767D01*
%TO.C,C7*%
X62390000Y-93881233D02*
X62390000Y-94173767D01*
X63410000Y-93881233D02*
X63410000Y-94173767D01*
%TO.C,U5*%
X50890000Y-93989128D02*
X50890000Y-93754128D01*
X50890000Y-96734128D02*
X50890000Y-96259128D01*
X51365000Y-93514128D02*
X51190000Y-93514128D01*
X51365000Y-96734128D02*
X50890000Y-96734128D01*
X53635000Y-93514128D02*
X54110000Y-93514128D01*
X53635000Y-96734128D02*
X54110000Y-96734128D01*
X54110000Y-93514128D02*
X54110000Y-93989128D01*
X54110000Y-96734128D02*
X54110000Y-96259128D01*
X50890000Y-93514128D02*
X50650000Y-93184128D01*
X51130000Y-93184128D01*
X50890000Y-93514128D01*
G36*
X50890000Y-93514128D02*
G01*
X50650000Y-93184128D01*
X51130000Y-93184128D01*
X50890000Y-93514128D01*
G37*
%TO.C,R4*%
X39817500Y-75354724D02*
X39817500Y-74845276D01*
X40862500Y-75354724D02*
X40862500Y-74845276D01*
%TO.C,D1*%
X45610000Y-81450000D02*
X42950000Y-81450000D01*
X45610000Y-83150000D02*
X42950000Y-83150000D01*
X45610000Y-83150000D02*
X45610000Y-81450000D01*
%TO.C,TP6*%
X63350000Y-87500000D02*
G75*
G02*
X61450000Y-87500000I-950000J0D01*
G01*
X61450000Y-87500000D02*
G75*
G02*
X63350000Y-87500000I950000J0D01*
G01*
%TO.C,U6*%
X78170000Y-64740000D02*
G75*
G02*
X77370000Y-64740000I-400000J0D01*
G01*
X77370000Y-64740000D02*
G75*
G02*
X78170000Y-64740000I400000J0D01*
G01*
D17*
G36*
X77769228Y-61754212D02*
G01*
X77369228Y-61154212D01*
X78169228Y-61154212D01*
X77769228Y-61754212D01*
G37*
D15*
%TO.C,J9*%
X57910000Y-53750000D02*
X57910000Y-52770000D01*
X58790000Y-53750000D02*
X57910000Y-53750000D01*
X59030000Y-50850000D02*
X62790000Y-50850000D01*
X63910000Y-53750000D02*
X63030000Y-53750000D01*
X63910000Y-53750000D02*
X63910000Y-52770000D01*
D13*
%TO.C,U1*%
X44180229Y-94735568D02*
X44180229Y-91940000D01*
X46550229Y-91940000D02*
X46550229Y-95160000D01*
X44175229Y-95030000D02*
X43985229Y-95170000D01*
X43985229Y-94890000D01*
X44175229Y-95030000D01*
G36*
X44175229Y-95030000D02*
G01*
X43985229Y-95170000D01*
X43985229Y-94890000D01*
X44175229Y-95030000D01*
G37*
%TO.C,C11*%
X73476248Y-94335000D02*
X73998752Y-94335000D01*
X73476248Y-95805000D02*
X73998752Y-95805000D01*
%TO.C,R16*%
X72477500Y-76354724D02*
X72477500Y-75845276D01*
X73522500Y-76354724D02*
X73522500Y-75845276D01*
%TO.C,C5*%
X70380000Y-99351233D02*
X70380000Y-99643767D01*
X71400000Y-99351233D02*
X71400000Y-99643767D01*
%TO.C,D4*%
X78000000Y-94485000D02*
X80460000Y-94485000D01*
X80460000Y-93015000D02*
X78000000Y-93015000D01*
X80460000Y-94485000D02*
X80460000Y-93015000D01*
%TO.C,C22*%
X49920000Y-82176267D02*
X49920000Y-81883733D01*
X50940000Y-82176267D02*
X50940000Y-81883733D01*
%TO.C,U7*%
X52090000Y-74890000D02*
X52090000Y-75365000D01*
X52090000Y-82110000D02*
X52090000Y-81635000D01*
X52565000Y-74890000D02*
X52090000Y-74890000D01*
X52565000Y-82110000D02*
X52090000Y-82110000D01*
X58835000Y-74890000D02*
X59310000Y-74890000D01*
X58835000Y-82110000D02*
X59010000Y-82110000D01*
X59310000Y-74890000D02*
X59310000Y-75365000D01*
X59310000Y-81635000D02*
X59310000Y-81870000D01*
X59550000Y-82440000D02*
X59070000Y-82440000D01*
X59310000Y-82110000D01*
X59550000Y-82440000D01*
G36*
X59550000Y-82440000D02*
G01*
X59070000Y-82440000D01*
X59310000Y-82110000D01*
X59550000Y-82440000D01*
G37*
%TO.C,R25*%
X52212224Y-71457500D02*
X51702776Y-71457500D01*
X52212224Y-72502500D02*
X51702776Y-72502500D01*
%TO.C,C20*%
X60590000Y-83781233D02*
X60590000Y-84073767D01*
X61610000Y-83781233D02*
X61610000Y-84073767D01*
%TO.C,R14*%
X59907500Y-98704724D02*
X59907500Y-98195276D01*
X60952500Y-98704724D02*
X60952500Y-98195276D01*
%TO.C,Y2*%
X64840000Y-78586000D02*
X68260000Y-78586000D01*
X68260000Y-78586000D02*
X68260000Y-74466000D01*
%TO.C,Q3*%
X57000000Y-94667500D02*
X57050000Y-94667500D01*
X57000000Y-96187500D02*
X57000000Y-94667500D01*
X58000000Y-96187500D02*
X57000000Y-96187500D01*
X58170000Y-94667500D02*
X58950000Y-94667500D01*
X60070000Y-94667500D02*
X60120000Y-94667500D01*
X60120000Y-94667500D02*
X60120000Y-96187500D01*
X60120000Y-96187500D02*
X59120000Y-96187500D01*
X58940000Y-94127500D02*
X58610000Y-94367500D01*
X58610000Y-93887500D01*
X58940000Y-94127500D01*
G36*
X58940000Y-94127500D02*
G01*
X58610000Y-94367500D01*
X58610000Y-93887500D01*
X58940000Y-94127500D01*
G37*
D15*
%TO.C,J6*%
X77275000Y-81630000D02*
X78255000Y-81630000D01*
X77275000Y-82510000D02*
X77275000Y-81630000D01*
X77275000Y-87630000D02*
X77275000Y-86750000D01*
X77275000Y-87630000D02*
X78255000Y-87630000D01*
X80175000Y-82750000D02*
X80175000Y-86510000D01*
D13*
%TO.C,D5*%
X78000000Y-96185000D02*
X80460000Y-96185000D01*
X80460000Y-94715000D02*
X78000000Y-94715000D01*
X80460000Y-96185000D02*
X80460000Y-94715000D01*
%TO.C,R2*%
X65571700Y-99242776D02*
X65571700Y-99752224D01*
X66616700Y-99242776D02*
X66616700Y-99752224D01*
%TO.C,R13*%
X62272224Y-91097500D02*
X61762776Y-91097500D01*
X62272224Y-92142500D02*
X61762776Y-92142500D01*
D15*
%TO.C,J5*%
X38987500Y-93380000D02*
X38987500Y-89620000D01*
X41887500Y-88500000D02*
X40907500Y-88500000D01*
X41887500Y-88500000D02*
X41887500Y-89380000D01*
X41887500Y-93620000D02*
X41887500Y-94500000D01*
X41887500Y-94500000D02*
X40907500Y-94500000D01*
D13*
%TO.C,D8*%
X41800000Y-87660000D02*
X41800000Y-83800000D01*
X41800000Y-87660000D02*
X43800000Y-87660000D01*
X43800000Y-87660000D02*
X43800000Y-83800000D01*
%TO.C,CY4(DNP)1*%
X68865000Y-79066233D02*
X68865000Y-79358767D01*
X69885000Y-79066233D02*
X69885000Y-79358767D01*
%TO.C,C12*%
X73476248Y-91928200D02*
X73998752Y-91928200D01*
X73476248Y-93398200D02*
X73998752Y-93398200D01*
%TO.C,R3*%
X39877500Y-84257776D02*
X39877500Y-84767224D01*
X40922500Y-84257776D02*
X40922500Y-84767224D01*
%TO.C,R15*%
X64757776Y-65477500D02*
X65267224Y-65477500D01*
X64757776Y-66522500D02*
X65267224Y-66522500D01*
%TO.C,C9*%
X55015000Y-94451252D02*
X55015000Y-93928748D01*
X56485000Y-94451252D02*
X56485000Y-93928748D01*
%TO.C,C10*%
X45110000Y-74753733D02*
X45110000Y-75046267D01*
X46130000Y-74753733D02*
X46130000Y-75046267D01*
%TO.C,C16*%
X71838748Y-57965000D02*
X72361252Y-57965000D01*
X71838748Y-59435000D02*
X72361252Y-59435000D01*
%TD*%
M02*
