%TF.GenerationSoftware,KiCad,Pcbnew,9.0.7*%
%TF.CreationDate,2026-04-10T12:35:05+07:00*%
%TF.ProjectId,tag,7461672e-6b69-4636-9164-5f7063625858,rev?*%
%TF.SameCoordinates,Original*%
%TF.FileFunction,Paste,Top*%
%TF.FilePolarity,Positive*%
%FSLAX46Y46*%
G04 Gerber Fmt 4.6, Leading zero omitted, Abs format (unit mm)*
G04 Created by KiCad (PCBNEW 9.0.7) date 2026-04-10 12:35:05*
%MOMM*%
%LPD*%
G01*
G04 APERTURE LIST*
G04 Aperture macros list*
%AMRoundRect*
0 Rectangle with rounded corners*
0 $1 Rounding radius*
0 $2 $3 $4 $5 $6 $7 $8 $9 X,Y pos of 4 corners*
0 Add a 4 corners polygon primitive as box body*
4,1,4,$2,$3,$4,$5,$6,$7,$8,$9,$2,$3,0*
0 Add four circle primitives for the rounded corners*
1,1,$1+$1,$2,$3*
1,1,$1+$1,$4,$5*
1,1,$1+$1,$6,$7*
1,1,$1+$1,$8,$9*
0 Add four rect primitives between the rounded corners*
20,1,$1+$1,$2,$3,$4,$5,0*
20,1,$1+$1,$4,$5,$6,$7,0*
20,1,$1+$1,$6,$7,$8,$9,0*
20,1,$1+$1,$8,$9,$2,$3,0*%
G04 Aperture macros list end*
%ADD10C,0.010000*%
%ADD11RoundRect,0.237500X-0.237500X0.250000X-0.237500X-0.250000X0.237500X-0.250000X0.237500X0.250000X0*%
%ADD12RoundRect,0.237500X-0.250000X-0.237500X0.250000X-0.237500X0.250000X0.237500X-0.250000X0.237500X0*%
%ADD13RoundRect,0.250000X0.350000X0.450000X-0.350000X0.450000X-0.350000X-0.450000X0.350000X-0.450000X0*%
%ADD14RoundRect,0.237500X0.250000X0.237500X-0.250000X0.237500X-0.250000X-0.237500X0.250000X-0.237500X0*%
%ADD15RoundRect,0.187500X-0.187500X-0.712500X0.187500X-0.712500X0.187500X0.712500X-0.187500X0.712500X0*%
%ADD16RoundRect,0.150000X-0.150000X-0.750000X0.150000X-0.750000X0.150000X0.750000X-0.150000X0.750000X0*%
%ADD17RoundRect,0.225000X-0.425000X-0.225000X0.425000X-0.225000X0.425000X0.225000X-0.425000X0.225000X0*%
%ADD18RoundRect,0.237500X0.300000X0.237500X-0.300000X0.237500X-0.300000X-0.237500X0.300000X-0.237500X0*%
%ADD19RoundRect,0.250000X0.475000X-0.337500X0.475000X0.337500X-0.475000X0.337500X-0.475000X-0.337500X0*%
%ADD20RoundRect,0.250000X0.337500X0.475000X-0.337500X0.475000X-0.337500X-0.475000X0.337500X-0.475000X0*%
%ADD21RoundRect,0.150000X-0.512500X-0.150000X0.512500X-0.150000X0.512500X0.150000X-0.512500X0.150000X0*%
%ADD22RoundRect,0.150000X-0.150000X0.587500X-0.150000X-0.587500X0.150000X-0.587500X0.150000X0.587500X0*%
%ADD23RoundRect,0.237500X-0.300000X-0.237500X0.300000X-0.237500X0.300000X0.237500X-0.300000X0.237500X0*%
%ADD24R,0.600000X1.550000*%
%ADD25R,1.200000X1.800000*%
%ADD26RoundRect,0.250000X0.275000X0.250000X-0.275000X0.250000X-0.275000X-0.250000X0.275000X-0.250000X0*%
%ADD27RoundRect,0.250000X0.850000X0.275000X-0.850000X0.275000X-0.850000X-0.275000X0.850000X-0.275000X0*%
%ADD28RoundRect,0.237500X0.287500X0.237500X-0.287500X0.237500X-0.287500X-0.237500X0.287500X-0.237500X0*%
%ADD29RoundRect,0.140000X0.140000X0.170000X-0.140000X0.170000X-0.140000X-0.170000X0.140000X-0.170000X0*%
%ADD30R,1.550000X0.600000*%
%ADD31R,1.800000X1.200000*%
%ADD32RoundRect,0.250000X-0.475000X0.337500X-0.475000X-0.337500X0.475000X-0.337500X0.475000X0.337500X0*%
%ADD33RoundRect,0.237500X-0.287500X-0.237500X0.287500X-0.237500X0.287500X0.237500X-0.287500X0.237500X0*%
%ADD34RoundRect,0.250000X-0.337500X-0.475000X0.337500X-0.475000X0.337500X0.475000X-0.337500X0.475000X0*%
%ADD35R,0.250000X0.475000*%
%ADD36R,0.475000X0.250000*%
%ADD37R,2.450000X1.000000*%
%ADD38R,1.000000X2.450000*%
%ADD39R,1.450000X0.600000*%
%ADD40R,1.450000X0.300000*%
%ADD41RoundRect,0.237500X0.237500X-0.287500X0.237500X0.287500X-0.237500X0.287500X-0.237500X-0.287500X0*%
%ADD42RoundRect,0.350000X-0.550000X-0.350000X0.550000X-0.350000X0.550000X0.350000X-0.550000X0.350000X0*%
%ADD43RoundRect,0.237500X0.237500X-0.300000X0.237500X0.300000X-0.237500X0.300000X-0.237500X-0.300000X0*%
%ADD44RoundRect,0.237500X-0.237500X0.300000X-0.237500X-0.300000X0.237500X-0.300000X0.237500X0.300000X0*%
%ADD45RoundRect,0.250000X-0.350000X-0.450000X0.350000X-0.450000X0.350000X0.450000X-0.350000X0.450000X0*%
%ADD46RoundRect,0.006250X0.118750X-0.293750X0.118750X0.293750X-0.118750X0.293750X-0.118750X-0.293750X0*%
%ADD47RoundRect,0.006250X0.293750X-0.118750X0.293750X0.118750X-0.293750X0.118750X-0.293750X-0.118750X0*%
%ADD48RoundRect,0.250000X0.625000X-0.375000X0.625000X0.375000X-0.625000X0.375000X-0.625000X-0.375000X0*%
%ADD49RoundRect,0.237500X0.237500X-0.250000X0.237500X0.250000X-0.237500X0.250000X-0.237500X-0.250000X0*%
%ADD50R,1.800000X1.000000*%
%ADD51RoundRect,0.250000X0.300000X1.600000X-0.300000X1.600000X-0.300000X-1.600000X0.300000X-1.600000X0*%
%ADD52RoundRect,0.160000X-0.160000X-0.160000X0.160000X-0.160000X0.160000X0.160000X-0.160000X0.160000X0*%
%ADD53RoundRect,0.062500X-0.375000X-0.062500X0.375000X-0.062500X0.375000X0.062500X-0.375000X0.062500X0*%
%ADD54RoundRect,0.062500X-0.062500X-0.375000X0.062500X-0.375000X0.062500X0.375000X-0.062500X0.375000X0*%
%ADD55RoundRect,0.112500X0.187500X0.112500X-0.187500X0.112500X-0.187500X-0.112500X0.187500X-0.112500X0*%
%ADD56R,0.600000X1.800000*%
%ADD57R,1.800000X0.600000*%
%ADD58RoundRect,0.140000X0.180000X-0.140000X0.180000X0.140000X-0.180000X0.140000X-0.180000X-0.140000X0*%
%ADD59RoundRect,0.087500X0.087500X-0.175000X0.087500X0.175000X-0.087500X0.175000X-0.087500X-0.175000X0*%
%ADD60RoundRect,0.147500X-0.172500X0.147500X-0.172500X-0.147500X0.172500X-0.147500X0.172500X0.147500X0*%
%ADD61RoundRect,0.250000X0.315000X0.315000X-0.315000X0.315000X-0.315000X-0.315000X0.315000X-0.315000X0*%
%ADD62RoundRect,0.062500X0.375000X0.062500X-0.375000X0.062500X-0.375000X-0.062500X0.375000X-0.062500X0*%
%ADD63RoundRect,0.062500X0.062500X0.375000X-0.062500X0.375000X-0.062500X-0.375000X0.062500X-0.375000X0*%
%ADD64RoundRect,0.250000X0.350000X-0.450000X0.350000X0.450000X-0.350000X0.450000X-0.350000X-0.450000X0*%
%ADD65RoundRect,0.250000X0.300000X-0.300000X0.300000X0.300000X-0.300000X0.300000X-0.300000X-0.300000X0*%
%ADD66RoundRect,0.250000X0.475000X-0.250000X0.475000X0.250000X-0.475000X0.250000X-0.475000X-0.250000X0*%
G04 APERTURE END LIST*
D10*
%TO.C,U4*%
X68115800Y-94734500D02*
X67865800Y-94734500D01*
X67865800Y-94159500D01*
X68115800Y-94159500D01*
X68115800Y-94734500D01*
G36*
X68115800Y-94734500D02*
G01*
X67865800Y-94734500D01*
X67865800Y-94159500D01*
X68115800Y-94159500D01*
X68115800Y-94734500D01*
G37*
X68115800Y-95509500D02*
X67865800Y-95509500D01*
X67865800Y-94934500D01*
X68115800Y-94934500D01*
X68115800Y-95509500D01*
G36*
X68115800Y-95509500D02*
G01*
X67865800Y-95509500D01*
X67865800Y-94934500D01*
X68115800Y-94934500D01*
X68115800Y-95509500D01*
G37*
X68615800Y-94910000D02*
X68365800Y-94910000D01*
X68365800Y-94190000D01*
X68615800Y-94190000D01*
X68615800Y-94910000D01*
G36*
X68615800Y-94910000D02*
G01*
X68365800Y-94910000D01*
X68365800Y-94190000D01*
X68615800Y-94190000D01*
X68615800Y-94910000D01*
G37*
X68615800Y-95830000D02*
X68365800Y-95830000D01*
X68365800Y-95110000D01*
X68615800Y-95110000D01*
X68615800Y-95830000D01*
G36*
X68615800Y-95830000D02*
G01*
X68365800Y-95830000D01*
X68365800Y-95110000D01*
X68615800Y-95110000D01*
X68615800Y-95830000D01*
G37*
X69115800Y-94734500D02*
X68865800Y-94734500D01*
X68865800Y-94159500D01*
X69115800Y-94159500D01*
X69115800Y-94734500D01*
G36*
X69115800Y-94734500D02*
G01*
X68865800Y-94734500D01*
X68865800Y-94159500D01*
X69115800Y-94159500D01*
X69115800Y-94734500D01*
G37*
X69115800Y-95509500D02*
X68865800Y-95509500D01*
X68865800Y-94934500D01*
X69115800Y-94934500D01*
X69115800Y-95509500D01*
G36*
X69115800Y-95509500D02*
G01*
X68865800Y-95509500D01*
X68865800Y-94934500D01*
X69115800Y-94934500D01*
X69115800Y-95509500D01*
G37*
X67390800Y-95460000D02*
X66790800Y-95460000D01*
X66790800Y-95210000D01*
X67140800Y-95210000D01*
X67140800Y-94960000D01*
X66790800Y-94960000D01*
X66790800Y-94710000D01*
X67390800Y-94710000D01*
X67390800Y-95460000D01*
G36*
X67390800Y-95460000D02*
G01*
X66790800Y-95460000D01*
X66790800Y-95210000D01*
X67140800Y-95210000D01*
X67140800Y-94960000D01*
X66790800Y-94960000D01*
X66790800Y-94710000D01*
X67390800Y-94710000D01*
X67390800Y-95460000D01*
G37*
X70190800Y-94960000D02*
X69840800Y-94960000D01*
X69840800Y-95210000D01*
X70190800Y-95210000D01*
X70190800Y-95460000D01*
X69590800Y-95460000D01*
X69590800Y-94710000D01*
X70190800Y-94710000D01*
X70190800Y-94960000D01*
G36*
X70190800Y-94960000D02*
G01*
X69840800Y-94960000D01*
X69840800Y-95210000D01*
X70190800Y-95210000D01*
X70190800Y-95460000D01*
X69590800Y-95460000D01*
X69590800Y-94710000D01*
X70190800Y-94710000D01*
X70190800Y-94960000D01*
G37*
%TD*%
D11*
%TO.C,R26*%
X56340000Y-84857500D03*
X56340000Y-86682500D03*
%TD*%
%TO.C,R1*%
X67692800Y-98585000D03*
X67692800Y-100410000D03*
%TD*%
D12*
%TO.C,R23*%
X42450000Y-65600000D03*
X44275000Y-65600000D03*
%TD*%
D13*
%TO.C,R9*%
X74737500Y-97446800D03*
X72737500Y-97446800D03*
%TD*%
D14*
%TO.C,R6*%
X49540000Y-92490000D03*
X47715000Y-92490000D03*
%TD*%
D15*
%TO.C,SW1*%
X54775000Y-99200000D03*
X57225000Y-99200000D03*
D16*
X56000000Y-99200000D03*
D17*
X54150000Y-101150000D03*
X57850000Y-101150000D03*
%TD*%
D18*
%TO.C,C30*%
X35000000Y-58770000D03*
X33275000Y-58770000D03*
%TD*%
%TO.C,C21*%
X59580000Y-84850000D03*
X57855000Y-84850000D03*
%TD*%
D19*
%TO.C,C29*%
X65100000Y-69937500D03*
X65100000Y-67862500D03*
%TD*%
D20*
%TO.C,C23*%
X53865000Y-69980000D03*
X51790000Y-69980000D03*
%TD*%
D21*
%TO.C,U2*%
X43450250Y-78600000D03*
X43450250Y-79550000D03*
X43450250Y-80500000D03*
X45725250Y-80500000D03*
X45725250Y-79550000D03*
X45725250Y-78600000D03*
%TD*%
D22*
%TO.C,Q2*%
X59510000Y-90462500D03*
X57610000Y-90462500D03*
X58560000Y-92337500D03*
%TD*%
D23*
%TO.C,C24*%
X51095000Y-73480000D03*
X52820000Y-73480000D03*
%TD*%
%TO.C,C17*%
X71037500Y-60500000D03*
X72762500Y-60500000D03*
%TD*%
D24*
%TO.C,J8*%
X69000000Y-54400000D03*
X70000000Y-54400000D03*
X71000000Y-54400000D03*
X72000000Y-54400000D03*
X73000000Y-54400000D03*
D25*
X67700000Y-51875000D03*
X74300000Y-51875000D03*
%TD*%
D26*
%TO.C,J3*%
X77480000Y-78475000D03*
D27*
X75955000Y-79950000D03*
X75955000Y-77000000D03*
%TD*%
D28*
%TO.C,D2*%
X79675000Y-90350000D03*
X77925000Y-90350000D03*
%TD*%
%TO.C,D3*%
X79675000Y-92050000D03*
X77925000Y-92050000D03*
%TD*%
D11*
%TO.C,R19*%
X64400000Y-89787500D03*
X64400000Y-91612500D03*
%TD*%
D29*
%TO.C,C25*%
X80090000Y-74945000D03*
X79130000Y-74945000D03*
%TD*%
D20*
%TO.C,C15*%
X44032500Y-74420000D03*
X41957500Y-74420000D03*
%TD*%
D14*
%TO.C,R22*%
X47650000Y-65625000D03*
X45825000Y-65625000D03*
%TD*%
D30*
%TO.C,J7*%
X34925000Y-71700000D03*
X34925000Y-70700000D03*
X34925000Y-69700000D03*
X34925000Y-68700000D03*
D31*
X32400000Y-73000000D03*
X32400000Y-67400000D03*
%TD*%
D14*
%TO.C,R24*%
X66325000Y-86000000D03*
X64500000Y-86000000D03*
%TD*%
D32*
%TO.C,C8*%
X49275000Y-97487500D03*
X49275000Y-99562500D03*
%TD*%
D12*
%TO.C,R8*%
X47715000Y-93990000D03*
X49540000Y-93990000D03*
%TD*%
D33*
%TO.C,D7*%
X39000000Y-65600000D03*
X40750000Y-65600000D03*
%TD*%
D34*
%TO.C,C14*%
X72715000Y-90240000D03*
X74790000Y-90240000D03*
%TD*%
D14*
%TO.C,R20*%
X54022500Y-86470000D03*
X52197500Y-86470000D03*
%TD*%
D35*
%TO.C,U3*%
X46750000Y-70000000D03*
X46250000Y-70000000D03*
X45750000Y-70000000D03*
X45250000Y-70000000D03*
D36*
X45087500Y-70662500D03*
X45087500Y-71162500D03*
X45087500Y-71662500D03*
D35*
X45250000Y-72325000D03*
X45750000Y-72325000D03*
X46250000Y-72325000D03*
X46750000Y-72325000D03*
D36*
X46912500Y-71662500D03*
X46912500Y-71162500D03*
X46912500Y-70662500D03*
%TD*%
D11*
%TO.C,R7*%
X49410000Y-71895000D03*
X49410000Y-73720000D03*
%TD*%
D37*
%TO.C,U8*%
X38450000Y-51100000D03*
X38450000Y-52500000D03*
X38450000Y-53900000D03*
X38450000Y-55300000D03*
X38450000Y-56700000D03*
X38450000Y-58100000D03*
X38450000Y-59500000D03*
X38450000Y-60900000D03*
D38*
X39850000Y-63195000D03*
X41250000Y-63195000D03*
X42650000Y-63195000D03*
X44050000Y-63195000D03*
X45450000Y-63195000D03*
X46850000Y-63195000D03*
X48250000Y-63195000D03*
X49650000Y-63195000D03*
D37*
X51050000Y-60898800D03*
X51050000Y-59498800D03*
X51050000Y-58100000D03*
X51050000Y-56700000D03*
X51050000Y-55300000D03*
X51050000Y-53900000D03*
X51050000Y-52500000D03*
X51050000Y-51100000D03*
%TD*%
D39*
%TO.C,J1*%
X37578500Y-76250000D03*
X37578500Y-77050000D03*
D40*
X37578500Y-78250000D03*
X37578500Y-79250000D03*
X37578500Y-79750000D03*
X37578500Y-80750000D03*
D39*
X37578500Y-81950000D03*
X37578500Y-82750000D03*
X37578500Y-82750000D03*
X37578500Y-81950000D03*
D40*
X37578500Y-81250000D03*
X37578500Y-80250000D03*
X37578500Y-78750000D03*
X37578500Y-77750000D03*
D39*
X37578500Y-77050000D03*
X37578500Y-76250000D03*
%TD*%
D20*
%TO.C,C18*%
X59987500Y-86560000D03*
X57912500Y-86560000D03*
%TD*%
%TO.C,C32*%
X35000000Y-60620000D03*
X32925000Y-60620000D03*
%TD*%
D23*
%TO.C,C4*%
X45575000Y-96080000D03*
X47300000Y-96080000D03*
%TD*%
D41*
%TO.C,FB1*%
X63300000Y-69775000D03*
X63300000Y-68025000D03*
%TD*%
D11*
%TO.C,R11*%
X69291400Y-98585000D03*
X69291400Y-100410000D03*
%TD*%
D14*
%TO.C,R21*%
X66325000Y-84500000D03*
X64500000Y-84500000D03*
%TD*%
D42*
%TO.C,SW3*%
X60850000Y-58500000D03*
X65550000Y-58500000D03*
%TD*%
D43*
%TO.C,C3*%
X64400000Y-94890000D03*
X64400000Y-93165000D03*
%TD*%
D44*
%TO.C,C13*%
X43100000Y-69837500D03*
X43100000Y-71562500D03*
%TD*%
D12*
%TO.C,R17*%
X60712500Y-66000000D03*
X62537500Y-66000000D03*
%TD*%
D32*
%TO.C,C2*%
X64240000Y-96942500D03*
X64240000Y-99017500D03*
%TD*%
D12*
%TO.C,R5*%
X61115000Y-89775000D03*
X62940000Y-89775000D03*
%TD*%
D45*
%TO.C,R10*%
X72737500Y-99793600D03*
X74737500Y-99793600D03*
%TD*%
D32*
%TO.C,C1*%
X62280000Y-96942500D03*
X62280000Y-99017500D03*
%TD*%
D46*
%TO.C,U4*%
X67740800Y-96760000D03*
X68240800Y-96760000D03*
X68740800Y-96760000D03*
X69240800Y-96760000D03*
D47*
X69890800Y-96335000D03*
X69890800Y-95835000D03*
X67090800Y-95835000D03*
X67090800Y-96335000D03*
%TD*%
D24*
%TO.C,J2*%
X43420000Y-98125000D03*
X42420000Y-98125000D03*
D25*
X44720000Y-100650000D03*
X41120000Y-100650000D03*
%TD*%
D43*
%TO.C,CY1*%
X63700000Y-79051000D03*
X63700000Y-77326000D03*
%TD*%
D28*
%TO.C,D6*%
X51100000Y-65625000D03*
X49350000Y-65625000D03*
%TD*%
D19*
%TO.C,C28*%
X61500000Y-69937500D03*
X61500000Y-67862500D03*
%TD*%
D29*
%TO.C,C26*%
X80090000Y-77745000D03*
X79130000Y-77745000D03*
%TD*%
D18*
%TO.C,C31*%
X35000000Y-57220000D03*
X33275000Y-57220000D03*
%TD*%
D48*
%TO.C,F2*%
X34390000Y-65410000D03*
X34390000Y-62610000D03*
%TD*%
D49*
%TO.C,R12*%
X61070000Y-94905000D03*
X61070000Y-93080000D03*
%TD*%
D23*
%TO.C,C19*%
X63800000Y-72000000D03*
X65525000Y-72000000D03*
%TD*%
D20*
%TO.C,C6*%
X55357500Y-90690000D03*
X53282500Y-90690000D03*
%TD*%
D43*
%TO.C,C27*%
X61400000Y-76002500D03*
X61400000Y-74277500D03*
%TD*%
D50*
%TO.C,Y1*%
X67175000Y-79750000D03*
X67175000Y-82250000D03*
%TD*%
D51*
%TO.C,L1*%
X70000000Y-91300000D03*
X67000000Y-91300000D03*
%TD*%
D42*
%TO.C,SW2*%
X60850000Y-63000000D03*
X65550000Y-63000000D03*
%TD*%
D14*
%TO.C,R18*%
X54022500Y-84800000D03*
X52197500Y-84800000D03*
%TD*%
D43*
%TO.C,CY3(DNP)1*%
X69375000Y-83700000D03*
X69375000Y-81975000D03*
%TD*%
D44*
%TO.C,CY2*%
X63700000Y-74001000D03*
X63700000Y-75726000D03*
%TD*%
%TO.C,C7*%
X62900000Y-93165000D03*
X62900000Y-94890000D03*
%TD*%
D52*
%TO.C,U5*%
X52100000Y-94724128D03*
X52100000Y-95524128D03*
X52900000Y-94724128D03*
X52900000Y-95524128D03*
D53*
X51062500Y-94374128D03*
X51062500Y-94874128D03*
X51062500Y-95374128D03*
X51062500Y-95874128D03*
D54*
X51750000Y-96561628D03*
X52250000Y-96561628D03*
X52750000Y-96561628D03*
X53250000Y-96561628D03*
D53*
X53937500Y-95874128D03*
X53937500Y-95374128D03*
X53937500Y-94874128D03*
X53937500Y-94374128D03*
D54*
X53250000Y-93686628D03*
X52750000Y-93686628D03*
X52250000Y-93686628D03*
X51750000Y-93686628D03*
%TD*%
D49*
%TO.C,R4*%
X40340000Y-76012500D03*
X40340000Y-74187500D03*
%TD*%
D55*
%TO.C,D1*%
X45050000Y-82300000D03*
X42950000Y-82300000D03*
%TD*%
D56*
%TO.C,U6*%
X77770000Y-62990000D03*
X76670000Y-62990000D03*
X75570000Y-62990000D03*
X74470000Y-62990000D03*
X73370000Y-62990000D03*
X72270000Y-62990000D03*
X71170000Y-62990000D03*
X70070000Y-62990000D03*
D57*
X69220000Y-65890000D03*
X69220000Y-66990000D03*
D56*
X70070000Y-72990000D03*
X71170000Y-72990000D03*
X72270000Y-72990000D03*
X73370000Y-72990000D03*
X74470000Y-72990000D03*
X75570000Y-72990000D03*
X76670000Y-72990000D03*
X77770000Y-72990000D03*
X78870000Y-72990000D03*
X79970000Y-72990000D03*
%TD*%
D24*
%TO.C,J9*%
X59410000Y-54075000D03*
X60410000Y-54075000D03*
X61410000Y-54075000D03*
X62410000Y-54075000D03*
D25*
X58110000Y-51550000D03*
X63710000Y-51550000D03*
%TD*%
D58*
%TO.C,U1*%
X44965229Y-93900000D03*
X45765229Y-93900000D03*
X44965229Y-93200000D03*
X45765229Y-93200000D03*
D59*
X44615229Y-94837500D03*
X45115229Y-94837500D03*
X45615229Y-94837500D03*
X46115229Y-94837500D03*
X46115229Y-92262500D03*
X45615229Y-92262500D03*
X45115229Y-92262500D03*
X44615229Y-92262500D03*
%TD*%
D34*
%TO.C,C11*%
X72700000Y-95070000D03*
X74775000Y-95070000D03*
%TD*%
D49*
%TO.C,R16*%
X73000000Y-77012500D03*
X73000000Y-75187500D03*
%TD*%
D44*
%TO.C,C5*%
X70890000Y-98635000D03*
X70890000Y-100360000D03*
%TD*%
D28*
%TO.C,D4*%
X79675000Y-93750000D03*
X77925000Y-93750000D03*
%TD*%
D43*
%TO.C,C22*%
X50430000Y-82892500D03*
X50430000Y-81167500D03*
%TD*%
D60*
%TO.C,L2*%
X80050000Y-75870000D03*
X80050000Y-76840000D03*
%TD*%
D61*
%TO.C,U7*%
X57800000Y-80600000D03*
X57800000Y-79200000D03*
X57800000Y-77800000D03*
X57800000Y-76400000D03*
X56400000Y-80600000D03*
X56400000Y-79200000D03*
X56400000Y-77800000D03*
X56400000Y-76400000D03*
X55000000Y-80600000D03*
X55000000Y-79200000D03*
X55000000Y-77800000D03*
X55000000Y-76400000D03*
X53600000Y-80600000D03*
X53600000Y-79200000D03*
X53600000Y-77800000D03*
X53600000Y-76400000D03*
D62*
X59137500Y-81250000D03*
X59137500Y-80750000D03*
X59137500Y-80250000D03*
X59137500Y-79750000D03*
X59137500Y-79250000D03*
X59137500Y-78750000D03*
X59137500Y-78250000D03*
X59137500Y-77750000D03*
X59137500Y-77250000D03*
X59137500Y-76750000D03*
X59137500Y-76250000D03*
X59137500Y-75750000D03*
D63*
X58450000Y-75062500D03*
X57950000Y-75062500D03*
X57450000Y-75062500D03*
X56950000Y-75062500D03*
X56450000Y-75062500D03*
X55950000Y-75062500D03*
X55450000Y-75062500D03*
X54950000Y-75062500D03*
X54450000Y-75062500D03*
X53950000Y-75062500D03*
X53450000Y-75062500D03*
X52950000Y-75062500D03*
D62*
X52262500Y-75750000D03*
X52262500Y-76250000D03*
X52262500Y-76750000D03*
X52262500Y-77250000D03*
X52262500Y-77750000D03*
X52262500Y-78250000D03*
X52262500Y-78750000D03*
X52262500Y-79250000D03*
X52262500Y-79750000D03*
X52262500Y-80250000D03*
X52262500Y-80750000D03*
X52262500Y-81250000D03*
D63*
X52950000Y-81937500D03*
X53450000Y-81937500D03*
X53950000Y-81937500D03*
X54450000Y-81937500D03*
X54950000Y-81937500D03*
X55450000Y-81937500D03*
X55950000Y-81937500D03*
X56450000Y-81937500D03*
X56950000Y-81937500D03*
X57450000Y-81937500D03*
X57950000Y-81937500D03*
X58450000Y-81937500D03*
%TD*%
D14*
%TO.C,R25*%
X52870000Y-71980000D03*
X51045000Y-71980000D03*
%TD*%
D44*
%TO.C,C20*%
X61100000Y-83065000D03*
X61100000Y-84790000D03*
%TD*%
D49*
%TO.C,R14*%
X60430000Y-99362500D03*
X60430000Y-97537500D03*
%TD*%
D64*
%TO.C,Y2*%
X67400000Y-77626000D03*
X67400000Y-75426000D03*
X65700000Y-75426000D03*
X65700000Y-77626000D03*
%TD*%
D22*
%TO.C,Q3*%
X59510000Y-94490000D03*
X57610000Y-94490000D03*
X58560000Y-96365000D03*
%TD*%
D30*
%TO.C,J6*%
X76950000Y-83130000D03*
X76950000Y-84130000D03*
X76950000Y-85130000D03*
X76950000Y-86130000D03*
D31*
X79475000Y-81830000D03*
X79475000Y-87430000D03*
%TD*%
D28*
%TO.C,D5*%
X79675000Y-95450000D03*
X77925000Y-95450000D03*
%TD*%
D11*
%TO.C,R2*%
X66094200Y-98585000D03*
X66094200Y-100410000D03*
%TD*%
D14*
%TO.C,R13*%
X62930000Y-91620000D03*
X61105000Y-91620000D03*
%TD*%
D30*
%TO.C,J5*%
X42212500Y-93000000D03*
X42212500Y-92000000D03*
X42212500Y-91000000D03*
X42212500Y-90000000D03*
D31*
X39687500Y-94300000D03*
X39687500Y-88700000D03*
%TD*%
D65*
%TO.C,D8*%
X42800000Y-86850000D03*
X42800000Y-84050000D03*
%TD*%
D44*
%TO.C,CY4(DNP)1*%
X69375000Y-78350000D03*
X69375000Y-80075000D03*
%TD*%
D34*
%TO.C,C12*%
X72700000Y-92663200D03*
X74775000Y-92663200D03*
%TD*%
D11*
%TO.C,R3*%
X40400000Y-83600000D03*
X40400000Y-85425000D03*
%TD*%
D12*
%TO.C,R15*%
X64100000Y-66000000D03*
X65925000Y-66000000D03*
%TD*%
D66*
%TO.C,C9*%
X55750000Y-95140000D03*
X55750000Y-93240000D03*
%TD*%
D44*
%TO.C,C10*%
X45620000Y-74037500D03*
X45620000Y-75762500D03*
%TD*%
D34*
%TO.C,C16*%
X71062500Y-58700000D03*
X73137500Y-58700000D03*
%TD*%
M02*
