%TF.GenerationSoftware,KiCad,Pcbnew,9.0.7*%
%TF.CreationDate,2026-02-10T02:00:55+07:00*%
%TF.ProjectId,tag-rounded,7461672d-726f-4756-9e64-65642e6b6963,rev?*%
%TF.SameCoordinates,Original*%
%TF.FileFunction,Copper,L2,Bot*%
%TF.FilePolarity,Positive*%
%FSLAX46Y46*%
G04 Gerber Fmt 4.6, Leading zero omitted, Abs format (unit mm)*
G04 Created by KiCad (PCBNEW 9.0.7) date 2026-02-10 02:00:55*
%MOMM*%
%LPD*%
G01*
G04 APERTURE LIST*
G04 Aperture macros list*
%AMRoundRect*
0 Rectangle with rounded corners*
0 $1 Rounding radius*
0 $2 $3 $4 $5 $6 $7 $8 $9 X,Y pos of 4 corners*
0 Add a 4 corners polygon primitive as box body*
4,1,4,$2,$3,$4,$5,$6,$7,$8,$9,$2,$3,0*
0 Add four circle primitives for the rounded corners*
1,1,$1+$1,$2,$3*
1,1,$1+$1,$4,$5*
1,1,$1+$1,$6,$7*
1,1,$1+$1,$8,$9*
0 Add four rect primitives between the rounded corners*
20,1,$1+$1,$2,$3,$4,$5,0*
20,1,$1+$1,$4,$5,$6,$7,0*
20,1,$1+$1,$6,$7,$8,$9,0*
20,1,$1+$1,$8,$9,$2,$3,0*%
G04 Aperture macros list end*
%TA.AperFunction,ComponentPad*%
%ADD10O,1.750000X1.200000*%
%TD*%
%TA.AperFunction,ComponentPad*%
%ADD11RoundRect,0.250000X-0.625000X0.350000X-0.625000X-0.350000X0.625000X-0.350000X0.625000X0.350000X0*%
%TD*%
%TA.AperFunction,HeatsinkPad*%
%ADD12O,2.100000X1.000000*%
%TD*%
%TA.AperFunction,HeatsinkPad*%
%ADD13O,1.600000X1.000000*%
%TD*%
%TA.AperFunction,SMDPad,CuDef*%
%ADD14C,1.000000*%
%TD*%
%TA.AperFunction,SMDPad,CuDef*%
%ADD15R,1.500000X1.500000*%
%TD*%
%TA.AperFunction,ViaPad*%
%ADD16C,0.500000*%
%TD*%
%TA.AperFunction,ViaPad*%
%ADD17C,0.600000*%
%TD*%
%TA.AperFunction,ViaPad*%
%ADD18C,0.700000*%
%TD*%
%TA.AperFunction,Conductor*%
%ADD19C,0.250000*%
%TD*%
%TA.AperFunction,Conductor*%
%ADD20C,0.300000*%
%TD*%
%TA.AperFunction,Conductor*%
%ADD21C,0.600000*%
%TD*%
%TA.AperFunction,Conductor*%
%ADD22C,0.500000*%
%TD*%
%TA.AperFunction,Conductor*%
%ADD23C,0.200000*%
%TD*%
G04 APERTURE END LIST*
D10*
%TO.P,J4,2,2*%
%TO.N,GND*%
X35050000Y-92550000D03*
D11*
%TO.P,J4,1,1*%
%TO.N,VBUS*%
X35050000Y-90550000D03*
%TD*%
D12*
%TO.P,J1,S1,SHIELD*%
%TO.N,GND*%
X37170000Y-75180000D03*
D13*
X32990000Y-75180000D03*
D12*
X37170000Y-83820000D03*
D13*
X32990000Y-83820000D03*
%TD*%
D14*
%TO.P,TP15,1,1*%
%TO.N,/SPI_CS2*%
X50700000Y-75600000D03*
%TD*%
%TO.P,TP9,1,1*%
%TO.N,/SPI_SCK*%
X57700000Y-67000000D03*
%TD*%
%TO.P,TP10,1,1*%
%TO.N,/SPI_MOSI*%
X55900000Y-62950000D03*
%TD*%
%TO.P,TP11,1,1*%
%TO.N,/BLE_TX*%
X75000000Y-69700000D03*
%TD*%
%TO.P,TP13,1,1*%
%TO.N,/SPI_MISO*%
X56750000Y-64950000D03*
%TD*%
%TO.P,TP14,1,1*%
%TO.N,/SPI_CS1*%
X52200000Y-65050000D03*
%TD*%
%TO.P,TP4,1,1*%
%TO.N,/BLE_RX*%
X72350000Y-66400000D03*
%TD*%
D15*
%TO.P,TP8,1,1*%
%TO.N,GND*%
X68050000Y-80325000D03*
%TD*%
D14*
%TO.P,TP12,1,1*%
%TO.N,/UWB_RST*%
X40370000Y-58680000D03*
%TD*%
D16*
%TO.N,GND*%
X33417346Y-62011361D03*
X33305968Y-64183229D03*
X42410000Y-81090000D03*
X42400000Y-77790000D03*
X46740000Y-77940000D03*
X47310000Y-78210000D03*
X46800000Y-81130000D03*
X47330000Y-80790000D03*
X47810000Y-80390000D03*
X41960000Y-75990000D03*
X67590000Y-84560000D03*
X70370000Y-86700000D03*
X58580000Y-84530000D03*
X58690000Y-85860000D03*
D17*
%TO.N,/PB9 {slash} I2C1_SDA*%
X57035818Y-83882968D03*
D18*
%TO.N,/PB1 {slash} ADC_IN9*%
X61400000Y-56110000D03*
D16*
%TO.N,GND*%
X58960000Y-57470000D03*
X60880000Y-57430000D03*
D17*
%TO.N,Net-(C7-Pad2)*%
X59900000Y-94770000D03*
%TO.N,Net-(Q1A-G1)*%
X57700000Y-97850000D03*
X57740000Y-93920000D03*
D18*
%TO.N,Net-(U7-NRST)*%
X64000000Y-64900000D03*
X63900000Y-71000000D03*
D17*
%TO.N,Net-(U5-ILIM)*%
X55225855Y-93476004D03*
X60020000Y-90030000D03*
%TO.N,Net-(C7-Pad2)*%
X59010000Y-98960000D03*
D18*
%TO.N,/PM_SCL*%
X49832859Y-76678264D03*
D16*
%TO.N,GND*%
X59960000Y-95660000D03*
X53600000Y-97800000D03*
X51900000Y-94100000D03*
X53150000Y-93100000D03*
X51800000Y-96950000D03*
X51250000Y-96950000D03*
X68350000Y-60450000D03*
X73775000Y-61490000D03*
X75175000Y-60240000D03*
X76550000Y-61500000D03*
X74050000Y-59000000D03*
X76550000Y-59000000D03*
X75300000Y-57650000D03*
X41639649Y-83585211D03*
X76000000Y-97000000D03*
X63567065Y-93158778D03*
X64000000Y-90000000D03*
X63000000Y-86000000D03*
X72000000Y-86000000D03*
X72000000Y-78000000D03*
X72000000Y-81000000D03*
X74000000Y-80000000D03*
X74054438Y-84235899D03*
X74000000Y-82000000D03*
X32000000Y-57000000D03*
X32000000Y-60000000D03*
X32000000Y-63000000D03*
X32000000Y-66000000D03*
X32000000Y-69000000D03*
X32000000Y-72000000D03*
X32000000Y-76000000D03*
X32000000Y-83000000D03*
X38000000Y-97000000D03*
X63000000Y-101000000D03*
X60000000Y-101000000D03*
X53000000Y-101000000D03*
X50000000Y-101000000D03*
X47000000Y-101000000D03*
X44000000Y-101000000D03*
X38000000Y-101000000D03*
X41000000Y-101000000D03*
X44280000Y-71400000D03*
X41300000Y-61500000D03*
X38980000Y-64510000D03*
D18*
%TO.N,/UWB_RST*%
X40388711Y-66622687D03*
D16*
%TO.N,GND*%
X47500000Y-67500000D03*
X77820000Y-79080000D03*
X78320000Y-79060000D03*
X77848189Y-77085520D03*
X78850000Y-74370000D03*
X74760000Y-76620000D03*
X76300000Y-74950000D03*
X53640000Y-86650000D03*
X72130000Y-56420000D03*
X48010000Y-92360000D03*
X68000000Y-95990800D03*
X47053129Y-93125373D03*
X47054771Y-93842933D03*
X46203903Y-93839030D03*
X46210544Y-93130068D03*
X37100000Y-70800000D03*
D18*
%TO.N,/PA9 {slash} UART1_TX*%
X37190000Y-68700000D03*
%TO.N,/PA10 {slash} UART1_RX*%
X37200000Y-69700000D03*
%TO.N,/BLE_SWDCLK*%
X70000000Y-64700000D03*
%TO.N,/BLE_SWDIO*%
X71000000Y-65900000D03*
X70000000Y-56900000D03*
%TO.N,/BLE_SWDCLK*%
X69000000Y-57400000D03*
%TO.N,/PB9 {slash} I2C1_SDA*%
X73400000Y-86300000D03*
%TO.N,/STM_SWDIO*%
X40075000Y-92010000D03*
%TO.N,/STM_SWDCLK*%
X40750000Y-93010000D03*
%TO.N,+3.3V*%
X42870000Y-88930000D03*
D16*
%TO.N,GND*%
X42400000Y-79500000D03*
X39300000Y-82800000D03*
X38700000Y-75200000D03*
D18*
%TO.N,VBUS*%
X36517803Y-77550000D03*
X36469000Y-81480944D03*
D16*
%TO.N,GND*%
X39401500Y-76100000D03*
X34806500Y-78000000D03*
X40601500Y-81100000D03*
X34800000Y-80500000D03*
X32293250Y-80500000D03*
X40621500Y-77800000D03*
X39301500Y-83600000D03*
X32306500Y-78000000D03*
D18*
%TO.N,+3.3V*%
X45100000Y-86700000D03*
X44800000Y-76800000D03*
X44800000Y-77550000D03*
X44749923Y-83945481D03*
X44749923Y-83200052D03*
%TO.N,/LED_USR*%
X54960000Y-86070000D03*
X62660693Y-84769949D03*
%TO.N,/SPI_CS1*%
X52509587Y-62630553D03*
X50390671Y-74500484D03*
%TO.N,/SPI_MISO*%
X56750000Y-67975000D03*
X55050000Y-67275000D03*
%TO.N,/SPI_SCK*%
X55050000Y-68650000D03*
X57700000Y-69250000D03*
%TO.N,/SPI_MOSI*%
X55908949Y-61547017D03*
%TO.N,/UWB_RST*%
X53025000Y-66630000D03*
X40500000Y-57000000D03*
X54375000Y-72571104D03*
D17*
%TO.N,/PB8 {slash} I2C1_SCL*%
X56825000Y-83058883D03*
D18*
X44880000Y-90480000D03*
X64489934Y-82970066D03*
%TO.N,/PB9 {slash} I2C1_SDA*%
X63480433Y-83870000D03*
X45321741Y-91286337D03*
D17*
%TO.N,/PB0 {slash} ADC_IN8*%
X55225000Y-70770000D03*
D18*
X62410000Y-56830000D03*
%TO.N,/PA0{slash}BTN_USR*%
X60300000Y-67000000D03*
X64450000Y-60350000D03*
D17*
%TO.N,/PB1 {slash} ADC_IN9*%
X54612500Y-71429428D03*
D18*
%TO.N,/SPI_CS2*%
X49425000Y-70795406D03*
X49505000Y-74685000D03*
D16*
%TO.N,GND*%
X35000000Y-101000000D03*
X42900000Y-61500000D03*
X45000000Y-67450000D03*
X68500000Y-69500000D03*
X44200000Y-96210000D03*
X77650000Y-71375000D03*
X77650000Y-66100000D03*
X53750000Y-52500000D03*
X61100000Y-86125000D03*
X44900000Y-59500000D03*
X37000000Y-73000000D03*
X62700000Y-81500000D03*
X57250000Y-56000000D03*
X70400000Y-79600000D03*
X70865800Y-96085000D03*
X65450000Y-90900000D03*
X67500000Y-55125000D03*
X46900000Y-54300000D03*
X69500000Y-75700000D03*
X66250000Y-53875000D03*
X46900000Y-57500000D03*
X36000000Y-54000000D03*
X65450000Y-93300000D03*
X65300000Y-60400000D03*
X75880000Y-92660000D03*
X53000000Y-52500000D03*
X68500000Y-71000000D03*
X77750000Y-58000000D03*
X61750000Y-52250000D03*
X69500000Y-51000000D03*
X77650000Y-67625000D03*
X53750000Y-51750000D03*
X69230000Y-65000000D03*
X51230000Y-99660000D03*
X68300000Y-74500000D03*
X67690800Y-88810000D03*
X78720000Y-78750000D03*
X80000000Y-91000000D03*
X38000000Y-92000000D03*
X53900000Y-80240000D03*
X61050000Y-71100000D03*
X67990800Y-93490000D03*
X53850000Y-78490000D03*
X79234541Y-78750000D03*
X64000000Y-80800000D03*
X41000000Y-73000000D03*
X60750000Y-77675000D03*
X80000000Y-97000000D03*
X50949000Y-70020000D03*
X53000000Y-51750000D03*
X80000000Y-93000000D03*
X78750000Y-57000000D03*
X77650000Y-70625000D03*
X62700000Y-62960000D03*
X68480000Y-64250000D03*
X55200000Y-65800000D03*
X63750000Y-58950000D03*
X58630000Y-54750000D03*
X48400000Y-78600000D03*
X61375000Y-61620000D03*
X65750000Y-52250000D03*
X55200000Y-65200000D03*
X37600000Y-63860000D03*
X74060000Y-56275000D03*
X70570000Y-93320000D03*
X46900000Y-61500000D03*
X55700000Y-76740000D03*
X79744131Y-78750000D03*
X32000000Y-92000000D03*
X51000000Y-63900000D03*
X70090800Y-88810000D03*
X62500000Y-57750000D03*
X69290800Y-88810000D03*
X56030000Y-89470000D03*
X35000000Y-73000000D03*
X51800000Y-62200000D03*
X37600000Y-62960000D03*
X70400000Y-78800000D03*
X37600000Y-62160000D03*
X61420000Y-73180000D03*
X39000000Y-73000000D03*
X54710000Y-96830000D03*
X36000000Y-56000000D03*
X48996504Y-78606128D03*
X48925000Y-54300000D03*
X41200000Y-55500000D03*
X51238345Y-80928401D03*
X67100000Y-73300000D03*
X40950000Y-54300000D03*
X70570000Y-90120000D03*
X55700000Y-80240000D03*
X69400000Y-84675000D03*
X65100000Y-66800000D03*
X32000000Y-98000000D03*
X48410000Y-80372752D03*
X53650000Y-95830000D03*
X43000000Y-67450000D03*
X41000000Y-67450000D03*
X77750000Y-57000000D03*
X38400000Y-63860000D03*
X70570000Y-91720000D03*
X75880000Y-95060000D03*
X33000000Y-70700000D03*
X80000000Y-86600000D03*
X79750000Y-57000000D03*
X55010000Y-53500000D03*
X48900000Y-55500000D03*
X78830000Y-76870000D03*
X61750000Y-51000000D03*
X53750000Y-51000000D03*
X77650000Y-65375000D03*
X78365248Y-77063805D03*
X38000000Y-90000000D03*
X32000000Y-88000000D03*
X76560000Y-53650000D03*
X44990000Y-94800000D03*
X63750000Y-54000000D03*
X77750000Y-60000000D03*
X74000000Y-66000000D03*
X78000000Y-97000000D03*
X65600000Y-73200000D03*
X68490800Y-88810000D03*
X72500000Y-51000000D03*
X43850000Y-54300000D03*
X70050000Y-99510000D03*
X32000000Y-86000000D03*
X68480000Y-67900000D03*
X33000000Y-73000000D03*
X43437502Y-91300000D03*
X47800000Y-78600000D03*
X75880000Y-99760000D03*
X69500000Y-52250000D03*
X57500000Y-78490000D03*
X45600000Y-77500000D03*
X60000000Y-51000000D03*
X59500000Y-63000000D03*
X57510000Y-53500000D03*
X68900000Y-75100000D03*
X61550000Y-66800000D03*
X78830000Y-76370000D03*
X78840000Y-75870000D03*
X57600000Y-58800000D03*
X52879087Y-95834910D03*
X32000000Y-94000000D03*
X53000000Y-51000000D03*
X65000000Y-55125000D03*
X53640180Y-95084038D03*
X77650000Y-69875000D03*
X43300000Y-93800000D03*
X45700000Y-81600000D03*
X75310000Y-54900000D03*
X53675003Y-55300000D03*
X52898729Y-95084038D03*
X80000000Y-95000000D03*
X77800000Y-54895000D03*
X71949427Y-100792653D03*
X73000000Y-71000000D03*
X62500000Y-60375000D03*
X48900000Y-59500000D03*
X41200000Y-59500000D03*
X32000000Y-54000000D03*
X59400000Y-70300000D03*
X70570000Y-90920000D03*
X33000000Y-69000000D03*
X65900000Y-81000000D03*
X77500000Y-92010000D03*
X77750000Y-59000000D03*
X34000000Y-56000000D03*
X70200000Y-76400000D03*
X78840000Y-75370000D03*
X69230000Y-67900000D03*
X36000000Y-52000000D03*
X66540800Y-97110000D03*
X65450000Y-90100000D03*
X46650000Y-76850000D03*
X68400000Y-56500000D03*
X64800000Y-74000000D03*
X39000000Y-66700000D03*
X51800000Y-63000000D03*
X76000000Y-68000000D03*
X56260000Y-52125000D03*
D17*
X55700000Y-78500000D03*
D16*
X62100000Y-80900000D03*
X78000000Y-81000000D03*
X44900000Y-54325000D03*
X77650000Y-64625000D03*
X59400000Y-65600000D03*
X71000000Y-68000000D03*
X66890800Y-88810000D03*
X74060000Y-53775000D03*
X77650000Y-68375000D03*
X80000000Y-85000000D03*
X70570000Y-92520000D03*
X59820000Y-92630000D03*
X41900000Y-54300000D03*
X65450000Y-91700000D03*
X51000000Y-63000000D03*
X51800000Y-63900000D03*
X48070000Y-94760000D03*
X68480000Y-65000000D03*
X66090800Y-88810000D03*
X61500000Y-68750000D03*
X78840000Y-74870000D03*
X51000000Y-62200000D03*
X57500000Y-80240000D03*
X60000000Y-60370000D03*
X70400000Y-82000000D03*
X70400000Y-80400000D03*
X76560000Y-56275000D03*
X69850000Y-97020000D03*
X67500000Y-57750000D03*
X32000000Y-90000000D03*
X47950000Y-54300000D03*
X44500000Y-69862500D03*
X65600000Y-79000000D03*
X57500000Y-76740000D03*
X67600000Y-86700000D03*
X55000000Y-51000000D03*
X42900000Y-54300000D03*
X65750000Y-51000000D03*
X65450000Y-92500000D03*
X42900000Y-57500000D03*
X32000000Y-96000000D03*
X77650000Y-66875000D03*
X70400000Y-77200000D03*
X44900000Y-55500000D03*
X66300000Y-56300000D03*
X70400000Y-78000000D03*
X63970000Y-99970000D03*
X53272807Y-95459038D03*
X61980000Y-99990000D03*
X53800000Y-76740000D03*
X60000000Y-52250000D03*
X37000000Y-65000000D03*
X80246915Y-78750000D03*
X38000000Y-94000000D03*
X69230000Y-64250000D03*
X65450000Y-89300000D03*
X80000000Y-83000000D03*
X64800000Y-79000000D03*
X74380000Y-87850000D03*
X76000000Y-71000000D03*
X67700000Y-73900000D03*
X61300000Y-64440000D03*
X53050000Y-55300000D03*
X55150000Y-61800000D03*
X56125000Y-54750000D03*
X75500000Y-101010000D03*
X72500000Y-52250000D03*
X70390000Y-84570000D03*
X59400000Y-68300000D03*
X70400000Y-81200000D03*
X63750000Y-56500000D03*
X66300000Y-67850000D03*
X80000000Y-89000000D03*
X75880000Y-90260000D03*
X38400000Y-62160000D03*
X49000000Y-80370000D03*
X77650000Y-69150000D03*
X70090800Y-94135000D03*
X70570000Y-89320000D03*
X45900000Y-54300000D03*
X38400000Y-62960000D03*
D18*
%TO.N,/STM_SWDIO*%
X48790000Y-81420000D03*
%TO.N,/STM_SWDCLK*%
X52000000Y-83025000D03*
%TO.N,/BLE_RST*%
X72200000Y-61500000D03*
%TO.N,/BLE_RX*%
X59425000Y-71750000D03*
X76600000Y-65300000D03*
%TO.N,/BLE_TX*%
X75987500Y-66387500D03*
X59492500Y-72932500D03*
%TO.N,/PA10 {slash} UART1_RX*%
X48704983Y-77622279D03*
%TO.N,/PA9 {slash} UART1_TX*%
X48677298Y-76722702D03*
%TO.N,/IMU_IQR*%
X49667981Y-75793495D03*
X45975000Y-68762500D03*
D16*
%TO.N,GND*%
X40626750Y-79500000D03*
D18*
%TO.N,/BLE_RST*%
X71000000Y-56400000D03*
%TO.N,/PB8 {slash} I2C1_SCL*%
X73400000Y-85300000D03*
D16*
%TO.N,GND*%
X69000000Y-62000000D03*
X69000000Y-63000000D03*
X50510000Y-93350000D03*
%TD*%
D19*
%TO.N,/SPI_SCK*%
X57179688Y-68729688D02*
G75*
G03*
X56987302Y-68650005I-192388J-192412D01*
G01*
%TO.N,/SPI_MISO*%
X56104688Y-67354688D02*
G75*
G03*
X55912302Y-67275005I-192388J-192412D01*
G01*
%TO.N,/SPI_CS1*%
X50374000Y-74483813D02*
X50390671Y-74500484D01*
X50374000Y-66876000D02*
X50374000Y-74483813D01*
X52509587Y-62630553D02*
X52509587Y-64740413D01*
X52509587Y-64740413D02*
X50374000Y-66876000D01*
%TO.N,/UWB_RST*%
X54368920Y-72577184D02*
X54375000Y-72571104D01*
X54122588Y-72577184D02*
X54368920Y-72577184D01*
X53025000Y-71479596D02*
X54122588Y-72577184D01*
X53025000Y-66630000D02*
X53025000Y-71479596D01*
%TO.N,/BLE_RX*%
X69525000Y-71750000D02*
X72312500Y-68962500D01*
X59425000Y-71750000D02*
X69525000Y-71750000D01*
%TO.N,/BLE_TX*%
X59925000Y-72500000D02*
X69875000Y-72500000D01*
X59492500Y-72932500D02*
X59925000Y-72500000D01*
X69875000Y-72500000D02*
X72787500Y-69587500D01*
%TO.N,/PB1 {slash} ADC_IN9*%
X53700000Y-60450000D02*
X53700000Y-70516928D01*
X58040000Y-56110000D02*
X53700000Y-60450000D01*
X61400000Y-56110000D02*
X58040000Y-56110000D01*
X53700000Y-70516928D02*
X54612500Y-71429428D01*
%TO.N,/PB0 {slash} ADC_IN8*%
X54374000Y-69919000D02*
X55225000Y-70770000D01*
X54374000Y-60926000D02*
X54374000Y-69919000D01*
X58470000Y-56830000D02*
X54374000Y-60926000D01*
X62410000Y-56830000D02*
X58470000Y-56830000D01*
%TO.N,/LED_USR*%
X62250643Y-85179999D02*
X62660693Y-84769949D01*
X55850001Y-85179999D02*
X62250643Y-85179999D01*
X54960000Y-86070000D02*
X55850001Y-85179999D01*
%TO.N,Net-(U5-ILIM)*%
X55279851Y-93530000D02*
X55225855Y-93476004D01*
X56573996Y-93476004D02*
X55333847Y-93476004D01*
X55333847Y-93476004D02*
X55279851Y-93422008D01*
X55279851Y-93422008D02*
X55279851Y-93530000D01*
X60020000Y-90030000D02*
X56573996Y-93476004D01*
D20*
%TO.N,Net-(C7-Pad2)*%
X59900000Y-94770000D02*
X59010000Y-95660000D01*
X59010000Y-95660000D02*
X59010000Y-98960000D01*
%TO.N,Net-(Q1A-G1)*%
X57700000Y-97630000D02*
X57740000Y-97590000D01*
X57700000Y-97850000D02*
X57700000Y-97630000D01*
X57740000Y-97590000D02*
X57740000Y-93920000D01*
D19*
X57750000Y-93930000D02*
X57740000Y-93920000D01*
%TO.N,/SPI_CS2*%
X49491048Y-74571453D02*
X49505000Y-74585405D01*
X49505000Y-74585405D02*
X49505000Y-74685000D01*
X49491048Y-70861454D02*
X49491048Y-74571453D01*
X49425000Y-70795406D02*
X49491048Y-70861454D01*
X49505000Y-74590683D02*
X49491048Y-74576731D01*
X49505000Y-74685000D02*
X49505000Y-74590683D01*
%TO.N,/IMU_IQR*%
X47137500Y-68762500D02*
X45975000Y-68762500D01*
X48750000Y-74884596D02*
X48750000Y-70375000D01*
X49658899Y-75793495D02*
X48750000Y-74884596D01*
X48750000Y-70375000D02*
X47137500Y-68762500D01*
X49667981Y-75793495D02*
X49658899Y-75793495D01*
%TO.N,/SPI_CS2*%
X49491048Y-74641048D02*
X50800000Y-75950000D01*
X49491048Y-74576731D02*
X49491048Y-74641048D01*
X49491048Y-74691048D02*
X49491048Y-74576731D01*
X50800000Y-75950000D02*
X50800000Y-76000000D01*
%TO.N,/PA9 {slash} UART1_TX*%
X40654596Y-68700000D02*
X48677298Y-76722702D01*
X37190000Y-68700000D02*
X40654596Y-68700000D01*
%TO.N,/PA10 {slash} UART1_RX*%
X48302279Y-77622279D02*
X48704983Y-77622279D01*
X40380000Y-69700000D02*
X48302279Y-77622279D01*
X37200000Y-69700000D02*
X40380000Y-69700000D01*
%TO.N,/UWB_RST*%
X40388711Y-57111289D02*
X40500000Y-57000000D01*
X40388711Y-66622687D02*
X40388711Y-57111289D01*
%TO.N,/PB9 {slash} I2C1_SDA*%
X70770000Y-83870000D02*
X63480433Y-83870000D01*
X73200000Y-86300000D02*
X70770000Y-83870000D01*
X73400000Y-86300000D02*
X73200000Y-86300000D01*
%TO.N,/PB8 {slash} I2C1_SCL*%
X64489934Y-82970066D02*
X71070066Y-82970066D01*
X71070066Y-82970066D02*
X73400000Y-85300000D01*
%TO.N,/BLE_SWDCLK*%
X70000000Y-58400000D02*
X69000000Y-57400000D01*
X70000000Y-64700000D02*
X70000000Y-58400000D01*
%TO.N,/BLE_SWDIO*%
X71000000Y-57900000D02*
X70000000Y-56900000D01*
X71000000Y-65900000D02*
X71000000Y-57900000D01*
%TO.N,/BLE_RST*%
X72200000Y-57600000D02*
X71000000Y-56400000D01*
X72200000Y-61500000D02*
X72200000Y-57600000D01*
%TO.N,/PB8 {slash} I2C1_SCL*%
X64401117Y-83058883D02*
X56825000Y-83058883D01*
%TO.N,/STM_SWDIO*%
X40075000Y-89775000D02*
X40075000Y-92010000D01*
X40500000Y-89350000D02*
X40075000Y-89775000D01*
%TO.N,/STM_SWDCLK*%
X40750000Y-90043991D02*
X40750000Y-93010000D01*
X41300000Y-89493991D02*
X40750000Y-90043991D01*
%TO.N,+3.3V*%
X45100000Y-86700000D02*
X42870000Y-88930000D01*
D21*
X44747702Y-83202273D02*
X44749923Y-83200052D01*
X44749923Y-83945481D02*
X44747702Y-83943260D01*
X44747702Y-83943260D02*
X44747702Y-83202273D01*
D22*
%TO.N,VBUS*%
X36517803Y-77550000D02*
X36517803Y-81432141D01*
D21*
%TO.N,+3.3V*%
X44800000Y-77550000D02*
X44800000Y-83149975D01*
X44800000Y-77550000D02*
X44800000Y-76800000D01*
X44800000Y-83149975D02*
X44749923Y-83200052D01*
D19*
%TO.N,/SPI_MISO*%
X55912302Y-67275000D02*
X55050000Y-67275000D01*
X56750000Y-67975000D02*
X56750000Y-64950000D01*
X56104688Y-67354688D02*
X56725000Y-67975000D01*
X56750000Y-67975000D02*
X56725000Y-67975000D01*
D23*
%TO.N,/SPI_SCK*%
X57700000Y-67000000D02*
X57700000Y-69250000D01*
D19*
X57179688Y-68729688D02*
X57700000Y-69250000D01*
X56987302Y-68650000D02*
X55050000Y-68650000D01*
%TO.N,/SPI_MOSI*%
X55900000Y-61555966D02*
X55908949Y-61547017D01*
X55900000Y-62950000D02*
X55900000Y-61555966D01*
%TO.N,/PB8 {slash} I2C1_SCL*%
X56825000Y-83058883D02*
X54101117Y-83058883D01*
X46680000Y-90480000D02*
X44880000Y-90480000D01*
X54101117Y-83058883D02*
X46680000Y-90480000D01*
%TO.N,/PA0{slash}BTN_USR*%
X60300000Y-67000000D02*
X60300000Y-64500000D01*
X60300000Y-64500000D02*
X64450000Y-60350000D01*
%TO.N,/STM_SWDIO*%
X48430000Y-81420000D02*
X40500000Y-89350000D01*
X48790000Y-81420000D02*
X48430000Y-81420000D01*
%TO.N,/STM_SWDCLK*%
X51975000Y-83000000D02*
X52000000Y-83025000D01*
X47800000Y-83000000D02*
X51975000Y-83000000D01*
X45503298Y-85296702D02*
X47800000Y-83000000D01*
X45497289Y-85296702D02*
X45503298Y-85296702D01*
X41300000Y-89493991D02*
X45497289Y-85296702D01*
%TO.N,/BLE_RX*%
X75975000Y-65300000D02*
X72312500Y-68962500D01*
X76600000Y-65300000D02*
X75975000Y-65300000D01*
X72350000Y-68925000D02*
X72312500Y-68962500D01*
X72350000Y-66400000D02*
X72350000Y-68925000D01*
%TO.N,/BLE_TX*%
X72900000Y-69700000D02*
X72787500Y-69587500D01*
X75000000Y-69700000D02*
X72900000Y-69700000D01*
X75987500Y-66387500D02*
X72787500Y-69587500D01*
%TO.N,/PA9 {slash} UART1_TX*%
X48757277Y-76507277D02*
X48757277Y-76642723D01*
X48757277Y-76642723D02*
X48677298Y-76722702D01*
%TO.N,Net-(U7-NRST)*%
X64000000Y-65000000D02*
X64000000Y-64900000D01*
X63900000Y-71000000D02*
X63900000Y-65100000D01*
X63900000Y-65100000D02*
X64000000Y-65000000D01*
%TO.N,/PB9 {slash} I2C1_SDA*%
X57136966Y-83870000D02*
X63480433Y-83870000D01*
X57035818Y-83882968D02*
X57123998Y-83882968D01*
X45321741Y-91286337D02*
X47323663Y-91286337D01*
X54742058Y-83867942D02*
X57020792Y-83867942D01*
X57123998Y-83882968D02*
X57136966Y-83870000D01*
X57020792Y-83867942D02*
X57035818Y-83882968D01*
X47323663Y-91286337D02*
X54742058Y-83867942D01*
%TD*%
%TA.AperFunction,Conductor*%
%TO.N,GND*%
G36*
X39613039Y-50620185D02*
G01*
X39658794Y-50672989D01*
X39670000Y-50724500D01*
X39670000Y-53900012D01*
X39670000Y-53900013D01*
X49830000Y-53899982D01*
X49830000Y-52493713D01*
X76949500Y-52493713D01*
X76949500Y-52706286D01*
X76982753Y-52916239D01*
X77048444Y-53118414D01*
X77144951Y-53307820D01*
X77269890Y-53479786D01*
X77420213Y-53630109D01*
X77592179Y-53755048D01*
X77592181Y-53755049D01*
X77592184Y-53755051D01*
X77781588Y-53851557D01*
X77983757Y-53917246D01*
X78193713Y-53950500D01*
X78193714Y-53950500D01*
X78406286Y-53950500D01*
X78406287Y-53950500D01*
X78616243Y-53917246D01*
X78818412Y-53851557D01*
X79007816Y-53755051D01*
X79029789Y-53739086D01*
X79179786Y-53630109D01*
X79179788Y-53630106D01*
X79179792Y-53630104D01*
X79330104Y-53479792D01*
X79330106Y-53479788D01*
X79330109Y-53479786D01*
X79455048Y-53307820D01*
X79455047Y-53307820D01*
X79455051Y-53307816D01*
X79551557Y-53118412D01*
X79617246Y-52916243D01*
X79650500Y-52706287D01*
X79650500Y-52493713D01*
X79617246Y-52283757D01*
X79551557Y-52081588D01*
X79455051Y-51892184D01*
X79455049Y-51892181D01*
X79455048Y-51892179D01*
X79330109Y-51720213D01*
X79179786Y-51569890D01*
X79007820Y-51444951D01*
X78818414Y-51348444D01*
X78818413Y-51348443D01*
X78818412Y-51348443D01*
X78616243Y-51282754D01*
X78616241Y-51282753D01*
X78616240Y-51282753D01*
X78454957Y-51257208D01*
X78406287Y-51249500D01*
X78193713Y-51249500D01*
X78145042Y-51257208D01*
X77983760Y-51282753D01*
X77781585Y-51348444D01*
X77592179Y-51444951D01*
X77420213Y-51569890D01*
X77269890Y-51720213D01*
X77144951Y-51892179D01*
X77048444Y-52081585D01*
X76982753Y-52283760D01*
X76949500Y-52493713D01*
X49830000Y-52493713D01*
X49830000Y-50724500D01*
X49849685Y-50657461D01*
X49902489Y-50611706D01*
X49954000Y-50600500D01*
X78734108Y-50600500D01*
X78795572Y-50600500D01*
X78804418Y-50600816D01*
X79033020Y-50617165D01*
X79050529Y-50619683D01*
X79270144Y-50667458D01*
X79287103Y-50672437D01*
X79497694Y-50750983D01*
X79513777Y-50758327D01*
X79711036Y-50866040D01*
X79725919Y-50875605D01*
X79905836Y-51010289D01*
X79919207Y-51021875D01*
X80078124Y-51180792D01*
X80089710Y-51194163D01*
X80224394Y-51374080D01*
X80233959Y-51388963D01*
X80341669Y-51586217D01*
X80349019Y-51602311D01*
X80427559Y-51812887D01*
X80432543Y-51829862D01*
X80480316Y-52049470D01*
X80482834Y-52066982D01*
X80499184Y-52295581D01*
X80499500Y-52304427D01*
X80499500Y-57626000D01*
X80479815Y-57693039D01*
X80427011Y-57738794D01*
X80375500Y-57750000D01*
X78000000Y-57750000D01*
X78000000Y-69500000D01*
X78000000Y-72100000D01*
X80375500Y-72100000D01*
X80442539Y-72119685D01*
X80488294Y-72172489D01*
X80499500Y-72224000D01*
X80499500Y-99895572D01*
X80499184Y-99904418D01*
X80482834Y-100133017D01*
X80480316Y-100150529D01*
X80432543Y-100370137D01*
X80427559Y-100387112D01*
X80349019Y-100597688D01*
X80341669Y-100613782D01*
X80233959Y-100811036D01*
X80224394Y-100825919D01*
X80089710Y-101005836D01*
X80078124Y-101019207D01*
X79919207Y-101178124D01*
X79905836Y-101189710D01*
X79725919Y-101324394D01*
X79711036Y-101333959D01*
X79513782Y-101441669D01*
X79497688Y-101449019D01*
X79287112Y-101527559D01*
X79270137Y-101532543D01*
X79050529Y-101580316D01*
X79033017Y-101582834D01*
X78804418Y-101599184D01*
X78795572Y-101599500D01*
X33204428Y-101599500D01*
X33195582Y-101599184D01*
X32966982Y-101582834D01*
X32949470Y-101580316D01*
X32729862Y-101532543D01*
X32712887Y-101527559D01*
X32502311Y-101449019D01*
X32486217Y-101441669D01*
X32288963Y-101333959D01*
X32274080Y-101324394D01*
X32094163Y-101189710D01*
X32080792Y-101178124D01*
X31921875Y-101019207D01*
X31910289Y-101005836D01*
X31775605Y-100825919D01*
X31766040Y-100811036D01*
X31739014Y-100761542D01*
X31658327Y-100613777D01*
X31650983Y-100597694D01*
X31572437Y-100387103D01*
X31567458Y-100370144D01*
X31519683Y-100150529D01*
X31517165Y-100133017D01*
X31516120Y-100118412D01*
X31500816Y-99904418D01*
X31500500Y-99895572D01*
X31500500Y-99493713D01*
X32149500Y-99493713D01*
X32149500Y-99706286D01*
X32175185Y-99868458D01*
X32182754Y-99916243D01*
X32245926Y-100110667D01*
X32248444Y-100118414D01*
X32344951Y-100307820D01*
X32469890Y-100479786D01*
X32620213Y-100630109D01*
X32792179Y-100755048D01*
X32792181Y-100755049D01*
X32792184Y-100755051D01*
X32981588Y-100851557D01*
X33183757Y-100917246D01*
X33393713Y-100950500D01*
X33393714Y-100950500D01*
X33606286Y-100950500D01*
X33606287Y-100950500D01*
X33816243Y-100917246D01*
X34018412Y-100851557D01*
X34207816Y-100755051D01*
X34354098Y-100648772D01*
X34379786Y-100630109D01*
X34379788Y-100630106D01*
X34379792Y-100630104D01*
X34530104Y-100479792D01*
X34530106Y-100479788D01*
X34530109Y-100479786D01*
X34599704Y-100383995D01*
X53164499Y-100383995D01*
X53191418Y-100519322D01*
X53191421Y-100519332D01*
X53244221Y-100646804D01*
X53244228Y-100646817D01*
X53320885Y-100761541D01*
X53320888Y-100761545D01*
X53418454Y-100859111D01*
X53418458Y-100859114D01*
X53533182Y-100935771D01*
X53533195Y-100935778D01*
X53660667Y-100988578D01*
X53660672Y-100988580D01*
X53660676Y-100988580D01*
X53660677Y-100988581D01*
X53796004Y-101015500D01*
X53796007Y-101015500D01*
X53933995Y-101015500D01*
X54025041Y-100997389D01*
X54069328Y-100988580D01*
X54196811Y-100935775D01*
X54311542Y-100859114D01*
X54409114Y-100761542D01*
X54485775Y-100646811D01*
X54538580Y-100519328D01*
X54565500Y-100383995D01*
X57414499Y-100383995D01*
X57441418Y-100519322D01*
X57441421Y-100519332D01*
X57494221Y-100646804D01*
X57494228Y-100646817D01*
X57570885Y-100761541D01*
X57570888Y-100761545D01*
X57668454Y-100859111D01*
X57668458Y-100859114D01*
X57783182Y-100935771D01*
X57783195Y-100935778D01*
X57910667Y-100988578D01*
X57910672Y-100988580D01*
X57910676Y-100988580D01*
X57910677Y-100988581D01*
X58046004Y-101015500D01*
X58046007Y-101015500D01*
X58183995Y-101015500D01*
X58275041Y-100997389D01*
X58319328Y-100988580D01*
X58446811Y-100935775D01*
X58561542Y-100859114D01*
X58659114Y-100761542D01*
X58735775Y-100646811D01*
X58788580Y-100519328D01*
X58815500Y-100383993D01*
X58815500Y-100246007D01*
X58815500Y-100246004D01*
X58788581Y-100110677D01*
X58788580Y-100110676D01*
X58788580Y-100110672D01*
X58788578Y-100110667D01*
X58735778Y-99983195D01*
X58735771Y-99983182D01*
X58659114Y-99868458D01*
X58659111Y-99868454D01*
X58561545Y-99770888D01*
X58561541Y-99770885D01*
X58446817Y-99694228D01*
X58446804Y-99694221D01*
X58319332Y-99641421D01*
X58319322Y-99641418D01*
X58183995Y-99614500D01*
X58183993Y-99614500D01*
X58046007Y-99614500D01*
X58046005Y-99614500D01*
X57910677Y-99641418D01*
X57910667Y-99641421D01*
X57783195Y-99694221D01*
X57783182Y-99694228D01*
X57668458Y-99770885D01*
X57668454Y-99770888D01*
X57570888Y-99868454D01*
X57570885Y-99868458D01*
X57494228Y-99983182D01*
X57494221Y-99983195D01*
X57441421Y-100110667D01*
X57441418Y-100110677D01*
X57414500Y-100246004D01*
X57414500Y-100246007D01*
X57414500Y-100383993D01*
X57414500Y-100383995D01*
X57414499Y-100383995D01*
X54565500Y-100383995D01*
X54565500Y-100383993D01*
X54565500Y-100246007D01*
X54565500Y-100246004D01*
X54538581Y-100110677D01*
X54538580Y-100110676D01*
X54538580Y-100110672D01*
X54538578Y-100110667D01*
X54485778Y-99983195D01*
X54485771Y-99983182D01*
X54409114Y-99868458D01*
X54409111Y-99868454D01*
X54311545Y-99770888D01*
X54311541Y-99770885D01*
X54196817Y-99694228D01*
X54196804Y-99694221D01*
X54069332Y-99641421D01*
X54069322Y-99641418D01*
X53933995Y-99614500D01*
X53933993Y-99614500D01*
X53796007Y-99614500D01*
X53796005Y-99614500D01*
X53660677Y-99641418D01*
X53660667Y-99641421D01*
X53533195Y-99694221D01*
X53533182Y-99694228D01*
X53418458Y-99770885D01*
X53418454Y-99770888D01*
X53320888Y-99868454D01*
X53320885Y-99868458D01*
X53244228Y-99983182D01*
X53244221Y-99983195D01*
X53191421Y-100110667D01*
X53191418Y-100110677D01*
X53164500Y-100246004D01*
X53164500Y-100246007D01*
X53164500Y-100383993D01*
X53164500Y-100383995D01*
X53164499Y-100383995D01*
X34599704Y-100383995D01*
X34655048Y-100307820D01*
X34655047Y-100307820D01*
X34655051Y-100307816D01*
X34751557Y-100118412D01*
X34817246Y-99916243D01*
X34850500Y-99706287D01*
X34850500Y-99493713D01*
X34817246Y-99283757D01*
X34751557Y-99081588D01*
X34655051Y-98892184D01*
X34651666Y-98887525D01*
X58459500Y-98887525D01*
X58459500Y-99032475D01*
X58497016Y-99172485D01*
X58497017Y-99172488D01*
X58569488Y-99298011D01*
X58569490Y-99298013D01*
X58569491Y-99298015D01*
X58671985Y-99400509D01*
X58671986Y-99400510D01*
X58671988Y-99400511D01*
X58797511Y-99472982D01*
X58797512Y-99472982D01*
X58797515Y-99472984D01*
X58937525Y-99510500D01*
X58937528Y-99510500D01*
X59082472Y-99510500D01*
X59082475Y-99510500D01*
X59145124Y-99493713D01*
X77149500Y-99493713D01*
X77149500Y-99706286D01*
X77175185Y-99868458D01*
X77182754Y-99916243D01*
X77245926Y-100110667D01*
X77248444Y-100118414D01*
X77344951Y-100307820D01*
X77469890Y-100479786D01*
X77620213Y-100630109D01*
X77792179Y-100755048D01*
X77792181Y-100755049D01*
X77792184Y-100755051D01*
X77981588Y-100851557D01*
X78183757Y-100917246D01*
X78393713Y-100950500D01*
X78393714Y-100950500D01*
X78606286Y-100950500D01*
X78606287Y-100950500D01*
X78816243Y-100917246D01*
X79018412Y-100851557D01*
X79207816Y-100755051D01*
X79354098Y-100648772D01*
X79379786Y-100630109D01*
X79379788Y-100630106D01*
X79379792Y-100630104D01*
X79530104Y-100479792D01*
X79530106Y-100479788D01*
X79530109Y-100479786D01*
X79655048Y-100307820D01*
X79655047Y-100307820D01*
X79655051Y-100307816D01*
X79751557Y-100118412D01*
X79817246Y-99916243D01*
X79850500Y-99706287D01*
X79850500Y-99493713D01*
X79817246Y-99283757D01*
X79751557Y-99081588D01*
X79655051Y-98892184D01*
X79655049Y-98892181D01*
X79655048Y-98892179D01*
X79530109Y-98720213D01*
X79379786Y-98569890D01*
X79207820Y-98444951D01*
X79018414Y-98348444D01*
X79018413Y-98348443D01*
X79018412Y-98348443D01*
X78816243Y-98282754D01*
X78816241Y-98282753D01*
X78816240Y-98282753D01*
X78654957Y-98257208D01*
X78606287Y-98249500D01*
X78393713Y-98249500D01*
X78345042Y-98257208D01*
X78183760Y-98282753D01*
X77981585Y-98348444D01*
X77792179Y-98444951D01*
X77620213Y-98569890D01*
X77469890Y-98720213D01*
X77344951Y-98892179D01*
X77248444Y-99081585D01*
X77182753Y-99283760D01*
X77149500Y-99493713D01*
X59145124Y-99493713D01*
X59222485Y-99472984D01*
X59348015Y-99400509D01*
X59450509Y-99298015D01*
X59522984Y-99172485D01*
X59560500Y-99032475D01*
X59560500Y-98887525D01*
X59522984Y-98747515D01*
X59507218Y-98720208D01*
X59450511Y-98621988D01*
X59450506Y-98621982D01*
X59446819Y-98618295D01*
X59413334Y-98556972D01*
X59410500Y-98530614D01*
X59410500Y-95877255D01*
X59430185Y-95810216D01*
X59446819Y-95789574D01*
X59879574Y-95356819D01*
X59940897Y-95323334D01*
X59967255Y-95320500D01*
X59972472Y-95320500D01*
X59972475Y-95320500D01*
X60112485Y-95282984D01*
X60238015Y-95210509D01*
X60340509Y-95108015D01*
X60412984Y-94982485D01*
X60450500Y-94842475D01*
X60450500Y-94697525D01*
X60412984Y-94557515D01*
X60340509Y-94431985D01*
X60238015Y-94329491D01*
X60238013Y-94329490D01*
X60238011Y-94329488D01*
X60112488Y-94257017D01*
X60112489Y-94257017D01*
X60101006Y-94253940D01*
X59972475Y-94219500D01*
X59827525Y-94219500D01*
X59698993Y-94253940D01*
X59687511Y-94257017D01*
X59561988Y-94329488D01*
X59561982Y-94329493D01*
X59459493Y-94431982D01*
X59459488Y-94431988D01*
X59387017Y-94557511D01*
X59387016Y-94557515D01*
X59349500Y-94697525D01*
X59349500Y-94697527D01*
X59349500Y-94702745D01*
X59329815Y-94769784D01*
X59313181Y-94790426D01*
X58689522Y-95414084D01*
X58689518Y-95414090D01*
X58636792Y-95505412D01*
X58636793Y-95505413D01*
X58609500Y-95607273D01*
X58609500Y-98530614D01*
X58589815Y-98597653D01*
X58573181Y-98618295D01*
X58569493Y-98621982D01*
X58569488Y-98621988D01*
X58497017Y-98747511D01*
X58497016Y-98747515D01*
X58459500Y-98887525D01*
X34651666Y-98887525D01*
X34647023Y-98881134D01*
X34530109Y-98720213D01*
X34379786Y-98569890D01*
X34207820Y-98444951D01*
X34018414Y-98348444D01*
X34018413Y-98348443D01*
X34018412Y-98348443D01*
X33816243Y-98282754D01*
X33816241Y-98282753D01*
X33816240Y-98282753D01*
X33654957Y-98257208D01*
X33606287Y-98249500D01*
X33393713Y-98249500D01*
X33345042Y-98257208D01*
X33183760Y-98282753D01*
X32981585Y-98348444D01*
X32792179Y-98444951D01*
X32620213Y-98569890D01*
X32469890Y-98720213D01*
X32344951Y-98892179D01*
X32248444Y-99081585D01*
X32182753Y-99283760D01*
X32149500Y-99493713D01*
X31500500Y-99493713D01*
X31500500Y-92850000D01*
X33816872Y-92850000D01*
X33888811Y-93023678D01*
X33888812Y-93023681D01*
X33998248Y-93187462D01*
X33998251Y-93187466D01*
X34137533Y-93326748D01*
X34137537Y-93326751D01*
X34301315Y-93436185D01*
X34301328Y-93436192D01*
X34483306Y-93511569D01*
X34483318Y-93511572D01*
X34676504Y-93549999D01*
X34676508Y-93550000D01*
X34750000Y-93550000D01*
X35350000Y-93550000D01*
X35423492Y-93550000D01*
X35423495Y-93549999D01*
X35616681Y-93511572D01*
X35616693Y-93511569D01*
X35798671Y-93436192D01*
X35798684Y-93436185D01*
X35962462Y-93326751D01*
X35962466Y-93326748D01*
X36101748Y-93187466D01*
X36101751Y-93187462D01*
X36211187Y-93023681D01*
X36211188Y-93023678D01*
X36283128Y-92850000D01*
X35350000Y-92850000D01*
X35350000Y-93550000D01*
X34750000Y-93550000D01*
X34750000Y-92850000D01*
X33816872Y-92850000D01*
X31500500Y-92850000D01*
X31500500Y-92249999D01*
X33816871Y-92249999D01*
X33816872Y-92250000D01*
X34819670Y-92250000D01*
X34749925Y-92319745D01*
X34700556Y-92405255D01*
X34675000Y-92500630D01*
X34675000Y-92599370D01*
X34700556Y-92694745D01*
X34749925Y-92780255D01*
X34819745Y-92850075D01*
X34905255Y-92899444D01*
X35000630Y-92925000D01*
X35099370Y-92925000D01*
X35194745Y-92899444D01*
X35280255Y-92850075D01*
X35350075Y-92780255D01*
X35399444Y-92694745D01*
X35425000Y-92599370D01*
X35425000Y-92500630D01*
X35399444Y-92405255D01*
X35350075Y-92319745D01*
X35280330Y-92250000D01*
X36283128Y-92250000D01*
X36283128Y-92249999D01*
X36211188Y-92076321D01*
X36211187Y-92076319D01*
X36154651Y-91991707D01*
X36114050Y-91930943D01*
X39474500Y-91930943D01*
X39474500Y-92089057D01*
X39497529Y-92175000D01*
X39515423Y-92241783D01*
X39515426Y-92241790D01*
X39594475Y-92378709D01*
X39594479Y-92378714D01*
X39594480Y-92378716D01*
X39706284Y-92490520D01*
X39706286Y-92490521D01*
X39706290Y-92490524D01*
X39843209Y-92569573D01*
X39843216Y-92569577D01*
X39995943Y-92610500D01*
X39995945Y-92610500D01*
X40074314Y-92610500D01*
X40141353Y-92630185D01*
X40187108Y-92682989D01*
X40197052Y-92752147D01*
X40192087Y-92770247D01*
X40192527Y-92770365D01*
X40190423Y-92778214D01*
X40190423Y-92778216D01*
X40149500Y-92930943D01*
X40149500Y-93089057D01*
X40175868Y-93187462D01*
X40190423Y-93241783D01*
X40190426Y-93241790D01*
X40269475Y-93378709D01*
X40269479Y-93378714D01*
X40269480Y-93378716D01*
X40381284Y-93490520D01*
X40381286Y-93490521D01*
X40381290Y-93490524D01*
X40518209Y-93569573D01*
X40518216Y-93569577D01*
X40670943Y-93610500D01*
X40670945Y-93610500D01*
X40829055Y-93610500D01*
X40829057Y-93610500D01*
X40981784Y-93569577D01*
X41118716Y-93490520D01*
X41205707Y-93403529D01*
X54675355Y-93403529D01*
X54675355Y-93548479D01*
X54691974Y-93610500D01*
X54712872Y-93688492D01*
X54785343Y-93814015D01*
X54785345Y-93814017D01*
X54785346Y-93814019D01*
X54887840Y-93916513D01*
X54887841Y-93916514D01*
X54887843Y-93916515D01*
X55013366Y-93988986D01*
X55013367Y-93988986D01*
X55013370Y-93988988D01*
X55153380Y-94026504D01*
X55153383Y-94026504D01*
X55298327Y-94026504D01*
X55298330Y-94026504D01*
X55438340Y-93988988D01*
X55563870Y-93916513D01*
X55592560Y-93887823D01*
X55653883Y-93854338D01*
X55680241Y-93851504D01*
X56623430Y-93851504D01*
X56623432Y-93851504D01*
X56701912Y-93830475D01*
X56718934Y-93825914D01*
X56804558Y-93776479D01*
X56874471Y-93706566D01*
X57043894Y-93537142D01*
X57105215Y-93503659D01*
X57174906Y-93508643D01*
X57230840Y-93550514D01*
X57255257Y-93615979D01*
X57240405Y-93684252D01*
X57238961Y-93686823D01*
X57227018Y-93707509D01*
X57227017Y-93707510D01*
X57227016Y-93707515D01*
X57189500Y-93847525D01*
X57189500Y-93992475D01*
X57227016Y-94132485D01*
X57227017Y-94132488D01*
X57299488Y-94258011D01*
X57299493Y-94258017D01*
X57303181Y-94261705D01*
X57336666Y-94323028D01*
X57339500Y-94349386D01*
X57339500Y-97380614D01*
X57319815Y-97447653D01*
X57303181Y-97468295D01*
X57259493Y-97511982D01*
X57259488Y-97511988D01*
X57187017Y-97637511D01*
X57187016Y-97637515D01*
X57149500Y-97777525D01*
X57149500Y-97922475D01*
X57187016Y-98062485D01*
X57187017Y-98062488D01*
X57259488Y-98188011D01*
X57259490Y-98188013D01*
X57259491Y-98188015D01*
X57361985Y-98290509D01*
X57361986Y-98290510D01*
X57361988Y-98290511D01*
X57487511Y-98362982D01*
X57487512Y-98362982D01*
X57487515Y-98362984D01*
X57627525Y-98400500D01*
X57627528Y-98400500D01*
X57772472Y-98400500D01*
X57772475Y-98400500D01*
X57912485Y-98362984D01*
X58038015Y-98290509D01*
X58140509Y-98188015D01*
X58212984Y-98062485D01*
X58250500Y-97922475D01*
X58250500Y-97777525D01*
X58212984Y-97637515D01*
X58212982Y-97637511D01*
X58157113Y-97540743D01*
X58140500Y-97478743D01*
X58140500Y-94349386D01*
X58160185Y-94282347D01*
X58176819Y-94261705D01*
X58180509Y-94258015D01*
X58252984Y-94132485D01*
X58290500Y-93992475D01*
X58290500Y-93847525D01*
X58252984Y-93707515D01*
X58241999Y-93688489D01*
X58180511Y-93581988D01*
X58180506Y-93581982D01*
X58078017Y-93479493D01*
X58078011Y-93479488D01*
X57952488Y-93407017D01*
X57952489Y-93407017D01*
X57939471Y-93403529D01*
X57812475Y-93369500D01*
X57667525Y-93369500D01*
X57569108Y-93395870D01*
X57527510Y-93407017D01*
X57527509Y-93407018D01*
X57506823Y-93418961D01*
X57438922Y-93435432D01*
X57372896Y-93412579D01*
X57329706Y-93357657D01*
X57323066Y-93288103D01*
X57355084Y-93226001D01*
X57357101Y-93223935D01*
X59964218Y-90616819D01*
X60025541Y-90583334D01*
X60051899Y-90580500D01*
X60092472Y-90580500D01*
X60092475Y-90580500D01*
X60232485Y-90542984D01*
X60358015Y-90470509D01*
X60460509Y-90368015D01*
X60532984Y-90242485D01*
X60570500Y-90102475D01*
X60570500Y-89957525D01*
X60532984Y-89817515D01*
X60479896Y-89725565D01*
X60460511Y-89691988D01*
X60460506Y-89691982D01*
X60358017Y-89589493D01*
X60358011Y-89589488D01*
X60232488Y-89517017D01*
X60232489Y-89517017D01*
X60221006Y-89513940D01*
X60092475Y-89479500D01*
X59947525Y-89479500D01*
X59818993Y-89513940D01*
X59807511Y-89517017D01*
X59681988Y-89589488D01*
X59681982Y-89589493D01*
X59579493Y-89691982D01*
X59579488Y-89691988D01*
X59507017Y-89817511D01*
X59507016Y-89817515D01*
X59469500Y-89957525D01*
X59469500Y-89957527D01*
X59469500Y-89998101D01*
X59449815Y-90065140D01*
X59433181Y-90085782D01*
X56454778Y-93064185D01*
X56393455Y-93097670D01*
X56367097Y-93100504D01*
X55680241Y-93100504D01*
X55613202Y-93080819D01*
X55592560Y-93064185D01*
X55563872Y-93035497D01*
X55563866Y-93035492D01*
X55438343Y-92963021D01*
X55438344Y-92963021D01*
X55426861Y-92959944D01*
X55298330Y-92925504D01*
X55153380Y-92925504D01*
X55024848Y-92959944D01*
X55013366Y-92963021D01*
X54887843Y-93035492D01*
X54887837Y-93035497D01*
X54785348Y-93137986D01*
X54785343Y-93137992D01*
X54712872Y-93263515D01*
X54712871Y-93263519D01*
X54675355Y-93403529D01*
X41205707Y-93403529D01*
X41230520Y-93378716D01*
X41309577Y-93241784D01*
X41350500Y-93089057D01*
X41350500Y-92930943D01*
X41309577Y-92778216D01*
X41294526Y-92752147D01*
X41230524Y-92641290D01*
X41230518Y-92641282D01*
X41161819Y-92572583D01*
X41128334Y-92511260D01*
X41125500Y-92484902D01*
X41125500Y-90400943D01*
X44279500Y-90400943D01*
X44279500Y-90559057D01*
X44317040Y-90699156D01*
X44320423Y-90711783D01*
X44320426Y-90711790D01*
X44399475Y-90848709D01*
X44399479Y-90848714D01*
X44399480Y-90848716D01*
X44511284Y-90960520D01*
X44511286Y-90960521D01*
X44511290Y-90960524D01*
X44592625Y-91007482D01*
X44648216Y-91039577D01*
X44648223Y-91039579D01*
X44653920Y-91041939D01*
X44708325Y-91085778D01*
X44730393Y-91152071D01*
X44726248Y-91188590D01*
X44721241Y-91207276D01*
X44721241Y-91207280D01*
X44721241Y-91365394D01*
X44732862Y-91408762D01*
X44762164Y-91518120D01*
X44762167Y-91518127D01*
X44841216Y-91655046D01*
X44841220Y-91655051D01*
X44841221Y-91655053D01*
X44953025Y-91766857D01*
X44953027Y-91766858D01*
X44953031Y-91766861D01*
X45089950Y-91845910D01*
X45089957Y-91845914D01*
X45242684Y-91886837D01*
X45242686Y-91886837D01*
X45400796Y-91886837D01*
X45400798Y-91886837D01*
X45553525Y-91845914D01*
X45690457Y-91766857D01*
X45759158Y-91698156D01*
X45820481Y-91664671D01*
X45846839Y-91661837D01*
X47373098Y-91661837D01*
X47373099Y-91661837D01*
X47420849Y-91649042D01*
X47468601Y-91636247D01*
X47554225Y-91586812D01*
X47624138Y-91516899D01*
X47624137Y-91516899D01*
X47682706Y-91458330D01*
X47682705Y-91458330D01*
X54861277Y-84279761D01*
X54922600Y-84246276D01*
X54948958Y-84243442D01*
X56566406Y-84243442D01*
X56633445Y-84263127D01*
X56654087Y-84279761D01*
X56697803Y-84323477D01*
X56697804Y-84323478D01*
X56697806Y-84323479D01*
X56823329Y-84395950D01*
X56823330Y-84395950D01*
X56823333Y-84395952D01*
X56963343Y-84433468D01*
X56963346Y-84433468D01*
X57108290Y-84433468D01*
X57108293Y-84433468D01*
X57248303Y-84395952D01*
X57373833Y-84323477D01*
X57415491Y-84281819D01*
X57476814Y-84248334D01*
X57503172Y-84245500D01*
X62055311Y-84245500D01*
X62122350Y-84265185D01*
X62168105Y-84317989D01*
X62178049Y-84387147D01*
X62162699Y-84431499D01*
X62101116Y-84538164D01*
X62101116Y-84538165D01*
X62060191Y-84690897D01*
X62059429Y-84696690D01*
X62031160Y-84760585D01*
X61972834Y-84799054D01*
X61936491Y-84804499D01*
X55800565Y-84804499D01*
X55752813Y-84817294D01*
X55752812Y-84817293D01*
X55705064Y-84830088D01*
X55705063Y-84830088D01*
X55619436Y-84879526D01*
X55065782Y-85433181D01*
X55004459Y-85466666D01*
X54978101Y-85469500D01*
X54880943Y-85469500D01*
X54728216Y-85510423D01*
X54728209Y-85510426D01*
X54591290Y-85589475D01*
X54591282Y-85589481D01*
X54479481Y-85701282D01*
X54479475Y-85701290D01*
X54400426Y-85838209D01*
X54400423Y-85838216D01*
X54359500Y-85990943D01*
X54359500Y-86149057D01*
X54378763Y-86220945D01*
X54400423Y-86301783D01*
X54400426Y-86301790D01*
X54479475Y-86438709D01*
X54479479Y-86438714D01*
X54479480Y-86438716D01*
X54591284Y-86550520D01*
X54591286Y-86550521D01*
X54591290Y-86550524D01*
X54713261Y-86620943D01*
X54728216Y-86629577D01*
X54880943Y-86670500D01*
X54880945Y-86670500D01*
X55039055Y-86670500D01*
X55039057Y-86670500D01*
X55191784Y-86629577D01*
X55328716Y-86550520D01*
X55440520Y-86438716D01*
X55519577Y-86301784D01*
X55560500Y-86149057D01*
X55560500Y-86051899D01*
X55580185Y-85984860D01*
X55596819Y-85964218D01*
X55969219Y-85591818D01*
X56030542Y-85558333D01*
X56056900Y-85555499D01*
X62300077Y-85555499D01*
X62300079Y-85555499D01*
X62388583Y-85531784D01*
X62388583Y-85531785D01*
X62388588Y-85531782D01*
X62395581Y-85529909D01*
X62481205Y-85480474D01*
X62551118Y-85410561D01*
X62554911Y-85406768D01*
X62616234Y-85373283D01*
X62642592Y-85370449D01*
X62739748Y-85370449D01*
X62739750Y-85370449D01*
X62892477Y-85329526D01*
X63029409Y-85250469D01*
X63141213Y-85138665D01*
X63220270Y-85001733D01*
X63261193Y-84849006D01*
X63261193Y-84690892D01*
X63242315Y-84620438D01*
X63243978Y-84550591D01*
X63283140Y-84492728D01*
X63347369Y-84465224D01*
X63394184Y-84468572D01*
X63401376Y-84470500D01*
X63401378Y-84470500D01*
X63559488Y-84470500D01*
X63559490Y-84470500D01*
X63712217Y-84429577D01*
X63849149Y-84350520D01*
X63917850Y-84281819D01*
X63979173Y-84248334D01*
X64005531Y-84245500D01*
X70563101Y-84245500D01*
X70630140Y-84265185D01*
X70650782Y-84281819D01*
X72794847Y-86425884D01*
X72826940Y-86481470D01*
X72840420Y-86531777D01*
X72840426Y-86531790D01*
X72919475Y-86668709D01*
X72919479Y-86668714D01*
X72919480Y-86668716D01*
X73031284Y-86780520D01*
X73031286Y-86780521D01*
X73031290Y-86780524D01*
X73168209Y-86859573D01*
X73168216Y-86859577D01*
X73320943Y-86900500D01*
X73320945Y-86900500D01*
X73479055Y-86900500D01*
X73479057Y-86900500D01*
X73631784Y-86859577D01*
X73768716Y-86780520D01*
X73880520Y-86668716D01*
X73959577Y-86531784D01*
X74000500Y-86379057D01*
X74000500Y-86220943D01*
X73959577Y-86068216D01*
X73959573Y-86068209D01*
X73880524Y-85931290D01*
X73880518Y-85931282D01*
X73836917Y-85887681D01*
X73803432Y-85826358D01*
X73808416Y-85756666D01*
X73836917Y-85712319D01*
X73847954Y-85701282D01*
X73880520Y-85668716D01*
X73959577Y-85531784D01*
X74000500Y-85379057D01*
X74000500Y-85220943D01*
X73959577Y-85068216D01*
X73921197Y-85001739D01*
X73880524Y-84931290D01*
X73880518Y-84931282D01*
X73768717Y-84819481D01*
X73768709Y-84819475D01*
X73631790Y-84740426D01*
X73631786Y-84740424D01*
X73631784Y-84740423D01*
X73479057Y-84699500D01*
X73479056Y-84699500D01*
X73381899Y-84699500D01*
X73314860Y-84679815D01*
X73294218Y-84663181D01*
X71300629Y-82669592D01*
X71300628Y-82669591D01*
X71222528Y-82624500D01*
X71215006Y-82620157D01*
X71215005Y-82620156D01*
X71215004Y-82620156D01*
X71167252Y-82607361D01*
X71167250Y-82607360D01*
X71167248Y-82607359D01*
X71119502Y-82594566D01*
X71119501Y-82594566D01*
X65015032Y-82594566D01*
X64947993Y-82574881D01*
X64927351Y-82558247D01*
X64858651Y-82489547D01*
X64858643Y-82489541D01*
X64721724Y-82410492D01*
X64721720Y-82410490D01*
X64721718Y-82410489D01*
X64568991Y-82369566D01*
X64410877Y-82369566D01*
X64258150Y-82410489D01*
X64258143Y-82410492D01*
X64121224Y-82489541D01*
X64121216Y-82489547D01*
X64009413Y-82601350D01*
X63997849Y-82621382D01*
X63947282Y-82669598D01*
X63890461Y-82683383D01*
X57279386Y-82683383D01*
X57212347Y-82663698D01*
X57191705Y-82647064D01*
X57163017Y-82618376D01*
X57163011Y-82618371D01*
X57037488Y-82545900D01*
X57037489Y-82545900D01*
X57026006Y-82542823D01*
X56897475Y-82508383D01*
X56752525Y-82508383D01*
X56623993Y-82542823D01*
X56612511Y-82545900D01*
X56486988Y-82618371D01*
X56486982Y-82618376D01*
X56458295Y-82647064D01*
X56396972Y-82680549D01*
X56370614Y-82683383D01*
X54051681Y-82683383D01*
X54003929Y-82696178D01*
X54003928Y-82696177D01*
X53956180Y-82708972D01*
X53956179Y-82708972D01*
X53870552Y-82758410D01*
X46560782Y-90068181D01*
X46499459Y-90101666D01*
X46473101Y-90104500D01*
X45405098Y-90104500D01*
X45338059Y-90084815D01*
X45317417Y-90068181D01*
X45248717Y-89999481D01*
X45248709Y-89999475D01*
X45111790Y-89920426D01*
X45111786Y-89920424D01*
X45111784Y-89920423D01*
X44959057Y-89879500D01*
X44800943Y-89879500D01*
X44648216Y-89920423D01*
X44648209Y-89920426D01*
X44511290Y-89999475D01*
X44511282Y-89999481D01*
X44399481Y-90111282D01*
X44399475Y-90111290D01*
X44320426Y-90248209D01*
X44320423Y-90248216D01*
X44279500Y-90400943D01*
X41125500Y-90400943D01*
X41125500Y-90250890D01*
X41145185Y-90183851D01*
X41161819Y-90163209D01*
X41600474Y-89724554D01*
X41735540Y-89589488D01*
X42142284Y-89182742D01*
X42203605Y-89149259D01*
X42273296Y-89154243D01*
X42329230Y-89196114D01*
X42337350Y-89208425D01*
X42389477Y-89298712D01*
X42389479Y-89298715D01*
X42389480Y-89298716D01*
X42501284Y-89410520D01*
X42501286Y-89410521D01*
X42501290Y-89410524D01*
X42612145Y-89474525D01*
X42638216Y-89489577D01*
X42790943Y-89530500D01*
X42790945Y-89530500D01*
X42949055Y-89530500D01*
X42949057Y-89530500D01*
X43101784Y-89489577D01*
X43238716Y-89410520D01*
X43350520Y-89298716D01*
X43429577Y-89161784D01*
X43470500Y-89009057D01*
X43470500Y-88911899D01*
X43490185Y-88844860D01*
X43506819Y-88824218D01*
X44994218Y-87336819D01*
X45055541Y-87303334D01*
X45081899Y-87300500D01*
X45179055Y-87300500D01*
X45179057Y-87300500D01*
X45331784Y-87259577D01*
X45468716Y-87180520D01*
X45580520Y-87068716D01*
X45659577Y-86931784D01*
X45700500Y-86779057D01*
X45700500Y-86620943D01*
X45659577Y-86468216D01*
X45608101Y-86379056D01*
X45580524Y-86331290D01*
X45580518Y-86331282D01*
X45468717Y-86219481D01*
X45468712Y-86219477D01*
X45378425Y-86167350D01*
X45330209Y-86116783D01*
X45316986Y-86048176D01*
X45342954Y-85983311D01*
X45352736Y-85972290D01*
X45708099Y-85616927D01*
X45733783Y-85597220D01*
X45733860Y-85597177D01*
X45803773Y-85527264D01*
X47919218Y-83411819D01*
X47980541Y-83378334D01*
X48006899Y-83375500D01*
X51449902Y-83375500D01*
X51516941Y-83395185D01*
X51537583Y-83411819D01*
X51631284Y-83505520D01*
X51631286Y-83505521D01*
X51631290Y-83505524D01*
X51753412Y-83576030D01*
X51768216Y-83584577D01*
X51920943Y-83625500D01*
X51920945Y-83625500D01*
X52079055Y-83625500D01*
X52079057Y-83625500D01*
X52231784Y-83584577D01*
X52368716Y-83505520D01*
X52480520Y-83393716D01*
X52559577Y-83256784D01*
X52600500Y-83104057D01*
X52600500Y-82945943D01*
X52559577Y-82793216D01*
X52539482Y-82758410D01*
X52480524Y-82656290D01*
X52480518Y-82656282D01*
X52368717Y-82544481D01*
X52368709Y-82544475D01*
X52231790Y-82465426D01*
X52231786Y-82465424D01*
X52231784Y-82465423D01*
X52079057Y-82424500D01*
X51920943Y-82424500D01*
X51768216Y-82465423D01*
X51768209Y-82465426D01*
X51631290Y-82544475D01*
X51631282Y-82544481D01*
X51587583Y-82588181D01*
X51526260Y-82621666D01*
X51499902Y-82624500D01*
X48055899Y-82624500D01*
X47988860Y-82604815D01*
X47943105Y-82552011D01*
X47933161Y-82482853D01*
X47962186Y-82419297D01*
X47968218Y-82412819D01*
X48260205Y-82120831D01*
X48391557Y-81989478D01*
X48452878Y-81955995D01*
X48522569Y-81960979D01*
X48541234Y-81969772D01*
X48558216Y-81979577D01*
X48710943Y-82020500D01*
X48710945Y-82020500D01*
X48869055Y-82020500D01*
X48869057Y-82020500D01*
X49021784Y-81979577D01*
X49158716Y-81900520D01*
X49270520Y-81788716D01*
X49349577Y-81651784D01*
X49390500Y-81499057D01*
X49390500Y-81340943D01*
X49349577Y-81188216D01*
X49309919Y-81119525D01*
X49302387Y-81106479D01*
X66900001Y-81106479D01*
X66914835Y-81200149D01*
X66914837Y-81200155D01*
X66972356Y-81313041D01*
X66972363Y-81313050D01*
X67061949Y-81402636D01*
X67061953Y-81402639D01*
X67174855Y-81460166D01*
X67268514Y-81474999D01*
X67749999Y-81474999D01*
X68350000Y-81474999D01*
X68831479Y-81474999D01*
X68925149Y-81460164D01*
X68925155Y-81460162D01*
X69038041Y-81402643D01*
X69038050Y-81402636D01*
X69127636Y-81313050D01*
X69127639Y-81313046D01*
X69185166Y-81200144D01*
X69200000Y-81106486D01*
X69200000Y-80625000D01*
X68350000Y-80625000D01*
X68350000Y-81474999D01*
X67749999Y-81474999D01*
X67750000Y-81474998D01*
X67750000Y-80625000D01*
X66900001Y-80625000D01*
X66900001Y-81106479D01*
X49302387Y-81106479D01*
X49270524Y-81051290D01*
X49270518Y-81051282D01*
X49158717Y-80939481D01*
X49158709Y-80939475D01*
X49021790Y-80860426D01*
X49021786Y-80860424D01*
X49021784Y-80860423D01*
X48869057Y-80819500D01*
X48710943Y-80819500D01*
X48558216Y-80860423D01*
X48558209Y-80860426D01*
X48421290Y-80939475D01*
X48421286Y-80939478D01*
X48309885Y-81050879D01*
X48284205Y-81070583D01*
X48199444Y-81119521D01*
X48199435Y-81119527D01*
X45523870Y-83795092D01*
X45520512Y-83796925D01*
X45518481Y-83800169D01*
X45490086Y-83813539D01*
X45462547Y-83828577D01*
X45458730Y-83828304D01*
X45455269Y-83829934D01*
X45424157Y-83825831D01*
X45392855Y-83823593D01*
X45389792Y-83821300D01*
X45385999Y-83820800D01*
X45362040Y-83800524D01*
X45336922Y-83781721D01*
X45334737Y-83777419D01*
X45332664Y-83775665D01*
X45323592Y-83755477D01*
X45317628Y-83743734D01*
X45316992Y-83741661D01*
X45309500Y-83713697D01*
X45307211Y-83709732D01*
X45303641Y-83698079D01*
X45303529Y-83688540D01*
X45298202Y-83661756D01*
X45298202Y-83483776D01*
X45307641Y-83436322D01*
X45309494Y-83431846D01*
X45309500Y-83431836D01*
X45350423Y-83279109D01*
X45350423Y-83231171D01*
X45350500Y-83229997D01*
X45350500Y-79543513D01*
X66900000Y-79543513D01*
X66900000Y-80025000D01*
X67750000Y-80025000D01*
X68350000Y-80025000D01*
X69199999Y-80025000D01*
X69199999Y-79543520D01*
X69185164Y-79449850D01*
X69185162Y-79449844D01*
X69127643Y-79336958D01*
X69127636Y-79336949D01*
X69038050Y-79247363D01*
X69038046Y-79247360D01*
X68925144Y-79189833D01*
X68831486Y-79175000D01*
X68350000Y-79175000D01*
X68350000Y-80025000D01*
X67750000Y-80025000D01*
X67750000Y-79175000D01*
X67268520Y-79175000D01*
X67174850Y-79189835D01*
X67174844Y-79189837D01*
X67061958Y-79247356D01*
X67061949Y-79247363D01*
X66972363Y-79336949D01*
X66972360Y-79336953D01*
X66914833Y-79449855D01*
X66900000Y-79543513D01*
X45350500Y-79543513D01*
X45350500Y-78990000D01*
X75200000Y-78990000D01*
X77290000Y-78990000D01*
X77290000Y-77090000D01*
X75200000Y-77090000D01*
X75200000Y-78990000D01*
X45350500Y-78990000D01*
X45350500Y-77828362D01*
X45358167Y-77789822D01*
X45357473Y-77789636D01*
X45359577Y-77781783D01*
X45400500Y-77629057D01*
X45400500Y-77470943D01*
X45359577Y-77318216D01*
X45359576Y-77318214D01*
X45357473Y-77310365D01*
X45357888Y-77310253D01*
X45355523Y-77306572D01*
X45350500Y-77271637D01*
X45350500Y-77078362D01*
X45358167Y-77039822D01*
X45357473Y-77039636D01*
X45363154Y-77018435D01*
X45400500Y-76879057D01*
X45400500Y-76720943D01*
X45359577Y-76568216D01*
X45339958Y-76534234D01*
X45280524Y-76431290D01*
X45280518Y-76431282D01*
X45168717Y-76319481D01*
X45168709Y-76319475D01*
X45031790Y-76240426D01*
X45031786Y-76240424D01*
X45031784Y-76240423D01*
X44879057Y-76199500D01*
X44720943Y-76199500D01*
X44568216Y-76240423D01*
X44568209Y-76240426D01*
X44431290Y-76319475D01*
X44431282Y-76319481D01*
X44319481Y-76431282D01*
X44319475Y-76431290D01*
X44240426Y-76568209D01*
X44240423Y-76568216D01*
X44199500Y-76720943D01*
X44199500Y-76879057D01*
X44236846Y-77018435D01*
X44242527Y-77039636D01*
X44242112Y-77039747D01*
X44244477Y-77043427D01*
X44249500Y-77078362D01*
X44249500Y-77271637D01*
X44241834Y-77310179D01*
X44242527Y-77310365D01*
X44199500Y-77470943D01*
X44199500Y-77629056D01*
X44242527Y-77789636D01*
X44241832Y-77789822D01*
X44249500Y-77828362D01*
X44249500Y-82832584D01*
X44232887Y-82894584D01*
X44190347Y-82968265D01*
X44190346Y-82968268D01*
X44149423Y-83120995D01*
X44149423Y-83279109D01*
X44190345Y-83431832D01*
X44191922Y-83437717D01*
X44192179Y-83438117D01*
X44192352Y-83439322D01*
X44192450Y-83439687D01*
X44192406Y-83439698D01*
X44197202Y-83473052D01*
X44197202Y-83672479D01*
X44190661Y-83705368D01*
X44192449Y-83705847D01*
X44149423Y-83866424D01*
X44149423Y-84024537D01*
X44190346Y-84177264D01*
X44190349Y-84177271D01*
X44269398Y-84314190D01*
X44269402Y-84314195D01*
X44269403Y-84314197D01*
X44381207Y-84426001D01*
X44381209Y-84426002D01*
X44381213Y-84426005D01*
X44518132Y-84505054D01*
X44518139Y-84505058D01*
X44543945Y-84511972D01*
X44603606Y-84548336D01*
X44634136Y-84611182D01*
X44625842Y-84680558D01*
X44599534Y-84719428D01*
X40269437Y-89049525D01*
X39844438Y-89474525D01*
X39774526Y-89544436D01*
X39725091Y-89630059D01*
X39725091Y-89630060D01*
X39725090Y-89630062D01*
X39699500Y-89725565D01*
X39699500Y-89725567D01*
X39699500Y-91484902D01*
X39679815Y-91551941D01*
X39663181Y-91572583D01*
X39594481Y-91641282D01*
X39594475Y-91641290D01*
X39515426Y-91778209D01*
X39515423Y-91778216D01*
X39474500Y-91930943D01*
X36114050Y-91930943D01*
X36101751Y-91912537D01*
X36101748Y-91912533D01*
X35962466Y-91773251D01*
X35962462Y-91773248D01*
X35798684Y-91663814D01*
X35798675Y-91663809D01*
X35727208Y-91634207D01*
X35672805Y-91590366D01*
X35650740Y-91524072D01*
X35668019Y-91456373D01*
X35719156Y-91408762D01*
X35761408Y-91396356D01*
X35782483Y-91394091D01*
X35917331Y-91343796D01*
X36032546Y-91257546D01*
X36118796Y-91142331D01*
X36169091Y-91007483D01*
X36175500Y-90947873D01*
X36175499Y-90152128D01*
X36170161Y-90102472D01*
X36169091Y-90092516D01*
X36118797Y-89957671D01*
X36118793Y-89957664D01*
X36032547Y-89842455D01*
X36032544Y-89842452D01*
X35917335Y-89756206D01*
X35917328Y-89756202D01*
X35782482Y-89705908D01*
X35782483Y-89705908D01*
X35722883Y-89699501D01*
X35722881Y-89699500D01*
X35722873Y-89699500D01*
X35722864Y-89699500D01*
X34377129Y-89699500D01*
X34377123Y-89699501D01*
X34317516Y-89705908D01*
X34182671Y-89756202D01*
X34182664Y-89756206D01*
X34067455Y-89842452D01*
X34067452Y-89842455D01*
X33981206Y-89957664D01*
X33981202Y-89957671D01*
X33930908Y-90092517D01*
X33924501Y-90152116D01*
X33924501Y-90152123D01*
X33924500Y-90152135D01*
X33924500Y-90947870D01*
X33924501Y-90947876D01*
X33930908Y-91007483D01*
X33981202Y-91142328D01*
X33981206Y-91142335D01*
X34067452Y-91257544D01*
X34067455Y-91257547D01*
X34182664Y-91343793D01*
X34182671Y-91343797D01*
X34227618Y-91360561D01*
X34317517Y-91394091D01*
X34338594Y-91396357D01*
X34403144Y-91423094D01*
X34442992Y-91480486D01*
X34445486Y-91550311D01*
X34409834Y-91610401D01*
X34372791Y-91634207D01*
X34301325Y-91663809D01*
X34301315Y-91663814D01*
X34137537Y-91773248D01*
X34137533Y-91773251D01*
X33998251Y-91912533D01*
X33998248Y-91912537D01*
X33888812Y-92076318D01*
X33888811Y-92076321D01*
X33816871Y-92249999D01*
X31500500Y-92249999D01*
X31500500Y-83519999D01*
X31840110Y-83519999D01*
X31840111Y-83520000D01*
X32650504Y-83520000D01*
X32574204Y-83540444D01*
X32505795Y-83579940D01*
X32449940Y-83635795D01*
X32410444Y-83704204D01*
X32390000Y-83780504D01*
X32390000Y-83859496D01*
X32410444Y-83935796D01*
X32449940Y-84004205D01*
X32505795Y-84060060D01*
X32574204Y-84099556D01*
X32650504Y-84120000D01*
X31840111Y-84120000D01*
X31892428Y-84246308D01*
X31892430Y-84246311D01*
X31990920Y-84393712D01*
X31990926Y-84393720D01*
X32116279Y-84519073D01*
X32116283Y-84519076D01*
X32263683Y-84617566D01*
X32263692Y-84617571D01*
X32427479Y-84685413D01*
X32427487Y-84685415D01*
X32601353Y-84719999D01*
X32601357Y-84720000D01*
X32690000Y-84720000D01*
X32690000Y-84120000D01*
X33290000Y-84120000D01*
X33290000Y-84720000D01*
X33378643Y-84720000D01*
X33378646Y-84719999D01*
X33552512Y-84685415D01*
X33552520Y-84685413D01*
X33716307Y-84617571D01*
X33716316Y-84617566D01*
X33863716Y-84519076D01*
X33863720Y-84519073D01*
X33989073Y-84393720D01*
X33989079Y-84393712D01*
X34087569Y-84246311D01*
X34087571Y-84246308D01*
X34139889Y-84120000D01*
X33329496Y-84120000D01*
X33405796Y-84099556D01*
X33474205Y-84060060D01*
X33530060Y-84004205D01*
X33569556Y-83935796D01*
X33590000Y-83859496D01*
X33590000Y-83780504D01*
X33569556Y-83704204D01*
X33530060Y-83635795D01*
X33474205Y-83579940D01*
X33405796Y-83540444D01*
X33329496Y-83520000D01*
X34139889Y-83520000D01*
X34139889Y-83519999D01*
X34087571Y-83393691D01*
X34087569Y-83393688D01*
X33989079Y-83246287D01*
X33989073Y-83246279D01*
X33863720Y-83120926D01*
X33863716Y-83120923D01*
X33716316Y-83022433D01*
X33716307Y-83022428D01*
X33552520Y-82954586D01*
X33552512Y-82954584D01*
X33378646Y-82920000D01*
X33290000Y-82920000D01*
X33290000Y-83520000D01*
X32690000Y-83520000D01*
X32690000Y-82920000D01*
X32601353Y-82920000D01*
X32427487Y-82954584D01*
X32427479Y-82954586D01*
X32263692Y-83022428D01*
X32263683Y-83022433D01*
X32116283Y-83120923D01*
X32116279Y-83120926D01*
X31990926Y-83246279D01*
X31990920Y-83246287D01*
X31892430Y-83393688D01*
X31892428Y-83393691D01*
X31840110Y-83519999D01*
X31500500Y-83519999D01*
X31500500Y-74879999D01*
X31840110Y-74879999D01*
X31840111Y-74880000D01*
X32650504Y-74880000D01*
X32574204Y-74900444D01*
X32505795Y-74939940D01*
X32449940Y-74995795D01*
X32410444Y-75064204D01*
X32390000Y-75140504D01*
X32390000Y-75219496D01*
X32410444Y-75295796D01*
X32449940Y-75364205D01*
X32505795Y-75420060D01*
X32574204Y-75459556D01*
X32650504Y-75480000D01*
X31840111Y-75480000D01*
X31892428Y-75606308D01*
X31892430Y-75606311D01*
X31990920Y-75753712D01*
X31990926Y-75753720D01*
X32116279Y-75879073D01*
X32116283Y-75879076D01*
X32263683Y-75977566D01*
X32263692Y-75977571D01*
X32427479Y-76045413D01*
X32427487Y-76045415D01*
X32601353Y-76079999D01*
X32601357Y-76080000D01*
X32690000Y-76080000D01*
X32690000Y-75480000D01*
X33290000Y-75480000D01*
X33290000Y-76080000D01*
X33378643Y-76080000D01*
X33378646Y-76079999D01*
X33552512Y-76045415D01*
X33552520Y-76045413D01*
X33716307Y-75977571D01*
X33716316Y-75977566D01*
X33863716Y-75879076D01*
X33863720Y-75879073D01*
X33989073Y-75753720D01*
X33989079Y-75753712D01*
X34087569Y-75606311D01*
X34087571Y-75606308D01*
X34139889Y-75480000D01*
X33329496Y-75480000D01*
X33405796Y-75459556D01*
X33474205Y-75420060D01*
X33530060Y-75364205D01*
X33569556Y-75295796D01*
X33590000Y-75219496D01*
X33590000Y-75140504D01*
X33569556Y-75064204D01*
X33530060Y-74995795D01*
X33474205Y-74939940D01*
X33405796Y-74900444D01*
X33329496Y-74880000D01*
X34139889Y-74880000D01*
X34139889Y-74879999D01*
X35770110Y-74879999D01*
X35770111Y-74880000D01*
X36580504Y-74880000D01*
X36504204Y-74900444D01*
X36435795Y-74939940D01*
X36379940Y-74995795D01*
X36340444Y-75064204D01*
X36320000Y-75140504D01*
X36320000Y-75219496D01*
X36340444Y-75295796D01*
X36379940Y-75364205D01*
X36435795Y-75420060D01*
X36504204Y-75459556D01*
X36580504Y-75480000D01*
X35770111Y-75480000D01*
X35822428Y-75606308D01*
X35822430Y-75606311D01*
X35920920Y-75753712D01*
X35920926Y-75753720D01*
X36046279Y-75879073D01*
X36046283Y-75879076D01*
X36193683Y-75977566D01*
X36193691Y-75977570D01*
X36209517Y-75984125D01*
X36263922Y-76027964D01*
X36285990Y-76094257D01*
X36268713Y-76161957D01*
X36249751Y-76186369D01*
X36179485Y-76256635D01*
X36103719Y-76387863D01*
X36076106Y-76490918D01*
X36064500Y-76534234D01*
X36064500Y-76685766D01*
X36103719Y-76832135D01*
X36159625Y-76928967D01*
X36176098Y-76996865D01*
X36153246Y-77062892D01*
X36139920Y-77078647D01*
X36037281Y-77181286D01*
X36037278Y-77181290D01*
X35958229Y-77318209D01*
X35958226Y-77318216D01*
X35917303Y-77470943D01*
X35917303Y-77629057D01*
X35958226Y-77781784D01*
X35999955Y-77854062D01*
X36000690Y-77855334D01*
X36017303Y-77917334D01*
X36017303Y-81032573D01*
X35997618Y-81099612D01*
X35991678Y-81108061D01*
X35988474Y-81112235D01*
X35909426Y-81249153D01*
X35909423Y-81249160D01*
X35868500Y-81401887D01*
X35868500Y-81560000D01*
X35909423Y-81712727D01*
X35909426Y-81712734D01*
X35988475Y-81849653D01*
X35988481Y-81849661D01*
X36106031Y-81967211D01*
X36104801Y-81968440D01*
X36140173Y-82016881D01*
X36144330Y-82086627D01*
X36130873Y-82120831D01*
X36103719Y-82167862D01*
X36064500Y-82314234D01*
X36064500Y-82465766D01*
X36070872Y-82489546D01*
X36103719Y-82612136D01*
X36129212Y-82656290D01*
X36179485Y-82743365D01*
X36179487Y-82743367D01*
X36249750Y-82813630D01*
X36283235Y-82874953D01*
X36278251Y-82944645D01*
X36236379Y-83000578D01*
X36209522Y-83015872D01*
X36193692Y-83022428D01*
X36193683Y-83022433D01*
X36046283Y-83120923D01*
X36046279Y-83120926D01*
X35920926Y-83246279D01*
X35920920Y-83246287D01*
X35822430Y-83393688D01*
X35822428Y-83393691D01*
X35770110Y-83519999D01*
X35770111Y-83520000D01*
X36580504Y-83520000D01*
X36504204Y-83540444D01*
X36435795Y-83579940D01*
X36379940Y-83635795D01*
X36340444Y-83704204D01*
X36320000Y-83780504D01*
X36320000Y-83859496D01*
X36340444Y-83935796D01*
X36379940Y-84004205D01*
X36435795Y-84060060D01*
X36504204Y-84099556D01*
X36580504Y-84120000D01*
X35770111Y-84120000D01*
X35822428Y-84246308D01*
X35822430Y-84246311D01*
X35920920Y-84393712D01*
X35920926Y-84393720D01*
X36046279Y-84519073D01*
X36046283Y-84519076D01*
X36193683Y-84617566D01*
X36193692Y-84617571D01*
X36357479Y-84685413D01*
X36357487Y-84685415D01*
X36531353Y-84719999D01*
X36531357Y-84720000D01*
X36870000Y-84720000D01*
X36870000Y-84120000D01*
X37470000Y-84120000D01*
X37470000Y-84720000D01*
X37808643Y-84720000D01*
X37808646Y-84719999D01*
X37982512Y-84685415D01*
X37982520Y-84685413D01*
X38146307Y-84617571D01*
X38146316Y-84617566D01*
X38293716Y-84519076D01*
X38293720Y-84519073D01*
X38419073Y-84393720D01*
X38419079Y-84393712D01*
X38517569Y-84246311D01*
X38517571Y-84246308D01*
X38569889Y-84120000D01*
X37759496Y-84120000D01*
X37835796Y-84099556D01*
X37904205Y-84060060D01*
X37960060Y-84004205D01*
X37999556Y-83935796D01*
X38020000Y-83859496D01*
X38020000Y-83780504D01*
X37999556Y-83704204D01*
X37960060Y-83635795D01*
X37904205Y-83579940D01*
X37835796Y-83540444D01*
X37759496Y-83520000D01*
X38569889Y-83520000D01*
X38569889Y-83519999D01*
X38517571Y-83393691D01*
X38517569Y-83393688D01*
X38419079Y-83246287D01*
X38419073Y-83246279D01*
X38293720Y-83120926D01*
X38293716Y-83120923D01*
X38146316Y-83022433D01*
X38146307Y-83022428D01*
X37982520Y-82954586D01*
X37982512Y-82954584D01*
X37808646Y-82920000D01*
X37470000Y-82920000D01*
X37470000Y-83520000D01*
X36870000Y-83520000D01*
X36870000Y-82993331D01*
X36889685Y-82926292D01*
X36916761Y-82896325D01*
X36923990Y-82890568D01*
X36993365Y-82850515D01*
X37100515Y-82743365D01*
X37176281Y-82612135D01*
X37215500Y-82465766D01*
X37215500Y-82314234D01*
X37176281Y-82167865D01*
X37100515Y-82036635D01*
X37003630Y-81939750D01*
X36970145Y-81878427D01*
X36975129Y-81808735D01*
X36983921Y-81790074D01*
X37028577Y-81712728D01*
X37069500Y-81560001D01*
X37069500Y-81401887D01*
X37028577Y-81249160D01*
X37028575Y-81249157D01*
X37028574Y-81249152D01*
X37027739Y-81247136D01*
X37026890Y-81242867D01*
X37026473Y-81241311D01*
X37026575Y-81241283D01*
X37018303Y-81199691D01*
X37018303Y-77917334D01*
X37034916Y-77855334D01*
X37035650Y-77854063D01*
X37077380Y-77781784D01*
X37118303Y-77629057D01*
X37118303Y-77470943D01*
X37077380Y-77318216D01*
X37003536Y-77190314D01*
X36987065Y-77122415D01*
X37009918Y-77056388D01*
X37023233Y-77040646D01*
X37100515Y-76963365D01*
X37176281Y-76832135D01*
X37215500Y-76685766D01*
X37215500Y-76534234D01*
X37176281Y-76387865D01*
X37169141Y-76375499D01*
X37161169Y-76361691D01*
X37100515Y-76256635D01*
X36993365Y-76149485D01*
X36993363Y-76149484D01*
X36993361Y-76149482D01*
X36931998Y-76114053D01*
X36883783Y-76063485D01*
X36870000Y-76006667D01*
X36870000Y-75480000D01*
X37470000Y-75480000D01*
X37470000Y-76080000D01*
X37808643Y-76080000D01*
X37808646Y-76079999D01*
X37982512Y-76045415D01*
X37982520Y-76045413D01*
X38146307Y-75977571D01*
X38146316Y-75977566D01*
X38293716Y-75879076D01*
X38293720Y-75879073D01*
X38419073Y-75753720D01*
X38419079Y-75753712D01*
X38517569Y-75606311D01*
X38517571Y-75606308D01*
X38569889Y-75480000D01*
X37759496Y-75480000D01*
X37835796Y-75459556D01*
X37904205Y-75420060D01*
X37960060Y-75364205D01*
X37999556Y-75295796D01*
X38020000Y-75219496D01*
X38020000Y-75140504D01*
X37999556Y-75064204D01*
X37960060Y-74995795D01*
X37904205Y-74939940D01*
X37835796Y-74900444D01*
X37759496Y-74880000D01*
X38569889Y-74880000D01*
X38569889Y-74879999D01*
X38517571Y-74753691D01*
X38517569Y-74753688D01*
X38419079Y-74606287D01*
X38419073Y-74606279D01*
X38293720Y-74480926D01*
X38293716Y-74480923D01*
X38146316Y-74382433D01*
X38146307Y-74382428D01*
X37982520Y-74314586D01*
X37982512Y-74314584D01*
X37808646Y-74280000D01*
X37470000Y-74280000D01*
X37470000Y-74880000D01*
X36870000Y-74880000D01*
X36870000Y-74280000D01*
X36531353Y-74280000D01*
X36357487Y-74314584D01*
X36357479Y-74314586D01*
X36193692Y-74382428D01*
X36193683Y-74382433D01*
X36046283Y-74480923D01*
X36046279Y-74480926D01*
X35920926Y-74606279D01*
X35920920Y-74606287D01*
X35822430Y-74753688D01*
X35822428Y-74753691D01*
X35770110Y-74879999D01*
X34139889Y-74879999D01*
X34087571Y-74753691D01*
X34087569Y-74753688D01*
X33989079Y-74606287D01*
X33989073Y-74606279D01*
X33863720Y-74480926D01*
X33863716Y-74480923D01*
X33716316Y-74382433D01*
X33716307Y-74382428D01*
X33552520Y-74314586D01*
X33552512Y-74314584D01*
X33378646Y-74280000D01*
X33290000Y-74280000D01*
X33290000Y-74880000D01*
X32690000Y-74880000D01*
X32690000Y-74280000D01*
X32601353Y-74280000D01*
X32427487Y-74314584D01*
X32427479Y-74314586D01*
X32263692Y-74382428D01*
X32263683Y-74382433D01*
X32116283Y-74480923D01*
X32116279Y-74480926D01*
X31990926Y-74606279D01*
X31990920Y-74606287D01*
X31892430Y-74753688D01*
X31892428Y-74753691D01*
X31840110Y-74879999D01*
X31500500Y-74879999D01*
X31500500Y-68620943D01*
X36589500Y-68620943D01*
X36589500Y-68779056D01*
X36630423Y-68931783D01*
X36630426Y-68931790D01*
X36709475Y-69068709D01*
X36709481Y-69068717D01*
X36758082Y-69117318D01*
X36791567Y-69178641D01*
X36786583Y-69248333D01*
X36758084Y-69292678D01*
X36719482Y-69331281D01*
X36719475Y-69331290D01*
X36640426Y-69468209D01*
X36640423Y-69468216D01*
X36599500Y-69620943D01*
X36599500Y-69779057D01*
X36636976Y-69918917D01*
X36640423Y-69931783D01*
X36640426Y-69931790D01*
X36719475Y-70068709D01*
X36719479Y-70068714D01*
X36719480Y-70068716D01*
X36831284Y-70180520D01*
X36831286Y-70180521D01*
X36831290Y-70180524D01*
X36927083Y-70235829D01*
X36968216Y-70259577D01*
X37120943Y-70300500D01*
X37120945Y-70300500D01*
X37279055Y-70300500D01*
X37279057Y-70300500D01*
X37431784Y-70259577D01*
X37568716Y-70180520D01*
X37637417Y-70111819D01*
X37698740Y-70078334D01*
X37725098Y-70075500D01*
X40173101Y-70075500D01*
X40240140Y-70095185D01*
X40260782Y-70111819D01*
X48001804Y-77852841D01*
X48071717Y-77922754D01*
X48157341Y-77972189D01*
X48191251Y-77981275D01*
X48246836Y-78013368D01*
X48336267Y-78102799D01*
X48336269Y-78102800D01*
X48336273Y-78102803D01*
X48473192Y-78181852D01*
X48473199Y-78181856D01*
X48625926Y-78222779D01*
X48625928Y-78222779D01*
X48784038Y-78222779D01*
X48784040Y-78222779D01*
X48936767Y-78181856D01*
X49073699Y-78102799D01*
X49185503Y-77990995D01*
X49264560Y-77854063D01*
X49305483Y-77701336D01*
X49305483Y-77543222D01*
X49264560Y-77390495D01*
X49222826Y-77318209D01*
X49185507Y-77253569D01*
X49185501Y-77253561D01*
X49175882Y-77243942D01*
X49162536Y-77219501D01*
X49146383Y-77196817D01*
X49146022Y-77189259D01*
X49142397Y-77182619D01*
X49144383Y-77154844D01*
X49143058Y-77127026D01*
X49147093Y-77116946D01*
X49147381Y-77112927D01*
X49156176Y-77094261D01*
X49157816Y-77091419D01*
X49157818Y-77091418D01*
X49164483Y-77079872D01*
X49215050Y-77031657D01*
X49283657Y-77018435D01*
X49348522Y-77044403D01*
X49359551Y-77054192D01*
X49464143Y-77158784D01*
X49464145Y-77158785D01*
X49464149Y-77158788D01*
X49569309Y-77219501D01*
X49601075Y-77237841D01*
X49753802Y-77278764D01*
X49753804Y-77278764D01*
X49911914Y-77278764D01*
X49911916Y-77278764D01*
X50064643Y-77237841D01*
X50201575Y-77158784D01*
X50313379Y-77046980D01*
X50392436Y-76910048D01*
X50433359Y-76757321D01*
X50433359Y-76599207D01*
X50403726Y-76488615D01*
X50404536Y-76454582D01*
X50404846Y-76420509D01*
X50405366Y-76419715D01*
X50405389Y-76418768D01*
X50424487Y-76390549D01*
X50443154Y-76362077D01*
X50444018Y-76361691D01*
X50444551Y-76360905D01*
X50475880Y-76347489D01*
X50506970Y-76333631D01*
X50508156Y-76333668D01*
X50508780Y-76333401D01*
X50542263Y-76333952D01*
X50544990Y-76334369D01*
X50626082Y-76350500D01*
X50650371Y-76350500D01*
X50659700Y-76351928D01*
X50662800Y-76353378D01*
X50673031Y-76354725D01*
X50687674Y-76358648D01*
X50750565Y-76375500D01*
X50750567Y-76375500D01*
X50849432Y-76375500D01*
X50849435Y-76375500D01*
X50944938Y-76349910D01*
X51030562Y-76300475D01*
X51078382Y-76252654D01*
X51097156Y-76237245D01*
X51178416Y-76182951D01*
X51282951Y-76078416D01*
X51365084Y-75955495D01*
X51421658Y-75818913D01*
X51438725Y-75733114D01*
X51450500Y-75673920D01*
X51450500Y-75526079D01*
X51421659Y-75381092D01*
X51421658Y-75381091D01*
X51421658Y-75381087D01*
X51414665Y-75364205D01*
X51365087Y-75244511D01*
X51365080Y-75244498D01*
X51282951Y-75121584D01*
X51282948Y-75121580D01*
X51178419Y-75017051D01*
X51178415Y-75017048D01*
X51055501Y-74934919D01*
X51055491Y-74934914D01*
X51006772Y-74914734D01*
X50952369Y-74870893D01*
X50930304Y-74804599D01*
X50946843Y-74738165D01*
X50950247Y-74732269D01*
X50950248Y-74732268D01*
X50991171Y-74579541D01*
X50991171Y-74421427D01*
X50950248Y-74268700D01*
X50911784Y-74202078D01*
X50871195Y-74131774D01*
X50871192Y-74131770D01*
X50871191Y-74131768D01*
X50785818Y-74046395D01*
X50752334Y-73985071D01*
X50749500Y-73958714D01*
X50749500Y-67082898D01*
X50769185Y-67015859D01*
X50785814Y-66995222D01*
X51957819Y-65823216D01*
X52019140Y-65789733D01*
X52069686Y-65789282D01*
X52126082Y-65800500D01*
X52273920Y-65800500D01*
X52395315Y-65776352D01*
X52418913Y-65771658D01*
X52555495Y-65715084D01*
X52678416Y-65632951D01*
X52782951Y-65528416D01*
X52865084Y-65405495D01*
X52867965Y-65398541D01*
X52908574Y-65300500D01*
X52921658Y-65268913D01*
X52939283Y-65180309D01*
X52950500Y-65123920D01*
X52950500Y-64976079D01*
X52921659Y-64831092D01*
X52921658Y-64831091D01*
X52921658Y-64831087D01*
X52900107Y-64779057D01*
X52894526Y-64765583D01*
X52885087Y-64718131D01*
X52885087Y-63155651D01*
X52904772Y-63088612D01*
X52921406Y-63067970D01*
X52990107Y-62999269D01*
X53069164Y-62862337D01*
X53080725Y-62819187D01*
X53117090Y-62759528D01*
X53179937Y-62728999D01*
X53249312Y-62737294D01*
X53303190Y-62781779D01*
X53324465Y-62848331D01*
X53324500Y-62851282D01*
X53324500Y-65926967D01*
X53304815Y-65994006D01*
X53252011Y-66039761D01*
X53182853Y-66049705D01*
X53168408Y-66046742D01*
X53104058Y-66029500D01*
X53104057Y-66029500D01*
X52945943Y-66029500D01*
X52793216Y-66070423D01*
X52793209Y-66070426D01*
X52656290Y-66149475D01*
X52656282Y-66149481D01*
X52544481Y-66261282D01*
X52544475Y-66261290D01*
X52465426Y-66398209D01*
X52465423Y-66398216D01*
X52424500Y-66550943D01*
X52424500Y-66709057D01*
X52463464Y-66854471D01*
X52465423Y-66861783D01*
X52465426Y-66861790D01*
X52544475Y-66998709D01*
X52544481Y-66998717D01*
X52613181Y-67067417D01*
X52646666Y-67128740D01*
X52649500Y-67155098D01*
X52649500Y-71529031D01*
X52675090Y-71624534D01*
X52675091Y-71624535D01*
X52675091Y-71624536D01*
X52724526Y-71710159D01*
X53801376Y-72787010D01*
X53821082Y-72812691D01*
X53894477Y-72939816D01*
X53894479Y-72939819D01*
X53894480Y-72939820D01*
X54006284Y-73051624D01*
X54006286Y-73051625D01*
X54006290Y-73051628D01*
X54143209Y-73130677D01*
X54143216Y-73130681D01*
X54295943Y-73171604D01*
X54295945Y-73171604D01*
X54454055Y-73171604D01*
X54454057Y-73171604D01*
X54606784Y-73130681D01*
X54743716Y-73051624D01*
X54855520Y-72939820D01*
X54934577Y-72802888D01*
X54975500Y-72650161D01*
X54975500Y-72492047D01*
X54934577Y-72339320D01*
X54915369Y-72306051D01*
X54855524Y-72202394D01*
X54855518Y-72202386D01*
X54793793Y-72140661D01*
X54760308Y-72079338D01*
X54765292Y-72009646D01*
X54807164Y-71953713D01*
X54819474Y-71945593D01*
X54824982Y-71942412D01*
X54824985Y-71942412D01*
X54950515Y-71869937D01*
X55053009Y-71767443D01*
X55108723Y-71670943D01*
X58824500Y-71670943D01*
X58824500Y-71829057D01*
X58862428Y-71970604D01*
X58865423Y-71981783D01*
X58865426Y-71981790D01*
X58944475Y-72118709D01*
X58944479Y-72118714D01*
X58944480Y-72118716D01*
X59056284Y-72230520D01*
X59099527Y-72255486D01*
X59147742Y-72306051D01*
X59160967Y-72374658D01*
X59135000Y-72439523D01*
X59125210Y-72450554D01*
X59011978Y-72563786D01*
X59011975Y-72563790D01*
X58932926Y-72700709D01*
X58932923Y-72700716D01*
X58892000Y-72853443D01*
X58892000Y-73011557D01*
X58902736Y-73051622D01*
X58932923Y-73164283D01*
X58932926Y-73164290D01*
X59011975Y-73301209D01*
X59011979Y-73301214D01*
X59011980Y-73301216D01*
X59123784Y-73413020D01*
X59123786Y-73413021D01*
X59123790Y-73413024D01*
X59260709Y-73492073D01*
X59260716Y-73492077D01*
X59413443Y-73533000D01*
X59413445Y-73533000D01*
X59571555Y-73533000D01*
X59571557Y-73533000D01*
X59724284Y-73492077D01*
X59861216Y-73413020D01*
X59973020Y-73301216D01*
X60052077Y-73164284D01*
X60093000Y-73011557D01*
X60093000Y-72999500D01*
X60112685Y-72932461D01*
X60165489Y-72886706D01*
X60217000Y-72875500D01*
X69924435Y-72875500D01*
X69924436Y-72875500D01*
X69972186Y-72862705D01*
X70019938Y-72849910D01*
X70105562Y-72800475D01*
X70175475Y-72730562D01*
X72794217Y-70111818D01*
X72855540Y-70078334D01*
X72881898Y-70075500D01*
X74282003Y-70075500D01*
X74349042Y-70095185D01*
X74385105Y-70130609D01*
X74417048Y-70178415D01*
X74417051Y-70178419D01*
X74521580Y-70282948D01*
X74521584Y-70282951D01*
X74644498Y-70365080D01*
X74644511Y-70365087D01*
X74781082Y-70421656D01*
X74781087Y-70421658D01*
X74781091Y-70421658D01*
X74781092Y-70421659D01*
X74926079Y-70450500D01*
X74926082Y-70450500D01*
X75073920Y-70450500D01*
X75193616Y-70426690D01*
X75218913Y-70421658D01*
X75355495Y-70365084D01*
X75478416Y-70282951D01*
X75582951Y-70178416D01*
X75665084Y-70055495D01*
X75721658Y-69918913D01*
X75743408Y-69809573D01*
X75750500Y-69773920D01*
X75750500Y-69626079D01*
X75721659Y-69481092D01*
X75721658Y-69481091D01*
X75721658Y-69481087D01*
X75716324Y-69468209D01*
X75665087Y-69344511D01*
X75665080Y-69344498D01*
X75582951Y-69221584D01*
X75582948Y-69221580D01*
X75478419Y-69117051D01*
X75478415Y-69117048D01*
X75355501Y-69034919D01*
X75355488Y-69034912D01*
X75218917Y-68978343D01*
X75218907Y-68978340D01*
X75073920Y-68949500D01*
X75073918Y-68949500D01*
X74926082Y-68949500D01*
X74926080Y-68949500D01*
X74781092Y-68978340D01*
X74781082Y-68978343D01*
X74644511Y-69034912D01*
X74644498Y-69034919D01*
X74521584Y-69117048D01*
X74521580Y-69117051D01*
X74417051Y-69221580D01*
X74417048Y-69221584D01*
X74385105Y-69269391D01*
X74331493Y-69314196D01*
X74282003Y-69324500D01*
X73880899Y-69324500D01*
X73813860Y-69304815D01*
X73768105Y-69252011D01*
X73758161Y-69182853D01*
X73787186Y-69119297D01*
X73793218Y-69112819D01*
X75881718Y-67024319D01*
X75943041Y-66990834D01*
X75969399Y-66988000D01*
X76066555Y-66988000D01*
X76066557Y-66988000D01*
X76219284Y-66947077D01*
X76356216Y-66868020D01*
X76468020Y-66756216D01*
X76547077Y-66619284D01*
X76588000Y-66466557D01*
X76588000Y-66308443D01*
X76547077Y-66155716D01*
X76507115Y-66086499D01*
X76490643Y-66018599D01*
X76513496Y-65952572D01*
X76568418Y-65909382D01*
X76614503Y-65900500D01*
X76679055Y-65900500D01*
X76679057Y-65900500D01*
X76831784Y-65859577D01*
X76968716Y-65780520D01*
X77080520Y-65668716D01*
X77159577Y-65531784D01*
X77200500Y-65379057D01*
X77200500Y-65220943D01*
X77159577Y-65068216D01*
X77108101Y-64979056D01*
X77080524Y-64931290D01*
X77080518Y-64931282D01*
X76968717Y-64819481D01*
X76968709Y-64819475D01*
X76831790Y-64740426D01*
X76831786Y-64740424D01*
X76831784Y-64740423D01*
X76679057Y-64699500D01*
X76520943Y-64699500D01*
X76368216Y-64740423D01*
X76368209Y-64740426D01*
X76231290Y-64819475D01*
X76231282Y-64819481D01*
X76162583Y-64888181D01*
X76101260Y-64921666D01*
X76074902Y-64924500D01*
X75925564Y-64924500D01*
X75877812Y-64937295D01*
X75877811Y-64937294D01*
X75830063Y-64950089D01*
X75830062Y-64950089D01*
X75744435Y-64999527D01*
X72937181Y-67806782D01*
X72875858Y-67840267D01*
X72806166Y-67835283D01*
X72750233Y-67793411D01*
X72725816Y-67727947D01*
X72725500Y-67719101D01*
X72725500Y-67117996D01*
X72745185Y-67050957D01*
X72780611Y-67014893D01*
X72804832Y-66998709D01*
X72828416Y-66982951D01*
X72932951Y-66878416D01*
X73015084Y-66755495D01*
X73071658Y-66618913D01*
X73086969Y-66541941D01*
X73100500Y-66473920D01*
X73100500Y-66326079D01*
X73071659Y-66181092D01*
X73071658Y-66181091D01*
X73071658Y-66181087D01*
X73071656Y-66181082D01*
X73015087Y-66044511D01*
X73015080Y-66044498D01*
X72932951Y-65921584D01*
X72932948Y-65921580D01*
X72828419Y-65817051D01*
X72828415Y-65817048D01*
X72705501Y-65734919D01*
X72705488Y-65734912D01*
X72568917Y-65678343D01*
X72568907Y-65678340D01*
X72423920Y-65649500D01*
X72423918Y-65649500D01*
X72276082Y-65649500D01*
X72276080Y-65649500D01*
X72131092Y-65678340D01*
X72131082Y-65678343D01*
X71994511Y-65734912D01*
X71994498Y-65734919D01*
X71871584Y-65817048D01*
X71808831Y-65879801D01*
X71747507Y-65913285D01*
X71677816Y-65908300D01*
X71621882Y-65866429D01*
X71601375Y-65824212D01*
X71600500Y-65820946D01*
X71600500Y-65820943D01*
X71559577Y-65668216D01*
X71559450Y-65667996D01*
X71480524Y-65531290D01*
X71480518Y-65531282D01*
X71411819Y-65462583D01*
X71378334Y-65401260D01*
X71375500Y-65374902D01*
X71375500Y-61684950D01*
X71395185Y-61617911D01*
X71447989Y-61572156D01*
X71517147Y-61562212D01*
X71580703Y-61591237D01*
X71618477Y-61650015D01*
X71619275Y-61652857D01*
X71640423Y-61731783D01*
X71640426Y-61731790D01*
X71719475Y-61868709D01*
X71719479Y-61868714D01*
X71719480Y-61868716D01*
X71831284Y-61980520D01*
X71831286Y-61980521D01*
X71831290Y-61980524D01*
X71968209Y-62059573D01*
X71968216Y-62059577D01*
X72120943Y-62100500D01*
X72120945Y-62100500D01*
X72279055Y-62100500D01*
X72279057Y-62100500D01*
X72431784Y-62059577D01*
X72568716Y-61980520D01*
X72680520Y-61868716D01*
X72759577Y-61731784D01*
X72800500Y-61579057D01*
X72800500Y-61420943D01*
X72759577Y-61268216D01*
X72759573Y-61268209D01*
X72680524Y-61131290D01*
X72680518Y-61131282D01*
X72611819Y-61062583D01*
X72578334Y-61001260D01*
X72575500Y-60974902D01*
X72575500Y-57550567D01*
X72575500Y-57550565D01*
X72549910Y-57455062D01*
X72500475Y-57369438D01*
X72430562Y-57299525D01*
X71636819Y-56505782D01*
X71603334Y-56444459D01*
X71600500Y-56418101D01*
X71600500Y-56320945D01*
X71600500Y-56320943D01*
X71559577Y-56168216D01*
X71553942Y-56158456D01*
X71480524Y-56031290D01*
X71480518Y-56031282D01*
X71368717Y-55919481D01*
X71368709Y-55919475D01*
X71231790Y-55840426D01*
X71231786Y-55840424D01*
X71231784Y-55840423D01*
X71079057Y-55799500D01*
X70920943Y-55799500D01*
X70768216Y-55840423D01*
X70768209Y-55840426D01*
X70631290Y-55919475D01*
X70631282Y-55919481D01*
X70519481Y-56031282D01*
X70519475Y-56031290D01*
X70440426Y-56168209D01*
X70440423Y-56168214D01*
X70414335Y-56265578D01*
X70377969Y-56325238D01*
X70315122Y-56355767D01*
X70245747Y-56347472D01*
X70232560Y-56340871D01*
X70231786Y-56340424D01*
X70231785Y-56340423D01*
X70231784Y-56340423D01*
X70079057Y-56299500D01*
X69920943Y-56299500D01*
X69768216Y-56340423D01*
X69768209Y-56340426D01*
X69631290Y-56419475D01*
X69631282Y-56419481D01*
X69519481Y-56531282D01*
X69519475Y-56531290D01*
X69440426Y-56668209D01*
X69440423Y-56668214D01*
X69414335Y-56765578D01*
X69377969Y-56825238D01*
X69315122Y-56855767D01*
X69245747Y-56847472D01*
X69232560Y-56840871D01*
X69231786Y-56840424D01*
X69231785Y-56840423D01*
X69231784Y-56840423D01*
X69079057Y-56799500D01*
X68920943Y-56799500D01*
X68768216Y-56840423D01*
X68768209Y-56840426D01*
X68631290Y-56919475D01*
X68631282Y-56919481D01*
X68519481Y-57031282D01*
X68519475Y-57031290D01*
X68440426Y-57168209D01*
X68440423Y-57168216D01*
X68399500Y-57320943D01*
X68399500Y-57479057D01*
X68418661Y-57550565D01*
X68440423Y-57631783D01*
X68440426Y-57631790D01*
X68519475Y-57768709D01*
X68519479Y-57768714D01*
X68519480Y-57768716D01*
X68631284Y-57880520D01*
X68631286Y-57880521D01*
X68631290Y-57880524D01*
X68750762Y-57949500D01*
X68768216Y-57959577D01*
X68920943Y-58000500D01*
X69018101Y-58000500D01*
X69085140Y-58020185D01*
X69105782Y-58036819D01*
X69588181Y-58519218D01*
X69621666Y-58580541D01*
X69624500Y-58606899D01*
X69624500Y-64174902D01*
X69604815Y-64241941D01*
X69588181Y-64262583D01*
X69519481Y-64331282D01*
X69519475Y-64331290D01*
X69440426Y-64468209D01*
X69440423Y-64468216D01*
X69399500Y-64620943D01*
X69399500Y-64779057D01*
X69440289Y-64931282D01*
X69440423Y-64931783D01*
X69440426Y-64931790D01*
X69519475Y-65068709D01*
X69519479Y-65068714D01*
X69519480Y-65068716D01*
X69631284Y-65180520D01*
X69631286Y-65180521D01*
X69631290Y-65180524D01*
X69768209Y-65259573D01*
X69768216Y-65259577D01*
X69920943Y-65300500D01*
X69920945Y-65300500D01*
X70079055Y-65300500D01*
X70079057Y-65300500D01*
X70231784Y-65259577D01*
X70368716Y-65180520D01*
X70412819Y-65136417D01*
X70432255Y-65125804D01*
X70448989Y-65111304D01*
X70462320Y-65109387D01*
X70474142Y-65102932D01*
X70496228Y-65104511D01*
X70518147Y-65101360D01*
X70530398Y-65106955D01*
X70543834Y-65107916D01*
X70561560Y-65121186D01*
X70581703Y-65130385D01*
X70588985Y-65141716D01*
X70599767Y-65149788D01*
X70607504Y-65170533D01*
X70619477Y-65189163D01*
X70622628Y-65211081D01*
X70624184Y-65215252D01*
X70624500Y-65224098D01*
X70624500Y-65374902D01*
X70604815Y-65441941D01*
X70588181Y-65462583D01*
X70519481Y-65531282D01*
X70519475Y-65531290D01*
X70440426Y-65668209D01*
X70440423Y-65668216D01*
X70399500Y-65820943D01*
X70399500Y-65979057D01*
X70431261Y-66097589D01*
X70440423Y-66131783D01*
X70440426Y-66131790D01*
X70519475Y-66268709D01*
X70519479Y-66268714D01*
X70519480Y-66268716D01*
X70631284Y-66380520D01*
X70631286Y-66380521D01*
X70631290Y-66380524D01*
X70763688Y-66456963D01*
X70768216Y-66459577D01*
X70920943Y-66500500D01*
X70920945Y-66500500D01*
X71079055Y-66500500D01*
X71079057Y-66500500D01*
X71231784Y-66459577D01*
X71368716Y-66380520D01*
X71387819Y-66361417D01*
X71449142Y-66327932D01*
X71518834Y-66332916D01*
X71574767Y-66374788D01*
X71599184Y-66440252D01*
X71599500Y-66449098D01*
X71599500Y-66473918D01*
X71599500Y-66473920D01*
X71599499Y-66473920D01*
X71628340Y-66618907D01*
X71628343Y-66618917D01*
X71684912Y-66755488D01*
X71684919Y-66755501D01*
X71767048Y-66878415D01*
X71767051Y-66878419D01*
X71871580Y-66982948D01*
X71871585Y-66982952D01*
X71919389Y-67014893D01*
X71964195Y-67068505D01*
X71974500Y-67117996D01*
X71974500Y-68718101D01*
X71954815Y-68785140D01*
X71938181Y-68805782D01*
X69405782Y-71338181D01*
X69344459Y-71371666D01*
X69318101Y-71374500D01*
X64582936Y-71374500D01*
X64515897Y-71354815D01*
X64470142Y-71302011D01*
X64460198Y-71232853D01*
X64463161Y-71218407D01*
X64465277Y-71210511D01*
X64500500Y-71079057D01*
X64500500Y-70920943D01*
X64459577Y-70768216D01*
X64418764Y-70697525D01*
X64380524Y-70631290D01*
X64380518Y-70631282D01*
X64311819Y-70562583D01*
X64278334Y-70501260D01*
X64275500Y-70474902D01*
X64275500Y-65505929D01*
X64295185Y-65438890D01*
X64337502Y-65398541D01*
X64339237Y-65397538D01*
X64368716Y-65380520D01*
X64480520Y-65268716D01*
X64559577Y-65131784D01*
X64600500Y-64979057D01*
X64600500Y-64820943D01*
X64559577Y-64668216D01*
X64517024Y-64594511D01*
X64480524Y-64531290D01*
X64480518Y-64531282D01*
X64368717Y-64419481D01*
X64368709Y-64419475D01*
X64231790Y-64340426D01*
X64231786Y-64340424D01*
X64231784Y-64340423D01*
X64079057Y-64299500D01*
X63920943Y-64299500D01*
X63768216Y-64340423D01*
X63768209Y-64340426D01*
X63631290Y-64419475D01*
X63631282Y-64419481D01*
X63519481Y-64531282D01*
X63519475Y-64531290D01*
X63440426Y-64668209D01*
X63440423Y-64668216D01*
X63399500Y-64820943D01*
X63399500Y-64979057D01*
X63438316Y-65123918D01*
X63440423Y-65131783D01*
X63440424Y-65131786D01*
X63468439Y-65180309D01*
X63491898Y-65220943D01*
X63507887Y-65248636D01*
X63524500Y-65310636D01*
X63524500Y-70474902D01*
X63504815Y-70541941D01*
X63488181Y-70562583D01*
X63419481Y-70631282D01*
X63419475Y-70631290D01*
X63340426Y-70768209D01*
X63340423Y-70768216D01*
X63299500Y-70920943D01*
X63299500Y-71079057D01*
X63334722Y-71210509D01*
X63336839Y-71218407D01*
X63335176Y-71288256D01*
X63296014Y-71346119D01*
X63231785Y-71373623D01*
X63217064Y-71374500D01*
X59950098Y-71374500D01*
X59883059Y-71354815D01*
X59862417Y-71338181D01*
X59793717Y-71269481D01*
X59793709Y-71269475D01*
X59656790Y-71190426D01*
X59656786Y-71190424D01*
X59656784Y-71190423D01*
X59504057Y-71149500D01*
X59345943Y-71149500D01*
X59193216Y-71190423D01*
X59193209Y-71190426D01*
X59056290Y-71269475D01*
X59056282Y-71269481D01*
X58944481Y-71381282D01*
X58944475Y-71381290D01*
X58865426Y-71518209D01*
X58865423Y-71518216D01*
X58824500Y-71670943D01*
X55108723Y-71670943D01*
X55125484Y-71641913D01*
X55163000Y-71501903D01*
X55163000Y-71433584D01*
X55164908Y-71422833D01*
X55175794Y-71400928D01*
X55182685Y-71377461D01*
X55191066Y-71370198D01*
X55196003Y-71360265D01*
X55217005Y-71347721D01*
X55235489Y-71331706D01*
X55248599Y-71328853D01*
X55255990Y-71324440D01*
X55267196Y-71324808D01*
X55287000Y-71320500D01*
X55297472Y-71320500D01*
X55297475Y-71320500D01*
X55437485Y-71282984D01*
X55563015Y-71210509D01*
X55665509Y-71108015D01*
X55737984Y-70982485D01*
X55775500Y-70842475D01*
X55775500Y-70697525D01*
X55737984Y-70557515D01*
X55736844Y-70555541D01*
X55665511Y-70431988D01*
X55665506Y-70431982D01*
X55563017Y-70329493D01*
X55563011Y-70329488D01*
X55437488Y-70257017D01*
X55437489Y-70257017D01*
X55426006Y-70253940D01*
X55297475Y-70219500D01*
X55297472Y-70219500D01*
X55256900Y-70219500D01*
X55189861Y-70199815D01*
X55169219Y-70183181D01*
X54785819Y-69799781D01*
X54752334Y-69738458D01*
X54749500Y-69712100D01*
X54749500Y-69352764D01*
X54769185Y-69285725D01*
X54821989Y-69239970D01*
X54891147Y-69230026D01*
X54905580Y-69232986D01*
X54970943Y-69250500D01*
X54970946Y-69250500D01*
X55129055Y-69250500D01*
X55129057Y-69250500D01*
X55281784Y-69209577D01*
X55418716Y-69130520D01*
X55487417Y-69061819D01*
X55548740Y-69028334D01*
X55575098Y-69025500D01*
X56893101Y-69025500D01*
X56922541Y-69034144D01*
X56952528Y-69040668D01*
X56957543Y-69044422D01*
X56960140Y-69045185D01*
X56980782Y-69061819D01*
X57063181Y-69144218D01*
X57096666Y-69205541D01*
X57099500Y-69231899D01*
X57099500Y-69329057D01*
X57140237Y-69481087D01*
X57140423Y-69481783D01*
X57140426Y-69481790D01*
X57219475Y-69618709D01*
X57219479Y-69618714D01*
X57219480Y-69618716D01*
X57331284Y-69730520D01*
X57331286Y-69730521D01*
X57331290Y-69730524D01*
X57468209Y-69809573D01*
X57468216Y-69809577D01*
X57620943Y-69850500D01*
X57620945Y-69850500D01*
X57779055Y-69850500D01*
X57779057Y-69850500D01*
X57931784Y-69809577D01*
X58068716Y-69730520D01*
X58180520Y-69618716D01*
X58259577Y-69481784D01*
X58300500Y-69329057D01*
X58300500Y-69170943D01*
X58259577Y-69018216D01*
X58259573Y-69018209D01*
X58180524Y-68881290D01*
X58180518Y-68881282D01*
X58086819Y-68787583D01*
X58053334Y-68726260D01*
X58050500Y-68699902D01*
X58050500Y-67734701D01*
X58070185Y-67667662D01*
X58105610Y-67631599D01*
X58154487Y-67598939D01*
X58178416Y-67582951D01*
X58282951Y-67478416D01*
X58365084Y-67355495D01*
X58421658Y-67218913D01*
X58444674Y-67103207D01*
X58450500Y-67073920D01*
X58450500Y-66926079D01*
X58449478Y-66920943D01*
X59699500Y-66920943D01*
X59699500Y-67079057D01*
X59738120Y-67223187D01*
X59740423Y-67231783D01*
X59740426Y-67231790D01*
X59819475Y-67368709D01*
X59819479Y-67368714D01*
X59819480Y-67368716D01*
X59931284Y-67480520D01*
X59931286Y-67480521D01*
X59931290Y-67480524D01*
X60068209Y-67559573D01*
X60068216Y-67559577D01*
X60220943Y-67600500D01*
X60220945Y-67600500D01*
X60379055Y-67600500D01*
X60379057Y-67600500D01*
X60531784Y-67559577D01*
X60668716Y-67480520D01*
X60780520Y-67368716D01*
X60859577Y-67231784D01*
X60900500Y-67079057D01*
X60900500Y-66920943D01*
X60859577Y-66768216D01*
X60859573Y-66768209D01*
X60780524Y-66631290D01*
X60780518Y-66631282D01*
X60711819Y-66562583D01*
X60678334Y-66501260D01*
X60675500Y-66474902D01*
X60675500Y-64706899D01*
X60695185Y-64639860D01*
X60711819Y-64619218D01*
X64344218Y-60986819D01*
X64405541Y-60953334D01*
X64431899Y-60950500D01*
X64529055Y-60950500D01*
X64529057Y-60950500D01*
X64681784Y-60909577D01*
X64818716Y-60830520D01*
X64930520Y-60718716D01*
X65009577Y-60581784D01*
X65050500Y-60429057D01*
X65050500Y-60270943D01*
X65009577Y-60118216D01*
X65009573Y-60118209D01*
X64930524Y-59981290D01*
X64930518Y-59981282D01*
X64818717Y-59869481D01*
X64818709Y-59869475D01*
X64681790Y-59790426D01*
X64681786Y-59790424D01*
X64681784Y-59790423D01*
X64529057Y-59749500D01*
X64370943Y-59749500D01*
X64218216Y-59790423D01*
X64218209Y-59790426D01*
X64081290Y-59869475D01*
X64081282Y-59869481D01*
X63969481Y-59981282D01*
X63969475Y-59981290D01*
X63890426Y-60118209D01*
X63890423Y-60118216D01*
X63849500Y-60270943D01*
X63849500Y-60368101D01*
X63829815Y-60435140D01*
X63813181Y-60455782D01*
X59999526Y-64269436D01*
X59950091Y-64355059D01*
X59950091Y-64355060D01*
X59950090Y-64355062D01*
X59924500Y-64450565D01*
X59924500Y-64450567D01*
X59924500Y-66474902D01*
X59904815Y-66541941D01*
X59888181Y-66562583D01*
X59819481Y-66631282D01*
X59819475Y-66631290D01*
X59740426Y-66768209D01*
X59740423Y-66768216D01*
X59699500Y-66920943D01*
X58449478Y-66920943D01*
X58421659Y-66781092D01*
X58421658Y-66781091D01*
X58421658Y-66781087D01*
X58411060Y-66755501D01*
X58365087Y-66644511D01*
X58365080Y-66644498D01*
X58282951Y-66521584D01*
X58282948Y-66521580D01*
X58178419Y-66417051D01*
X58178415Y-66417048D01*
X58055501Y-66334919D01*
X58055488Y-66334912D01*
X57918917Y-66278343D01*
X57918907Y-66278340D01*
X57773920Y-66249500D01*
X57773918Y-66249500D01*
X57626082Y-66249500D01*
X57626080Y-66249500D01*
X57481092Y-66278340D01*
X57481082Y-66278343D01*
X57344511Y-66334912D01*
X57344493Y-66334922D01*
X57318390Y-66352364D01*
X57251713Y-66373242D01*
X57184333Y-66354757D01*
X57137643Y-66302778D01*
X57125500Y-66249262D01*
X57125500Y-65667996D01*
X57145185Y-65600957D01*
X57180611Y-65564893D01*
X57228416Y-65532951D01*
X57332951Y-65428416D01*
X57415084Y-65305495D01*
X57471658Y-65168913D01*
X57484783Y-65102932D01*
X57500500Y-65023920D01*
X57500500Y-64876079D01*
X57471659Y-64731092D01*
X57471658Y-64731091D01*
X57471658Y-64731087D01*
X57471656Y-64731082D01*
X57415087Y-64594511D01*
X57415080Y-64594498D01*
X57332951Y-64471584D01*
X57332948Y-64471580D01*
X57228419Y-64367051D01*
X57228415Y-64367048D01*
X57105501Y-64284919D01*
X57105488Y-64284912D01*
X56968917Y-64228343D01*
X56968907Y-64228340D01*
X56823920Y-64199500D01*
X56823918Y-64199500D01*
X56676082Y-64199500D01*
X56676080Y-64199500D01*
X56531092Y-64228340D01*
X56531082Y-64228343D01*
X56394511Y-64284912D01*
X56394498Y-64284919D01*
X56271584Y-64367048D01*
X56271580Y-64367051D01*
X56167051Y-64471580D01*
X56167048Y-64471584D01*
X56084919Y-64594498D01*
X56084912Y-64594511D01*
X56028343Y-64731082D01*
X56028340Y-64731092D01*
X55999500Y-64876079D01*
X55999500Y-64876082D01*
X55999500Y-65023918D01*
X55999500Y-65023920D01*
X55999499Y-65023920D01*
X56028340Y-65168907D01*
X56028343Y-65168917D01*
X56084912Y-65305488D01*
X56084919Y-65305501D01*
X56167048Y-65428415D01*
X56167051Y-65428419D01*
X56271580Y-65532948D01*
X56271585Y-65532952D01*
X56319389Y-65564893D01*
X56364195Y-65618505D01*
X56374500Y-65667996D01*
X56374500Y-66852011D01*
X56354815Y-66919050D01*
X56302011Y-66964805D01*
X56232853Y-66974749D01*
X56203051Y-66966574D01*
X56155966Y-66947073D01*
X56101186Y-66924384D01*
X56101182Y-66924383D01*
X56101181Y-66924382D01*
X55976086Y-66899500D01*
X55976082Y-66899500D01*
X55961737Y-66899500D01*
X55575098Y-66899500D01*
X55508059Y-66879815D01*
X55487417Y-66863181D01*
X55418717Y-66794481D01*
X55418709Y-66794475D01*
X55281790Y-66715426D01*
X55281786Y-66715424D01*
X55281784Y-66715423D01*
X55129057Y-66674500D01*
X54970943Y-66674500D01*
X54970941Y-66674500D01*
X54905592Y-66692010D01*
X54835742Y-66690347D01*
X54777880Y-66651184D01*
X54750377Y-66586955D01*
X54749500Y-66572235D01*
X54749500Y-63023920D01*
X55149499Y-63023920D01*
X55178340Y-63168907D01*
X55178343Y-63168917D01*
X55234912Y-63305488D01*
X55234919Y-63305501D01*
X55317048Y-63428415D01*
X55317051Y-63428419D01*
X55421580Y-63532948D01*
X55421584Y-63532951D01*
X55544498Y-63615080D01*
X55544511Y-63615087D01*
X55681082Y-63671656D01*
X55681087Y-63671658D01*
X55681091Y-63671658D01*
X55681092Y-63671659D01*
X55826079Y-63700500D01*
X55826082Y-63700500D01*
X55973920Y-63700500D01*
X56071462Y-63681096D01*
X56118913Y-63671658D01*
X56255495Y-63615084D01*
X56378416Y-63532951D01*
X56482951Y-63428416D01*
X56565084Y-63305495D01*
X56621658Y-63168913D01*
X56637631Y-63088612D01*
X56650500Y-63023920D01*
X56650500Y-62876079D01*
X56621659Y-62731092D01*
X56621658Y-62731091D01*
X56621658Y-62731087D01*
X56612762Y-62709609D01*
X56565087Y-62594511D01*
X56565080Y-62594498D01*
X56482951Y-62471584D01*
X56482948Y-62471580D01*
X56378419Y-62367051D01*
X56378413Y-62367046D01*
X56330608Y-62335103D01*
X56325518Y-62329012D01*
X56318297Y-62325715D01*
X56303432Y-62302585D01*
X56285803Y-62281490D01*
X56283851Y-62272116D01*
X56280523Y-62266937D01*
X56275500Y-62232002D01*
X56275500Y-62081064D01*
X56295185Y-62014025D01*
X56311819Y-61993383D01*
X56329717Y-61975485D01*
X56389469Y-61915733D01*
X56468526Y-61778801D01*
X56509449Y-61626074D01*
X56509449Y-61467960D01*
X56468526Y-61315233D01*
X56441377Y-61268209D01*
X56389473Y-61178307D01*
X56389467Y-61178299D01*
X56277666Y-61066498D01*
X56277658Y-61066492D01*
X56140739Y-60987443D01*
X56140735Y-60987441D01*
X56140733Y-60987440D01*
X55988006Y-60946517D01*
X55829892Y-60946517D01*
X55677165Y-60987440D01*
X55677158Y-60987443D01*
X55540239Y-61066492D01*
X55540231Y-61066498D01*
X55428430Y-61178299D01*
X55428424Y-61178307D01*
X55349375Y-61315226D01*
X55349372Y-61315233D01*
X55308449Y-61467960D01*
X55308449Y-61626074D01*
X55336776Y-61731790D01*
X55349372Y-61778800D01*
X55349375Y-61778807D01*
X55428424Y-61915726D01*
X55428430Y-61915734D01*
X55488181Y-61975485D01*
X55502884Y-62002412D01*
X55519477Y-62028231D01*
X55520368Y-62034431D01*
X55521666Y-62036808D01*
X55524500Y-62063166D01*
X55524500Y-62232002D01*
X55504815Y-62299041D01*
X55469392Y-62335103D01*
X55421586Y-62367046D01*
X55421580Y-62367051D01*
X55317051Y-62471580D01*
X55317048Y-62471584D01*
X55234919Y-62594498D01*
X55234912Y-62594511D01*
X55178343Y-62731082D01*
X55178340Y-62731092D01*
X55149500Y-62876079D01*
X55149500Y-62876082D01*
X55149500Y-63023918D01*
X55149500Y-63023920D01*
X55149499Y-63023920D01*
X54749500Y-63023920D01*
X54749500Y-61132899D01*
X54769185Y-61065860D01*
X54785819Y-61045218D01*
X58589219Y-57241819D01*
X58650542Y-57208334D01*
X58676900Y-57205500D01*
X61884902Y-57205500D01*
X61951941Y-57225185D01*
X61972583Y-57241819D01*
X62041284Y-57310520D01*
X62041286Y-57310521D01*
X62041290Y-57310524D01*
X62142071Y-57368709D01*
X62178216Y-57389577D01*
X62330943Y-57430500D01*
X62330945Y-57430500D01*
X62489055Y-57430500D01*
X62489057Y-57430500D01*
X62641784Y-57389577D01*
X62778716Y-57310520D01*
X62890520Y-57198716D01*
X62969577Y-57061784D01*
X63010500Y-56909057D01*
X63010500Y-56750943D01*
X62969577Y-56598216D01*
X62924119Y-56519480D01*
X62890524Y-56461290D01*
X62890518Y-56461282D01*
X62778717Y-56349481D01*
X62778709Y-56349475D01*
X62641790Y-56270426D01*
X62641786Y-56270424D01*
X62641784Y-56270423D01*
X62489057Y-56229500D01*
X62330943Y-56229500D01*
X62178216Y-56270423D01*
X62171949Y-56273019D01*
X62102479Y-56280485D01*
X62040001Y-56249208D01*
X62004351Y-56189118D01*
X62000500Y-56158456D01*
X62000500Y-56030945D01*
X62000500Y-56030943D01*
X61959577Y-55878216D01*
X61937759Y-55840426D01*
X61880524Y-55741290D01*
X61880518Y-55741282D01*
X61768717Y-55629481D01*
X61768709Y-55629475D01*
X61631790Y-55550426D01*
X61631786Y-55550424D01*
X61631784Y-55550423D01*
X61479057Y-55509500D01*
X61320943Y-55509500D01*
X61168216Y-55550423D01*
X61168209Y-55550426D01*
X61031290Y-55629475D01*
X61031282Y-55629481D01*
X60962583Y-55698181D01*
X60901260Y-55731666D01*
X60874902Y-55734500D01*
X57990564Y-55734500D01*
X57942812Y-55747295D01*
X57942811Y-55747294D01*
X57895066Y-55760088D01*
X57895059Y-55760091D01*
X57871126Y-55773908D01*
X57852250Y-55784807D01*
X57841546Y-55790986D01*
X57809440Y-55809522D01*
X57809435Y-55809526D01*
X53469438Y-60149525D01*
X53399527Y-60219435D01*
X53350091Y-60305060D01*
X53350090Y-60305064D01*
X53324816Y-60399388D01*
X53324803Y-60399436D01*
X53324500Y-60400564D01*
X53324500Y-62409823D01*
X53304815Y-62476862D01*
X53252011Y-62522617D01*
X53182853Y-62532561D01*
X53119297Y-62503536D01*
X53081523Y-62444758D01*
X53080725Y-62441917D01*
X53069164Y-62398769D01*
X53011587Y-62299041D01*
X52990111Y-62261843D01*
X52990105Y-62261835D01*
X52878304Y-62150034D01*
X52878296Y-62150028D01*
X52741377Y-62070979D01*
X52741373Y-62070977D01*
X52741371Y-62070976D01*
X52588644Y-62030053D01*
X52430530Y-62030053D01*
X52277803Y-62070976D01*
X52277796Y-62070979D01*
X52140877Y-62150028D01*
X52140869Y-62150034D01*
X52029068Y-62261835D01*
X52029062Y-62261843D01*
X51950013Y-62398762D01*
X51950011Y-62398767D01*
X51950010Y-62398769D01*
X51909087Y-62551496D01*
X51909087Y-62709610D01*
X51922463Y-62759528D01*
X51950010Y-62862336D01*
X51950013Y-62862343D01*
X52029062Y-62999262D01*
X52029068Y-62999270D01*
X52097768Y-63067970D01*
X52131253Y-63129293D01*
X52134087Y-63155651D01*
X52134087Y-64196143D01*
X52114402Y-64263182D01*
X52061598Y-64308937D01*
X52034280Y-64317760D01*
X51981091Y-64328340D01*
X51981082Y-64328343D01*
X51844511Y-64384912D01*
X51844498Y-64384919D01*
X51721584Y-64467048D01*
X51721580Y-64467051D01*
X51617051Y-64571580D01*
X51617048Y-64571584D01*
X51534919Y-64694498D01*
X51534912Y-64694511D01*
X51478343Y-64831082D01*
X51478340Y-64831092D01*
X51449500Y-64976079D01*
X51449500Y-64976082D01*
X51449500Y-65123918D01*
X51460717Y-65180309D01*
X51454489Y-65249901D01*
X51426780Y-65292181D01*
X50143438Y-66575525D01*
X50073526Y-66645436D01*
X50024091Y-66731059D01*
X50024091Y-66731060D01*
X50024090Y-66731062D01*
X49998500Y-66826565D01*
X49998500Y-66826567D01*
X49998500Y-70220575D01*
X49978815Y-70287614D01*
X49926011Y-70333369D01*
X49856853Y-70343313D01*
X49799014Y-70318951D01*
X49793712Y-70314883D01*
X49656790Y-70235832D01*
X49656786Y-70235830D01*
X49656784Y-70235829D01*
X49504057Y-70194906D01*
X49345943Y-70194906D01*
X49207199Y-70232082D01*
X49137349Y-70230419D01*
X49079487Y-70191256D01*
X49067719Y-70174306D01*
X49050475Y-70144438D01*
X48980562Y-70074525D01*
X47368063Y-68462026D01*
X47368062Y-68462025D01*
X47282438Y-68412590D01*
X47282437Y-68412589D01*
X47282433Y-68412588D01*
X47233680Y-68399524D01*
X47233680Y-68399525D01*
X47186936Y-68387000D01*
X47186935Y-68387000D01*
X46500098Y-68387000D01*
X46433059Y-68367315D01*
X46412417Y-68350681D01*
X46343717Y-68281981D01*
X46343709Y-68281975D01*
X46206790Y-68202926D01*
X46206786Y-68202924D01*
X46206784Y-68202923D01*
X46054057Y-68162000D01*
X45895943Y-68162000D01*
X45743216Y-68202923D01*
X45743209Y-68202926D01*
X45606290Y-68281975D01*
X45606282Y-68281981D01*
X45494481Y-68393782D01*
X45494475Y-68393790D01*
X45415426Y-68530709D01*
X45415423Y-68530716D01*
X45374500Y-68683443D01*
X45374500Y-68841557D01*
X45411152Y-68978342D01*
X45415423Y-68994283D01*
X45415426Y-68994290D01*
X45494475Y-69131209D01*
X45494479Y-69131214D01*
X45494480Y-69131216D01*
X45606284Y-69243020D01*
X45606286Y-69243021D01*
X45606290Y-69243024D01*
X45732439Y-69315855D01*
X45743216Y-69322077D01*
X45895943Y-69363000D01*
X45895945Y-69363000D01*
X46054055Y-69363000D01*
X46054057Y-69363000D01*
X46206784Y-69322077D01*
X46343716Y-69243020D01*
X46412417Y-69174319D01*
X46473740Y-69140834D01*
X46500098Y-69138000D01*
X46930601Y-69138000D01*
X46997640Y-69157685D01*
X47018282Y-69174319D01*
X48338181Y-70494218D01*
X48371666Y-70555541D01*
X48374500Y-70581899D01*
X48374500Y-74934031D01*
X48396745Y-75017049D01*
X48400091Y-75029537D01*
X48432401Y-75085499D01*
X48449527Y-75115161D01*
X49031162Y-75696795D01*
X49064647Y-75758118D01*
X49067481Y-75784476D01*
X49067481Y-75872552D01*
X49095620Y-75977570D01*
X49110508Y-76033130D01*
X49107152Y-76034029D01*
X49112701Y-76087862D01*
X49081153Y-76150204D01*
X49020908Y-76185592D01*
X48953459Y-76183565D01*
X48940521Y-76179483D01*
X48902215Y-76157367D01*
X48806712Y-76131777D01*
X48792089Y-76131777D01*
X48773690Y-76126846D01*
X48773687Y-76126846D01*
X48756356Y-76122202D01*
X48756355Y-76122202D01*
X48659197Y-76122202D01*
X48592158Y-76102517D01*
X48571516Y-76085883D01*
X44548133Y-72062500D01*
X45350000Y-72062500D01*
X46650000Y-72062500D01*
X46650000Y-70262500D01*
X45350000Y-70262500D01*
X45350000Y-72062500D01*
X44548133Y-72062500D01*
X40885159Y-68399526D01*
X40885158Y-68399525D01*
X40799534Y-68350090D01*
X40751782Y-68337295D01*
X40751780Y-68337294D01*
X40751778Y-68337293D01*
X40704032Y-68324500D01*
X40704031Y-68324500D01*
X37715098Y-68324500D01*
X37648059Y-68304815D01*
X37627417Y-68288181D01*
X37558717Y-68219481D01*
X37558709Y-68219475D01*
X37421790Y-68140426D01*
X37421786Y-68140424D01*
X37421784Y-68140423D01*
X37269057Y-68099500D01*
X37110943Y-68099500D01*
X36958216Y-68140423D01*
X36958209Y-68140426D01*
X36821290Y-68219475D01*
X36821282Y-68219481D01*
X36709481Y-68331282D01*
X36709475Y-68331290D01*
X36630426Y-68468209D01*
X36630423Y-68468216D01*
X36589500Y-68620943D01*
X31500500Y-68620943D01*
X31500500Y-58753920D01*
X39619499Y-58753920D01*
X39648340Y-58898907D01*
X39648343Y-58898917D01*
X39704912Y-59035488D01*
X39704919Y-59035501D01*
X39787048Y-59158415D01*
X39787051Y-59158419D01*
X39891580Y-59262948D01*
X39891585Y-59262952D01*
X39958100Y-59307395D01*
X40002906Y-59361007D01*
X40013211Y-59410498D01*
X40013211Y-66097589D01*
X39993526Y-66164628D01*
X39976892Y-66185270D01*
X39908192Y-66253969D01*
X39908186Y-66253977D01*
X39829137Y-66390896D01*
X39829134Y-66390903D01*
X39788211Y-66543630D01*
X39788211Y-66701744D01*
X39813060Y-66794480D01*
X39829134Y-66854470D01*
X39829137Y-66854477D01*
X39908186Y-66991396D01*
X39908190Y-66991401D01*
X39908191Y-66991403D01*
X40019995Y-67103207D01*
X40019997Y-67103208D01*
X40020001Y-67103211D01*
X40156920Y-67182260D01*
X40156927Y-67182264D01*
X40309654Y-67223187D01*
X40309656Y-67223187D01*
X40467766Y-67223187D01*
X40467768Y-67223187D01*
X40620495Y-67182264D01*
X40757427Y-67103207D01*
X40869231Y-66991403D01*
X40948288Y-66854471D01*
X40989211Y-66701744D01*
X40989211Y-66543630D01*
X40948288Y-66390903D01*
X40942296Y-66380524D01*
X40869235Y-66253977D01*
X40869229Y-66253969D01*
X40800530Y-66185270D01*
X40767045Y-66123947D01*
X40764211Y-66097589D01*
X40764211Y-59385493D01*
X40783896Y-59318454D01*
X40819317Y-59282393D01*
X40848416Y-59262951D01*
X40952951Y-59158416D01*
X41035084Y-59035495D01*
X41091658Y-58898913D01*
X41120500Y-58753918D01*
X41120500Y-58606082D01*
X41120500Y-58606079D01*
X41091659Y-58461092D01*
X41091658Y-58461091D01*
X41091658Y-58461087D01*
X41045879Y-58350566D01*
X41035087Y-58324511D01*
X41035080Y-58324498D01*
X40952951Y-58201584D01*
X40952948Y-58201580D01*
X40848419Y-58097051D01*
X40848415Y-58097048D01*
X40819320Y-58077607D01*
X40774515Y-58023994D01*
X40764211Y-57974505D01*
X40764211Y-57612447D01*
X40783896Y-57545408D01*
X40826211Y-57505059D01*
X40868716Y-57480520D01*
X40980520Y-57368716D01*
X41059577Y-57231784D01*
X41100500Y-57079057D01*
X41100500Y-56920943D01*
X41059577Y-56768216D01*
X41001843Y-56668216D01*
X40980524Y-56631290D01*
X40980518Y-56631282D01*
X40868717Y-56519481D01*
X40868709Y-56519475D01*
X40731790Y-56440426D01*
X40731786Y-56440424D01*
X40731784Y-56440423D01*
X40579057Y-56399500D01*
X40420943Y-56399500D01*
X40268216Y-56440423D01*
X40268209Y-56440426D01*
X40131290Y-56519475D01*
X40131282Y-56519481D01*
X40019481Y-56631282D01*
X40019475Y-56631290D01*
X39940426Y-56768209D01*
X39940423Y-56768216D01*
X39899500Y-56920943D01*
X39899500Y-57079057D01*
X39940423Y-57231784D01*
X39985883Y-57310524D01*
X39996598Y-57329082D01*
X40013211Y-57391082D01*
X40013211Y-57949500D01*
X39993526Y-58016539D01*
X39958102Y-58052602D01*
X39891584Y-58097048D01*
X39891580Y-58097051D01*
X39787051Y-58201580D01*
X39787048Y-58201584D01*
X39704919Y-58324498D01*
X39704912Y-58324511D01*
X39648343Y-58461082D01*
X39648340Y-58461092D01*
X39619500Y-58606079D01*
X39619500Y-58606082D01*
X39619500Y-58753918D01*
X39619500Y-58753920D01*
X39619499Y-58753920D01*
X31500500Y-58753920D01*
X31500500Y-52493713D01*
X32149500Y-52493713D01*
X32149500Y-52706286D01*
X32182753Y-52916239D01*
X32248444Y-53118414D01*
X32344951Y-53307820D01*
X32469890Y-53479786D01*
X32620213Y-53630109D01*
X32792179Y-53755048D01*
X32792181Y-53755049D01*
X32792184Y-53755051D01*
X32981588Y-53851557D01*
X33183757Y-53917246D01*
X33393713Y-53950500D01*
X33393714Y-53950500D01*
X33606286Y-53950500D01*
X33606287Y-53950500D01*
X33816243Y-53917246D01*
X34018412Y-53851557D01*
X34207816Y-53755051D01*
X34229789Y-53739086D01*
X34379786Y-53630109D01*
X34379788Y-53630106D01*
X34379792Y-53630104D01*
X34530104Y-53479792D01*
X34530106Y-53479788D01*
X34530109Y-53479786D01*
X34655048Y-53307820D01*
X34655047Y-53307820D01*
X34655051Y-53307816D01*
X34751557Y-53118412D01*
X34817246Y-52916243D01*
X34850500Y-52706287D01*
X34850500Y-52493713D01*
X34817246Y-52283757D01*
X34751557Y-52081588D01*
X34655051Y-51892184D01*
X34655049Y-51892181D01*
X34655048Y-51892179D01*
X34530109Y-51720213D01*
X34379786Y-51569890D01*
X34207820Y-51444951D01*
X34018414Y-51348444D01*
X34018413Y-51348443D01*
X34018412Y-51348443D01*
X33816243Y-51282754D01*
X33816241Y-51282753D01*
X33816240Y-51282753D01*
X33654957Y-51257208D01*
X33606287Y-51249500D01*
X33393713Y-51249500D01*
X33345042Y-51257208D01*
X33183760Y-51282753D01*
X32981585Y-51348444D01*
X32792179Y-51444951D01*
X32620213Y-51569890D01*
X32469890Y-51720213D01*
X32344951Y-51892179D01*
X32248444Y-52081585D01*
X32182753Y-52283760D01*
X32149500Y-52493713D01*
X31500500Y-52493713D01*
X31500500Y-52304427D01*
X31500816Y-52295581D01*
X31501662Y-52283757D01*
X31517165Y-52066977D01*
X31519683Y-52049470D01*
X31563742Y-51846937D01*
X31567459Y-51829851D01*
X31572436Y-51812900D01*
X31650985Y-51602299D01*
X31658325Y-51586227D01*
X31766044Y-51388956D01*
X31775600Y-51374086D01*
X31910294Y-51194156D01*
X31921868Y-51180799D01*
X32080799Y-51021868D01*
X32094156Y-51010294D01*
X32274086Y-50875600D01*
X32288956Y-50866044D01*
X32486227Y-50758325D01*
X32502299Y-50750985D01*
X32712900Y-50672436D01*
X32729851Y-50667459D01*
X32949472Y-50619682D01*
X32966977Y-50617165D01*
X33195582Y-50600816D01*
X33204428Y-50600500D01*
X33265892Y-50600500D01*
X39546000Y-50600500D01*
X39613039Y-50620185D01*
G37*
%TD.AperFunction*%
%TD*%
M02*
