%TF.GenerationSoftware,KiCad,Pcbnew,9.0.7*%
%TF.CreationDate,2026-02-10T02:00:55+07:00*%
%TF.ProjectId,tag-rounded,7461672d-726f-4756-9e64-65642e6b6963,rev?*%
%TF.SameCoordinates,Original*%
%TF.FileFunction,Soldermask,Top*%
%TF.FilePolarity,Negative*%
%FSLAX46Y46*%
G04 Gerber Fmt 4.6, Leading zero omitted, Abs format (unit mm)*
G04 Created by KiCad (PCBNEW 9.0.7) date 2026-02-10 02:00:55*
%MOMM*%
%LPD*%
G01*
G04 APERTURE LIST*
G04 Aperture macros list*
%AMRoundRect*
0 Rectangle with rounded corners*
0 $1 Rounding radius*
0 $2 $3 $4 $5 $6 $7 $8 $9 X,Y pos of 4 corners*
0 Add a 4 corners polygon primitive as box body*
4,1,4,$2,$3,$4,$5,$6,$7,$8,$9,$2,$3,0*
0 Add four circle primitives for the rounded corners*
1,1,$1+$1,$2,$3*
1,1,$1+$1,$4,$5*
1,1,$1+$1,$6,$7*
1,1,$1+$1,$8,$9*
0 Add four rect primitives between the rounded corners*
20,1,$1+$1,$2,$3,$4,$5,0*
20,1,$1+$1,$4,$5,$6,$7,0*
20,1,$1+$1,$6,$7,$8,$9,0*
20,1,$1+$1,$8,$9,$2,$3,0*%
G04 Aperture macros list end*
%ADD10C,0.010000*%
%ADD11O,1.750000X1.200000*%
%ADD12RoundRect,0.250000X-0.625000X0.350000X-0.625000X-0.350000X0.625000X-0.350000X0.625000X0.350000X0*%
%ADD13C,0.650000*%
%ADD14R,1.450000X0.600000*%
%ADD15R,1.450000X0.300000*%
%ADD16O,2.100000X1.000000*%
%ADD17O,1.600000X1.000000*%
%ADD18RoundRect,0.102000X-0.600000X-0.900000X0.600000X-0.900000X0.600000X0.900000X-0.600000X0.900000X0*%
%ADD19RoundRect,0.102000X-0.300000X-0.775000X0.300000X-0.775000X0.300000X0.775000X-0.300000X0.775000X0*%
%ADD20RoundRect,0.075000X0.125000X0.075000X-0.125000X0.075000X-0.125000X-0.075000X0.125000X-0.075000X0*%
%ADD21C,2.200000*%
%ADD22C,0.900000*%
%ADD23RoundRect,0.187500X-0.187500X-0.712500X0.187500X-0.712500X0.187500X0.712500X-0.187500X0.712500X0*%
%ADD24RoundRect,0.150000X-0.150000X-0.750000X0.150000X-0.750000X0.150000X0.750000X-0.150000X0.750000X0*%
%ADD25RoundRect,0.225000X-0.425000X-0.225000X0.425000X-0.225000X0.425000X0.225000X-0.425000X0.225000X0*%
%ADD26RoundRect,0.087500X0.087500X-0.175000X0.087500X0.175000X-0.087500X0.175000X-0.087500X-0.175000X0*%
%ADD27R,1.600000X1.400000*%
%ADD28RoundRect,0.062500X-0.375000X-0.062500X0.375000X-0.062500X0.375000X0.062500X-0.375000X0.062500X0*%
%ADD29RoundRect,0.062500X-0.062500X-0.375000X0.062500X-0.375000X0.062500X0.375000X-0.062500X0.375000X0*%
%ADD30R,1.600000X1.600000*%
%ADD31RoundRect,0.062500X0.375000X0.062500X-0.375000X0.062500X-0.375000X-0.062500X0.375000X-0.062500X0*%
%ADD32RoundRect,0.062500X0.062500X0.375000X-0.062500X0.375000X-0.062500X-0.375000X0.062500X-0.375000X0*%
%ADD33R,5.600000X5.600000*%
%ADD34RoundRect,0.237500X0.300000X0.237500X-0.300000X0.237500X-0.300000X-0.237500X0.300000X-0.237500X0*%
%ADD35RoundRect,0.250000X-0.475000X0.337500X-0.475000X-0.337500X0.475000X-0.337500X0.475000X0.337500X0*%
%ADD36RoundRect,0.237500X0.237500X-0.300000X0.237500X0.300000X-0.237500X0.300000X-0.237500X-0.300000X0*%
%ADD37RoundRect,0.250000X0.337500X0.475000X-0.337500X0.475000X-0.337500X-0.475000X0.337500X-0.475000X0*%
%ADD38RoundRect,0.250000X-0.337500X-0.475000X0.337500X-0.475000X0.337500X0.475000X-0.337500X0.475000X0*%
%ADD39RoundRect,0.237500X-0.237500X0.300000X-0.237500X-0.300000X0.237500X-0.300000X0.237500X0.300000X0*%
%ADD40RoundRect,0.237500X-0.300000X-0.237500X0.300000X-0.237500X0.300000X0.237500X-0.300000X0.237500X0*%
%ADD41RoundRect,0.250000X0.475000X-0.337500X0.475000X0.337500X-0.475000X0.337500X-0.475000X-0.337500X0*%
%ADD42RoundRect,0.237500X0.287500X0.237500X-0.287500X0.237500X-0.287500X-0.237500X0.287500X-0.237500X0*%
%ADD43RoundRect,0.237500X-0.287500X-0.237500X0.287500X-0.237500X0.287500X0.237500X-0.287500X0.237500X0*%
%ADD44RoundRect,0.112500X0.187500X0.112500X-0.187500X0.112500X-0.187500X-0.112500X0.187500X-0.112500X0*%
%ADD45RoundRect,0.250000X0.625000X-0.375000X0.625000X0.375000X-0.625000X0.375000X-0.625000X-0.375000X0*%
%ADD46RoundRect,0.102000X0.900000X-0.600000X0.900000X0.600000X-0.900000X0.600000X-0.900000X-0.600000X0*%
%ADD47RoundRect,0.102000X0.775000X-0.300000X0.775000X0.300000X-0.775000X0.300000X-0.775000X-0.300000X0*%
%ADD48RoundRect,0.102000X-0.900000X0.600000X-0.900000X-0.600000X0.900000X-0.600000X0.900000X0.600000X0*%
%ADD49RoundRect,0.102000X-0.775000X0.300000X-0.775000X-0.300000X0.775000X-0.300000X0.775000X0.300000X0*%
%ADD50RoundRect,0.250000X0.850000X0.275000X-0.850000X0.275000X-0.850000X-0.275000X0.850000X-0.275000X0*%
%ADD51RoundRect,0.250000X0.275000X0.250000X-0.275000X0.250000X-0.275000X-0.250000X0.275000X-0.250000X0*%
%ADD52RoundRect,0.250000X0.300000X1.600000X-0.300000X1.600000X-0.300000X-1.600000X0.300000X-1.600000X0*%
%ADD53RoundRect,0.147500X-0.172500X0.147500X-0.172500X-0.147500X0.172500X-0.147500X0.172500X0.147500X0*%
%ADD54RoundRect,0.237500X0.250000X0.237500X-0.250000X0.237500X-0.250000X-0.237500X0.250000X-0.237500X0*%
%ADD55RoundRect,0.237500X-0.250000X-0.237500X0.250000X-0.237500X0.250000X0.237500X-0.250000X0.237500X0*%
%ADD56RoundRect,0.237500X-0.237500X0.250000X-0.237500X-0.250000X0.237500X-0.250000X0.237500X0.250000X0*%
%ADD57RoundRect,0.237500X0.237500X-0.250000X0.237500X0.250000X-0.237500X0.250000X-0.237500X-0.250000X0*%
%ADD58RoundRect,0.250000X0.350000X0.450000X-0.350000X0.450000X-0.350000X-0.450000X0.350000X-0.450000X0*%
%ADD59RoundRect,0.250000X-0.350000X-0.450000X0.350000X-0.450000X0.350000X0.450000X-0.350000X0.450000X0*%
%ADD60RoundRect,0.350000X-0.550000X-0.350000X0.550000X-0.350000X0.550000X0.350000X-0.550000X0.350000X0*%
%ADD61C,1.500000*%
%ADD62R,1.500000X1.500000*%
%ADD63RoundRect,0.150000X-0.512500X-0.150000X0.512500X-0.150000X0.512500X0.150000X-0.512500X0.150000X0*%
%ADD64R,0.600000X1.800000*%
%ADD65R,1.800000X0.600000*%
%ADD66R,2.450000X1.000000*%
%ADD67R,1.000000X2.450000*%
%ADD68R,1.800000X1.000000*%
%ADD69RoundRect,0.250000X0.350000X-0.450000X0.350000X0.450000X-0.350000X0.450000X-0.350000X-0.450000X0*%
%ADD70R,0.700000X0.510000*%
%ADD71RoundRect,0.237500X0.237500X-0.287500X0.237500X0.287500X-0.237500X0.287500X-0.237500X-0.287500X0*%
%ADD72RoundRect,0.102000X0.300000X0.775000X-0.300000X0.775000X-0.300000X-0.775000X0.300000X-0.775000X0*%
%ADD73RoundRect,0.102000X0.600000X0.900000X-0.600000X0.900000X-0.600000X-0.900000X0.600000X-0.900000X0*%
G04 APERTURE END LIST*
%TO.C,J3*%
G36*
X77290000Y-78980000D02*
G01*
X75200000Y-78980000D01*
X75200000Y-77100000D01*
X77290000Y-77100000D01*
X77290000Y-78980000D01*
G37*
D10*
%TO.C,U3*%
X47200000Y-71837500D02*
X46625000Y-71837500D01*
X46625000Y-71487500D01*
X47200000Y-71487500D01*
X47200000Y-71837500D01*
G36*
X47200000Y-71837500D02*
G01*
X46625000Y-71837500D01*
X46625000Y-71487500D01*
X47200000Y-71487500D01*
X47200000Y-71837500D01*
G37*
X47200000Y-71337500D02*
X46625000Y-71337500D01*
X46625000Y-70987500D01*
X47200000Y-70987500D01*
X47200000Y-71337500D01*
G36*
X47200000Y-71337500D02*
G01*
X46625000Y-71337500D01*
X46625000Y-70987500D01*
X47200000Y-70987500D01*
X47200000Y-71337500D01*
G37*
X47200000Y-70837500D02*
X46625000Y-70837500D01*
X46625000Y-70487500D01*
X47200000Y-70487500D01*
X47200000Y-70837500D01*
G36*
X47200000Y-70837500D02*
G01*
X46625000Y-70837500D01*
X46625000Y-70487500D01*
X47200000Y-70487500D01*
X47200000Y-70837500D01*
G37*
X46925000Y-72612500D02*
X46575000Y-72612500D01*
X46575000Y-72037500D01*
X46925000Y-72037500D01*
X46925000Y-72612500D01*
G36*
X46925000Y-72612500D02*
G01*
X46575000Y-72612500D01*
X46575000Y-72037500D01*
X46925000Y-72037500D01*
X46925000Y-72612500D01*
G37*
X46925000Y-70287500D02*
X46575000Y-70287500D01*
X46575000Y-69712500D01*
X46925000Y-69712500D01*
X46925000Y-70287500D01*
G36*
X46925000Y-70287500D02*
G01*
X46575000Y-70287500D01*
X46575000Y-69712500D01*
X46925000Y-69712500D01*
X46925000Y-70287500D01*
G37*
X46425000Y-72612500D02*
X46075000Y-72612500D01*
X46075000Y-72037500D01*
X46425000Y-72037500D01*
X46425000Y-72612500D01*
G36*
X46425000Y-72612500D02*
G01*
X46075000Y-72612500D01*
X46075000Y-72037500D01*
X46425000Y-72037500D01*
X46425000Y-72612500D01*
G37*
X46425000Y-70287500D02*
X46075000Y-70287500D01*
X46075000Y-69712500D01*
X46425000Y-69712500D01*
X46425000Y-70287500D01*
G36*
X46425000Y-70287500D02*
G01*
X46075000Y-70287500D01*
X46075000Y-69712500D01*
X46425000Y-69712500D01*
X46425000Y-70287500D01*
G37*
X45925000Y-72612500D02*
X45575000Y-72612500D01*
X45575000Y-72037500D01*
X45925000Y-72037500D01*
X45925000Y-72612500D01*
G36*
X45925000Y-72612500D02*
G01*
X45575000Y-72612500D01*
X45575000Y-72037500D01*
X45925000Y-72037500D01*
X45925000Y-72612500D01*
G37*
X45925000Y-70287500D02*
X45575000Y-70287500D01*
X45575000Y-69712500D01*
X45925000Y-69712500D01*
X45925000Y-70287500D01*
G36*
X45925000Y-70287500D02*
G01*
X45575000Y-70287500D01*
X45575000Y-69712500D01*
X45925000Y-69712500D01*
X45925000Y-70287500D01*
G37*
X45425000Y-72612500D02*
X45075000Y-72612500D01*
X45075000Y-72037500D01*
X45425000Y-72037500D01*
X45425000Y-72612500D01*
G36*
X45425000Y-72612500D02*
G01*
X45075000Y-72612500D01*
X45075000Y-72037500D01*
X45425000Y-72037500D01*
X45425000Y-72612500D01*
G37*
X45425000Y-70287500D02*
X45075000Y-70287500D01*
X45075000Y-69712500D01*
X45425000Y-69712500D01*
X45425000Y-70287500D01*
G36*
X45425000Y-70287500D02*
G01*
X45075000Y-70287500D01*
X45075000Y-69712500D01*
X45425000Y-69712500D01*
X45425000Y-70287500D01*
G37*
X45375000Y-71837500D02*
X44800000Y-71837500D01*
X44800000Y-71487500D01*
X45375000Y-71487500D01*
X45375000Y-71837500D01*
G36*
X45375000Y-71837500D02*
G01*
X44800000Y-71837500D01*
X44800000Y-71487500D01*
X45375000Y-71487500D01*
X45375000Y-71837500D01*
G37*
X45375000Y-71337500D02*
X44800000Y-71337500D01*
X44800000Y-70987500D01*
X45375000Y-70987500D01*
X45375000Y-71337500D01*
G36*
X45375000Y-71337500D02*
G01*
X44800000Y-71337500D01*
X44800000Y-70987500D01*
X45375000Y-70987500D01*
X45375000Y-71337500D01*
G37*
X45375000Y-70837500D02*
X44800000Y-70837500D01*
X44800000Y-70487500D01*
X45375000Y-70487500D01*
X45375000Y-70837500D01*
G36*
X45375000Y-70837500D02*
G01*
X44800000Y-70837500D01*
X44800000Y-70487500D01*
X45375000Y-70487500D01*
X45375000Y-70837500D01*
G37*
%TO.C,U4*%
X69690800Y-94960000D02*
X69340800Y-94960000D01*
X69340800Y-95210000D01*
X69690800Y-95210000D01*
X69690800Y-95460000D01*
X69090800Y-95460000D01*
X69090800Y-94710000D01*
X69690800Y-94710000D01*
X69690800Y-94960000D01*
G36*
X69690800Y-94960000D02*
G01*
X69340800Y-94960000D01*
X69340800Y-95210000D01*
X69690800Y-95210000D01*
X69690800Y-95460000D01*
X69090800Y-95460000D01*
X69090800Y-94710000D01*
X69690800Y-94710000D01*
X69690800Y-94960000D01*
G37*
X66890800Y-95460000D02*
X66290800Y-95460000D01*
X66290800Y-95210000D01*
X66640800Y-95210000D01*
X66640800Y-94960000D01*
X66290800Y-94960000D01*
X66290800Y-94710000D01*
X66890800Y-94710000D01*
X66890800Y-95460000D01*
G36*
X66890800Y-95460000D02*
G01*
X66290800Y-95460000D01*
X66290800Y-95210000D01*
X66640800Y-95210000D01*
X66640800Y-94960000D01*
X66290800Y-94960000D01*
X66290800Y-94710000D01*
X66890800Y-94710000D01*
X66890800Y-95460000D01*
G37*
X69740800Y-96510000D02*
X69040800Y-96510000D01*
X69040800Y-96160000D01*
X69740800Y-96160000D01*
X69740800Y-96510000D01*
G36*
X69740800Y-96510000D02*
G01*
X69040800Y-96510000D01*
X69040800Y-96160000D01*
X69740800Y-96160000D01*
X69740800Y-96510000D01*
G37*
X69740800Y-96010000D02*
X69040800Y-96010000D01*
X69040800Y-95660000D01*
X69740800Y-95660000D01*
X69740800Y-96010000D01*
G36*
X69740800Y-96010000D02*
G01*
X69040800Y-96010000D01*
X69040800Y-95660000D01*
X69740800Y-95660000D01*
X69740800Y-96010000D01*
G37*
X68915800Y-97110000D02*
X68565800Y-97110000D01*
X68565800Y-96410000D01*
X68915800Y-96410000D01*
X68915800Y-97110000D01*
G36*
X68915800Y-97110000D02*
G01*
X68565800Y-97110000D01*
X68565800Y-96410000D01*
X68915800Y-96410000D01*
X68915800Y-97110000D01*
G37*
X68615800Y-95510000D02*
X68365800Y-95510000D01*
X68365800Y-94160000D01*
X68615800Y-94160000D01*
X68615800Y-95510000D01*
G36*
X68615800Y-95510000D02*
G01*
X68365800Y-95510000D01*
X68365800Y-94160000D01*
X68615800Y-94160000D01*
X68615800Y-95510000D01*
G37*
X68415800Y-97110000D02*
X68065800Y-97110000D01*
X68065800Y-96410000D01*
X68415800Y-96410000D01*
X68415800Y-97110000D01*
G36*
X68415800Y-97110000D02*
G01*
X68065800Y-97110000D01*
X68065800Y-96410000D01*
X68415800Y-96410000D01*
X68415800Y-97110000D01*
G37*
X68115800Y-95860000D02*
X67865800Y-95860000D01*
X67865800Y-94160000D01*
X68115800Y-94160000D01*
X68115800Y-95860000D01*
G36*
X68115800Y-95860000D02*
G01*
X67865800Y-95860000D01*
X67865800Y-94160000D01*
X68115800Y-94160000D01*
X68115800Y-95860000D01*
G37*
X67915800Y-97110000D02*
X67565800Y-97110000D01*
X67565800Y-96410000D01*
X67915800Y-96410000D01*
X67915800Y-97110000D01*
G36*
X67915800Y-97110000D02*
G01*
X67565800Y-97110000D01*
X67565800Y-96410000D01*
X67915800Y-96410000D01*
X67915800Y-97110000D01*
G37*
X67615800Y-95510000D02*
X67365800Y-95510000D01*
X67365800Y-94160000D01*
X67615800Y-94160000D01*
X67615800Y-95510000D01*
G36*
X67615800Y-95510000D02*
G01*
X67365800Y-95510000D01*
X67365800Y-94160000D01*
X67615800Y-94160000D01*
X67615800Y-95510000D01*
G37*
X67415800Y-97110000D02*
X67065800Y-97110000D01*
X67065800Y-96410000D01*
X67415800Y-96410000D01*
X67415800Y-97110000D01*
G36*
X67415800Y-97110000D02*
G01*
X67065800Y-97110000D01*
X67065800Y-96410000D01*
X67415800Y-96410000D01*
X67415800Y-97110000D01*
G37*
X66940800Y-96510000D02*
X66240800Y-96510000D01*
X66240800Y-96160000D01*
X66940800Y-96160000D01*
X66940800Y-96510000D01*
G36*
X66940800Y-96510000D02*
G01*
X66240800Y-96510000D01*
X66240800Y-96160000D01*
X66940800Y-96160000D01*
X66940800Y-96510000D01*
G37*
X66940800Y-96010000D02*
X66240800Y-96010000D01*
X66240800Y-95660000D01*
X66940800Y-95660000D01*
X66940800Y-96010000D01*
G36*
X66940800Y-96010000D02*
G01*
X66240800Y-96010000D01*
X66240800Y-95660000D01*
X66940800Y-95660000D01*
X66940800Y-96010000D01*
G37*
%TD*%
D11*
%TO.C,J4*%
X35050000Y-92550000D03*
D12*
X35050000Y-90550000D03*
%TD*%
D13*
%TO.C,J1*%
X36640000Y-76610000D03*
X36640000Y-82390000D03*
D14*
X38085000Y-76250000D03*
X38085000Y-77050000D03*
D15*
X38085000Y-78250000D03*
X38085000Y-79250000D03*
X38085000Y-79750000D03*
X38085000Y-80750000D03*
D14*
X38085000Y-81950000D03*
X38085000Y-82750000D03*
X38085000Y-82750000D03*
X38085000Y-81950000D03*
D15*
X38085000Y-81250000D03*
X38085000Y-80250000D03*
X38085000Y-78750000D03*
X38085000Y-77750000D03*
D14*
X38085000Y-77050000D03*
X38085000Y-76250000D03*
D16*
X37170000Y-75180000D03*
D17*
X32990000Y-75180000D03*
D16*
X37170000Y-83820000D03*
D17*
X32990000Y-83820000D03*
%TD*%
D18*
%TO.C,J9*%
X63710000Y-51675000D03*
X58110000Y-51675000D03*
D19*
X62410000Y-54200000D03*
X61410000Y-54200000D03*
X60410000Y-54200000D03*
X59410000Y-54200000D03*
%TD*%
%TO.C,J8*%
X69000000Y-54400000D03*
X70000000Y-54400000D03*
X71000000Y-54400000D03*
X72000000Y-54400000D03*
X73000000Y-54400000D03*
D18*
X67700000Y-51875000D03*
X74300000Y-51875000D03*
%TD*%
D20*
%TO.C,C25*%
X79900000Y-74680000D03*
X79400000Y-74680000D03*
%TD*%
%TO.C,C26*%
X79905000Y-77240000D03*
X79405000Y-77240000D03*
%TD*%
D21*
%TO.C,H1*%
X33500000Y-99600000D03*
%TD*%
%TO.C,H2*%
X78500000Y-99600000D03*
%TD*%
%TO.C,H3*%
X78300000Y-52600000D03*
%TD*%
%TO.C,H4*%
X33500000Y-52600000D03*
%TD*%
D22*
%TO.C,SW1*%
X53865000Y-100315000D03*
X58115000Y-100315000D03*
D23*
X54765000Y-99415000D03*
X57215000Y-99415000D03*
D24*
X55990000Y-99415000D03*
D25*
X54140000Y-101365000D03*
X57840000Y-101365000D03*
%TD*%
D26*
%TO.C,U1*%
X45870000Y-94757500D03*
X46370000Y-94757500D03*
X46870000Y-94757500D03*
X47370000Y-94757500D03*
X47370000Y-92182500D03*
X46870000Y-92182500D03*
X46370000Y-92182500D03*
X45870000Y-92182500D03*
D27*
X46620000Y-93470000D03*
%TD*%
D28*
%TO.C,U5*%
X51835307Y-94709038D03*
X51835307Y-95209038D03*
X51835307Y-95709038D03*
X51835307Y-96209038D03*
D29*
X52522807Y-96896538D03*
X53022807Y-96896538D03*
X53522807Y-96896538D03*
X54022807Y-96896538D03*
D28*
X54710307Y-96209038D03*
X54710307Y-95709038D03*
X54710307Y-95209038D03*
X54710307Y-94709038D03*
D29*
X54022807Y-94021538D03*
X53522807Y-94021538D03*
X53022807Y-94021538D03*
X52522807Y-94021538D03*
D30*
X53272807Y-95459038D03*
%TD*%
D31*
%TO.C,U7*%
X59137500Y-81250000D03*
X59137500Y-80750000D03*
X59137500Y-80250000D03*
X59137500Y-79750000D03*
X59137500Y-79250000D03*
X59137500Y-78750000D03*
X59137500Y-78250000D03*
X59137500Y-77750000D03*
X59137500Y-77250000D03*
X59137500Y-76750000D03*
X59137500Y-76250000D03*
X59137500Y-75750000D03*
D32*
X58450000Y-75062500D03*
X57950000Y-75062500D03*
X57450000Y-75062500D03*
X56950000Y-75062500D03*
X56450000Y-75062500D03*
X55950000Y-75062500D03*
X55450000Y-75062500D03*
X54950000Y-75062500D03*
X54450000Y-75062500D03*
X53950000Y-75062500D03*
X53450000Y-75062500D03*
X52950000Y-75062500D03*
D31*
X52262500Y-75750000D03*
X52262500Y-76250000D03*
X52262500Y-76750000D03*
X52262500Y-77250000D03*
X52262500Y-77750000D03*
X52262500Y-78250000D03*
X52262500Y-78750000D03*
X52262500Y-79250000D03*
X52262500Y-79750000D03*
X52262500Y-80250000D03*
X52262500Y-80750000D03*
X52262500Y-81250000D03*
D32*
X52950000Y-81937500D03*
X53450000Y-81937500D03*
X53950000Y-81937500D03*
X54450000Y-81937500D03*
X54950000Y-81937500D03*
X55450000Y-81937500D03*
X55950000Y-81937500D03*
X56450000Y-81937500D03*
X56950000Y-81937500D03*
X57450000Y-81937500D03*
X57950000Y-81937500D03*
X58450000Y-81937500D03*
D33*
X55700000Y-78500000D03*
%TD*%
D34*
%TO.C,C4*%
X45207500Y-96220000D03*
X46932500Y-96220000D03*
%TD*%
D35*
%TO.C,C1*%
X61970000Y-99010000D03*
X61970000Y-96935000D03*
%TD*%
%TO.C,C2*%
X63940000Y-98987500D03*
X63940000Y-96912500D03*
%TD*%
D36*
%TO.C,C3*%
X64430000Y-93165000D03*
X64430000Y-94890000D03*
%TD*%
D37*
%TO.C,C6*%
X53942500Y-90640000D03*
X56017500Y-90640000D03*
%TD*%
D35*
%TO.C,C8*%
X49950000Y-99617500D03*
X49950000Y-97542500D03*
%TD*%
D38*
%TO.C,C9*%
X56632500Y-92640000D03*
X58707500Y-92640000D03*
%TD*%
D39*
%TO.C,C5*%
X70890000Y-100360000D03*
X70890000Y-98635000D03*
%TD*%
%TO.C,C7*%
X62710000Y-93165000D03*
X62710000Y-94890000D03*
%TD*%
D38*
%TO.C,C12*%
X74775000Y-92663200D03*
X72700000Y-92663200D03*
%TD*%
D37*
%TO.C,C18*%
X57612500Y-86600000D03*
X59687500Y-86600000D03*
%TD*%
D40*
%TO.C,C19*%
X65525000Y-72000000D03*
X63800000Y-72000000D03*
%TD*%
D39*
%TO.C,C20*%
X61100000Y-84800000D03*
X61100000Y-83075000D03*
%TD*%
D34*
%TO.C,C21*%
X57855000Y-84850000D03*
X59580000Y-84850000D03*
%TD*%
D36*
%TO.C,C22*%
X50430000Y-81167500D03*
X50430000Y-82892500D03*
%TD*%
D37*
%TO.C,C23*%
X51790000Y-69980000D03*
X53865000Y-69980000D03*
%TD*%
D40*
%TO.C,C24*%
X52820000Y-73480000D03*
X51095000Y-73480000D03*
%TD*%
D36*
%TO.C,C27*%
X61400000Y-74277500D03*
X61400000Y-76002500D03*
%TD*%
D41*
%TO.C,C28*%
X61500000Y-67862500D03*
X61500000Y-69937500D03*
%TD*%
%TO.C,C29*%
X65100000Y-67862500D03*
X65100000Y-69937500D03*
%TD*%
D40*
%TO.C,C17*%
X72762500Y-60500000D03*
X71037500Y-60500000D03*
%TD*%
D38*
%TO.C,C16*%
X73137500Y-58700000D03*
X71062500Y-58700000D03*
%TD*%
D34*
%TO.C,C30*%
X33275000Y-58770000D03*
X35000000Y-58770000D03*
%TD*%
%TO.C,C31*%
X33275000Y-57220000D03*
X35000000Y-57220000D03*
%TD*%
D37*
%TO.C,C32*%
X32925000Y-60620000D03*
X35000000Y-60620000D03*
%TD*%
D39*
%TO.C,C10*%
X45650000Y-75952500D03*
X45650000Y-74227500D03*
%TD*%
%TO.C,C13*%
X43100000Y-69837500D03*
X43100000Y-71562500D03*
%TD*%
D36*
%TO.C,CY1*%
X63700000Y-77326000D03*
X63700000Y-79051000D03*
%TD*%
D39*
%TO.C,CY2*%
X63700000Y-75726000D03*
X63700000Y-74001000D03*
%TD*%
D36*
%TO.C,CY3(DNP)1*%
X69375000Y-81975000D03*
X69375000Y-83700000D03*
%TD*%
D39*
%TO.C,CY4(DNP)1*%
X69375000Y-80075000D03*
X69375000Y-78350000D03*
%TD*%
D42*
%TO.C,D5*%
X50955833Y-88623334D03*
X52705833Y-88623334D03*
%TD*%
%TO.C,D6*%
X49350000Y-65625000D03*
X51100000Y-65625000D03*
%TD*%
D43*
%TO.C,D7*%
X40750000Y-65600000D03*
X39000000Y-65600000D03*
%TD*%
D44*
%TO.C,D1*%
X43450000Y-82550000D03*
X45550000Y-82550000D03*
%TD*%
D45*
%TO.C,F1*%
X35000000Y-62700000D03*
X35000000Y-65500000D03*
%TD*%
D46*
%TO.C,J7*%
X32575000Y-67400000D03*
X32575000Y-73000000D03*
D47*
X35100000Y-68700000D03*
X35100000Y-69700000D03*
X35100000Y-70700000D03*
X35100000Y-71700000D03*
%TD*%
D48*
%TO.C,J6*%
X79450000Y-87600000D03*
X79450000Y-82000000D03*
D49*
X76925000Y-86300000D03*
X76925000Y-85300000D03*
X76925000Y-84300000D03*
X76925000Y-83300000D03*
%TD*%
D50*
%TO.C,J3*%
X76300000Y-76565000D03*
X76300000Y-79515000D03*
D51*
X77825000Y-78040000D03*
%TD*%
D52*
%TO.C,L1*%
X66500000Y-91160000D03*
X69500000Y-91160000D03*
%TD*%
D53*
%TO.C,L2*%
X79900000Y-76440000D03*
X79900000Y-75470000D03*
%TD*%
D54*
%TO.C,R21*%
X64500000Y-84500000D03*
X66325000Y-84500000D03*
%TD*%
D55*
%TO.C,R5*%
X62870000Y-90030000D03*
X61045000Y-90030000D03*
%TD*%
D54*
%TO.C,R6*%
X52332500Y-92382500D03*
X50507500Y-92382500D03*
%TD*%
D56*
%TO.C,R1*%
X67692800Y-100410000D03*
X67692800Y-98585000D03*
%TD*%
%TO.C,R2*%
X66094200Y-100410000D03*
X66094200Y-98585000D03*
%TD*%
D57*
%TO.C,R4*%
X40340000Y-76000000D03*
X40340000Y-74175000D03*
%TD*%
D56*
%TO.C,R3*%
X40340000Y-83587500D03*
X40340000Y-85412500D03*
%TD*%
%TO.C,R8*%
X49040000Y-94192500D03*
X49040000Y-92367500D03*
%TD*%
D58*
%TO.C,R9*%
X72737500Y-97446800D03*
X74737500Y-97446800D03*
%TD*%
D59*
%TO.C,R10*%
X74737500Y-99793600D03*
X72737500Y-99793600D03*
%TD*%
D56*
%TO.C,R11*%
X69291400Y-100410000D03*
X69291400Y-98585000D03*
%TD*%
D55*
%TO.C,R15*%
X65925000Y-66000000D03*
X64100000Y-66000000D03*
%TD*%
D56*
%TO.C,R26*%
X56000000Y-86462500D03*
X56000000Y-84637500D03*
%TD*%
D54*
%TO.C,R20*%
X47055833Y-88630000D03*
X48880833Y-88630000D03*
%TD*%
%TO.C,R18*%
X47055833Y-84640000D03*
X48880833Y-84640000D03*
%TD*%
D57*
%TO.C,R16*%
X73700000Y-75162500D03*
X73700000Y-76987500D03*
%TD*%
D54*
%TO.C,R22*%
X45825000Y-65625000D03*
X47650000Y-65625000D03*
%TD*%
D55*
%TO.C,R23*%
X44275000Y-65600000D03*
X42450000Y-65600000D03*
%TD*%
D54*
%TO.C,R25*%
X51045000Y-71980000D03*
X52870000Y-71980000D03*
%TD*%
D56*
%TO.C,R7*%
X49410000Y-71895000D03*
X49410000Y-73720000D03*
%TD*%
D54*
%TO.C,R19*%
X47177500Y-86630000D03*
X49002500Y-86630000D03*
%TD*%
D60*
%TO.C,SW2*%
X65550000Y-63000000D03*
X60850000Y-63000000D03*
%TD*%
D61*
%TO.C,TP6*%
X62000000Y-87500000D03*
%TD*%
D62*
%TO.C,TP2*%
X77860000Y-90280000D03*
%TD*%
%TO.C,TP5*%
X36030000Y-96220000D03*
%TD*%
D61*
%TO.C,TP3*%
X58510000Y-89820000D03*
%TD*%
%TO.C,TP7*%
X45360000Y-98260000D03*
%TD*%
D63*
%TO.C,U2*%
X45725250Y-78600000D03*
X45725250Y-79550000D03*
X45725250Y-80500000D03*
X43450250Y-80500000D03*
X43450250Y-79550000D03*
X43450250Y-78600000D03*
%TD*%
D64*
%TO.C,U6*%
X79900000Y-73000000D03*
X78800000Y-73000000D03*
X77700000Y-73000000D03*
X76600000Y-73000000D03*
X75500000Y-73000000D03*
X74400000Y-73000000D03*
X73300000Y-73000000D03*
X72200000Y-73000000D03*
X71100000Y-73000000D03*
X70000000Y-73000000D03*
D65*
X69150000Y-67000000D03*
X69150000Y-65900000D03*
D64*
X70000000Y-63000000D03*
X71100000Y-63000000D03*
X72200000Y-63000000D03*
X73300000Y-63000000D03*
X74400000Y-63000000D03*
X75500000Y-63000000D03*
X76600000Y-63000000D03*
X77700000Y-63000000D03*
%TD*%
D66*
%TO.C,U8*%
X51050000Y-51100000D03*
X51050000Y-52500000D03*
X51050000Y-53900000D03*
X51050000Y-55300000D03*
X51050000Y-56700000D03*
X51050000Y-58100000D03*
X51050000Y-59498800D03*
X51050000Y-60898800D03*
D67*
X49650000Y-63195000D03*
X48250000Y-63195000D03*
X46850000Y-63195000D03*
X45450000Y-63195000D03*
X44050000Y-63195000D03*
X42650000Y-63195000D03*
X41250000Y-63195000D03*
X39850000Y-63195000D03*
D66*
X38450000Y-60900000D03*
X38450000Y-59500000D03*
X38450000Y-58100000D03*
X38450000Y-56700000D03*
X38450000Y-55300000D03*
X38450000Y-53900000D03*
X38450000Y-52500000D03*
X38450000Y-51100000D03*
%TD*%
D68*
%TO.C,Y1*%
X67175000Y-82250000D03*
X67175000Y-79750000D03*
%TD*%
D69*
%TO.C,Y2*%
X65700000Y-77626000D03*
X65700000Y-75426000D03*
X67400000Y-75426000D03*
X67400000Y-77626000D03*
%TD*%
D70*
%TO.C,Q1*%
X58830000Y-94510000D03*
X58830000Y-95460000D03*
X58830000Y-96410000D03*
X56510000Y-96410000D03*
X56510000Y-95460000D03*
X56510000Y-94510000D03*
%TD*%
D54*
%TO.C,R13*%
X61067500Y-91510000D03*
X62892500Y-91510000D03*
%TD*%
D57*
%TO.C,R12*%
X60990000Y-93115000D03*
X60990000Y-94940000D03*
%TD*%
%TO.C,R14*%
X60230000Y-96867500D03*
X60230000Y-98692500D03*
%TD*%
D37*
%TO.C,C15*%
X41957500Y-74420000D03*
X44032500Y-74420000D03*
%TD*%
D61*
%TO.C,TP1*%
X36000000Y-86660000D03*
%TD*%
D71*
%TO.C,D2*%
X72200000Y-76950000D03*
X72200000Y-75200000D03*
%TD*%
D42*
%TO.C,D3*%
X52705833Y-84630000D03*
X50955833Y-84630000D03*
%TD*%
D54*
%TO.C,R24*%
X66325000Y-86000000D03*
X64500000Y-86000000D03*
%TD*%
D38*
%TO.C,C14*%
X72715000Y-90240000D03*
X74790000Y-90240000D03*
%TD*%
D71*
%TO.C,FB1*%
X63300000Y-69775000D03*
X63300000Y-68025000D03*
%TD*%
D60*
%TO.C,SW3*%
X60850000Y-58500000D03*
X65550000Y-58500000D03*
%TD*%
D55*
%TO.C,R17*%
X60712500Y-66000000D03*
X62537500Y-66000000D03*
%TD*%
D72*
%TO.C,J2*%
X41800000Y-97375000D03*
X40800000Y-97375000D03*
D73*
X43100000Y-99900000D03*
X39500000Y-99900000D03*
%TD*%
D61*
%TO.C,TP16*%
X39500000Y-69750000D03*
%TD*%
D38*
%TO.C,C11*%
X72700000Y-95070000D03*
X74775000Y-95070000D03*
%TD*%
D42*
%TO.C,D4*%
X52690000Y-86630000D03*
X50940000Y-86630000D03*
%TD*%
D47*
%TO.C,J5*%
X42212500Y-93000000D03*
X42212500Y-92000000D03*
X42212500Y-91000000D03*
X42212500Y-90000000D03*
D46*
X39687500Y-94300000D03*
X39687500Y-88700000D03*
%TD*%
M02*
