%TF.GenerationSoftware,KiCad,Pcbnew,9.0.7*%
%TF.CreationDate,2026-02-10T02:00:55+07:00*%
%TF.ProjectId,tag-rounded,7461672d-726f-4756-9e64-65642e6b6963,rev?*%
%TF.SameCoordinates,Original*%
%TF.FileFunction,Legend,Bot*%
%TF.FilePolarity,Positive*%
%FSLAX46Y46*%
G04 Gerber Fmt 4.6, Leading zero omitted, Abs format (unit mm)*
G04 Created by KiCad (PCBNEW 9.0.7) date 2026-02-10 02:00:55*
%MOMM*%
%LPD*%
G01*
G04 APERTURE LIST*
%ADD10C,0.150000*%
%ADD11C,0.120000*%
%ADD12C,0.100000*%
G04 APERTURE END LIST*
D10*
X52138094Y-76904819D02*
X51566666Y-76904819D01*
X51852380Y-77904819D02*
X51852380Y-76904819D01*
X51233332Y-77904819D02*
X51233332Y-76904819D01*
X51233332Y-76904819D02*
X50852380Y-76904819D01*
X50852380Y-76904819D02*
X50757142Y-76952438D01*
X50757142Y-76952438D02*
X50709523Y-77000057D01*
X50709523Y-77000057D02*
X50661904Y-77095295D01*
X50661904Y-77095295D02*
X50661904Y-77238152D01*
X50661904Y-77238152D02*
X50709523Y-77333390D01*
X50709523Y-77333390D02*
X50757142Y-77381009D01*
X50757142Y-77381009D02*
X50852380Y-77428628D01*
X50852380Y-77428628D02*
X51233332Y-77428628D01*
X49709523Y-77904819D02*
X50280951Y-77904819D01*
X49995237Y-77904819D02*
X49995237Y-76904819D01*
X49995237Y-76904819D02*
X50090475Y-77047676D01*
X50090475Y-77047676D02*
X50185713Y-77142914D01*
X50185713Y-77142914D02*
X50280951Y-77190533D01*
X48804761Y-76904819D02*
X49280951Y-76904819D01*
X49280951Y-76904819D02*
X49328570Y-77381009D01*
X49328570Y-77381009D02*
X49280951Y-77333390D01*
X49280951Y-77333390D02*
X49185713Y-77285771D01*
X49185713Y-77285771D02*
X48947618Y-77285771D01*
X48947618Y-77285771D02*
X48852380Y-77333390D01*
X48852380Y-77333390D02*
X48804761Y-77381009D01*
X48804761Y-77381009D02*
X48757142Y-77476247D01*
X48757142Y-77476247D02*
X48757142Y-77714342D01*
X48757142Y-77714342D02*
X48804761Y-77809580D01*
X48804761Y-77809580D02*
X48852380Y-77857200D01*
X48852380Y-77857200D02*
X48947618Y-77904819D01*
X48947618Y-77904819D02*
X49185713Y-77904819D01*
X49185713Y-77904819D02*
X49280951Y-77857200D01*
X49280951Y-77857200D02*
X49328570Y-77809580D01*
X60909523Y-67312295D02*
X60452380Y-67312295D01*
X60680952Y-68112295D02*
X60680952Y-67312295D01*
X60185713Y-68112295D02*
X60185713Y-67312295D01*
X60185713Y-67312295D02*
X59880951Y-67312295D01*
X59880951Y-67312295D02*
X59804761Y-67350390D01*
X59804761Y-67350390D02*
X59766666Y-67388485D01*
X59766666Y-67388485D02*
X59728570Y-67464676D01*
X59728570Y-67464676D02*
X59728570Y-67578961D01*
X59728570Y-67578961D02*
X59766666Y-67655152D01*
X59766666Y-67655152D02*
X59804761Y-67693247D01*
X59804761Y-67693247D02*
X59880951Y-67731342D01*
X59880951Y-67731342D02*
X60185713Y-67731342D01*
X59347618Y-68112295D02*
X59195237Y-68112295D01*
X59195237Y-68112295D02*
X59119047Y-68074200D01*
X59119047Y-68074200D02*
X59080951Y-68036104D01*
X59080951Y-68036104D02*
X59004761Y-67921819D01*
X59004761Y-67921819D02*
X58966666Y-67769438D01*
X58966666Y-67769438D02*
X58966666Y-67464676D01*
X58966666Y-67464676D02*
X59004761Y-67388485D01*
X59004761Y-67388485D02*
X59042856Y-67350390D01*
X59042856Y-67350390D02*
X59119047Y-67312295D01*
X59119047Y-67312295D02*
X59271428Y-67312295D01*
X59271428Y-67312295D02*
X59347618Y-67350390D01*
X59347618Y-67350390D02*
X59385713Y-67388485D01*
X59385713Y-67388485D02*
X59423809Y-67464676D01*
X59423809Y-67464676D02*
X59423809Y-67655152D01*
X59423809Y-67655152D02*
X59385713Y-67731342D01*
X59385713Y-67731342D02*
X59347618Y-67769438D01*
X59347618Y-67769438D02*
X59271428Y-67807533D01*
X59271428Y-67807533D02*
X59119047Y-67807533D01*
X59119047Y-67807533D02*
X59042856Y-67769438D01*
X59042856Y-67769438D02*
X59004761Y-67731342D01*
X59004761Y-67731342D02*
X58966666Y-67655152D01*
X59540476Y-63012295D02*
X59083333Y-63012295D01*
X59311905Y-63812295D02*
X59311905Y-63012295D01*
X58816666Y-63812295D02*
X58816666Y-63012295D01*
X58816666Y-63012295D02*
X58511904Y-63012295D01*
X58511904Y-63012295D02*
X58435714Y-63050390D01*
X58435714Y-63050390D02*
X58397619Y-63088485D01*
X58397619Y-63088485D02*
X58359523Y-63164676D01*
X58359523Y-63164676D02*
X58359523Y-63278961D01*
X58359523Y-63278961D02*
X58397619Y-63355152D01*
X58397619Y-63355152D02*
X58435714Y-63393247D01*
X58435714Y-63393247D02*
X58511904Y-63431342D01*
X58511904Y-63431342D02*
X58816666Y-63431342D01*
X57597619Y-63812295D02*
X58054762Y-63812295D01*
X57826190Y-63812295D02*
X57826190Y-63012295D01*
X57826190Y-63012295D02*
X57902381Y-63126580D01*
X57902381Y-63126580D02*
X57978571Y-63202771D01*
X57978571Y-63202771D02*
X58054762Y-63240866D01*
X57102380Y-63012295D02*
X57026190Y-63012295D01*
X57026190Y-63012295D02*
X56949999Y-63050390D01*
X56949999Y-63050390D02*
X56911904Y-63088485D01*
X56911904Y-63088485D02*
X56873809Y-63164676D01*
X56873809Y-63164676D02*
X56835714Y-63317057D01*
X56835714Y-63317057D02*
X56835714Y-63507533D01*
X56835714Y-63507533D02*
X56873809Y-63659914D01*
X56873809Y-63659914D02*
X56911904Y-63736104D01*
X56911904Y-63736104D02*
X56949999Y-63774200D01*
X56949999Y-63774200D02*
X57026190Y-63812295D01*
X57026190Y-63812295D02*
X57102380Y-63812295D01*
X57102380Y-63812295D02*
X57178571Y-63774200D01*
X57178571Y-63774200D02*
X57216666Y-63736104D01*
X57216666Y-63736104D02*
X57254761Y-63659914D01*
X57254761Y-63659914D02*
X57292857Y-63507533D01*
X57292857Y-63507533D02*
X57292857Y-63317057D01*
X57292857Y-63317057D02*
X57254761Y-63164676D01*
X57254761Y-63164676D02*
X57216666Y-63088485D01*
X57216666Y-63088485D02*
X57178571Y-63050390D01*
X57178571Y-63050390D02*
X57102380Y-63012295D01*
X76390476Y-70912295D02*
X75933333Y-70912295D01*
X76161905Y-71712295D02*
X76161905Y-70912295D01*
X75666666Y-71712295D02*
X75666666Y-70912295D01*
X75666666Y-70912295D02*
X75361904Y-70912295D01*
X75361904Y-70912295D02*
X75285714Y-70950390D01*
X75285714Y-70950390D02*
X75247619Y-70988485D01*
X75247619Y-70988485D02*
X75209523Y-71064676D01*
X75209523Y-71064676D02*
X75209523Y-71178961D01*
X75209523Y-71178961D02*
X75247619Y-71255152D01*
X75247619Y-71255152D02*
X75285714Y-71293247D01*
X75285714Y-71293247D02*
X75361904Y-71331342D01*
X75361904Y-71331342D02*
X75666666Y-71331342D01*
X74447619Y-71712295D02*
X74904762Y-71712295D01*
X74676190Y-71712295D02*
X74676190Y-70912295D01*
X74676190Y-70912295D02*
X74752381Y-71026580D01*
X74752381Y-71026580D02*
X74828571Y-71102771D01*
X74828571Y-71102771D02*
X74904762Y-71140866D01*
X73685714Y-71712295D02*
X74142857Y-71712295D01*
X73914285Y-71712295D02*
X73914285Y-70912295D01*
X73914285Y-70912295D02*
X73990476Y-71026580D01*
X73990476Y-71026580D02*
X74066666Y-71102771D01*
X74066666Y-71102771D02*
X74142857Y-71140866D01*
X60840476Y-64812295D02*
X60383333Y-64812295D01*
X60611905Y-65612295D02*
X60611905Y-64812295D01*
X60116666Y-65612295D02*
X60116666Y-64812295D01*
X60116666Y-64812295D02*
X59811904Y-64812295D01*
X59811904Y-64812295D02*
X59735714Y-64850390D01*
X59735714Y-64850390D02*
X59697619Y-64888485D01*
X59697619Y-64888485D02*
X59659523Y-64964676D01*
X59659523Y-64964676D02*
X59659523Y-65078961D01*
X59659523Y-65078961D02*
X59697619Y-65155152D01*
X59697619Y-65155152D02*
X59735714Y-65193247D01*
X59735714Y-65193247D02*
X59811904Y-65231342D01*
X59811904Y-65231342D02*
X60116666Y-65231342D01*
X58897619Y-65612295D02*
X59354762Y-65612295D01*
X59126190Y-65612295D02*
X59126190Y-64812295D01*
X59126190Y-64812295D02*
X59202381Y-64926580D01*
X59202381Y-64926580D02*
X59278571Y-65002771D01*
X59278571Y-65002771D02*
X59354762Y-65040866D01*
X58630952Y-64812295D02*
X58135714Y-64812295D01*
X58135714Y-64812295D02*
X58402380Y-65117057D01*
X58402380Y-65117057D02*
X58288095Y-65117057D01*
X58288095Y-65117057D02*
X58211904Y-65155152D01*
X58211904Y-65155152D02*
X58173809Y-65193247D01*
X58173809Y-65193247D02*
X58135714Y-65269438D01*
X58135714Y-65269438D02*
X58135714Y-65459914D01*
X58135714Y-65459914D02*
X58173809Y-65536104D01*
X58173809Y-65536104D02*
X58211904Y-65574200D01*
X58211904Y-65574200D02*
X58288095Y-65612295D01*
X58288095Y-65612295D02*
X58516666Y-65612295D01*
X58516666Y-65612295D02*
X58592857Y-65574200D01*
X58592857Y-65574200D02*
X58630952Y-65536104D01*
X53590476Y-66462295D02*
X53133333Y-66462295D01*
X53361905Y-67262295D02*
X53361905Y-66462295D01*
X52866666Y-67262295D02*
X52866666Y-66462295D01*
X52866666Y-66462295D02*
X52561904Y-66462295D01*
X52561904Y-66462295D02*
X52485714Y-66500390D01*
X52485714Y-66500390D02*
X52447619Y-66538485D01*
X52447619Y-66538485D02*
X52409523Y-66614676D01*
X52409523Y-66614676D02*
X52409523Y-66728961D01*
X52409523Y-66728961D02*
X52447619Y-66805152D01*
X52447619Y-66805152D02*
X52485714Y-66843247D01*
X52485714Y-66843247D02*
X52561904Y-66881342D01*
X52561904Y-66881342D02*
X52866666Y-66881342D01*
X51647619Y-67262295D02*
X52104762Y-67262295D01*
X51876190Y-67262295D02*
X51876190Y-66462295D01*
X51876190Y-66462295D02*
X51952381Y-66576580D01*
X51952381Y-66576580D02*
X52028571Y-66652771D01*
X52028571Y-66652771D02*
X52104762Y-66690866D01*
X50961904Y-66728961D02*
X50961904Y-67262295D01*
X51152380Y-66424200D02*
X51342857Y-66995628D01*
X51342857Y-66995628D02*
X50847618Y-66995628D01*
X73359523Y-67712295D02*
X72902380Y-67712295D01*
X73130952Y-68512295D02*
X73130952Y-67712295D01*
X72635713Y-68512295D02*
X72635713Y-67712295D01*
X72635713Y-67712295D02*
X72330951Y-67712295D01*
X72330951Y-67712295D02*
X72254761Y-67750390D01*
X72254761Y-67750390D02*
X72216666Y-67788485D01*
X72216666Y-67788485D02*
X72178570Y-67864676D01*
X72178570Y-67864676D02*
X72178570Y-67978961D01*
X72178570Y-67978961D02*
X72216666Y-68055152D01*
X72216666Y-68055152D02*
X72254761Y-68093247D01*
X72254761Y-68093247D02*
X72330951Y-68131342D01*
X72330951Y-68131342D02*
X72635713Y-68131342D01*
X71492856Y-67978961D02*
X71492856Y-68512295D01*
X71683332Y-67674200D02*
X71873809Y-68245628D01*
X71873809Y-68245628D02*
X71378570Y-68245628D01*
X69311904Y-81929819D02*
X68740476Y-81929819D01*
X69026190Y-82929819D02*
X69026190Y-81929819D01*
X68407142Y-82929819D02*
X68407142Y-81929819D01*
X68407142Y-81929819D02*
X68026190Y-81929819D01*
X68026190Y-81929819D02*
X67930952Y-81977438D01*
X67930952Y-81977438D02*
X67883333Y-82025057D01*
X67883333Y-82025057D02*
X67835714Y-82120295D01*
X67835714Y-82120295D02*
X67835714Y-82263152D01*
X67835714Y-82263152D02*
X67883333Y-82358390D01*
X67883333Y-82358390D02*
X67930952Y-82406009D01*
X67930952Y-82406009D02*
X68026190Y-82453628D01*
X68026190Y-82453628D02*
X68407142Y-82453628D01*
X67264285Y-82358390D02*
X67359523Y-82310771D01*
X67359523Y-82310771D02*
X67407142Y-82263152D01*
X67407142Y-82263152D02*
X67454761Y-82167914D01*
X67454761Y-82167914D02*
X67454761Y-82120295D01*
X67454761Y-82120295D02*
X67407142Y-82025057D01*
X67407142Y-82025057D02*
X67359523Y-81977438D01*
X67359523Y-81977438D02*
X67264285Y-81929819D01*
X67264285Y-81929819D02*
X67073809Y-81929819D01*
X67073809Y-81929819D02*
X66978571Y-81977438D01*
X66978571Y-81977438D02*
X66930952Y-82025057D01*
X66930952Y-82025057D02*
X66883333Y-82120295D01*
X66883333Y-82120295D02*
X66883333Y-82167914D01*
X66883333Y-82167914D02*
X66930952Y-82263152D01*
X66930952Y-82263152D02*
X66978571Y-82310771D01*
X66978571Y-82310771D02*
X67073809Y-82358390D01*
X67073809Y-82358390D02*
X67264285Y-82358390D01*
X67264285Y-82358390D02*
X67359523Y-82406009D01*
X67359523Y-82406009D02*
X67407142Y-82453628D01*
X67407142Y-82453628D02*
X67454761Y-82548866D01*
X67454761Y-82548866D02*
X67454761Y-82739342D01*
X67454761Y-82739342D02*
X67407142Y-82834580D01*
X67407142Y-82834580D02*
X67359523Y-82882200D01*
X67359523Y-82882200D02*
X67264285Y-82929819D01*
X67264285Y-82929819D02*
X67073809Y-82929819D01*
X67073809Y-82929819D02*
X66978571Y-82882200D01*
X66978571Y-82882200D02*
X66930952Y-82834580D01*
X66930952Y-82834580D02*
X66883333Y-82739342D01*
X66883333Y-82739342D02*
X66883333Y-82548866D01*
X66883333Y-82548866D02*
X66930952Y-82453628D01*
X66930952Y-82453628D02*
X66978571Y-82406009D01*
X66978571Y-82406009D02*
X67073809Y-82358390D01*
X42108094Y-59934819D02*
X41536666Y-59934819D01*
X41822380Y-60934819D02*
X41822380Y-59934819D01*
X41203332Y-60934819D02*
X41203332Y-59934819D01*
X41203332Y-59934819D02*
X40822380Y-59934819D01*
X40822380Y-59934819D02*
X40727142Y-59982438D01*
X40727142Y-59982438D02*
X40679523Y-60030057D01*
X40679523Y-60030057D02*
X40631904Y-60125295D01*
X40631904Y-60125295D02*
X40631904Y-60268152D01*
X40631904Y-60268152D02*
X40679523Y-60363390D01*
X40679523Y-60363390D02*
X40727142Y-60411009D01*
X40727142Y-60411009D02*
X40822380Y-60458628D01*
X40822380Y-60458628D02*
X41203332Y-60458628D01*
X39679523Y-60934819D02*
X40250951Y-60934819D01*
X39965237Y-60934819D02*
X39965237Y-59934819D01*
X39965237Y-59934819D02*
X40060475Y-60077676D01*
X40060475Y-60077676D02*
X40155713Y-60172914D01*
X40155713Y-60172914D02*
X40250951Y-60220533D01*
X39298570Y-60030057D02*
X39250951Y-59982438D01*
X39250951Y-59982438D02*
X39155713Y-59934819D01*
X39155713Y-59934819D02*
X38917618Y-59934819D01*
X38917618Y-59934819D02*
X38822380Y-59982438D01*
X38822380Y-59982438D02*
X38774761Y-60030057D01*
X38774761Y-60030057D02*
X38727142Y-60125295D01*
X38727142Y-60125295D02*
X38727142Y-60220533D01*
X38727142Y-60220533D02*
X38774761Y-60363390D01*
X38774761Y-60363390D02*
X39346189Y-60934819D01*
X39346189Y-60934819D02*
X38727142Y-60934819D01*
D11*
%TO.C,TP15*%
X51400000Y-75600000D02*
G75*
G02*
X50000000Y-75600000I-700000J0D01*
G01*
X50000000Y-75600000D02*
G75*
G02*
X51400000Y-75600000I700000J0D01*
G01*
D12*
%TO.C,TP9*%
X58400000Y-67000000D02*
G75*
G02*
X57000000Y-67000000I-700000J0D01*
G01*
X57000000Y-67000000D02*
G75*
G02*
X58400000Y-67000000I700000J0D01*
G01*
%TO.C,TP10*%
X56600000Y-62950000D02*
G75*
G02*
X55200000Y-62950000I-700000J0D01*
G01*
X55200000Y-62950000D02*
G75*
G02*
X56600000Y-62950000I700000J0D01*
G01*
%TO.C,TP11*%
X75700000Y-69700000D02*
G75*
G02*
X74300000Y-69700000I-700000J0D01*
G01*
X74300000Y-69700000D02*
G75*
G02*
X75700000Y-69700000I700000J0D01*
G01*
%TO.C,TP13*%
X57450000Y-64950000D02*
G75*
G02*
X56050000Y-64950000I-700000J0D01*
G01*
X56050000Y-64950000D02*
G75*
G02*
X57450000Y-64950000I700000J0D01*
G01*
%TO.C,TP14*%
X52900000Y-65050000D02*
G75*
G02*
X51500000Y-65050000I-700000J0D01*
G01*
X51500000Y-65050000D02*
G75*
G02*
X52900000Y-65050000I700000J0D01*
G01*
%TO.C,TP4*%
X73050000Y-66400000D02*
G75*
G02*
X71650000Y-66400000I-700000J0D01*
G01*
X71650000Y-66400000D02*
G75*
G02*
X73050000Y-66400000I700000J0D01*
G01*
%TO.C,TP8*%
X68900000Y-79475000D02*
X67200000Y-79475000D01*
X67200000Y-81175000D01*
X68900000Y-81175000D01*
X68900000Y-79475000D01*
D11*
%TO.C,TP12*%
X41070000Y-58680000D02*
G75*
G02*
X39670000Y-58680000I-700000J0D01*
G01*
X39670000Y-58680000D02*
G75*
G02*
X41070000Y-58680000I700000J0D01*
G01*
%TD*%
M02*
