%TF.GenerationSoftware,KiCad,Pcbnew,9.0.7*%
%TF.CreationDate,2026-04-10T12:37:13+07:00*%
%TF.ProjectId,anchor,616e6368-6f72-42e6-9b69-6361645f7063,rev?*%
%TF.SameCoordinates,Original*%
%TF.FileFunction,Legend,Top*%
%TF.FilePolarity,Positive*%
%FSLAX46Y46*%
G04 Gerber Fmt 4.6, Leading zero omitted, Abs format (unit mm)*
G04 Created by KiCad (PCBNEW 9.0.7) date 2026-04-10 12:37:13*
%MOMM*%
%LPD*%
G01*
G04 APERTURE LIST*
G04 Aperture macros list*
%AMRoundRect*
0 Rectangle with rounded corners*
0 $1 Rounding radius*
0 $2 $3 $4 $5 $6 $7 $8 $9 X,Y pos of 4 corners*
0 Add a 4 corners polygon primitive as box body*
4,1,4,$2,$3,$4,$5,$6,$7,$8,$9,$2,$3,0*
0 Add four circle primitives for the rounded corners*
1,1,$1+$1,$2,$3*
1,1,$1+$1,$4,$5*
1,1,$1+$1,$6,$7*
1,1,$1+$1,$8,$9*
0 Add four rect primitives between the rounded corners*
20,1,$1+$1,$2,$3,$4,$5,0*
20,1,$1+$1,$4,$5,$6,$7,0*
20,1,$1+$1,$6,$7,$8,$9,0*
20,1,$1+$1,$8,$9,$2,$3,0*%
G04 Aperture macros list end*
%ADD10C,0.005999*%
%ADD11C,0.150000*%
%ADD12C,0.250000*%
%ADD13C,0.120000*%
%ADD14C,0.160000*%
%ADD15C,0.127000*%
%ADD16C,0.200000*%
%ADD17C,0.100000*%
%ADD18C,0.000000*%
%ADD19C,0.010000*%
%ADD20RoundRect,0.102000X0.300000X0.775000X-0.300000X0.775000X-0.300000X-0.775000X0.300000X-0.775000X0*%
%ADD21RoundRect,0.102000X0.600000X0.900000X-0.600000X0.900000X-0.600000X-0.900000X0.600000X-0.900000X0*%
%ADD22RoundRect,0.237500X-0.237500X0.250000X-0.237500X-0.250000X0.237500X-0.250000X0.237500X0.250000X0*%
%ADD23RoundRect,0.237500X0.250000X0.237500X-0.250000X0.237500X-0.250000X-0.237500X0.250000X-0.237500X0*%
%ADD24RoundRect,0.237500X0.237500X-0.250000X0.237500X0.250000X-0.237500X0.250000X-0.237500X-0.250000X0*%
%ADD25RoundRect,0.250000X-0.337500X-0.475000X0.337500X-0.475000X0.337500X0.475000X-0.337500X0.475000X0*%
%ADD26RoundRect,0.237500X-0.237500X0.300000X-0.237500X-0.300000X0.237500X-0.300000X0.237500X0.300000X0*%
%ADD27C,2.200000*%
%ADD28RoundRect,0.237500X0.237500X-0.287500X0.237500X0.287500X-0.237500X0.287500X-0.237500X-0.287500X0*%
%ADD29RoundRect,0.250000X0.275000X0.250000X-0.275000X0.250000X-0.275000X-0.250000X0.275000X-0.250000X0*%
%ADD30RoundRect,0.250000X0.850000X0.275000X-0.850000X0.275000X-0.850000X-0.275000X0.850000X-0.275000X0*%
%ADD31RoundRect,0.102000X-0.300000X-0.775000X0.300000X-0.775000X0.300000X0.775000X-0.300000X0.775000X0*%
%ADD32RoundRect,0.102000X-0.600000X-0.900000X0.600000X-0.900000X0.600000X0.900000X-0.600000X0.900000X0*%
%ADD33RoundRect,0.237500X-0.287500X-0.237500X0.287500X-0.237500X0.287500X0.237500X-0.287500X0.237500X0*%
%ADD34RoundRect,0.237500X0.287500X0.237500X-0.287500X0.237500X-0.287500X-0.237500X0.287500X-0.237500X0*%
%ADD35RoundRect,0.250000X0.475000X-0.337500X0.475000X0.337500X-0.475000X0.337500X-0.475000X-0.337500X0*%
%ADD36RoundRect,0.150000X-0.150000X-0.625000X0.150000X-0.625000X0.150000X0.625000X-0.150000X0.625000X0*%
%ADD37RoundRect,0.250000X-0.350000X-0.650000X0.350000X-0.650000X0.350000X0.650000X-0.350000X0.650000X0*%
%ADD38RoundRect,0.237500X0.237500X-0.300000X0.237500X0.300000X-0.237500X0.300000X-0.237500X-0.300000X0*%
%ADD39RoundRect,0.250000X0.475000X-0.250000X0.475000X0.250000X-0.475000X0.250000X-0.475000X-0.250000X0*%
%ADD40RoundRect,0.237500X-0.250000X-0.237500X0.250000X-0.237500X0.250000X0.237500X-0.250000X0.237500X0*%
%ADD41R,1.500000X1.500000*%
%ADD42RoundRect,0.150000X-0.150000X0.587500X-0.150000X-0.587500X0.150000X-0.587500X0.150000X0.587500X0*%
%ADD43RoundRect,0.237500X0.300000X0.237500X-0.300000X0.237500X-0.300000X-0.237500X0.300000X-0.237500X0*%
%ADD44R,2.450000X1.000000*%
%ADD45R,1.000000X2.450000*%
%ADD46RoundRect,0.250000X0.337500X0.475000X-0.337500X0.475000X-0.337500X-0.475000X0.337500X-0.475000X0*%
%ADD47RoundRect,0.087500X0.087500X-0.175000X0.087500X0.175000X-0.087500X0.175000X-0.087500X-0.175000X0*%
%ADD48R,1.600000X1.400000*%
%ADD49C,1.500000*%
%ADD50RoundRect,0.250000X0.350000X-0.450000X0.350000X0.450000X-0.350000X0.450000X-0.350000X-0.450000X0*%
%ADD51RoundRect,0.250000X-0.475000X0.337500X-0.475000X-0.337500X0.475000X-0.337500X0.475000X0.337500X0*%
%ADD52RoundRect,0.350000X0.550000X0.350000X-0.550000X0.350000X-0.550000X-0.350000X0.550000X-0.350000X0*%
%ADD53C,0.650000*%
%ADD54R,1.450000X0.600000*%
%ADD55R,1.450000X0.300000*%
%ADD56O,2.100000X1.000000*%
%ADD57O,1.600000X1.000000*%
%ADD58RoundRect,0.140000X0.140000X0.170000X-0.140000X0.170000X-0.140000X-0.170000X0.140000X-0.170000X0*%
%ADD59RoundRect,0.190000X-1.135000X-0.190000X1.135000X-0.190000X1.135000X0.190000X-1.135000X0.190000X0*%
%ADD60RoundRect,0.062500X0.375000X0.062500X-0.375000X0.062500X-0.375000X-0.062500X0.375000X-0.062500X0*%
%ADD61RoundRect,0.062500X0.062500X0.375000X-0.062500X0.375000X-0.062500X-0.375000X0.062500X-0.375000X0*%
%ADD62R,5.600000X5.600000*%
%ADD63R,0.600000X1.800000*%
%ADD64R,1.800000X0.600000*%
%ADD65RoundRect,0.237500X-0.300000X-0.237500X0.300000X-0.237500X0.300000X0.237500X-0.300000X0.237500X0*%
%ADD66RoundRect,0.112500X0.187500X0.112500X-0.187500X0.112500X-0.187500X-0.112500X0.187500X-0.112500X0*%
%ADD67RoundRect,0.102000X-0.775000X0.300000X-0.775000X-0.300000X0.775000X-0.300000X0.775000X0.300000X0*%
%ADD68RoundRect,0.102000X-0.900000X0.600000X-0.900000X-0.600000X0.900000X-0.600000X0.900000X0.600000X0*%
%ADD69RoundRect,0.062500X-0.375000X-0.062500X0.375000X-0.062500X0.375000X0.062500X-0.375000X0.062500X0*%
%ADD70RoundRect,0.062500X-0.062500X-0.375000X0.062500X-0.375000X0.062500X0.375000X-0.062500X0.375000X0*%
%ADD71R,1.600000X1.600000*%
%ADD72C,0.900000*%
%ADD73RoundRect,0.187500X-0.187500X-0.712500X0.187500X-0.712500X0.187500X0.712500X-0.187500X0.712500X0*%
%ADD74RoundRect,0.150000X-0.150000X-0.750000X0.150000X-0.750000X0.150000X0.750000X-0.150000X0.750000X0*%
%ADD75RoundRect,0.225000X-0.425000X-0.225000X0.425000X-0.225000X0.425000X0.225000X-0.425000X0.225000X0*%
%ADD76RoundRect,0.250000X-0.350000X-0.450000X0.350000X-0.450000X0.350000X0.450000X-0.350000X0.450000X0*%
%ADD77RoundRect,0.250000X0.550000X-0.550000X0.550000X0.550000X-0.550000X0.550000X-0.550000X-0.550000X0*%
%ADD78C,1.600000*%
%ADD79RoundRect,0.147500X-0.172500X0.147500X-0.172500X-0.147500X0.172500X-0.147500X0.172500X0.147500X0*%
%ADD80RoundRect,0.350000X-0.550000X-0.350000X0.550000X-0.350000X0.550000X0.350000X-0.550000X0.350000X0*%
%ADD81RoundRect,0.250000X0.350000X0.450000X-0.350000X0.450000X-0.350000X-0.450000X0.350000X-0.450000X0*%
%ADD82RoundRect,0.250000X0.625000X-0.375000X0.625000X0.375000X-0.625000X0.375000X-0.625000X-0.375000X0*%
%ADD83RoundRect,0.150000X-0.512500X-0.150000X0.512500X-0.150000X0.512500X0.150000X-0.512500X0.150000X0*%
%ADD84RoundRect,0.250000X0.300000X1.600000X-0.300000X1.600000X-0.300000X-1.600000X0.300000X-1.600000X0*%
G04 APERTURE END LIST*
D10*
X216238976Y-94803118D02*
X216245824Y-94814580D01*
X216261178Y-94840801D01*
X216284276Y-94880521D01*
X216314397Y-94932418D01*
X216350762Y-94995177D01*
X216392583Y-95067481D01*
X216439138Y-95147997D01*
X216489657Y-95235480D01*
X216543416Y-95328539D01*
X216598678Y-95424358D01*
X216655138Y-95522219D01*
X216709319Y-95616179D01*
X216760497Y-95704857D01*
X216807839Y-95786879D01*
X216850558Y-95860918D01*
X216887884Y-95925600D01*
X216919021Y-95979598D01*
X216943200Y-96021479D01*
X216959643Y-96049919D01*
X216967379Y-96063240D01*
X216979977Y-96085739D01*
X216986816Y-96099839D01*
X216987237Y-96102297D01*
X216978841Y-96097678D01*
X216955624Y-96084481D01*
X216918783Y-96063359D01*
X216869463Y-96034978D01*
X216808919Y-96000119D01*
X216738360Y-95959438D01*
X216658984Y-95913597D01*
X216572036Y-95863381D01*
X216478744Y-95809438D01*
X216380279Y-95752501D01*
X216342779Y-95730780D01*
X216242583Y-95672818D01*
X216146938Y-95617498D01*
X216057116Y-95565660D01*
X215974316Y-95517897D01*
X215899801Y-95474941D01*
X215834762Y-95437560D01*
X215780462Y-95406359D01*
X215738164Y-95382120D01*
X215708996Y-95365558D01*
X215694301Y-95357337D01*
X215692736Y-95356559D01*
X215697240Y-95349477D01*
X215712841Y-95330640D01*
X215738036Y-95301718D01*
X215771096Y-95264461D01*
X215810583Y-95220598D01*
X215854803Y-95171938D01*
X215902199Y-95120101D01*
X215951098Y-95066941D01*
X216000060Y-95014078D01*
X216047338Y-94963321D01*
X216091384Y-94916400D01*
X216130624Y-94875060D01*
X216163436Y-94840979D01*
X216188283Y-94815958D01*
X216196798Y-94807801D01*
X216224996Y-94781278D01*
X216238976Y-94803118D01*
G36*
X216238976Y-94803118D02*
G01*
X216245824Y-94814580D01*
X216261178Y-94840801D01*
X216284276Y-94880521D01*
X216314397Y-94932418D01*
X216350762Y-94995177D01*
X216392583Y-95067481D01*
X216439138Y-95147997D01*
X216489657Y-95235480D01*
X216543416Y-95328539D01*
X216598678Y-95424358D01*
X216655138Y-95522219D01*
X216709319Y-95616179D01*
X216760497Y-95704857D01*
X216807839Y-95786879D01*
X216850558Y-95860918D01*
X216887884Y-95925600D01*
X216919021Y-95979598D01*
X216943200Y-96021479D01*
X216959643Y-96049919D01*
X216967379Y-96063240D01*
X216979977Y-96085739D01*
X216986816Y-96099839D01*
X216987237Y-96102297D01*
X216978841Y-96097678D01*
X216955624Y-96084481D01*
X216918783Y-96063359D01*
X216869463Y-96034978D01*
X216808919Y-96000119D01*
X216738360Y-95959438D01*
X216658984Y-95913597D01*
X216572036Y-95863381D01*
X216478744Y-95809438D01*
X216380279Y-95752501D01*
X216342779Y-95730780D01*
X216242583Y-95672818D01*
X216146938Y-95617498D01*
X216057116Y-95565660D01*
X215974316Y-95517897D01*
X215899801Y-95474941D01*
X215834762Y-95437560D01*
X215780462Y-95406359D01*
X215738164Y-95382120D01*
X215708996Y-95365558D01*
X215694301Y-95357337D01*
X215692736Y-95356559D01*
X215697240Y-95349477D01*
X215712841Y-95330640D01*
X215738036Y-95301718D01*
X215771096Y-95264461D01*
X215810583Y-95220598D01*
X215854803Y-95171938D01*
X215902199Y-95120101D01*
X215951098Y-95066941D01*
X216000060Y-95014078D01*
X216047338Y-94963321D01*
X216091384Y-94916400D01*
X216130624Y-94875060D01*
X216163436Y-94840979D01*
X216188283Y-94815958D01*
X216196798Y-94807801D01*
X216224996Y-94781278D01*
X216238976Y-94803118D01*
G37*
X214039742Y-94837079D02*
X214059243Y-94844577D01*
X214088998Y-94859578D01*
X214131716Y-94883098D01*
X214135021Y-94884961D01*
X214174380Y-94907460D01*
X214207558Y-94927140D01*
X214231380Y-94942081D01*
X214242477Y-94950238D01*
X214242779Y-94950659D01*
X214240078Y-94961998D01*
X214227782Y-94987317D01*
X214206597Y-95025238D01*
X214177383Y-95074439D01*
X214140899Y-95133417D01*
X214097997Y-95200919D01*
X214087322Y-95217481D01*
X214059536Y-95263381D01*
X214039257Y-95302918D01*
X214028399Y-95332439D01*
X214027264Y-95338257D01*
X214027740Y-95363938D01*
X214033324Y-95404679D01*
X214043276Y-95457839D01*
X214056899Y-95520900D01*
X214073516Y-95591098D01*
X214092422Y-95665920D01*
X214112939Y-95742719D01*
X214134362Y-95818918D01*
X214155959Y-95891881D01*
X214177135Y-95959017D01*
X214197121Y-96017638D01*
X214215176Y-96065218D01*
X214227837Y-96093421D01*
X214242660Y-96123477D01*
X214256704Y-96152280D01*
X214257482Y-96153841D01*
X214280700Y-96182877D01*
X214314602Y-96202437D01*
X214354024Y-96211858D01*
X214393978Y-96210297D01*
X214429198Y-96197219D01*
X214449056Y-96179998D01*
X214477621Y-96132720D01*
X214498504Y-96073801D01*
X214510021Y-96009238D01*
X214511642Y-95972640D01*
X214505096Y-95904300D01*
X214485842Y-95847780D01*
X214452901Y-95800200D01*
X214442638Y-95789580D01*
X214412096Y-95759880D01*
X214410000Y-95550000D01*
X214407903Y-95340061D01*
X214461361Y-95259059D01*
X214486501Y-95222397D01*
X214510616Y-95189461D01*
X214530419Y-95164737D01*
X214538943Y-95155678D01*
X214563058Y-95133239D01*
X214595696Y-95150821D01*
X214616277Y-95163419D01*
X214627557Y-95173201D01*
X214628280Y-95174941D01*
X214636016Y-95182379D01*
X214649218Y-95187960D01*
X214661944Y-95192940D01*
X214681499Y-95202420D01*
X214709460Y-95217357D01*
X214747564Y-95238657D01*
X214797478Y-95267217D01*
X214860897Y-95303998D01*
X214895339Y-95324099D01*
X214935842Y-95348218D01*
X214962420Y-95365380D01*
X214977416Y-95377561D01*
X214983120Y-95386917D01*
X214981975Y-95395258D01*
X214981023Y-95397240D01*
X214971722Y-95409540D01*
X214951736Y-95432579D01*
X214923537Y-95463781D01*
X214889278Y-95500617D01*
X214859698Y-95531818D01*
X214791482Y-95605921D01*
X214738143Y-95670117D01*
X214699142Y-95725081D01*
X214674056Y-95771517D01*
X214665597Y-95795101D01*
X214662118Y-95815677D01*
X214658520Y-95850898D01*
X214655096Y-95896619D01*
X214652221Y-95948877D01*
X214650838Y-95981937D01*
X214648980Y-96039061D01*
X214648138Y-96080818D01*
X214648623Y-96110399D01*
X214650600Y-96131099D01*
X214654436Y-96145981D01*
X214660323Y-96158400D01*
X214664937Y-96166017D01*
X214691524Y-96195177D01*
X214725838Y-96215520D01*
X214761901Y-96224401D01*
X214788964Y-96221219D01*
X214813436Y-96207299D01*
X214844097Y-96182460D01*
X214876681Y-96150898D01*
X214906921Y-96117060D01*
X214930376Y-96085259D01*
X214939019Y-96069901D01*
X214951983Y-96048839D01*
X214975558Y-96016800D01*
X215007537Y-95976238D01*
X215045879Y-95929679D01*
X215088296Y-95879640D01*
X215132763Y-95828577D01*
X215177038Y-95779079D01*
X215219042Y-95733541D01*
X215256597Y-95694599D01*
X215286059Y-95665979D01*
X215318761Y-95637360D01*
X215346236Y-95616298D01*
X215365563Y-95604900D01*
X215371981Y-95603701D01*
X215381823Y-95608741D01*
X215406304Y-95622240D01*
X215444042Y-95643480D01*
X215493600Y-95671619D01*
X215553658Y-95705759D01*
X215622716Y-95745117D01*
X215699337Y-95788980D01*
X215782201Y-95836437D01*
X215869799Y-95886658D01*
X215960821Y-95938921D01*
X216053756Y-95992379D01*
X216147240Y-96046138D01*
X216239818Y-96099477D01*
X216330181Y-96151621D01*
X216416817Y-96201599D01*
X216498299Y-96248758D01*
X216573299Y-96292140D01*
X216640316Y-96331078D01*
X216698040Y-96364678D01*
X216744961Y-96392098D01*
X216779696Y-96412619D01*
X216800817Y-96425341D01*
X216806997Y-96429360D01*
X216798720Y-96430138D01*
X216772738Y-96430921D01*
X216729900Y-96431639D01*
X216671096Y-96432358D01*
X216597121Y-96433017D01*
X216508919Y-96433681D01*
X216407342Y-96434281D01*
X216293157Y-96434821D01*
X216167400Y-96435361D01*
X216030776Y-96435778D01*
X215884200Y-96436199D01*
X215728615Y-96436560D01*
X215564764Y-96436798D01*
X215393642Y-96437041D01*
X215215984Y-96437160D01*
X215032741Y-96437279D01*
X214955819Y-96437279D01*
X213095879Y-96437279D01*
X213228539Y-96207239D01*
X213256618Y-96158579D01*
X213292736Y-96095879D01*
X213335757Y-96021241D01*
X213384417Y-95936820D01*
X213437517Y-95844658D01*
X213493804Y-95746921D01*
X213552178Y-95645641D01*
X213611339Y-95542919D01*
X213670144Y-95440860D01*
X213684957Y-95415061D01*
X213739202Y-95321100D01*
X213790856Y-95231639D01*
X213839223Y-95148120D01*
X213883562Y-95071797D01*
X213923040Y-95003998D01*
X213956878Y-94946160D01*
X213984362Y-94899477D01*
X214004641Y-94865337D01*
X214017000Y-94845117D01*
X214020479Y-94839958D01*
X214027740Y-94835880D01*
X214039742Y-94837079D01*
G36*
X214039742Y-94837079D02*
G01*
X214059243Y-94844577D01*
X214088998Y-94859578D01*
X214131716Y-94883098D01*
X214135021Y-94884961D01*
X214174380Y-94907460D01*
X214207558Y-94927140D01*
X214231380Y-94942081D01*
X214242477Y-94950238D01*
X214242779Y-94950659D01*
X214240078Y-94961998D01*
X214227782Y-94987317D01*
X214206597Y-95025238D01*
X214177383Y-95074439D01*
X214140899Y-95133417D01*
X214097997Y-95200919D01*
X214087322Y-95217481D01*
X214059536Y-95263381D01*
X214039257Y-95302918D01*
X214028399Y-95332439D01*
X214027264Y-95338257D01*
X214027740Y-95363938D01*
X214033324Y-95404679D01*
X214043276Y-95457839D01*
X214056899Y-95520900D01*
X214073516Y-95591098D01*
X214092422Y-95665920D01*
X214112939Y-95742719D01*
X214134362Y-95818918D01*
X214155959Y-95891881D01*
X214177135Y-95959017D01*
X214197121Y-96017638D01*
X214215176Y-96065218D01*
X214227837Y-96093421D01*
X214242660Y-96123477D01*
X214256704Y-96152280D01*
X214257482Y-96153841D01*
X214280700Y-96182877D01*
X214314602Y-96202437D01*
X214354024Y-96211858D01*
X214393978Y-96210297D01*
X214429198Y-96197219D01*
X214449056Y-96179998D01*
X214477621Y-96132720D01*
X214498504Y-96073801D01*
X214510021Y-96009238D01*
X214511642Y-95972640D01*
X214505096Y-95904300D01*
X214485842Y-95847780D01*
X214452901Y-95800200D01*
X214442638Y-95789580D01*
X214412096Y-95759880D01*
X214410000Y-95550000D01*
X214407903Y-95340061D01*
X214461361Y-95259059D01*
X214486501Y-95222397D01*
X214510616Y-95189461D01*
X214530419Y-95164737D01*
X214538943Y-95155678D01*
X214563058Y-95133239D01*
X214595696Y-95150821D01*
X214616277Y-95163419D01*
X214627557Y-95173201D01*
X214628280Y-95174941D01*
X214636016Y-95182379D01*
X214649218Y-95187960D01*
X214661944Y-95192940D01*
X214681499Y-95202420D01*
X214709460Y-95217357D01*
X214747564Y-95238657D01*
X214797478Y-95267217D01*
X214860897Y-95303998D01*
X214895339Y-95324099D01*
X214935842Y-95348218D01*
X214962420Y-95365380D01*
X214977416Y-95377561D01*
X214983120Y-95386917D01*
X214981975Y-95395258D01*
X214981023Y-95397240D01*
X214971722Y-95409540D01*
X214951736Y-95432579D01*
X214923537Y-95463781D01*
X214889278Y-95500617D01*
X214859698Y-95531818D01*
X214791482Y-95605921D01*
X214738143Y-95670117D01*
X214699142Y-95725081D01*
X214674056Y-95771517D01*
X214665597Y-95795101D01*
X214662118Y-95815677D01*
X214658520Y-95850898D01*
X214655096Y-95896619D01*
X214652221Y-95948877D01*
X214650838Y-95981937D01*
X214648980Y-96039061D01*
X214648138Y-96080818D01*
X214648623Y-96110399D01*
X214650600Y-96131099D01*
X214654436Y-96145981D01*
X214660323Y-96158400D01*
X214664937Y-96166017D01*
X214691524Y-96195177D01*
X214725838Y-96215520D01*
X214761901Y-96224401D01*
X214788964Y-96221219D01*
X214813436Y-96207299D01*
X214844097Y-96182460D01*
X214876681Y-96150898D01*
X214906921Y-96117060D01*
X214930376Y-96085259D01*
X214939019Y-96069901D01*
X214951983Y-96048839D01*
X214975558Y-96016800D01*
X215007537Y-95976238D01*
X215045879Y-95929679D01*
X215088296Y-95879640D01*
X215132763Y-95828577D01*
X215177038Y-95779079D01*
X215219042Y-95733541D01*
X215256597Y-95694599D01*
X215286059Y-95665979D01*
X215318761Y-95637360D01*
X215346236Y-95616298D01*
X215365563Y-95604900D01*
X215371981Y-95603701D01*
X215381823Y-95608741D01*
X215406304Y-95622240D01*
X215444042Y-95643480D01*
X215493600Y-95671619D01*
X215553658Y-95705759D01*
X215622716Y-95745117D01*
X215699337Y-95788980D01*
X215782201Y-95836437D01*
X215869799Y-95886658D01*
X215960821Y-95938921D01*
X216053756Y-95992379D01*
X216147240Y-96046138D01*
X216239818Y-96099477D01*
X216330181Y-96151621D01*
X216416817Y-96201599D01*
X216498299Y-96248758D01*
X216573299Y-96292140D01*
X216640316Y-96331078D01*
X216698040Y-96364678D01*
X216744961Y-96392098D01*
X216779696Y-96412619D01*
X216800817Y-96425341D01*
X216806997Y-96429360D01*
X216798720Y-96430138D01*
X216772738Y-96430921D01*
X216729900Y-96431639D01*
X216671096Y-96432358D01*
X216597121Y-96433017D01*
X216508919Y-96433681D01*
X216407342Y-96434281D01*
X216293157Y-96434821D01*
X216167400Y-96435361D01*
X216030776Y-96435778D01*
X215884200Y-96436199D01*
X215728615Y-96436560D01*
X215564764Y-96436798D01*
X215393642Y-96437041D01*
X215215984Y-96437160D01*
X215032741Y-96437279D01*
X214955819Y-96437279D01*
X213095879Y-96437279D01*
X213228539Y-96207239D01*
X213256618Y-96158579D01*
X213292736Y-96095879D01*
X213335757Y-96021241D01*
X213384417Y-95936820D01*
X213437517Y-95844658D01*
X213493804Y-95746921D01*
X213552178Y-95645641D01*
X213611339Y-95542919D01*
X213670144Y-95440860D01*
X213684957Y-95415061D01*
X213739202Y-95321100D01*
X213790856Y-95231639D01*
X213839223Y-95148120D01*
X213883562Y-95071797D01*
X213923040Y-95003998D01*
X213956878Y-94946160D01*
X213984362Y-94899477D01*
X214004641Y-94865337D01*
X214017000Y-94845117D01*
X214020479Y-94839958D01*
X214027740Y-94835880D01*
X214039742Y-94837079D01*
G37*
D11*
X220200000Y-82450000D02*
X220200000Y-73150000D01*
D10*
X215144884Y-92913840D02*
X215158736Y-92936280D01*
X215179977Y-92971857D01*
X215207882Y-93019020D01*
X215241482Y-93076259D01*
X215279943Y-93142081D01*
X215322359Y-93214980D01*
X215367898Y-93293459D01*
X215415661Y-93375898D01*
X215464797Y-93460918D01*
X215514419Y-93546959D01*
X215563619Y-93632460D01*
X215611620Y-93715920D01*
X215657461Y-93795900D01*
X215700298Y-93870841D01*
X215739236Y-93939180D01*
X215773504Y-93999477D01*
X215802059Y-94050238D01*
X215824197Y-94089839D01*
X215838900Y-94116898D01*
X215845437Y-94129798D01*
X215845684Y-94130580D01*
X215837582Y-94141558D01*
X215815142Y-94158298D01*
X215781002Y-94179181D01*
X215737862Y-94202637D01*
X215692681Y-94224839D01*
X215631240Y-94251837D01*
X215566558Y-94276081D01*
X215496538Y-94298159D01*
X215418838Y-94318497D01*
X215331304Y-94337760D01*
X215231704Y-94356478D01*
X215117821Y-94375081D01*
X214999984Y-94392421D01*
X214897564Y-94407839D01*
X214811578Y-94423078D01*
X214739883Y-94438921D01*
X214680236Y-94456137D01*
X214630559Y-94475460D01*
X214588683Y-94497661D01*
X214552383Y-94523461D01*
X214519561Y-94553701D01*
X214508996Y-94564920D01*
X214486080Y-94591017D01*
X214469097Y-94612381D01*
X214461242Y-94624919D01*
X214461059Y-94625940D01*
X214458303Y-94632239D01*
X214448763Y-94632299D01*
X214430462Y-94625341D01*
X214401476Y-94610399D01*
X214359838Y-94586760D01*
X214330916Y-94569718D01*
X214287841Y-94543080D01*
X214254296Y-94520339D01*
X214232699Y-94502999D01*
X214225136Y-94492800D01*
X214225136Y-94492740D01*
X214229824Y-94482958D01*
X214243017Y-94458600D01*
X214263964Y-94420917D01*
X214291924Y-94371241D01*
X214326064Y-94310880D01*
X214365661Y-94241158D01*
X214410000Y-94163521D01*
X214458239Y-94079160D01*
X214509600Y-93989461D01*
X214563424Y-93895739D01*
X214618804Y-93799320D01*
X214675082Y-93701578D01*
X214731478Y-93603777D01*
X214787215Y-93507299D01*
X214841460Y-93413457D01*
X214893536Y-93323520D01*
X214942681Y-93238921D01*
X214988036Y-93160918D01*
X215028960Y-93090839D01*
X215064602Y-93030057D01*
X215094182Y-92979900D01*
X215116979Y-92941681D01*
X215132223Y-92916660D01*
X215139117Y-92906278D01*
X215139419Y-92906040D01*
X215144884Y-92913840D01*
G36*
X215144884Y-92913840D02*
G01*
X215158736Y-92936280D01*
X215179977Y-92971857D01*
X215207882Y-93019020D01*
X215241482Y-93076259D01*
X215279943Y-93142081D01*
X215322359Y-93214980D01*
X215367898Y-93293459D01*
X215415661Y-93375898D01*
X215464797Y-93460918D01*
X215514419Y-93546959D01*
X215563619Y-93632460D01*
X215611620Y-93715920D01*
X215657461Y-93795900D01*
X215700298Y-93870841D01*
X215739236Y-93939180D01*
X215773504Y-93999477D01*
X215802059Y-94050238D01*
X215824197Y-94089839D01*
X215838900Y-94116898D01*
X215845437Y-94129798D01*
X215845684Y-94130580D01*
X215837582Y-94141558D01*
X215815142Y-94158298D01*
X215781002Y-94179181D01*
X215737862Y-94202637D01*
X215692681Y-94224839D01*
X215631240Y-94251837D01*
X215566558Y-94276081D01*
X215496538Y-94298159D01*
X215418838Y-94318497D01*
X215331304Y-94337760D01*
X215231704Y-94356478D01*
X215117821Y-94375081D01*
X214999984Y-94392421D01*
X214897564Y-94407839D01*
X214811578Y-94423078D01*
X214739883Y-94438921D01*
X214680236Y-94456137D01*
X214630559Y-94475460D01*
X214588683Y-94497661D01*
X214552383Y-94523461D01*
X214519561Y-94553701D01*
X214508996Y-94564920D01*
X214486080Y-94591017D01*
X214469097Y-94612381D01*
X214461242Y-94624919D01*
X214461059Y-94625940D01*
X214458303Y-94632239D01*
X214448763Y-94632299D01*
X214430462Y-94625341D01*
X214401476Y-94610399D01*
X214359838Y-94586760D01*
X214330916Y-94569718D01*
X214287841Y-94543080D01*
X214254296Y-94520339D01*
X214232699Y-94502999D01*
X214225136Y-94492800D01*
X214225136Y-94492740D01*
X214229824Y-94482958D01*
X214243017Y-94458600D01*
X214263964Y-94420917D01*
X214291924Y-94371241D01*
X214326064Y-94310880D01*
X214365661Y-94241158D01*
X214410000Y-94163521D01*
X214458239Y-94079160D01*
X214509600Y-93989461D01*
X214563424Y-93895739D01*
X214618804Y-93799320D01*
X214675082Y-93701578D01*
X214731478Y-93603777D01*
X214787215Y-93507299D01*
X214841460Y-93413457D01*
X214893536Y-93323520D01*
X214942681Y-93238921D01*
X214988036Y-93160918D01*
X215028960Y-93090839D01*
X215064602Y-93030057D01*
X215094182Y-92979900D01*
X215116979Y-92941681D01*
X215132223Y-92916660D01*
X215139117Y-92906278D01*
X215139419Y-92906040D01*
X215144884Y-92913840D01*
G37*
D11*
X201260839Y-112050466D02*
X200651316Y-112050466D01*
D12*
X218410142Y-82289812D02*
X219381571Y-82289812D01*
X219381571Y-82289812D02*
X219495857Y-82232669D01*
X219495857Y-82232669D02*
X219553000Y-82175527D01*
X219553000Y-82175527D02*
X219610142Y-82061241D01*
X219610142Y-82061241D02*
X219610142Y-81832669D01*
X219610142Y-81832669D02*
X219553000Y-81718384D01*
X219553000Y-81718384D02*
X219495857Y-81661241D01*
X219495857Y-81661241D02*
X219381571Y-81604098D01*
X219381571Y-81604098D02*
X218410142Y-81604098D01*
X218410142Y-81146955D02*
X219610142Y-80861241D01*
X219610142Y-80861241D02*
X218753000Y-80632669D01*
X218753000Y-80632669D02*
X219610142Y-80404098D01*
X219610142Y-80404098D02*
X218410142Y-80118384D01*
X218981571Y-79261240D02*
X219038714Y-79089812D01*
X219038714Y-79089812D02*
X219095857Y-79032669D01*
X219095857Y-79032669D02*
X219210142Y-78975526D01*
X219210142Y-78975526D02*
X219381571Y-78975526D01*
X219381571Y-78975526D02*
X219495857Y-79032669D01*
X219495857Y-79032669D02*
X219553000Y-79089812D01*
X219553000Y-79089812D02*
X219610142Y-79204097D01*
X219610142Y-79204097D02*
X219610142Y-79661240D01*
X219610142Y-79661240D02*
X218410142Y-79661240D01*
X218410142Y-79661240D02*
X218410142Y-79261240D01*
X218410142Y-79261240D02*
X218467285Y-79146955D01*
X218467285Y-79146955D02*
X218524428Y-79089812D01*
X218524428Y-79089812D02*
X218638714Y-79032669D01*
X218638714Y-79032669D02*
X218753000Y-79032669D01*
X218753000Y-79032669D02*
X218867285Y-79089812D01*
X218867285Y-79089812D02*
X218924428Y-79146955D01*
X218924428Y-79146955D02*
X218981571Y-79261240D01*
X218981571Y-79261240D02*
X218981571Y-79661240D01*
X219153000Y-78461240D02*
X219153000Y-77546955D01*
X219610142Y-76289812D02*
X219038714Y-76689812D01*
X219610142Y-76975526D02*
X218410142Y-76975526D01*
X218410142Y-76975526D02*
X218410142Y-76518383D01*
X218410142Y-76518383D02*
X218467285Y-76404098D01*
X218467285Y-76404098D02*
X218524428Y-76346955D01*
X218524428Y-76346955D02*
X218638714Y-76289812D01*
X218638714Y-76289812D02*
X218810142Y-76289812D01*
X218810142Y-76289812D02*
X218924428Y-76346955D01*
X218924428Y-76346955D02*
X218981571Y-76404098D01*
X218981571Y-76404098D02*
X219038714Y-76518383D01*
X219038714Y-76518383D02*
X219038714Y-76975526D01*
X218410142Y-75946955D02*
X218410142Y-75261241D01*
X219610142Y-75604098D02*
X218410142Y-75604098D01*
X219610142Y-74289812D02*
X219610142Y-74861240D01*
X219610142Y-74861240D02*
X218410142Y-74861240D01*
X219553000Y-73946954D02*
X219610142Y-73775526D01*
X219610142Y-73775526D02*
X219610142Y-73489811D01*
X219610142Y-73489811D02*
X219553000Y-73375526D01*
X219553000Y-73375526D02*
X219495857Y-73318383D01*
X219495857Y-73318383D02*
X219381571Y-73261240D01*
X219381571Y-73261240D02*
X219267285Y-73261240D01*
X219267285Y-73261240D02*
X219153000Y-73318383D01*
X219153000Y-73318383D02*
X219095857Y-73375526D01*
X219095857Y-73375526D02*
X219038714Y-73489811D01*
X219038714Y-73489811D02*
X218981571Y-73718383D01*
X218981571Y-73718383D02*
X218924428Y-73832668D01*
X218924428Y-73832668D02*
X218867285Y-73889811D01*
X218867285Y-73889811D02*
X218753000Y-73946954D01*
X218753000Y-73946954D02*
X218638714Y-73946954D01*
X218638714Y-73946954D02*
X218524428Y-73889811D01*
X218524428Y-73889811D02*
X218467285Y-73832668D01*
X218467285Y-73832668D02*
X218410142Y-73718383D01*
X218410142Y-73718383D02*
X218410142Y-73432668D01*
X218410142Y-73432668D02*
X218467285Y-73261240D01*
D13*
X194343708Y-94882569D02*
X194177042Y-94644474D01*
X194057994Y-94882569D02*
X194057994Y-94382569D01*
X194057994Y-94382569D02*
X194248470Y-94382569D01*
X194248470Y-94382569D02*
X194296089Y-94406379D01*
X194296089Y-94406379D02*
X194319899Y-94430188D01*
X194319899Y-94430188D02*
X194343708Y-94477807D01*
X194343708Y-94477807D02*
X194343708Y-94549236D01*
X194343708Y-94549236D02*
X194319899Y-94596855D01*
X194319899Y-94596855D02*
X194296089Y-94620664D01*
X194296089Y-94620664D02*
X194248470Y-94644474D01*
X194248470Y-94644474D02*
X194057994Y-94644474D01*
X194510375Y-94382569D02*
X194843708Y-94882569D01*
X194843708Y-94382569D02*
X194510375Y-94882569D01*
X195343708Y-94382569D02*
X195629422Y-94382569D01*
X195486565Y-94882569D02*
X195486565Y-94382569D01*
X195748469Y-94382569D02*
X196081802Y-94882569D01*
X196081802Y-94382569D02*
X195748469Y-94882569D01*
X196938944Y-94834950D02*
X196915135Y-94858760D01*
X196915135Y-94858760D02*
X196843706Y-94882569D01*
X196843706Y-94882569D02*
X196796087Y-94882569D01*
X196796087Y-94882569D02*
X196724659Y-94858760D01*
X196724659Y-94858760D02*
X196677040Y-94811140D01*
X196677040Y-94811140D02*
X196653230Y-94763521D01*
X196653230Y-94763521D02*
X196629421Y-94668283D01*
X196629421Y-94668283D02*
X196629421Y-94596855D01*
X196629421Y-94596855D02*
X196653230Y-94501617D01*
X196653230Y-94501617D02*
X196677040Y-94453998D01*
X196677040Y-94453998D02*
X196724659Y-94406379D01*
X196724659Y-94406379D02*
X196796087Y-94382569D01*
X196796087Y-94382569D02*
X196843706Y-94382569D01*
X196843706Y-94382569D02*
X196915135Y-94406379D01*
X196915135Y-94406379D02*
X196938944Y-94430188D01*
X197391325Y-94882569D02*
X197153230Y-94882569D01*
X197153230Y-94882569D02*
X197153230Y-94382569D01*
X197557992Y-94882569D02*
X197557992Y-94382569D01*
X197843706Y-94882569D02*
X197629421Y-94596855D01*
X197843706Y-94382569D02*
X197557992Y-94668283D01*
X198438944Y-94882569D02*
X198438944Y-94382569D01*
X198438944Y-94382569D02*
X198557992Y-94382569D01*
X198557992Y-94382569D02*
X198629420Y-94406379D01*
X198629420Y-94406379D02*
X198677039Y-94453998D01*
X198677039Y-94453998D02*
X198700849Y-94501617D01*
X198700849Y-94501617D02*
X198724658Y-94596855D01*
X198724658Y-94596855D02*
X198724658Y-94668283D01*
X198724658Y-94668283D02*
X198700849Y-94763521D01*
X198700849Y-94763521D02*
X198677039Y-94811140D01*
X198677039Y-94811140D02*
X198629420Y-94858760D01*
X198629420Y-94858760D02*
X198557992Y-94882569D01*
X198557992Y-94882569D02*
X198438944Y-94882569D01*
X198938944Y-94882569D02*
X198938944Y-94382569D01*
X199272277Y-94382569D02*
X199367515Y-94382569D01*
X199367515Y-94382569D02*
X199415134Y-94406379D01*
X199415134Y-94406379D02*
X199462753Y-94453998D01*
X199462753Y-94453998D02*
X199486563Y-94549236D01*
X199486563Y-94549236D02*
X199486563Y-94715902D01*
X199486563Y-94715902D02*
X199462753Y-94811140D01*
X199462753Y-94811140D02*
X199415134Y-94858760D01*
X199415134Y-94858760D02*
X199367515Y-94882569D01*
X199367515Y-94882569D02*
X199272277Y-94882569D01*
X199272277Y-94882569D02*
X199224658Y-94858760D01*
X199224658Y-94858760D02*
X199177039Y-94811140D01*
X199177039Y-94811140D02*
X199153230Y-94715902D01*
X199153230Y-94715902D02*
X199153230Y-94549236D01*
X199153230Y-94549236D02*
X199177039Y-94453998D01*
X199177039Y-94453998D02*
X199224658Y-94406379D01*
X199224658Y-94406379D02*
X199272277Y-94382569D01*
X200034182Y-94382569D02*
X200343706Y-94382569D01*
X200343706Y-94382569D02*
X200177039Y-94573045D01*
X200177039Y-94573045D02*
X200248468Y-94573045D01*
X200248468Y-94573045D02*
X200296087Y-94596855D01*
X200296087Y-94596855D02*
X200319896Y-94620664D01*
X200319896Y-94620664D02*
X200343706Y-94668283D01*
X200343706Y-94668283D02*
X200343706Y-94787331D01*
X200343706Y-94787331D02*
X200319896Y-94834950D01*
X200319896Y-94834950D02*
X200296087Y-94858760D01*
X200296087Y-94858760D02*
X200248468Y-94882569D01*
X200248468Y-94882569D02*
X200105611Y-94882569D01*
X200105611Y-94882569D02*
X200057992Y-94858760D01*
X200057992Y-94858760D02*
X200034182Y-94834950D01*
X200486563Y-94382569D02*
X200653229Y-94882569D01*
X200653229Y-94882569D02*
X200819896Y-94382569D01*
X200938943Y-94382569D02*
X201248467Y-94382569D01*
X201248467Y-94382569D02*
X201081800Y-94573045D01*
X201081800Y-94573045D02*
X201153229Y-94573045D01*
X201153229Y-94573045D02*
X201200848Y-94596855D01*
X201200848Y-94596855D02*
X201224657Y-94620664D01*
X201224657Y-94620664D02*
X201248467Y-94668283D01*
X201248467Y-94668283D02*
X201248467Y-94787331D01*
X201248467Y-94787331D02*
X201224657Y-94834950D01*
X201224657Y-94834950D02*
X201200848Y-94858760D01*
X201200848Y-94858760D02*
X201153229Y-94882569D01*
X201153229Y-94882569D02*
X201010372Y-94882569D01*
X201010372Y-94882569D02*
X200962753Y-94858760D01*
X200962753Y-94858760D02*
X200938943Y-94834950D01*
X202105609Y-94406379D02*
X202057990Y-94382569D01*
X202057990Y-94382569D02*
X201986561Y-94382569D01*
X201986561Y-94382569D02*
X201915133Y-94406379D01*
X201915133Y-94406379D02*
X201867514Y-94453998D01*
X201867514Y-94453998D02*
X201843704Y-94501617D01*
X201843704Y-94501617D02*
X201819895Y-94596855D01*
X201819895Y-94596855D02*
X201819895Y-94668283D01*
X201819895Y-94668283D02*
X201843704Y-94763521D01*
X201843704Y-94763521D02*
X201867514Y-94811140D01*
X201867514Y-94811140D02*
X201915133Y-94858760D01*
X201915133Y-94858760D02*
X201986561Y-94882569D01*
X201986561Y-94882569D02*
X202034180Y-94882569D01*
X202034180Y-94882569D02*
X202105609Y-94858760D01*
X202105609Y-94858760D02*
X202129418Y-94834950D01*
X202129418Y-94834950D02*
X202129418Y-94668283D01*
X202129418Y-94668283D02*
X202034180Y-94668283D01*
X202343704Y-94882569D02*
X202343704Y-94382569D01*
X202343704Y-94382569D02*
X202629418Y-94882569D01*
X202629418Y-94882569D02*
X202629418Y-94382569D01*
X202867514Y-94882569D02*
X202867514Y-94382569D01*
X202867514Y-94382569D02*
X202986562Y-94382569D01*
X202986562Y-94382569D02*
X203057990Y-94406379D01*
X203057990Y-94406379D02*
X203105609Y-94453998D01*
X203105609Y-94453998D02*
X203129419Y-94501617D01*
X203129419Y-94501617D02*
X203153228Y-94596855D01*
X203153228Y-94596855D02*
X203153228Y-94668283D01*
X203153228Y-94668283D02*
X203129419Y-94763521D01*
X203129419Y-94763521D02*
X203105609Y-94811140D01*
X203105609Y-94811140D02*
X203057990Y-94858760D01*
X203057990Y-94858760D02*
X202986562Y-94882569D01*
X202986562Y-94882569D02*
X202867514Y-94882569D01*
X228993708Y-68264950D02*
X228969899Y-68288760D01*
X228969899Y-68288760D02*
X228898470Y-68312569D01*
X228898470Y-68312569D02*
X228850851Y-68312569D01*
X228850851Y-68312569D02*
X228779423Y-68288760D01*
X228779423Y-68288760D02*
X228731804Y-68241140D01*
X228731804Y-68241140D02*
X228707994Y-68193521D01*
X228707994Y-68193521D02*
X228684185Y-68098283D01*
X228684185Y-68098283D02*
X228684185Y-68026855D01*
X228684185Y-68026855D02*
X228707994Y-67931617D01*
X228707994Y-67931617D02*
X228731804Y-67883998D01*
X228731804Y-67883998D02*
X228779423Y-67836379D01*
X228779423Y-67836379D02*
X228850851Y-67812569D01*
X228850851Y-67812569D02*
X228898470Y-67812569D01*
X228898470Y-67812569D02*
X228969899Y-67836379D01*
X228969899Y-67836379D02*
X228993708Y-67860188D01*
X229446089Y-68312569D02*
X229207994Y-68312569D01*
X229207994Y-68312569D02*
X229207994Y-67812569D01*
X229612756Y-68312569D02*
X229612756Y-67812569D01*
X229898470Y-68312569D02*
X229684185Y-68026855D01*
X229898470Y-67812569D02*
X229612756Y-68098283D01*
X230493708Y-68312569D02*
X230493708Y-67812569D01*
X230493708Y-67812569D02*
X230612756Y-67812569D01*
X230612756Y-67812569D02*
X230684184Y-67836379D01*
X230684184Y-67836379D02*
X230731803Y-67883998D01*
X230731803Y-67883998D02*
X230755613Y-67931617D01*
X230755613Y-67931617D02*
X230779422Y-68026855D01*
X230779422Y-68026855D02*
X230779422Y-68098283D01*
X230779422Y-68098283D02*
X230755613Y-68193521D01*
X230755613Y-68193521D02*
X230731803Y-68241140D01*
X230731803Y-68241140D02*
X230684184Y-68288760D01*
X230684184Y-68288760D02*
X230612756Y-68312569D01*
X230612756Y-68312569D02*
X230493708Y-68312569D01*
X230993708Y-68312569D02*
X230993708Y-67812569D01*
X231327041Y-67812569D02*
X231422279Y-67812569D01*
X231422279Y-67812569D02*
X231469898Y-67836379D01*
X231469898Y-67836379D02*
X231517517Y-67883998D01*
X231517517Y-67883998D02*
X231541327Y-67979236D01*
X231541327Y-67979236D02*
X231541327Y-68145902D01*
X231541327Y-68145902D02*
X231517517Y-68241140D01*
X231517517Y-68241140D02*
X231469898Y-68288760D01*
X231469898Y-68288760D02*
X231422279Y-68312569D01*
X231422279Y-68312569D02*
X231327041Y-68312569D01*
X231327041Y-68312569D02*
X231279422Y-68288760D01*
X231279422Y-68288760D02*
X231231803Y-68241140D01*
X231231803Y-68241140D02*
X231207994Y-68145902D01*
X231207994Y-68145902D02*
X231207994Y-67979236D01*
X231207994Y-67979236D02*
X231231803Y-67883998D01*
X231231803Y-67883998D02*
X231279422Y-67836379D01*
X231279422Y-67836379D02*
X231327041Y-67812569D01*
X232422279Y-68312569D02*
X232255613Y-68074474D01*
X232136565Y-68312569D02*
X232136565Y-67812569D01*
X232136565Y-67812569D02*
X232327041Y-67812569D01*
X232327041Y-67812569D02*
X232374660Y-67836379D01*
X232374660Y-67836379D02*
X232398470Y-67860188D01*
X232398470Y-67860188D02*
X232422279Y-67907807D01*
X232422279Y-67907807D02*
X232422279Y-67979236D01*
X232422279Y-67979236D02*
X232398470Y-68026855D01*
X232398470Y-68026855D02*
X232374660Y-68050664D01*
X232374660Y-68050664D02*
X232327041Y-68074474D01*
X232327041Y-68074474D02*
X232136565Y-68074474D01*
X232612756Y-68288760D02*
X232684184Y-68312569D01*
X232684184Y-68312569D02*
X232803232Y-68312569D01*
X232803232Y-68312569D02*
X232850851Y-68288760D01*
X232850851Y-68288760D02*
X232874660Y-68264950D01*
X232874660Y-68264950D02*
X232898470Y-68217331D01*
X232898470Y-68217331D02*
X232898470Y-68169712D01*
X232898470Y-68169712D02*
X232874660Y-68122093D01*
X232874660Y-68122093D02*
X232850851Y-68098283D01*
X232850851Y-68098283D02*
X232803232Y-68074474D01*
X232803232Y-68074474D02*
X232707994Y-68050664D01*
X232707994Y-68050664D02*
X232660375Y-68026855D01*
X232660375Y-68026855D02*
X232636565Y-68003045D01*
X232636565Y-68003045D02*
X232612756Y-67955426D01*
X232612756Y-67955426D02*
X232612756Y-67907807D01*
X232612756Y-67907807D02*
X232636565Y-67860188D01*
X232636565Y-67860188D02*
X232660375Y-67836379D01*
X232660375Y-67836379D02*
X232707994Y-67812569D01*
X232707994Y-67812569D02*
X232827041Y-67812569D01*
X232827041Y-67812569D02*
X232898470Y-67836379D01*
X233041327Y-67812569D02*
X233327041Y-67812569D01*
X233184184Y-68312569D02*
X233184184Y-67812569D01*
X234136564Y-67836379D02*
X234088945Y-67812569D01*
X234088945Y-67812569D02*
X234017516Y-67812569D01*
X234017516Y-67812569D02*
X233946088Y-67836379D01*
X233946088Y-67836379D02*
X233898469Y-67883998D01*
X233898469Y-67883998D02*
X233874659Y-67931617D01*
X233874659Y-67931617D02*
X233850850Y-68026855D01*
X233850850Y-68026855D02*
X233850850Y-68098283D01*
X233850850Y-68098283D02*
X233874659Y-68193521D01*
X233874659Y-68193521D02*
X233898469Y-68241140D01*
X233898469Y-68241140D02*
X233946088Y-68288760D01*
X233946088Y-68288760D02*
X234017516Y-68312569D01*
X234017516Y-68312569D02*
X234065135Y-68312569D01*
X234065135Y-68312569D02*
X234136564Y-68288760D01*
X234136564Y-68288760D02*
X234160373Y-68264950D01*
X234160373Y-68264950D02*
X234160373Y-68098283D01*
X234160373Y-68098283D02*
X234065135Y-68098283D01*
X234374659Y-68312569D02*
X234374659Y-67812569D01*
X234374659Y-67812569D02*
X234660373Y-68312569D01*
X234660373Y-68312569D02*
X234660373Y-67812569D01*
X234898469Y-68312569D02*
X234898469Y-67812569D01*
X234898469Y-67812569D02*
X235017517Y-67812569D01*
X235017517Y-67812569D02*
X235088945Y-67836379D01*
X235088945Y-67836379D02*
X235136564Y-67883998D01*
X235136564Y-67883998D02*
X235160374Y-67931617D01*
X235160374Y-67931617D02*
X235184183Y-68026855D01*
X235184183Y-68026855D02*
X235184183Y-68098283D01*
X235184183Y-68098283D02*
X235160374Y-68193521D01*
X235160374Y-68193521D02*
X235136564Y-68241140D01*
X235136564Y-68241140D02*
X235088945Y-68288760D01*
X235088945Y-68288760D02*
X235017517Y-68312569D01*
X235017517Y-68312569D02*
X234898469Y-68312569D01*
X235731802Y-67812569D02*
X236041326Y-67812569D01*
X236041326Y-67812569D02*
X235874659Y-68003045D01*
X235874659Y-68003045D02*
X235946088Y-68003045D01*
X235946088Y-68003045D02*
X235993707Y-68026855D01*
X235993707Y-68026855D02*
X236017516Y-68050664D01*
X236017516Y-68050664D02*
X236041326Y-68098283D01*
X236041326Y-68098283D02*
X236041326Y-68217331D01*
X236041326Y-68217331D02*
X236017516Y-68264950D01*
X236017516Y-68264950D02*
X235993707Y-68288760D01*
X235993707Y-68288760D02*
X235946088Y-68312569D01*
X235946088Y-68312569D02*
X235803231Y-68312569D01*
X235803231Y-68312569D02*
X235755612Y-68288760D01*
X235755612Y-68288760D02*
X235731802Y-68264950D01*
X236184183Y-67812569D02*
X236350849Y-68312569D01*
X236350849Y-68312569D02*
X236517516Y-67812569D01*
X236636563Y-67812569D02*
X236946087Y-67812569D01*
X236946087Y-67812569D02*
X236779420Y-68003045D01*
X236779420Y-68003045D02*
X236850849Y-68003045D01*
X236850849Y-68003045D02*
X236898468Y-68026855D01*
X236898468Y-68026855D02*
X236922277Y-68050664D01*
X236922277Y-68050664D02*
X236946087Y-68098283D01*
X236946087Y-68098283D02*
X236946087Y-68217331D01*
X236946087Y-68217331D02*
X236922277Y-68264950D01*
X236922277Y-68264950D02*
X236898468Y-68288760D01*
X236898468Y-68288760D02*
X236850849Y-68312569D01*
X236850849Y-68312569D02*
X236707992Y-68312569D01*
X236707992Y-68312569D02*
X236660373Y-68288760D01*
X236660373Y-68288760D02*
X236636563Y-68264950D01*
D11*
X207600839Y-112070466D02*
X206991316Y-112070466D01*
X207296077Y-111765704D02*
X207296077Y-112375228D01*
D13*
X236908760Y-98525814D02*
X236932569Y-98454386D01*
X236932569Y-98454386D02*
X236932569Y-98335338D01*
X236932569Y-98335338D02*
X236908760Y-98287719D01*
X236908760Y-98287719D02*
X236884950Y-98263910D01*
X236884950Y-98263910D02*
X236837331Y-98240100D01*
X236837331Y-98240100D02*
X236789712Y-98240100D01*
X236789712Y-98240100D02*
X236742093Y-98263910D01*
X236742093Y-98263910D02*
X236718283Y-98287719D01*
X236718283Y-98287719D02*
X236694474Y-98335338D01*
X236694474Y-98335338D02*
X236670664Y-98430576D01*
X236670664Y-98430576D02*
X236646855Y-98478195D01*
X236646855Y-98478195D02*
X236623045Y-98502005D01*
X236623045Y-98502005D02*
X236575426Y-98525814D01*
X236575426Y-98525814D02*
X236527807Y-98525814D01*
X236527807Y-98525814D02*
X236480188Y-98502005D01*
X236480188Y-98502005D02*
X236456379Y-98478195D01*
X236456379Y-98478195D02*
X236432569Y-98430576D01*
X236432569Y-98430576D02*
X236432569Y-98311529D01*
X236432569Y-98311529D02*
X236456379Y-98240100D01*
X236932569Y-98025815D02*
X236432569Y-98025815D01*
X236432569Y-98025815D02*
X236432569Y-97906767D01*
X236432569Y-97906767D02*
X236456379Y-97835339D01*
X236456379Y-97835339D02*
X236503998Y-97787720D01*
X236503998Y-97787720D02*
X236551617Y-97763910D01*
X236551617Y-97763910D02*
X236646855Y-97740101D01*
X236646855Y-97740101D02*
X236718283Y-97740101D01*
X236718283Y-97740101D02*
X236813521Y-97763910D01*
X236813521Y-97763910D02*
X236861140Y-97787720D01*
X236861140Y-97787720D02*
X236908760Y-97835339D01*
X236908760Y-97835339D02*
X236932569Y-97906767D01*
X236932569Y-97906767D02*
X236932569Y-98025815D01*
X236789712Y-97549624D02*
X236789712Y-97311529D01*
X236932569Y-97597243D02*
X236432569Y-97430577D01*
X236432569Y-97430577D02*
X236932569Y-97263910D01*
X236908760Y-96740101D02*
X236932569Y-96668673D01*
X236932569Y-96668673D02*
X236932569Y-96549625D01*
X236932569Y-96549625D02*
X236908760Y-96502006D01*
X236908760Y-96502006D02*
X236884950Y-96478197D01*
X236884950Y-96478197D02*
X236837331Y-96454387D01*
X236837331Y-96454387D02*
X236789712Y-96454387D01*
X236789712Y-96454387D02*
X236742093Y-96478197D01*
X236742093Y-96478197D02*
X236718283Y-96502006D01*
X236718283Y-96502006D02*
X236694474Y-96549625D01*
X236694474Y-96549625D02*
X236670664Y-96644863D01*
X236670664Y-96644863D02*
X236646855Y-96692482D01*
X236646855Y-96692482D02*
X236623045Y-96716292D01*
X236623045Y-96716292D02*
X236575426Y-96740101D01*
X236575426Y-96740101D02*
X236527807Y-96740101D01*
X236527807Y-96740101D02*
X236480188Y-96716292D01*
X236480188Y-96716292D02*
X236456379Y-96692482D01*
X236456379Y-96692482D02*
X236432569Y-96644863D01*
X236432569Y-96644863D02*
X236432569Y-96525816D01*
X236432569Y-96525816D02*
X236456379Y-96454387D01*
X236884950Y-95954388D02*
X236908760Y-95978197D01*
X236908760Y-95978197D02*
X236932569Y-96049626D01*
X236932569Y-96049626D02*
X236932569Y-96097245D01*
X236932569Y-96097245D02*
X236908760Y-96168673D01*
X236908760Y-96168673D02*
X236861140Y-96216292D01*
X236861140Y-96216292D02*
X236813521Y-96240102D01*
X236813521Y-96240102D02*
X236718283Y-96263911D01*
X236718283Y-96263911D02*
X236646855Y-96263911D01*
X236646855Y-96263911D02*
X236551617Y-96240102D01*
X236551617Y-96240102D02*
X236503998Y-96216292D01*
X236503998Y-96216292D02*
X236456379Y-96168673D01*
X236456379Y-96168673D02*
X236432569Y-96097245D01*
X236432569Y-96097245D02*
X236432569Y-96049626D01*
X236432569Y-96049626D02*
X236456379Y-95978197D01*
X236456379Y-95978197D02*
X236480188Y-95954388D01*
X236932569Y-95502007D02*
X236932569Y-95740102D01*
X236932569Y-95740102D02*
X236432569Y-95740102D01*
X236456379Y-94692483D02*
X236432569Y-94740102D01*
X236432569Y-94740102D02*
X236432569Y-94811531D01*
X236432569Y-94811531D02*
X236456379Y-94882959D01*
X236456379Y-94882959D02*
X236503998Y-94930578D01*
X236503998Y-94930578D02*
X236551617Y-94954388D01*
X236551617Y-94954388D02*
X236646855Y-94978197D01*
X236646855Y-94978197D02*
X236718283Y-94978197D01*
X236718283Y-94978197D02*
X236813521Y-94954388D01*
X236813521Y-94954388D02*
X236861140Y-94930578D01*
X236861140Y-94930578D02*
X236908760Y-94882959D01*
X236908760Y-94882959D02*
X236932569Y-94811531D01*
X236932569Y-94811531D02*
X236932569Y-94763912D01*
X236932569Y-94763912D02*
X236908760Y-94692483D01*
X236908760Y-94692483D02*
X236884950Y-94668674D01*
X236884950Y-94668674D02*
X236718283Y-94668674D01*
X236718283Y-94668674D02*
X236718283Y-94763912D01*
X236932569Y-94454388D02*
X236432569Y-94454388D01*
X236432569Y-94454388D02*
X236932569Y-94168674D01*
X236932569Y-94168674D02*
X236432569Y-94168674D01*
X236932569Y-93930578D02*
X236432569Y-93930578D01*
X236432569Y-93930578D02*
X236432569Y-93811530D01*
X236432569Y-93811530D02*
X236456379Y-93740102D01*
X236456379Y-93740102D02*
X236503998Y-93692483D01*
X236503998Y-93692483D02*
X236551617Y-93668673D01*
X236551617Y-93668673D02*
X236646855Y-93644864D01*
X236646855Y-93644864D02*
X236718283Y-93644864D01*
X236718283Y-93644864D02*
X236813521Y-93668673D01*
X236813521Y-93668673D02*
X236861140Y-93692483D01*
X236861140Y-93692483D02*
X236908760Y-93740102D01*
X236908760Y-93740102D02*
X236932569Y-93811530D01*
X236932569Y-93811530D02*
X236932569Y-93930578D01*
X236432569Y-93097245D02*
X236432569Y-92787721D01*
X236432569Y-92787721D02*
X236623045Y-92954388D01*
X236623045Y-92954388D02*
X236623045Y-92882959D01*
X236623045Y-92882959D02*
X236646855Y-92835340D01*
X236646855Y-92835340D02*
X236670664Y-92811531D01*
X236670664Y-92811531D02*
X236718283Y-92787721D01*
X236718283Y-92787721D02*
X236837331Y-92787721D01*
X236837331Y-92787721D02*
X236884950Y-92811531D01*
X236884950Y-92811531D02*
X236908760Y-92835340D01*
X236908760Y-92835340D02*
X236932569Y-92882959D01*
X236932569Y-92882959D02*
X236932569Y-93025816D01*
X236932569Y-93025816D02*
X236908760Y-93073435D01*
X236908760Y-93073435D02*
X236884950Y-93097245D01*
X236432569Y-92644864D02*
X236932569Y-92478198D01*
X236932569Y-92478198D02*
X236432569Y-92311531D01*
X236432569Y-92192484D02*
X236432569Y-91882960D01*
X236432569Y-91882960D02*
X236623045Y-92049627D01*
X236623045Y-92049627D02*
X236623045Y-91978198D01*
X236623045Y-91978198D02*
X236646855Y-91930579D01*
X236646855Y-91930579D02*
X236670664Y-91906770D01*
X236670664Y-91906770D02*
X236718283Y-91882960D01*
X236718283Y-91882960D02*
X236837331Y-91882960D01*
X236837331Y-91882960D02*
X236884950Y-91906770D01*
X236884950Y-91906770D02*
X236908760Y-91930579D01*
X236908760Y-91930579D02*
X236932569Y-91978198D01*
X236932569Y-91978198D02*
X236932569Y-92121055D01*
X236932569Y-92121055D02*
X236908760Y-92168674D01*
X236908760Y-92168674D02*
X236884950Y-92192484D01*
D14*
X221196418Y-82360927D02*
X221196418Y-82051403D01*
X221382132Y-82422832D02*
X220732132Y-82206165D01*
X220732132Y-82206165D02*
X221382132Y-81989498D01*
X221382132Y-81772832D02*
X220732132Y-81772832D01*
X220732132Y-81772832D02*
X221382132Y-81401403D01*
X221382132Y-81401403D02*
X220732132Y-81401403D01*
X221320227Y-80720451D02*
X221351180Y-80751403D01*
X221351180Y-80751403D02*
X221382132Y-80844261D01*
X221382132Y-80844261D02*
X221382132Y-80906165D01*
X221382132Y-80906165D02*
X221351180Y-80999022D01*
X221351180Y-80999022D02*
X221289275Y-81060927D01*
X221289275Y-81060927D02*
X221227370Y-81091880D01*
X221227370Y-81091880D02*
X221103560Y-81122832D01*
X221103560Y-81122832D02*
X221010703Y-81122832D01*
X221010703Y-81122832D02*
X220886894Y-81091880D01*
X220886894Y-81091880D02*
X220824989Y-81060927D01*
X220824989Y-81060927D02*
X220763084Y-80999022D01*
X220763084Y-80999022D02*
X220732132Y-80906165D01*
X220732132Y-80906165D02*
X220732132Y-80844261D01*
X220732132Y-80844261D02*
X220763084Y-80751403D01*
X220763084Y-80751403D02*
X220794037Y-80720451D01*
X221382132Y-80441880D02*
X220732132Y-80441880D01*
X221041656Y-80441880D02*
X221041656Y-80070451D01*
X221382132Y-80070451D02*
X220732132Y-80070451D01*
X220732132Y-79637118D02*
X220732132Y-79513309D01*
X220732132Y-79513309D02*
X220763084Y-79451404D01*
X220763084Y-79451404D02*
X220824989Y-79389499D01*
X220824989Y-79389499D02*
X220948799Y-79358547D01*
X220948799Y-79358547D02*
X221165465Y-79358547D01*
X221165465Y-79358547D02*
X221289275Y-79389499D01*
X221289275Y-79389499D02*
X221351180Y-79451404D01*
X221351180Y-79451404D02*
X221382132Y-79513309D01*
X221382132Y-79513309D02*
X221382132Y-79637118D01*
X221382132Y-79637118D02*
X221351180Y-79699023D01*
X221351180Y-79699023D02*
X221289275Y-79760928D01*
X221289275Y-79760928D02*
X221165465Y-79791880D01*
X221165465Y-79791880D02*
X220948799Y-79791880D01*
X220948799Y-79791880D02*
X220824989Y-79760928D01*
X220824989Y-79760928D02*
X220763084Y-79699023D01*
X220763084Y-79699023D02*
X220732132Y-79637118D01*
X221382132Y-78708547D02*
X221072608Y-78925214D01*
X221382132Y-79079976D02*
X220732132Y-79079976D01*
X220732132Y-79079976D02*
X220732132Y-78832357D01*
X220732132Y-78832357D02*
X220763084Y-78770452D01*
X220763084Y-78770452D02*
X220794037Y-78739499D01*
X220794037Y-78739499D02*
X220855941Y-78708547D01*
X220855941Y-78708547D02*
X220948799Y-78708547D01*
X220948799Y-78708547D02*
X221010703Y-78739499D01*
X221010703Y-78739499D02*
X221041656Y-78770452D01*
X221041656Y-78770452D02*
X221072608Y-78832357D01*
X221072608Y-78832357D02*
X221072608Y-79079976D01*
X221598799Y-78275214D02*
X220670227Y-78275214D01*
X221382132Y-77439499D02*
X221072608Y-77656166D01*
X221382132Y-77810928D02*
X220732132Y-77810928D01*
X220732132Y-77810928D02*
X220732132Y-77563309D01*
X220732132Y-77563309D02*
X220763084Y-77501404D01*
X220763084Y-77501404D02*
X220794037Y-77470451D01*
X220794037Y-77470451D02*
X220855941Y-77439499D01*
X220855941Y-77439499D02*
X220948799Y-77439499D01*
X220948799Y-77439499D02*
X221010703Y-77470451D01*
X221010703Y-77470451D02*
X221041656Y-77501404D01*
X221041656Y-77501404D02*
X221072608Y-77563309D01*
X221072608Y-77563309D02*
X221072608Y-77810928D01*
X221041656Y-77160928D02*
X221041656Y-76944261D01*
X221382132Y-76851404D02*
X221382132Y-77160928D01*
X221382132Y-77160928D02*
X220732132Y-77160928D01*
X220732132Y-77160928D02*
X220732132Y-76851404D01*
X220732132Y-76665690D02*
X221382132Y-76449023D01*
X221382132Y-76449023D02*
X220732132Y-76232356D01*
X221320227Y-76015690D02*
X221351180Y-75984737D01*
X221351180Y-75984737D02*
X221382132Y-76015690D01*
X221382132Y-76015690D02*
X221351180Y-76046642D01*
X221351180Y-76046642D02*
X221320227Y-76015690D01*
X221320227Y-76015690D02*
X221382132Y-76015690D01*
X220979751Y-76015690D02*
X221010703Y-75984737D01*
X221010703Y-75984737D02*
X221041656Y-76015690D01*
X221041656Y-76015690D02*
X221010703Y-76046642D01*
X221010703Y-76046642D02*
X220979751Y-76015690D01*
X220979751Y-76015690D02*
X221041656Y-76015690D01*
X220948799Y-75272832D02*
X221382132Y-75118070D01*
X221382132Y-75118070D02*
X220948799Y-74963309D01*
X221382132Y-74375213D02*
X221382132Y-74746642D01*
X221382132Y-74560928D02*
X220732132Y-74560928D01*
X220732132Y-74560928D02*
X220824989Y-74622832D01*
X220824989Y-74622832D02*
X220886894Y-74684737D01*
X220886894Y-74684737D02*
X220917846Y-74746642D01*
X221320227Y-74096642D02*
X221351180Y-74065689D01*
X221351180Y-74065689D02*
X221382132Y-74096642D01*
X221382132Y-74096642D02*
X221351180Y-74127594D01*
X221351180Y-74127594D02*
X221320227Y-74096642D01*
X221320227Y-74096642D02*
X221382132Y-74096642D01*
X220732132Y-73663308D02*
X220732132Y-73601403D01*
X220732132Y-73601403D02*
X220763084Y-73539499D01*
X220763084Y-73539499D02*
X220794037Y-73508546D01*
X220794037Y-73508546D02*
X220855941Y-73477594D01*
X220855941Y-73477594D02*
X220979751Y-73446641D01*
X220979751Y-73446641D02*
X221134513Y-73446641D01*
X221134513Y-73446641D02*
X221258322Y-73477594D01*
X221258322Y-73477594D02*
X221320227Y-73508546D01*
X221320227Y-73508546D02*
X221351180Y-73539499D01*
X221351180Y-73539499D02*
X221382132Y-73601403D01*
X221382132Y-73601403D02*
X221382132Y-73663308D01*
X221382132Y-73663308D02*
X221351180Y-73725213D01*
X221351180Y-73725213D02*
X221320227Y-73756165D01*
X221320227Y-73756165D02*
X221258322Y-73787118D01*
X221258322Y-73787118D02*
X221134513Y-73818070D01*
X221134513Y-73818070D02*
X220979751Y-73818070D01*
X220979751Y-73818070D02*
X220855941Y-73787118D01*
X220855941Y-73787118D02*
X220794037Y-73756165D01*
X220794037Y-73756165D02*
X220763084Y-73725213D01*
X220763084Y-73725213D02*
X220732132Y-73663308D01*
D11*
X235840467Y-85721680D02*
X235926181Y-85750252D01*
X235926181Y-85750252D02*
X235954752Y-85778823D01*
X235954752Y-85778823D02*
X235983324Y-85835966D01*
X235983324Y-85835966D02*
X235983324Y-85921680D01*
X235983324Y-85921680D02*
X235954752Y-85978823D01*
X235954752Y-85978823D02*
X235926181Y-86007395D01*
X235926181Y-86007395D02*
X235869038Y-86035966D01*
X235869038Y-86035966D02*
X235640467Y-86035966D01*
X235640467Y-86035966D02*
X235640467Y-85435966D01*
X235640467Y-85435966D02*
X235840467Y-85435966D01*
X235840467Y-85435966D02*
X235897610Y-85464537D01*
X235897610Y-85464537D02*
X235926181Y-85493109D01*
X235926181Y-85493109D02*
X235954752Y-85550252D01*
X235954752Y-85550252D02*
X235954752Y-85607395D01*
X235954752Y-85607395D02*
X235926181Y-85664537D01*
X235926181Y-85664537D02*
X235897610Y-85693109D01*
X235897610Y-85693109D02*
X235840467Y-85721680D01*
X235840467Y-85721680D02*
X235640467Y-85721680D01*
X236526181Y-86035966D02*
X236240467Y-86035966D01*
X236240467Y-86035966D02*
X236240467Y-85435966D01*
X236726181Y-85721680D02*
X236926181Y-85721680D01*
X237011895Y-86035966D02*
X236726181Y-86035966D01*
X236726181Y-86035966D02*
X236726181Y-85435966D01*
X236726181Y-85435966D02*
X237011895Y-85435966D01*
X237126181Y-86093109D02*
X237583323Y-86093109D01*
X238069038Y-85978823D02*
X238040466Y-86007395D01*
X238040466Y-86007395D02*
X237954752Y-86035966D01*
X237954752Y-86035966D02*
X237897609Y-86035966D01*
X237897609Y-86035966D02*
X237811895Y-86007395D01*
X237811895Y-86007395D02*
X237754752Y-85950252D01*
X237754752Y-85950252D02*
X237726181Y-85893109D01*
X237726181Y-85893109D02*
X237697609Y-85778823D01*
X237697609Y-85778823D02*
X237697609Y-85693109D01*
X237697609Y-85693109D02*
X237726181Y-85578823D01*
X237726181Y-85578823D02*
X237754752Y-85521680D01*
X237754752Y-85521680D02*
X237811895Y-85464537D01*
X237811895Y-85464537D02*
X237897609Y-85435966D01*
X237897609Y-85435966D02*
X237954752Y-85435966D01*
X237954752Y-85435966D02*
X238040466Y-85464537D01*
X238040466Y-85464537D02*
X238069038Y-85493109D01*
X238411895Y-86035966D02*
X238354752Y-86007395D01*
X238354752Y-86007395D02*
X238326181Y-85978823D01*
X238326181Y-85978823D02*
X238297609Y-85921680D01*
X238297609Y-85921680D02*
X238297609Y-85750252D01*
X238297609Y-85750252D02*
X238326181Y-85693109D01*
X238326181Y-85693109D02*
X238354752Y-85664537D01*
X238354752Y-85664537D02*
X238411895Y-85635966D01*
X238411895Y-85635966D02*
X238497609Y-85635966D01*
X238497609Y-85635966D02*
X238554752Y-85664537D01*
X238554752Y-85664537D02*
X238583324Y-85693109D01*
X238583324Y-85693109D02*
X238611895Y-85750252D01*
X238611895Y-85750252D02*
X238611895Y-85921680D01*
X238611895Y-85921680D02*
X238583324Y-85978823D01*
X238583324Y-85978823D02*
X238554752Y-86007395D01*
X238554752Y-86007395D02*
X238497609Y-86035966D01*
X238497609Y-86035966D02*
X238411895Y-86035966D01*
X238869038Y-85635966D02*
X238869038Y-86035966D01*
X238869038Y-85693109D02*
X238897609Y-85664537D01*
X238897609Y-85664537D02*
X238954752Y-85635966D01*
X238954752Y-85635966D02*
X239040466Y-85635966D01*
X239040466Y-85635966D02*
X239097609Y-85664537D01*
X239097609Y-85664537D02*
X239126181Y-85721680D01*
X239126181Y-85721680D02*
X239126181Y-86035966D01*
X239411895Y-85635966D02*
X239411895Y-86035966D01*
X239411895Y-85693109D02*
X239440466Y-85664537D01*
X239440466Y-85664537D02*
X239497609Y-85635966D01*
X239497609Y-85635966D02*
X239583323Y-85635966D01*
X239583323Y-85635966D02*
X239640466Y-85664537D01*
X239640466Y-85664537D02*
X239669038Y-85721680D01*
X239669038Y-85721680D02*
X239669038Y-86035966D01*
X209709524Y-80062295D02*
X209709524Y-79262295D01*
X209709524Y-79262295D02*
X209900000Y-79262295D01*
X209900000Y-79262295D02*
X210014286Y-79300390D01*
X210014286Y-79300390D02*
X210090476Y-79376580D01*
X210090476Y-79376580D02*
X210128571Y-79452771D01*
X210128571Y-79452771D02*
X210166667Y-79605152D01*
X210166667Y-79605152D02*
X210166667Y-79719438D01*
X210166667Y-79719438D02*
X210128571Y-79871819D01*
X210128571Y-79871819D02*
X210090476Y-79948009D01*
X210090476Y-79948009D02*
X210014286Y-80024200D01*
X210014286Y-80024200D02*
X209900000Y-80062295D01*
X209900000Y-80062295D02*
X209709524Y-80062295D01*
X210852381Y-79262295D02*
X210700000Y-79262295D01*
X210700000Y-79262295D02*
X210623809Y-79300390D01*
X210623809Y-79300390D02*
X210585714Y-79338485D01*
X210585714Y-79338485D02*
X210509524Y-79452771D01*
X210509524Y-79452771D02*
X210471428Y-79605152D01*
X210471428Y-79605152D02*
X210471428Y-79909914D01*
X210471428Y-79909914D02*
X210509524Y-79986104D01*
X210509524Y-79986104D02*
X210547619Y-80024200D01*
X210547619Y-80024200D02*
X210623809Y-80062295D01*
X210623809Y-80062295D02*
X210776190Y-80062295D01*
X210776190Y-80062295D02*
X210852381Y-80024200D01*
X210852381Y-80024200D02*
X210890476Y-79986104D01*
X210890476Y-79986104D02*
X210928571Y-79909914D01*
X210928571Y-79909914D02*
X210928571Y-79719438D01*
X210928571Y-79719438D02*
X210890476Y-79643247D01*
X210890476Y-79643247D02*
X210852381Y-79605152D01*
X210852381Y-79605152D02*
X210776190Y-79567057D01*
X210776190Y-79567057D02*
X210623809Y-79567057D01*
X210623809Y-79567057D02*
X210547619Y-79605152D01*
X210547619Y-79605152D02*
X210509524Y-79643247D01*
X210509524Y-79643247D02*
X210471428Y-79719438D01*
X237099524Y-103049795D02*
X237099524Y-102249795D01*
X237099524Y-102249795D02*
X237290000Y-102249795D01*
X237290000Y-102249795D02*
X237404286Y-102287890D01*
X237404286Y-102287890D02*
X237480476Y-102364080D01*
X237480476Y-102364080D02*
X237518571Y-102440271D01*
X237518571Y-102440271D02*
X237556667Y-102592652D01*
X237556667Y-102592652D02*
X237556667Y-102706938D01*
X237556667Y-102706938D02*
X237518571Y-102859319D01*
X237518571Y-102859319D02*
X237480476Y-102935509D01*
X237480476Y-102935509D02*
X237404286Y-103011700D01*
X237404286Y-103011700D02*
X237290000Y-103049795D01*
X237290000Y-103049795D02*
X237099524Y-103049795D01*
X237823333Y-102249795D02*
X238318571Y-102249795D01*
X238318571Y-102249795D02*
X238051905Y-102554557D01*
X238051905Y-102554557D02*
X238166190Y-102554557D01*
X238166190Y-102554557D02*
X238242381Y-102592652D01*
X238242381Y-102592652D02*
X238280476Y-102630747D01*
X238280476Y-102630747D02*
X238318571Y-102706938D01*
X238318571Y-102706938D02*
X238318571Y-102897414D01*
X238318571Y-102897414D02*
X238280476Y-102973604D01*
X238280476Y-102973604D02*
X238242381Y-103011700D01*
X238242381Y-103011700D02*
X238166190Y-103049795D01*
X238166190Y-103049795D02*
X237937619Y-103049795D01*
X237937619Y-103049795D02*
X237861428Y-103011700D01*
X237861428Y-103011700D02*
X237823333Y-102973604D01*
X210320476Y-100590390D02*
X210244286Y-100552295D01*
X210244286Y-100552295D02*
X210130000Y-100552295D01*
X210130000Y-100552295D02*
X210015714Y-100590390D01*
X210015714Y-100590390D02*
X209939524Y-100666580D01*
X209939524Y-100666580D02*
X209901429Y-100742771D01*
X209901429Y-100742771D02*
X209863333Y-100895152D01*
X209863333Y-100895152D02*
X209863333Y-101009438D01*
X209863333Y-101009438D02*
X209901429Y-101161819D01*
X209901429Y-101161819D02*
X209939524Y-101238009D01*
X209939524Y-101238009D02*
X210015714Y-101314200D01*
X210015714Y-101314200D02*
X210130000Y-101352295D01*
X210130000Y-101352295D02*
X210206191Y-101352295D01*
X210206191Y-101352295D02*
X210320476Y-101314200D01*
X210320476Y-101314200D02*
X210358572Y-101276104D01*
X210358572Y-101276104D02*
X210358572Y-101009438D01*
X210358572Y-101009438D02*
X210206191Y-101009438D01*
X210701429Y-101352295D02*
X210701429Y-100552295D01*
X210701429Y-100552295D02*
X211158572Y-101352295D01*
X211158572Y-101352295D02*
X211158572Y-100552295D01*
X211539524Y-101352295D02*
X211539524Y-100552295D01*
X211539524Y-100552295D02*
X211730000Y-100552295D01*
X211730000Y-100552295D02*
X211844286Y-100590390D01*
X211844286Y-100590390D02*
X211920476Y-100666580D01*
X211920476Y-100666580D02*
X211958571Y-100742771D01*
X211958571Y-100742771D02*
X211996667Y-100895152D01*
X211996667Y-100895152D02*
X211996667Y-101009438D01*
X211996667Y-101009438D02*
X211958571Y-101161819D01*
X211958571Y-101161819D02*
X211920476Y-101238009D01*
X211920476Y-101238009D02*
X211844286Y-101314200D01*
X211844286Y-101314200D02*
X211730000Y-101352295D01*
X211730000Y-101352295D02*
X211539524Y-101352295D01*
X203995238Y-64762295D02*
X203995238Y-63962295D01*
X203995238Y-63962295D02*
X204185714Y-63962295D01*
X204185714Y-63962295D02*
X204300000Y-64000390D01*
X204300000Y-64000390D02*
X204376190Y-64076580D01*
X204376190Y-64076580D02*
X204414285Y-64152771D01*
X204414285Y-64152771D02*
X204452381Y-64305152D01*
X204452381Y-64305152D02*
X204452381Y-64419438D01*
X204452381Y-64419438D02*
X204414285Y-64571819D01*
X204414285Y-64571819D02*
X204376190Y-64648009D01*
X204376190Y-64648009D02*
X204300000Y-64724200D01*
X204300000Y-64724200D02*
X204185714Y-64762295D01*
X204185714Y-64762295D02*
X203995238Y-64762295D01*
X204719047Y-63962295D02*
X204909523Y-64762295D01*
X204909523Y-64762295D02*
X205061904Y-64190866D01*
X205061904Y-64190866D02*
X205214285Y-64762295D01*
X205214285Y-64762295D02*
X205404762Y-63962295D01*
X205709524Y-64762295D02*
X205709524Y-63962295D01*
X205709524Y-63962295D02*
X205976190Y-64533723D01*
X205976190Y-64533723D02*
X206242857Y-63962295D01*
X206242857Y-63962295D02*
X206242857Y-64762295D01*
X207042857Y-64762295D02*
X206585714Y-64762295D01*
X206814286Y-64762295D02*
X206814286Y-63962295D01*
X206814286Y-63962295D02*
X206738095Y-64076580D01*
X206738095Y-64076580D02*
X206661905Y-64152771D01*
X206661905Y-64152771D02*
X206585714Y-64190866D01*
X206945705Y-101299795D02*
X206945705Y-101947414D01*
X206945705Y-101947414D02*
X206983800Y-102023604D01*
X206983800Y-102023604D02*
X207021895Y-102061700D01*
X207021895Y-102061700D02*
X207098086Y-102099795D01*
X207098086Y-102099795D02*
X207250467Y-102099795D01*
X207250467Y-102099795D02*
X207326657Y-102061700D01*
X207326657Y-102061700D02*
X207364752Y-102023604D01*
X207364752Y-102023604D02*
X207402848Y-101947414D01*
X207402848Y-101947414D02*
X207402848Y-101299795D01*
X208202847Y-102099795D02*
X207745704Y-102099795D01*
X207974276Y-102099795D02*
X207974276Y-101299795D01*
X207974276Y-101299795D02*
X207898085Y-101414080D01*
X207898085Y-101414080D02*
X207821895Y-101490271D01*
X207821895Y-101490271D02*
X207745704Y-101528366D01*
X195259523Y-81132295D02*
X195754761Y-81132295D01*
X195754761Y-81132295D02*
X195488095Y-81437057D01*
X195488095Y-81437057D02*
X195602380Y-81437057D01*
X195602380Y-81437057D02*
X195678571Y-81475152D01*
X195678571Y-81475152D02*
X195716666Y-81513247D01*
X195716666Y-81513247D02*
X195754761Y-81589438D01*
X195754761Y-81589438D02*
X195754761Y-81779914D01*
X195754761Y-81779914D02*
X195716666Y-81856104D01*
X195716666Y-81856104D02*
X195678571Y-81894200D01*
X195678571Y-81894200D02*
X195602380Y-81932295D01*
X195602380Y-81932295D02*
X195373809Y-81932295D01*
X195373809Y-81932295D02*
X195297618Y-81894200D01*
X195297618Y-81894200D02*
X195259523Y-81856104D01*
X195983333Y-81132295D02*
X196250000Y-81932295D01*
X196250000Y-81932295D02*
X196516666Y-81132295D01*
X196707142Y-81132295D02*
X197202380Y-81132295D01*
X197202380Y-81132295D02*
X196935714Y-81437057D01*
X196935714Y-81437057D02*
X197049999Y-81437057D01*
X197049999Y-81437057D02*
X197126190Y-81475152D01*
X197126190Y-81475152D02*
X197164285Y-81513247D01*
X197164285Y-81513247D02*
X197202380Y-81589438D01*
X197202380Y-81589438D02*
X197202380Y-81779914D01*
X197202380Y-81779914D02*
X197164285Y-81856104D01*
X197164285Y-81856104D02*
X197126190Y-81894200D01*
X197126190Y-81894200D02*
X197049999Y-81932295D01*
X197049999Y-81932295D02*
X196821428Y-81932295D01*
X196821428Y-81932295D02*
X196745237Y-81894200D01*
X196745237Y-81894200D02*
X196707142Y-81856104D01*
X224169048Y-87741342D02*
X224169048Y-88122295D01*
X223902381Y-87322295D02*
X224169048Y-87741342D01*
X224169048Y-87741342D02*
X224435714Y-87322295D01*
X225121428Y-88122295D02*
X224664285Y-88122295D01*
X224892857Y-88122295D02*
X224892857Y-87322295D01*
X224892857Y-87322295D02*
X224816666Y-87436580D01*
X224816666Y-87436580D02*
X224740476Y-87512771D01*
X224740476Y-87512771D02*
X224664285Y-87550866D01*
G36*
X220155571Y-66759980D02*
G01*
X220166931Y-66771340D01*
X220182143Y-66801762D01*
X220182143Y-66852065D01*
X220166932Y-66882486D01*
X220155573Y-66893845D01*
X220125151Y-66909057D01*
X219989286Y-66909057D01*
X219989286Y-66744771D01*
X220125153Y-66744771D01*
X220155571Y-66759980D01*
G37*
G36*
X220407143Y-67419771D02*
G01*
X218021429Y-67419771D01*
X218021429Y-66669771D01*
X218096429Y-66669771D01*
X218096429Y-67155485D01*
X218097870Y-67170117D01*
X218098901Y-67172606D01*
X218099092Y-67175294D01*
X218104347Y-67189026D01*
X218132918Y-67246169D01*
X218136882Y-67252468D01*
X218137640Y-67254296D01*
X218139328Y-67256352D01*
X218140750Y-67258612D01*
X218142248Y-67259911D01*
X218146967Y-67265661D01*
X218175539Y-67294233D01*
X218181289Y-67298953D01*
X218182588Y-67300450D01*
X218184842Y-67301869D01*
X218186904Y-67303561D01*
X218188736Y-67304319D01*
X218195031Y-67308282D01*
X218252173Y-67336853D01*
X218265905Y-67342108D01*
X218268592Y-67342298D01*
X218271082Y-67343330D01*
X218285714Y-67344771D01*
X218400000Y-67344771D01*
X218414632Y-67343330D01*
X218417121Y-67342298D01*
X218419809Y-67342108D01*
X218433541Y-67336853D01*
X218490684Y-67308282D01*
X218496981Y-67304318D01*
X218498812Y-67303560D01*
X218500871Y-67301869D01*
X218503127Y-67300450D01*
X218504425Y-67298952D01*
X218510177Y-67294232D01*
X218538748Y-67265660D01*
X218543468Y-67259908D01*
X218544963Y-67258612D01*
X218546381Y-67256358D01*
X218548075Y-67254295D01*
X218548833Y-67252463D01*
X218552796Y-67246169D01*
X218581368Y-67189027D01*
X218586623Y-67175295D01*
X218586814Y-67172605D01*
X218587845Y-67170117D01*
X218589286Y-67155485D01*
X218589286Y-66784057D01*
X218696428Y-66784057D01*
X218696428Y-66841200D01*
X218697869Y-66855832D01*
X218698899Y-66858320D01*
X218699091Y-66861010D01*
X218704346Y-66874742D01*
X218732918Y-66931884D01*
X218736881Y-66938180D01*
X218737639Y-66940009D01*
X218739329Y-66942068D01*
X218740751Y-66944327D01*
X218742248Y-66945625D01*
X218746966Y-66951374D01*
X218775537Y-66979946D01*
X218781291Y-66984669D01*
X218782588Y-66986164D01*
X218784840Y-66987581D01*
X218786902Y-66989274D01*
X218788734Y-66990032D01*
X218795030Y-66993996D01*
X218852174Y-67022567D01*
X218853241Y-67022975D01*
X218853678Y-67023299D01*
X218859838Y-67025500D01*
X218865906Y-67027822D01*
X218866444Y-67027860D01*
X218867524Y-67028246D01*
X218973825Y-67054822D01*
X219012714Y-67074266D01*
X219024074Y-67085626D01*
X219039285Y-67116047D01*
X219039285Y-67137780D01*
X219024074Y-67168201D01*
X219012714Y-67179561D01*
X218982296Y-67194771D01*
X218869314Y-67194771D01*
X218795145Y-67170049D01*
X218780808Y-67166789D01*
X218751618Y-67168864D01*
X218725444Y-67181951D01*
X218706271Y-67204058D01*
X218697017Y-67231820D01*
X218699092Y-67261010D01*
X218712179Y-67287184D01*
X218734286Y-67306357D01*
X218747711Y-67312351D01*
X218833426Y-67340922D01*
X218840679Y-67342571D01*
X218842511Y-67343330D01*
X218845165Y-67343591D01*
X218847763Y-67344182D01*
X218849737Y-67344041D01*
X218857143Y-67344771D01*
X219000000Y-67344771D01*
X219014632Y-67343330D01*
X219017121Y-67342298D01*
X219019809Y-67342108D01*
X219033541Y-67336853D01*
X219090684Y-67308282D01*
X219096981Y-67304318D01*
X219098812Y-67303560D01*
X219100871Y-67301869D01*
X219103127Y-67300450D01*
X219104425Y-67298952D01*
X219110177Y-67294232D01*
X219138748Y-67265660D01*
X219143468Y-67259907D01*
X219144964Y-67258611D01*
X219146383Y-67256356D01*
X219148075Y-67254295D01*
X219148833Y-67252464D01*
X219152796Y-67246169D01*
X219181367Y-67189025D01*
X219186622Y-67175293D01*
X219186812Y-67172606D01*
X219187844Y-67170117D01*
X219189285Y-67155485D01*
X219189285Y-67098342D01*
X219187844Y-67083710D01*
X219186812Y-67081220D01*
X219186622Y-67078533D01*
X219181367Y-67064801D01*
X219152796Y-67007659D01*
X219148832Y-67001362D01*
X219148075Y-66999533D01*
X219146385Y-66997474D01*
X219144964Y-66995216D01*
X219143465Y-66993916D01*
X219138748Y-66988168D01*
X219110177Y-66959596D01*
X219104425Y-66954875D01*
X219103127Y-66953378D01*
X219100871Y-66951958D01*
X219098812Y-66950268D01*
X219096981Y-66949509D01*
X219090684Y-66945546D01*
X219033541Y-66916975D01*
X219032471Y-66916565D01*
X219032036Y-66916243D01*
X219025890Y-66914047D01*
X219019809Y-66911720D01*
X219019269Y-66911681D01*
X219018190Y-66911296D01*
X218911889Y-66884720D01*
X218872998Y-66865275D01*
X218861639Y-66853916D01*
X218846428Y-66823493D01*
X218846428Y-66801762D01*
X218861639Y-66771339D01*
X218872998Y-66759980D01*
X218903419Y-66744771D01*
X219016401Y-66744771D01*
X219090568Y-66769493D01*
X219104905Y-66772753D01*
X219134095Y-66770678D01*
X219160268Y-66757591D01*
X219179442Y-66735484D01*
X219188696Y-66707722D01*
X219186621Y-66678532D01*
X219182240Y-66669771D01*
X219296429Y-66669771D01*
X219296429Y-67269771D01*
X219297870Y-67284403D01*
X219309069Y-67311439D01*
X219329761Y-67332131D01*
X219356797Y-67343330D01*
X219371429Y-67344771D01*
X219657143Y-67344771D01*
X219671775Y-67343330D01*
X219698811Y-67332131D01*
X219719503Y-67311439D01*
X219730702Y-67284403D01*
X219730702Y-67255139D01*
X219719503Y-67228103D01*
X219698811Y-67207411D01*
X219671775Y-67196212D01*
X219657143Y-67194771D01*
X219446429Y-67194771D01*
X219446429Y-67030485D01*
X219571429Y-67030485D01*
X219586061Y-67029044D01*
X219613097Y-67017845D01*
X219633789Y-66997153D01*
X219644988Y-66970117D01*
X219644988Y-66940853D01*
X219633789Y-66913817D01*
X219613097Y-66893125D01*
X219586061Y-66881926D01*
X219571429Y-66880485D01*
X219446429Y-66880485D01*
X219446429Y-66744771D01*
X219657143Y-66744771D01*
X219671775Y-66743330D01*
X219698811Y-66732131D01*
X219719503Y-66711439D01*
X219730702Y-66684403D01*
X219730702Y-66669771D01*
X219839286Y-66669771D01*
X219839286Y-67269771D01*
X219840727Y-67284403D01*
X219851926Y-67311439D01*
X219872618Y-67332131D01*
X219899654Y-67343330D01*
X219928918Y-67343330D01*
X219955954Y-67332131D01*
X219976646Y-67311439D01*
X219987845Y-67284403D01*
X219989286Y-67269771D01*
X219989286Y-67059057D01*
X220018094Y-67059057D01*
X220195700Y-67312780D01*
X220205272Y-67323941D01*
X220229950Y-67339667D01*
X220258768Y-67344753D01*
X220287339Y-67338423D01*
X220311313Y-67321642D01*
X220327040Y-67296963D01*
X220332125Y-67268145D01*
X220325795Y-67239574D01*
X220318585Y-67226761D01*
X220190658Y-67044008D01*
X220233541Y-67022567D01*
X220239837Y-67018603D01*
X220241668Y-67017845D01*
X220243729Y-67016153D01*
X220245984Y-67014734D01*
X220247280Y-67013238D01*
X220253033Y-67008518D01*
X220281604Y-66979947D01*
X220286324Y-66974194D01*
X220287820Y-66972898D01*
X220289239Y-66970643D01*
X220290931Y-66968582D01*
X220291689Y-66966751D01*
X220295653Y-66960455D01*
X220324225Y-66903313D01*
X220329480Y-66889581D01*
X220329671Y-66886891D01*
X220330702Y-66884403D01*
X220332143Y-66869771D01*
X220332143Y-66784057D01*
X220330702Y-66769425D01*
X220329671Y-66766936D01*
X220329480Y-66764247D01*
X220324225Y-66750515D01*
X220295653Y-66693373D01*
X220291690Y-66687078D01*
X220290932Y-66685247D01*
X220289238Y-66683183D01*
X220287820Y-66680930D01*
X220286325Y-66679633D01*
X220281605Y-66673882D01*
X220253034Y-66645310D01*
X220247282Y-66640589D01*
X220245984Y-66639092D01*
X220243728Y-66637672D01*
X220241669Y-66635982D01*
X220239838Y-66635223D01*
X220233541Y-66631260D01*
X220176398Y-66602689D01*
X220162666Y-66597434D01*
X220159978Y-66597243D01*
X220157489Y-66596212D01*
X220142857Y-66594771D01*
X219914286Y-66594771D01*
X219899654Y-66596212D01*
X219872618Y-66607411D01*
X219851926Y-66628103D01*
X219840727Y-66655139D01*
X219839286Y-66669771D01*
X219730702Y-66669771D01*
X219730702Y-66655139D01*
X219719503Y-66628103D01*
X219698811Y-66607411D01*
X219671775Y-66596212D01*
X219657143Y-66594771D01*
X219371429Y-66594771D01*
X219356797Y-66596212D01*
X219329761Y-66607411D01*
X219309069Y-66628103D01*
X219297870Y-66655139D01*
X219296429Y-66669771D01*
X219182240Y-66669771D01*
X219173534Y-66652358D01*
X219151427Y-66633185D01*
X219138001Y-66627191D01*
X219052288Y-66598620D01*
X219045034Y-66596970D01*
X219043203Y-66596212D01*
X219040548Y-66595950D01*
X219037951Y-66595360D01*
X219035976Y-66595500D01*
X219028571Y-66594771D01*
X218885714Y-66594771D01*
X218871082Y-66596212D01*
X218868592Y-66597243D01*
X218865906Y-66597434D01*
X218852174Y-66602689D01*
X218795030Y-66631260D01*
X218788734Y-66635223D01*
X218786902Y-66635982D01*
X218784840Y-66637674D01*
X218782588Y-66639092D01*
X218781291Y-66640586D01*
X218775537Y-66645310D01*
X218746966Y-66673882D01*
X218742245Y-66679633D01*
X218740751Y-66680930D01*
X218739332Y-66683183D01*
X218737639Y-66685247D01*
X218736880Y-66687078D01*
X218732918Y-66693373D01*
X218704346Y-66750516D01*
X218699091Y-66764247D01*
X218698899Y-66766936D01*
X218697869Y-66769425D01*
X218696428Y-66784057D01*
X218589286Y-66784057D01*
X218589286Y-66669771D01*
X218587845Y-66655139D01*
X218576646Y-66628103D01*
X218555954Y-66607411D01*
X218528918Y-66596212D01*
X218499654Y-66596212D01*
X218472618Y-66607411D01*
X218451926Y-66628103D01*
X218440727Y-66655139D01*
X218439286Y-66669771D01*
X218439286Y-67137779D01*
X218424074Y-67168201D01*
X218412714Y-67179561D01*
X218382296Y-67194771D01*
X218303419Y-67194771D01*
X218272999Y-67179561D01*
X218261638Y-67168200D01*
X218246429Y-67137780D01*
X218246429Y-66669771D01*
X218244988Y-66655139D01*
X218233789Y-66628103D01*
X218213097Y-66607411D01*
X218186061Y-66596212D01*
X218156797Y-66596212D01*
X218129761Y-66607411D01*
X218109069Y-66628103D01*
X218097870Y-66655139D01*
X218096429Y-66669771D01*
X218021429Y-66669771D01*
X218021429Y-66519771D01*
X220407143Y-66519771D01*
X220407143Y-67419771D01*
G37*
X200983333Y-87502295D02*
X200983333Y-88073723D01*
X200983333Y-88073723D02*
X200945238Y-88188009D01*
X200945238Y-88188009D02*
X200869047Y-88264200D01*
X200869047Y-88264200D02*
X200754762Y-88302295D01*
X200754762Y-88302295D02*
X200678571Y-88302295D01*
X201326190Y-87578485D02*
X201364286Y-87540390D01*
X201364286Y-87540390D02*
X201440476Y-87502295D01*
X201440476Y-87502295D02*
X201630952Y-87502295D01*
X201630952Y-87502295D02*
X201707143Y-87540390D01*
X201707143Y-87540390D02*
X201745238Y-87578485D01*
X201745238Y-87578485D02*
X201783333Y-87654676D01*
X201783333Y-87654676D02*
X201783333Y-87730866D01*
X201783333Y-87730866D02*
X201745238Y-87845152D01*
X201745238Y-87845152D02*
X201288095Y-88302295D01*
X201288095Y-88302295D02*
X201783333Y-88302295D01*
X195323332Y-107424200D02*
X195437618Y-107462295D01*
X195437618Y-107462295D02*
X195628094Y-107462295D01*
X195628094Y-107462295D02*
X195704285Y-107424200D01*
X195704285Y-107424200D02*
X195742380Y-107386104D01*
X195742380Y-107386104D02*
X195780475Y-107309914D01*
X195780475Y-107309914D02*
X195780475Y-107233723D01*
X195780475Y-107233723D02*
X195742380Y-107157533D01*
X195742380Y-107157533D02*
X195704285Y-107119438D01*
X195704285Y-107119438D02*
X195628094Y-107081342D01*
X195628094Y-107081342D02*
X195475713Y-107043247D01*
X195475713Y-107043247D02*
X195399523Y-107005152D01*
X195399523Y-107005152D02*
X195361428Y-106967057D01*
X195361428Y-106967057D02*
X195323332Y-106890866D01*
X195323332Y-106890866D02*
X195323332Y-106814676D01*
X195323332Y-106814676D02*
X195361428Y-106738485D01*
X195361428Y-106738485D02*
X195399523Y-106700390D01*
X195399523Y-106700390D02*
X195475713Y-106662295D01*
X195475713Y-106662295D02*
X195666190Y-106662295D01*
X195666190Y-106662295D02*
X195780475Y-106700390D01*
X196047142Y-106662295D02*
X196237618Y-107462295D01*
X196237618Y-107462295D02*
X196389999Y-106890866D01*
X196389999Y-106890866D02*
X196542380Y-107462295D01*
X196542380Y-107462295D02*
X196732857Y-106662295D01*
X196999523Y-106738485D02*
X197037619Y-106700390D01*
X197037619Y-106700390D02*
X197113809Y-106662295D01*
X197113809Y-106662295D02*
X197304285Y-106662295D01*
X197304285Y-106662295D02*
X197380476Y-106700390D01*
X197380476Y-106700390D02*
X197418571Y-106738485D01*
X197418571Y-106738485D02*
X197456666Y-106814676D01*
X197456666Y-106814676D02*
X197456666Y-106890866D01*
X197456666Y-106890866D02*
X197418571Y-107005152D01*
X197418571Y-107005152D02*
X196961428Y-107462295D01*
X196961428Y-107462295D02*
X197456666Y-107462295D01*
X200109524Y-80062295D02*
X200109524Y-79262295D01*
X200109524Y-79262295D02*
X200300000Y-79262295D01*
X200300000Y-79262295D02*
X200414286Y-79300390D01*
X200414286Y-79300390D02*
X200490476Y-79376580D01*
X200490476Y-79376580D02*
X200528571Y-79452771D01*
X200528571Y-79452771D02*
X200566667Y-79605152D01*
X200566667Y-79605152D02*
X200566667Y-79719438D01*
X200566667Y-79719438D02*
X200528571Y-79871819D01*
X200528571Y-79871819D02*
X200490476Y-79948009D01*
X200490476Y-79948009D02*
X200414286Y-80024200D01*
X200414286Y-80024200D02*
X200300000Y-80062295D01*
X200300000Y-80062295D02*
X200109524Y-80062295D01*
X200833333Y-79262295D02*
X201366667Y-79262295D01*
X201366667Y-79262295D02*
X201023809Y-80062295D01*
X237149524Y-104849795D02*
X237149524Y-104049795D01*
X237149524Y-104049795D02*
X237340000Y-104049795D01*
X237340000Y-104049795D02*
X237454286Y-104087890D01*
X237454286Y-104087890D02*
X237530476Y-104164080D01*
X237530476Y-104164080D02*
X237568571Y-104240271D01*
X237568571Y-104240271D02*
X237606667Y-104392652D01*
X237606667Y-104392652D02*
X237606667Y-104506938D01*
X237606667Y-104506938D02*
X237568571Y-104659319D01*
X237568571Y-104659319D02*
X237530476Y-104735509D01*
X237530476Y-104735509D02*
X237454286Y-104811700D01*
X237454286Y-104811700D02*
X237340000Y-104849795D01*
X237340000Y-104849795D02*
X237149524Y-104849795D01*
X238292381Y-104316461D02*
X238292381Y-104849795D01*
X238101905Y-104011700D02*
X237911428Y-104583128D01*
X237911428Y-104583128D02*
X238406667Y-104583128D01*
X237224524Y-101379795D02*
X237224524Y-100579795D01*
X237224524Y-100579795D02*
X237415000Y-100579795D01*
X237415000Y-100579795D02*
X237529286Y-100617890D01*
X237529286Y-100617890D02*
X237605476Y-100694080D01*
X237605476Y-100694080D02*
X237643571Y-100770271D01*
X237643571Y-100770271D02*
X237681667Y-100922652D01*
X237681667Y-100922652D02*
X237681667Y-101036938D01*
X237681667Y-101036938D02*
X237643571Y-101189319D01*
X237643571Y-101189319D02*
X237605476Y-101265509D01*
X237605476Y-101265509D02*
X237529286Y-101341700D01*
X237529286Y-101341700D02*
X237415000Y-101379795D01*
X237415000Y-101379795D02*
X237224524Y-101379795D01*
X237986428Y-100655985D02*
X238024524Y-100617890D01*
X238024524Y-100617890D02*
X238100714Y-100579795D01*
X238100714Y-100579795D02*
X238291190Y-100579795D01*
X238291190Y-100579795D02*
X238367381Y-100617890D01*
X238367381Y-100617890D02*
X238405476Y-100655985D01*
X238405476Y-100655985D02*
X238443571Y-100732176D01*
X238443571Y-100732176D02*
X238443571Y-100808366D01*
X238443571Y-100808366D02*
X238405476Y-100922652D01*
X238405476Y-100922652D02*
X237948333Y-101379795D01*
X237948333Y-101379795D02*
X238443571Y-101379795D01*
X206669524Y-93182295D02*
X206669524Y-92382295D01*
X206669524Y-92382295D02*
X206860000Y-92382295D01*
X206860000Y-92382295D02*
X206974286Y-92420390D01*
X206974286Y-92420390D02*
X207050476Y-92496580D01*
X207050476Y-92496580D02*
X207088571Y-92572771D01*
X207088571Y-92572771D02*
X207126667Y-92725152D01*
X207126667Y-92725152D02*
X207126667Y-92839438D01*
X207126667Y-92839438D02*
X207088571Y-92991819D01*
X207088571Y-92991819D02*
X207050476Y-93068009D01*
X207050476Y-93068009D02*
X206974286Y-93144200D01*
X206974286Y-93144200D02*
X206860000Y-93182295D01*
X206860000Y-93182295D02*
X206669524Y-93182295D01*
X207888571Y-93182295D02*
X207431428Y-93182295D01*
X207660000Y-93182295D02*
X207660000Y-92382295D01*
X207660000Y-92382295D02*
X207583809Y-92496580D01*
X207583809Y-92496580D02*
X207507619Y-92572771D01*
X207507619Y-92572771D02*
X207431428Y-92610866D01*
X224809523Y-96802295D02*
X225304761Y-96802295D01*
X225304761Y-96802295D02*
X225038095Y-97107057D01*
X225038095Y-97107057D02*
X225152380Y-97107057D01*
X225152380Y-97107057D02*
X225228571Y-97145152D01*
X225228571Y-97145152D02*
X225266666Y-97183247D01*
X225266666Y-97183247D02*
X225304761Y-97259438D01*
X225304761Y-97259438D02*
X225304761Y-97449914D01*
X225304761Y-97449914D02*
X225266666Y-97526104D01*
X225266666Y-97526104D02*
X225228571Y-97564200D01*
X225228571Y-97564200D02*
X225152380Y-97602295D01*
X225152380Y-97602295D02*
X224923809Y-97602295D01*
X224923809Y-97602295D02*
X224847618Y-97564200D01*
X224847618Y-97564200D02*
X224809523Y-97526104D01*
X225533333Y-96802295D02*
X225800000Y-97602295D01*
X225800000Y-97602295D02*
X226066666Y-96802295D01*
X226257142Y-96802295D02*
X226752380Y-96802295D01*
X226752380Y-96802295D02*
X226485714Y-97107057D01*
X226485714Y-97107057D02*
X226599999Y-97107057D01*
X226599999Y-97107057D02*
X226676190Y-97145152D01*
X226676190Y-97145152D02*
X226714285Y-97183247D01*
X226714285Y-97183247D02*
X226752380Y-97259438D01*
X226752380Y-97259438D02*
X226752380Y-97449914D01*
X226752380Y-97449914D02*
X226714285Y-97526104D01*
X226714285Y-97526104D02*
X226676190Y-97564200D01*
X226676190Y-97564200D02*
X226599999Y-97602295D01*
X226599999Y-97602295D02*
X226371428Y-97602295D01*
X226371428Y-97602295D02*
X226295237Y-97564200D01*
X226295237Y-97564200D02*
X226257142Y-97526104D01*
X204617142Y-99493247D02*
X204731428Y-99531342D01*
X204731428Y-99531342D02*
X204769523Y-99569438D01*
X204769523Y-99569438D02*
X204807619Y-99645628D01*
X204807619Y-99645628D02*
X204807619Y-99759914D01*
X204807619Y-99759914D02*
X204769523Y-99836104D01*
X204769523Y-99836104D02*
X204731428Y-99874200D01*
X204731428Y-99874200D02*
X204655238Y-99912295D01*
X204655238Y-99912295D02*
X204350476Y-99912295D01*
X204350476Y-99912295D02*
X204350476Y-99112295D01*
X204350476Y-99112295D02*
X204617142Y-99112295D01*
X204617142Y-99112295D02*
X204693333Y-99150390D01*
X204693333Y-99150390D02*
X204731428Y-99188485D01*
X204731428Y-99188485D02*
X204769523Y-99264676D01*
X204769523Y-99264676D02*
X204769523Y-99340866D01*
X204769523Y-99340866D02*
X204731428Y-99417057D01*
X204731428Y-99417057D02*
X204693333Y-99455152D01*
X204693333Y-99455152D02*
X204617142Y-99493247D01*
X204617142Y-99493247D02*
X204350476Y-99493247D01*
X205150476Y-99112295D02*
X205150476Y-99759914D01*
X205150476Y-99759914D02*
X205188571Y-99836104D01*
X205188571Y-99836104D02*
X205226666Y-99874200D01*
X205226666Y-99874200D02*
X205302857Y-99912295D01*
X205302857Y-99912295D02*
X205455238Y-99912295D01*
X205455238Y-99912295D02*
X205531428Y-99874200D01*
X205531428Y-99874200D02*
X205569523Y-99836104D01*
X205569523Y-99836104D02*
X205607619Y-99759914D01*
X205607619Y-99759914D02*
X205607619Y-99112295D01*
X205950475Y-99874200D02*
X206064761Y-99912295D01*
X206064761Y-99912295D02*
X206255237Y-99912295D01*
X206255237Y-99912295D02*
X206331428Y-99874200D01*
X206331428Y-99874200D02*
X206369523Y-99836104D01*
X206369523Y-99836104D02*
X206407618Y-99759914D01*
X206407618Y-99759914D02*
X206407618Y-99683723D01*
X206407618Y-99683723D02*
X206369523Y-99607533D01*
X206369523Y-99607533D02*
X206331428Y-99569438D01*
X206331428Y-99569438D02*
X206255237Y-99531342D01*
X206255237Y-99531342D02*
X206102856Y-99493247D01*
X206102856Y-99493247D02*
X206026666Y-99455152D01*
X206026666Y-99455152D02*
X205988571Y-99417057D01*
X205988571Y-99417057D02*
X205950475Y-99340866D01*
X205950475Y-99340866D02*
X205950475Y-99264676D01*
X205950475Y-99264676D02*
X205988571Y-99188485D01*
X205988571Y-99188485D02*
X206026666Y-99150390D01*
X206026666Y-99150390D02*
X206102856Y-99112295D01*
X206102856Y-99112295D02*
X206293333Y-99112295D01*
X206293333Y-99112295D02*
X206407618Y-99150390D01*
X210207669Y-105464885D02*
X210207669Y-106112504D01*
X210207669Y-106112504D02*
X210245764Y-106188694D01*
X210245764Y-106188694D02*
X210283859Y-106226790D01*
X210283859Y-106226790D02*
X210360050Y-106264885D01*
X210360050Y-106264885D02*
X210512431Y-106264885D01*
X210512431Y-106264885D02*
X210588621Y-106226790D01*
X210588621Y-106226790D02*
X210626716Y-106188694D01*
X210626716Y-106188694D02*
X210664812Y-106112504D01*
X210664812Y-106112504D02*
X210664812Y-105464885D01*
X211388621Y-105731551D02*
X211388621Y-106264885D01*
X211198145Y-105426790D02*
X211007668Y-105998218D01*
X211007668Y-105998218D02*
X211502907Y-105998218D01*
G36*
X214136999Y-111579980D02*
G01*
X214148359Y-111591340D01*
X214163571Y-111621762D01*
X214163571Y-111672065D01*
X214148360Y-111702486D01*
X214137001Y-111713845D01*
X214106579Y-111729057D01*
X213970714Y-111729057D01*
X213970714Y-111564771D01*
X214106581Y-111564771D01*
X214136999Y-111579980D01*
G37*
G36*
X212851285Y-111579980D02*
G01*
X212862645Y-111591340D01*
X212877857Y-111621762D01*
X212877857Y-111672065D01*
X212862646Y-111702486D01*
X212851287Y-111713845D01*
X212820865Y-111729057D01*
X212685000Y-111729057D01*
X212685000Y-111564771D01*
X212820867Y-111564771D01*
X212851285Y-111579980D01*
G37*
G36*
X214388571Y-112239753D02*
G01*
X212460000Y-112239753D01*
X212460000Y-111489771D01*
X212535000Y-111489771D01*
X212535000Y-112089771D01*
X212536441Y-112104403D01*
X212547640Y-112131439D01*
X212568332Y-112152131D01*
X212595368Y-112163330D01*
X212624632Y-112163330D01*
X212651668Y-112152131D01*
X212672360Y-112131439D01*
X212683559Y-112104403D01*
X212685000Y-112089771D01*
X212685000Y-111879057D01*
X212838571Y-111879057D01*
X212853203Y-111877616D01*
X212855691Y-111876585D01*
X212858381Y-111876394D01*
X212872112Y-111871139D01*
X212929255Y-111842567D01*
X212935551Y-111838603D01*
X212937382Y-111837845D01*
X212939443Y-111836153D01*
X212941698Y-111834734D01*
X212942994Y-111833238D01*
X212948747Y-111828518D01*
X212977318Y-111799947D01*
X212982038Y-111794194D01*
X212983534Y-111792898D01*
X212984953Y-111790643D01*
X212986645Y-111788582D01*
X212987403Y-111786751D01*
X212991367Y-111780455D01*
X213019939Y-111723313D01*
X213025194Y-111709581D01*
X213025385Y-111706891D01*
X213026416Y-111704403D01*
X213027857Y-111689771D01*
X213027857Y-111604057D01*
X213026416Y-111589425D01*
X213025385Y-111586936D01*
X213025194Y-111584247D01*
X213019939Y-111570515D01*
X212991367Y-111513373D01*
X212987404Y-111507078D01*
X212986646Y-111505247D01*
X212984952Y-111503183D01*
X212983534Y-111500930D01*
X212982039Y-111499633D01*
X212977319Y-111493882D01*
X212976012Y-111492575D01*
X213077909Y-111492575D01*
X213079897Y-111507143D01*
X213222753Y-112107142D01*
X213224483Y-112112164D01*
X213224723Y-112113964D01*
X213225664Y-112115591D01*
X213227544Y-112121043D01*
X213233929Y-112129865D01*
X213239385Y-112139289D01*
X213242443Y-112141630D01*
X213244701Y-112144749D01*
X213253972Y-112150454D01*
X213262623Y-112157076D01*
X213266344Y-112158068D01*
X213269623Y-112160086D01*
X213280372Y-112161809D01*
X213290898Y-112164616D01*
X213294716Y-112164108D01*
X213298518Y-112164718D01*
X213309107Y-112162196D01*
X213319907Y-112160762D01*
X213323241Y-112158831D01*
X213326986Y-112157940D01*
X213335806Y-112151557D01*
X213345232Y-112146100D01*
X213347572Y-112143042D01*
X213350693Y-112140784D01*
X213356400Y-112131508D01*
X213363019Y-112122862D01*
X213365044Y-112117462D01*
X213366029Y-112115862D01*
X213366316Y-112114070D01*
X213368182Y-112109096D01*
X213409999Y-111952279D01*
X213451817Y-112109095D01*
X213453682Y-112114069D01*
X213453970Y-112115862D01*
X213454955Y-112117463D01*
X213456980Y-112122862D01*
X213463598Y-112131508D01*
X213469306Y-112140784D01*
X213472426Y-112143042D01*
X213474767Y-112146100D01*
X213484185Y-112151552D01*
X213493013Y-112157941D01*
X213496763Y-112158833D01*
X213500092Y-112160761D01*
X213510876Y-112162194D01*
X213521481Y-112164719D01*
X213525285Y-112164109D01*
X213529100Y-112164616D01*
X213539621Y-112161810D01*
X213550376Y-112160086D01*
X213553655Y-112158068D01*
X213557376Y-112157076D01*
X213566022Y-112150457D01*
X213575298Y-112144750D01*
X213577556Y-112141629D01*
X213580614Y-112139289D01*
X213586068Y-112129867D01*
X213592455Y-112121043D01*
X213594333Y-112115592D01*
X213595276Y-112113964D01*
X213595515Y-112112162D01*
X213597245Y-112107143D01*
X213740104Y-111507142D01*
X213742091Y-111492574D01*
X213741642Y-111489771D01*
X213820714Y-111489771D01*
X213820714Y-112089771D01*
X213822155Y-112104403D01*
X213833354Y-112131439D01*
X213854046Y-112152131D01*
X213881082Y-112163330D01*
X213910346Y-112163330D01*
X213937382Y-112152131D01*
X213958074Y-112131439D01*
X213969273Y-112104403D01*
X213970714Y-112089771D01*
X213970714Y-111879057D01*
X213999522Y-111879057D01*
X214177128Y-112132780D01*
X214186700Y-112143941D01*
X214211378Y-112159667D01*
X214240196Y-112164753D01*
X214268767Y-112158423D01*
X214292741Y-112141642D01*
X214308468Y-112116963D01*
X214313553Y-112088145D01*
X214307223Y-112059574D01*
X214300013Y-112046761D01*
X214172086Y-111864008D01*
X214214969Y-111842567D01*
X214221265Y-111838603D01*
X214223096Y-111837845D01*
X214225157Y-111836153D01*
X214227412Y-111834734D01*
X214228708Y-111833238D01*
X214234461Y-111828518D01*
X214263032Y-111799947D01*
X214267752Y-111794194D01*
X214269248Y-111792898D01*
X214270667Y-111790643D01*
X214272359Y-111788582D01*
X214273117Y-111786751D01*
X214277081Y-111780455D01*
X214305653Y-111723313D01*
X214310908Y-111709581D01*
X214311099Y-111706891D01*
X214312130Y-111704403D01*
X214313571Y-111689771D01*
X214313571Y-111604057D01*
X214312130Y-111589425D01*
X214311099Y-111586936D01*
X214310908Y-111584247D01*
X214305653Y-111570515D01*
X214277081Y-111513373D01*
X214273118Y-111507078D01*
X214272360Y-111505247D01*
X214270666Y-111503183D01*
X214269248Y-111500930D01*
X214267753Y-111499633D01*
X214263033Y-111493882D01*
X214234462Y-111465310D01*
X214228710Y-111460589D01*
X214227412Y-111459092D01*
X214225156Y-111457672D01*
X214223097Y-111455982D01*
X214221266Y-111455223D01*
X214214969Y-111451260D01*
X214157826Y-111422689D01*
X214144094Y-111417434D01*
X214141406Y-111417243D01*
X214138917Y-111416212D01*
X214124285Y-111414771D01*
X213895714Y-111414771D01*
X213881082Y-111416212D01*
X213854046Y-111427411D01*
X213833354Y-111448103D01*
X213822155Y-111475139D01*
X213820714Y-111489771D01*
X213741642Y-111489771D01*
X213737458Y-111463680D01*
X213722122Y-111438758D01*
X213698415Y-111421601D01*
X213669947Y-111414823D01*
X213641052Y-111419455D01*
X213616130Y-111434792D01*
X213598974Y-111458499D01*
X213594183Y-111472399D01*
X213520169Y-111783255D01*
X213482468Y-111641875D01*
X213481182Y-111638447D01*
X213480991Y-111637006D01*
X213479999Y-111635293D01*
X213477305Y-111628109D01*
X213471291Y-111620252D01*
X213466329Y-111611681D01*
X213462468Y-111608726D01*
X213459518Y-111604871D01*
X213450958Y-111599915D01*
X213443092Y-111593894D01*
X213438394Y-111592641D01*
X213434193Y-111590209D01*
X213424386Y-111588906D01*
X213414816Y-111586354D01*
X213409997Y-111586994D01*
X213405185Y-111586355D01*
X213395624Y-111588904D01*
X213385807Y-111590209D01*
X213381601Y-111592643D01*
X213376909Y-111593895D01*
X213369049Y-111599910D01*
X213360482Y-111604871D01*
X213357528Y-111608729D01*
X213353671Y-111611682D01*
X213348712Y-111620247D01*
X213342695Y-111628108D01*
X213340000Y-111635294D01*
X213339009Y-111637007D01*
X213338817Y-111638449D01*
X213337533Y-111641875D01*
X213299830Y-111783256D01*
X213225817Y-111472399D01*
X213221027Y-111458499D01*
X213203870Y-111434792D01*
X213178948Y-111419456D01*
X213150053Y-111414823D01*
X213121585Y-111421601D01*
X213097878Y-111438758D01*
X213082542Y-111463680D01*
X213077909Y-111492575D01*
X212976012Y-111492575D01*
X212948748Y-111465310D01*
X212942996Y-111460589D01*
X212941698Y-111459092D01*
X212939442Y-111457672D01*
X212937383Y-111455982D01*
X212935552Y-111455223D01*
X212929255Y-111451260D01*
X212872112Y-111422689D01*
X212858380Y-111417434D01*
X212855692Y-111417243D01*
X212853203Y-111416212D01*
X212838571Y-111414771D01*
X212610000Y-111414771D01*
X212595368Y-111416212D01*
X212568332Y-111427411D01*
X212547640Y-111448103D01*
X212536441Y-111475139D01*
X212535000Y-111489771D01*
X212460000Y-111489771D01*
X212460000Y-111339771D01*
X214388571Y-111339771D01*
X214388571Y-112239753D01*
G37*
X-463094Y918180D02*
X108333Y918180D01*
X-177380Y-81819D02*
X-177380Y918180D01*
X441667Y-81819D02*
X441667Y918180D01*
X441667Y918180D02*
X822619Y918180D01*
X822619Y918180D02*
X917857Y870561D01*
X917857Y870561D02*
X965476Y822942D01*
X965476Y822942D02*
X1013095Y727704D01*
X1013095Y727704D02*
X1013095Y584847D01*
X1013095Y584847D02*
X965476Y489609D01*
X965476Y489609D02*
X917857Y441990D01*
X917857Y441990D02*
X822619Y394371D01*
X822619Y394371D02*
X441667Y394371D01*
X1965476Y-81819D02*
X1394048Y-81819D01*
X1679762Y-81819D02*
X1679762Y918180D01*
X1679762Y918180D02*
X1584524Y775323D01*
X1584524Y775323D02*
X1489286Y680085D01*
X1489286Y680085D02*
X1394048Y632466D01*
X2822619Y918180D02*
X2632143Y918180D01*
X2632143Y918180D02*
X2536905Y870561D01*
X2536905Y870561D02*
X2489286Y822942D01*
X2489286Y822942D02*
X2394048Y680085D01*
X2394048Y680085D02*
X2346429Y489609D01*
X2346429Y489609D02*
X2346429Y108657D01*
X2346429Y108657D02*
X2394048Y13419D01*
X2394048Y13419D02*
X2441667Y-34200D01*
X2441667Y-34200D02*
X2536905Y-81819D01*
X2536905Y-81819D02*
X2727381Y-81819D01*
X2727381Y-81819D02*
X2822619Y-34200D01*
X2822619Y-34200D02*
X2870238Y13419D01*
X2870238Y13419D02*
X2917857Y108657D01*
X2917857Y108657D02*
X2917857Y346752D01*
X2917857Y346752D02*
X2870238Y441990D01*
X2870238Y441990D02*
X2822619Y489609D01*
X2822619Y489609D02*
X2727381Y537228D01*
X2727381Y537228D02*
X2536905Y537228D01*
X2536905Y537228D02*
X2441667Y489609D01*
X2441667Y489609D02*
X2394048Y441990D01*
X2394048Y441990D02*
X2346429Y346752D01*
X237113691Y-106486461D02*
X237113691Y-105686461D01*
X237113691Y-105686461D02*
X237304167Y-105686461D01*
X237304167Y-105686461D02*
X237418453Y-105724556D01*
X237418453Y-105724556D02*
X237494643Y-105800746D01*
X237494643Y-105800746D02*
X237532738Y-105876937D01*
X237532738Y-105876937D02*
X237570834Y-106029318D01*
X237570834Y-106029318D02*
X237570834Y-106143604D01*
X237570834Y-106143604D02*
X237532738Y-106295985D01*
X237532738Y-106295985D02*
X237494643Y-106372175D01*
X237494643Y-106372175D02*
X237418453Y-106448366D01*
X237418453Y-106448366D02*
X237304167Y-106486461D01*
X237304167Y-106486461D02*
X237113691Y-106486461D01*
X238294643Y-105686461D02*
X237913691Y-105686461D01*
X237913691Y-105686461D02*
X237875595Y-106067413D01*
X237875595Y-106067413D02*
X237913691Y-106029318D01*
X237913691Y-106029318D02*
X237989881Y-105991223D01*
X237989881Y-105991223D02*
X238180357Y-105991223D01*
X238180357Y-105991223D02*
X238256548Y-106029318D01*
X238256548Y-106029318D02*
X238294643Y-106067413D01*
X238294643Y-106067413D02*
X238332738Y-106143604D01*
X238332738Y-106143604D02*
X238332738Y-106334080D01*
X238332738Y-106334080D02*
X238294643Y-106410270D01*
X238294643Y-106410270D02*
X238256548Y-106448366D01*
X238256548Y-106448366D02*
X238180357Y-106486461D01*
X238180357Y-106486461D02*
X237989881Y-106486461D01*
X237989881Y-106486461D02*
X237913691Y-106448366D01*
X237913691Y-106448366D02*
X237875595Y-106410270D01*
G36*
X218126999Y-71359980D02*
G01*
X218138359Y-71371340D01*
X218153571Y-71401762D01*
X218153571Y-71452065D01*
X218138360Y-71482486D01*
X218127001Y-71493845D01*
X218096579Y-71509057D01*
X217960714Y-71509057D01*
X217960714Y-71344771D01*
X218096581Y-71344771D01*
X218126999Y-71359980D01*
G37*
G36*
X220548559Y-72019771D02*
G01*
X217735714Y-72019771D01*
X217735714Y-71269771D01*
X217810714Y-71269771D01*
X217810714Y-71869771D01*
X217812155Y-71884403D01*
X217823354Y-71911439D01*
X217844046Y-71932131D01*
X217871082Y-71943330D01*
X217900346Y-71943330D01*
X217927382Y-71932131D01*
X217948074Y-71911439D01*
X217959273Y-71884403D01*
X217960714Y-71869771D01*
X217960714Y-71659057D01*
X217989522Y-71659057D01*
X218167128Y-71912780D01*
X218176700Y-71923941D01*
X218201378Y-71939667D01*
X218230196Y-71944753D01*
X218258767Y-71938423D01*
X218282741Y-71921642D01*
X218298468Y-71896963D01*
X218303553Y-71868145D01*
X218297223Y-71839574D01*
X218290013Y-71826761D01*
X218162086Y-71644008D01*
X218204969Y-71622567D01*
X218211265Y-71618603D01*
X218213096Y-71617845D01*
X218215157Y-71616153D01*
X218217412Y-71614734D01*
X218218708Y-71613238D01*
X218224461Y-71608518D01*
X218253032Y-71579947D01*
X218257752Y-71574194D01*
X218259248Y-71572898D01*
X218260667Y-71570643D01*
X218262359Y-71568582D01*
X218263117Y-71566751D01*
X218267081Y-71560455D01*
X218295653Y-71503313D01*
X218300908Y-71489581D01*
X218301099Y-71486891D01*
X218302130Y-71484403D01*
X218303571Y-71469771D01*
X218303571Y-71384057D01*
X218302130Y-71369425D01*
X218301099Y-71366936D01*
X218300908Y-71364247D01*
X218295653Y-71350515D01*
X218267081Y-71293373D01*
X218263118Y-71287078D01*
X218262360Y-71285247D01*
X218260666Y-71283183D01*
X218259248Y-71280930D01*
X218257753Y-71279633D01*
X218253033Y-71273882D01*
X218248922Y-71269771D01*
X218410714Y-71269771D01*
X218410714Y-71869771D01*
X218412155Y-71884403D01*
X218423354Y-71911439D01*
X218444046Y-71932131D01*
X218471082Y-71943330D01*
X218485714Y-71944771D01*
X218771428Y-71944771D01*
X218786060Y-71943330D01*
X218813096Y-71932131D01*
X218833788Y-71911439D01*
X218844987Y-71884403D01*
X218844987Y-71855139D01*
X218833788Y-71828103D01*
X218813096Y-71807411D01*
X218786060Y-71796212D01*
X218771428Y-71794771D01*
X218560714Y-71794771D01*
X218560714Y-71630485D01*
X218685714Y-71630485D01*
X218700346Y-71629044D01*
X218727382Y-71617845D01*
X218748074Y-71597153D01*
X218759273Y-71570117D01*
X218759273Y-71540853D01*
X218748074Y-71513817D01*
X218727382Y-71493125D01*
X218700346Y-71481926D01*
X218685714Y-71480485D01*
X218560714Y-71480485D01*
X218560714Y-71384057D01*
X218924999Y-71384057D01*
X218924999Y-71441200D01*
X218926440Y-71455832D01*
X218927470Y-71458320D01*
X218927662Y-71461010D01*
X218932917Y-71474742D01*
X218961489Y-71531884D01*
X218965452Y-71538180D01*
X218966210Y-71540009D01*
X218967900Y-71542068D01*
X218969322Y-71544327D01*
X218970819Y-71545625D01*
X218975537Y-71551374D01*
X219004108Y-71579946D01*
X219009862Y-71584669D01*
X219011159Y-71586164D01*
X219013411Y-71587581D01*
X219015473Y-71589274D01*
X219017305Y-71590032D01*
X219023601Y-71593996D01*
X219080745Y-71622567D01*
X219081812Y-71622975D01*
X219082249Y-71623299D01*
X219088409Y-71625500D01*
X219094477Y-71627822D01*
X219095015Y-71627860D01*
X219096095Y-71628246D01*
X219202396Y-71654822D01*
X219241285Y-71674266D01*
X219252645Y-71685626D01*
X219267856Y-71716047D01*
X219267856Y-71737780D01*
X219252645Y-71768201D01*
X219241285Y-71779561D01*
X219210867Y-71794771D01*
X219097885Y-71794771D01*
X219023716Y-71770049D01*
X219009379Y-71766789D01*
X218980189Y-71768864D01*
X218954015Y-71781951D01*
X218934842Y-71804058D01*
X218925588Y-71831820D01*
X218927663Y-71861010D01*
X218940750Y-71887184D01*
X218962857Y-71906357D01*
X218976282Y-71912351D01*
X219061997Y-71940922D01*
X219069250Y-71942571D01*
X219071082Y-71943330D01*
X219073736Y-71943591D01*
X219076334Y-71944182D01*
X219078308Y-71944041D01*
X219085714Y-71944771D01*
X219228571Y-71944771D01*
X219243203Y-71943330D01*
X219245692Y-71942298D01*
X219248380Y-71942108D01*
X219262112Y-71936853D01*
X219319255Y-71908282D01*
X219325552Y-71904318D01*
X219327383Y-71903560D01*
X219329442Y-71901869D01*
X219331698Y-71900450D01*
X219332996Y-71898952D01*
X219338748Y-71894232D01*
X219367319Y-71865660D01*
X219372039Y-71859907D01*
X219373535Y-71858611D01*
X219374954Y-71856356D01*
X219376646Y-71854295D01*
X219377404Y-71852464D01*
X219381367Y-71846169D01*
X219409938Y-71789025D01*
X219415193Y-71775293D01*
X219415383Y-71772606D01*
X219416415Y-71770117D01*
X219417856Y-71755485D01*
X219417856Y-71698342D01*
X219416415Y-71683710D01*
X219415383Y-71681220D01*
X219415193Y-71678533D01*
X219409938Y-71664801D01*
X219381367Y-71607659D01*
X219377403Y-71601362D01*
X219376646Y-71599533D01*
X219374956Y-71597474D01*
X219373535Y-71595216D01*
X219372036Y-71593916D01*
X219367319Y-71588168D01*
X219338748Y-71559596D01*
X219332996Y-71554875D01*
X219331698Y-71553378D01*
X219329442Y-71551958D01*
X219327383Y-71550268D01*
X219325552Y-71549509D01*
X219319255Y-71545546D01*
X219262112Y-71516975D01*
X219261042Y-71516565D01*
X219260607Y-71516243D01*
X219254461Y-71514047D01*
X219248380Y-71511720D01*
X219247840Y-71511681D01*
X219246761Y-71511296D01*
X219140460Y-71484720D01*
X219101569Y-71465275D01*
X219090210Y-71453916D01*
X219074999Y-71423493D01*
X219074999Y-71401762D01*
X219090210Y-71371339D01*
X219101569Y-71359980D01*
X219131990Y-71344771D01*
X219244972Y-71344771D01*
X219319139Y-71369493D01*
X219333476Y-71372753D01*
X219362666Y-71370678D01*
X219388839Y-71357591D01*
X219408013Y-71335484D01*
X219417267Y-71307722D01*
X219415192Y-71278532D01*
X219410811Y-71269771D01*
X219525000Y-71269771D01*
X219525000Y-71869771D01*
X219526441Y-71884403D01*
X219537640Y-71911439D01*
X219558332Y-71932131D01*
X219585368Y-71943330D01*
X219600000Y-71944771D01*
X219885714Y-71944771D01*
X219900346Y-71943330D01*
X219927382Y-71932131D01*
X219948074Y-71911439D01*
X219959273Y-71884403D01*
X219959273Y-71855139D01*
X219948074Y-71828103D01*
X219927382Y-71807411D01*
X219900346Y-71796212D01*
X219885714Y-71794771D01*
X219675000Y-71794771D01*
X219675000Y-71630485D01*
X219800000Y-71630485D01*
X219814632Y-71629044D01*
X219841668Y-71617845D01*
X219862360Y-71597153D01*
X219873559Y-71570117D01*
X219873559Y-71540853D01*
X219862360Y-71513817D01*
X219841668Y-71493125D01*
X219814632Y-71481926D01*
X219800000Y-71480485D01*
X219675000Y-71480485D01*
X219675000Y-71344771D01*
X219885714Y-71344771D01*
X219900346Y-71343330D01*
X219927382Y-71332131D01*
X219948074Y-71311439D01*
X219959273Y-71284403D01*
X219959273Y-71255139D01*
X219983583Y-71255139D01*
X219983583Y-71284403D01*
X219994782Y-71311439D01*
X220015474Y-71332131D01*
X220042510Y-71343330D01*
X220057142Y-71344771D01*
X220153571Y-71344771D01*
X220153571Y-71869771D01*
X220155012Y-71884403D01*
X220166211Y-71911439D01*
X220186903Y-71932131D01*
X220213939Y-71943330D01*
X220243203Y-71943330D01*
X220270239Y-71932131D01*
X220290931Y-71911439D01*
X220302130Y-71884403D01*
X220303571Y-71869771D01*
X220303571Y-71344771D01*
X220400000Y-71344771D01*
X220414632Y-71343330D01*
X220441668Y-71332131D01*
X220462360Y-71311439D01*
X220473559Y-71284403D01*
X220473559Y-71255139D01*
X220462360Y-71228103D01*
X220441668Y-71207411D01*
X220414632Y-71196212D01*
X220400000Y-71194771D01*
X220057142Y-71194771D01*
X220042510Y-71196212D01*
X220015474Y-71207411D01*
X219994782Y-71228103D01*
X219983583Y-71255139D01*
X219959273Y-71255139D01*
X219948074Y-71228103D01*
X219927382Y-71207411D01*
X219900346Y-71196212D01*
X219885714Y-71194771D01*
X219600000Y-71194771D01*
X219585368Y-71196212D01*
X219558332Y-71207411D01*
X219537640Y-71228103D01*
X219526441Y-71255139D01*
X219525000Y-71269771D01*
X219410811Y-71269771D01*
X219402105Y-71252358D01*
X219379998Y-71233185D01*
X219366572Y-71227191D01*
X219280859Y-71198620D01*
X219273605Y-71196970D01*
X219271774Y-71196212D01*
X219269119Y-71195950D01*
X219266522Y-71195360D01*
X219264547Y-71195500D01*
X219257142Y-71194771D01*
X219114285Y-71194771D01*
X219099653Y-71196212D01*
X219097163Y-71197243D01*
X219094477Y-71197434D01*
X219080745Y-71202689D01*
X219023601Y-71231260D01*
X219017305Y-71235223D01*
X219015473Y-71235982D01*
X219013411Y-71237674D01*
X219011159Y-71239092D01*
X219009862Y-71240586D01*
X219004108Y-71245310D01*
X218975537Y-71273882D01*
X218970816Y-71279633D01*
X218969322Y-71280930D01*
X218967903Y-71283183D01*
X218966210Y-71285247D01*
X218965451Y-71287078D01*
X218961489Y-71293373D01*
X218932917Y-71350516D01*
X218927662Y-71364247D01*
X218927470Y-71366936D01*
X218926440Y-71369425D01*
X218924999Y-71384057D01*
X218560714Y-71384057D01*
X218560714Y-71344771D01*
X218771428Y-71344771D01*
X218786060Y-71343330D01*
X218813096Y-71332131D01*
X218833788Y-71311439D01*
X218844987Y-71284403D01*
X218844987Y-71255139D01*
X218833788Y-71228103D01*
X218813096Y-71207411D01*
X218786060Y-71196212D01*
X218771428Y-71194771D01*
X218485714Y-71194771D01*
X218471082Y-71196212D01*
X218444046Y-71207411D01*
X218423354Y-71228103D01*
X218412155Y-71255139D01*
X218410714Y-71269771D01*
X218248922Y-71269771D01*
X218224462Y-71245310D01*
X218218710Y-71240589D01*
X218217412Y-71239092D01*
X218215156Y-71237672D01*
X218213097Y-71235982D01*
X218211266Y-71235223D01*
X218204969Y-71231260D01*
X218147826Y-71202689D01*
X218134094Y-71197434D01*
X218131406Y-71197243D01*
X218128917Y-71196212D01*
X218114285Y-71194771D01*
X217885714Y-71194771D01*
X217871082Y-71196212D01*
X217844046Y-71207411D01*
X217823354Y-71228103D01*
X217812155Y-71255139D01*
X217810714Y-71269771D01*
X217735714Y-71269771D01*
X217735714Y-71119771D01*
X220548559Y-71119771D01*
X220548559Y-72019771D01*
G37*
X207790476Y-83500390D02*
X207714286Y-83462295D01*
X207714286Y-83462295D02*
X207600000Y-83462295D01*
X207600000Y-83462295D02*
X207485714Y-83500390D01*
X207485714Y-83500390D02*
X207409524Y-83576580D01*
X207409524Y-83576580D02*
X207371429Y-83652771D01*
X207371429Y-83652771D02*
X207333333Y-83805152D01*
X207333333Y-83805152D02*
X207333333Y-83919438D01*
X207333333Y-83919438D02*
X207371429Y-84071819D01*
X207371429Y-84071819D02*
X207409524Y-84148009D01*
X207409524Y-84148009D02*
X207485714Y-84224200D01*
X207485714Y-84224200D02*
X207600000Y-84262295D01*
X207600000Y-84262295D02*
X207676191Y-84262295D01*
X207676191Y-84262295D02*
X207790476Y-84224200D01*
X207790476Y-84224200D02*
X207828572Y-84186104D01*
X207828572Y-84186104D02*
X207828572Y-83919438D01*
X207828572Y-83919438D02*
X207676191Y-83919438D01*
X208171429Y-84262295D02*
X208171429Y-83462295D01*
X208171429Y-83462295D02*
X208628572Y-84262295D01*
X208628572Y-84262295D02*
X208628572Y-83462295D01*
X209009524Y-84262295D02*
X209009524Y-83462295D01*
X209009524Y-83462295D02*
X209200000Y-83462295D01*
X209200000Y-83462295D02*
X209314286Y-83500390D01*
X209314286Y-83500390D02*
X209390476Y-83576580D01*
X209390476Y-83576580D02*
X209428571Y-83652771D01*
X209428571Y-83652771D02*
X209466667Y-83805152D01*
X209466667Y-83805152D02*
X209466667Y-83919438D01*
X209466667Y-83919438D02*
X209428571Y-84071819D01*
X209428571Y-84071819D02*
X209390476Y-84148009D01*
X209390476Y-84148009D02*
X209314286Y-84224200D01*
X209314286Y-84224200D02*
X209200000Y-84262295D01*
X209200000Y-84262295D02*
X209009524Y-84262295D01*
X207297261Y-110610747D02*
X207411547Y-110648842D01*
X207411547Y-110648842D02*
X207449642Y-110686938D01*
X207449642Y-110686938D02*
X207487738Y-110763128D01*
X207487738Y-110763128D02*
X207487738Y-110877414D01*
X207487738Y-110877414D02*
X207449642Y-110953604D01*
X207449642Y-110953604D02*
X207411547Y-110991700D01*
X207411547Y-110991700D02*
X207335357Y-111029795D01*
X207335357Y-111029795D02*
X207030595Y-111029795D01*
X207030595Y-111029795D02*
X207030595Y-110229795D01*
X207030595Y-110229795D02*
X207297261Y-110229795D01*
X207297261Y-110229795D02*
X207373452Y-110267890D01*
X207373452Y-110267890D02*
X207411547Y-110305985D01*
X207411547Y-110305985D02*
X207449642Y-110382176D01*
X207449642Y-110382176D02*
X207449642Y-110458366D01*
X207449642Y-110458366D02*
X207411547Y-110534557D01*
X207411547Y-110534557D02*
X207373452Y-110572652D01*
X207373452Y-110572652D02*
X207297261Y-110610747D01*
X207297261Y-110610747D02*
X207030595Y-110610747D01*
X207792499Y-110801223D02*
X208173452Y-110801223D01*
X207716309Y-111029795D02*
X207982976Y-110229795D01*
X207982976Y-110229795D02*
X208249642Y-111029795D01*
X208402023Y-110229795D02*
X208859166Y-110229795D01*
X208630594Y-111029795D02*
X208630594Y-110229795D01*
X209011547Y-110229795D02*
X209468690Y-110229795D01*
X209240118Y-111029795D02*
X209240118Y-110229795D01*
X208040476Y-85362295D02*
X208040476Y-86009914D01*
X208040476Y-86009914D02*
X208078571Y-86086104D01*
X208078571Y-86086104D02*
X208116666Y-86124200D01*
X208116666Y-86124200D02*
X208192857Y-86162295D01*
X208192857Y-86162295D02*
X208345238Y-86162295D01*
X208345238Y-86162295D02*
X208421428Y-86124200D01*
X208421428Y-86124200D02*
X208459523Y-86086104D01*
X208459523Y-86086104D02*
X208497619Y-86009914D01*
X208497619Y-86009914D02*
X208497619Y-85362295D01*
X208802380Y-85362295D02*
X209297618Y-85362295D01*
X209297618Y-85362295D02*
X209030952Y-85667057D01*
X209030952Y-85667057D02*
X209145237Y-85667057D01*
X209145237Y-85667057D02*
X209221428Y-85705152D01*
X209221428Y-85705152D02*
X209259523Y-85743247D01*
X209259523Y-85743247D02*
X209297618Y-85819438D01*
X209297618Y-85819438D02*
X209297618Y-86009914D01*
X209297618Y-86009914D02*
X209259523Y-86086104D01*
X209259523Y-86086104D02*
X209221428Y-86124200D01*
X209221428Y-86124200D02*
X209145237Y-86162295D01*
X209145237Y-86162295D02*
X208916666Y-86162295D01*
X208916666Y-86162295D02*
X208840475Y-86124200D01*
X208840475Y-86124200D02*
X208802380Y-86086104D01*
X232030476Y-105299795D02*
X232030476Y-105947414D01*
X232030476Y-105947414D02*
X232068571Y-106023604D01*
X232068571Y-106023604D02*
X232106666Y-106061700D01*
X232106666Y-106061700D02*
X232182857Y-106099795D01*
X232182857Y-106099795D02*
X232335238Y-106099795D01*
X232335238Y-106099795D02*
X232411428Y-106061700D01*
X232411428Y-106061700D02*
X232449523Y-106023604D01*
X232449523Y-106023604D02*
X232487619Y-105947414D01*
X232487619Y-105947414D02*
X232487619Y-105299795D01*
X232830475Y-105375985D02*
X232868571Y-105337890D01*
X232868571Y-105337890D02*
X232944761Y-105299795D01*
X232944761Y-105299795D02*
X233135237Y-105299795D01*
X233135237Y-105299795D02*
X233211428Y-105337890D01*
X233211428Y-105337890D02*
X233249523Y-105375985D01*
X233249523Y-105375985D02*
X233287618Y-105452176D01*
X233287618Y-105452176D02*
X233287618Y-105528366D01*
X233287618Y-105528366D02*
X233249523Y-105642652D01*
X233249523Y-105642652D02*
X232792380Y-106099795D01*
X232792380Y-106099795D02*
X233287618Y-106099795D01*
X229686666Y-99079795D02*
X229305714Y-99079795D01*
X229305714Y-99079795D02*
X229305714Y-98279795D01*
X230372380Y-99079795D02*
X229915237Y-99079795D01*
X230143809Y-99079795D02*
X230143809Y-98279795D01*
X230143809Y-98279795D02*
X230067618Y-98394080D01*
X230067618Y-98394080D02*
X229991428Y-98470271D01*
X229991428Y-98470271D02*
X229915237Y-98508366D01*
D15*
%TO.C,J1*%
X202112500Y-108797500D02*
X202112500Y-109777500D01*
X202112500Y-108797500D02*
X202992500Y-108797500D01*
X204992500Y-111697500D02*
X203232500Y-111697500D01*
X205232500Y-108797500D02*
X206112500Y-108797500D01*
X206112500Y-108797500D02*
X206112500Y-109777500D01*
D16*
X204712500Y-106997500D02*
G75*
G02*
X204512500Y-106997500I-100000J0D01*
G01*
X204512500Y-106997500D02*
G75*
G02*
X204712500Y-106997500I100000J0D01*
G01*
D13*
%TO.C,R1*%
X228460300Y-109880276D02*
X228460300Y-110389724D01*
X229505300Y-109880276D02*
X229505300Y-110389724D01*
%TO.C,R17*%
X211142224Y-94647500D02*
X210632776Y-94647500D01*
X211142224Y-95692500D02*
X210632776Y-95692500D01*
%TO.C,R12*%
X221837500Y-104884724D02*
X221837500Y-104375276D01*
X222882500Y-104884724D02*
X222882500Y-104375276D01*
%TO.C,C16*%
X223186248Y-94085000D02*
X223708752Y-94085000D01*
X223186248Y-95555000D02*
X223708752Y-95555000D01*
%TO.C,C19*%
X223611250Y-91291233D02*
X223611250Y-91583767D01*
X224631250Y-91291233D02*
X224631250Y-91583767D01*
%TO.C,R18*%
X220072224Y-94037500D02*
X219562776Y-94037500D01*
X220072224Y-95082500D02*
X219562776Y-95082500D01*
%TO.C,FB1*%
X226061250Y-80046267D02*
X226061250Y-79703733D01*
X227081250Y-80046267D02*
X227081250Y-79703733D01*
%TO.C,J3*%
X235999752Y-90106195D02*
X235999752Y-87406195D01*
X238719752Y-87356195D02*
X238719752Y-87996195D01*
X238719752Y-89516195D02*
X239349752Y-89516195D01*
X238719752Y-90156195D02*
X238719752Y-89516195D01*
D15*
%TO.C,J5*%
X229280000Y-66330000D02*
X229280000Y-65350000D01*
X230160000Y-66330000D02*
X229280000Y-66330000D01*
X230400000Y-63430000D02*
X235160000Y-63430000D01*
X236280000Y-66330000D02*
X235400000Y-66330000D01*
X236280000Y-66330000D02*
X236280000Y-65350000D01*
D13*
%TO.C,D6*%
X206252500Y-78965000D02*
X206252500Y-80435000D01*
X206252500Y-80435000D02*
X208712500Y-80435000D01*
X208712500Y-78965000D02*
X206252500Y-78965000D01*
%TO.C,C13*%
X234781248Y-100142500D02*
X235303752Y-100142500D01*
X234781248Y-101612500D02*
X235303752Y-101612500D01*
%TO.C,D3*%
X239290000Y-103422500D02*
X241750000Y-103422500D01*
X241750000Y-101952500D02*
X239290000Y-101952500D01*
X241750000Y-103422500D02*
X241750000Y-101952500D01*
%TO.C,C15*%
X230055000Y-70311252D02*
X230055000Y-69788748D01*
X231525000Y-70311252D02*
X231525000Y-69788748D01*
%TO.C,J4*%
X194290000Y-97685000D02*
X194290000Y-98835000D01*
X194290000Y-98835000D02*
X195340000Y-98835000D01*
X195340000Y-98835000D02*
X195340000Y-99825000D01*
X195460000Y-95715000D02*
X201340000Y-95715000D01*
X202510000Y-97685000D02*
X202510000Y-98835000D01*
X202510000Y-98835000D02*
X201460000Y-98835000D01*
%TO.C,C17*%
X231990000Y-70423767D02*
X231990000Y-70131233D01*
X233010000Y-70423767D02*
X233010000Y-70131233D01*
%TO.C,C11*%
X216305000Y-105088752D02*
X216305000Y-104566248D01*
X217775000Y-105088752D02*
X217775000Y-104566248D01*
%TO.C,R7*%
X209662776Y-104105000D02*
X210172224Y-104105000D01*
X209662776Y-105150000D02*
X210172224Y-105150000D01*
%TO.C,TP7*%
D17*
X210060000Y-98560000D02*
X211760000Y-98560000D01*
X211760000Y-100260000D01*
X210060000Y-100260000D01*
X210060000Y-98560000D01*
D13*
%TO.C,Q2*%
X218290000Y-101277500D02*
X218340000Y-101277500D01*
X218290000Y-102797500D02*
X218290000Y-101277500D01*
X219290000Y-102797500D02*
X218290000Y-102797500D01*
X219460000Y-101277500D02*
X220240000Y-101277500D01*
X221360000Y-101277500D02*
X221410000Y-101277500D01*
X221410000Y-101277500D02*
X221410000Y-102797500D01*
X221410000Y-102797500D02*
X220410000Y-102797500D01*
X220230000Y-100737500D02*
X219900000Y-100977500D01*
X219900000Y-100497500D01*
X220230000Y-100737500D01*
G36*
X220230000Y-100737500D02*
G01*
X219900000Y-100977500D01*
X219900000Y-100497500D01*
X220230000Y-100737500D01*
G37*
%TO.C,C21*%
X214146267Y-80740000D02*
X213853733Y-80740000D01*
X214146267Y-81760000D02*
X213853733Y-81760000D01*
%TO.C,R10*%
X230058900Y-109880276D02*
X230058900Y-110389724D01*
X231103900Y-109880276D02*
X231103900Y-110389724D01*
%TO.C,C12*%
X234766248Y-102565700D02*
X235288752Y-102565700D01*
X234766248Y-104035700D02*
X235288752Y-104035700D01*
%TO.C,R11*%
X221197500Y-109342224D02*
X221197500Y-108832776D01*
X222242500Y-109342224D02*
X222242500Y-108832776D01*
%TO.C,R24*%
X208167224Y-77687500D02*
X207657776Y-77687500D01*
X208167224Y-78732500D02*
X207657776Y-78732500D01*
%TO.C,CY2*%
X229211250Y-86183767D02*
X229211250Y-85891233D01*
X230231250Y-86183767D02*
X230231250Y-85891233D01*
%TO.C,R22*%
X227613474Y-91267500D02*
X227104026Y-91267500D01*
X227613474Y-92312500D02*
X227104026Y-92312500D01*
%TO.C,DWM1*%
X198750000Y-52650000D02*
X198750000Y-62400000D01*
X198750000Y-52650000D02*
X212250000Y-52650000D01*
X198750000Y-76150000D02*
X198750000Y-74400000D01*
X199500000Y-76150000D02*
X198750000Y-76150000D01*
X211500000Y-76150000D02*
X212250000Y-76150000D01*
X212250000Y-52650000D02*
X212250000Y-62400000D01*
X212250000Y-76150000D02*
X212250000Y-74400000D01*
X198400000Y-62400000D02*
X197900000Y-62400000D01*
X198400000Y-61900000D01*
X198400000Y-62400000D01*
G36*
X198400000Y-62400000D02*
G01*
X197900000Y-62400000D01*
X198400000Y-61900000D01*
X198400000Y-62400000D01*
G37*
%TO.C,C7*%
X215871252Y-100592500D02*
X215348748Y-100592500D01*
X215871252Y-102062500D02*
X215348748Y-102062500D01*
%TO.C,CY1*%
X229211250Y-89508767D02*
X229211250Y-89216233D01*
X230231250Y-89508767D02*
X230231250Y-89216233D01*
%TO.C,U1*%
X205470229Y-105373068D02*
X205470229Y-102577500D01*
X207840229Y-102577500D02*
X207840229Y-105797500D01*
X205465229Y-105667500D02*
X205275229Y-105807500D01*
X205275229Y-105527500D01*
X205465229Y-105667500D01*
G36*
X205465229Y-105667500D02*
G01*
X205275229Y-105807500D01*
X205275229Y-105527500D01*
X205465229Y-105667500D01*
G37*
%TO.C,TP6*%
X199570000Y-81110000D02*
G75*
G02*
X197670000Y-81110000I-950000J0D01*
G01*
X197670000Y-81110000D02*
G75*
G02*
X199570000Y-81110000I950000J0D01*
G01*
%TO.C,Y1*%
X225511250Y-89810000D02*
X228931250Y-89810000D01*
X228931250Y-89810000D02*
X228931250Y-85690000D01*
%TO.C,C2*%
X224795000Y-108356248D02*
X224795000Y-108878752D01*
X226265000Y-108356248D02*
X226265000Y-108878752D01*
%TO.C,R4*%
X223062776Y-99890000D02*
X223572224Y-99890000D01*
X223062776Y-100935000D02*
X223572224Y-100935000D01*
%TO.C,SW4*%
X225700000Y-65000000D02*
X222500000Y-65000000D01*
X225700000Y-69000000D02*
X222500000Y-69000000D01*
%TO.C,R21*%
X225167500Y-101082776D02*
X225167500Y-101592224D01*
X226212500Y-101082776D02*
X226212500Y-101592224D01*
%TO.C,R16*%
X211142224Y-93187500D02*
X210632776Y-93187500D01*
X211142224Y-94232500D02*
X210632776Y-94232500D01*
%TO.C,R19*%
X233727500Y-87354724D02*
X233727500Y-86845276D01*
X234772500Y-87354724D02*
X234772500Y-86845276D01*
%TO.C,C29*%
X195383767Y-68790000D02*
X195091233Y-68790000D01*
X195383767Y-69810000D02*
X195091233Y-69810000D01*
%TO.C,J2*%
X192800000Y-83190000D02*
X192000000Y-83190000D01*
X192800000Y-92590000D02*
X192000000Y-92590000D01*
X196700000Y-83190000D02*
X194700000Y-83190000D01*
X196700000Y-92590000D02*
X194700000Y-92590000D01*
%TO.C,R2*%
X226861700Y-109880276D02*
X226861700Y-110389724D01*
X227906700Y-109880276D02*
X227906700Y-110389724D01*
%TO.C,C24*%
X241122588Y-84866195D02*
X240906916Y-84866195D01*
X241122588Y-85586195D02*
X240906916Y-85586195D01*
%TO.C,SW2*%
X194450000Y-101650000D02*
X195640000Y-101650000D01*
X195640000Y-100735000D02*
X195640000Y-101650000D01*
X195640000Y-100735000D02*
X201160000Y-100735000D01*
X195640000Y-106465000D02*
X195640000Y-105490000D01*
X195640000Y-106465000D02*
X201160000Y-106465000D01*
X201160000Y-100735000D02*
X201160000Y-101710000D01*
X201160000Y-106465000D02*
X201160000Y-105490000D01*
%TO.C,C3*%
X223680000Y-104518733D02*
X223680000Y-104811267D01*
X224700000Y-104518733D02*
X224700000Y-104811267D01*
%TO.C,C10*%
X234766248Y-104972500D02*
X235288752Y-104972500D01*
X234766248Y-106442500D02*
X235288752Y-106442500D01*
%TO.C,D7*%
X202400000Y-80435000D02*
X204860000Y-80435000D01*
X204860000Y-78965000D02*
X202400000Y-78965000D01*
X204860000Y-80435000D02*
X204860000Y-78965000D01*
%TO.C,C23*%
X221746267Y-92590000D02*
X221453733Y-92590000D01*
X221746267Y-93610000D02*
X221453733Y-93610000D01*
%TO.C,U6*%
X215084000Y-83390000D02*
X215084000Y-83865000D01*
X215084000Y-90610000D02*
X215084000Y-90135000D01*
X215559000Y-83390000D02*
X215084000Y-83390000D01*
X215559000Y-90610000D02*
X215084000Y-90610000D01*
X221829000Y-83390000D02*
X222304000Y-83390000D01*
X221829000Y-90610000D02*
X222004000Y-90610000D01*
X222304000Y-83390000D02*
X222304000Y-83865000D01*
X222304000Y-90135000D02*
X222304000Y-90370000D01*
X222544000Y-90940000D02*
X222064000Y-90940000D01*
X222304000Y-90610000D01*
X222544000Y-90940000D01*
G36*
X222544000Y-90940000D02*
G01*
X222064000Y-90940000D01*
X222304000Y-90610000D01*
X222544000Y-90940000D01*
G37*
%TO.C,D4*%
X239290000Y-105122500D02*
X241750000Y-105122500D01*
X241750000Y-103652500D02*
X239290000Y-103652500D01*
X241750000Y-105122500D02*
X241750000Y-103652500D01*
%TO.C,R27*%
X227613474Y-92727500D02*
X227104026Y-92727500D01*
X227613474Y-93772500D02*
X227104026Y-93772500D01*
%TO.C,R20*%
X223154026Y-76027500D02*
X223663474Y-76027500D01*
X223154026Y-77072500D02*
X223663474Y-77072500D01*
%TO.C,U5*%
X239550000Y-74950000D02*
G75*
G02*
X238750000Y-74950000I-400000J0D01*
G01*
X238750000Y-74950000D02*
G75*
G02*
X239550000Y-74950000I400000J0D01*
G01*
D18*
G36*
X239149228Y-71964212D02*
G01*
X238749228Y-71364212D01*
X239549228Y-71364212D01*
X239149228Y-71964212D01*
G37*
D13*
%TO.C,R14*%
X223154026Y-74494505D02*
X223663474Y-74494505D01*
X223154026Y-75539505D02*
X223663474Y-75539505D01*
%TO.C,C18*%
X226074983Y-84090000D02*
X226367517Y-84090000D01*
X226074983Y-85110000D02*
X226367517Y-85110000D01*
%TO.C,R13*%
X223562224Y-101735000D02*
X223052776Y-101735000D01*
X223562224Y-102780000D02*
X223052776Y-102780000D01*
%TO.C,C26*%
X241122588Y-87666195D02*
X240906916Y-87666195D01*
X241122588Y-88386195D02*
X240906916Y-88386195D01*
%TO.C,C6*%
X231670000Y-109988733D02*
X231670000Y-110281267D01*
X232690000Y-109988733D02*
X232690000Y-110281267D01*
%TO.C,D2*%
X239290000Y-101722500D02*
X241750000Y-101722500D01*
X241750000Y-100252500D02*
X239290000Y-100252500D01*
X241750000Y-101722500D02*
X241750000Y-100252500D01*
%TO.C,D1*%
X208350000Y-90150000D02*
X205690000Y-90150000D01*
X208350000Y-91850000D02*
X205690000Y-91850000D01*
X208350000Y-91850000D02*
X208350000Y-90150000D01*
D15*
%TO.C,J6*%
X238550000Y-92300000D02*
X239530000Y-92300000D01*
X238550000Y-93180000D02*
X238550000Y-92300000D01*
X238550000Y-98300000D02*
X238550000Y-97420000D01*
X238550000Y-98300000D02*
X239530000Y-98300000D01*
X241450000Y-93420000D02*
X241450000Y-97180000D01*
D13*
%TO.C,C25*%
X226074983Y-82590000D02*
X226367517Y-82590000D01*
X226074983Y-83610000D02*
X226367517Y-83610000D01*
%TO.C,C9*%
X210007500Y-108916248D02*
X210007500Y-109438752D01*
X211477500Y-108916248D02*
X211477500Y-109438752D01*
%TO.C,R6*%
X210172224Y-102605000D02*
X209662776Y-102605000D01*
X210172224Y-103650000D02*
X209662776Y-103650000D01*
%TO.C,C27*%
X224086250Y-80136252D02*
X224086250Y-79613748D01*
X225556250Y-80136252D02*
X225556250Y-79613748D01*
%TO.C,TP5*%
X229210000Y-97190000D02*
G75*
G02*
X227310000Y-97190000I-950000J0D01*
G01*
X227310000Y-97190000D02*
G75*
G02*
X229210000Y-97190000I950000J0D01*
G01*
%TO.C,TP1*%
X206310000Y-97800000D02*
G75*
G02*
X204410000Y-97800000I-950000J0D01*
G01*
X204410000Y-97800000D02*
G75*
G02*
X206310000Y-97800000I950000J0D01*
G01*
%TO.C,U4*%
X212180000Y-104626628D02*
X212180000Y-104391628D01*
X212180000Y-107371628D02*
X212180000Y-106896628D01*
X212655000Y-104151628D02*
X212480000Y-104151628D01*
X212655000Y-107371628D02*
X212180000Y-107371628D01*
X214925000Y-104151628D02*
X215400000Y-104151628D01*
X214925000Y-107371628D02*
X215400000Y-107371628D01*
X215400000Y-104151628D02*
X215400000Y-104626628D01*
X215400000Y-107371628D02*
X215400000Y-106896628D01*
X212180000Y-104151628D02*
X211940000Y-103821628D01*
X212420000Y-103821628D01*
X212180000Y-104151628D01*
G36*
X212180000Y-104151628D02*
G01*
X211940000Y-103821628D01*
X212420000Y-103821628D01*
X212180000Y-104151628D01*
G37*
%TO.C,C22*%
X216054000Y-80373752D02*
X216054000Y-79851248D01*
X217524000Y-80373752D02*
X217524000Y-79851248D01*
%TO.C,Q3*%
X218290000Y-105305000D02*
X218340000Y-105305000D01*
X218290000Y-106825000D02*
X218290000Y-105305000D01*
X219290000Y-106825000D02*
X218290000Y-106825000D01*
X219460000Y-105305000D02*
X220240000Y-105305000D01*
X221360000Y-105305000D02*
X221410000Y-105305000D01*
X221410000Y-105305000D02*
X221410000Y-106825000D01*
X221410000Y-106825000D02*
X220410000Y-106825000D01*
X220230000Y-104765000D02*
X219900000Y-105005000D01*
X219900000Y-104525000D01*
X220230000Y-104765000D01*
G36*
X220230000Y-104765000D02*
G01*
X219900000Y-105005000D01*
X219900000Y-104525000D01*
X220230000Y-104765000D01*
G37*
%TO.C,SW1*%
X214890000Y-109237500D02*
X214890000Y-110237500D01*
X215490000Y-109237500D02*
X214890000Y-109237500D01*
X216290000Y-112037500D02*
X218290000Y-112037500D01*
X219090000Y-109237500D02*
X219690000Y-109237500D01*
X219690000Y-109237500D02*
X219690000Y-110237500D01*
%TO.C,R15*%
X211142224Y-91727500D02*
X210632776Y-91727500D01*
X211142224Y-92772500D02*
X210632776Y-92772500D01*
%TO.C,R23*%
X220074724Y-95497500D02*
X219565276Y-95497500D01*
X220074724Y-96542500D02*
X219565276Y-96542500D01*
%TO.C,TP16*%
X2225000Y-1275000D02*
G75*
G02*
X325000Y-1275000I-950000J0D01*
G01*
X325000Y-1275000D02*
G75*
G02*
X2225000Y-1275000I950000J0D01*
G01*
%TO.C,C30*%
X195561252Y-73265000D02*
X195038748Y-73265000D01*
X195561252Y-74735000D02*
X195038748Y-74735000D01*
%TO.C,R5*%
X201307500Y-83777224D02*
X201307500Y-83267776D01*
X202352500Y-83777224D02*
X202352500Y-83267776D01*
%TO.C,R25*%
X202945276Y-77687500D02*
X203454724Y-77687500D01*
X202945276Y-78732500D02*
X203454724Y-78732500D01*
%TO.C,R9*%
X234800436Y-109696100D02*
X235254564Y-109696100D01*
X234800436Y-111166100D02*
X235254564Y-111166100D01*
%TO.C,D5*%
X239290000Y-106822500D02*
X241750000Y-106822500D01*
X241750000Y-105352500D02*
X239290000Y-105352500D01*
X241750000Y-106822500D02*
X241750000Y-105352500D01*
%TO.C,J10*%
D17*
X197600000Y-112250000D02*
X199600000Y-112250000D01*
X199600000Y-110250000D01*
X197600000Y-110250000D01*
X197600000Y-112250000D01*
X199619804Y-108250000D02*
G75*
G02*
X197580196Y-108250000I-1019804J0D01*
G01*
X197580196Y-108250000D02*
G75*
G02*
X199619804Y-108250000I1019804J0D01*
G01*
D13*
%TO.C,SW3*%
X222500000Y-69600000D02*
X225700000Y-69600000D01*
X222500000Y-73600000D02*
X225700000Y-73600000D01*
%TO.C,C20*%
X212850000Y-90628767D02*
X212850000Y-90336233D01*
X213870000Y-90628767D02*
X213870000Y-90336233D01*
%TO.C,C5*%
X207581233Y-106207500D02*
X207873767Y-106207500D01*
X207581233Y-107227500D02*
X207873767Y-107227500D01*
%TO.C,R26*%
X211145276Y-83177500D02*
X211654724Y-83177500D01*
X211145276Y-84222500D02*
X211654724Y-84222500D01*
%TO.C,TP3*%
D17*
X207500000Y-81300000D02*
X209300000Y-81300000D01*
X209300000Y-83100000D01*
X207500000Y-83100000D01*
X207500000Y-81300000D01*
D13*
%TO.C,R8*%
X235254564Y-107349300D02*
X234800436Y-107349300D01*
X235254564Y-108819300D02*
X234800436Y-108819300D01*
%TO.C,C28*%
X195383767Y-70790000D02*
X195091233Y-70790000D01*
X195383767Y-71810000D02*
X195091233Y-71810000D01*
%TO.C,TP11*%
X209142500Y-108917500D02*
G75*
G02*
X207242500Y-108917500I-950000J0D01*
G01*
X207242500Y-108917500D02*
G75*
G02*
X209142500Y-108917500I950000J0D01*
G01*
%TO.C,F1*%
X195390000Y-79002064D02*
X195390000Y-77797936D01*
X197210000Y-79002064D02*
X197210000Y-77797936D01*
%TO.C,U3*%
X206762500Y-86290000D02*
X205962500Y-86290000D01*
X206762500Y-86290000D02*
X207562500Y-86290000D01*
X206762500Y-89410000D02*
X205962500Y-89410000D01*
X206762500Y-89410000D02*
X207562500Y-89410000D01*
X205462500Y-86340000D02*
X205222500Y-86010000D01*
X205702500Y-86010000D01*
X205462500Y-86340000D01*
G36*
X205462500Y-86340000D02*
G01*
X205222500Y-86010000D01*
X205702500Y-86010000D01*
X205462500Y-86340000D01*
G37*
%TO.C,R3*%
X201297500Y-92117776D02*
X201297500Y-92627224D01*
X202342500Y-92117776D02*
X202342500Y-92627224D01*
%TO.C,R28*%
X227613474Y-94187500D02*
X227104026Y-94187500D01*
X227613474Y-95232500D02*
X227104026Y-95232500D01*
%TO.C,C1*%
X222835000Y-108356248D02*
X222835000Y-108878752D01*
X224305000Y-108356248D02*
X224305000Y-108878752D01*
%TO.C,C4*%
X225180000Y-104811267D02*
X225180000Y-104518733D01*
X226200000Y-104811267D02*
X226200000Y-104518733D01*
D15*
%TO.C,U2*%
X228280800Y-104997500D02*
X228785800Y-104997500D01*
X228280800Y-105077500D02*
X228280800Y-104997500D01*
X228280800Y-107417500D02*
X228280800Y-107497500D01*
X228280800Y-107497500D02*
X228585800Y-107497500D01*
X230775800Y-104997500D02*
X231280800Y-104997500D01*
X231280800Y-104997500D02*
X231280800Y-105077500D01*
X231280800Y-107417500D02*
X231280800Y-107497500D01*
X231280800Y-107497500D02*
X230975800Y-107497500D01*
D16*
X228730800Y-108247500D02*
G75*
G02*
X228530800Y-108247500I-100000J0D01*
G01*
X228530800Y-108247500D02*
G75*
G02*
X228730800Y-108247500I100000J0D01*
G01*
D13*
%TO.C,L1*%
X227680000Y-99827500D02*
X231900000Y-99827500D01*
X231900000Y-104047500D02*
X227680000Y-104047500D01*
%TD*%
%LPC*%
%TO.C,J3*%
G36*
X238349752Y-89696195D02*
G01*
X236259752Y-89696195D01*
X236259752Y-87816195D01*
X238349752Y-87816195D01*
X238349752Y-89696195D01*
G37*
D19*
%TO.C,U2*%
X228730800Y-106647500D02*
X228030800Y-106647500D01*
X228030800Y-106297500D01*
X228730800Y-106297500D01*
X228730800Y-106647500D01*
G36*
X228730800Y-106647500D02*
G01*
X228030800Y-106647500D01*
X228030800Y-106297500D01*
X228730800Y-106297500D01*
X228730800Y-106647500D01*
G37*
X228730800Y-107147500D02*
X228030800Y-107147500D01*
X228030800Y-106797500D01*
X228730800Y-106797500D01*
X228730800Y-107147500D01*
G36*
X228730800Y-107147500D02*
G01*
X228030800Y-107147500D01*
X228030800Y-106797500D01*
X228730800Y-106797500D01*
X228730800Y-107147500D01*
G37*
X229205800Y-107747500D02*
X228855800Y-107747500D01*
X228855800Y-107047500D01*
X229205800Y-107047500D01*
X229205800Y-107747500D01*
G36*
X229205800Y-107747500D02*
G01*
X228855800Y-107747500D01*
X228855800Y-107047500D01*
X229205800Y-107047500D01*
X229205800Y-107747500D01*
G37*
X229405800Y-106147500D02*
X229155800Y-106147500D01*
X229155800Y-104797500D01*
X229405800Y-104797500D01*
X229405800Y-106147500D01*
G36*
X229405800Y-106147500D02*
G01*
X229155800Y-106147500D01*
X229155800Y-104797500D01*
X229405800Y-104797500D01*
X229405800Y-106147500D01*
G37*
X229705800Y-107747500D02*
X229355800Y-107747500D01*
X229355800Y-107047500D01*
X229705800Y-107047500D01*
X229705800Y-107747500D01*
G36*
X229705800Y-107747500D02*
G01*
X229355800Y-107747500D01*
X229355800Y-107047500D01*
X229705800Y-107047500D01*
X229705800Y-107747500D01*
G37*
X229905800Y-106497500D02*
X229655800Y-106497500D01*
X229655800Y-104797500D01*
X229905800Y-104797500D01*
X229905800Y-106497500D01*
G36*
X229905800Y-106497500D02*
G01*
X229655800Y-106497500D01*
X229655800Y-104797500D01*
X229905800Y-104797500D01*
X229905800Y-106497500D01*
G37*
X230205800Y-107747500D02*
X229855800Y-107747500D01*
X229855800Y-107047500D01*
X230205800Y-107047500D01*
X230205800Y-107747500D01*
G36*
X230205800Y-107747500D02*
G01*
X229855800Y-107747500D01*
X229855800Y-107047500D01*
X230205800Y-107047500D01*
X230205800Y-107747500D01*
G37*
X230405800Y-106147500D02*
X230155800Y-106147500D01*
X230155800Y-104797500D01*
X230405800Y-104797500D01*
X230405800Y-106147500D01*
G36*
X230405800Y-106147500D02*
G01*
X230155800Y-106147500D01*
X230155800Y-104797500D01*
X230405800Y-104797500D01*
X230405800Y-106147500D01*
G37*
X230705800Y-107747500D02*
X230355800Y-107747500D01*
X230355800Y-107047500D01*
X230705800Y-107047500D01*
X230705800Y-107747500D01*
G36*
X230705800Y-107747500D02*
G01*
X230355800Y-107747500D01*
X230355800Y-107047500D01*
X230705800Y-107047500D01*
X230705800Y-107747500D01*
G37*
X231530800Y-106647500D02*
X230830800Y-106647500D01*
X230830800Y-106297500D01*
X231530800Y-106297500D01*
X231530800Y-106647500D01*
G36*
X231530800Y-106647500D02*
G01*
X230830800Y-106647500D01*
X230830800Y-106297500D01*
X231530800Y-106297500D01*
X231530800Y-106647500D01*
G37*
X231530800Y-107147500D02*
X230830800Y-107147500D01*
X230830800Y-106797500D01*
X231530800Y-106797500D01*
X231530800Y-107147500D01*
G36*
X231530800Y-107147500D02*
G01*
X230830800Y-107147500D01*
X230830800Y-106797500D01*
X231530800Y-106797500D01*
X231530800Y-107147500D01*
G37*
X228680800Y-106097500D02*
X228080800Y-106097500D01*
X228080800Y-105847500D01*
X228430800Y-105847500D01*
X228430800Y-105597500D01*
X228080800Y-105597500D01*
X228080800Y-105347500D01*
X228680800Y-105347500D01*
X228680800Y-106097500D01*
G36*
X228680800Y-106097500D02*
G01*
X228080800Y-106097500D01*
X228080800Y-105847500D01*
X228430800Y-105847500D01*
X228430800Y-105597500D01*
X228080800Y-105597500D01*
X228080800Y-105347500D01*
X228680800Y-105347500D01*
X228680800Y-106097500D01*
G37*
X231480800Y-105597500D02*
X231130800Y-105597500D01*
X231130800Y-105847500D01*
X231480800Y-105847500D01*
X231480800Y-106097500D01*
X230880800Y-106097500D01*
X230880800Y-105347500D01*
X231480800Y-105347500D01*
X231480800Y-105597500D01*
G36*
X231480800Y-105597500D02*
G01*
X231130800Y-105597500D01*
X231130800Y-105847500D01*
X231480800Y-105847500D01*
X231480800Y-106097500D01*
X230880800Y-106097500D01*
X230880800Y-105347500D01*
X231480800Y-105347500D01*
X231480800Y-105597500D01*
G37*
%TD*%
D20*
%TO.C,J1*%
X204612500Y-108472500D03*
X203612500Y-108472500D03*
D21*
X205912500Y-110997500D03*
X202312500Y-110997500D03*
%TD*%
D22*
%TO.C,R1*%
X228982800Y-109222500D03*
X228982800Y-111047500D03*
%TD*%
D23*
%TO.C,R17*%
X211800000Y-95170000D03*
X209975000Y-95170000D03*
%TD*%
D24*
%TO.C,R12*%
X222360000Y-105542500D03*
X222360000Y-103717500D03*
%TD*%
D25*
%TO.C,C16*%
X222410000Y-94820000D03*
X224485000Y-94820000D03*
%TD*%
D26*
%TO.C,C19*%
X224121250Y-90575000D03*
X224121250Y-92300000D03*
%TD*%
D27*
%TO.C,H3*%
X194850000Y-110100000D03*
%TD*%
D23*
%TO.C,R18*%
X220730000Y-94560000D03*
X218905000Y-94560000D03*
%TD*%
D28*
%TO.C,FB1*%
X226571250Y-80750000D03*
X226571250Y-79000000D03*
%TD*%
D29*
%TO.C,J3*%
X238884752Y-88756195D03*
D30*
X237359752Y-90231195D03*
X237359752Y-87281195D03*
%TD*%
D31*
%TO.C,J5*%
X230780000Y-66655000D03*
X231780000Y-66655000D03*
X232780000Y-66655000D03*
X233780000Y-66655000D03*
X234780000Y-66655000D03*
D32*
X229480000Y-64130000D03*
X236080000Y-64130000D03*
%TD*%
D33*
%TO.C,D6*%
X207037500Y-79700000D03*
X208787500Y-79700000D03*
%TD*%
D25*
%TO.C,C13*%
X234005000Y-100877500D03*
X236080000Y-100877500D03*
%TD*%
D34*
%TO.C,D3*%
X240965000Y-102687500D03*
X239215000Y-102687500D03*
%TD*%
D35*
%TO.C,C15*%
X230790000Y-71087500D03*
X230790000Y-69012500D03*
%TD*%
D36*
%TO.C,J4*%
X195900000Y-99050000D03*
X196900000Y-99050000D03*
X197900000Y-99050000D03*
X198900000Y-99050000D03*
X199900000Y-99050000D03*
X200900000Y-99050000D03*
D37*
X194600000Y-96525000D03*
X202200000Y-96525000D03*
%TD*%
D38*
%TO.C,C17*%
X232500000Y-71140000D03*
X232500000Y-69415000D03*
%TD*%
D39*
%TO.C,C11*%
X217040000Y-105777500D03*
X217040000Y-103877500D03*
%TD*%
D40*
%TO.C,R7*%
X209005000Y-104627500D03*
X210830000Y-104627500D03*
%TD*%
D41*
%TO.C,TP7*%
X210910000Y-99410000D03*
%TD*%
D42*
%TO.C,Q2*%
X220800000Y-101100000D03*
X218900000Y-101100000D03*
X219850000Y-102975000D03*
%TD*%
D43*
%TO.C,C21*%
X214862500Y-81250000D03*
X213137500Y-81250000D03*
%TD*%
D22*
%TO.C,R10*%
X230581400Y-109222500D03*
X230581400Y-111047500D03*
%TD*%
D25*
%TO.C,C12*%
X233990000Y-103300700D03*
X236065000Y-103300700D03*
%TD*%
D24*
%TO.C,R11*%
X221720000Y-110000000D03*
X221720000Y-108175000D03*
%TD*%
D23*
%TO.C,R24*%
X208825000Y-78210000D03*
X207000000Y-78210000D03*
%TD*%
D38*
%TO.C,CY2*%
X229721250Y-86900000D03*
X229721250Y-85175000D03*
%TD*%
D23*
%TO.C,R22*%
X228271250Y-91790000D03*
X226446250Y-91790000D03*
%TD*%
D44*
%TO.C,DWM1*%
X199200000Y-63601200D03*
X199200000Y-65001200D03*
X199200000Y-66401200D03*
X199200000Y-67801200D03*
X199200000Y-69201200D03*
X199200000Y-70601200D03*
X199200000Y-72001200D03*
X199200000Y-73401200D03*
D45*
X200600000Y-75696200D03*
X202000000Y-75696200D03*
X203400000Y-75696200D03*
X204800000Y-75696200D03*
X206200000Y-75696200D03*
X207600000Y-75696200D03*
X209000000Y-75696200D03*
X210400000Y-75696200D03*
D44*
X211800000Y-73400000D03*
X211800000Y-72000000D03*
X211800000Y-70601200D03*
X211800000Y-69201200D03*
X211800000Y-67801200D03*
X211800000Y-66401200D03*
X211800000Y-65001200D03*
X211800000Y-63601200D03*
%TD*%
D46*
%TO.C,C7*%
X216647500Y-101327500D03*
X214572500Y-101327500D03*
%TD*%
D38*
%TO.C,CY1*%
X229721250Y-90225000D03*
X229721250Y-88500000D03*
%TD*%
D47*
%TO.C,U1*%
X205905229Y-105475000D03*
X206405229Y-105475000D03*
X206905229Y-105475000D03*
X207405229Y-105475000D03*
X207405229Y-102900000D03*
X206905229Y-102900000D03*
X206405229Y-102900000D03*
X205905229Y-102900000D03*
D48*
X206655229Y-104187500D03*
%TD*%
D49*
%TO.C,TP6*%
X198620000Y-81110000D03*
%TD*%
D50*
%TO.C,Y1*%
X228071250Y-88850000D03*
X228071250Y-86650000D03*
X226371250Y-86650000D03*
X226371250Y-88850000D03*
%TD*%
D51*
%TO.C,C2*%
X225530000Y-107580000D03*
X225530000Y-109655000D03*
%TD*%
D40*
%TO.C,R4*%
X222405000Y-100412500D03*
X224230000Y-100412500D03*
%TD*%
D52*
%TO.C,SW4*%
X226450000Y-67000000D03*
X221750000Y-67000000D03*
%TD*%
D22*
%TO.C,R21*%
X225690000Y-100425000D03*
X225690000Y-102250000D03*
%TD*%
D23*
%TO.C,R16*%
X211800000Y-93710000D03*
X209975000Y-93710000D03*
%TD*%
D27*
%TO.C,H1*%
X194900000Y-65200000D03*
%TD*%
D24*
%TO.C,R19*%
X234250000Y-88012500D03*
X234250000Y-86187500D03*
%TD*%
D43*
%TO.C,C29*%
X196100000Y-69300000D03*
X194375000Y-69300000D03*
%TD*%
D53*
%TO.C,J2*%
X197400000Y-85000000D03*
X197400000Y-90780000D03*
D54*
X198845000Y-84640000D03*
X198845000Y-85440000D03*
D55*
X198845000Y-86640000D03*
X198845000Y-87640000D03*
X198845000Y-88140000D03*
X198845000Y-89140000D03*
D54*
X198845000Y-90340000D03*
X198845000Y-91140000D03*
X198845000Y-91140000D03*
X198845000Y-90340000D03*
D55*
X198845000Y-89640000D03*
X198845000Y-88640000D03*
X198845000Y-87140000D03*
X198845000Y-86140000D03*
D54*
X198845000Y-85440000D03*
X198845000Y-84640000D03*
D56*
X197930000Y-83570000D03*
D57*
X193750000Y-83570000D03*
D56*
X197930000Y-92210000D03*
D57*
X193750000Y-92210000D03*
%TD*%
D22*
%TO.C,R2*%
X227384200Y-109222500D03*
X227384200Y-111047500D03*
%TD*%
D58*
%TO.C,C24*%
X241494752Y-85226195D03*
X240534752Y-85226195D03*
%TD*%
D59*
%TO.C,SW2*%
X195775000Y-102330000D03*
X195775000Y-103600000D03*
X195775000Y-104870000D03*
X201025000Y-104870000D03*
X201025000Y-103600000D03*
X201025000Y-102330000D03*
%TD*%
D26*
%TO.C,C3*%
X224190000Y-103802500D03*
X224190000Y-105527500D03*
%TD*%
D25*
%TO.C,C10*%
X233990000Y-105707500D03*
X236065000Y-105707500D03*
%TD*%
D34*
%TO.C,D7*%
X204075000Y-79700000D03*
X202325000Y-79700000D03*
%TD*%
D43*
%TO.C,C23*%
X222462500Y-93100000D03*
X220737500Y-93100000D03*
%TD*%
D60*
%TO.C,U6*%
X222131500Y-89750000D03*
X222131500Y-89250000D03*
X222131500Y-88750000D03*
X222131500Y-88250000D03*
X222131500Y-87750000D03*
X222131500Y-87250000D03*
X222131500Y-86750000D03*
X222131500Y-86250000D03*
X222131500Y-85750000D03*
X222131500Y-85250000D03*
X222131500Y-84750000D03*
X222131500Y-84250000D03*
D61*
X221444000Y-83562500D03*
X220944000Y-83562500D03*
X220444000Y-83562500D03*
X219944000Y-83562500D03*
X219444000Y-83562500D03*
X218944000Y-83562500D03*
X218444000Y-83562500D03*
X217944000Y-83562500D03*
X217444000Y-83562500D03*
X216944000Y-83562500D03*
X216444000Y-83562500D03*
X215944000Y-83562500D03*
D60*
X215256500Y-84250000D03*
X215256500Y-84750000D03*
X215256500Y-85250000D03*
X215256500Y-85750000D03*
X215256500Y-86250000D03*
X215256500Y-86750000D03*
X215256500Y-87250000D03*
X215256500Y-87750000D03*
X215256500Y-88250000D03*
X215256500Y-88750000D03*
X215256500Y-89250000D03*
X215256500Y-89750000D03*
D61*
X215944000Y-90437500D03*
X216444000Y-90437500D03*
X216944000Y-90437500D03*
X217444000Y-90437500D03*
X217944000Y-90437500D03*
X218444000Y-90437500D03*
X218944000Y-90437500D03*
X219444000Y-90437500D03*
X219944000Y-90437500D03*
X220444000Y-90437500D03*
X220944000Y-90437500D03*
X221444000Y-90437500D03*
D62*
X218694000Y-87000000D03*
%TD*%
D34*
%TO.C,D4*%
X240965000Y-104387500D03*
X239215000Y-104387500D03*
%TD*%
D23*
%TO.C,R27*%
X228271250Y-93250000D03*
X226446250Y-93250000D03*
%TD*%
D40*
%TO.C,R20*%
X222496250Y-76550000D03*
X224321250Y-76550000D03*
%TD*%
D63*
%TO.C,U5*%
X239150000Y-73200000D03*
X238050000Y-73200000D03*
X236950000Y-73200000D03*
X235850000Y-73200000D03*
X234750000Y-73200000D03*
X233650000Y-73200000D03*
X232550000Y-73200000D03*
X231450000Y-73200000D03*
D64*
X230600000Y-76100000D03*
X230600000Y-77200000D03*
D63*
X231450000Y-83200000D03*
X232550000Y-83200000D03*
X233650000Y-83200000D03*
X234750000Y-83200000D03*
X235850000Y-83200000D03*
X236950000Y-83200000D03*
X238050000Y-83200000D03*
X239150000Y-83200000D03*
X240250000Y-83200000D03*
X241350000Y-83200000D03*
%TD*%
D40*
%TO.C,R14*%
X222496250Y-75017005D03*
X224321250Y-75017005D03*
%TD*%
D65*
%TO.C,C18*%
X225358750Y-84600000D03*
X227083750Y-84600000D03*
%TD*%
D23*
%TO.C,R13*%
X224220000Y-102257500D03*
X222395000Y-102257500D03*
%TD*%
D58*
%TO.C,C26*%
X241494752Y-88026195D03*
X240534752Y-88026195D03*
%TD*%
D26*
%TO.C,C6*%
X232180000Y-109272500D03*
X232180000Y-110997500D03*
%TD*%
D34*
%TO.C,D2*%
X240965000Y-100987500D03*
X239215000Y-100987500D03*
%TD*%
D66*
%TO.C,D1*%
X207790000Y-91000000D03*
X205690000Y-91000000D03*
%TD*%
D67*
%TO.C,J6*%
X238225000Y-93800000D03*
X238225000Y-94800000D03*
X238225000Y-95800000D03*
X238225000Y-96800000D03*
D68*
X240750000Y-92500000D03*
X240750000Y-98100000D03*
%TD*%
D65*
%TO.C,C25*%
X225358750Y-83100000D03*
X227083750Y-83100000D03*
%TD*%
D51*
%TO.C,C9*%
X210742500Y-108140000D03*
X210742500Y-110215000D03*
%TD*%
D27*
%TO.C,H2*%
X239800000Y-65200000D03*
%TD*%
D23*
%TO.C,R6*%
X210830000Y-103127500D03*
X209005000Y-103127500D03*
%TD*%
D35*
%TO.C,C27*%
X224821250Y-80912500D03*
X224821250Y-78837500D03*
%TD*%
D49*
%TO.C,TP5*%
X228260000Y-97190000D03*
%TD*%
%TO.C,TP1*%
X205360000Y-97800000D03*
%TD*%
D69*
%TO.C,U4*%
X212352500Y-105011628D03*
X212352500Y-105511628D03*
X212352500Y-106011628D03*
X212352500Y-106511628D03*
D70*
X213040000Y-107199128D03*
X213540000Y-107199128D03*
X214040000Y-107199128D03*
X214540000Y-107199128D03*
D69*
X215227500Y-106511628D03*
X215227500Y-106011628D03*
X215227500Y-105511628D03*
X215227500Y-105011628D03*
D70*
X214540000Y-104324128D03*
X214040000Y-104324128D03*
X213540000Y-104324128D03*
X213040000Y-104324128D03*
D71*
X213790000Y-105761628D03*
%TD*%
D35*
%TO.C,C22*%
X216789000Y-81150000D03*
X216789000Y-79075000D03*
%TD*%
D42*
%TO.C,Q3*%
X220800000Y-105127500D03*
X218900000Y-105127500D03*
X219850000Y-107002500D03*
%TD*%
D72*
%TO.C,SW1*%
X215165000Y-110737500D03*
X219415000Y-110737500D03*
D73*
X216065000Y-109837500D03*
X218515000Y-109837500D03*
D74*
X217290000Y-109837500D03*
D75*
X215440000Y-111787500D03*
X219140000Y-111787500D03*
%TD*%
D23*
%TO.C,R15*%
X211800000Y-92250000D03*
X209975000Y-92250000D03*
%TD*%
%TO.C,R23*%
X220732500Y-96020000D03*
X218907500Y-96020000D03*
%TD*%
D49*
%TO.C,TP16*%
X1275000Y-1275000D03*
%TD*%
D46*
%TO.C,C30*%
X196337500Y-74000000D03*
X194262500Y-74000000D03*
%TD*%
D24*
%TO.C,R5*%
X201830000Y-84435000D03*
X201830000Y-82610000D03*
%TD*%
D40*
%TO.C,R25*%
X202287500Y-78210000D03*
X204112500Y-78210000D03*
%TD*%
D76*
%TO.C,R9*%
X234027500Y-110431100D03*
X236027500Y-110431100D03*
%TD*%
D34*
%TO.C,D5*%
X240965000Y-106087500D03*
X239215000Y-106087500D03*
%TD*%
D77*
%TO.C,J10*%
X198600000Y-111250000D03*
D78*
X198600000Y-108250000D03*
%TD*%
D79*
%TO.C,L2*%
X241454752Y-86151195D03*
X241454752Y-87121195D03*
%TD*%
D80*
%TO.C,SW3*%
X221750000Y-71600000D03*
X226450000Y-71600000D03*
%TD*%
D38*
%TO.C,C20*%
X213360000Y-91345000D03*
X213360000Y-89620000D03*
%TD*%
D65*
%TO.C,C5*%
X206865000Y-106717500D03*
X208590000Y-106717500D03*
%TD*%
D40*
%TO.C,R26*%
X210487500Y-83700000D03*
X212312500Y-83700000D03*
%TD*%
D41*
%TO.C,TP3*%
X208400000Y-82200000D03*
%TD*%
D81*
%TO.C,R8*%
X236027500Y-108084300D03*
X234027500Y-108084300D03*
%TD*%
D43*
%TO.C,C28*%
X196100000Y-71300000D03*
X194375000Y-71300000D03*
%TD*%
D49*
%TO.C,TP11*%
X208192500Y-108917500D03*
%TD*%
D82*
%TO.C,F1*%
X196300000Y-79800000D03*
X196300000Y-77000000D03*
%TD*%
D83*
%TO.C,U3*%
X205625000Y-86900000D03*
X205625000Y-87850000D03*
X205625000Y-88800000D03*
X207900000Y-88800000D03*
X207900000Y-87850000D03*
X207900000Y-86900000D03*
%TD*%
D22*
%TO.C,R3*%
X201820000Y-91460000D03*
X201820000Y-93285000D03*
%TD*%
D23*
%TO.C,R28*%
X228271250Y-94710000D03*
X226446250Y-94710000D03*
%TD*%
D51*
%TO.C,C1*%
X223570000Y-107580000D03*
X223570000Y-109655000D03*
%TD*%
D38*
%TO.C,C4*%
X225690000Y-105527500D03*
X225690000Y-103802500D03*
%TD*%
D84*
%TO.C,L1*%
X231290000Y-101937500D03*
X228290000Y-101937500D03*
%TD*%
D27*
%TO.C,H4*%
X239772500Y-109727500D03*
%TD*%
%LPD*%
M02*
