%TF.GenerationSoftware,KiCad,Pcbnew,9.0.4*%
%TF.CreationDate,2025-11-12T13:02:08+07:00*%
%TF.ProjectId,anchor,616e6368-6f72-42e6-9b69-6361645f7063,rev?*%
%TF.SameCoordinates,Original*%
%TF.FileFunction,Copper,L2,Bot*%
%TF.FilePolarity,Positive*%
%FSLAX46Y46*%
G04 Gerber Fmt 4.6, Leading zero omitted, Abs format (unit mm)*
G04 Created by KiCad (PCBNEW 9.0.4) date 2025-11-12 13:02:08*
%MOMM*%
%LPD*%
G01*
G04 APERTURE LIST*
%TA.AperFunction,HeatsinkPad*%
%ADD10O,2.100000X1.000000*%
%TD*%
%TA.AperFunction,HeatsinkPad*%
%ADD11O,1.600000X1.000000*%
%TD*%
%TA.AperFunction,SMDPad,CuDef*%
%ADD12C,1.000000*%
%TD*%
%TA.AperFunction,SMDPad,CuDef*%
%ADD13R,1.500000X1.500000*%
%TD*%
%TA.AperFunction,ViaPad*%
%ADD14C,0.500000*%
%TD*%
%TA.AperFunction,ViaPad*%
%ADD15C,0.700000*%
%TD*%
%TA.AperFunction,Conductor*%
%ADD16C,0.500000*%
%TD*%
%TA.AperFunction,Conductor*%
%ADD17C,0.600000*%
%TD*%
%TA.AperFunction,Conductor*%
%ADD18C,0.250000*%
%TD*%
G04 APERTURE END LIST*
D10*
%TO.P,J2,S1,SHIELD*%
%TO.N,GND*%
X200143250Y-83480000D03*
D11*
X195963250Y-83480000D03*
D10*
X200143250Y-92120000D03*
D11*
X195963250Y-92120000D03*
%TD*%
D12*
%TO.P,TP7,1,1*%
%TO.N,/SPI_SCK*%
X215700000Y-68200000D03*
%TD*%
D13*
%TO.P,TP3,1,1*%
%TO.N,GND*%
X216800000Y-77600000D03*
%TD*%
D12*
%TO.P,TP10,1,1*%
%TO.N,/SPI_MISO*%
X217700000Y-70300000D03*
%TD*%
%TO.P,TP9,1,1*%
%TO.N,/BLE_TX*%
X227071250Y-80400000D03*
%TD*%
%TO.P,TP8,1,1*%
%TO.N,/SPI_MOSI*%
X219800000Y-72300000D03*
%TD*%
%TO.P,TP11,1,1*%
%TO.N,/SPI_CS1*%
X212100000Y-79200000D03*
%TD*%
%TO.P,TP12,1,1*%
%TO.N,/BLE_RX*%
X227071250Y-76450000D03*
%TD*%
D14*
%TO.N,GND*%
X219000000Y-66500000D03*
X232940000Y-104400000D03*
X231820000Y-96050000D03*
X239000000Y-90000000D03*
X225000000Y-66500000D03*
X239000000Y-77450000D03*
X208800000Y-89800000D03*
X198300000Y-108300000D03*
X208550000Y-67000000D03*
X213500000Y-87000000D03*
X217500000Y-65000000D03*
X213650000Y-63650000D03*
X212000000Y-81300000D03*
X232500000Y-68000000D03*
X241000000Y-98000000D03*
X197800000Y-103000000D03*
X231000000Y-66500000D03*
X211500000Y-87000000D03*
X205500000Y-69000000D03*
X197500000Y-65400000D03*
X239000000Y-92000000D03*
X230500000Y-80000000D03*
X237000000Y-95000000D03*
X239000000Y-78225000D03*
X194000000Y-81500000D03*
X239000000Y-78950000D03*
X237000000Y-84000000D03*
X216872345Y-87023662D03*
X218300000Y-79150000D03*
X210000000Y-111000000D03*
X196750000Y-64650000D03*
X219000000Y-100425000D03*
X212000000Y-111000000D03*
X198200000Y-75500000D03*
X200100000Y-109000000D03*
X223400000Y-97400000D03*
X225000000Y-63500000D03*
X213000000Y-74500000D03*
X228321250Y-84600000D03*
X220600000Y-91400000D03*
X216200000Y-82500000D03*
X212000000Y-76500000D03*
X210699000Y-108250000D03*
X214225000Y-89550000D03*
X220500000Y-68000000D03*
X194000000Y-93350000D03*
X241000000Y-104000000D03*
X193800000Y-68200000D03*
X193700000Y-75500000D03*
X213000000Y-75500000D03*
X194000000Y-88800000D03*
X225000000Y-69500000D03*
X207500000Y-71000000D03*
X194800000Y-75500000D03*
X240725000Y-84400000D03*
X202070000Y-105400000D03*
X230500000Y-73250000D03*
X213560000Y-67820000D03*
X225900000Y-106400000D03*
X208000000Y-111000000D03*
X195000000Y-108000000D03*
X202500000Y-67000000D03*
X239000000Y-74450000D03*
X241400000Y-84400000D03*
X228000000Y-69500000D03*
X202280000Y-91060000D03*
X233500000Y-87500000D03*
X222400000Y-97400000D03*
X232000000Y-80000000D03*
X232800000Y-109050000D03*
X229750000Y-74000000D03*
X230821250Y-87000000D03*
X232950000Y-99450000D03*
X222000000Y-69450000D03*
X225121250Y-88810000D03*
X240725000Y-83650000D03*
X212000000Y-75500000D03*
X233593413Y-75593413D03*
X231000000Y-63500000D03*
X193800000Y-70300000D03*
X239000000Y-66750000D03*
X218694000Y-85200000D03*
X220500000Y-65000000D03*
X210500000Y-87000000D03*
X222200000Y-105600000D03*
X235000000Y-107400000D03*
X204000000Y-111000000D03*
X232890000Y-97280000D03*
X199200000Y-74500000D03*
X194050000Y-96150000D03*
X235000000Y-77000000D03*
X209525000Y-67000000D03*
X207500000Y-67000000D03*
X232500000Y-65000000D03*
X239000000Y-75950000D03*
X205500000Y-73000000D03*
X239000000Y-79700000D03*
X239000000Y-69750000D03*
X209650000Y-89100000D03*
X194000000Y-76700000D03*
X213650000Y-65200000D03*
X233500000Y-78500000D03*
X213530000Y-111590000D03*
X228000000Y-66500000D03*
X224600000Y-97400000D03*
X205500000Y-67025000D03*
X206000000Y-111000000D03*
X212000000Y-74500000D03*
X206500000Y-67000000D03*
X220250000Y-104950000D03*
X214400000Y-64400000D03*
X203500000Y-71000000D03*
X220494000Y-88800000D03*
X235600000Y-93800000D03*
X217100000Y-106800000D03*
X209200000Y-106815000D03*
X203500000Y-67000000D03*
X225600000Y-97400000D03*
X208475000Y-90975000D03*
X209650000Y-86900000D03*
X215700000Y-94750000D03*
X215400000Y-79150000D03*
X202280000Y-91780000D03*
X201600000Y-100200000D03*
X203500000Y-89400000D03*
X232900000Y-102100000D03*
X220225000Y-108400000D03*
X229750000Y-80000000D03*
X226600000Y-95400000D03*
X234000000Y-66500000D03*
X225806000Y-76073000D03*
X213650000Y-64400000D03*
X239000000Y-67750000D03*
X224155000Y-93345000D03*
X228000000Y-63500000D03*
X228321250Y-90500000D03*
X205500000Y-79800000D03*
X239000000Y-80450000D03*
X226500000Y-65000000D03*
X215100000Y-104100000D03*
X196750000Y-65400000D03*
X241000000Y-101000000D03*
X241000000Y-94950000D03*
X229750000Y-73250000D03*
X230821250Y-90000000D03*
X203900000Y-104500000D03*
X218890000Y-111600000D03*
X196513250Y-88800000D03*
X229750000Y-77000000D03*
X220900000Y-100900000D03*
X216010000Y-111610000D03*
X226000000Y-73200000D03*
X230500000Y-74000000D03*
X209150000Y-109275000D03*
X194800000Y-72500000D03*
X201500000Y-73000000D03*
X241000000Y-92000000D03*
X193800000Y-72500000D03*
X226600000Y-97400000D03*
X194900000Y-70300000D03*
X239000000Y-76700000D03*
X237000000Y-63500000D03*
X235000000Y-110000000D03*
X216000000Y-63500000D03*
X241000000Y-107000000D03*
X229500000Y-65000000D03*
X235000000Y-74000000D03*
X238000000Y-107400000D03*
X202310000Y-84560000D03*
X204450000Y-67000000D03*
X229500000Y-68000000D03*
X229770000Y-81050000D03*
X195000000Y-106000000D03*
X223500000Y-68000000D03*
X239000000Y-98000000D03*
X226500000Y-68000000D03*
X219000000Y-63500000D03*
X220500000Y-70700000D03*
X212500000Y-87000000D03*
X233500000Y-91000000D03*
X209500000Y-69000000D03*
D15*
X224671250Y-77660000D03*
D14*
X230821250Y-85500000D03*
X194900000Y-68200000D03*
X228691654Y-87749029D03*
X198200000Y-74500000D03*
X200750000Y-98675000D03*
X224500000Y-102311200D03*
X232000000Y-76600000D03*
X216894000Y-88800000D03*
X220494000Y-85200000D03*
X233250000Y-84000000D03*
X200100000Y-110250000D03*
X213750000Y-72800000D03*
X236500000Y-75500000D03*
X222000000Y-63500000D03*
X195200000Y-100500000D03*
X215600000Y-74200000D03*
X218694000Y-88800000D03*
X219000000Y-69500000D03*
X194013250Y-86300000D03*
X216000000Y-66500000D03*
X235000000Y-104000000D03*
X217100000Y-100000000D03*
X237000000Y-66500000D03*
X234000000Y-63500000D03*
X239000000Y-68750000D03*
X236500000Y-78500000D03*
X201500000Y-69000000D03*
X236700000Y-110000000D03*
X214400000Y-63650000D03*
X214400000Y-65200000D03*
X235500000Y-65000000D03*
X210500000Y-89000000D03*
X226790000Y-109290000D03*
X199000000Y-100500000D03*
X241000000Y-86000000D03*
X196513250Y-86300000D03*
X239000000Y-73700000D03*
X209500000Y-73000000D03*
X199200000Y-75500000D03*
X228026844Y-104600000D03*
X223711250Y-86000000D03*
X234000000Y-69000000D03*
X214750000Y-77500000D03*
X228321250Y-83300000D03*
X239000000Y-86000000D03*
X215700000Y-93300000D03*
X231000000Y-69000000D03*
X197500000Y-64650000D03*
X217500000Y-68000000D03*
X227000000Y-74700000D03*
X219400000Y-94800000D03*
X203500000Y-86000000D03*
X230821250Y-88500000D03*
X232950000Y-94000000D03*
X223500000Y-65000000D03*
X220494000Y-87000000D03*
X235000000Y-80000000D03*
X217450000Y-76050000D03*
X227400000Y-100950000D03*
X216894000Y-85200000D03*
X203500000Y-87800000D03*
X223600000Y-71600000D03*
X211500000Y-89000000D03*
X202310000Y-83800000D03*
X227200000Y-82000000D03*
X239000000Y-75175000D03*
X201550000Y-67000000D03*
X231750000Y-107975000D03*
X213000000Y-76500000D03*
X196650000Y-93350000D03*
X194000000Y-98500000D03*
X241000000Y-90000000D03*
X230500000Y-77000000D03*
X239000000Y-84500000D03*
X218694000Y-87000000D03*
X221800000Y-73000000D03*
X226321250Y-90500000D03*
X241400000Y-83600000D03*
X207430000Y-102050000D03*
D15*
%TO.N,VBUS*%
X199442250Y-89780944D03*
X199491053Y-85850000D03*
%TO.N,+3.3V*%
X197250000Y-95250000D03*
X232100000Y-85600000D03*
X206804750Y-93350000D03*
X206804750Y-85000000D03*
X237200000Y-88500000D03*
X206804750Y-94300000D03*
X206804750Y-84000000D03*
%TO.N,/CHG*%
X211950000Y-108500000D03*
X217450000Y-103625000D03*
%TO.N,/LED_USR*%
X219400000Y-97550000D03*
D14*
X224762500Y-94737500D03*
D15*
%TO.N,/SPI_CS1*%
X214100000Y-83700000D03*
X214076181Y-77931244D03*
%TO.N,/UWB_RST*%
X206597580Y-80810110D03*
X196600000Y-67200000D03*
%TO.N,/SPI_MOSI*%
X217200000Y-74800000D03*
%TO.N,/SPI_SCK*%
X214500000Y-69200000D03*
%TO.N,/SPI_MISO*%
X216000000Y-72000000D03*
%TO.N,/STM_SWDIO*%
X198400000Y-96000000D03*
X209825000Y-91050000D03*
%TO.N,/STM_SWDCLK*%
X214830000Y-91750000D03*
X197400000Y-96700000D03*
%TO.N,/BLE_SWDCLK*%
X235100000Y-84100000D03*
X233452606Y-74701404D03*
%TO.N,/BLE_RST*%
X236000000Y-84100000D03*
X234200000Y-74200000D03*
%TO.N,/BLE_SWDIO*%
X232711343Y-75211829D03*
X234200000Y-84100000D03*
%TO.N,/PA0{slash}BTN_USR*%
X222550000Y-68375000D03*
X222496250Y-77850000D03*
%TO.N,/BLE_TX*%
X230200000Y-79100000D03*
X223008952Y-82842298D03*
%TO.N,Net-(U4-NRST)*%
X224200639Y-82124804D03*
X224621250Y-85954065D03*
X223396253Y-73778747D03*
X223396253Y-77850000D03*
%TO.N,/BLE_RX*%
X230200000Y-77800000D03*
X222300000Y-82150000D03*
D14*
%TO.N,Net-(U4-BOOT0)*%
X233700000Y-99900000D03*
D15*
X220475000Y-93425000D03*
%TO.N,/DIP1*%
X203187500Y-101212500D03*
X213750000Y-92500000D03*
%TO.N,/DIP2*%
X203200000Y-102400000D03*
X213750000Y-94000000D03*
%TO.N,/DIP3*%
X213750000Y-95500000D03*
X203162500Y-103787500D03*
%TO.N,/PGOOD*%
X210200000Y-109375000D03*
X210833056Y-100110204D03*
%TD*%
D16*
%TO.N,VBUS*%
X199491053Y-89732141D02*
X199442250Y-89780944D01*
D17*
X199442250Y-85898803D02*
X199491053Y-85850000D01*
X199442250Y-89780944D02*
X199442250Y-85898803D01*
D18*
%TO.N,+3.3V*%
X197500000Y-95000000D02*
X206104750Y-95000000D01*
D17*
X206804750Y-93350000D02*
X206804750Y-94300000D01*
X206804750Y-93350000D02*
X206804750Y-85000000D01*
D18*
X206104750Y-95000000D02*
X206804750Y-94300000D01*
X197250000Y-95250000D02*
X197500000Y-95000000D01*
X232100000Y-85600000D02*
X232200000Y-85500000D01*
X234200000Y-85500000D02*
X237200000Y-88500000D01*
X232200000Y-85500000D02*
X234200000Y-85500000D01*
D17*
X206804750Y-84000000D02*
X206804750Y-85000000D01*
D18*
%TO.N,/CHG*%
X216700000Y-103625000D02*
X211950000Y-108375000D01*
X217450000Y-103625000D02*
X216700000Y-103625000D01*
X211950000Y-108375000D02*
X211950000Y-108500000D01*
%TO.N,/LED_USR*%
X223862500Y-94737500D02*
X224762500Y-94737500D01*
X219400000Y-97550000D02*
X221050000Y-97550000D01*
%TO.N,/SPI_CS1*%
X214076181Y-77931244D02*
X212857425Y-79150000D01*
X214100000Y-77955063D02*
X214100000Y-83700000D01*
X214076181Y-77931244D02*
X214100000Y-77955063D01*
X212857425Y-79150000D02*
X212150000Y-79150000D01*
X212150000Y-79150000D02*
X212100000Y-79200000D01*
%TO.N,/UWB_RST*%
X201000000Y-77000000D02*
X198185412Y-77000000D01*
X204800000Y-80800000D02*
X201000000Y-77000000D01*
X197300000Y-76114588D02*
X197300000Y-67900000D01*
X198185412Y-77000000D02*
X197300000Y-76114588D01*
X206597580Y-80810110D02*
X206587470Y-80800000D01*
X206587470Y-80800000D02*
X204800000Y-80800000D01*
X197300000Y-67900000D02*
X196600000Y-67200000D01*
%TO.N,/SPI_MOSI*%
X217300000Y-74800000D02*
X217200000Y-74800000D01*
X219800000Y-72300000D02*
X217300000Y-74800000D01*
%TO.N,/SPI_SCK*%
X215700000Y-68200000D02*
X215500000Y-68200000D01*
X215500000Y-68200000D02*
X214500000Y-69200000D01*
%TO.N,/SPI_MISO*%
X217700000Y-70300000D02*
X216000000Y-72000000D01*
%TO.N,/STM_SWDIO*%
X209825000Y-92375000D02*
X206200000Y-96000000D01*
X206200000Y-96000000D02*
X198400000Y-96000000D01*
X209825000Y-91050000D02*
X209825000Y-92375000D01*
%TO.N,/STM_SWDCLK*%
X211550000Y-91750000D02*
X206600000Y-96700000D01*
X214830000Y-91750000D02*
X211550000Y-91750000D01*
X206600000Y-96700000D02*
X197400000Y-96700000D01*
%TO.N,/BLE_SWDCLK*%
X234300000Y-82800000D02*
X235100000Y-83600000D01*
X234300000Y-75450000D02*
X234300000Y-82800000D01*
X235100000Y-83600000D02*
X235100000Y-84100000D01*
X233554691Y-74704691D02*
X234300000Y-75450000D01*
X233452606Y-74701404D02*
X233455893Y-74704691D01*
X233455893Y-74704691D02*
X233554691Y-74704691D01*
%TO.N,/BLE_RST*%
X234200000Y-74250000D02*
X235776000Y-75826000D01*
X235776000Y-75826000D02*
X235776000Y-83876000D01*
X235776000Y-83876000D02*
X236000000Y-84100000D01*
X234200000Y-74200000D02*
X234200000Y-74250000D01*
%TO.N,/BLE_SWDIO*%
X232711343Y-75211829D02*
X232711343Y-75243615D01*
X232711343Y-75243615D02*
X232924000Y-75456272D01*
X232924000Y-82824000D02*
X234200000Y-84100000D01*
X232924000Y-75456272D02*
X232924000Y-82824000D01*
%TO.N,/PA0{slash}BTN_USR*%
X222576000Y-68401000D02*
X222576000Y-77770250D01*
X222576000Y-77770250D02*
X222496250Y-77850000D01*
X222550000Y-68375000D02*
X222576000Y-68401000D01*
%TO.N,/BLE_TX*%
X223008952Y-82842298D02*
X223021250Y-82830000D01*
X223021250Y-82150000D02*
X226071250Y-79100000D01*
X226071250Y-79100000D02*
X230200000Y-79100000D01*
X227071250Y-80400000D02*
X226071250Y-79400000D01*
X223021250Y-82830000D02*
X223021250Y-82150000D01*
X226071250Y-79400000D02*
X226071250Y-79100000D01*
%TO.N,Net-(U4-NRST)*%
X224375000Y-85707815D02*
X224621250Y-85954065D01*
X223396253Y-73778747D02*
X223396253Y-77850000D01*
X224375000Y-82299165D02*
X224375000Y-85707815D01*
X224200639Y-82124804D02*
X224375000Y-82299165D01*
%TO.N,/BLE_RX*%
X226121250Y-77800000D02*
X226350000Y-77800000D01*
X222300000Y-81621250D02*
X226121250Y-77800000D01*
X226121250Y-77778750D02*
X226121250Y-77800000D01*
X222300000Y-82150000D02*
X222300000Y-81621250D01*
X226350000Y-77800000D02*
X230200000Y-77800000D01*
X227071250Y-76450000D02*
X227071250Y-76828750D01*
X222300000Y-82150000D02*
X222171250Y-82150000D01*
X227071250Y-76828750D02*
X226121250Y-77778750D01*
%TO.N,Net-(U4-BOOT0)*%
X228380000Y-93980000D02*
X233124000Y-98724000D01*
X220475000Y-93425000D02*
X221030000Y-93980000D01*
X233700000Y-99300000D02*
X233700000Y-99900000D01*
X233124000Y-98724000D02*
X233138588Y-98724000D01*
X221030000Y-93980000D02*
X228380000Y-93980000D01*
X233476000Y-99061412D02*
X233476000Y-99076000D01*
X233476000Y-99076000D02*
X233700000Y-99300000D01*
X233138588Y-98724000D02*
X233476000Y-99061412D01*
%TO.N,/DIP1*%
X211900000Y-92500000D02*
X213750000Y-92500000D01*
X203187500Y-101212500D02*
X211900000Y-92500000D01*
%TO.N,/DIP2*%
X203200000Y-102400000D02*
X211600000Y-94000000D01*
X211600000Y-94000000D02*
X213750000Y-94000000D01*
%TO.N,/DIP3*%
X203162500Y-103787500D02*
X203162500Y-103762500D01*
X203162500Y-103762500D02*
X211425000Y-95500000D01*
X211425000Y-95500000D02*
X213750000Y-95500000D01*
%TO.N,/PGOOD*%
X210842945Y-100120093D02*
X210842945Y-100131711D01*
X210842945Y-100131711D02*
X210124000Y-100850656D01*
X210124000Y-109299000D02*
X210200000Y-109375000D01*
X210124000Y-100850656D02*
X210124000Y-109299000D01*
X210833056Y-100110204D02*
X210842945Y-100120093D01*
%TO.N,/LED_USR*%
X221050000Y-97550000D02*
X223862500Y-94737500D01*
%TD*%
%TA.AperFunction,Conductor*%
%TO.N,GND*%
G36*
X233581503Y-75302738D02*
G01*
X233602704Y-75303241D01*
X233616938Y-75311916D01*
X233628610Y-75314940D01*
X233637270Y-75324308D01*
X233652638Y-75333675D01*
X233888181Y-75569218D01*
X233921666Y-75630541D01*
X233924500Y-75656899D01*
X233924500Y-82849435D01*
X233950090Y-82944938D01*
X233950091Y-82944939D01*
X233980081Y-82996884D01*
X233980083Y-82996886D01*
X233990206Y-83014420D01*
X234006677Y-83082321D01*
X233983825Y-83148347D01*
X233928903Y-83191537D01*
X233859349Y-83198178D01*
X233797247Y-83166161D01*
X233795137Y-83164100D01*
X233335819Y-82704782D01*
X233302334Y-82643459D01*
X233299500Y-82617101D01*
X233299500Y-75425904D01*
X233301484Y-75419146D01*
X233300258Y-75412210D01*
X233311200Y-75386056D01*
X233319185Y-75358865D01*
X233324507Y-75354253D01*
X233327226Y-75347755D01*
X233350569Y-75331669D01*
X233371989Y-75313110D01*
X233380349Y-75311149D01*
X233384760Y-75308111D01*
X233411774Y-75303782D01*
X233419515Y-75301968D01*
X233421506Y-75301904D01*
X233531663Y-75301904D01*
X233546683Y-75297879D01*
X233560972Y-75297420D01*
X233581503Y-75302738D01*
G37*
%TD.AperFunction*%
%TA.AperFunction,Conductor*%
G36*
X234880703Y-75462186D02*
G01*
X234887181Y-75468218D01*
X235364181Y-75945218D01*
X235397666Y-76006541D01*
X235400500Y-76032899D01*
X235400500Y-83070099D01*
X235380815Y-83137138D01*
X235328011Y-83182893D01*
X235258853Y-83192837D01*
X235195297Y-83163812D01*
X235188819Y-83157780D01*
X234711819Y-82680780D01*
X234678334Y-82619457D01*
X234675500Y-82593099D01*
X234675500Y-75555899D01*
X234695185Y-75488860D01*
X234747989Y-75443105D01*
X234817147Y-75433161D01*
X234880703Y-75462186D01*
G37*
%TD.AperFunction*%
%TA.AperFunction,Conductor*%
G36*
X196573627Y-63080000D02*
G01*
X200296000Y-63080000D01*
X200363039Y-63099685D01*
X200408794Y-63152489D01*
X200420000Y-63204000D01*
X200420000Y-66440030D01*
X200420000Y-66440031D01*
X210580000Y-66440000D01*
X210580000Y-65093713D01*
X238449500Y-65093713D01*
X238449500Y-65306286D01*
X238482753Y-65516239D01*
X238548444Y-65718414D01*
X238644951Y-65907820D01*
X238769890Y-66079786D01*
X238920213Y-66230109D01*
X239092179Y-66355048D01*
X239092181Y-66355049D01*
X239092184Y-66355051D01*
X239281588Y-66451557D01*
X239483757Y-66517246D01*
X239693713Y-66550500D01*
X239693714Y-66550500D01*
X239906286Y-66550500D01*
X239906287Y-66550500D01*
X240116243Y-66517246D01*
X240318412Y-66451557D01*
X240507816Y-66355051D01*
X240529789Y-66339086D01*
X240679786Y-66230109D01*
X240679788Y-66230106D01*
X240679792Y-66230104D01*
X240830104Y-66079792D01*
X240830106Y-66079788D01*
X240830109Y-66079786D01*
X240955048Y-65907820D01*
X240955047Y-65907820D01*
X240955051Y-65907816D01*
X241051557Y-65718412D01*
X241117246Y-65516243D01*
X241150500Y-65306287D01*
X241150500Y-65093713D01*
X241117246Y-64883757D01*
X241051557Y-64681588D01*
X240955051Y-64492184D01*
X240955049Y-64492181D01*
X240955048Y-64492179D01*
X240830109Y-64320213D01*
X240679786Y-64169890D01*
X240507820Y-64044951D01*
X240318414Y-63948444D01*
X240318413Y-63948443D01*
X240318412Y-63948443D01*
X240116243Y-63882754D01*
X240116241Y-63882753D01*
X240116240Y-63882753D01*
X239954957Y-63857208D01*
X239906287Y-63849500D01*
X239693713Y-63849500D01*
X239645042Y-63857208D01*
X239483760Y-63882753D01*
X239281585Y-63948444D01*
X239092179Y-64044951D01*
X238920213Y-64169890D01*
X238769890Y-64320213D01*
X238644951Y-64492179D01*
X238548444Y-64681585D01*
X238482753Y-64883760D01*
X238449500Y-65093713D01*
X210580000Y-65093713D01*
X210580000Y-63204000D01*
X210599685Y-63136961D01*
X210652489Y-63091206D01*
X210704000Y-63080000D01*
X214415014Y-63080000D01*
X214421235Y-63076603D01*
X214447593Y-63073769D01*
X240110686Y-63073769D01*
X240165567Y-63073769D01*
X240174413Y-63074085D01*
X240410129Y-63090943D01*
X240427634Y-63093460D01*
X240654215Y-63142750D01*
X240671173Y-63147729D01*
X240888445Y-63228768D01*
X240904528Y-63236113D01*
X241108052Y-63347248D01*
X241122924Y-63356806D01*
X241308556Y-63495771D01*
X241321915Y-63507347D01*
X241485883Y-63671320D01*
X241497463Y-63684685D01*
X241636416Y-63870311D01*
X241645982Y-63885196D01*
X241757103Y-64088711D01*
X241764452Y-64104804D01*
X241845480Y-64322062D01*
X241850464Y-64339038D01*
X241899746Y-64565615D01*
X241902263Y-64583128D01*
X241919177Y-64819716D01*
X241919493Y-64828560D01*
X241919492Y-64891187D01*
X241919494Y-64891216D01*
X241919494Y-66726000D01*
X241899809Y-66793039D01*
X241847005Y-66838794D01*
X241795494Y-66850000D01*
X239450000Y-66850000D01*
X239450000Y-78600000D01*
X239450000Y-81200000D01*
X241795494Y-81200000D01*
X241862533Y-81219685D01*
X241908288Y-81272489D01*
X241919494Y-81324000D01*
X241919494Y-110420572D01*
X241919178Y-110429418D01*
X241902319Y-110665133D01*
X241899801Y-110682645D01*
X241850513Y-110909219D01*
X241845529Y-110926195D01*
X241764493Y-111143460D01*
X241757143Y-111159553D01*
X241646016Y-111363066D01*
X241636451Y-111377949D01*
X241497493Y-111563576D01*
X241485907Y-111576948D01*
X241321944Y-111740910D01*
X241308574Y-111752495D01*
X241122942Y-111891456D01*
X241108063Y-111901019D01*
X240904548Y-112012146D01*
X240888454Y-112019496D01*
X240671193Y-112100529D01*
X240654218Y-112105513D01*
X240427642Y-112154801D01*
X240410130Y-112157319D01*
X240174324Y-112174184D01*
X240165478Y-112174500D01*
X194500147Y-112174500D01*
X194491302Y-112174184D01*
X194255589Y-112157327D01*
X194238078Y-112154810D01*
X194011488Y-112105522D01*
X193994511Y-112100537D01*
X193777255Y-112019506D01*
X193761162Y-112012157D01*
X193557645Y-111901030D01*
X193542761Y-111891465D01*
X193357125Y-111752502D01*
X193343755Y-111740916D01*
X193179796Y-111576960D01*
X193168209Y-111563589D01*
X193029244Y-111377954D01*
X193019679Y-111363071D01*
X192908546Y-111159548D01*
X192901205Y-111143474D01*
X192820162Y-110926192D01*
X192815183Y-110909233D01*
X192765893Y-110682645D01*
X192763375Y-110665136D01*
X192760033Y-110618414D01*
X192746542Y-110429781D01*
X192746226Y-110420935D01*
X192746226Y-109993713D01*
X193499500Y-109993713D01*
X193499500Y-110206287D01*
X193532754Y-110416243D01*
X193535717Y-110425363D01*
X193598444Y-110618414D01*
X193694951Y-110807820D01*
X193819890Y-110979786D01*
X193970213Y-111130109D01*
X194142179Y-111255048D01*
X194142181Y-111255049D01*
X194142184Y-111255051D01*
X194331588Y-111351557D01*
X194533757Y-111417246D01*
X194743713Y-111450500D01*
X194743714Y-111450500D01*
X194956286Y-111450500D01*
X194956287Y-111450500D01*
X195166243Y-111417246D01*
X195368412Y-111351557D01*
X195557816Y-111255051D01*
X195688762Y-111159914D01*
X195729786Y-111130109D01*
X195729788Y-111130106D01*
X195729792Y-111130104D01*
X195880104Y-110979792D01*
X195880106Y-110979788D01*
X195880109Y-110979786D01*
X196005048Y-110807820D01*
X196005047Y-110807820D01*
X196005051Y-110807816D01*
X196101557Y-110618412D01*
X196167246Y-110416243D01*
X196200500Y-110206287D01*
X196200500Y-109993713D01*
X238449500Y-109993713D01*
X238449500Y-110206287D01*
X238482754Y-110416243D01*
X238485717Y-110425363D01*
X238548444Y-110618414D01*
X238644951Y-110807820D01*
X238769890Y-110979786D01*
X238920213Y-111130109D01*
X239092179Y-111255048D01*
X239092181Y-111255049D01*
X239092184Y-111255051D01*
X239281588Y-111351557D01*
X239483757Y-111417246D01*
X239693713Y-111450500D01*
X239693714Y-111450500D01*
X239906286Y-111450500D01*
X239906287Y-111450500D01*
X240116243Y-111417246D01*
X240318412Y-111351557D01*
X240507816Y-111255051D01*
X240638762Y-111159914D01*
X240679786Y-111130109D01*
X240679788Y-111130106D01*
X240679792Y-111130104D01*
X240830104Y-110979792D01*
X240830106Y-110979788D01*
X240830109Y-110979786D01*
X240955048Y-110807820D01*
X240955047Y-110807820D01*
X240955051Y-110807816D01*
X241051557Y-110618412D01*
X241117246Y-110416243D01*
X241150500Y-110206287D01*
X241150500Y-109993713D01*
X241117246Y-109783757D01*
X241051557Y-109581588D01*
X240955051Y-109392184D01*
X240955049Y-109392181D01*
X240955048Y-109392179D01*
X240830109Y-109220213D01*
X240679786Y-109069890D01*
X240507820Y-108944951D01*
X240318414Y-108848444D01*
X240318413Y-108848443D01*
X240318412Y-108848443D01*
X240116243Y-108782754D01*
X240116241Y-108782753D01*
X240116240Y-108782753D01*
X239954957Y-108757208D01*
X239906287Y-108749500D01*
X239693713Y-108749500D01*
X239645042Y-108757208D01*
X239483760Y-108782753D01*
X239281585Y-108848444D01*
X239092179Y-108944951D01*
X238920213Y-109069890D01*
X238769890Y-109220213D01*
X238644951Y-109392179D01*
X238548444Y-109581585D01*
X238482753Y-109783760D01*
X238471387Y-109855524D01*
X238449500Y-109993713D01*
X196200500Y-109993713D01*
X196167246Y-109783757D01*
X196101557Y-109581588D01*
X196005051Y-109392184D01*
X196001851Y-109387780D01*
X195982178Y-109360701D01*
X195935129Y-109295943D01*
X209599500Y-109295943D01*
X209599500Y-109454056D01*
X209640423Y-109606783D01*
X209640426Y-109606790D01*
X209719475Y-109743709D01*
X209719479Y-109743714D01*
X209719480Y-109743716D01*
X209831284Y-109855520D01*
X209831286Y-109855521D01*
X209831290Y-109855524D01*
X209876203Y-109881454D01*
X209968216Y-109934577D01*
X210120943Y-109975500D01*
X210120945Y-109975500D01*
X210279055Y-109975500D01*
X210279057Y-109975500D01*
X210431784Y-109934577D01*
X210468180Y-109913563D01*
X210523798Y-109881454D01*
X210568709Y-109855524D01*
X210568708Y-109855524D01*
X210568716Y-109855520D01*
X210680520Y-109743716D01*
X210759577Y-109606784D01*
X210800500Y-109454057D01*
X210800500Y-109295943D01*
X210759577Y-109143216D01*
X210717243Y-109069890D01*
X210680524Y-109006290D01*
X210680518Y-109006282D01*
X210568718Y-108894482D01*
X210568716Y-108894480D01*
X210568713Y-108894478D01*
X210568709Y-108894475D01*
X210561495Y-108890310D01*
X210513282Y-108839741D01*
X210499500Y-108782926D01*
X210499500Y-108420943D01*
X211349500Y-108420943D01*
X211349500Y-108579056D01*
X211390423Y-108731783D01*
X211390426Y-108731790D01*
X211469475Y-108868709D01*
X211469479Y-108868714D01*
X211469480Y-108868716D01*
X211581284Y-108980520D01*
X211581286Y-108980521D01*
X211581290Y-108980524D01*
X211625912Y-109006286D01*
X211718216Y-109059577D01*
X211870943Y-109100500D01*
X211870945Y-109100500D01*
X212029055Y-109100500D01*
X212029057Y-109100500D01*
X212181784Y-109059577D01*
X212318716Y-108980520D01*
X212430520Y-108868716D01*
X212509577Y-108731784D01*
X212550500Y-108579057D01*
X212550500Y-108420943D01*
X212544641Y-108399077D01*
X212546303Y-108329227D01*
X212576732Y-108279303D01*
X216819218Y-104036819D01*
X216846145Y-104022115D01*
X216871964Y-104005523D01*
X216878164Y-104004631D01*
X216880541Y-104003334D01*
X216906899Y-104000500D01*
X216924902Y-104000500D01*
X216991941Y-104020185D01*
X217012583Y-104036819D01*
X217081284Y-104105520D01*
X217081286Y-104105521D01*
X217081290Y-104105524D01*
X217218209Y-104184573D01*
X217218216Y-104184577D01*
X217370943Y-104225500D01*
X217370945Y-104225500D01*
X217529055Y-104225500D01*
X217529057Y-104225500D01*
X217681784Y-104184577D01*
X217818716Y-104105520D01*
X217855241Y-104068995D01*
X238399499Y-104068995D01*
X238426418Y-104204322D01*
X238426421Y-104204332D01*
X238479221Y-104331804D01*
X238479228Y-104331817D01*
X238555885Y-104446541D01*
X238555888Y-104446545D01*
X238653454Y-104544111D01*
X238653458Y-104544114D01*
X238768182Y-104620771D01*
X238768195Y-104620778D01*
X238895667Y-104673578D01*
X238895672Y-104673580D01*
X238895676Y-104673580D01*
X238895677Y-104673581D01*
X239031004Y-104700500D01*
X239031007Y-104700500D01*
X239168995Y-104700500D01*
X239260041Y-104682389D01*
X239304328Y-104673580D01*
X239431811Y-104620775D01*
X239546542Y-104544114D01*
X239644114Y-104446542D01*
X239720775Y-104331811D01*
X239773580Y-104204328D01*
X239783152Y-104156209D01*
X239800500Y-104068995D01*
X239800500Y-103931004D01*
X239773581Y-103795677D01*
X239773580Y-103795676D01*
X239773580Y-103795672D01*
X239735632Y-103704056D01*
X239720778Y-103668195D01*
X239720771Y-103668182D01*
X239644114Y-103553458D01*
X239644111Y-103553454D01*
X239546545Y-103455888D01*
X239546541Y-103455885D01*
X239431817Y-103379228D01*
X239431804Y-103379221D01*
X239304332Y-103326421D01*
X239304322Y-103326418D01*
X239168995Y-103299500D01*
X239168993Y-103299500D01*
X239031007Y-103299500D01*
X239031005Y-103299500D01*
X238895677Y-103326418D01*
X238895667Y-103326421D01*
X238768195Y-103379221D01*
X238768182Y-103379228D01*
X238653458Y-103455885D01*
X238653454Y-103455888D01*
X238555888Y-103553454D01*
X238555885Y-103553458D01*
X238479228Y-103668182D01*
X238479221Y-103668195D01*
X238426421Y-103795667D01*
X238426418Y-103795677D01*
X238399500Y-103931004D01*
X238399500Y-103931007D01*
X238399500Y-104068993D01*
X238399500Y-104068995D01*
X238399499Y-104068995D01*
X217855241Y-104068995D01*
X217930520Y-103993716D01*
X218009577Y-103856784D01*
X218050500Y-103704057D01*
X218050500Y-103545943D01*
X218009577Y-103393216D01*
X218001497Y-103379221D01*
X217930524Y-103256290D01*
X217930518Y-103256282D01*
X217818717Y-103144481D01*
X217818709Y-103144475D01*
X217681790Y-103065426D01*
X217681786Y-103065424D01*
X217681784Y-103065423D01*
X217529057Y-103024500D01*
X217370943Y-103024500D01*
X217218216Y-103065423D01*
X217218209Y-103065426D01*
X217081290Y-103144475D01*
X217081282Y-103144481D01*
X217012583Y-103213181D01*
X216951260Y-103246666D01*
X216924902Y-103249500D01*
X216650564Y-103249500D01*
X216602812Y-103262295D01*
X216602811Y-103262294D01*
X216555063Y-103275089D01*
X216555062Y-103275089D01*
X216469435Y-103324527D01*
X211926565Y-107867397D01*
X211870978Y-107899491D01*
X211870944Y-107899500D01*
X211870943Y-107899500D01*
X211807772Y-107916426D01*
X211718214Y-107940423D01*
X211718209Y-107940426D01*
X211581290Y-108019475D01*
X211581282Y-108019481D01*
X211469481Y-108131282D01*
X211469475Y-108131290D01*
X211390426Y-108268209D01*
X211390423Y-108268216D01*
X211349500Y-108420943D01*
X210499500Y-108420943D01*
X210499500Y-101068995D01*
X238399499Y-101068995D01*
X238426418Y-101204322D01*
X238426421Y-101204332D01*
X238479221Y-101331804D01*
X238479228Y-101331817D01*
X238555885Y-101446541D01*
X238555888Y-101446545D01*
X238653454Y-101544111D01*
X238653458Y-101544114D01*
X238768182Y-101620771D01*
X238768195Y-101620778D01*
X238895667Y-101673578D01*
X238895672Y-101673580D01*
X238895676Y-101673580D01*
X238895677Y-101673581D01*
X239031004Y-101700500D01*
X239031007Y-101700500D01*
X239168995Y-101700500D01*
X239260041Y-101682389D01*
X239304328Y-101673580D01*
X239431811Y-101620775D01*
X239546542Y-101544114D01*
X239644114Y-101446542D01*
X239720775Y-101331811D01*
X239773580Y-101204328D01*
X239800500Y-101068993D01*
X239800500Y-100931007D01*
X239800500Y-100931004D01*
X239773581Y-100795677D01*
X239773580Y-100795676D01*
X239773580Y-100795672D01*
X239753429Y-100747023D01*
X239720778Y-100668195D01*
X239720771Y-100668182D01*
X239644114Y-100553458D01*
X239644111Y-100553454D01*
X239546545Y-100455888D01*
X239546541Y-100455885D01*
X239431817Y-100379228D01*
X239431804Y-100379221D01*
X239304332Y-100326421D01*
X239304322Y-100326418D01*
X239168995Y-100299500D01*
X239168993Y-100299500D01*
X239031007Y-100299500D01*
X239031005Y-100299500D01*
X238895677Y-100326418D01*
X238895667Y-100326421D01*
X238768195Y-100379221D01*
X238768182Y-100379228D01*
X238653458Y-100455885D01*
X238653454Y-100455888D01*
X238555888Y-100553454D01*
X238555885Y-100553458D01*
X238479228Y-100668182D01*
X238479221Y-100668195D01*
X238426421Y-100795667D01*
X238426418Y-100795677D01*
X238399500Y-100931004D01*
X238399500Y-100931007D01*
X238399500Y-101068993D01*
X238399500Y-101068995D01*
X238399499Y-101068995D01*
X210499500Y-101068995D01*
X210499500Y-101057555D01*
X210508144Y-101028114D01*
X210514668Y-100998128D01*
X210518422Y-100993112D01*
X210519185Y-100990516D01*
X210535814Y-100969878D01*
X210758671Y-100747023D01*
X210819994Y-100713538D01*
X210846352Y-100710704D01*
X210912111Y-100710704D01*
X210912113Y-100710704D01*
X211064840Y-100669781D01*
X211201772Y-100590724D01*
X211313576Y-100478920D01*
X211392633Y-100341988D01*
X211433556Y-100189261D01*
X211433556Y-100031147D01*
X211392633Y-99878420D01*
X211367050Y-99834108D01*
X211313580Y-99741494D01*
X211313574Y-99741486D01*
X211201773Y-99629685D01*
X211201765Y-99629679D01*
X211064846Y-99550630D01*
X211064842Y-99550628D01*
X211064840Y-99550627D01*
X210912113Y-99509704D01*
X210753999Y-99509704D01*
X210601272Y-99550627D01*
X210601265Y-99550630D01*
X210464346Y-99629679D01*
X210464338Y-99629685D01*
X210352537Y-99741486D01*
X210352531Y-99741494D01*
X210273482Y-99878413D01*
X210273479Y-99878420D01*
X210232556Y-100031147D01*
X210232556Y-100159700D01*
X210212871Y-100226739D01*
X210196237Y-100247381D01*
X209893438Y-100550181D01*
X209823526Y-100620092D01*
X209774091Y-100705715D01*
X209774091Y-100705716D01*
X209774090Y-100705718D01*
X209748500Y-100801221D01*
X209748500Y-100801223D01*
X209748500Y-108926372D01*
X209728815Y-108993411D01*
X209722875Y-109001859D01*
X209719477Y-109006286D01*
X209640426Y-109143209D01*
X209640423Y-109143216D01*
X209599500Y-109295943D01*
X195935129Y-109295943D01*
X195880109Y-109220213D01*
X195729786Y-109069890D01*
X195557820Y-108944951D01*
X195368414Y-108848444D01*
X195368413Y-108848443D01*
X195368412Y-108848443D01*
X195166243Y-108782754D01*
X195166241Y-108782753D01*
X195166240Y-108782753D01*
X195004957Y-108757208D01*
X194956287Y-108749500D01*
X194743713Y-108749500D01*
X194695042Y-108757208D01*
X194533760Y-108782753D01*
X194331585Y-108848444D01*
X194142179Y-108944951D01*
X193970213Y-109069890D01*
X193819890Y-109220213D01*
X193694951Y-109392179D01*
X193598444Y-109581585D01*
X193532753Y-109783760D01*
X193521387Y-109855524D01*
X193499500Y-109993713D01*
X192746226Y-109993713D01*
X192746226Y-95170943D01*
X196649500Y-95170943D01*
X196649500Y-95329057D01*
X196679341Y-95440423D01*
X196690423Y-95481783D01*
X196690426Y-95481790D01*
X196769475Y-95618709D01*
X196769479Y-95618714D01*
X196769480Y-95618716D01*
X196881284Y-95730520D01*
X196881286Y-95730521D01*
X196881290Y-95730524D01*
X197018209Y-95809573D01*
X197018216Y-95809577D01*
X197170943Y-95850500D01*
X197170945Y-95850500D01*
X197329055Y-95850500D01*
X197329057Y-95850500D01*
X197481784Y-95809577D01*
X197561795Y-95763382D01*
X197618708Y-95730525D01*
X197618710Y-95730523D01*
X197618716Y-95730520D01*
X197618720Y-95730515D01*
X197620705Y-95728993D01*
X197622696Y-95728223D01*
X197625755Y-95726457D01*
X197626030Y-95726933D01*
X197685872Y-95703793D01*
X197754318Y-95717825D01*
X197804312Y-95766635D01*
X197819981Y-95834725D01*
X197819521Y-95840323D01*
X197818500Y-95850031D01*
X197799500Y-95920943D01*
X197799500Y-96030814D01*
X197798821Y-96037275D01*
X197787899Y-96063821D01*
X197779815Y-96091353D01*
X197774775Y-96095719D01*
X197772237Y-96101890D01*
X197748695Y-96118318D01*
X197727011Y-96137108D01*
X197720409Y-96138057D01*
X197714939Y-96141875D01*
X197686258Y-96142967D01*
X197657853Y-96147052D01*
X197648242Y-96144416D01*
X197645120Y-96144535D01*
X197642031Y-96142712D01*
X197639752Y-96142087D01*
X197639635Y-96142527D01*
X197631785Y-96140423D01*
X197631784Y-96140423D01*
X197479057Y-96099500D01*
X197320943Y-96099500D01*
X197168216Y-96140423D01*
X197168209Y-96140426D01*
X197031290Y-96219475D01*
X197031282Y-96219481D01*
X196919481Y-96331282D01*
X196919475Y-96331290D01*
X196840426Y-96468209D01*
X196840423Y-96468216D01*
X196799500Y-96620943D01*
X196799500Y-96779056D01*
X196840423Y-96931783D01*
X196840426Y-96931790D01*
X196919475Y-97068709D01*
X196919479Y-97068714D01*
X196919480Y-97068716D01*
X197031284Y-97180520D01*
X197031286Y-97180521D01*
X197031290Y-97180524D01*
X197094724Y-97217147D01*
X197168216Y-97259577D01*
X197320943Y-97300500D01*
X197320945Y-97300500D01*
X197479055Y-97300500D01*
X197479057Y-97300500D01*
X197631784Y-97259577D01*
X197768716Y-97180520D01*
X197837417Y-97111819D01*
X197898740Y-97078334D01*
X197925098Y-97075500D01*
X206494101Y-97075500D01*
X206561140Y-97095185D01*
X206606895Y-97147989D01*
X206616839Y-97217147D01*
X206587814Y-97280703D01*
X206581782Y-97287181D01*
X203293282Y-100575681D01*
X203231959Y-100609166D01*
X203205601Y-100612000D01*
X203108443Y-100612000D01*
X202955716Y-100652923D01*
X202955709Y-100652926D01*
X202818790Y-100731975D01*
X202818782Y-100731981D01*
X202706981Y-100843782D01*
X202706975Y-100843790D01*
X202627926Y-100980709D01*
X202627923Y-100980716D01*
X202587000Y-101133443D01*
X202587000Y-101291556D01*
X202627923Y-101444283D01*
X202627926Y-101444290D01*
X202706975Y-101581209D01*
X202706979Y-101581214D01*
X202706980Y-101581216D01*
X202818784Y-101693020D01*
X202818785Y-101693021D01*
X202818787Y-101693022D01*
X202835153Y-101702471D01*
X202883369Y-101753038D01*
X202896592Y-101821645D01*
X202870624Y-101886510D01*
X202835159Y-101917242D01*
X202831288Y-101919477D01*
X202831282Y-101919481D01*
X202719481Y-102031282D01*
X202719475Y-102031290D01*
X202640426Y-102168209D01*
X202640423Y-102168216D01*
X202599500Y-102320943D01*
X202599500Y-102479056D01*
X202640423Y-102631783D01*
X202640426Y-102631790D01*
X202719475Y-102768709D01*
X202719479Y-102768714D01*
X202719480Y-102768716D01*
X202831284Y-102880520D01*
X202831286Y-102880521D01*
X202831290Y-102880524D01*
X202968209Y-102959573D01*
X202968216Y-102959577D01*
X203003200Y-102968951D01*
X203062860Y-103005313D01*
X203093391Y-103068160D01*
X203085097Y-103137535D01*
X203040613Y-103191414D01*
X203003203Y-103208499D01*
X202930720Y-103227921D01*
X202930709Y-103227926D01*
X202793790Y-103306975D01*
X202793782Y-103306981D01*
X202681981Y-103418782D01*
X202681975Y-103418790D01*
X202602926Y-103555709D01*
X202602923Y-103555716D01*
X202562000Y-103708443D01*
X202562000Y-103866557D01*
X202596073Y-103993717D01*
X202602923Y-104019283D01*
X202602926Y-104019290D01*
X202681975Y-104156209D01*
X202681979Y-104156214D01*
X202681980Y-104156216D01*
X202793784Y-104268020D01*
X202793786Y-104268021D01*
X202793790Y-104268024D01*
X202930709Y-104347073D01*
X202930716Y-104347077D01*
X203083443Y-104388000D01*
X203083445Y-104388000D01*
X203241555Y-104388000D01*
X203241557Y-104388000D01*
X203394284Y-104347077D01*
X203531216Y-104268020D01*
X203643020Y-104156216D01*
X203722077Y-104019284D01*
X203763000Y-103866557D01*
X203763000Y-103744398D01*
X203782685Y-103677359D01*
X203799319Y-103656717D01*
X209985094Y-97470943D01*
X218799500Y-97470943D01*
X218799500Y-97629056D01*
X218840423Y-97781783D01*
X218840426Y-97781790D01*
X218919475Y-97918709D01*
X218919479Y-97918714D01*
X218919480Y-97918716D01*
X219031284Y-98030520D01*
X219031286Y-98030521D01*
X219031290Y-98030524D01*
X219168209Y-98109573D01*
X219168216Y-98109577D01*
X219320943Y-98150500D01*
X219320945Y-98150500D01*
X219479055Y-98150500D01*
X219479057Y-98150500D01*
X219631784Y-98109577D01*
X219768716Y-98030520D01*
X219837417Y-97961819D01*
X219898740Y-97928334D01*
X219925098Y-97925500D01*
X221099435Y-97925500D01*
X221099436Y-97925500D01*
X221147186Y-97912705D01*
X221194938Y-97899910D01*
X221280562Y-97850475D01*
X221350475Y-97780562D01*
X221350474Y-97780562D01*
X221409043Y-97721993D01*
X221409042Y-97721993D01*
X223981719Y-95149319D01*
X224043042Y-95115834D01*
X224069400Y-95113000D01*
X224380513Y-95113000D01*
X224447552Y-95132685D01*
X224454766Y-95137757D01*
X224455184Y-95137998D01*
X224455186Y-95138000D01*
X224569314Y-95203892D01*
X224696608Y-95238000D01*
X224696610Y-95238000D01*
X224828390Y-95238000D01*
X224828392Y-95238000D01*
X224955686Y-95203892D01*
X225069814Y-95138000D01*
X225163000Y-95044814D01*
X225228892Y-94930686D01*
X225263000Y-94803392D01*
X225263000Y-94671608D01*
X225228892Y-94544314D01*
X225228890Y-94544310D01*
X225227268Y-94541500D01*
X225226619Y-94538826D01*
X225225780Y-94536800D01*
X225226096Y-94536669D01*
X225210795Y-94473599D01*
X225233648Y-94407573D01*
X225288569Y-94364382D01*
X225334655Y-94355500D01*
X228173101Y-94355500D01*
X228240140Y-94375185D01*
X228260782Y-94391819D01*
X232823525Y-98954562D01*
X232893438Y-99024475D01*
X232913816Y-99036240D01*
X232939496Y-99055945D01*
X233144053Y-99260503D01*
X233148170Y-99264823D01*
X233157111Y-99274669D01*
X233175525Y-99306562D01*
X233175526Y-99306563D01*
X233290292Y-99421329D01*
X233292298Y-99423538D01*
X233306296Y-99452394D01*
X233321666Y-99480541D01*
X233322154Y-99485082D01*
X233322794Y-99486401D01*
X233322531Y-99488588D01*
X233324500Y-99506899D01*
X233324500Y-99518013D01*
X233315188Y-99549724D01*
X233314462Y-99555772D01*
X233312834Y-99557741D01*
X233304815Y-99585052D01*
X233299742Y-99592266D01*
X233233608Y-99706812D01*
X233199500Y-99834108D01*
X233199500Y-99965891D01*
X233233608Y-100093187D01*
X233266554Y-100150250D01*
X233299500Y-100207314D01*
X233392686Y-100300500D01*
X233506814Y-100366392D01*
X233634108Y-100400500D01*
X233634110Y-100400500D01*
X233765890Y-100400500D01*
X233765892Y-100400500D01*
X233893186Y-100366392D01*
X234007314Y-100300500D01*
X234100500Y-100207314D01*
X234166392Y-100093186D01*
X234200500Y-99965892D01*
X234200500Y-99834108D01*
X234166392Y-99706814D01*
X234100500Y-99592686D01*
X234100498Y-99592684D01*
X234096436Y-99585648D01*
X234097786Y-99584868D01*
X234075930Y-99528329D01*
X234075500Y-99518013D01*
X234075500Y-99250566D01*
X234075500Y-99250565D01*
X234067561Y-99220938D01*
X234049910Y-99155063D01*
X234049910Y-99155062D01*
X234003057Y-99073910D01*
X234000475Y-99069437D01*
X233807944Y-98876907D01*
X233788241Y-98851229D01*
X233776475Y-98830849D01*
X233776473Y-98830847D01*
X233377330Y-98431705D01*
X233369151Y-98423526D01*
X233369150Y-98423525D01*
X233344694Y-98409405D01*
X233340814Y-98406754D01*
X233338394Y-98403797D01*
X233323090Y-98392053D01*
X228610563Y-93679526D01*
X228610562Y-93679525D01*
X228547882Y-93643337D01*
X228524940Y-93630091D01*
X228524939Y-93630090D01*
X228524938Y-93630090D01*
X228477186Y-93617295D01*
X228477184Y-93617294D01*
X228477182Y-93617293D01*
X228429436Y-93604500D01*
X228429435Y-93604500D01*
X221236899Y-93604500D01*
X221207458Y-93595855D01*
X221177472Y-93589332D01*
X221172456Y-93585577D01*
X221169860Y-93584815D01*
X221149218Y-93568181D01*
X221111819Y-93530782D01*
X221078334Y-93469459D01*
X221075500Y-93443101D01*
X221075500Y-93345945D01*
X221075500Y-93345943D01*
X221034577Y-93193216D01*
X220991276Y-93118216D01*
X220955524Y-93056290D01*
X220955518Y-93056282D01*
X220843717Y-92944481D01*
X220843709Y-92944475D01*
X220706790Y-92865426D01*
X220706786Y-92865424D01*
X220706784Y-92865423D01*
X220554057Y-92824500D01*
X220395943Y-92824500D01*
X220243216Y-92865423D01*
X220243209Y-92865426D01*
X220106290Y-92944475D01*
X220106282Y-92944481D01*
X219994481Y-93056282D01*
X219994475Y-93056290D01*
X219915426Y-93193209D01*
X219915423Y-93193216D01*
X219874500Y-93345943D01*
X219874500Y-93504057D01*
X219913630Y-93650090D01*
X219915423Y-93656783D01*
X219915426Y-93656790D01*
X219994475Y-93793709D01*
X219994479Y-93793714D01*
X219994480Y-93793716D01*
X220106284Y-93905520D01*
X220106286Y-93905521D01*
X220106290Y-93905524D01*
X220243209Y-93984573D01*
X220243216Y-93984577D01*
X220395943Y-94025500D01*
X220493101Y-94025500D01*
X220560140Y-94045185D01*
X220580782Y-94061819D01*
X220799438Y-94280475D01*
X220885063Y-94329911D01*
X220980564Y-94355500D01*
X220980565Y-94355500D01*
X223414100Y-94355500D01*
X223481139Y-94375185D01*
X223526894Y-94427989D01*
X223536838Y-94497147D01*
X223507813Y-94560703D01*
X223501781Y-94567181D01*
X220930782Y-97138181D01*
X220869459Y-97171666D01*
X220843101Y-97174500D01*
X219925098Y-97174500D01*
X219858059Y-97154815D01*
X219837417Y-97138181D01*
X219768717Y-97069481D01*
X219768709Y-97069475D01*
X219631790Y-96990426D01*
X219631786Y-96990424D01*
X219631784Y-96990423D01*
X219479057Y-96949500D01*
X219320943Y-96949500D01*
X219168216Y-96990423D01*
X219168209Y-96990426D01*
X219031290Y-97069475D01*
X219031282Y-97069481D01*
X218919481Y-97181282D01*
X218919475Y-97181290D01*
X218840426Y-97318209D01*
X218840423Y-97318216D01*
X218799500Y-97470943D01*
X209985094Y-97470943D01*
X210080902Y-97375135D01*
X211544218Y-95911819D01*
X211605541Y-95878334D01*
X211631899Y-95875500D01*
X213224902Y-95875500D01*
X213291941Y-95895185D01*
X213312583Y-95911819D01*
X213381284Y-95980520D01*
X213381286Y-95980521D01*
X213381290Y-95980524D01*
X213479587Y-96037275D01*
X213518216Y-96059577D01*
X213670943Y-96100500D01*
X213670945Y-96100500D01*
X213829055Y-96100500D01*
X213829057Y-96100500D01*
X213981784Y-96059577D01*
X214118716Y-95980520D01*
X214230520Y-95868716D01*
X214309577Y-95731784D01*
X214350500Y-95579057D01*
X214350500Y-95420943D01*
X214309577Y-95268216D01*
X214292132Y-95238000D01*
X214230524Y-95131290D01*
X214230518Y-95131282D01*
X214118717Y-95019481D01*
X214118709Y-95019475D01*
X213981790Y-94940426D01*
X213981786Y-94940424D01*
X213981784Y-94940423D01*
X213829057Y-94899500D01*
X213670943Y-94899500D01*
X213518216Y-94940423D01*
X213518209Y-94940426D01*
X213381290Y-95019475D01*
X213381282Y-95019481D01*
X213312583Y-95088181D01*
X213251260Y-95121666D01*
X213224902Y-95124500D01*
X211375559Y-95124500D01*
X211318466Y-95139798D01*
X211248617Y-95138134D01*
X211190755Y-95098971D01*
X211163252Y-95034742D01*
X211174839Y-94965840D01*
X211198691Y-94932345D01*
X211719218Y-94411819D01*
X211780541Y-94378334D01*
X211806899Y-94375500D01*
X213224902Y-94375500D01*
X213291941Y-94395185D01*
X213312583Y-94411819D01*
X213381284Y-94480520D01*
X213381286Y-94480521D01*
X213381290Y-94480524D01*
X213491774Y-94544311D01*
X213518216Y-94559577D01*
X213670943Y-94600500D01*
X213670945Y-94600500D01*
X213829055Y-94600500D01*
X213829057Y-94600500D01*
X213981784Y-94559577D01*
X214118716Y-94480520D01*
X214230520Y-94368716D01*
X214309577Y-94231784D01*
X214350500Y-94079057D01*
X214350500Y-93920943D01*
X214309577Y-93768216D01*
X214269919Y-93699525D01*
X214230524Y-93631290D01*
X214230518Y-93631282D01*
X214118717Y-93519481D01*
X214118709Y-93519475D01*
X213981790Y-93440426D01*
X213981786Y-93440424D01*
X213981784Y-93440423D01*
X213829057Y-93399500D01*
X213670943Y-93399500D01*
X213518216Y-93440423D01*
X213518209Y-93440426D01*
X213381290Y-93519475D01*
X213381282Y-93519481D01*
X213312583Y-93588181D01*
X213251260Y-93621666D01*
X213224902Y-93624500D01*
X211605900Y-93624500D01*
X211538861Y-93604815D01*
X211493106Y-93552011D01*
X211483162Y-93482853D01*
X211512187Y-93419297D01*
X211518219Y-93412819D01*
X212019219Y-92911819D01*
X212080542Y-92878334D01*
X212106900Y-92875500D01*
X213224902Y-92875500D01*
X213291941Y-92895185D01*
X213312583Y-92911819D01*
X213381284Y-92980520D01*
X213381286Y-92980521D01*
X213381290Y-92980524D01*
X213512509Y-93056282D01*
X213518216Y-93059577D01*
X213670943Y-93100500D01*
X213670945Y-93100500D01*
X213829055Y-93100500D01*
X213829057Y-93100500D01*
X213981784Y-93059577D01*
X214118716Y-92980520D01*
X214230520Y-92868716D01*
X214309577Y-92731784D01*
X214350500Y-92579057D01*
X214350500Y-92420943D01*
X214347344Y-92409164D01*
X214349005Y-92339317D01*
X214388166Y-92281454D01*
X214452394Y-92253948D01*
X214521297Y-92265533D01*
X214529116Y-92269682D01*
X214598216Y-92309577D01*
X214750943Y-92350500D01*
X214750945Y-92350500D01*
X214909055Y-92350500D01*
X214909057Y-92350500D01*
X215061784Y-92309577D01*
X215198716Y-92230520D01*
X215310520Y-92118716D01*
X215389577Y-91981784D01*
X215430500Y-91829057D01*
X215430500Y-91670943D01*
X215389577Y-91518216D01*
X215383713Y-91508059D01*
X215310524Y-91381290D01*
X215310518Y-91381282D01*
X215198717Y-91269481D01*
X215198709Y-91269475D01*
X215061790Y-91190426D01*
X215061786Y-91190424D01*
X215061784Y-91190423D01*
X214909057Y-91149500D01*
X214750943Y-91149500D01*
X214598216Y-91190423D01*
X214598209Y-91190426D01*
X214461290Y-91269475D01*
X214461282Y-91269481D01*
X214392583Y-91338181D01*
X214331260Y-91371666D01*
X214304902Y-91374500D01*
X211500564Y-91374500D01*
X211452812Y-91387295D01*
X211452811Y-91387294D01*
X211405063Y-91400089D01*
X211405062Y-91400089D01*
X211319435Y-91449527D01*
X210412181Y-92356782D01*
X210350858Y-92390267D01*
X210281166Y-92385283D01*
X210225233Y-92343411D01*
X210200816Y-92277947D01*
X210200500Y-92269101D01*
X210200500Y-91575098D01*
X210220185Y-91508059D01*
X210236819Y-91487417D01*
X210268879Y-91455357D01*
X210305520Y-91418716D01*
X210384577Y-91281784D01*
X210425500Y-91129057D01*
X210425500Y-90970943D01*
X210384577Y-90818216D01*
X210354294Y-90765764D01*
X210305524Y-90681290D01*
X210305518Y-90681282D01*
X210193717Y-90569481D01*
X210193709Y-90569475D01*
X210056790Y-90490426D01*
X210056786Y-90490424D01*
X210056784Y-90490423D01*
X209904057Y-90449500D01*
X209745943Y-90449500D01*
X209593216Y-90490423D01*
X209593209Y-90490426D01*
X209456290Y-90569475D01*
X209456282Y-90569481D01*
X209344481Y-90681282D01*
X209344475Y-90681290D01*
X209265426Y-90818209D01*
X209265423Y-90818216D01*
X209224500Y-90970943D01*
X209224500Y-91129057D01*
X209263044Y-91272903D01*
X209265423Y-91281783D01*
X209265426Y-91281790D01*
X209344475Y-91418709D01*
X209344481Y-91418717D01*
X209413181Y-91487417D01*
X209446666Y-91548740D01*
X209449500Y-91575098D01*
X209449500Y-92168101D01*
X209429815Y-92235140D01*
X209413181Y-92255782D01*
X207566931Y-94102032D01*
X207505608Y-94135517D01*
X207435916Y-94130533D01*
X207379983Y-94088661D01*
X207355566Y-94023197D01*
X207355250Y-94014351D01*
X207355250Y-93628362D01*
X207362917Y-93589822D01*
X207362223Y-93589636D01*
X207367972Y-93568181D01*
X207405250Y-93429057D01*
X207405250Y-93270943D01*
X207364327Y-93118216D01*
X207364326Y-93118214D01*
X207362223Y-93110365D01*
X207362915Y-93110179D01*
X207355250Y-93071637D01*
X207355250Y-85278362D01*
X207362917Y-85239822D01*
X207362223Y-85239636D01*
X207364461Y-85231284D01*
X207405250Y-85079057D01*
X207405250Y-84920943D01*
X207364327Y-84768216D01*
X207364326Y-84768214D01*
X207362223Y-84760365D01*
X207362915Y-84760179D01*
X207355250Y-84721637D01*
X207355250Y-84278362D01*
X207362917Y-84239822D01*
X207362223Y-84239636D01*
X207364805Y-84229999D01*
X207405250Y-84079057D01*
X207405250Y-83920943D01*
X207364327Y-83768216D01*
X207343008Y-83731290D01*
X207285274Y-83631290D01*
X207285268Y-83631282D01*
X207173467Y-83519481D01*
X207173459Y-83519475D01*
X207036540Y-83440426D01*
X207036536Y-83440424D01*
X207036534Y-83440423D01*
X206883807Y-83399500D01*
X206725693Y-83399500D01*
X206572966Y-83440423D01*
X206572959Y-83440426D01*
X206436040Y-83519475D01*
X206436032Y-83519481D01*
X206324231Y-83631282D01*
X206324225Y-83631290D01*
X206245176Y-83768209D01*
X206245173Y-83768216D01*
X206204250Y-83920943D01*
X206204250Y-84079057D01*
X206244695Y-84229999D01*
X206247277Y-84239636D01*
X206246582Y-84239822D01*
X206254250Y-84278362D01*
X206254250Y-84721637D01*
X206246584Y-84760179D01*
X206247277Y-84760365D01*
X206245173Y-84768214D01*
X206245173Y-84768216D01*
X206204250Y-84920943D01*
X206204250Y-85079057D01*
X206245039Y-85231284D01*
X206247277Y-85239636D01*
X206246582Y-85239822D01*
X206254250Y-85278362D01*
X206254250Y-93071637D01*
X206246584Y-93110179D01*
X206247277Y-93110365D01*
X206245173Y-93118214D01*
X206245173Y-93118216D01*
X206204250Y-93270943D01*
X206204250Y-93429057D01*
X206228479Y-93519480D01*
X206247277Y-93589636D01*
X206246582Y-93589822D01*
X206254250Y-93628362D01*
X206254250Y-94021637D01*
X206246584Y-94060179D01*
X206247277Y-94060365D01*
X206245173Y-94068214D01*
X206245173Y-94068216D01*
X206242268Y-94079057D01*
X206204250Y-94220943D01*
X206204250Y-94318101D01*
X206184565Y-94385140D01*
X206167931Y-94405782D01*
X205985532Y-94588181D01*
X205924209Y-94621666D01*
X205897851Y-94624500D01*
X197450564Y-94624500D01*
X197402812Y-94637295D01*
X197402811Y-94637295D01*
X197371792Y-94645606D01*
X197337184Y-94647876D01*
X197337184Y-94649500D01*
X197170943Y-94649500D01*
X197018216Y-94690423D01*
X197018209Y-94690426D01*
X196881290Y-94769475D01*
X196881282Y-94769481D01*
X196769481Y-94881282D01*
X196769475Y-94881290D01*
X196690426Y-95018209D01*
X196690423Y-95018216D01*
X196649500Y-95170943D01*
X192746226Y-95170943D01*
X192746226Y-91969999D01*
X194928392Y-91969999D01*
X194928393Y-91970000D01*
X195403442Y-91970000D01*
X195383694Y-92004204D01*
X195363250Y-92080504D01*
X195363250Y-92159496D01*
X195383694Y-92235796D01*
X195403442Y-92270000D01*
X194928393Y-92270000D01*
X194942070Y-92338761D01*
X194942072Y-92338767D01*
X194998607Y-92475254D01*
X194998612Y-92475264D01*
X195080686Y-92598096D01*
X195080689Y-92598100D01*
X195185149Y-92702560D01*
X195185153Y-92702563D01*
X195307985Y-92784637D01*
X195307995Y-92784642D01*
X195444482Y-92841177D01*
X195444490Y-92841179D01*
X195589376Y-92869999D01*
X195589379Y-92870000D01*
X195813250Y-92870000D01*
X195813250Y-92420000D01*
X196113250Y-92420000D01*
X196113250Y-92870000D01*
X196337121Y-92870000D01*
X196337123Y-92869999D01*
X196482009Y-92841179D01*
X196482017Y-92841177D01*
X196618504Y-92784642D01*
X196618514Y-92784637D01*
X196741346Y-92702563D01*
X196741350Y-92702560D01*
X196845810Y-92598100D01*
X196845813Y-92598096D01*
X196927887Y-92475264D01*
X196927892Y-92475254D01*
X196984427Y-92338767D01*
X196984429Y-92338761D01*
X196998107Y-92270000D01*
X196523058Y-92270000D01*
X196542806Y-92235796D01*
X196563250Y-92159496D01*
X196563250Y-92080504D01*
X196542806Y-92004204D01*
X196523058Y-91970000D01*
X196998107Y-91970000D01*
X196998107Y-91969999D01*
X196984429Y-91901238D01*
X196984427Y-91901232D01*
X196927892Y-91764745D01*
X196927887Y-91764735D01*
X196845813Y-91641903D01*
X196845810Y-91641899D01*
X196741350Y-91537439D01*
X196741346Y-91537436D01*
X196618514Y-91455362D01*
X196618504Y-91455357D01*
X196482017Y-91398822D01*
X196482009Y-91398820D01*
X196337122Y-91370000D01*
X196113250Y-91370000D01*
X196113250Y-91820000D01*
X195813250Y-91820000D01*
X195813250Y-91370000D01*
X195589378Y-91370000D01*
X195444490Y-91398820D01*
X195444482Y-91398822D01*
X195307995Y-91455357D01*
X195307985Y-91455362D01*
X195185153Y-91537436D01*
X195185149Y-91537439D01*
X195080689Y-91641899D01*
X195080686Y-91641903D01*
X194998612Y-91764735D01*
X194998607Y-91764745D01*
X194942072Y-91901232D01*
X194942070Y-91901238D01*
X194928392Y-91969999D01*
X192746226Y-91969999D01*
X192746226Y-89701887D01*
X198841750Y-89701887D01*
X198841750Y-89860000D01*
X198882673Y-90012727D01*
X198882676Y-90012734D01*
X198961725Y-90149653D01*
X198961731Y-90149661D01*
X199079281Y-90267211D01*
X199078051Y-90268440D01*
X199113423Y-90316881D01*
X199117580Y-90386627D01*
X199104123Y-90420831D01*
X199076969Y-90467862D01*
X199037750Y-90614234D01*
X199037750Y-90765765D01*
X199076969Y-90912136D01*
X199110922Y-90970943D01*
X199152735Y-91043365D01*
X199259885Y-91150515D01*
X199322695Y-91186778D01*
X199340416Y-91197010D01*
X199388632Y-91247577D01*
X199401854Y-91316184D01*
X199375886Y-91381049D01*
X199325870Y-91418958D01*
X199237992Y-91455359D01*
X199237985Y-91455362D01*
X199115153Y-91537436D01*
X199115149Y-91537439D01*
X199010689Y-91641899D01*
X199010686Y-91641903D01*
X198928612Y-91764735D01*
X198928607Y-91764745D01*
X198872072Y-91901232D01*
X198872070Y-91901238D01*
X198858392Y-91969999D01*
X198858393Y-91970000D01*
X199333442Y-91970000D01*
X199313694Y-92004204D01*
X199293250Y-92080504D01*
X199293250Y-92159496D01*
X199313694Y-92235796D01*
X199333442Y-92270000D01*
X198858393Y-92270000D01*
X198872070Y-92338761D01*
X198872072Y-92338767D01*
X198928607Y-92475254D01*
X198928612Y-92475264D01*
X199010686Y-92598096D01*
X199010689Y-92598100D01*
X199115149Y-92702560D01*
X199115153Y-92702563D01*
X199237985Y-92784637D01*
X199237995Y-92784642D01*
X199374482Y-92841177D01*
X199374490Y-92841179D01*
X199519376Y-92869999D01*
X199519379Y-92870000D01*
X199993250Y-92870000D01*
X199993250Y-92420000D01*
X200293250Y-92420000D01*
X200293250Y-92870000D01*
X200767121Y-92870000D01*
X200767123Y-92869999D01*
X200912009Y-92841179D01*
X200912017Y-92841177D01*
X201048504Y-92784642D01*
X201048514Y-92784637D01*
X201171346Y-92702563D01*
X201171350Y-92702560D01*
X201275810Y-92598100D01*
X201275813Y-92598096D01*
X201357887Y-92475264D01*
X201357892Y-92475254D01*
X201414427Y-92338767D01*
X201414429Y-92338761D01*
X201428107Y-92270000D01*
X200953058Y-92270000D01*
X200972806Y-92235796D01*
X200993250Y-92159496D01*
X200993250Y-92080504D01*
X200972806Y-92004204D01*
X200953058Y-91970000D01*
X201428107Y-91970000D01*
X201428107Y-91969999D01*
X201414429Y-91901238D01*
X201414427Y-91901232D01*
X201357892Y-91764745D01*
X201357887Y-91764735D01*
X201275813Y-91641903D01*
X201275810Y-91641899D01*
X201171350Y-91537439D01*
X201171346Y-91537436D01*
X201048514Y-91455362D01*
X201048504Y-91455357D01*
X200912017Y-91398822D01*
X200912009Y-91398820D01*
X200767122Y-91370000D01*
X200293250Y-91370000D01*
X200293250Y-91820000D01*
X199993250Y-91820000D01*
X199993250Y-91370000D01*
X199957476Y-91334226D01*
X199923991Y-91272903D01*
X199928975Y-91203211D01*
X199962491Y-91157885D01*
X199960868Y-91156262D01*
X199988075Y-91129055D01*
X200073765Y-91043365D01*
X200149531Y-90912135D01*
X200188750Y-90765766D01*
X200188750Y-90614234D01*
X200149531Y-90467865D01*
X200073765Y-90336635D01*
X199976880Y-90239750D01*
X199943395Y-90178427D01*
X199948379Y-90108735D01*
X199957171Y-90090074D01*
X200001827Y-90012728D01*
X200042750Y-89860001D01*
X200042750Y-89701887D01*
X200001827Y-89549160D01*
X200001826Y-89549158D01*
X199999723Y-89541309D01*
X200000415Y-89541123D01*
X199992750Y-89502581D01*
X199992750Y-86215261D01*
X200009363Y-86153261D01*
X200050630Y-86081784D01*
X200091553Y-85929057D01*
X200091553Y-85770943D01*
X200050630Y-85618216D01*
X199976786Y-85490314D01*
X199960315Y-85422415D01*
X199983168Y-85356388D01*
X199996483Y-85340646D01*
X200073765Y-85263365D01*
X200149531Y-85132135D01*
X200188750Y-84985766D01*
X200188750Y-84834234D01*
X200149531Y-84687865D01*
X200073765Y-84556635D01*
X199966615Y-84449485D01*
X199960868Y-84443738D01*
X199962539Y-84442066D01*
X199928466Y-84395397D01*
X199924314Y-84325651D01*
X199957476Y-84265772D01*
X199993250Y-84229998D01*
X199993250Y-83780000D01*
X200293250Y-83780000D01*
X200293250Y-84230000D01*
X200767121Y-84230000D01*
X200767123Y-84229999D01*
X200912009Y-84201179D01*
X200912017Y-84201177D01*
X201048504Y-84144642D01*
X201048514Y-84144637D01*
X201171346Y-84062563D01*
X201171350Y-84062560D01*
X201275810Y-83958100D01*
X201275813Y-83958096D01*
X201357887Y-83835264D01*
X201357892Y-83835254D01*
X201414427Y-83698767D01*
X201414429Y-83698761D01*
X201428107Y-83630000D01*
X200953058Y-83630000D01*
X200972806Y-83595796D01*
X200993250Y-83519496D01*
X200993250Y-83440504D01*
X200972806Y-83364204D01*
X200953058Y-83330000D01*
X201428107Y-83330000D01*
X201428107Y-83329999D01*
X201414429Y-83261238D01*
X201414427Y-83261232D01*
X201357892Y-83124745D01*
X201357887Y-83124735D01*
X201275813Y-83001903D01*
X201275810Y-83001899D01*
X201171350Y-82897439D01*
X201171346Y-82897436D01*
X201048514Y-82815362D01*
X201048504Y-82815357D01*
X200912017Y-82758822D01*
X200912009Y-82758820D01*
X200767122Y-82730000D01*
X200293250Y-82730000D01*
X200293250Y-83180000D01*
X199993250Y-83180000D01*
X199993250Y-82730000D01*
X199519378Y-82730000D01*
X199374490Y-82758820D01*
X199374482Y-82758822D01*
X199237995Y-82815357D01*
X199237985Y-82815362D01*
X199115153Y-82897436D01*
X199115149Y-82897439D01*
X199010689Y-83001899D01*
X199010686Y-83001903D01*
X198928612Y-83124735D01*
X198928607Y-83124745D01*
X198872072Y-83261232D01*
X198872070Y-83261238D01*
X198858392Y-83329999D01*
X198858393Y-83330000D01*
X199333442Y-83330000D01*
X199313694Y-83364204D01*
X199293250Y-83440504D01*
X199293250Y-83519496D01*
X199313694Y-83595796D01*
X199333442Y-83630000D01*
X198858393Y-83630000D01*
X198872070Y-83698761D01*
X198872072Y-83698767D01*
X198928607Y-83835254D01*
X198928612Y-83835264D01*
X199010686Y-83958096D01*
X199010689Y-83958100D01*
X199115149Y-84062560D01*
X199115153Y-84062563D01*
X199237985Y-84144637D01*
X199237994Y-84144642D01*
X199325869Y-84181041D01*
X199380272Y-84224882D01*
X199402337Y-84291176D01*
X199385058Y-84358875D01*
X199340417Y-84402988D01*
X199259891Y-84449480D01*
X199259882Y-84449487D01*
X199152737Y-84556632D01*
X199152735Y-84556635D01*
X199076969Y-84687863D01*
X199057543Y-84760365D01*
X199037750Y-84834234D01*
X199037750Y-84985766D01*
X199076969Y-85132135D01*
X199132875Y-85228967D01*
X199149348Y-85296865D01*
X199126496Y-85362892D01*
X199113170Y-85378647D01*
X199010531Y-85481286D01*
X199010528Y-85481290D01*
X198931479Y-85618209D01*
X198931476Y-85618216D01*
X198890553Y-85770943D01*
X198890553Y-85929057D01*
X198890554Y-85929060D01*
X198890689Y-85930086D01*
X198891750Y-85946275D01*
X198891750Y-89502581D01*
X198884084Y-89541123D01*
X198884777Y-89541309D01*
X198841750Y-89701887D01*
X192746226Y-89701887D01*
X192746226Y-83329999D01*
X194928392Y-83329999D01*
X194928393Y-83330000D01*
X195403442Y-83330000D01*
X195383694Y-83364204D01*
X195363250Y-83440504D01*
X195363250Y-83519496D01*
X195383694Y-83595796D01*
X195403442Y-83630000D01*
X194928393Y-83630000D01*
X194942070Y-83698761D01*
X194942072Y-83698767D01*
X194998607Y-83835254D01*
X194998612Y-83835264D01*
X195080686Y-83958096D01*
X195080689Y-83958100D01*
X195185149Y-84062560D01*
X195185153Y-84062563D01*
X195307985Y-84144637D01*
X195307995Y-84144642D01*
X195444482Y-84201177D01*
X195444490Y-84201179D01*
X195589376Y-84229999D01*
X195589379Y-84230000D01*
X195813250Y-84230000D01*
X195813250Y-83780000D01*
X196113250Y-83780000D01*
X196113250Y-84230000D01*
X196337121Y-84230000D01*
X196337123Y-84229999D01*
X196482009Y-84201179D01*
X196482017Y-84201177D01*
X196618504Y-84144642D01*
X196618514Y-84144637D01*
X196741346Y-84062563D01*
X196741350Y-84062560D01*
X196845810Y-83958100D01*
X196845813Y-83958096D01*
X196927887Y-83835264D01*
X196927892Y-83835254D01*
X196984427Y-83698767D01*
X196984429Y-83698761D01*
X196998107Y-83630000D01*
X196523058Y-83630000D01*
X196542806Y-83595796D01*
X196563250Y-83519496D01*
X196563250Y-83440504D01*
X196542806Y-83364204D01*
X196523058Y-83330000D01*
X196998107Y-83330000D01*
X196998107Y-83329999D01*
X196984429Y-83261238D01*
X196984427Y-83261232D01*
X196927892Y-83124745D01*
X196927887Y-83124735D01*
X196845813Y-83001903D01*
X196845810Y-83001899D01*
X196741350Y-82897439D01*
X196741346Y-82897436D01*
X196618514Y-82815362D01*
X196618504Y-82815357D01*
X196482017Y-82758822D01*
X196482009Y-82758820D01*
X196337122Y-82730000D01*
X196113250Y-82730000D01*
X196113250Y-83180000D01*
X195813250Y-83180000D01*
X195813250Y-82730000D01*
X195589378Y-82730000D01*
X195444490Y-82758820D01*
X195444482Y-82758822D01*
X195307995Y-82815357D01*
X195307985Y-82815362D01*
X195185153Y-82897436D01*
X195185149Y-82897439D01*
X195080689Y-83001899D01*
X195080686Y-83001903D01*
X194998612Y-83124735D01*
X194998607Y-83124745D01*
X194942072Y-83261232D01*
X194942070Y-83261238D01*
X194928392Y-83329999D01*
X192746226Y-83329999D01*
X192746226Y-67120943D01*
X195999500Y-67120943D01*
X195999500Y-67279056D01*
X196040423Y-67431783D01*
X196040426Y-67431790D01*
X196119475Y-67568709D01*
X196119479Y-67568714D01*
X196119480Y-67568716D01*
X196231284Y-67680520D01*
X196231286Y-67680521D01*
X196231290Y-67680524D01*
X196360392Y-67755060D01*
X196368216Y-67759577D01*
X196520943Y-67800500D01*
X196618101Y-67800500D01*
X196685140Y-67820185D01*
X196705782Y-67836819D01*
X196888181Y-68019218D01*
X196921666Y-68080541D01*
X196924500Y-68106899D01*
X196924500Y-76164023D01*
X196950090Y-76259526D01*
X196999525Y-76345150D01*
X196999526Y-76345151D01*
X197954849Y-77300475D01*
X197954850Y-77300476D01*
X197954852Y-77300477D01*
X197987758Y-77319475D01*
X198040475Y-77349911D01*
X198135976Y-77375500D01*
X198135977Y-77375500D01*
X200793101Y-77375500D01*
X200860140Y-77395185D01*
X200880782Y-77411819D01*
X204569438Y-81100475D01*
X204655063Y-81149911D01*
X204750564Y-81175500D01*
X204750565Y-81175500D01*
X206062372Y-81175500D01*
X206129411Y-81195185D01*
X206150053Y-81211819D01*
X206228864Y-81290630D01*
X206228866Y-81290631D01*
X206228870Y-81290634D01*
X206365789Y-81369683D01*
X206365796Y-81369687D01*
X206518523Y-81410610D01*
X206518525Y-81410610D01*
X206676635Y-81410610D01*
X206676637Y-81410610D01*
X206829364Y-81369687D01*
X206966296Y-81290630D01*
X207078100Y-81178826D01*
X207157157Y-81041894D01*
X207198080Y-80889167D01*
X207198080Y-80731053D01*
X207157157Y-80578326D01*
X207096878Y-80473918D01*
X207078104Y-80441400D01*
X207078098Y-80441392D01*
X206966297Y-80329591D01*
X206966289Y-80329585D01*
X206829370Y-80250536D01*
X206829366Y-80250534D01*
X206829364Y-80250533D01*
X206676637Y-80209610D01*
X206518523Y-80209610D01*
X206365796Y-80250533D01*
X206365789Y-80250536D01*
X206228870Y-80329585D01*
X206228862Y-80329591D01*
X206170273Y-80388181D01*
X206108950Y-80421666D01*
X206082592Y-80424500D01*
X205006899Y-80424500D01*
X204939860Y-80404815D01*
X204919218Y-80388181D01*
X203804957Y-79273920D01*
X211349499Y-79273920D01*
X211378340Y-79418907D01*
X211378343Y-79418917D01*
X211434912Y-79555488D01*
X211434919Y-79555501D01*
X211517048Y-79678415D01*
X211517051Y-79678419D01*
X211621580Y-79782948D01*
X211621584Y-79782951D01*
X211744498Y-79865080D01*
X211744511Y-79865087D01*
X211880899Y-79921580D01*
X211881087Y-79921658D01*
X211881091Y-79921658D01*
X211881092Y-79921659D01*
X212026079Y-79950500D01*
X212026082Y-79950500D01*
X212173920Y-79950500D01*
X212271462Y-79931096D01*
X212318913Y-79921658D01*
X212455495Y-79865084D01*
X212578416Y-79782951D01*
X212682951Y-79678416D01*
X212748303Y-79580608D01*
X212776089Y-79557386D01*
X212801893Y-79535814D01*
X212801905Y-79535811D01*
X212801914Y-79535804D01*
X212835928Y-79526470D01*
X212843638Y-79525500D01*
X212906861Y-79525500D01*
X212954611Y-79512705D01*
X213002363Y-79499910D01*
X213087987Y-79450475D01*
X213157900Y-79380562D01*
X213512819Y-79025643D01*
X213574142Y-78992158D01*
X213643834Y-78997142D01*
X213699767Y-79039014D01*
X213724184Y-79104478D01*
X213724500Y-79113324D01*
X213724500Y-83174902D01*
X213704815Y-83241941D01*
X213688181Y-83262583D01*
X213619481Y-83331282D01*
X213619475Y-83331290D01*
X213540426Y-83468209D01*
X213540423Y-83468216D01*
X213499500Y-83620943D01*
X213499500Y-83779056D01*
X213540423Y-83931783D01*
X213540426Y-83931790D01*
X213619475Y-84068709D01*
X213619479Y-84068714D01*
X213619480Y-84068716D01*
X213731284Y-84180520D01*
X213731286Y-84180521D01*
X213731290Y-84180524D01*
X213833677Y-84239636D01*
X213868216Y-84259577D01*
X214020943Y-84300500D01*
X214020945Y-84300500D01*
X214179055Y-84300500D01*
X214179057Y-84300500D01*
X214331784Y-84259577D01*
X214468716Y-84180520D01*
X214580520Y-84068716D01*
X214659577Y-83931784D01*
X214700500Y-83779057D01*
X214700500Y-83620943D01*
X214659577Y-83468216D01*
X214644902Y-83442798D01*
X214580524Y-83331290D01*
X214580518Y-83331282D01*
X214511819Y-83262583D01*
X214478334Y-83201260D01*
X214475500Y-83174902D01*
X214475500Y-82070943D01*
X221699500Y-82070943D01*
X221699500Y-82229057D01*
X221740176Y-82380860D01*
X221740423Y-82381783D01*
X221740426Y-82381790D01*
X221819475Y-82518709D01*
X221819479Y-82518714D01*
X221819480Y-82518716D01*
X221931284Y-82630520D01*
X221931286Y-82630521D01*
X221931290Y-82630524D01*
X222038797Y-82692592D01*
X222068216Y-82709577D01*
X222220943Y-82750500D01*
X222220945Y-82750500D01*
X222284452Y-82750500D01*
X222351491Y-82770185D01*
X222397246Y-82822989D01*
X222408452Y-82874500D01*
X222408452Y-82921355D01*
X222428691Y-82996886D01*
X222449375Y-83074081D01*
X222449378Y-83074088D01*
X222528427Y-83211007D01*
X222528431Y-83211012D01*
X222528432Y-83211014D01*
X222640236Y-83322818D01*
X222640238Y-83322819D01*
X222640242Y-83322822D01*
X222773054Y-83399500D01*
X222777168Y-83401875D01*
X222929895Y-83442798D01*
X222929897Y-83442798D01*
X223088007Y-83442798D01*
X223088009Y-83442798D01*
X223240736Y-83401875D01*
X223377668Y-83322818D01*
X223489472Y-83211014D01*
X223568529Y-83074082D01*
X223609452Y-82921355D01*
X223609452Y-82763241D01*
X223589994Y-82690622D01*
X223591657Y-82620776D01*
X223630819Y-82562913D01*
X223695048Y-82535409D01*
X223763950Y-82546995D01*
X223780516Y-82556694D01*
X223789611Y-82563012D01*
X223831923Y-82605324D01*
X223941998Y-82668875D01*
X223946247Y-82671827D01*
X223965041Y-82695162D01*
X223985715Y-82716844D01*
X223987099Y-82722549D01*
X223990073Y-82726242D01*
X223991719Y-82741594D01*
X223999500Y-82773665D01*
X223999500Y-85757251D01*
X224017760Y-85825400D01*
X224020481Y-85866882D01*
X224020750Y-85866882D01*
X224020750Y-85870979D01*
X224020926Y-85873662D01*
X224020750Y-85875000D01*
X224020750Y-85875008D01*
X224020750Y-86033122D01*
X224060652Y-86182036D01*
X224061673Y-86185848D01*
X224061676Y-86185855D01*
X224140725Y-86322774D01*
X224140729Y-86322779D01*
X224140730Y-86322781D01*
X224252534Y-86434585D01*
X224252536Y-86434586D01*
X224252540Y-86434589D01*
X224389459Y-86513638D01*
X224389466Y-86513642D01*
X224542193Y-86554565D01*
X224542195Y-86554565D01*
X224700305Y-86554565D01*
X224700307Y-86554565D01*
X224853034Y-86513642D01*
X224989966Y-86434585D01*
X225101770Y-86322781D01*
X225180827Y-86185849D01*
X225221750Y-86033122D01*
X225221750Y-85875008D01*
X225180827Y-85722281D01*
X225120742Y-85618209D01*
X225101774Y-85585355D01*
X225101768Y-85585347D01*
X225037364Y-85520943D01*
X231499500Y-85520943D01*
X231499500Y-85679057D01*
X231538713Y-85825400D01*
X231540423Y-85831783D01*
X231540426Y-85831790D01*
X231619475Y-85968709D01*
X231619479Y-85968714D01*
X231619480Y-85968716D01*
X231731284Y-86080520D01*
X231731286Y-86080521D01*
X231731290Y-86080524D01*
X231857276Y-86153261D01*
X231868216Y-86159577D01*
X232020943Y-86200500D01*
X232020945Y-86200500D01*
X232179055Y-86200500D01*
X232179057Y-86200500D01*
X232331784Y-86159577D01*
X232468716Y-86080520D01*
X232580520Y-85968716D01*
X232587174Y-85957189D01*
X232598543Y-85937500D01*
X232649110Y-85889284D01*
X232705930Y-85875500D01*
X233993101Y-85875500D01*
X234060140Y-85895185D01*
X234080782Y-85911819D01*
X236563181Y-88394218D01*
X236596666Y-88455541D01*
X236599500Y-88481899D01*
X236599500Y-88579056D01*
X236640423Y-88731783D01*
X236640426Y-88731790D01*
X236719475Y-88868709D01*
X236719479Y-88868714D01*
X236719480Y-88868716D01*
X236831284Y-88980520D01*
X236831286Y-88980521D01*
X236831290Y-88980524D01*
X236968209Y-89059573D01*
X236968216Y-89059577D01*
X237120943Y-89100500D01*
X237120945Y-89100500D01*
X237279055Y-89100500D01*
X237279057Y-89100500D01*
X237431784Y-89059577D01*
X237568716Y-88980520D01*
X237680520Y-88868716D01*
X237759577Y-88731784D01*
X237800500Y-88579057D01*
X237800500Y-88420943D01*
X237759577Y-88268216D01*
X237759573Y-88268209D01*
X237680524Y-88131290D01*
X237680518Y-88131282D01*
X237568717Y-88019481D01*
X237568709Y-88019475D01*
X237431790Y-87940426D01*
X237431786Y-87940424D01*
X237431784Y-87940423D01*
X237279057Y-87899500D01*
X237279056Y-87899500D01*
X237181900Y-87899500D01*
X237114861Y-87879815D01*
X237094219Y-87863181D01*
X234444822Y-85213785D01*
X234430563Y-85199526D01*
X234430562Y-85199525D01*
X234344938Y-85150090D01*
X234297186Y-85137295D01*
X234285099Y-85134056D01*
X234285095Y-85134054D01*
X234249436Y-85124500D01*
X234249435Y-85124500D01*
X232510637Y-85124500D01*
X232448638Y-85107888D01*
X232331784Y-85040423D01*
X232179057Y-84999500D01*
X232020943Y-84999500D01*
X231868216Y-85040423D01*
X231868209Y-85040426D01*
X231731290Y-85119475D01*
X231731282Y-85119481D01*
X231619481Y-85231282D01*
X231619475Y-85231290D01*
X231540426Y-85368209D01*
X231540423Y-85368216D01*
X231499500Y-85520943D01*
X225037364Y-85520943D01*
X224989967Y-85473546D01*
X224989959Y-85473540D01*
X224853040Y-85394491D01*
X224853037Y-85394489D01*
X224853034Y-85394488D01*
X224853030Y-85394487D01*
X224853028Y-85394486D01*
X224842401Y-85391638D01*
X224782743Y-85355271D01*
X224752216Y-85292423D01*
X224750500Y-85271865D01*
X224750500Y-82404709D01*
X224758490Y-82364540D01*
X224758112Y-82364439D01*
X224759658Y-82358668D01*
X224759939Y-82357257D01*
X224760214Y-82356591D01*
X224760213Y-82356591D01*
X224760216Y-82356588D01*
X224801139Y-82203861D01*
X224801139Y-82045747D01*
X224760216Y-81893020D01*
X224724405Y-81830993D01*
X224681163Y-81756094D01*
X224681157Y-81756086D01*
X224569356Y-81644285D01*
X224569348Y-81644279D01*
X224432429Y-81565230D01*
X224432425Y-81565228D01*
X224432424Y-81565227D01*
X224432423Y-81565227D01*
X224406929Y-81558396D01*
X224347271Y-81522031D01*
X224316743Y-81459184D01*
X224325038Y-81389808D01*
X224351342Y-81350944D01*
X225833569Y-79868718D01*
X225894892Y-79835233D01*
X225964584Y-79840217D01*
X226008931Y-79868718D01*
X226298030Y-80157817D01*
X226331515Y-80219140D01*
X226331967Y-80269688D01*
X226320750Y-80326082D01*
X226320750Y-80473918D01*
X226320750Y-80473920D01*
X226320749Y-80473920D01*
X226349590Y-80618907D01*
X226349593Y-80618917D01*
X226406162Y-80755488D01*
X226406169Y-80755501D01*
X226488298Y-80878415D01*
X226488301Y-80878419D01*
X226592830Y-80982948D01*
X226592834Y-80982951D01*
X226715748Y-81065080D01*
X226715761Y-81065087D01*
X226852332Y-81121656D01*
X226852337Y-81121658D01*
X226852341Y-81121658D01*
X226852342Y-81121659D01*
X226997329Y-81150500D01*
X226997332Y-81150500D01*
X227145170Y-81150500D01*
X227242712Y-81131096D01*
X227290163Y-81121658D01*
X227426745Y-81065084D01*
X227549666Y-80982951D01*
X227654201Y-80878416D01*
X227736334Y-80755495D01*
X227792908Y-80618913D01*
X227821750Y-80473918D01*
X227821750Y-80326082D01*
X227821750Y-80326079D01*
X227792909Y-80181092D01*
X227792908Y-80181091D01*
X227792908Y-80181087D01*
X227783269Y-80157817D01*
X227736337Y-80044511D01*
X227736330Y-80044498D01*
X227654201Y-79921584D01*
X227654198Y-79921580D01*
X227549669Y-79817051D01*
X227549665Y-79817048D01*
X227426751Y-79734919D01*
X227426742Y-79734914D01*
X227376397Y-79714061D01*
X227321994Y-79670220D01*
X227299929Y-79603926D01*
X227317208Y-79536227D01*
X227368345Y-79488616D01*
X227423850Y-79475500D01*
X229674902Y-79475500D01*
X229741941Y-79495185D01*
X229762583Y-79511819D01*
X229831284Y-79580520D01*
X229831286Y-79580521D01*
X229831290Y-79580524D01*
X229950762Y-79649500D01*
X229968216Y-79659577D01*
X230120943Y-79700500D01*
X230120945Y-79700500D01*
X230279055Y-79700500D01*
X230279057Y-79700500D01*
X230431784Y-79659577D01*
X230568716Y-79580520D01*
X230680520Y-79468716D01*
X230759577Y-79331784D01*
X230800500Y-79179057D01*
X230800500Y-79020943D01*
X230759577Y-78868216D01*
X230719919Y-78799525D01*
X230680524Y-78731290D01*
X230680518Y-78731282D01*
X230568717Y-78619481D01*
X230568709Y-78619475D01*
X230461168Y-78557387D01*
X230412952Y-78506821D01*
X230399728Y-78438214D01*
X230425696Y-78373349D01*
X230461168Y-78342613D01*
X230568709Y-78280524D01*
X230568708Y-78280524D01*
X230568716Y-78280520D01*
X230680520Y-78168716D01*
X230759577Y-78031784D01*
X230800500Y-77879057D01*
X230800500Y-77720943D01*
X230759577Y-77568216D01*
X230709391Y-77481290D01*
X230680524Y-77431290D01*
X230680518Y-77431282D01*
X230568717Y-77319481D01*
X230568709Y-77319475D01*
X230431790Y-77240426D01*
X230431786Y-77240424D01*
X230431784Y-77240423D01*
X230279057Y-77199500D01*
X230120943Y-77199500D01*
X229968216Y-77240423D01*
X229968209Y-77240426D01*
X229831290Y-77319475D01*
X229831282Y-77319481D01*
X229762583Y-77388181D01*
X229701260Y-77421666D01*
X229674902Y-77424500D01*
X227305899Y-77424500D01*
X227284657Y-77418262D01*
X227262574Y-77416685D01*
X227251785Y-77408610D01*
X227238860Y-77404815D01*
X227224364Y-77388086D01*
X227206637Y-77374818D01*
X227201926Y-77362191D01*
X227193105Y-77352011D01*
X227189954Y-77330098D01*
X227182216Y-77309355D01*
X227185078Y-77296190D01*
X227183161Y-77282853D01*
X227192359Y-77262711D01*
X227197063Y-77241081D01*
X227210337Y-77223345D01*
X227212186Y-77219297D01*
X227218195Y-77212841D01*
X227225134Y-77205902D01*
X227284370Y-77173552D01*
X227284332Y-77173426D01*
X227284938Y-77173242D01*
X227286451Y-77172416D01*
X227288581Y-77171972D01*
X227290163Y-77171658D01*
X227426745Y-77115084D01*
X227549666Y-77032951D01*
X227654201Y-76928416D01*
X227736334Y-76805495D01*
X227792908Y-76668913D01*
X227821750Y-76523918D01*
X227821750Y-76376082D01*
X227821750Y-76376079D01*
X227792909Y-76231092D01*
X227792908Y-76231091D01*
X227792908Y-76231087D01*
X227792906Y-76231082D01*
X227736337Y-76094511D01*
X227736330Y-76094498D01*
X227654201Y-75971584D01*
X227654198Y-75971580D01*
X227549669Y-75867051D01*
X227549665Y-75867048D01*
X227426751Y-75784919D01*
X227426738Y-75784912D01*
X227290167Y-75728343D01*
X227290157Y-75728340D01*
X227145170Y-75699500D01*
X227145168Y-75699500D01*
X226997332Y-75699500D01*
X226997330Y-75699500D01*
X226852342Y-75728340D01*
X226852332Y-75728343D01*
X226715761Y-75784912D01*
X226715748Y-75784919D01*
X226592834Y-75867048D01*
X226592830Y-75867051D01*
X226488301Y-75971580D01*
X226488298Y-75971584D01*
X226406169Y-76094498D01*
X226406162Y-76094511D01*
X226349593Y-76231082D01*
X226349590Y-76231092D01*
X226320750Y-76376079D01*
X226320750Y-76376082D01*
X226320750Y-76523918D01*
X226320750Y-76523920D01*
X226320749Y-76523920D01*
X226349590Y-76668907D01*
X226349593Y-76668917D01*
X226406162Y-76805488D01*
X226406169Y-76805501D01*
X226412634Y-76815176D01*
X226433512Y-76881854D01*
X226415028Y-76949234D01*
X226397213Y-76971748D01*
X225894531Y-77474431D01*
X225894525Y-77474437D01*
X225890688Y-77478275D01*
X225820775Y-77548188D01*
X225794493Y-77593708D01*
X225787529Y-77602012D01*
X225785095Y-77603631D01*
X225780202Y-77610009D01*
X222069438Y-81320775D01*
X221999526Y-81390686D01*
X221950091Y-81476309D01*
X221950091Y-81476310D01*
X221950090Y-81476312D01*
X221924500Y-81571815D01*
X221924500Y-81571817D01*
X221924500Y-81624902D01*
X221904815Y-81691941D01*
X221888181Y-81712583D01*
X221819481Y-81781282D01*
X221819475Y-81781290D01*
X221740426Y-81918209D01*
X221740423Y-81918216D01*
X221699500Y-82070943D01*
X214475500Y-82070943D01*
X214475500Y-78432523D01*
X214492500Y-78374628D01*
X215800000Y-78374628D01*
X215814503Y-78447540D01*
X215814505Y-78447544D01*
X215869760Y-78530239D01*
X215952455Y-78585494D01*
X215952459Y-78585496D01*
X216025371Y-78599999D01*
X216025374Y-78600000D01*
X216650000Y-78600000D01*
X216950000Y-78600000D01*
X217574626Y-78600000D01*
X217574628Y-78599999D01*
X217647540Y-78585496D01*
X217647544Y-78585494D01*
X217730239Y-78530239D01*
X217785494Y-78447544D01*
X217785496Y-78447540D01*
X217799999Y-78374628D01*
X217800000Y-78374626D01*
X217800000Y-77770943D01*
X221895750Y-77770943D01*
X221895750Y-77929057D01*
X221923276Y-78031783D01*
X221936673Y-78081783D01*
X221936676Y-78081790D01*
X222015725Y-78218709D01*
X222015729Y-78218714D01*
X222015730Y-78218716D01*
X222127534Y-78330520D01*
X222127536Y-78330521D01*
X222127540Y-78330524D01*
X222236065Y-78393180D01*
X222264466Y-78409577D01*
X222417193Y-78450500D01*
X222417195Y-78450500D01*
X222575305Y-78450500D01*
X222575307Y-78450500D01*
X222728034Y-78409577D01*
X222864966Y-78330520D01*
X222864971Y-78330514D01*
X222870762Y-78326072D01*
X222935930Y-78300876D01*
X223004376Y-78314913D01*
X223021736Y-78326069D01*
X223027540Y-78330523D01*
X223136068Y-78393180D01*
X223164469Y-78409577D01*
X223317196Y-78450500D01*
X223317198Y-78450500D01*
X223475308Y-78450500D01*
X223475310Y-78450500D01*
X223628037Y-78409577D01*
X223764969Y-78330520D01*
X223876773Y-78218716D01*
X223955830Y-78081784D01*
X223996753Y-77929057D01*
X223996753Y-77770943D01*
X223955830Y-77618216D01*
X223951092Y-77610009D01*
X223876777Y-77481290D01*
X223876771Y-77481282D01*
X223808072Y-77412583D01*
X223774587Y-77351260D01*
X223771753Y-77324902D01*
X223771753Y-75132772D01*
X232110843Y-75132772D01*
X232110843Y-75290886D01*
X232148966Y-75433161D01*
X232151766Y-75443612D01*
X232151769Y-75443619D01*
X232230818Y-75580538D01*
X232230822Y-75580543D01*
X232230823Y-75580545D01*
X232342627Y-75692349D01*
X232479559Y-75771406D01*
X232479561Y-75771406D01*
X232486499Y-75775412D01*
X232534715Y-75825979D01*
X232548500Y-75882800D01*
X232548500Y-82873435D01*
X232550106Y-82879428D01*
X232550107Y-82879436D01*
X232550108Y-82879436D01*
X232574090Y-82968939D01*
X232574091Y-82968940D01*
X232623526Y-83054563D01*
X233563181Y-83994218D01*
X233596666Y-84055541D01*
X233599500Y-84081899D01*
X233599500Y-84179057D01*
X233632041Y-84300500D01*
X233640423Y-84331783D01*
X233640426Y-84331790D01*
X233719475Y-84468709D01*
X233719479Y-84468714D01*
X233719480Y-84468716D01*
X233831284Y-84580520D01*
X233831286Y-84580521D01*
X233831290Y-84580524D01*
X233968209Y-84659573D01*
X233968216Y-84659577D01*
X234120943Y-84700500D01*
X234120945Y-84700500D01*
X234279055Y-84700500D01*
X234279057Y-84700500D01*
X234431784Y-84659577D01*
X234486556Y-84627954D01*
X234568707Y-84580526D01*
X234568711Y-84580522D01*
X234568716Y-84580520D01*
X234568719Y-84580516D01*
X234574507Y-84576075D01*
X234639674Y-84550877D01*
X234708120Y-84564910D01*
X234725493Y-84576075D01*
X234731292Y-84580526D01*
X234868209Y-84659573D01*
X234868216Y-84659577D01*
X235020943Y-84700500D01*
X235020945Y-84700500D01*
X235179055Y-84700500D01*
X235179057Y-84700500D01*
X235331784Y-84659577D01*
X235386556Y-84627954D01*
X235468707Y-84580526D01*
X235468711Y-84580522D01*
X235468716Y-84580520D01*
X235468719Y-84580516D01*
X235474507Y-84576075D01*
X235539674Y-84550877D01*
X235608120Y-84564910D01*
X235625493Y-84576075D01*
X235631292Y-84580526D01*
X235768209Y-84659573D01*
X235768216Y-84659577D01*
X235920943Y-84700500D01*
X235920945Y-84700500D01*
X236079055Y-84700500D01*
X236079057Y-84700500D01*
X236231784Y-84659577D01*
X236368716Y-84580520D01*
X236480520Y-84468716D01*
X236559577Y-84331784D01*
X236600500Y-84179057D01*
X236600500Y-84020943D01*
X236559577Y-83868216D01*
X236508101Y-83779056D01*
X236480524Y-83731290D01*
X236480518Y-83731282D01*
X236368717Y-83619481D01*
X236368709Y-83619475D01*
X236231784Y-83540422D01*
X236228046Y-83538874D01*
X236225377Y-83536723D01*
X236224746Y-83536359D01*
X236224802Y-83536260D01*
X236173643Y-83495033D01*
X236151579Y-83428738D01*
X236151500Y-83424314D01*
X236151500Y-75776567D01*
X236151499Y-75776563D01*
X236150117Y-75771406D01*
X236138579Y-75728342D01*
X236125911Y-75681063D01*
X236076475Y-75595438D01*
X234836819Y-74355782D01*
X234803334Y-74294459D01*
X234800500Y-74268101D01*
X234800500Y-74120945D01*
X234800500Y-74120943D01*
X234759577Y-73968216D01*
X234759573Y-73968209D01*
X234680524Y-73831290D01*
X234680518Y-73831282D01*
X234568717Y-73719481D01*
X234568709Y-73719475D01*
X234431790Y-73640426D01*
X234431786Y-73640424D01*
X234431784Y-73640423D01*
X234279057Y-73599500D01*
X234120943Y-73599500D01*
X233968216Y-73640423D01*
X233968209Y-73640426D01*
X233831290Y-73719475D01*
X233831282Y-73719481D01*
X233719481Y-73831282D01*
X233719475Y-73831290D01*
X233640426Y-73968209D01*
X233640423Y-73968214D01*
X233635572Y-73986319D01*
X233629494Y-74008999D01*
X233593131Y-74068658D01*
X233530284Y-74099187D01*
X233509721Y-74100904D01*
X233373549Y-74100904D01*
X233220822Y-74141827D01*
X233220815Y-74141830D01*
X233083896Y-74220879D01*
X233083888Y-74220885D01*
X232972087Y-74332686D01*
X232972081Y-74332694D01*
X232893032Y-74469613D01*
X232893029Y-74469620D01*
X232879685Y-74519422D01*
X232843320Y-74579083D01*
X232780473Y-74609612D01*
X232759910Y-74611329D01*
X232632286Y-74611329D01*
X232479559Y-74652252D01*
X232479552Y-74652255D01*
X232342633Y-74731304D01*
X232342625Y-74731310D01*
X232230824Y-74843111D01*
X232230818Y-74843119D01*
X232151769Y-74980038D01*
X232151766Y-74980045D01*
X232110843Y-75132772D01*
X223771753Y-75132772D01*
X223771753Y-74303845D01*
X223791438Y-74236806D01*
X223808072Y-74216164D01*
X223841006Y-74183230D01*
X223876773Y-74147463D01*
X223955830Y-74010531D01*
X223996753Y-73857804D01*
X223996753Y-73699690D01*
X223955830Y-73546963D01*
X223955826Y-73546956D01*
X223876777Y-73410037D01*
X223876771Y-73410029D01*
X223764970Y-73298228D01*
X223764962Y-73298222D01*
X223628043Y-73219173D01*
X223628039Y-73219171D01*
X223628037Y-73219170D01*
X223475310Y-73178247D01*
X223317196Y-73178247D01*
X223164469Y-73219170D01*
X223164468Y-73219170D01*
X223137499Y-73234741D01*
X223069598Y-73251212D01*
X223003572Y-73228360D01*
X222960382Y-73173438D01*
X222951500Y-73127353D01*
X222951500Y-68874098D01*
X222971185Y-68807059D01*
X222987819Y-68786417D01*
X222991288Y-68782948D01*
X223030520Y-68743716D01*
X223109577Y-68606784D01*
X223150500Y-68454057D01*
X223150500Y-68295943D01*
X223109577Y-68143216D01*
X223058956Y-68055537D01*
X223030524Y-68006290D01*
X223030518Y-68006282D01*
X222918717Y-67894481D01*
X222918709Y-67894475D01*
X222781790Y-67815426D01*
X222781786Y-67815424D01*
X222781784Y-67815423D01*
X222629057Y-67774500D01*
X222470943Y-67774500D01*
X222318216Y-67815423D01*
X222318209Y-67815426D01*
X222181290Y-67894475D01*
X222181282Y-67894481D01*
X222069481Y-68006282D01*
X222069475Y-68006290D01*
X221990426Y-68143209D01*
X221990423Y-68143216D01*
X221949500Y-68295943D01*
X221949500Y-68454057D01*
X221988472Y-68599500D01*
X221990423Y-68606783D01*
X221990426Y-68606790D01*
X222069475Y-68743709D01*
X222069481Y-68743717D01*
X222164181Y-68838417D01*
X222197666Y-68899740D01*
X222200500Y-68926098D01*
X222200500Y-77255761D01*
X222180815Y-77322800D01*
X222138504Y-77363146D01*
X222127537Y-77369478D01*
X222127531Y-77369482D01*
X222015731Y-77481282D01*
X222015725Y-77481290D01*
X221936676Y-77618209D01*
X221936673Y-77618216D01*
X221895750Y-77770943D01*
X217800000Y-77770943D01*
X217800000Y-77750000D01*
X216950000Y-77750000D01*
X216950000Y-78600000D01*
X216650000Y-78600000D01*
X216650000Y-77750000D01*
X215800000Y-77750000D01*
X215800000Y-78374628D01*
X214492500Y-78374628D01*
X214495185Y-78365484D01*
X214511819Y-78344842D01*
X214530592Y-78326069D01*
X214556701Y-78299960D01*
X214635758Y-78163028D01*
X214676681Y-78010301D01*
X214676681Y-77852187D01*
X214635758Y-77699460D01*
X214635754Y-77699453D01*
X214556705Y-77562534D01*
X214556699Y-77562526D01*
X214444898Y-77450725D01*
X214444890Y-77450719D01*
X214307971Y-77371670D01*
X214307967Y-77371668D01*
X214307965Y-77371667D01*
X214155238Y-77330744D01*
X213997124Y-77330744D01*
X213844397Y-77371667D01*
X213844390Y-77371670D01*
X213707471Y-77450719D01*
X213707463Y-77450725D01*
X213595662Y-77562526D01*
X213595656Y-77562534D01*
X213516607Y-77699453D01*
X213516604Y-77699460D01*
X213475681Y-77852187D01*
X213475681Y-77949344D01*
X213455996Y-78016383D01*
X213439362Y-78037025D01*
X212806558Y-78669828D01*
X212745235Y-78703313D01*
X212675543Y-78698329D01*
X212631196Y-78669828D01*
X212578419Y-78617051D01*
X212578415Y-78617048D01*
X212455501Y-78534919D01*
X212455488Y-78534912D01*
X212318917Y-78478343D01*
X212318907Y-78478340D01*
X212173920Y-78449500D01*
X212173918Y-78449500D01*
X212026082Y-78449500D01*
X212026080Y-78449500D01*
X211881092Y-78478340D01*
X211881082Y-78478343D01*
X211744511Y-78534912D01*
X211744498Y-78534919D01*
X211621584Y-78617048D01*
X211621580Y-78617051D01*
X211517051Y-78721580D01*
X211517048Y-78721584D01*
X211434919Y-78844498D01*
X211434912Y-78844511D01*
X211378343Y-78981082D01*
X211378340Y-78981092D01*
X211349500Y-79126079D01*
X211349500Y-79126082D01*
X211349500Y-79273918D01*
X211349500Y-79273920D01*
X211349499Y-79273920D01*
X203804957Y-79273920D01*
X201356408Y-76825371D01*
X215800000Y-76825371D01*
X215800000Y-77450000D01*
X216650000Y-77450000D01*
X216950000Y-77450000D01*
X217800000Y-77450000D01*
X217800000Y-76825373D01*
X217799999Y-76825371D01*
X217785496Y-76752459D01*
X217785494Y-76752455D01*
X217730239Y-76669760D01*
X217647544Y-76614505D01*
X217647540Y-76614503D01*
X217574627Y-76600000D01*
X216950000Y-76600000D01*
X216950000Y-77450000D01*
X216650000Y-77450000D01*
X216650000Y-76600000D01*
X216025373Y-76600000D01*
X215952459Y-76614503D01*
X215952455Y-76614505D01*
X215869760Y-76669760D01*
X215814505Y-76752455D01*
X215814503Y-76752459D01*
X215800000Y-76825371D01*
X201356408Y-76825371D01*
X201230563Y-76699526D01*
X201230562Y-76699525D01*
X201144938Y-76650090D01*
X201097186Y-76637295D01*
X201097184Y-76637294D01*
X201097182Y-76637293D01*
X201049436Y-76624500D01*
X201049435Y-76624500D01*
X198392312Y-76624500D01*
X198325273Y-76604815D01*
X198304631Y-76588181D01*
X197711819Y-75995369D01*
X197678334Y-75934046D01*
X197675500Y-75907688D01*
X197675500Y-74720943D01*
X216599500Y-74720943D01*
X216599500Y-74879056D01*
X216640423Y-75031783D01*
X216640426Y-75031790D01*
X216719475Y-75168709D01*
X216719479Y-75168714D01*
X216719480Y-75168716D01*
X216831284Y-75280520D01*
X216831286Y-75280521D01*
X216831290Y-75280524D01*
X216958994Y-75354253D01*
X216968216Y-75359577D01*
X217120943Y-75400500D01*
X217120945Y-75400500D01*
X217279055Y-75400500D01*
X217279057Y-75400500D01*
X217431784Y-75359577D01*
X217568716Y-75280520D01*
X217680520Y-75168716D01*
X217759577Y-75031784D01*
X217800500Y-74879057D01*
X217800500Y-74879048D01*
X217801561Y-74870997D01*
X217803621Y-74871268D01*
X217820185Y-74814859D01*
X217836814Y-74794222D01*
X219557819Y-73073216D01*
X219619140Y-73039733D01*
X219669686Y-73039282D01*
X219726082Y-73050500D01*
X219873920Y-73050500D01*
X219995315Y-73026352D01*
X220018913Y-73021658D01*
X220155495Y-72965084D01*
X220278416Y-72882951D01*
X220382951Y-72778416D01*
X220465084Y-72655495D01*
X220521658Y-72518913D01*
X220550500Y-72373918D01*
X220550500Y-72226082D01*
X220550500Y-72226079D01*
X220521659Y-72081092D01*
X220521658Y-72081091D01*
X220521658Y-72081087D01*
X220480573Y-71981898D01*
X220465087Y-71944511D01*
X220465080Y-71944498D01*
X220382951Y-71821584D01*
X220382948Y-71821580D01*
X220278419Y-71717051D01*
X220278415Y-71717048D01*
X220155501Y-71634919D01*
X220155488Y-71634912D01*
X220018917Y-71578343D01*
X220018907Y-71578340D01*
X219873920Y-71549500D01*
X219873918Y-71549500D01*
X219726082Y-71549500D01*
X219726080Y-71549500D01*
X219581092Y-71578340D01*
X219581082Y-71578343D01*
X219444511Y-71634912D01*
X219444498Y-71634919D01*
X219321584Y-71717048D01*
X219321580Y-71717051D01*
X219217051Y-71821580D01*
X219217048Y-71821584D01*
X219134919Y-71944498D01*
X219134912Y-71944511D01*
X219078343Y-72081082D01*
X219078340Y-72081092D01*
X219049500Y-72226079D01*
X219049500Y-72226082D01*
X219049500Y-72373918D01*
X219060717Y-72430309D01*
X219054489Y-72499901D01*
X219026780Y-72542181D01*
X217400979Y-74167982D01*
X217339656Y-74201467D01*
X217287158Y-74200217D01*
X217287113Y-74200561D01*
X217283920Y-74200140D01*
X217281206Y-74200076D01*
X217279057Y-74199500D01*
X217120943Y-74199500D01*
X216968216Y-74240423D01*
X216968209Y-74240426D01*
X216831290Y-74319475D01*
X216831282Y-74319481D01*
X216719481Y-74431282D01*
X216719475Y-74431290D01*
X216640426Y-74568209D01*
X216640423Y-74568216D01*
X216599500Y-74720943D01*
X197675500Y-74720943D01*
X197675500Y-71920943D01*
X215399500Y-71920943D01*
X215399500Y-72079057D01*
X215438895Y-72226079D01*
X215440423Y-72231783D01*
X215440426Y-72231790D01*
X215519475Y-72368709D01*
X215519479Y-72368714D01*
X215519480Y-72368716D01*
X215631284Y-72480520D01*
X215631286Y-72480521D01*
X215631290Y-72480524D01*
X215697783Y-72518913D01*
X215768216Y-72559577D01*
X215920943Y-72600500D01*
X215920945Y-72600500D01*
X216079055Y-72600500D01*
X216079057Y-72600500D01*
X216231784Y-72559577D01*
X216368716Y-72480520D01*
X216480520Y-72368716D01*
X216559577Y-72231784D01*
X216600500Y-72079057D01*
X216600500Y-71981898D01*
X216620185Y-71914859D01*
X216636815Y-71894221D01*
X217457819Y-71073216D01*
X217519140Y-71039733D01*
X217569686Y-71039282D01*
X217626082Y-71050500D01*
X217773920Y-71050500D01*
X217895315Y-71026352D01*
X217918913Y-71021658D01*
X218055495Y-70965084D01*
X218178416Y-70882951D01*
X218282951Y-70778416D01*
X218365084Y-70655495D01*
X218421658Y-70518913D01*
X218450500Y-70373918D01*
X218450500Y-70226082D01*
X218450500Y-70226079D01*
X218421659Y-70081092D01*
X218421658Y-70081091D01*
X218421658Y-70081087D01*
X218421656Y-70081082D01*
X218365087Y-69944511D01*
X218365080Y-69944498D01*
X218282951Y-69821584D01*
X218282948Y-69821580D01*
X218178419Y-69717051D01*
X218178415Y-69717048D01*
X218055501Y-69634919D01*
X218055488Y-69634912D01*
X217918917Y-69578343D01*
X217918907Y-69578340D01*
X217773920Y-69549500D01*
X217773918Y-69549500D01*
X217626082Y-69549500D01*
X217626080Y-69549500D01*
X217481092Y-69578340D01*
X217481082Y-69578343D01*
X217344511Y-69634912D01*
X217344498Y-69634919D01*
X217221584Y-69717048D01*
X217221580Y-69717051D01*
X217117051Y-69821580D01*
X217117048Y-69821584D01*
X217034919Y-69944498D01*
X217034912Y-69944511D01*
X216978343Y-70081082D01*
X216978340Y-70081092D01*
X216949500Y-70226079D01*
X216949500Y-70226082D01*
X216949500Y-70373918D01*
X216960717Y-70430309D01*
X216954489Y-70499901D01*
X216926780Y-70542181D01*
X216105782Y-71363181D01*
X216044459Y-71396666D01*
X216018101Y-71399500D01*
X215920943Y-71399500D01*
X215768216Y-71440423D01*
X215768209Y-71440426D01*
X215631290Y-71519475D01*
X215631282Y-71519481D01*
X215519481Y-71631282D01*
X215519475Y-71631290D01*
X215440426Y-71768209D01*
X215440423Y-71768216D01*
X215399500Y-71920943D01*
X197675500Y-71920943D01*
X197675500Y-69120943D01*
X213899500Y-69120943D01*
X213899500Y-69279056D01*
X213940423Y-69431783D01*
X213940426Y-69431790D01*
X214019475Y-69568709D01*
X214019479Y-69568714D01*
X214019480Y-69568716D01*
X214131284Y-69680520D01*
X214131286Y-69680521D01*
X214131290Y-69680524D01*
X214194558Y-69717051D01*
X214268216Y-69759577D01*
X214420943Y-69800500D01*
X214420945Y-69800500D01*
X214579055Y-69800500D01*
X214579057Y-69800500D01*
X214731784Y-69759577D01*
X214868716Y-69680520D01*
X214980520Y-69568716D01*
X215059577Y-69431784D01*
X215100500Y-69279057D01*
X215100500Y-69181898D01*
X215109144Y-69152457D01*
X215115668Y-69122471D01*
X215119422Y-69117455D01*
X215120185Y-69114859D01*
X215136815Y-69094221D01*
X215301084Y-68929951D01*
X215362407Y-68896467D01*
X215432099Y-68901451D01*
X215436182Y-68903057D01*
X215481087Y-68921658D01*
X215481091Y-68921658D01*
X215481092Y-68921659D01*
X215626079Y-68950500D01*
X215626082Y-68950500D01*
X215773920Y-68950500D01*
X215896592Y-68926098D01*
X215918913Y-68921658D01*
X216055495Y-68865084D01*
X216178416Y-68782951D01*
X216282951Y-68678416D01*
X216365084Y-68555495D01*
X216421658Y-68418913D01*
X216431096Y-68371462D01*
X216450500Y-68273920D01*
X216450500Y-68126079D01*
X216421659Y-67981092D01*
X216421658Y-67981091D01*
X216421658Y-67981087D01*
X216385785Y-67894481D01*
X216365087Y-67844511D01*
X216365080Y-67844498D01*
X216282951Y-67721584D01*
X216282948Y-67721580D01*
X216178419Y-67617051D01*
X216178415Y-67617048D01*
X216055501Y-67534919D01*
X216055488Y-67534912D01*
X215918917Y-67478343D01*
X215918907Y-67478340D01*
X215773920Y-67449500D01*
X215773918Y-67449500D01*
X215626082Y-67449500D01*
X215626080Y-67449500D01*
X215481092Y-67478340D01*
X215481082Y-67478343D01*
X215344511Y-67534912D01*
X215344498Y-67534919D01*
X215221584Y-67617048D01*
X215221580Y-67617051D01*
X215117051Y-67721580D01*
X215117048Y-67721584D01*
X215034919Y-67844498D01*
X215034912Y-67844511D01*
X214978343Y-67981082D01*
X214978340Y-67981092D01*
X214949500Y-68126079D01*
X214949500Y-68168101D01*
X214929815Y-68235140D01*
X214913181Y-68255782D01*
X214605782Y-68563181D01*
X214544459Y-68596666D01*
X214518101Y-68599500D01*
X214420943Y-68599500D01*
X214268216Y-68640423D01*
X214268209Y-68640426D01*
X214131290Y-68719475D01*
X214131282Y-68719481D01*
X214019481Y-68831282D01*
X214019475Y-68831290D01*
X213940426Y-68968209D01*
X213940423Y-68968216D01*
X213899500Y-69120943D01*
X197675500Y-69120943D01*
X197675500Y-67850565D01*
X197675372Y-67850090D01*
X197675343Y-67849981D01*
X197649910Y-67755063D01*
X197649909Y-67755060D01*
X197630579Y-67721580D01*
X197600475Y-67669438D01*
X197530562Y-67599525D01*
X197236819Y-67305782D01*
X197203334Y-67244459D01*
X197200500Y-67218101D01*
X197200500Y-67120945D01*
X197200500Y-67120943D01*
X197159577Y-66968216D01*
X197084856Y-66838794D01*
X197080524Y-66831290D01*
X197080518Y-66831282D01*
X196968717Y-66719481D01*
X196968709Y-66719475D01*
X196831790Y-66640426D01*
X196831786Y-66640424D01*
X196831784Y-66640423D01*
X196679057Y-66599500D01*
X196520943Y-66599500D01*
X196368216Y-66640423D01*
X196368209Y-66640426D01*
X196231290Y-66719475D01*
X196231282Y-66719481D01*
X196119481Y-66831282D01*
X196119475Y-66831290D01*
X196040426Y-66968209D01*
X196040423Y-66968216D01*
X195999500Y-67120943D01*
X192746226Y-67120943D01*
X192746226Y-65093713D01*
X193549500Y-65093713D01*
X193549500Y-65306286D01*
X193582753Y-65516239D01*
X193648444Y-65718414D01*
X193744951Y-65907820D01*
X193869890Y-66079786D01*
X194020213Y-66230109D01*
X194192179Y-66355048D01*
X194192181Y-66355049D01*
X194192184Y-66355051D01*
X194381588Y-66451557D01*
X194583757Y-66517246D01*
X194793713Y-66550500D01*
X194793714Y-66550500D01*
X195006286Y-66550500D01*
X195006287Y-66550500D01*
X195216243Y-66517246D01*
X195418412Y-66451557D01*
X195607816Y-66355051D01*
X195629789Y-66339086D01*
X195779786Y-66230109D01*
X195779788Y-66230106D01*
X195779792Y-66230104D01*
X195930104Y-66079792D01*
X195930106Y-66079788D01*
X195930109Y-66079786D01*
X196055048Y-65907820D01*
X196055047Y-65907820D01*
X196055051Y-65907816D01*
X196151557Y-65718412D01*
X196217246Y-65516243D01*
X196250500Y-65306287D01*
X196250500Y-65093713D01*
X196217246Y-64883757D01*
X196151557Y-64681588D01*
X196055051Y-64492184D01*
X196055049Y-64492181D01*
X196055048Y-64492179D01*
X195930109Y-64320213D01*
X195779786Y-64169890D01*
X195607820Y-64044951D01*
X195418414Y-63948444D01*
X195418413Y-63948443D01*
X195418412Y-63948443D01*
X195216243Y-63882754D01*
X195216241Y-63882753D01*
X195216240Y-63882753D01*
X195054957Y-63857208D01*
X195006287Y-63849500D01*
X194793713Y-63849500D01*
X194745042Y-63857208D01*
X194583760Y-63882753D01*
X194381585Y-63948444D01*
X194192179Y-64044951D01*
X194020213Y-64169890D01*
X193869890Y-64320213D01*
X193744951Y-64492179D01*
X193648444Y-64681585D01*
X193582753Y-64883760D01*
X193549500Y-65093713D01*
X192746226Y-65093713D01*
X192746226Y-64827705D01*
X192746542Y-64818857D01*
X192756362Y-64681585D01*
X192763404Y-64583143D01*
X192765922Y-64565634D01*
X192781902Y-64492179D01*
X192815216Y-64339047D01*
X192820196Y-64322088D01*
X192901235Y-64104821D01*
X192908573Y-64088752D01*
X193019719Y-63885210D01*
X193029267Y-63870354D01*
X193168244Y-63684708D01*
X193179815Y-63671356D01*
X193343788Y-63507387D01*
X193357147Y-63495811D01*
X193542789Y-63356846D01*
X193557652Y-63347293D01*
X193761188Y-63236157D01*
X193777268Y-63228814D01*
X193994528Y-63147784D01*
X194011490Y-63142803D01*
X194238085Y-63093513D01*
X194255594Y-63090997D01*
X194492099Y-63074084D01*
X194500943Y-63073769D01*
X194555030Y-63073769D01*
X196552407Y-63073769D01*
X196573627Y-63080000D01*
G37*
%TD.AperFunction*%
%TD*%
M02*
