%TF.GenerationSoftware,KiCad,Pcbnew,9.0.7*%
%TF.CreationDate,2026-04-10T12:37:13+07:00*%
%TF.ProjectId,anchor,616e6368-6f72-42e6-9b69-6361645f7063,rev?*%
%TF.SameCoordinates,Original*%
%TF.FileFunction,Soldermask,Top*%
%TF.FilePolarity,Negative*%
%FSLAX46Y46*%
G04 Gerber Fmt 4.6, Leading zero omitted, Abs format (unit mm)*
G04 Created by KiCad (PCBNEW 9.0.7) date 2026-04-10 12:37:13*
%MOMM*%
%LPD*%
G01*
G04 APERTURE LIST*
G04 Aperture macros list*
%AMRoundRect*
0 Rectangle with rounded corners*
0 $1 Rounding radius*
0 $2 $3 $4 $5 $6 $7 $8 $9 X,Y pos of 4 corners*
0 Add a 4 corners polygon primitive as box body*
4,1,4,$2,$3,$4,$5,$6,$7,$8,$9,$2,$3,0*
0 Add four circle primitives for the rounded corners*
1,1,$1+$1,$2,$3*
1,1,$1+$1,$4,$5*
1,1,$1+$1,$6,$7*
1,1,$1+$1,$8,$9*
0 Add four rect primitives between the rounded corners*
20,1,$1+$1,$2,$3,$4,$5,0*
20,1,$1+$1,$4,$5,$6,$7,0*
20,1,$1+$1,$6,$7,$8,$9,0*
20,1,$1+$1,$8,$9,$2,$3,0*%
G04 Aperture macros list end*
%ADD10C,0.010000*%
%ADD11RoundRect,0.102000X0.300000X0.775000X-0.300000X0.775000X-0.300000X-0.775000X0.300000X-0.775000X0*%
%ADD12RoundRect,0.102000X0.600000X0.900000X-0.600000X0.900000X-0.600000X-0.900000X0.600000X-0.900000X0*%
%ADD13RoundRect,0.237500X-0.237500X0.250000X-0.237500X-0.250000X0.237500X-0.250000X0.237500X0.250000X0*%
%ADD14RoundRect,0.237500X0.250000X0.237500X-0.250000X0.237500X-0.250000X-0.237500X0.250000X-0.237500X0*%
%ADD15RoundRect,0.237500X0.237500X-0.250000X0.237500X0.250000X-0.237500X0.250000X-0.237500X-0.250000X0*%
%ADD16RoundRect,0.250000X-0.337500X-0.475000X0.337500X-0.475000X0.337500X0.475000X-0.337500X0.475000X0*%
%ADD17RoundRect,0.237500X-0.237500X0.300000X-0.237500X-0.300000X0.237500X-0.300000X0.237500X0.300000X0*%
%ADD18C,2.200000*%
%ADD19RoundRect,0.237500X0.237500X-0.287500X0.237500X0.287500X-0.237500X0.287500X-0.237500X-0.287500X0*%
%ADD20RoundRect,0.250000X0.275000X0.250000X-0.275000X0.250000X-0.275000X-0.250000X0.275000X-0.250000X0*%
%ADD21RoundRect,0.250000X0.850000X0.275000X-0.850000X0.275000X-0.850000X-0.275000X0.850000X-0.275000X0*%
%ADD22RoundRect,0.102000X-0.300000X-0.775000X0.300000X-0.775000X0.300000X0.775000X-0.300000X0.775000X0*%
%ADD23RoundRect,0.102000X-0.600000X-0.900000X0.600000X-0.900000X0.600000X0.900000X-0.600000X0.900000X0*%
%ADD24RoundRect,0.237500X-0.287500X-0.237500X0.287500X-0.237500X0.287500X0.237500X-0.287500X0.237500X0*%
%ADD25RoundRect,0.237500X0.287500X0.237500X-0.287500X0.237500X-0.287500X-0.237500X0.287500X-0.237500X0*%
%ADD26RoundRect,0.250000X0.475000X-0.337500X0.475000X0.337500X-0.475000X0.337500X-0.475000X-0.337500X0*%
%ADD27RoundRect,0.150000X-0.150000X-0.625000X0.150000X-0.625000X0.150000X0.625000X-0.150000X0.625000X0*%
%ADD28RoundRect,0.250000X-0.350000X-0.650000X0.350000X-0.650000X0.350000X0.650000X-0.350000X0.650000X0*%
%ADD29RoundRect,0.237500X0.237500X-0.300000X0.237500X0.300000X-0.237500X0.300000X-0.237500X-0.300000X0*%
%ADD30RoundRect,0.250000X0.475000X-0.250000X0.475000X0.250000X-0.475000X0.250000X-0.475000X-0.250000X0*%
%ADD31RoundRect,0.237500X-0.250000X-0.237500X0.250000X-0.237500X0.250000X0.237500X-0.250000X0.237500X0*%
%ADD32R,1.500000X1.500000*%
%ADD33RoundRect,0.150000X-0.150000X0.587500X-0.150000X-0.587500X0.150000X-0.587500X0.150000X0.587500X0*%
%ADD34RoundRect,0.237500X0.300000X0.237500X-0.300000X0.237500X-0.300000X-0.237500X0.300000X-0.237500X0*%
%ADD35R,2.450000X1.000000*%
%ADD36R,1.000000X2.450000*%
%ADD37RoundRect,0.250000X0.337500X0.475000X-0.337500X0.475000X-0.337500X-0.475000X0.337500X-0.475000X0*%
%ADD38RoundRect,0.087500X0.087500X-0.175000X0.087500X0.175000X-0.087500X0.175000X-0.087500X-0.175000X0*%
%ADD39R,1.600000X1.400000*%
%ADD40C,1.500000*%
%ADD41RoundRect,0.250000X0.350000X-0.450000X0.350000X0.450000X-0.350000X0.450000X-0.350000X-0.450000X0*%
%ADD42RoundRect,0.250000X-0.475000X0.337500X-0.475000X-0.337500X0.475000X-0.337500X0.475000X0.337500X0*%
%ADD43RoundRect,0.350000X0.550000X0.350000X-0.550000X0.350000X-0.550000X-0.350000X0.550000X-0.350000X0*%
%ADD44C,0.650000*%
%ADD45R,1.450000X0.600000*%
%ADD46R,1.450000X0.300000*%
%ADD47O,2.100000X1.000000*%
%ADD48O,1.600000X1.000000*%
%ADD49RoundRect,0.140000X0.140000X0.170000X-0.140000X0.170000X-0.140000X-0.170000X0.140000X-0.170000X0*%
%ADD50RoundRect,0.190000X-1.135000X-0.190000X1.135000X-0.190000X1.135000X0.190000X-1.135000X0.190000X0*%
%ADD51RoundRect,0.062500X0.375000X0.062500X-0.375000X0.062500X-0.375000X-0.062500X0.375000X-0.062500X0*%
%ADD52RoundRect,0.062500X0.062500X0.375000X-0.062500X0.375000X-0.062500X-0.375000X0.062500X-0.375000X0*%
%ADD53R,5.600000X5.600000*%
%ADD54R,0.600000X1.800000*%
%ADD55R,1.800000X0.600000*%
%ADD56RoundRect,0.237500X-0.300000X-0.237500X0.300000X-0.237500X0.300000X0.237500X-0.300000X0.237500X0*%
%ADD57RoundRect,0.112500X0.187500X0.112500X-0.187500X0.112500X-0.187500X-0.112500X0.187500X-0.112500X0*%
%ADD58RoundRect,0.102000X-0.775000X0.300000X-0.775000X-0.300000X0.775000X-0.300000X0.775000X0.300000X0*%
%ADD59RoundRect,0.102000X-0.900000X0.600000X-0.900000X-0.600000X0.900000X-0.600000X0.900000X0.600000X0*%
%ADD60RoundRect,0.062500X-0.375000X-0.062500X0.375000X-0.062500X0.375000X0.062500X-0.375000X0.062500X0*%
%ADD61RoundRect,0.062500X-0.062500X-0.375000X0.062500X-0.375000X0.062500X0.375000X-0.062500X0.375000X0*%
%ADD62R,1.600000X1.600000*%
%ADD63C,0.900000*%
%ADD64RoundRect,0.187500X-0.187500X-0.712500X0.187500X-0.712500X0.187500X0.712500X-0.187500X0.712500X0*%
%ADD65RoundRect,0.150000X-0.150000X-0.750000X0.150000X-0.750000X0.150000X0.750000X-0.150000X0.750000X0*%
%ADD66RoundRect,0.225000X-0.425000X-0.225000X0.425000X-0.225000X0.425000X0.225000X-0.425000X0.225000X0*%
%ADD67RoundRect,0.250000X-0.350000X-0.450000X0.350000X-0.450000X0.350000X0.450000X-0.350000X0.450000X0*%
%ADD68RoundRect,0.250000X0.550000X-0.550000X0.550000X0.550000X-0.550000X0.550000X-0.550000X-0.550000X0*%
%ADD69C,1.600000*%
%ADD70RoundRect,0.147500X-0.172500X0.147500X-0.172500X-0.147500X0.172500X-0.147500X0.172500X0.147500X0*%
%ADD71RoundRect,0.350000X-0.550000X-0.350000X0.550000X-0.350000X0.550000X0.350000X-0.550000X0.350000X0*%
%ADD72RoundRect,0.250000X0.350000X0.450000X-0.350000X0.450000X-0.350000X-0.450000X0.350000X-0.450000X0*%
%ADD73RoundRect,0.250000X0.625000X-0.375000X0.625000X0.375000X-0.625000X0.375000X-0.625000X-0.375000X0*%
%ADD74RoundRect,0.150000X-0.512500X-0.150000X0.512500X-0.150000X0.512500X0.150000X-0.512500X0.150000X0*%
%ADD75RoundRect,0.250000X0.300000X1.600000X-0.300000X1.600000X-0.300000X-1.600000X0.300000X-1.600000X0*%
G04 APERTURE END LIST*
%TO.C,J3*%
G36*
X238349752Y-89696195D02*
G01*
X236259752Y-89696195D01*
X236259752Y-87816195D01*
X238349752Y-87816195D01*
X238349752Y-89696195D01*
G37*
D10*
%TO.C,U2*%
X228730800Y-106647500D02*
X228030800Y-106647500D01*
X228030800Y-106297500D01*
X228730800Y-106297500D01*
X228730800Y-106647500D01*
G36*
X228730800Y-106647500D02*
G01*
X228030800Y-106647500D01*
X228030800Y-106297500D01*
X228730800Y-106297500D01*
X228730800Y-106647500D01*
G37*
X228730800Y-107147500D02*
X228030800Y-107147500D01*
X228030800Y-106797500D01*
X228730800Y-106797500D01*
X228730800Y-107147500D01*
G36*
X228730800Y-107147500D02*
G01*
X228030800Y-107147500D01*
X228030800Y-106797500D01*
X228730800Y-106797500D01*
X228730800Y-107147500D01*
G37*
X229205800Y-107747500D02*
X228855800Y-107747500D01*
X228855800Y-107047500D01*
X229205800Y-107047500D01*
X229205800Y-107747500D01*
G36*
X229205800Y-107747500D02*
G01*
X228855800Y-107747500D01*
X228855800Y-107047500D01*
X229205800Y-107047500D01*
X229205800Y-107747500D01*
G37*
X229405800Y-106147500D02*
X229155800Y-106147500D01*
X229155800Y-104797500D01*
X229405800Y-104797500D01*
X229405800Y-106147500D01*
G36*
X229405800Y-106147500D02*
G01*
X229155800Y-106147500D01*
X229155800Y-104797500D01*
X229405800Y-104797500D01*
X229405800Y-106147500D01*
G37*
X229705800Y-107747500D02*
X229355800Y-107747500D01*
X229355800Y-107047500D01*
X229705800Y-107047500D01*
X229705800Y-107747500D01*
G36*
X229705800Y-107747500D02*
G01*
X229355800Y-107747500D01*
X229355800Y-107047500D01*
X229705800Y-107047500D01*
X229705800Y-107747500D01*
G37*
X229905800Y-106497500D02*
X229655800Y-106497500D01*
X229655800Y-104797500D01*
X229905800Y-104797500D01*
X229905800Y-106497500D01*
G36*
X229905800Y-106497500D02*
G01*
X229655800Y-106497500D01*
X229655800Y-104797500D01*
X229905800Y-104797500D01*
X229905800Y-106497500D01*
G37*
X230205800Y-107747500D02*
X229855800Y-107747500D01*
X229855800Y-107047500D01*
X230205800Y-107047500D01*
X230205800Y-107747500D01*
G36*
X230205800Y-107747500D02*
G01*
X229855800Y-107747500D01*
X229855800Y-107047500D01*
X230205800Y-107047500D01*
X230205800Y-107747500D01*
G37*
X230405800Y-106147500D02*
X230155800Y-106147500D01*
X230155800Y-104797500D01*
X230405800Y-104797500D01*
X230405800Y-106147500D01*
G36*
X230405800Y-106147500D02*
G01*
X230155800Y-106147500D01*
X230155800Y-104797500D01*
X230405800Y-104797500D01*
X230405800Y-106147500D01*
G37*
X230705800Y-107747500D02*
X230355800Y-107747500D01*
X230355800Y-107047500D01*
X230705800Y-107047500D01*
X230705800Y-107747500D01*
G36*
X230705800Y-107747500D02*
G01*
X230355800Y-107747500D01*
X230355800Y-107047500D01*
X230705800Y-107047500D01*
X230705800Y-107747500D01*
G37*
X231530800Y-106647500D02*
X230830800Y-106647500D01*
X230830800Y-106297500D01*
X231530800Y-106297500D01*
X231530800Y-106647500D01*
G36*
X231530800Y-106647500D02*
G01*
X230830800Y-106647500D01*
X230830800Y-106297500D01*
X231530800Y-106297500D01*
X231530800Y-106647500D01*
G37*
X231530800Y-107147500D02*
X230830800Y-107147500D01*
X230830800Y-106797500D01*
X231530800Y-106797500D01*
X231530800Y-107147500D01*
G36*
X231530800Y-107147500D02*
G01*
X230830800Y-107147500D01*
X230830800Y-106797500D01*
X231530800Y-106797500D01*
X231530800Y-107147500D01*
G37*
X228680800Y-106097500D02*
X228080800Y-106097500D01*
X228080800Y-105847500D01*
X228430800Y-105847500D01*
X228430800Y-105597500D01*
X228080800Y-105597500D01*
X228080800Y-105347500D01*
X228680800Y-105347500D01*
X228680800Y-106097500D01*
G36*
X228680800Y-106097500D02*
G01*
X228080800Y-106097500D01*
X228080800Y-105847500D01*
X228430800Y-105847500D01*
X228430800Y-105597500D01*
X228080800Y-105597500D01*
X228080800Y-105347500D01*
X228680800Y-105347500D01*
X228680800Y-106097500D01*
G37*
X231480800Y-105597500D02*
X231130800Y-105597500D01*
X231130800Y-105847500D01*
X231480800Y-105847500D01*
X231480800Y-106097500D01*
X230880800Y-106097500D01*
X230880800Y-105347500D01*
X231480800Y-105347500D01*
X231480800Y-105597500D01*
G36*
X231480800Y-105597500D02*
G01*
X231130800Y-105597500D01*
X231130800Y-105847500D01*
X231480800Y-105847500D01*
X231480800Y-106097500D01*
X230880800Y-106097500D01*
X230880800Y-105347500D01*
X231480800Y-105347500D01*
X231480800Y-105597500D01*
G37*
%TD*%
D11*
%TO.C,J1*%
X204612500Y-108472500D03*
X203612500Y-108472500D03*
D12*
X205912500Y-110997500D03*
X202312500Y-110997500D03*
%TD*%
D13*
%TO.C,R1*%
X228982800Y-109222500D03*
X228982800Y-111047500D03*
%TD*%
D14*
%TO.C,R17*%
X211800000Y-95170000D03*
X209975000Y-95170000D03*
%TD*%
D15*
%TO.C,R12*%
X222360000Y-105542500D03*
X222360000Y-103717500D03*
%TD*%
D16*
%TO.C,C16*%
X222410000Y-94820000D03*
X224485000Y-94820000D03*
%TD*%
D17*
%TO.C,C19*%
X224121250Y-90575000D03*
X224121250Y-92300000D03*
%TD*%
D18*
%TO.C,H3*%
X194850000Y-110100000D03*
%TD*%
D14*
%TO.C,R18*%
X220730000Y-94560000D03*
X218905000Y-94560000D03*
%TD*%
D19*
%TO.C,FB1*%
X226571250Y-80750000D03*
X226571250Y-79000000D03*
%TD*%
D20*
%TO.C,J3*%
X238884752Y-88756195D03*
D21*
X237359752Y-90231195D03*
X237359752Y-87281195D03*
%TD*%
D22*
%TO.C,J5*%
X230780000Y-66655000D03*
X231780000Y-66655000D03*
X232780000Y-66655000D03*
X233780000Y-66655000D03*
X234780000Y-66655000D03*
D23*
X229480000Y-64130000D03*
X236080000Y-64130000D03*
%TD*%
D24*
%TO.C,D6*%
X207037500Y-79700000D03*
X208787500Y-79700000D03*
%TD*%
D16*
%TO.C,C13*%
X234005000Y-100877500D03*
X236080000Y-100877500D03*
%TD*%
D25*
%TO.C,D3*%
X240965000Y-102687500D03*
X239215000Y-102687500D03*
%TD*%
D26*
%TO.C,C15*%
X230790000Y-71087500D03*
X230790000Y-69012500D03*
%TD*%
D27*
%TO.C,J4*%
X195900000Y-99050000D03*
X196900000Y-99050000D03*
X197900000Y-99050000D03*
X198900000Y-99050000D03*
X199900000Y-99050000D03*
X200900000Y-99050000D03*
D28*
X194600000Y-96525000D03*
X202200000Y-96525000D03*
%TD*%
D29*
%TO.C,C17*%
X232500000Y-71140000D03*
X232500000Y-69415000D03*
%TD*%
D30*
%TO.C,C11*%
X217040000Y-105777500D03*
X217040000Y-103877500D03*
%TD*%
D31*
%TO.C,R7*%
X209005000Y-104627500D03*
X210830000Y-104627500D03*
%TD*%
D32*
%TO.C,TP7*%
X210910000Y-99410000D03*
%TD*%
D33*
%TO.C,Q2*%
X220800000Y-101100000D03*
X218900000Y-101100000D03*
X219850000Y-102975000D03*
%TD*%
D34*
%TO.C,C21*%
X214862500Y-81250000D03*
X213137500Y-81250000D03*
%TD*%
D13*
%TO.C,R10*%
X230581400Y-109222500D03*
X230581400Y-111047500D03*
%TD*%
D16*
%TO.C,C12*%
X233990000Y-103300700D03*
X236065000Y-103300700D03*
%TD*%
D15*
%TO.C,R11*%
X221720000Y-110000000D03*
X221720000Y-108175000D03*
%TD*%
D14*
%TO.C,R24*%
X208825000Y-78210000D03*
X207000000Y-78210000D03*
%TD*%
D29*
%TO.C,CY2*%
X229721250Y-86900000D03*
X229721250Y-85175000D03*
%TD*%
D14*
%TO.C,R22*%
X228271250Y-91790000D03*
X226446250Y-91790000D03*
%TD*%
D35*
%TO.C,DWM1*%
X199200000Y-63601200D03*
X199200000Y-65001200D03*
X199200000Y-66401200D03*
X199200000Y-67801200D03*
X199200000Y-69201200D03*
X199200000Y-70601200D03*
X199200000Y-72001200D03*
X199200000Y-73401200D03*
D36*
X200600000Y-75696200D03*
X202000000Y-75696200D03*
X203400000Y-75696200D03*
X204800000Y-75696200D03*
X206200000Y-75696200D03*
X207600000Y-75696200D03*
X209000000Y-75696200D03*
X210400000Y-75696200D03*
D35*
X211800000Y-73400000D03*
X211800000Y-72000000D03*
X211800000Y-70601200D03*
X211800000Y-69201200D03*
X211800000Y-67801200D03*
X211800000Y-66401200D03*
X211800000Y-65001200D03*
X211800000Y-63601200D03*
%TD*%
D37*
%TO.C,C7*%
X216647500Y-101327500D03*
X214572500Y-101327500D03*
%TD*%
D29*
%TO.C,CY1*%
X229721250Y-90225000D03*
X229721250Y-88500000D03*
%TD*%
D38*
%TO.C,U1*%
X205905229Y-105475000D03*
X206405229Y-105475000D03*
X206905229Y-105475000D03*
X207405229Y-105475000D03*
X207405229Y-102900000D03*
X206905229Y-102900000D03*
X206405229Y-102900000D03*
X205905229Y-102900000D03*
D39*
X206655229Y-104187500D03*
%TD*%
D40*
%TO.C,TP6*%
X198620000Y-81110000D03*
%TD*%
D41*
%TO.C,Y1*%
X228071250Y-88850000D03*
X228071250Y-86650000D03*
X226371250Y-86650000D03*
X226371250Y-88850000D03*
%TD*%
D42*
%TO.C,C2*%
X225530000Y-107580000D03*
X225530000Y-109655000D03*
%TD*%
D31*
%TO.C,R4*%
X222405000Y-100412500D03*
X224230000Y-100412500D03*
%TD*%
D43*
%TO.C,SW4*%
X226450000Y-67000000D03*
X221750000Y-67000000D03*
%TD*%
D13*
%TO.C,R21*%
X225690000Y-100425000D03*
X225690000Y-102250000D03*
%TD*%
D14*
%TO.C,R16*%
X211800000Y-93710000D03*
X209975000Y-93710000D03*
%TD*%
D18*
%TO.C,H1*%
X194900000Y-65200000D03*
%TD*%
D15*
%TO.C,R19*%
X234250000Y-88012500D03*
X234250000Y-86187500D03*
%TD*%
D34*
%TO.C,C29*%
X196100000Y-69300000D03*
X194375000Y-69300000D03*
%TD*%
D44*
%TO.C,J2*%
X197400000Y-85000000D03*
X197400000Y-90780000D03*
D45*
X198845000Y-84640000D03*
X198845000Y-85440000D03*
D46*
X198845000Y-86640000D03*
X198845000Y-87640000D03*
X198845000Y-88140000D03*
X198845000Y-89140000D03*
D45*
X198845000Y-90340000D03*
X198845000Y-91140000D03*
X198845000Y-91140000D03*
X198845000Y-90340000D03*
D46*
X198845000Y-89640000D03*
X198845000Y-88640000D03*
X198845000Y-87140000D03*
X198845000Y-86140000D03*
D45*
X198845000Y-85440000D03*
X198845000Y-84640000D03*
D47*
X197930000Y-83570000D03*
D48*
X193750000Y-83570000D03*
D47*
X197930000Y-92210000D03*
D48*
X193750000Y-92210000D03*
%TD*%
D13*
%TO.C,R2*%
X227384200Y-109222500D03*
X227384200Y-111047500D03*
%TD*%
D49*
%TO.C,C24*%
X241494752Y-85226195D03*
X240534752Y-85226195D03*
%TD*%
D50*
%TO.C,SW2*%
X195775000Y-102330000D03*
X195775000Y-103600000D03*
X195775000Y-104870000D03*
X201025000Y-104870000D03*
X201025000Y-103600000D03*
X201025000Y-102330000D03*
%TD*%
D17*
%TO.C,C3*%
X224190000Y-103802500D03*
X224190000Y-105527500D03*
%TD*%
D16*
%TO.C,C10*%
X233990000Y-105707500D03*
X236065000Y-105707500D03*
%TD*%
D25*
%TO.C,D7*%
X204075000Y-79700000D03*
X202325000Y-79700000D03*
%TD*%
D34*
%TO.C,C23*%
X222462500Y-93100000D03*
X220737500Y-93100000D03*
%TD*%
D51*
%TO.C,U6*%
X222131500Y-89750000D03*
X222131500Y-89250000D03*
X222131500Y-88750000D03*
X222131500Y-88250000D03*
X222131500Y-87750000D03*
X222131500Y-87250000D03*
X222131500Y-86750000D03*
X222131500Y-86250000D03*
X222131500Y-85750000D03*
X222131500Y-85250000D03*
X222131500Y-84750000D03*
X222131500Y-84250000D03*
D52*
X221444000Y-83562500D03*
X220944000Y-83562500D03*
X220444000Y-83562500D03*
X219944000Y-83562500D03*
X219444000Y-83562500D03*
X218944000Y-83562500D03*
X218444000Y-83562500D03*
X217944000Y-83562500D03*
X217444000Y-83562500D03*
X216944000Y-83562500D03*
X216444000Y-83562500D03*
X215944000Y-83562500D03*
D51*
X215256500Y-84250000D03*
X215256500Y-84750000D03*
X215256500Y-85250000D03*
X215256500Y-85750000D03*
X215256500Y-86250000D03*
X215256500Y-86750000D03*
X215256500Y-87250000D03*
X215256500Y-87750000D03*
X215256500Y-88250000D03*
X215256500Y-88750000D03*
X215256500Y-89250000D03*
X215256500Y-89750000D03*
D52*
X215944000Y-90437500D03*
X216444000Y-90437500D03*
X216944000Y-90437500D03*
X217444000Y-90437500D03*
X217944000Y-90437500D03*
X218444000Y-90437500D03*
X218944000Y-90437500D03*
X219444000Y-90437500D03*
X219944000Y-90437500D03*
X220444000Y-90437500D03*
X220944000Y-90437500D03*
X221444000Y-90437500D03*
D53*
X218694000Y-87000000D03*
%TD*%
D25*
%TO.C,D4*%
X240965000Y-104387500D03*
X239215000Y-104387500D03*
%TD*%
D14*
%TO.C,R27*%
X228271250Y-93250000D03*
X226446250Y-93250000D03*
%TD*%
D31*
%TO.C,R20*%
X222496250Y-76550000D03*
X224321250Y-76550000D03*
%TD*%
D54*
%TO.C,U5*%
X239150000Y-73200000D03*
X238050000Y-73200000D03*
X236950000Y-73200000D03*
X235850000Y-73200000D03*
X234750000Y-73200000D03*
X233650000Y-73200000D03*
X232550000Y-73200000D03*
X231450000Y-73200000D03*
D55*
X230600000Y-76100000D03*
X230600000Y-77200000D03*
D54*
X231450000Y-83200000D03*
X232550000Y-83200000D03*
X233650000Y-83200000D03*
X234750000Y-83200000D03*
X235850000Y-83200000D03*
X236950000Y-83200000D03*
X238050000Y-83200000D03*
X239150000Y-83200000D03*
X240250000Y-83200000D03*
X241350000Y-83200000D03*
%TD*%
D31*
%TO.C,R14*%
X222496250Y-75017005D03*
X224321250Y-75017005D03*
%TD*%
D56*
%TO.C,C18*%
X225358750Y-84600000D03*
X227083750Y-84600000D03*
%TD*%
D14*
%TO.C,R13*%
X224220000Y-102257500D03*
X222395000Y-102257500D03*
%TD*%
D49*
%TO.C,C26*%
X241494752Y-88026195D03*
X240534752Y-88026195D03*
%TD*%
D17*
%TO.C,C6*%
X232180000Y-109272500D03*
X232180000Y-110997500D03*
%TD*%
D25*
%TO.C,D2*%
X240965000Y-100987500D03*
X239215000Y-100987500D03*
%TD*%
D57*
%TO.C,D1*%
X207790000Y-91000000D03*
X205690000Y-91000000D03*
%TD*%
D58*
%TO.C,J6*%
X238225000Y-93800000D03*
X238225000Y-94800000D03*
X238225000Y-95800000D03*
X238225000Y-96800000D03*
D59*
X240750000Y-92500000D03*
X240750000Y-98100000D03*
%TD*%
D56*
%TO.C,C25*%
X225358750Y-83100000D03*
X227083750Y-83100000D03*
%TD*%
D42*
%TO.C,C9*%
X210742500Y-108140000D03*
X210742500Y-110215000D03*
%TD*%
D18*
%TO.C,H2*%
X239800000Y-65200000D03*
%TD*%
D14*
%TO.C,R6*%
X210830000Y-103127500D03*
X209005000Y-103127500D03*
%TD*%
D26*
%TO.C,C27*%
X224821250Y-80912500D03*
X224821250Y-78837500D03*
%TD*%
D40*
%TO.C,TP5*%
X228260000Y-97190000D03*
%TD*%
%TO.C,TP1*%
X205360000Y-97800000D03*
%TD*%
D60*
%TO.C,U4*%
X212352500Y-105011628D03*
X212352500Y-105511628D03*
X212352500Y-106011628D03*
X212352500Y-106511628D03*
D61*
X213040000Y-107199128D03*
X213540000Y-107199128D03*
X214040000Y-107199128D03*
X214540000Y-107199128D03*
D60*
X215227500Y-106511628D03*
X215227500Y-106011628D03*
X215227500Y-105511628D03*
X215227500Y-105011628D03*
D61*
X214540000Y-104324128D03*
X214040000Y-104324128D03*
X213540000Y-104324128D03*
X213040000Y-104324128D03*
D62*
X213790000Y-105761628D03*
%TD*%
D26*
%TO.C,C22*%
X216789000Y-81150000D03*
X216789000Y-79075000D03*
%TD*%
D33*
%TO.C,Q3*%
X220800000Y-105127500D03*
X218900000Y-105127500D03*
X219850000Y-107002500D03*
%TD*%
D63*
%TO.C,SW1*%
X215165000Y-110737500D03*
X219415000Y-110737500D03*
D64*
X216065000Y-109837500D03*
X218515000Y-109837500D03*
D65*
X217290000Y-109837500D03*
D66*
X215440000Y-111787500D03*
X219140000Y-111787500D03*
%TD*%
D14*
%TO.C,R15*%
X211800000Y-92250000D03*
X209975000Y-92250000D03*
%TD*%
%TO.C,R23*%
X220732500Y-96020000D03*
X218907500Y-96020000D03*
%TD*%
D40*
%TO.C,TP16*%
X1275000Y-1275000D03*
%TD*%
D37*
%TO.C,C30*%
X196337500Y-74000000D03*
X194262500Y-74000000D03*
%TD*%
D15*
%TO.C,R5*%
X201830000Y-84435000D03*
X201830000Y-82610000D03*
%TD*%
D31*
%TO.C,R25*%
X202287500Y-78210000D03*
X204112500Y-78210000D03*
%TD*%
D67*
%TO.C,R9*%
X234027500Y-110431100D03*
X236027500Y-110431100D03*
%TD*%
D25*
%TO.C,D5*%
X240965000Y-106087500D03*
X239215000Y-106087500D03*
%TD*%
D68*
%TO.C,J10*%
X198600000Y-111250000D03*
D69*
X198600000Y-108250000D03*
%TD*%
D70*
%TO.C,L2*%
X241454752Y-86151195D03*
X241454752Y-87121195D03*
%TD*%
D71*
%TO.C,SW3*%
X221750000Y-71600000D03*
X226450000Y-71600000D03*
%TD*%
D29*
%TO.C,C20*%
X213360000Y-91345000D03*
X213360000Y-89620000D03*
%TD*%
D56*
%TO.C,C5*%
X206865000Y-106717500D03*
X208590000Y-106717500D03*
%TD*%
D31*
%TO.C,R26*%
X210487500Y-83700000D03*
X212312500Y-83700000D03*
%TD*%
D32*
%TO.C,TP3*%
X208400000Y-82200000D03*
%TD*%
D72*
%TO.C,R8*%
X236027500Y-108084300D03*
X234027500Y-108084300D03*
%TD*%
D34*
%TO.C,C28*%
X196100000Y-71300000D03*
X194375000Y-71300000D03*
%TD*%
D40*
%TO.C,TP11*%
X208192500Y-108917500D03*
%TD*%
D73*
%TO.C,F1*%
X196300000Y-79800000D03*
X196300000Y-77000000D03*
%TD*%
D74*
%TO.C,U3*%
X205625000Y-86900000D03*
X205625000Y-87850000D03*
X205625000Y-88800000D03*
X207900000Y-88800000D03*
X207900000Y-87850000D03*
X207900000Y-86900000D03*
%TD*%
D13*
%TO.C,R3*%
X201820000Y-91460000D03*
X201820000Y-93285000D03*
%TD*%
D14*
%TO.C,R28*%
X228271250Y-94710000D03*
X226446250Y-94710000D03*
%TD*%
D42*
%TO.C,C1*%
X223570000Y-107580000D03*
X223570000Y-109655000D03*
%TD*%
D29*
%TO.C,C4*%
X225690000Y-105527500D03*
X225690000Y-103802500D03*
%TD*%
D75*
%TO.C,L1*%
X231290000Y-101937500D03*
X228290000Y-101937500D03*
%TD*%
D18*
%TO.C,H4*%
X239772500Y-109727500D03*
%TD*%
M02*
