%TF.GenerationSoftware,KiCad,Pcbnew,9.0.4*%
%TF.CreationDate,2025-11-04T12:24:41+07:00*%
%TF.ProjectId,anchor,616e6368-6f72-42e6-9b69-6361645f7063,rev?*%
%TF.SameCoordinates,Original*%
%TF.FileFunction,Legend,Top*%
%TF.FilePolarity,Positive*%
%FSLAX46Y46*%
G04 Gerber Fmt 4.6, Leading zero omitted, Abs format (unit mm)*
G04 Created by KiCad (PCBNEW 9.0.4) date 2025-11-04 12:24:41*
%MOMM*%
%LPD*%
G01*
G04 APERTURE LIST*
G04 Aperture macros list*
%AMRoundRect*
0 Rectangle with rounded corners*
0 $1 Rounding radius*
0 $2 $3 $4 $5 $6 $7 $8 $9 X,Y pos of 4 corners*
0 Add a 4 corners polygon primitive as box body*
4,1,4,$2,$3,$4,$5,$6,$7,$8,$9,$2,$3,0*
0 Add four circle primitives for the rounded corners*
1,1,$1+$1,$2,$3*
1,1,$1+$1,$4,$5*
1,1,$1+$1,$6,$7*
1,1,$1+$1,$8,$9*
0 Add four rect primitives between the rounded corners*
20,1,$1+$1,$2,$3,$4,$5,0*
20,1,$1+$1,$4,$5,$6,$7,0*
20,1,$1+$1,$6,$7,$8,$9,0*
20,1,$1+$1,$8,$9,$2,$3,0*%
%AMFreePoly0*
4,1,6,0.850000,0.000000,0.450000,-0.500000,-0.450000,-0.500000,-0.450000,0.500000,0.450000,0.500000,0.850000,0.000000,0.850000,0.000000,$1*%
%AMFreePoly1*
4,1,7,0.450000,-0.500000,-0.650000,-0.500000,-0.200000,-0.050000,-0.200000,0.050000,-0.650000,0.500000,0.450000,0.500000,0.450000,-0.500000,0.450000,-0.500000,$1*%
G04 Aperture macros list end*
%ADD10C,0.150000*%
%ADD11C,0.100000*%
%ADD12C,0.127000*%
%ADD13C,0.200000*%
%ADD14C,0.120000*%
%ADD15C,0.000000*%
%ADD16C,0.010000*%
%ADD17RoundRect,0.102000X0.300000X0.775000X-0.300000X0.775000X-0.300000X-0.775000X0.300000X-0.775000X0*%
%ADD18RoundRect,0.102000X0.600000X0.900000X-0.600000X0.900000X-0.600000X-0.900000X0.600000X-0.900000X0*%
%ADD19RoundRect,0.237500X-0.300000X-0.237500X0.300000X-0.237500X0.300000X0.237500X-0.300000X0.237500X0*%
%ADD20RoundRect,0.237500X0.250000X0.237500X-0.250000X0.237500X-0.250000X-0.237500X0.250000X-0.237500X0*%
%ADD21RoundRect,0.250000X0.337500X0.475000X-0.337500X0.475000X-0.337500X-0.475000X0.337500X-0.475000X0*%
%ADD22RoundRect,0.237500X-0.237500X0.300000X-0.237500X-0.300000X0.237500X-0.300000X0.237500X0.300000X0*%
%ADD23C,2.200000*%
%ADD24RoundRect,0.237500X0.237500X-0.287500X0.237500X0.287500X-0.237500X0.287500X-0.237500X-0.287500X0*%
%ADD25RoundRect,0.250000X-0.337500X-0.475000X0.337500X-0.475000X0.337500X0.475000X-0.337500X0.475000X0*%
%ADD26RoundRect,0.102000X-0.775000X0.300000X-0.775000X-0.300000X0.775000X-0.300000X0.775000X0.300000X0*%
%ADD27RoundRect,0.102000X-0.900000X0.600000X-0.900000X-0.600000X0.900000X-0.600000X0.900000X0.600000X0*%
%ADD28RoundRect,0.237500X-0.287500X-0.237500X0.287500X-0.237500X0.287500X0.237500X-0.287500X0.237500X0*%
%ADD29RoundRect,0.250000X0.475000X-0.337500X0.475000X0.337500X-0.475000X0.337500X-0.475000X-0.337500X0*%
%ADD30RoundRect,0.237500X0.237500X-0.300000X0.237500X0.300000X-0.237500X0.300000X-0.237500X-0.300000X0*%
%ADD31RoundRect,0.237500X-0.237500X0.250000X-0.237500X-0.250000X0.237500X-0.250000X0.237500X0.250000X0*%
%ADD32RoundRect,0.237500X0.300000X0.237500X-0.300000X0.237500X-0.300000X-0.237500X0.300000X-0.237500X0*%
%ADD33RoundRect,0.250000X0.350000X0.450000X-0.350000X0.450000X-0.350000X-0.450000X0.350000X-0.450000X0*%
%ADD34RoundRect,0.237500X0.237500X-0.250000X0.237500X0.250000X-0.237500X0.250000X-0.237500X-0.250000X0*%
%ADD35R,2.450000X1.000000*%
%ADD36R,1.000000X2.450000*%
%ADD37RoundRect,0.250000X0.350000X-0.450000X0.350000X0.450000X-0.350000X0.450000X-0.350000X-0.450000X0*%
%ADD38RoundRect,0.350000X0.550000X0.350000X-0.550000X0.350000X-0.550000X-0.350000X0.550000X-0.350000X0*%
%ADD39C,0.650000*%
%ADD40R,1.450000X0.600000*%
%ADD41R,1.450000X0.300000*%
%ADD42O,2.100000X1.000000*%
%ADD43O,1.600000X1.000000*%
%ADD44RoundRect,0.190000X-1.135000X-0.190000X1.135000X-0.190000X1.135000X0.190000X-1.135000X0.190000X0*%
%ADD45RoundRect,0.237500X0.287500X0.237500X-0.287500X0.237500X-0.287500X-0.237500X0.287500X-0.237500X0*%
%ADD46RoundRect,0.062500X0.375000X0.062500X-0.375000X0.062500X-0.375000X-0.062500X0.375000X-0.062500X0*%
%ADD47RoundRect,0.062500X0.062500X0.375000X-0.062500X0.375000X-0.062500X-0.375000X0.062500X-0.375000X0*%
%ADD48R,5.600000X5.600000*%
%ADD49RoundRect,0.237500X-0.250000X-0.237500X0.250000X-0.237500X0.250000X0.237500X-0.250000X0.237500X0*%
%ADD50R,0.600000X1.800000*%
%ADD51R,1.800000X0.600000*%
%ADD52RoundRect,0.112500X0.187500X0.112500X-0.187500X0.112500X-0.187500X-0.112500X0.187500X-0.112500X0*%
%ADD53RoundRect,0.250000X-0.475000X0.337500X-0.475000X-0.337500X0.475000X-0.337500X0.475000X0.337500X0*%
%ADD54R,0.800000X1.000000*%
%ADD55C,0.900000*%
%ADD56R,1.500000X0.700000*%
%ADD57RoundRect,0.102000X-0.300000X-0.775000X0.300000X-0.775000X0.300000X0.775000X-0.300000X0.775000X0*%
%ADD58RoundRect,0.102000X-0.600000X-0.900000X0.600000X-0.900000X0.600000X0.900000X-0.600000X0.900000X0*%
%ADD59RoundRect,0.350000X-0.550000X-0.350000X0.550000X-0.350000X0.550000X0.350000X-0.550000X0.350000X0*%
%ADD60RoundRect,0.062500X-0.375000X-0.062500X0.375000X-0.062500X0.375000X0.062500X-0.375000X0.062500X0*%
%ADD61RoundRect,0.062500X-0.062500X-0.375000X0.062500X-0.375000X0.062500X0.375000X-0.062500X0.375000X0*%
%ADD62R,1.600000X1.600000*%
%ADD63RoundRect,0.250000X0.625000X-0.375000X0.625000X0.375000X-0.625000X0.375000X-0.625000X-0.375000X0*%
%ADD64RoundRect,0.150000X-0.512500X-0.150000X0.512500X-0.150000X0.512500X0.150000X-0.512500X0.150000X0*%
%ADD65RoundRect,0.250000X-0.350000X-0.450000X0.350000X-0.450000X0.350000X0.450000X-0.350000X0.450000X0*%
%ADD66FreePoly0,0.000000*%
%ADD67FreePoly1,0.000000*%
%ADD68RoundRect,0.250000X0.300000X1.600000X-0.300000X1.600000X-0.300000X-1.600000X0.300000X-1.600000X0*%
G04 APERTURE END LIST*
D10*
X197848458Y-111744800D02*
X197391316Y-111744800D01*
D11*
X193817217Y-93858609D02*
X194126741Y-93858609D01*
X194126741Y-93858609D02*
X193960074Y-94049085D01*
X193960074Y-94049085D02*
X194031503Y-94049085D01*
X194031503Y-94049085D02*
X194079122Y-94072895D01*
X194079122Y-94072895D02*
X194102931Y-94096704D01*
X194102931Y-94096704D02*
X194126741Y-94144323D01*
X194126741Y-94144323D02*
X194126741Y-94263371D01*
X194126741Y-94263371D02*
X194102931Y-94310990D01*
X194102931Y-94310990D02*
X194079122Y-94334800D01*
X194079122Y-94334800D02*
X194031503Y-94358609D01*
X194031503Y-94358609D02*
X193888646Y-94358609D01*
X193888646Y-94358609D02*
X193841027Y-94334800D01*
X193841027Y-94334800D02*
X193817217Y-94310990D01*
X194269598Y-93858609D02*
X194436264Y-94358609D01*
X194436264Y-94358609D02*
X194602931Y-93858609D01*
X194721978Y-93858609D02*
X195031502Y-93858609D01*
X195031502Y-93858609D02*
X194864835Y-94049085D01*
X194864835Y-94049085D02*
X194936264Y-94049085D01*
X194936264Y-94049085D02*
X194983883Y-94072895D01*
X194983883Y-94072895D02*
X195007692Y-94096704D01*
X195007692Y-94096704D02*
X195031502Y-94144323D01*
X195031502Y-94144323D02*
X195031502Y-94263371D01*
X195031502Y-94263371D02*
X195007692Y-94310990D01*
X195007692Y-94310990D02*
X194983883Y-94334800D01*
X194983883Y-94334800D02*
X194936264Y-94358609D01*
X194936264Y-94358609D02*
X194793407Y-94358609D01*
X194793407Y-94358609D02*
X194745788Y-94334800D01*
X194745788Y-94334800D02*
X194721978Y-94310990D01*
X195602930Y-94334800D02*
X195674358Y-94358609D01*
X195674358Y-94358609D02*
X195793406Y-94358609D01*
X195793406Y-94358609D02*
X195841025Y-94334800D01*
X195841025Y-94334800D02*
X195864834Y-94310990D01*
X195864834Y-94310990D02*
X195888644Y-94263371D01*
X195888644Y-94263371D02*
X195888644Y-94215752D01*
X195888644Y-94215752D02*
X195864834Y-94168133D01*
X195864834Y-94168133D02*
X195841025Y-94144323D01*
X195841025Y-94144323D02*
X195793406Y-94120514D01*
X195793406Y-94120514D02*
X195698168Y-94096704D01*
X195698168Y-94096704D02*
X195650549Y-94072895D01*
X195650549Y-94072895D02*
X195626739Y-94049085D01*
X195626739Y-94049085D02*
X195602930Y-94001466D01*
X195602930Y-94001466D02*
X195602930Y-93953847D01*
X195602930Y-93953847D02*
X195626739Y-93906228D01*
X195626739Y-93906228D02*
X195650549Y-93882419D01*
X195650549Y-93882419D02*
X195698168Y-93858609D01*
X195698168Y-93858609D02*
X195817215Y-93858609D01*
X195817215Y-93858609D02*
X195888644Y-93882419D01*
X196055310Y-93858609D02*
X196174358Y-94358609D01*
X196174358Y-94358609D02*
X196269596Y-94001466D01*
X196269596Y-94001466D02*
X196364834Y-94358609D01*
X196364834Y-94358609D02*
X196483882Y-93858609D01*
X196650549Y-94334800D02*
X196721977Y-94358609D01*
X196721977Y-94358609D02*
X196841025Y-94358609D01*
X196841025Y-94358609D02*
X196888644Y-94334800D01*
X196888644Y-94334800D02*
X196912453Y-94310990D01*
X196912453Y-94310990D02*
X196936263Y-94263371D01*
X196936263Y-94263371D02*
X196936263Y-94215752D01*
X196936263Y-94215752D02*
X196912453Y-94168133D01*
X196912453Y-94168133D02*
X196888644Y-94144323D01*
X196888644Y-94144323D02*
X196841025Y-94120514D01*
X196841025Y-94120514D02*
X196745787Y-94096704D01*
X196745787Y-94096704D02*
X196698168Y-94072895D01*
X196698168Y-94072895D02*
X196674358Y-94049085D01*
X196674358Y-94049085D02*
X196650549Y-94001466D01*
X196650549Y-94001466D02*
X196650549Y-93953847D01*
X196650549Y-93953847D02*
X196674358Y-93906228D01*
X196674358Y-93906228D02*
X196698168Y-93882419D01*
X196698168Y-93882419D02*
X196745787Y-93858609D01*
X196745787Y-93858609D02*
X196864834Y-93858609D01*
X196864834Y-93858609D02*
X196936263Y-93882419D01*
X197388643Y-94358609D02*
X197150548Y-94358609D01*
X197150548Y-94358609D02*
X197150548Y-93858609D01*
X197555310Y-94358609D02*
X197555310Y-93858609D01*
X197841024Y-94358609D02*
X197626739Y-94072895D01*
X197841024Y-93858609D02*
X197555310Y-94144323D01*
X198412453Y-94334800D02*
X198483881Y-94358609D01*
X198483881Y-94358609D02*
X198602929Y-94358609D01*
X198602929Y-94358609D02*
X198650548Y-94334800D01*
X198650548Y-94334800D02*
X198674357Y-94310990D01*
X198674357Y-94310990D02*
X198698167Y-94263371D01*
X198698167Y-94263371D02*
X198698167Y-94215752D01*
X198698167Y-94215752D02*
X198674357Y-94168133D01*
X198674357Y-94168133D02*
X198650548Y-94144323D01*
X198650548Y-94144323D02*
X198602929Y-94120514D01*
X198602929Y-94120514D02*
X198507691Y-94096704D01*
X198507691Y-94096704D02*
X198460072Y-94072895D01*
X198460072Y-94072895D02*
X198436262Y-94049085D01*
X198436262Y-94049085D02*
X198412453Y-94001466D01*
X198412453Y-94001466D02*
X198412453Y-93953847D01*
X198412453Y-93953847D02*
X198436262Y-93906228D01*
X198436262Y-93906228D02*
X198460072Y-93882419D01*
X198460072Y-93882419D02*
X198507691Y-93858609D01*
X198507691Y-93858609D02*
X198626738Y-93858609D01*
X198626738Y-93858609D02*
X198698167Y-93882419D01*
X198864833Y-93858609D02*
X198983881Y-94358609D01*
X198983881Y-94358609D02*
X199079119Y-94001466D01*
X199079119Y-94001466D02*
X199174357Y-94358609D01*
X199174357Y-94358609D02*
X199293405Y-93858609D01*
X199483881Y-94358609D02*
X199483881Y-93858609D01*
X199483881Y-93858609D02*
X199602929Y-93858609D01*
X199602929Y-93858609D02*
X199674357Y-93882419D01*
X199674357Y-93882419D02*
X199721976Y-93930038D01*
X199721976Y-93930038D02*
X199745786Y-93977657D01*
X199745786Y-93977657D02*
X199769595Y-94072895D01*
X199769595Y-94072895D02*
X199769595Y-94144323D01*
X199769595Y-94144323D02*
X199745786Y-94239561D01*
X199745786Y-94239561D02*
X199721976Y-94287180D01*
X199721976Y-94287180D02*
X199674357Y-94334800D01*
X199674357Y-94334800D02*
X199602929Y-94358609D01*
X199602929Y-94358609D02*
X199483881Y-94358609D01*
X199983881Y-94358609D02*
X199983881Y-93858609D01*
X200317214Y-93858609D02*
X200412452Y-93858609D01*
X200412452Y-93858609D02*
X200460071Y-93882419D01*
X200460071Y-93882419D02*
X200507690Y-93930038D01*
X200507690Y-93930038D02*
X200531500Y-94025276D01*
X200531500Y-94025276D02*
X200531500Y-94191942D01*
X200531500Y-94191942D02*
X200507690Y-94287180D01*
X200507690Y-94287180D02*
X200460071Y-94334800D01*
X200460071Y-94334800D02*
X200412452Y-94358609D01*
X200412452Y-94358609D02*
X200317214Y-94358609D01*
X200317214Y-94358609D02*
X200269595Y-94334800D01*
X200269595Y-94334800D02*
X200221976Y-94287180D01*
X200221976Y-94287180D02*
X200198167Y-94191942D01*
X200198167Y-94191942D02*
X200198167Y-94025276D01*
X200198167Y-94025276D02*
X200221976Y-93930038D01*
X200221976Y-93930038D02*
X200269595Y-93882419D01*
X200269595Y-93882419D02*
X200317214Y-93858609D01*
X201388643Y-93882419D02*
X201341024Y-93858609D01*
X201341024Y-93858609D02*
X201269595Y-93858609D01*
X201269595Y-93858609D02*
X201198167Y-93882419D01*
X201198167Y-93882419D02*
X201150548Y-93930038D01*
X201150548Y-93930038D02*
X201126738Y-93977657D01*
X201126738Y-93977657D02*
X201102929Y-94072895D01*
X201102929Y-94072895D02*
X201102929Y-94144323D01*
X201102929Y-94144323D02*
X201126738Y-94239561D01*
X201126738Y-94239561D02*
X201150548Y-94287180D01*
X201150548Y-94287180D02*
X201198167Y-94334800D01*
X201198167Y-94334800D02*
X201269595Y-94358609D01*
X201269595Y-94358609D02*
X201317214Y-94358609D01*
X201317214Y-94358609D02*
X201388643Y-94334800D01*
X201388643Y-94334800D02*
X201412452Y-94310990D01*
X201412452Y-94310990D02*
X201412452Y-94144323D01*
X201412452Y-94144323D02*
X201317214Y-94144323D01*
X201626738Y-94358609D02*
X201626738Y-93858609D01*
X201626738Y-93858609D02*
X201912452Y-94358609D01*
X201912452Y-94358609D02*
X201912452Y-93858609D01*
X202150548Y-94358609D02*
X202150548Y-93858609D01*
X202150548Y-93858609D02*
X202269596Y-93858609D01*
X202269596Y-93858609D02*
X202341024Y-93882419D01*
X202341024Y-93882419D02*
X202388643Y-93930038D01*
X202388643Y-93930038D02*
X202412453Y-93977657D01*
X202412453Y-93977657D02*
X202436262Y-94072895D01*
X202436262Y-94072895D02*
X202436262Y-94144323D01*
X202436262Y-94144323D02*
X202412453Y-94239561D01*
X202412453Y-94239561D02*
X202388643Y-94287180D01*
X202388643Y-94287180D02*
X202341024Y-94334800D01*
X202341024Y-94334800D02*
X202269596Y-94358609D01*
X202269596Y-94358609D02*
X202150548Y-94358609D01*
X241127419Y-96363258D02*
X241103609Y-96410877D01*
X241103609Y-96410877D02*
X241103609Y-96482306D01*
X241103609Y-96482306D02*
X241127419Y-96553734D01*
X241127419Y-96553734D02*
X241175038Y-96601353D01*
X241175038Y-96601353D02*
X241222657Y-96625163D01*
X241222657Y-96625163D02*
X241317895Y-96648972D01*
X241317895Y-96648972D02*
X241389323Y-96648972D01*
X241389323Y-96648972D02*
X241484561Y-96625163D01*
X241484561Y-96625163D02*
X241532180Y-96601353D01*
X241532180Y-96601353D02*
X241579800Y-96553734D01*
X241579800Y-96553734D02*
X241603609Y-96482306D01*
X241603609Y-96482306D02*
X241603609Y-96434687D01*
X241603609Y-96434687D02*
X241579800Y-96363258D01*
X241579800Y-96363258D02*
X241555990Y-96339449D01*
X241555990Y-96339449D02*
X241389323Y-96339449D01*
X241389323Y-96339449D02*
X241389323Y-96434687D01*
X241603609Y-96125163D02*
X241103609Y-96125163D01*
X241103609Y-96125163D02*
X241603609Y-95839449D01*
X241603609Y-95839449D02*
X241103609Y-95839449D01*
X241603609Y-95601353D02*
X241103609Y-95601353D01*
X241103609Y-95601353D02*
X241103609Y-95482305D01*
X241103609Y-95482305D02*
X241127419Y-95410877D01*
X241127419Y-95410877D02*
X241175038Y-95363258D01*
X241175038Y-95363258D02*
X241222657Y-95339448D01*
X241222657Y-95339448D02*
X241317895Y-95315639D01*
X241317895Y-95315639D02*
X241389323Y-95315639D01*
X241389323Y-95315639D02*
X241484561Y-95339448D01*
X241484561Y-95339448D02*
X241532180Y-95363258D01*
X241532180Y-95363258D02*
X241579800Y-95410877D01*
X241579800Y-95410877D02*
X241603609Y-95482305D01*
X241603609Y-95482305D02*
X241603609Y-95601353D01*
X241603609Y-94434687D02*
X241365514Y-94601353D01*
X241603609Y-94720401D02*
X241103609Y-94720401D01*
X241103609Y-94720401D02*
X241103609Y-94529925D01*
X241103609Y-94529925D02*
X241127419Y-94482306D01*
X241127419Y-94482306D02*
X241151228Y-94458496D01*
X241151228Y-94458496D02*
X241198847Y-94434687D01*
X241198847Y-94434687D02*
X241270276Y-94434687D01*
X241270276Y-94434687D02*
X241317895Y-94458496D01*
X241317895Y-94458496D02*
X241341704Y-94482306D01*
X241341704Y-94482306D02*
X241365514Y-94529925D01*
X241365514Y-94529925D02*
X241365514Y-94720401D01*
X241579800Y-94244210D02*
X241603609Y-94172782D01*
X241603609Y-94172782D02*
X241603609Y-94053734D01*
X241603609Y-94053734D02*
X241579800Y-94006115D01*
X241579800Y-94006115D02*
X241555990Y-93982306D01*
X241555990Y-93982306D02*
X241508371Y-93958496D01*
X241508371Y-93958496D02*
X241460752Y-93958496D01*
X241460752Y-93958496D02*
X241413133Y-93982306D01*
X241413133Y-93982306D02*
X241389323Y-94006115D01*
X241389323Y-94006115D02*
X241365514Y-94053734D01*
X241365514Y-94053734D02*
X241341704Y-94148972D01*
X241341704Y-94148972D02*
X241317895Y-94196591D01*
X241317895Y-94196591D02*
X241294085Y-94220401D01*
X241294085Y-94220401D02*
X241246466Y-94244210D01*
X241246466Y-94244210D02*
X241198847Y-94244210D01*
X241198847Y-94244210D02*
X241151228Y-94220401D01*
X241151228Y-94220401D02*
X241127419Y-94196591D01*
X241127419Y-94196591D02*
X241103609Y-94148972D01*
X241103609Y-94148972D02*
X241103609Y-94029925D01*
X241103609Y-94029925D02*
X241127419Y-93958496D01*
X241103609Y-93815639D02*
X241103609Y-93529925D01*
X241603609Y-93672782D02*
X241103609Y-93672782D01*
X241579800Y-93006116D02*
X241603609Y-92934688D01*
X241603609Y-92934688D02*
X241603609Y-92815640D01*
X241603609Y-92815640D02*
X241579800Y-92768021D01*
X241579800Y-92768021D02*
X241555990Y-92744212D01*
X241555990Y-92744212D02*
X241508371Y-92720402D01*
X241508371Y-92720402D02*
X241460752Y-92720402D01*
X241460752Y-92720402D02*
X241413133Y-92744212D01*
X241413133Y-92744212D02*
X241389323Y-92768021D01*
X241389323Y-92768021D02*
X241365514Y-92815640D01*
X241365514Y-92815640D02*
X241341704Y-92910878D01*
X241341704Y-92910878D02*
X241317895Y-92958497D01*
X241317895Y-92958497D02*
X241294085Y-92982307D01*
X241294085Y-92982307D02*
X241246466Y-93006116D01*
X241246466Y-93006116D02*
X241198847Y-93006116D01*
X241198847Y-93006116D02*
X241151228Y-92982307D01*
X241151228Y-92982307D02*
X241127419Y-92958497D01*
X241127419Y-92958497D02*
X241103609Y-92910878D01*
X241103609Y-92910878D02*
X241103609Y-92791831D01*
X241103609Y-92791831D02*
X241127419Y-92720402D01*
X241103609Y-92553736D02*
X241603609Y-92434688D01*
X241603609Y-92434688D02*
X241246466Y-92339450D01*
X241246466Y-92339450D02*
X241603609Y-92244212D01*
X241603609Y-92244212D02*
X241103609Y-92125165D01*
X241579800Y-91958497D02*
X241603609Y-91887069D01*
X241603609Y-91887069D02*
X241603609Y-91768021D01*
X241603609Y-91768021D02*
X241579800Y-91720402D01*
X241579800Y-91720402D02*
X241555990Y-91696593D01*
X241555990Y-91696593D02*
X241508371Y-91672783D01*
X241508371Y-91672783D02*
X241460752Y-91672783D01*
X241460752Y-91672783D02*
X241413133Y-91696593D01*
X241413133Y-91696593D02*
X241389323Y-91720402D01*
X241389323Y-91720402D02*
X241365514Y-91768021D01*
X241365514Y-91768021D02*
X241341704Y-91863259D01*
X241341704Y-91863259D02*
X241317895Y-91910878D01*
X241317895Y-91910878D02*
X241294085Y-91934688D01*
X241294085Y-91934688D02*
X241246466Y-91958497D01*
X241246466Y-91958497D02*
X241198847Y-91958497D01*
X241198847Y-91958497D02*
X241151228Y-91934688D01*
X241151228Y-91934688D02*
X241127419Y-91910878D01*
X241127419Y-91910878D02*
X241103609Y-91863259D01*
X241103609Y-91863259D02*
X241103609Y-91744212D01*
X241103609Y-91744212D02*
X241127419Y-91672783D01*
X241603609Y-91220403D02*
X241603609Y-91458498D01*
X241603609Y-91458498D02*
X241103609Y-91458498D01*
X241603609Y-91053736D02*
X241103609Y-91053736D01*
X241603609Y-90768022D02*
X241317895Y-90982307D01*
X241103609Y-90768022D02*
X241389323Y-91053736D01*
X241579800Y-90196593D02*
X241603609Y-90125165D01*
X241603609Y-90125165D02*
X241603609Y-90006117D01*
X241603609Y-90006117D02*
X241579800Y-89958498D01*
X241579800Y-89958498D02*
X241555990Y-89934689D01*
X241555990Y-89934689D02*
X241508371Y-89910879D01*
X241508371Y-89910879D02*
X241460752Y-89910879D01*
X241460752Y-89910879D02*
X241413133Y-89934689D01*
X241413133Y-89934689D02*
X241389323Y-89958498D01*
X241389323Y-89958498D02*
X241365514Y-90006117D01*
X241365514Y-90006117D02*
X241341704Y-90101355D01*
X241341704Y-90101355D02*
X241317895Y-90148974D01*
X241317895Y-90148974D02*
X241294085Y-90172784D01*
X241294085Y-90172784D02*
X241246466Y-90196593D01*
X241246466Y-90196593D02*
X241198847Y-90196593D01*
X241198847Y-90196593D02*
X241151228Y-90172784D01*
X241151228Y-90172784D02*
X241127419Y-90148974D01*
X241127419Y-90148974D02*
X241103609Y-90101355D01*
X241103609Y-90101355D02*
X241103609Y-89982308D01*
X241103609Y-89982308D02*
X241127419Y-89910879D01*
X241103609Y-89744213D02*
X241603609Y-89625165D01*
X241603609Y-89625165D02*
X241246466Y-89529927D01*
X241246466Y-89529927D02*
X241603609Y-89434689D01*
X241603609Y-89434689D02*
X241103609Y-89315642D01*
X241603609Y-89125165D02*
X241103609Y-89125165D01*
X241103609Y-89125165D02*
X241103609Y-89006117D01*
X241103609Y-89006117D02*
X241127419Y-88934689D01*
X241127419Y-88934689D02*
X241175038Y-88887070D01*
X241175038Y-88887070D02*
X241222657Y-88863260D01*
X241222657Y-88863260D02*
X241317895Y-88839451D01*
X241317895Y-88839451D02*
X241389323Y-88839451D01*
X241389323Y-88839451D02*
X241484561Y-88863260D01*
X241484561Y-88863260D02*
X241532180Y-88887070D01*
X241532180Y-88887070D02*
X241579800Y-88934689D01*
X241579800Y-88934689D02*
X241603609Y-89006117D01*
X241603609Y-89006117D02*
X241603609Y-89125165D01*
X241603609Y-88625165D02*
X241103609Y-88625165D01*
X241103609Y-88291832D02*
X241103609Y-88196594D01*
X241103609Y-88196594D02*
X241127419Y-88148975D01*
X241127419Y-88148975D02*
X241175038Y-88101356D01*
X241175038Y-88101356D02*
X241270276Y-88077546D01*
X241270276Y-88077546D02*
X241436942Y-88077546D01*
X241436942Y-88077546D02*
X241532180Y-88101356D01*
X241532180Y-88101356D02*
X241579800Y-88148975D01*
X241579800Y-88148975D02*
X241603609Y-88196594D01*
X241603609Y-88196594D02*
X241603609Y-88291832D01*
X241603609Y-88291832D02*
X241579800Y-88339451D01*
X241579800Y-88339451D02*
X241532180Y-88387070D01*
X241532180Y-88387070D02*
X241436942Y-88410879D01*
X241436942Y-88410879D02*
X241270276Y-88410879D01*
X241270276Y-88410879D02*
X241175038Y-88387070D01*
X241175038Y-88387070D02*
X241127419Y-88339451D01*
X241127419Y-88339451D02*
X241103609Y-88291832D01*
X241103609Y-87529927D02*
X241103609Y-87220403D01*
X241103609Y-87220403D02*
X241294085Y-87387070D01*
X241294085Y-87387070D02*
X241294085Y-87315641D01*
X241294085Y-87315641D02*
X241317895Y-87268022D01*
X241317895Y-87268022D02*
X241341704Y-87244213D01*
X241341704Y-87244213D02*
X241389323Y-87220403D01*
X241389323Y-87220403D02*
X241508371Y-87220403D01*
X241508371Y-87220403D02*
X241555990Y-87244213D01*
X241555990Y-87244213D02*
X241579800Y-87268022D01*
X241579800Y-87268022D02*
X241603609Y-87315641D01*
X241603609Y-87315641D02*
X241603609Y-87458498D01*
X241603609Y-87458498D02*
X241579800Y-87506117D01*
X241579800Y-87506117D02*
X241555990Y-87529927D01*
X241103609Y-87077546D02*
X241603609Y-86910880D01*
X241603609Y-86910880D02*
X241103609Y-86744213D01*
X241103609Y-86625166D02*
X241103609Y-86315642D01*
X241103609Y-86315642D02*
X241294085Y-86482309D01*
X241294085Y-86482309D02*
X241294085Y-86410880D01*
X241294085Y-86410880D02*
X241317895Y-86363261D01*
X241317895Y-86363261D02*
X241341704Y-86339452D01*
X241341704Y-86339452D02*
X241389323Y-86315642D01*
X241389323Y-86315642D02*
X241508371Y-86315642D01*
X241508371Y-86315642D02*
X241555990Y-86339452D01*
X241555990Y-86339452D02*
X241579800Y-86363261D01*
X241579800Y-86363261D02*
X241603609Y-86410880D01*
X241603609Y-86410880D02*
X241603609Y-86553737D01*
X241603609Y-86553737D02*
X241579800Y-86601356D01*
X241579800Y-86601356D02*
X241555990Y-86625166D01*
D10*
X202858458Y-111699800D02*
X202401316Y-111699800D01*
X202629887Y-111471228D02*
X202629887Y-111928371D01*
G36*
X198645199Y-111759608D02*
G01*
X198652646Y-111767055D01*
X198667857Y-111797476D01*
X198667857Y-111847779D01*
X198652645Y-111878201D01*
X198641285Y-111889561D01*
X198610867Y-111904771D01*
X198475000Y-111904771D01*
X198475000Y-111740485D01*
X198587829Y-111740485D01*
X198645199Y-111759608D01*
G37*
G36*
X198612714Y-111469980D02*
G01*
X198624074Y-111481340D01*
X198639285Y-111511761D01*
X198639285Y-111533495D01*
X198624074Y-111563915D01*
X198612714Y-111575275D01*
X198582296Y-111590485D01*
X198475000Y-111590485D01*
X198475000Y-111454771D01*
X198582296Y-111454771D01*
X198612714Y-111469980D01*
G37*
G36*
X201212714Y-111469980D02*
G01*
X201224074Y-111481340D01*
X201239286Y-111511762D01*
X201239286Y-111562065D01*
X201224075Y-111592486D01*
X201212716Y-111603845D01*
X201182294Y-111619057D01*
X201046429Y-111619057D01*
X201046429Y-111454771D01*
X201182296Y-111454771D01*
X201212714Y-111469980D01*
G37*
G36*
X199153085Y-111733342D02*
G01*
X199075485Y-111733342D01*
X199114284Y-111616941D01*
X199153085Y-111733342D01*
G37*
G36*
X202035695Y-112129771D02*
G01*
X198250000Y-112129771D01*
X198250000Y-111379771D01*
X198325000Y-111379771D01*
X198325000Y-111979771D01*
X198326441Y-111994403D01*
X198337640Y-112021439D01*
X198358332Y-112042131D01*
X198385368Y-112053330D01*
X198400000Y-112054771D01*
X198628571Y-112054771D01*
X198643203Y-112053330D01*
X198645692Y-112052298D01*
X198648380Y-112052108D01*
X198662112Y-112046853D01*
X198719255Y-112018282D01*
X198725552Y-112014318D01*
X198727383Y-112013560D01*
X198729442Y-112011869D01*
X198731698Y-112010450D01*
X198732996Y-112008952D01*
X198738748Y-112004232D01*
X198767319Y-111975660D01*
X198771643Y-111970391D01*
X198839874Y-111970391D01*
X198841949Y-111999581D01*
X198855035Y-112025754D01*
X198877142Y-112044928D01*
X198904905Y-112054182D01*
X198934095Y-112052107D01*
X198960268Y-112039021D01*
X198979442Y-112016914D01*
X198985436Y-112003488D01*
X199025485Y-111883342D01*
X199203085Y-111883342D01*
X199243134Y-112003489D01*
X199249128Y-112016914D01*
X199268302Y-112039021D01*
X199294475Y-112052108D01*
X199323665Y-112054183D01*
X199351428Y-112044929D01*
X199373535Y-112025755D01*
X199386622Y-111999581D01*
X199388696Y-111970391D01*
X199385436Y-111956054D01*
X199188464Y-111365139D01*
X199355012Y-111365139D01*
X199355012Y-111394403D01*
X199366211Y-111421439D01*
X199386903Y-111442131D01*
X199413939Y-111453330D01*
X199428571Y-111454771D01*
X199525000Y-111454771D01*
X199525000Y-111979771D01*
X199526441Y-111994403D01*
X199537640Y-112021439D01*
X199558332Y-112042131D01*
X199585368Y-112053330D01*
X199614632Y-112053330D01*
X199641668Y-112042131D01*
X199662360Y-112021439D01*
X199673559Y-111994403D01*
X199675000Y-111979771D01*
X199675000Y-111454771D01*
X199771429Y-111454771D01*
X199786061Y-111453330D01*
X199813097Y-111442131D01*
X199828571Y-111426656D01*
X199844046Y-111442131D01*
X199871082Y-111453330D01*
X199885714Y-111454771D01*
X199982143Y-111454771D01*
X199982143Y-111979771D01*
X199983584Y-111994403D01*
X199994783Y-112021439D01*
X200015475Y-112042131D01*
X200042511Y-112053330D01*
X200071775Y-112053330D01*
X200098811Y-112042131D01*
X200119503Y-112021439D01*
X200130702Y-111994403D01*
X200132143Y-111979771D01*
X200132143Y-111454771D01*
X200228572Y-111454771D01*
X200243204Y-111453330D01*
X200270240Y-111442131D01*
X200290932Y-111421439D01*
X200302131Y-111394403D01*
X200302131Y-111379771D01*
X200353572Y-111379771D01*
X200353572Y-111979771D01*
X200355013Y-111994403D01*
X200366212Y-112021439D01*
X200386904Y-112042131D01*
X200413940Y-112053330D01*
X200428572Y-112054771D01*
X200714286Y-112054771D01*
X200728918Y-112053330D01*
X200755954Y-112042131D01*
X200776646Y-112021439D01*
X200787845Y-111994403D01*
X200787845Y-111965139D01*
X200776646Y-111938103D01*
X200755954Y-111917411D01*
X200728918Y-111906212D01*
X200714286Y-111904771D01*
X200503572Y-111904771D01*
X200503572Y-111740485D01*
X200628572Y-111740485D01*
X200643204Y-111739044D01*
X200670240Y-111727845D01*
X200690932Y-111707153D01*
X200702131Y-111680117D01*
X200702131Y-111650853D01*
X200690932Y-111623817D01*
X200670240Y-111603125D01*
X200643204Y-111591926D01*
X200628572Y-111590485D01*
X200503572Y-111590485D01*
X200503572Y-111454771D01*
X200714286Y-111454771D01*
X200728918Y-111453330D01*
X200755954Y-111442131D01*
X200776646Y-111421439D01*
X200787845Y-111394403D01*
X200787845Y-111379771D01*
X200896429Y-111379771D01*
X200896429Y-111979771D01*
X200897870Y-111994403D01*
X200909069Y-112021439D01*
X200929761Y-112042131D01*
X200956797Y-112053330D01*
X200986061Y-112053330D01*
X201013097Y-112042131D01*
X201033789Y-112021439D01*
X201044988Y-111994403D01*
X201046429Y-111979771D01*
X201046429Y-111769057D01*
X201075237Y-111769057D01*
X201252843Y-112022780D01*
X201262415Y-112033941D01*
X201287093Y-112049667D01*
X201315911Y-112054753D01*
X201344482Y-112048423D01*
X201368456Y-112031642D01*
X201384183Y-112006963D01*
X201389268Y-111978145D01*
X201382938Y-111949574D01*
X201375728Y-111936761D01*
X201247801Y-111754008D01*
X201290684Y-111732567D01*
X201296980Y-111728603D01*
X201298811Y-111727845D01*
X201300872Y-111726153D01*
X201303127Y-111724734D01*
X201304423Y-111723238D01*
X201310176Y-111718518D01*
X201338747Y-111689947D01*
X201343467Y-111684194D01*
X201344963Y-111682898D01*
X201346382Y-111680643D01*
X201348074Y-111678582D01*
X201348832Y-111676751D01*
X201352796Y-111670455D01*
X201381368Y-111613313D01*
X201386623Y-111599581D01*
X201386814Y-111596891D01*
X201387845Y-111594403D01*
X201389286Y-111579771D01*
X201389286Y-111494057D01*
X201387845Y-111479425D01*
X201386814Y-111476936D01*
X201386623Y-111474247D01*
X201381368Y-111460515D01*
X201352796Y-111403373D01*
X201348833Y-111397078D01*
X201348075Y-111395247D01*
X201346381Y-111393183D01*
X201344963Y-111390930D01*
X201343468Y-111389633D01*
X201338748Y-111383882D01*
X201332963Y-111378097D01*
X201410733Y-111378097D01*
X201415800Y-111406919D01*
X201422439Y-111420037D01*
X201610714Y-111715897D01*
X201610714Y-111979771D01*
X201612155Y-111994403D01*
X201623354Y-112021439D01*
X201644046Y-112042131D01*
X201671082Y-112053330D01*
X201700346Y-112053330D01*
X201727382Y-112042131D01*
X201748074Y-112021439D01*
X201759273Y-111994403D01*
X201760714Y-111979771D01*
X201760714Y-111715897D01*
X201948989Y-111420037D01*
X201955628Y-111406919D01*
X201960695Y-111378097D01*
X201954347Y-111349531D01*
X201937550Y-111325568D01*
X201912861Y-111309857D01*
X201884040Y-111304790D01*
X201855474Y-111311138D01*
X201831511Y-111327935D01*
X201822439Y-111339505D01*
X201685714Y-111554358D01*
X201548989Y-111339505D01*
X201539917Y-111327935D01*
X201515954Y-111311138D01*
X201487388Y-111304790D01*
X201458566Y-111309857D01*
X201433878Y-111325568D01*
X201417081Y-111349531D01*
X201410733Y-111378097D01*
X201332963Y-111378097D01*
X201310177Y-111355310D01*
X201304425Y-111350589D01*
X201303127Y-111349092D01*
X201300871Y-111347672D01*
X201298812Y-111345982D01*
X201296981Y-111345223D01*
X201290684Y-111341260D01*
X201233541Y-111312689D01*
X201219809Y-111307434D01*
X201217121Y-111307243D01*
X201214632Y-111306212D01*
X201200000Y-111304771D01*
X200971429Y-111304771D01*
X200956797Y-111306212D01*
X200929761Y-111317411D01*
X200909069Y-111338103D01*
X200897870Y-111365139D01*
X200896429Y-111379771D01*
X200787845Y-111379771D01*
X200787845Y-111365139D01*
X200776646Y-111338103D01*
X200755954Y-111317411D01*
X200728918Y-111306212D01*
X200714286Y-111304771D01*
X200428572Y-111304771D01*
X200413940Y-111306212D01*
X200386904Y-111317411D01*
X200366212Y-111338103D01*
X200355013Y-111365139D01*
X200353572Y-111379771D01*
X200302131Y-111379771D01*
X200302131Y-111365139D01*
X200290932Y-111338103D01*
X200270240Y-111317411D01*
X200243204Y-111306212D01*
X200228572Y-111304771D01*
X199885714Y-111304771D01*
X199871082Y-111306212D01*
X199844046Y-111317411D01*
X199828571Y-111332885D01*
X199813097Y-111317411D01*
X199786061Y-111306212D01*
X199771429Y-111304771D01*
X199428571Y-111304771D01*
X199413939Y-111306212D01*
X199386903Y-111317411D01*
X199366211Y-111338103D01*
X199355012Y-111365139D01*
X199188464Y-111365139D01*
X199185436Y-111356054D01*
X199179442Y-111342628D01*
X199175932Y-111338581D01*
X199173535Y-111333787D01*
X199166426Y-111327621D01*
X199160268Y-111320521D01*
X199155479Y-111318126D01*
X199151428Y-111314613D01*
X199142498Y-111311636D01*
X199134095Y-111307435D01*
X199128754Y-111307055D01*
X199123665Y-111305359D01*
X199114277Y-111306026D01*
X199104905Y-111305360D01*
X199099823Y-111307053D01*
X199094475Y-111307434D01*
X199086061Y-111311640D01*
X199077142Y-111314614D01*
X199073094Y-111318124D01*
X199068302Y-111320521D01*
X199062139Y-111327625D01*
X199055035Y-111333788D01*
X199052639Y-111338579D01*
X199049128Y-111342628D01*
X199043134Y-111356053D01*
X198843134Y-111956054D01*
X198839874Y-111970391D01*
X198771643Y-111970391D01*
X198772039Y-111969908D01*
X198773534Y-111968612D01*
X198774952Y-111966358D01*
X198776646Y-111964295D01*
X198777404Y-111962463D01*
X198781367Y-111956169D01*
X198809939Y-111899027D01*
X198815194Y-111885295D01*
X198815385Y-111882605D01*
X198816416Y-111880117D01*
X198817857Y-111865485D01*
X198817857Y-111779771D01*
X198816416Y-111765139D01*
X198815385Y-111762650D01*
X198815194Y-111759961D01*
X198809939Y-111746229D01*
X198781367Y-111689087D01*
X198777403Y-111682790D01*
X198776645Y-111680960D01*
X198774953Y-111678898D01*
X198773534Y-111676644D01*
X198772038Y-111675347D01*
X198767318Y-111669595D01*
X198747920Y-111650197D01*
X198748075Y-111650009D01*
X198748832Y-111648179D01*
X198752796Y-111641883D01*
X198781367Y-111584741D01*
X198786622Y-111571009D01*
X198786812Y-111568321D01*
X198787844Y-111565832D01*
X198789285Y-111551200D01*
X198789285Y-111494057D01*
X198787844Y-111479425D01*
X198786812Y-111476935D01*
X198786622Y-111474249D01*
X198781367Y-111460517D01*
X198752796Y-111403373D01*
X198748833Y-111397077D01*
X198748075Y-111395247D01*
X198746383Y-111393185D01*
X198744964Y-111390931D01*
X198743468Y-111389634D01*
X198738748Y-111383882D01*
X198710177Y-111355310D01*
X198704425Y-111350589D01*
X198703127Y-111349092D01*
X198700871Y-111347672D01*
X198698812Y-111345982D01*
X198696981Y-111345223D01*
X198690684Y-111341260D01*
X198633541Y-111312689D01*
X198619809Y-111307434D01*
X198617121Y-111307243D01*
X198614632Y-111306212D01*
X198600000Y-111304771D01*
X198400000Y-111304771D01*
X198385368Y-111306212D01*
X198358332Y-111317411D01*
X198337640Y-111338103D01*
X198326441Y-111365139D01*
X198325000Y-111379771D01*
X198250000Y-111379771D01*
X198250000Y-111229771D01*
X202035695Y-111229771D01*
X202035695Y-112129771D01*
G37*
G36*
X234803915Y-93304495D02*
G01*
X234815275Y-93315855D01*
X234830485Y-93346275D01*
X234830485Y-93453570D01*
X234694771Y-93453570D01*
X234694771Y-93346275D01*
X234709981Y-93315855D01*
X234721340Y-93304495D01*
X234751762Y-93289285D01*
X234773495Y-93289285D01*
X234803915Y-93304495D01*
G37*
G36*
X235118202Y-93275924D02*
G01*
X235129561Y-93287283D01*
X235144771Y-93317703D01*
X235144771Y-93453570D01*
X234980485Y-93453570D01*
X234980485Y-93340741D01*
X234999608Y-93283370D01*
X235007055Y-93275923D01*
X235037476Y-93260713D01*
X235087779Y-93260713D01*
X235118202Y-93275924D01*
G37*
G36*
X235050739Y-89942193D02*
G01*
X235089629Y-89961637D01*
X235125648Y-89997656D01*
X235144771Y-90055025D01*
X235144771Y-90110713D01*
X234694771Y-90110713D01*
X234694771Y-90055025D01*
X234713894Y-89997655D01*
X234749911Y-89961638D01*
X234788803Y-89942192D01*
X234886148Y-89917856D01*
X234953394Y-89917856D01*
X235050739Y-89942193D01*
G37*
G36*
X235369771Y-93678570D02*
G01*
X234469771Y-93678570D01*
X234469771Y-93328570D01*
X234544771Y-93328570D01*
X234544771Y-93528570D01*
X234546212Y-93543202D01*
X234557411Y-93570238D01*
X234578103Y-93590930D01*
X234605139Y-93602129D01*
X234619771Y-93603570D01*
X235219771Y-93603570D01*
X235234403Y-93602129D01*
X235261439Y-93590930D01*
X235282131Y-93570238D01*
X235293330Y-93543202D01*
X235294771Y-93528570D01*
X235294771Y-93299999D01*
X235293330Y-93285367D01*
X235292298Y-93282877D01*
X235292108Y-93280191D01*
X235286853Y-93266459D01*
X235258282Y-93209315D01*
X235254318Y-93203019D01*
X235253560Y-93201187D01*
X235251867Y-93199125D01*
X235250450Y-93196873D01*
X235248955Y-93195576D01*
X235244232Y-93189822D01*
X235215660Y-93161251D01*
X235209908Y-93156530D01*
X235208612Y-93155036D01*
X235206358Y-93153617D01*
X235204295Y-93151924D01*
X235202463Y-93151165D01*
X235196169Y-93147203D01*
X235139026Y-93118631D01*
X235125295Y-93113376D01*
X235122605Y-93113184D01*
X235120117Y-93112154D01*
X235105485Y-93110713D01*
X235019771Y-93110713D01*
X235005139Y-93112154D01*
X235002650Y-93113184D01*
X234999961Y-93113376D01*
X234986229Y-93118631D01*
X234929087Y-93147203D01*
X234922790Y-93151166D01*
X234920960Y-93151925D01*
X234918898Y-93153616D01*
X234916644Y-93155036D01*
X234915347Y-93156531D01*
X234909595Y-93161252D01*
X234890197Y-93180649D01*
X234890010Y-93180496D01*
X234888179Y-93179737D01*
X234881883Y-93175774D01*
X234824741Y-93147203D01*
X234811009Y-93141948D01*
X234808321Y-93141757D01*
X234805832Y-93140726D01*
X234791200Y-93139285D01*
X234734057Y-93139285D01*
X234719425Y-93140726D01*
X234716935Y-93141757D01*
X234714249Y-93141948D01*
X234700517Y-93147203D01*
X234643373Y-93175774D01*
X234637079Y-93179735D01*
X234635246Y-93180495D01*
X234633182Y-93182188D01*
X234630931Y-93183606D01*
X234629634Y-93185100D01*
X234623881Y-93189823D01*
X234595309Y-93218395D01*
X234590588Y-93224146D01*
X234589093Y-93225444D01*
X234587673Y-93227698D01*
X234585982Y-93229760D01*
X234585223Y-93231590D01*
X234581260Y-93237887D01*
X234552689Y-93295029D01*
X234547434Y-93308761D01*
X234547243Y-93311448D01*
X234546212Y-93313938D01*
X234544771Y-93328570D01*
X234469771Y-93328570D01*
X234469771Y-92913938D01*
X234546212Y-92913938D01*
X234546212Y-92943202D01*
X234557411Y-92970238D01*
X234578103Y-92990930D01*
X234605139Y-93002129D01*
X234619771Y-93003570D01*
X235219771Y-93003570D01*
X235234403Y-93002129D01*
X235261439Y-92990930D01*
X235282131Y-92970238D01*
X235293330Y-92943202D01*
X235294771Y-92928570D01*
X235294771Y-92642856D01*
X235293330Y-92628224D01*
X235282131Y-92601188D01*
X235261439Y-92580496D01*
X235234403Y-92569297D01*
X235205139Y-92569297D01*
X235178103Y-92580496D01*
X235157411Y-92601188D01*
X235146212Y-92628224D01*
X235144771Y-92642856D01*
X235144771Y-92853570D01*
X234619771Y-92853570D01*
X234605139Y-92855011D01*
X234578103Y-92866210D01*
X234557411Y-92886902D01*
X234546212Y-92913938D01*
X234469771Y-92913938D01*
X234469771Y-92157142D01*
X234544771Y-92157142D01*
X234544771Y-92442856D01*
X234546212Y-92457488D01*
X234557411Y-92484524D01*
X234578103Y-92505216D01*
X234605139Y-92516415D01*
X234619771Y-92517856D01*
X235219771Y-92517856D01*
X235234403Y-92516415D01*
X235261439Y-92505216D01*
X235282131Y-92484524D01*
X235293330Y-92457488D01*
X235294771Y-92442856D01*
X235294771Y-92157142D01*
X235293330Y-92142510D01*
X235282131Y-92115474D01*
X235261439Y-92094782D01*
X235234403Y-92083583D01*
X235205139Y-92083583D01*
X235178103Y-92094782D01*
X235157411Y-92115474D01*
X235146212Y-92142510D01*
X235144771Y-92157142D01*
X235144771Y-92367856D01*
X234980485Y-92367856D01*
X234980485Y-92242856D01*
X234979044Y-92228224D01*
X234967845Y-92201188D01*
X234947153Y-92180496D01*
X234920117Y-92169297D01*
X234890853Y-92169297D01*
X234863817Y-92180496D01*
X234843125Y-92201188D01*
X234831926Y-92228224D01*
X234830485Y-92242856D01*
X234830485Y-92367856D01*
X234694771Y-92367856D01*
X234694771Y-92157142D01*
X234693330Y-92142510D01*
X234682131Y-92115474D01*
X234661439Y-92094782D01*
X234634403Y-92083583D01*
X234605139Y-92083583D01*
X234578103Y-92094782D01*
X234557411Y-92115474D01*
X234546212Y-92142510D01*
X234544771Y-92157142D01*
X234469771Y-92157142D01*
X234469771Y-91214285D01*
X234544771Y-91214285D01*
X234544771Y-91357142D01*
X234546212Y-91371774D01*
X234547243Y-91374263D01*
X234547434Y-91376951D01*
X234552689Y-91390683D01*
X234581260Y-91447826D01*
X234585223Y-91454123D01*
X234585982Y-91455954D01*
X234587672Y-91458013D01*
X234589092Y-91460269D01*
X234590589Y-91461567D01*
X234595310Y-91467319D01*
X234623882Y-91495890D01*
X234629633Y-91500610D01*
X234630930Y-91502105D01*
X234633183Y-91503523D01*
X234635247Y-91505217D01*
X234637078Y-91505975D01*
X234643373Y-91509938D01*
X234700515Y-91538510D01*
X234714247Y-91543765D01*
X234716936Y-91543956D01*
X234719425Y-91544987D01*
X234734057Y-91546428D01*
X234791200Y-91546428D01*
X234805832Y-91544987D01*
X234808320Y-91543956D01*
X234811010Y-91543765D01*
X234824742Y-91538510D01*
X234881884Y-91509938D01*
X234888180Y-91505974D01*
X234890009Y-91505217D01*
X234892068Y-91503526D01*
X234894327Y-91502105D01*
X234895625Y-91500607D01*
X234901374Y-91495890D01*
X234929946Y-91467319D01*
X234934669Y-91461564D01*
X234936164Y-91460268D01*
X234937581Y-91458015D01*
X234939274Y-91455954D01*
X234940032Y-91454121D01*
X234943996Y-91447826D01*
X234972567Y-91390682D01*
X234972975Y-91389614D01*
X234973299Y-91389178D01*
X234975500Y-91383017D01*
X234977822Y-91376950D01*
X234977860Y-91376411D01*
X234978246Y-91375332D01*
X235004821Y-91269031D01*
X235024267Y-91230141D01*
X235035627Y-91218781D01*
X235066047Y-91203571D01*
X235087781Y-91203571D01*
X235118200Y-91218780D01*
X235129561Y-91230141D01*
X235144771Y-91260561D01*
X235144771Y-91373545D01*
X235120049Y-91447711D01*
X235116789Y-91462048D01*
X235118864Y-91491238D01*
X235131950Y-91517412D01*
X235154058Y-91536585D01*
X235181820Y-91545839D01*
X235211010Y-91543764D01*
X235237184Y-91530678D01*
X235256357Y-91508570D01*
X235262351Y-91495145D01*
X235290922Y-91409431D01*
X235292571Y-91402177D01*
X235293330Y-91400346D01*
X235293591Y-91397691D01*
X235294182Y-91395094D01*
X235294041Y-91393119D01*
X235294771Y-91385714D01*
X235294771Y-91242856D01*
X235293330Y-91228224D01*
X235292298Y-91225734D01*
X235292108Y-91223047D01*
X235286853Y-91209315D01*
X235258282Y-91152173D01*
X235254319Y-91145878D01*
X235253561Y-91144046D01*
X235251869Y-91141984D01*
X235250450Y-91139730D01*
X235248953Y-91138431D01*
X235244233Y-91132681D01*
X235215661Y-91104109D01*
X235209911Y-91099390D01*
X235208612Y-91097892D01*
X235206352Y-91096470D01*
X235204296Y-91094782D01*
X235202468Y-91094024D01*
X235196169Y-91090060D01*
X235139026Y-91061489D01*
X235125294Y-91056234D01*
X235122606Y-91056043D01*
X235120117Y-91055012D01*
X235105485Y-91053571D01*
X235048342Y-91053571D01*
X235033710Y-91055012D01*
X235031220Y-91056043D01*
X235028533Y-91056234D01*
X235014801Y-91061489D01*
X234957659Y-91090060D01*
X234951364Y-91094022D01*
X234949532Y-91094781D01*
X234947470Y-91096472D01*
X234945216Y-91097892D01*
X234943917Y-91099388D01*
X234938167Y-91104109D01*
X234909595Y-91132681D01*
X234904874Y-91138432D01*
X234903379Y-91139730D01*
X234901959Y-91141984D01*
X234900268Y-91144046D01*
X234899509Y-91145876D01*
X234895546Y-91152173D01*
X234866975Y-91209315D01*
X234866565Y-91210384D01*
X234866243Y-91210820D01*
X234864047Y-91216965D01*
X234861720Y-91223047D01*
X234861681Y-91223586D01*
X234861296Y-91224666D01*
X234834720Y-91330966D01*
X234815275Y-91369857D01*
X234803916Y-91381216D01*
X234773493Y-91396428D01*
X234751762Y-91396428D01*
X234721340Y-91381216D01*
X234709980Y-91369856D01*
X234694771Y-91339437D01*
X234694771Y-91226454D01*
X234719493Y-91152288D01*
X234722753Y-91137951D01*
X234720678Y-91108761D01*
X234707591Y-91082588D01*
X234685484Y-91063414D01*
X234657722Y-91054160D01*
X234628532Y-91056235D01*
X234602358Y-91069322D01*
X234583185Y-91091429D01*
X234577191Y-91104855D01*
X234548620Y-91190568D01*
X234546970Y-91197821D01*
X234546212Y-91199653D01*
X234545950Y-91202307D01*
X234545360Y-91204905D01*
X234545500Y-91206879D01*
X234544771Y-91214285D01*
X234469771Y-91214285D01*
X234469771Y-90411481D01*
X234544823Y-90411481D01*
X234549456Y-90440376D01*
X234564792Y-90465298D01*
X234588499Y-90482455D01*
X234602399Y-90487245D01*
X234913254Y-90561258D01*
X234771875Y-90598959D01*
X234768446Y-90600244D01*
X234767007Y-90600436D01*
X234765296Y-90601426D01*
X234758109Y-90604122D01*
X234750249Y-90610137D01*
X234741682Y-90615098D01*
X234738728Y-90618955D01*
X234734871Y-90621909D01*
X234729910Y-90630476D01*
X234723895Y-90638336D01*
X234722643Y-90643028D01*
X234720209Y-90647234D01*
X234718905Y-90657048D01*
X234716355Y-90666611D01*
X234716994Y-90671426D01*
X234716355Y-90676242D01*
X234718905Y-90685804D01*
X234720209Y-90695620D01*
X234722643Y-90699825D01*
X234723895Y-90704518D01*
X234729910Y-90712377D01*
X234734871Y-90720945D01*
X234738728Y-90723898D01*
X234741682Y-90727756D01*
X234750249Y-90732716D01*
X234758109Y-90738732D01*
X234765296Y-90741427D01*
X234767007Y-90742418D01*
X234768447Y-90742609D01*
X234771875Y-90743895D01*
X234913255Y-90781596D01*
X234602399Y-90855610D01*
X234588499Y-90860400D01*
X234564792Y-90877557D01*
X234549456Y-90902479D01*
X234544823Y-90931374D01*
X234551601Y-90959842D01*
X234568758Y-90983549D01*
X234593680Y-90998885D01*
X234622575Y-91003518D01*
X234637143Y-91001530D01*
X235237142Y-90858674D01*
X235242163Y-90856943D01*
X235243965Y-90856704D01*
X235245593Y-90855761D01*
X235251043Y-90853883D01*
X235259861Y-90847500D01*
X235269290Y-90842042D01*
X235271632Y-90838981D01*
X235274749Y-90836726D01*
X235280448Y-90827464D01*
X235287077Y-90818805D01*
X235288070Y-90815078D01*
X235290086Y-90811804D01*
X235291807Y-90801064D01*
X235294617Y-90790529D01*
X235294109Y-90786707D01*
X235294718Y-90782909D01*
X235292197Y-90772323D01*
X235290762Y-90761520D01*
X235288831Y-90758185D01*
X235287940Y-90754441D01*
X235281557Y-90745620D01*
X235276100Y-90736195D01*
X235273042Y-90733854D01*
X235270784Y-90730734D01*
X235261511Y-90725028D01*
X235252863Y-90718408D01*
X235247463Y-90716383D01*
X235245862Y-90715398D01*
X235244068Y-90715110D01*
X235239096Y-90713246D01*
X235082278Y-90671427D01*
X235239095Y-90629610D01*
X235244069Y-90627744D01*
X235245862Y-90627457D01*
X235247463Y-90626471D01*
X235252862Y-90624447D01*
X235261508Y-90617828D01*
X235270784Y-90612121D01*
X235273042Y-90609000D01*
X235276100Y-90606660D01*
X235281555Y-90597236D01*
X235287940Y-90588414D01*
X235288832Y-90584666D01*
X235290761Y-90581335D01*
X235292195Y-90570540D01*
X235294718Y-90559946D01*
X235294108Y-90556144D01*
X235294616Y-90552327D01*
X235291809Y-90541802D01*
X235290086Y-90531051D01*
X235288068Y-90527772D01*
X235287076Y-90524051D01*
X235280454Y-90515400D01*
X235274749Y-90506129D01*
X235271630Y-90503871D01*
X235269289Y-90500813D01*
X235259865Y-90495357D01*
X235251043Y-90488972D01*
X235245591Y-90487092D01*
X235243964Y-90486151D01*
X235242164Y-90485911D01*
X235237142Y-90484181D01*
X234637143Y-90341325D01*
X234622575Y-90339337D01*
X234593680Y-90343970D01*
X234568758Y-90359306D01*
X234551601Y-90383013D01*
X234544823Y-90411481D01*
X234469771Y-90411481D01*
X234469771Y-90042856D01*
X234544771Y-90042856D01*
X234544771Y-90185713D01*
X234546212Y-90200345D01*
X234557411Y-90227381D01*
X234578103Y-90248073D01*
X234605139Y-90259272D01*
X234619771Y-90260713D01*
X235219771Y-90260713D01*
X235234403Y-90259272D01*
X235261439Y-90248073D01*
X235282131Y-90227381D01*
X235293330Y-90200345D01*
X235294771Y-90185713D01*
X235294771Y-90042856D01*
X235294041Y-90035450D01*
X235294182Y-90033476D01*
X235293591Y-90030878D01*
X235293330Y-90028224D01*
X235292571Y-90026392D01*
X235290922Y-90019139D01*
X235262351Y-89933425D01*
X235256357Y-89920000D01*
X235254591Y-89917964D01*
X235253560Y-89915474D01*
X235244233Y-89904109D01*
X235187090Y-89846966D01*
X235181340Y-89842247D01*
X235180041Y-89840749D01*
X235177781Y-89839327D01*
X235175725Y-89837639D01*
X235173897Y-89836881D01*
X235167598Y-89832917D01*
X235110455Y-89804346D01*
X235109385Y-89803936D01*
X235108950Y-89803614D01*
X235102804Y-89801418D01*
X235096723Y-89799091D01*
X235096183Y-89799052D01*
X235095104Y-89798667D01*
X234980818Y-89770095D01*
X234978281Y-89769719D01*
X234977260Y-89769297D01*
X234971747Y-89768754D01*
X234966274Y-89767945D01*
X234965181Y-89768107D01*
X234962628Y-89767856D01*
X234876914Y-89767856D01*
X234874360Y-89768107D01*
X234873268Y-89767945D01*
X234867793Y-89768754D01*
X234862282Y-89769297D01*
X234861261Y-89769719D01*
X234858723Y-89770095D01*
X234744438Y-89798667D01*
X234743358Y-89799052D01*
X234742820Y-89799091D01*
X234736752Y-89801412D01*
X234730592Y-89803614D01*
X234730155Y-89803937D01*
X234729088Y-89804346D01*
X234671944Y-89832917D01*
X234665646Y-89836881D01*
X234663817Y-89837639D01*
X234661757Y-89839329D01*
X234659502Y-89840749D01*
X234658204Y-89842245D01*
X234652452Y-89846966D01*
X234595309Y-89904109D01*
X234585982Y-89915474D01*
X234584950Y-89917964D01*
X234583185Y-89920000D01*
X234577191Y-89933426D01*
X234548620Y-90019139D01*
X234546970Y-90026392D01*
X234546212Y-90028224D01*
X234545950Y-90030878D01*
X234545360Y-90033476D01*
X234545500Y-90035450D01*
X234544771Y-90042856D01*
X234469771Y-90042856D01*
X234469771Y-89692856D01*
X235369771Y-89692856D01*
X235369771Y-93678570D01*
G37*
X209809524Y-80162295D02*
X209809524Y-79362295D01*
X209809524Y-79362295D02*
X210000000Y-79362295D01*
X210000000Y-79362295D02*
X210114286Y-79400390D01*
X210114286Y-79400390D02*
X210190476Y-79476580D01*
X210190476Y-79476580D02*
X210228571Y-79552771D01*
X210228571Y-79552771D02*
X210266667Y-79705152D01*
X210266667Y-79705152D02*
X210266667Y-79819438D01*
X210266667Y-79819438D02*
X210228571Y-79971819D01*
X210228571Y-79971819D02*
X210190476Y-80048009D01*
X210190476Y-80048009D02*
X210114286Y-80124200D01*
X210114286Y-80124200D02*
X210000000Y-80162295D01*
X210000000Y-80162295D02*
X209809524Y-80162295D01*
X210990476Y-79362295D02*
X210609524Y-79362295D01*
X210609524Y-79362295D02*
X210571428Y-79743247D01*
X210571428Y-79743247D02*
X210609524Y-79705152D01*
X210609524Y-79705152D02*
X210685714Y-79667057D01*
X210685714Y-79667057D02*
X210876190Y-79667057D01*
X210876190Y-79667057D02*
X210952381Y-79705152D01*
X210952381Y-79705152D02*
X210990476Y-79743247D01*
X210990476Y-79743247D02*
X211028571Y-79819438D01*
X211028571Y-79819438D02*
X211028571Y-80009914D01*
X211028571Y-80009914D02*
X210990476Y-80086104D01*
X210990476Y-80086104D02*
X210952381Y-80124200D01*
X210952381Y-80124200D02*
X210876190Y-80162295D01*
X210876190Y-80162295D02*
X210685714Y-80162295D01*
X210685714Y-80162295D02*
X210609524Y-80124200D01*
X210609524Y-80124200D02*
X210571428Y-80086104D01*
X203995238Y-64762295D02*
X203995238Y-63962295D01*
X203995238Y-63962295D02*
X204185714Y-63962295D01*
X204185714Y-63962295D02*
X204300000Y-64000390D01*
X204300000Y-64000390D02*
X204376190Y-64076580D01*
X204376190Y-64076580D02*
X204414285Y-64152771D01*
X204414285Y-64152771D02*
X204452381Y-64305152D01*
X204452381Y-64305152D02*
X204452381Y-64419438D01*
X204452381Y-64419438D02*
X204414285Y-64571819D01*
X204414285Y-64571819D02*
X204376190Y-64648009D01*
X204376190Y-64648009D02*
X204300000Y-64724200D01*
X204300000Y-64724200D02*
X204185714Y-64762295D01*
X204185714Y-64762295D02*
X203995238Y-64762295D01*
X204719047Y-63962295D02*
X204909523Y-64762295D01*
X204909523Y-64762295D02*
X205061904Y-64190866D01*
X205061904Y-64190866D02*
X205214285Y-64762295D01*
X205214285Y-64762295D02*
X205404762Y-63962295D01*
X205709524Y-64762295D02*
X205709524Y-63962295D01*
X205709524Y-63962295D02*
X205976190Y-64533723D01*
X205976190Y-64533723D02*
X206242857Y-63962295D01*
X206242857Y-63962295D02*
X206242857Y-64762295D01*
X207042857Y-64762295D02*
X206585714Y-64762295D01*
X206814286Y-64762295D02*
X206814286Y-63962295D01*
X206814286Y-63962295D02*
X206738095Y-64076580D01*
X206738095Y-64076580D02*
X206661905Y-64152771D01*
X206661905Y-64152771D02*
X206585714Y-64190866D01*
X226840298Y-90581342D02*
X226840298Y-90962295D01*
X226573631Y-90162295D02*
X226840298Y-90581342D01*
X226840298Y-90581342D02*
X227106964Y-90162295D01*
X227792678Y-90962295D02*
X227335535Y-90962295D01*
X227564107Y-90962295D02*
X227564107Y-90162295D01*
X227564107Y-90162295D02*
X227487916Y-90276580D01*
X227487916Y-90276580D02*
X227411726Y-90352771D01*
X227411726Y-90352771D02*
X227335535Y-90390866D01*
G36*
X220155571Y-66259980D02*
G01*
X220166931Y-66271340D01*
X220182143Y-66301762D01*
X220182143Y-66352065D01*
X220166932Y-66382486D01*
X220155573Y-66393845D01*
X220125151Y-66409057D01*
X219989286Y-66409057D01*
X219989286Y-66244771D01*
X220125153Y-66244771D01*
X220155571Y-66259980D01*
G37*
G36*
X220407143Y-66919771D02*
G01*
X218021429Y-66919771D01*
X218021429Y-66169771D01*
X218096429Y-66169771D01*
X218096429Y-66655485D01*
X218097870Y-66670117D01*
X218098901Y-66672606D01*
X218099092Y-66675294D01*
X218104347Y-66689026D01*
X218132918Y-66746169D01*
X218136882Y-66752468D01*
X218137640Y-66754296D01*
X218139328Y-66756352D01*
X218140750Y-66758612D01*
X218142248Y-66759911D01*
X218146967Y-66765661D01*
X218175539Y-66794233D01*
X218181289Y-66798953D01*
X218182588Y-66800450D01*
X218184842Y-66801869D01*
X218186904Y-66803561D01*
X218188736Y-66804319D01*
X218195031Y-66808282D01*
X218252173Y-66836853D01*
X218265905Y-66842108D01*
X218268592Y-66842298D01*
X218271082Y-66843330D01*
X218285714Y-66844771D01*
X218400000Y-66844771D01*
X218414632Y-66843330D01*
X218417121Y-66842298D01*
X218419809Y-66842108D01*
X218433541Y-66836853D01*
X218490684Y-66808282D01*
X218496981Y-66804318D01*
X218498812Y-66803560D01*
X218500871Y-66801869D01*
X218503127Y-66800450D01*
X218504425Y-66798952D01*
X218510177Y-66794232D01*
X218538748Y-66765660D01*
X218543468Y-66759908D01*
X218544963Y-66758612D01*
X218546381Y-66756358D01*
X218548075Y-66754295D01*
X218548833Y-66752463D01*
X218552796Y-66746169D01*
X218581368Y-66689027D01*
X218586623Y-66675295D01*
X218586814Y-66672605D01*
X218587845Y-66670117D01*
X218589286Y-66655485D01*
X218589286Y-66284057D01*
X218696428Y-66284057D01*
X218696428Y-66341200D01*
X218697869Y-66355832D01*
X218698899Y-66358320D01*
X218699091Y-66361010D01*
X218704346Y-66374742D01*
X218732918Y-66431884D01*
X218736881Y-66438180D01*
X218737639Y-66440009D01*
X218739329Y-66442068D01*
X218740751Y-66444327D01*
X218742248Y-66445625D01*
X218746966Y-66451374D01*
X218775537Y-66479946D01*
X218781291Y-66484669D01*
X218782588Y-66486164D01*
X218784840Y-66487581D01*
X218786902Y-66489274D01*
X218788734Y-66490032D01*
X218795030Y-66493996D01*
X218852174Y-66522567D01*
X218853241Y-66522975D01*
X218853678Y-66523299D01*
X218859838Y-66525500D01*
X218865906Y-66527822D01*
X218866444Y-66527860D01*
X218867524Y-66528246D01*
X218973825Y-66554822D01*
X219012714Y-66574266D01*
X219024074Y-66585626D01*
X219039285Y-66616047D01*
X219039285Y-66637780D01*
X219024074Y-66668201D01*
X219012714Y-66679561D01*
X218982296Y-66694771D01*
X218869314Y-66694771D01*
X218795145Y-66670049D01*
X218780808Y-66666789D01*
X218751618Y-66668864D01*
X218725444Y-66681951D01*
X218706271Y-66704058D01*
X218697017Y-66731820D01*
X218699092Y-66761010D01*
X218712179Y-66787184D01*
X218734286Y-66806357D01*
X218747711Y-66812351D01*
X218833426Y-66840922D01*
X218840679Y-66842571D01*
X218842511Y-66843330D01*
X218845165Y-66843591D01*
X218847763Y-66844182D01*
X218849737Y-66844041D01*
X218857143Y-66844771D01*
X219000000Y-66844771D01*
X219014632Y-66843330D01*
X219017121Y-66842298D01*
X219019809Y-66842108D01*
X219033541Y-66836853D01*
X219090684Y-66808282D01*
X219096981Y-66804318D01*
X219098812Y-66803560D01*
X219100871Y-66801869D01*
X219103127Y-66800450D01*
X219104425Y-66798952D01*
X219110177Y-66794232D01*
X219138748Y-66765660D01*
X219143468Y-66759907D01*
X219144964Y-66758611D01*
X219146383Y-66756356D01*
X219148075Y-66754295D01*
X219148833Y-66752464D01*
X219152796Y-66746169D01*
X219181367Y-66689025D01*
X219186622Y-66675293D01*
X219186812Y-66672606D01*
X219187844Y-66670117D01*
X219189285Y-66655485D01*
X219189285Y-66598342D01*
X219187844Y-66583710D01*
X219186812Y-66581220D01*
X219186622Y-66578533D01*
X219181367Y-66564801D01*
X219152796Y-66507659D01*
X219148832Y-66501362D01*
X219148075Y-66499533D01*
X219146385Y-66497474D01*
X219144964Y-66495216D01*
X219143465Y-66493916D01*
X219138748Y-66488168D01*
X219110177Y-66459596D01*
X219104425Y-66454875D01*
X219103127Y-66453378D01*
X219100871Y-66451958D01*
X219098812Y-66450268D01*
X219096981Y-66449509D01*
X219090684Y-66445546D01*
X219033541Y-66416975D01*
X219032471Y-66416565D01*
X219032036Y-66416243D01*
X219025890Y-66414047D01*
X219019809Y-66411720D01*
X219019269Y-66411681D01*
X219018190Y-66411296D01*
X218911889Y-66384720D01*
X218872998Y-66365275D01*
X218861639Y-66353916D01*
X218846428Y-66323493D01*
X218846428Y-66301762D01*
X218861639Y-66271339D01*
X218872998Y-66259980D01*
X218903419Y-66244771D01*
X219016401Y-66244771D01*
X219090568Y-66269493D01*
X219104905Y-66272753D01*
X219134095Y-66270678D01*
X219160268Y-66257591D01*
X219179442Y-66235484D01*
X219188696Y-66207722D01*
X219186621Y-66178532D01*
X219182240Y-66169771D01*
X219296429Y-66169771D01*
X219296429Y-66769771D01*
X219297870Y-66784403D01*
X219309069Y-66811439D01*
X219329761Y-66832131D01*
X219356797Y-66843330D01*
X219371429Y-66844771D01*
X219657143Y-66844771D01*
X219671775Y-66843330D01*
X219698811Y-66832131D01*
X219719503Y-66811439D01*
X219730702Y-66784403D01*
X219730702Y-66755139D01*
X219719503Y-66728103D01*
X219698811Y-66707411D01*
X219671775Y-66696212D01*
X219657143Y-66694771D01*
X219446429Y-66694771D01*
X219446429Y-66530485D01*
X219571429Y-66530485D01*
X219586061Y-66529044D01*
X219613097Y-66517845D01*
X219633789Y-66497153D01*
X219644988Y-66470117D01*
X219644988Y-66440853D01*
X219633789Y-66413817D01*
X219613097Y-66393125D01*
X219586061Y-66381926D01*
X219571429Y-66380485D01*
X219446429Y-66380485D01*
X219446429Y-66244771D01*
X219657143Y-66244771D01*
X219671775Y-66243330D01*
X219698811Y-66232131D01*
X219719503Y-66211439D01*
X219730702Y-66184403D01*
X219730702Y-66169771D01*
X219839286Y-66169771D01*
X219839286Y-66769771D01*
X219840727Y-66784403D01*
X219851926Y-66811439D01*
X219872618Y-66832131D01*
X219899654Y-66843330D01*
X219928918Y-66843330D01*
X219955954Y-66832131D01*
X219976646Y-66811439D01*
X219987845Y-66784403D01*
X219989286Y-66769771D01*
X219989286Y-66559057D01*
X220018094Y-66559057D01*
X220195700Y-66812780D01*
X220205272Y-66823941D01*
X220229950Y-66839667D01*
X220258768Y-66844753D01*
X220287339Y-66838423D01*
X220311313Y-66821642D01*
X220327040Y-66796963D01*
X220332125Y-66768145D01*
X220325795Y-66739574D01*
X220318585Y-66726761D01*
X220190658Y-66544008D01*
X220233541Y-66522567D01*
X220239837Y-66518603D01*
X220241668Y-66517845D01*
X220243729Y-66516153D01*
X220245984Y-66514734D01*
X220247280Y-66513238D01*
X220253033Y-66508518D01*
X220281604Y-66479947D01*
X220286324Y-66474194D01*
X220287820Y-66472898D01*
X220289239Y-66470643D01*
X220290931Y-66468582D01*
X220291689Y-66466751D01*
X220295653Y-66460455D01*
X220324225Y-66403313D01*
X220329480Y-66389581D01*
X220329671Y-66386891D01*
X220330702Y-66384403D01*
X220332143Y-66369771D01*
X220332143Y-66284057D01*
X220330702Y-66269425D01*
X220329671Y-66266936D01*
X220329480Y-66264247D01*
X220324225Y-66250515D01*
X220295653Y-66193373D01*
X220291690Y-66187078D01*
X220290932Y-66185247D01*
X220289238Y-66183183D01*
X220287820Y-66180930D01*
X220286325Y-66179633D01*
X220281605Y-66173882D01*
X220253034Y-66145310D01*
X220247282Y-66140589D01*
X220245984Y-66139092D01*
X220243728Y-66137672D01*
X220241669Y-66135982D01*
X220239838Y-66135223D01*
X220233541Y-66131260D01*
X220176398Y-66102689D01*
X220162666Y-66097434D01*
X220159978Y-66097243D01*
X220157489Y-66096212D01*
X220142857Y-66094771D01*
X219914286Y-66094771D01*
X219899654Y-66096212D01*
X219872618Y-66107411D01*
X219851926Y-66128103D01*
X219840727Y-66155139D01*
X219839286Y-66169771D01*
X219730702Y-66169771D01*
X219730702Y-66155139D01*
X219719503Y-66128103D01*
X219698811Y-66107411D01*
X219671775Y-66096212D01*
X219657143Y-66094771D01*
X219371429Y-66094771D01*
X219356797Y-66096212D01*
X219329761Y-66107411D01*
X219309069Y-66128103D01*
X219297870Y-66155139D01*
X219296429Y-66169771D01*
X219182240Y-66169771D01*
X219173534Y-66152358D01*
X219151427Y-66133185D01*
X219138001Y-66127191D01*
X219052288Y-66098620D01*
X219045034Y-66096970D01*
X219043203Y-66096212D01*
X219040548Y-66095950D01*
X219037951Y-66095360D01*
X219035976Y-66095500D01*
X219028571Y-66094771D01*
X218885714Y-66094771D01*
X218871082Y-66096212D01*
X218868592Y-66097243D01*
X218865906Y-66097434D01*
X218852174Y-66102689D01*
X218795030Y-66131260D01*
X218788734Y-66135223D01*
X218786902Y-66135982D01*
X218784840Y-66137674D01*
X218782588Y-66139092D01*
X218781291Y-66140586D01*
X218775537Y-66145310D01*
X218746966Y-66173882D01*
X218742245Y-66179633D01*
X218740751Y-66180930D01*
X218739332Y-66183183D01*
X218737639Y-66185247D01*
X218736880Y-66187078D01*
X218732918Y-66193373D01*
X218704346Y-66250516D01*
X218699091Y-66264247D01*
X218698899Y-66266936D01*
X218697869Y-66269425D01*
X218696428Y-66284057D01*
X218589286Y-66284057D01*
X218589286Y-66169771D01*
X218587845Y-66155139D01*
X218576646Y-66128103D01*
X218555954Y-66107411D01*
X218528918Y-66096212D01*
X218499654Y-66096212D01*
X218472618Y-66107411D01*
X218451926Y-66128103D01*
X218440727Y-66155139D01*
X218439286Y-66169771D01*
X218439286Y-66637779D01*
X218424074Y-66668201D01*
X218412714Y-66679561D01*
X218382296Y-66694771D01*
X218303419Y-66694771D01*
X218272999Y-66679561D01*
X218261638Y-66668200D01*
X218246429Y-66637780D01*
X218246429Y-66169771D01*
X218244988Y-66155139D01*
X218233789Y-66128103D01*
X218213097Y-66107411D01*
X218186061Y-66096212D01*
X218156797Y-66096212D01*
X218129761Y-66107411D01*
X218109069Y-66128103D01*
X218097870Y-66155139D01*
X218096429Y-66169771D01*
X218021429Y-66169771D01*
X218021429Y-66019771D01*
X220407143Y-66019771D01*
X220407143Y-66919771D01*
G37*
X224090476Y-106362295D02*
X224090476Y-107009914D01*
X224090476Y-107009914D02*
X224128571Y-107086104D01*
X224128571Y-107086104D02*
X224166666Y-107124200D01*
X224166666Y-107124200D02*
X224242857Y-107162295D01*
X224242857Y-107162295D02*
X224395238Y-107162295D01*
X224395238Y-107162295D02*
X224471428Y-107124200D01*
X224471428Y-107124200D02*
X224509523Y-107086104D01*
X224509523Y-107086104D02*
X224547619Y-107009914D01*
X224547619Y-107009914D02*
X224547619Y-106362295D01*
X224890475Y-106438485D02*
X224928571Y-106400390D01*
X224928571Y-106400390D02*
X225004761Y-106362295D01*
X225004761Y-106362295D02*
X225195237Y-106362295D01*
X225195237Y-106362295D02*
X225271428Y-106400390D01*
X225271428Y-106400390D02*
X225309523Y-106438485D01*
X225309523Y-106438485D02*
X225347618Y-106514676D01*
X225347618Y-106514676D02*
X225347618Y-106590866D01*
X225347618Y-106590866D02*
X225309523Y-106705152D01*
X225309523Y-106705152D02*
X224852380Y-107162295D01*
X224852380Y-107162295D02*
X225347618Y-107162295D01*
X202933333Y-86562295D02*
X202933333Y-87133723D01*
X202933333Y-87133723D02*
X202895238Y-87248009D01*
X202895238Y-87248009D02*
X202819047Y-87324200D01*
X202819047Y-87324200D02*
X202704762Y-87362295D01*
X202704762Y-87362295D02*
X202628571Y-87362295D01*
X203276190Y-86638485D02*
X203314286Y-86600390D01*
X203314286Y-86600390D02*
X203390476Y-86562295D01*
X203390476Y-86562295D02*
X203580952Y-86562295D01*
X203580952Y-86562295D02*
X203657143Y-86600390D01*
X203657143Y-86600390D02*
X203695238Y-86638485D01*
X203695238Y-86638485D02*
X203733333Y-86714676D01*
X203733333Y-86714676D02*
X203733333Y-86790866D01*
X203733333Y-86790866D02*
X203695238Y-86905152D01*
X203695238Y-86905152D02*
X203238095Y-87362295D01*
X203238095Y-87362295D02*
X203733333Y-87362295D01*
X196933332Y-107144200D02*
X197047618Y-107182295D01*
X197047618Y-107182295D02*
X197238094Y-107182295D01*
X197238094Y-107182295D02*
X197314285Y-107144200D01*
X197314285Y-107144200D02*
X197352380Y-107106104D01*
X197352380Y-107106104D02*
X197390475Y-107029914D01*
X197390475Y-107029914D02*
X197390475Y-106953723D01*
X197390475Y-106953723D02*
X197352380Y-106877533D01*
X197352380Y-106877533D02*
X197314285Y-106839438D01*
X197314285Y-106839438D02*
X197238094Y-106801342D01*
X197238094Y-106801342D02*
X197085713Y-106763247D01*
X197085713Y-106763247D02*
X197009523Y-106725152D01*
X197009523Y-106725152D02*
X196971428Y-106687057D01*
X196971428Y-106687057D02*
X196933332Y-106610866D01*
X196933332Y-106610866D02*
X196933332Y-106534676D01*
X196933332Y-106534676D02*
X196971428Y-106458485D01*
X196971428Y-106458485D02*
X197009523Y-106420390D01*
X197009523Y-106420390D02*
X197085713Y-106382295D01*
X197085713Y-106382295D02*
X197276190Y-106382295D01*
X197276190Y-106382295D02*
X197390475Y-106420390D01*
X197657142Y-106382295D02*
X197847618Y-107182295D01*
X197847618Y-107182295D02*
X197999999Y-106610866D01*
X197999999Y-106610866D02*
X198152380Y-107182295D01*
X198152380Y-107182295D02*
X198342857Y-106382295D01*
X199066666Y-107182295D02*
X198609523Y-107182295D01*
X198838095Y-107182295D02*
X198838095Y-106382295D01*
X198838095Y-106382295D02*
X198761904Y-106496580D01*
X198761904Y-106496580D02*
X198685714Y-106572771D01*
X198685714Y-106572771D02*
X198609523Y-106610866D01*
X199909524Y-80162295D02*
X199909524Y-79362295D01*
X199909524Y-79362295D02*
X200100000Y-79362295D01*
X200100000Y-79362295D02*
X200214286Y-79400390D01*
X200214286Y-79400390D02*
X200290476Y-79476580D01*
X200290476Y-79476580D02*
X200328571Y-79552771D01*
X200328571Y-79552771D02*
X200366667Y-79705152D01*
X200366667Y-79705152D02*
X200366667Y-79819438D01*
X200366667Y-79819438D02*
X200328571Y-79971819D01*
X200328571Y-79971819D02*
X200290476Y-80048009D01*
X200290476Y-80048009D02*
X200214286Y-80124200D01*
X200214286Y-80124200D02*
X200100000Y-80162295D01*
X200100000Y-80162295D02*
X199909524Y-80162295D01*
X201052381Y-79362295D02*
X200900000Y-79362295D01*
X200900000Y-79362295D02*
X200823809Y-79400390D01*
X200823809Y-79400390D02*
X200785714Y-79438485D01*
X200785714Y-79438485D02*
X200709524Y-79552771D01*
X200709524Y-79552771D02*
X200671428Y-79705152D01*
X200671428Y-79705152D02*
X200671428Y-80009914D01*
X200671428Y-80009914D02*
X200709524Y-80086104D01*
X200709524Y-80086104D02*
X200747619Y-80124200D01*
X200747619Y-80124200D02*
X200823809Y-80162295D01*
X200823809Y-80162295D02*
X200976190Y-80162295D01*
X200976190Y-80162295D02*
X201052381Y-80124200D01*
X201052381Y-80124200D02*
X201090476Y-80086104D01*
X201090476Y-80086104D02*
X201128571Y-80009914D01*
X201128571Y-80009914D02*
X201128571Y-79819438D01*
X201128571Y-79819438D02*
X201090476Y-79743247D01*
X201090476Y-79743247D02*
X201052381Y-79705152D01*
X201052381Y-79705152D02*
X200976190Y-79667057D01*
X200976190Y-79667057D02*
X200823809Y-79667057D01*
X200823809Y-79667057D02*
X200747619Y-79705152D01*
X200747619Y-79705152D02*
X200709524Y-79743247D01*
X200709524Y-79743247D02*
X200671428Y-79819438D01*
X216934524Y-97862295D02*
X216934524Y-97062295D01*
X216934524Y-97062295D02*
X217125000Y-97062295D01*
X217125000Y-97062295D02*
X217239286Y-97100390D01*
X217239286Y-97100390D02*
X217315476Y-97176580D01*
X217315476Y-97176580D02*
X217353571Y-97252771D01*
X217353571Y-97252771D02*
X217391667Y-97405152D01*
X217391667Y-97405152D02*
X217391667Y-97519438D01*
X217391667Y-97519438D02*
X217353571Y-97671819D01*
X217353571Y-97671819D02*
X217315476Y-97748009D01*
X217315476Y-97748009D02*
X217239286Y-97824200D01*
X217239286Y-97824200D02*
X217125000Y-97862295D01*
X217125000Y-97862295D02*
X216934524Y-97862295D01*
X218077381Y-97328961D02*
X218077381Y-97862295D01*
X217886905Y-97024200D02*
X217696428Y-97595628D01*
X217696428Y-97595628D02*
X218191667Y-97595628D01*
X216934524Y-101195628D02*
X216934524Y-100395628D01*
X216934524Y-100395628D02*
X217125000Y-100395628D01*
X217125000Y-100395628D02*
X217239286Y-100433723D01*
X217239286Y-100433723D02*
X217315476Y-100509913D01*
X217315476Y-100509913D02*
X217353571Y-100586104D01*
X217353571Y-100586104D02*
X217391667Y-100738485D01*
X217391667Y-100738485D02*
X217391667Y-100852771D01*
X217391667Y-100852771D02*
X217353571Y-101005152D01*
X217353571Y-101005152D02*
X217315476Y-101081342D01*
X217315476Y-101081342D02*
X217239286Y-101157533D01*
X217239286Y-101157533D02*
X217125000Y-101195628D01*
X217125000Y-101195628D02*
X216934524Y-101195628D01*
X217658333Y-100395628D02*
X218153571Y-100395628D01*
X218153571Y-100395628D02*
X217886905Y-100700390D01*
X217886905Y-100700390D02*
X218001190Y-100700390D01*
X218001190Y-100700390D02*
X218077381Y-100738485D01*
X218077381Y-100738485D02*
X218115476Y-100776580D01*
X218115476Y-100776580D02*
X218153571Y-100852771D01*
X218153571Y-100852771D02*
X218153571Y-101043247D01*
X218153571Y-101043247D02*
X218115476Y-101119437D01*
X218115476Y-101119437D02*
X218077381Y-101157533D01*
X218077381Y-101157533D02*
X218001190Y-101195628D01*
X218001190Y-101195628D02*
X217772619Y-101195628D01*
X217772619Y-101195628D02*
X217696428Y-101157533D01*
X217696428Y-101157533D02*
X217658333Y-101119437D01*
X206529524Y-93182295D02*
X206529524Y-92382295D01*
X206529524Y-92382295D02*
X206720000Y-92382295D01*
X206720000Y-92382295D02*
X206834286Y-92420390D01*
X206834286Y-92420390D02*
X206910476Y-92496580D01*
X206910476Y-92496580D02*
X206948571Y-92572771D01*
X206948571Y-92572771D02*
X206986667Y-92725152D01*
X206986667Y-92725152D02*
X206986667Y-92839438D01*
X206986667Y-92839438D02*
X206948571Y-92991819D01*
X206948571Y-92991819D02*
X206910476Y-93068009D01*
X206910476Y-93068009D02*
X206834286Y-93144200D01*
X206834286Y-93144200D02*
X206720000Y-93182295D01*
X206720000Y-93182295D02*
X206529524Y-93182295D01*
X207253333Y-92382295D02*
X207786667Y-92382295D01*
X207786667Y-92382295D02*
X207443809Y-93182295D01*
G36*
X238030914Y-97349608D02*
G01*
X238038361Y-97357055D01*
X238053572Y-97387476D01*
X238053572Y-97437779D01*
X238038360Y-97468201D01*
X238027000Y-97479561D01*
X237996582Y-97494771D01*
X237860715Y-97494771D01*
X237860715Y-97330485D01*
X237973544Y-97330485D01*
X238030914Y-97349608D01*
G37*
G36*
X237998429Y-97059980D02*
G01*
X238009789Y-97071340D01*
X238025000Y-97101761D01*
X238025000Y-97123495D01*
X238009789Y-97153915D01*
X237998429Y-97165275D01*
X237968011Y-97180485D01*
X237860715Y-97180485D01*
X237860715Y-97044771D01*
X237968011Y-97044771D01*
X237998429Y-97059980D01*
G37*
G36*
X238627001Y-97059980D02*
G01*
X238660849Y-97093828D01*
X238682143Y-97179004D01*
X238682143Y-97360537D01*
X238660849Y-97445713D01*
X238627001Y-97479561D01*
X238596582Y-97494771D01*
X238517705Y-97494771D01*
X238487285Y-97479561D01*
X238453437Y-97445713D01*
X238432143Y-97360536D01*
X238432143Y-97179005D01*
X238453437Y-97093828D01*
X238487285Y-97059981D01*
X238517705Y-97044771D01*
X238596582Y-97044771D01*
X238627001Y-97059980D01*
G37*
G36*
X239255572Y-97059980D02*
G01*
X239289420Y-97093828D01*
X239310714Y-97179004D01*
X239310714Y-97360537D01*
X239289420Y-97445713D01*
X239255572Y-97479561D01*
X239225153Y-97494771D01*
X239146276Y-97494771D01*
X239115856Y-97479561D01*
X239082008Y-97445713D01*
X239060714Y-97360536D01*
X239060714Y-97179005D01*
X239082008Y-97093828D01*
X239115856Y-97059981D01*
X239146276Y-97044771D01*
X239225153Y-97044771D01*
X239255572Y-97059980D01*
G37*
G36*
X240048559Y-97719771D02*
G01*
X237635715Y-97719771D01*
X237635715Y-96969771D01*
X237710715Y-96969771D01*
X237710715Y-97569771D01*
X237712156Y-97584403D01*
X237723355Y-97611439D01*
X237744047Y-97632131D01*
X237771083Y-97643330D01*
X237785715Y-97644771D01*
X238014286Y-97644771D01*
X238028918Y-97643330D01*
X238031407Y-97642298D01*
X238034095Y-97642108D01*
X238047827Y-97636853D01*
X238104970Y-97608282D01*
X238111267Y-97604318D01*
X238113098Y-97603560D01*
X238115157Y-97601869D01*
X238117413Y-97600450D01*
X238118711Y-97598952D01*
X238124463Y-97594232D01*
X238153034Y-97565660D01*
X238157754Y-97559908D01*
X238159249Y-97558612D01*
X238160667Y-97556358D01*
X238162361Y-97554295D01*
X238163119Y-97552463D01*
X238167082Y-97546169D01*
X238195654Y-97489027D01*
X238200909Y-97475295D01*
X238201100Y-97472605D01*
X238202131Y-97470117D01*
X238203572Y-97455485D01*
X238203572Y-97369771D01*
X238202131Y-97355139D01*
X238201100Y-97352650D01*
X238200909Y-97349961D01*
X238195654Y-97336229D01*
X238167082Y-97279087D01*
X238163118Y-97272790D01*
X238162360Y-97270960D01*
X238160668Y-97268898D01*
X238159249Y-97266644D01*
X238157753Y-97265347D01*
X238153033Y-97259595D01*
X238133635Y-97240197D01*
X238133790Y-97240009D01*
X238134547Y-97238179D01*
X238138511Y-97231883D01*
X238167082Y-97174741D01*
X238168984Y-97169771D01*
X238282143Y-97169771D01*
X238282143Y-97369771D01*
X238282394Y-97372324D01*
X238282232Y-97373417D01*
X238283041Y-97378890D01*
X238283584Y-97384403D01*
X238284006Y-97385424D01*
X238284382Y-97387961D01*
X238312954Y-97502247D01*
X238317901Y-97516093D01*
X238321221Y-97520574D01*
X238323355Y-97525725D01*
X238332682Y-97537090D01*
X238389825Y-97594233D01*
X238395574Y-97598951D01*
X238396874Y-97600450D01*
X238399133Y-97601871D01*
X238401190Y-97603560D01*
X238403017Y-97604317D01*
X238409317Y-97608282D01*
X238466459Y-97636853D01*
X238480191Y-97642108D01*
X238482878Y-97642298D01*
X238485368Y-97643330D01*
X238500000Y-97644771D01*
X238614286Y-97644771D01*
X238628918Y-97643330D01*
X238631407Y-97642298D01*
X238634095Y-97642108D01*
X238647827Y-97636853D01*
X238704970Y-97608282D01*
X238711269Y-97604317D01*
X238713097Y-97603560D01*
X238715153Y-97601871D01*
X238717413Y-97600450D01*
X238718712Y-97598951D01*
X238724462Y-97594233D01*
X238781605Y-97537090D01*
X238790932Y-97525725D01*
X238793065Y-97520573D01*
X238796386Y-97516093D01*
X238801333Y-97502247D01*
X238829904Y-97387961D01*
X238830278Y-97385424D01*
X238830702Y-97384403D01*
X238831245Y-97378888D01*
X238832054Y-97373416D01*
X238831891Y-97372324D01*
X238832143Y-97369771D01*
X238832143Y-97169771D01*
X238910714Y-97169771D01*
X238910714Y-97369771D01*
X238910965Y-97372324D01*
X238910803Y-97373417D01*
X238911612Y-97378890D01*
X238912155Y-97384403D01*
X238912577Y-97385424D01*
X238912953Y-97387961D01*
X238941525Y-97502247D01*
X238946472Y-97516093D01*
X238949792Y-97520574D01*
X238951926Y-97525725D01*
X238961253Y-97537090D01*
X239018396Y-97594233D01*
X239024145Y-97598951D01*
X239025445Y-97600450D01*
X239027704Y-97601871D01*
X239029761Y-97603560D01*
X239031588Y-97604317D01*
X239037888Y-97608282D01*
X239095030Y-97636853D01*
X239108762Y-97642108D01*
X239111449Y-97642298D01*
X239113939Y-97643330D01*
X239128571Y-97644771D01*
X239242857Y-97644771D01*
X239257489Y-97643330D01*
X239259978Y-97642298D01*
X239262666Y-97642108D01*
X239276398Y-97636853D01*
X239333541Y-97608282D01*
X239339840Y-97604317D01*
X239341668Y-97603560D01*
X239343724Y-97601871D01*
X239345984Y-97600450D01*
X239347283Y-97598951D01*
X239353033Y-97594233D01*
X239410176Y-97537090D01*
X239419503Y-97525725D01*
X239421636Y-97520573D01*
X239424957Y-97516093D01*
X239429904Y-97502247D01*
X239458475Y-97387961D01*
X239458849Y-97385424D01*
X239459273Y-97384403D01*
X239459816Y-97378888D01*
X239460625Y-97373416D01*
X239460462Y-97372324D01*
X239460714Y-97369771D01*
X239460714Y-97169771D01*
X239460462Y-97167217D01*
X239460625Y-97166126D01*
X239459816Y-97160653D01*
X239459273Y-97155139D01*
X239458849Y-97154117D01*
X239458475Y-97151581D01*
X239429904Y-97037295D01*
X239424957Y-97023449D01*
X239421636Y-97018968D01*
X239419503Y-97013817D01*
X239410176Y-97002452D01*
X239362863Y-96955139D01*
X239483583Y-96955139D01*
X239483583Y-96984403D01*
X239494782Y-97011439D01*
X239515474Y-97032131D01*
X239542510Y-97043330D01*
X239557142Y-97044771D01*
X239653571Y-97044771D01*
X239653571Y-97569771D01*
X239655012Y-97584403D01*
X239666211Y-97611439D01*
X239686903Y-97632131D01*
X239713939Y-97643330D01*
X239743203Y-97643330D01*
X239770239Y-97632131D01*
X239790931Y-97611439D01*
X239802130Y-97584403D01*
X239803571Y-97569771D01*
X239803571Y-97044771D01*
X239900000Y-97044771D01*
X239914632Y-97043330D01*
X239941668Y-97032131D01*
X239962360Y-97011439D01*
X239973559Y-96984403D01*
X239973559Y-96955139D01*
X239962360Y-96928103D01*
X239941668Y-96907411D01*
X239914632Y-96896212D01*
X239900000Y-96894771D01*
X239557142Y-96894771D01*
X239542510Y-96896212D01*
X239515474Y-96907411D01*
X239494782Y-96928103D01*
X239483583Y-96955139D01*
X239362863Y-96955139D01*
X239353033Y-96945309D01*
X239347283Y-96940590D01*
X239345984Y-96939092D01*
X239343724Y-96937670D01*
X239341668Y-96935982D01*
X239339840Y-96935224D01*
X239333541Y-96931260D01*
X239276398Y-96902689D01*
X239262666Y-96897434D01*
X239259978Y-96897243D01*
X239257489Y-96896212D01*
X239242857Y-96894771D01*
X239128571Y-96894771D01*
X239113939Y-96896212D01*
X239111449Y-96897243D01*
X239108762Y-96897434D01*
X239095030Y-96902689D01*
X239037888Y-96931260D01*
X239031588Y-96935224D01*
X239029761Y-96935982D01*
X239027704Y-96937670D01*
X239025445Y-96939092D01*
X239024145Y-96940590D01*
X239018396Y-96945309D01*
X238961253Y-97002452D01*
X238951926Y-97013817D01*
X238949792Y-97018967D01*
X238946472Y-97023449D01*
X238941525Y-97037295D01*
X238912953Y-97151581D01*
X238912577Y-97154117D01*
X238912155Y-97155139D01*
X238911612Y-97160651D01*
X238910803Y-97166125D01*
X238910965Y-97167217D01*
X238910714Y-97169771D01*
X238832143Y-97169771D01*
X238831891Y-97167217D01*
X238832054Y-97166126D01*
X238831245Y-97160653D01*
X238830702Y-97155139D01*
X238830278Y-97154117D01*
X238829904Y-97151581D01*
X238801333Y-97037295D01*
X238796386Y-97023449D01*
X238793065Y-97018968D01*
X238790932Y-97013817D01*
X238781605Y-97002452D01*
X238724462Y-96945309D01*
X238718712Y-96940590D01*
X238717413Y-96939092D01*
X238715153Y-96937670D01*
X238713097Y-96935982D01*
X238711269Y-96935224D01*
X238704970Y-96931260D01*
X238647827Y-96902689D01*
X238634095Y-96897434D01*
X238631407Y-96897243D01*
X238628918Y-96896212D01*
X238614286Y-96894771D01*
X238500000Y-96894771D01*
X238485368Y-96896212D01*
X238482878Y-96897243D01*
X238480191Y-96897434D01*
X238466459Y-96902689D01*
X238409317Y-96931260D01*
X238403017Y-96935224D01*
X238401190Y-96935982D01*
X238399133Y-96937670D01*
X238396874Y-96939092D01*
X238395574Y-96940590D01*
X238389825Y-96945309D01*
X238332682Y-97002452D01*
X238323355Y-97013817D01*
X238321221Y-97018967D01*
X238317901Y-97023449D01*
X238312954Y-97037295D01*
X238284382Y-97151581D01*
X238284006Y-97154117D01*
X238283584Y-97155139D01*
X238283041Y-97160651D01*
X238282232Y-97166125D01*
X238282394Y-97167217D01*
X238282143Y-97169771D01*
X238168984Y-97169771D01*
X238172337Y-97161009D01*
X238172527Y-97158321D01*
X238173559Y-97155832D01*
X238175000Y-97141200D01*
X238175000Y-97084057D01*
X238173559Y-97069425D01*
X238172527Y-97066935D01*
X238172337Y-97064249D01*
X238167082Y-97050517D01*
X238138511Y-96993373D01*
X238134548Y-96987077D01*
X238133790Y-96985247D01*
X238132098Y-96983185D01*
X238130679Y-96980931D01*
X238129183Y-96979634D01*
X238124463Y-96973882D01*
X238095892Y-96945310D01*
X238090140Y-96940589D01*
X238088842Y-96939092D01*
X238086586Y-96937672D01*
X238084527Y-96935982D01*
X238082696Y-96935223D01*
X238076399Y-96931260D01*
X238019256Y-96902689D01*
X238005524Y-96897434D01*
X238002836Y-96897243D01*
X238000347Y-96896212D01*
X237985715Y-96894771D01*
X237785715Y-96894771D01*
X237771083Y-96896212D01*
X237744047Y-96907411D01*
X237723355Y-96928103D01*
X237712156Y-96955139D01*
X237710715Y-96969771D01*
X237635715Y-96969771D01*
X237635715Y-96819771D01*
X240048559Y-96819771D01*
X240048559Y-97719771D01*
G37*
X216969524Y-99532295D02*
X216969524Y-98732295D01*
X216969524Y-98732295D02*
X217160000Y-98732295D01*
X217160000Y-98732295D02*
X217274286Y-98770390D01*
X217274286Y-98770390D02*
X217350476Y-98846580D01*
X217350476Y-98846580D02*
X217388571Y-98922771D01*
X217388571Y-98922771D02*
X217426667Y-99075152D01*
X217426667Y-99075152D02*
X217426667Y-99189438D01*
X217426667Y-99189438D02*
X217388571Y-99341819D01*
X217388571Y-99341819D02*
X217350476Y-99418009D01*
X217350476Y-99418009D02*
X217274286Y-99494200D01*
X217274286Y-99494200D02*
X217160000Y-99532295D01*
X217160000Y-99532295D02*
X216969524Y-99532295D01*
X218188571Y-99532295D02*
X217731428Y-99532295D01*
X217960000Y-99532295D02*
X217960000Y-98732295D01*
X217960000Y-98732295D02*
X217883809Y-98846580D01*
X217883809Y-98846580D02*
X217807619Y-98922771D01*
X217807619Y-98922771D02*
X217731428Y-98960866D01*
G36*
X205595200Y-95513894D02*
G01*
X205631217Y-95549911D01*
X205650663Y-95588803D01*
X205675000Y-95686148D01*
X205675000Y-95753393D01*
X205650663Y-95850738D01*
X205631217Y-95889630D01*
X205595200Y-95925647D01*
X205537830Y-95944771D01*
X205482143Y-95944771D01*
X205482143Y-95494771D01*
X205537830Y-95494771D01*
X205595200Y-95513894D01*
G37*
G36*
X205900000Y-96169771D02*
G01*
X201799999Y-96169771D01*
X201799999Y-95534057D01*
X201874999Y-95534057D01*
X201874999Y-95591200D01*
X201876440Y-95605832D01*
X201877470Y-95608320D01*
X201877662Y-95611010D01*
X201882917Y-95624742D01*
X201911489Y-95681884D01*
X201915452Y-95688180D01*
X201916210Y-95690009D01*
X201917900Y-95692068D01*
X201919322Y-95694327D01*
X201920819Y-95695625D01*
X201925537Y-95701374D01*
X201954108Y-95729946D01*
X201959862Y-95734669D01*
X201961159Y-95736164D01*
X201963411Y-95737581D01*
X201965473Y-95739274D01*
X201967305Y-95740032D01*
X201973601Y-95743996D01*
X202030745Y-95772567D01*
X202031812Y-95772975D01*
X202032249Y-95773299D01*
X202038409Y-95775500D01*
X202044477Y-95777822D01*
X202045015Y-95777860D01*
X202046095Y-95778246D01*
X202152396Y-95804822D01*
X202191285Y-95824266D01*
X202202645Y-95835626D01*
X202217856Y-95866047D01*
X202217856Y-95887780D01*
X202202645Y-95918201D01*
X202191285Y-95929561D01*
X202160867Y-95944771D01*
X202047885Y-95944771D01*
X201973716Y-95920049D01*
X201959379Y-95916789D01*
X201930189Y-95918864D01*
X201904015Y-95931951D01*
X201884842Y-95954058D01*
X201875588Y-95981820D01*
X201877663Y-96011010D01*
X201890750Y-96037184D01*
X201912857Y-96056357D01*
X201926282Y-96062351D01*
X202011997Y-96090922D01*
X202019250Y-96092571D01*
X202021082Y-96093330D01*
X202023736Y-96093591D01*
X202026334Y-96094182D01*
X202028308Y-96094041D01*
X202035714Y-96094771D01*
X202178571Y-96094771D01*
X202193203Y-96093330D01*
X202195692Y-96092298D01*
X202198380Y-96092108D01*
X202212112Y-96086853D01*
X202269255Y-96058282D01*
X202275552Y-96054318D01*
X202277383Y-96053560D01*
X202279442Y-96051869D01*
X202281698Y-96050450D01*
X202282996Y-96048952D01*
X202288748Y-96044232D01*
X202317319Y-96015660D01*
X202322039Y-96009907D01*
X202323535Y-96008611D01*
X202324954Y-96006356D01*
X202326646Y-96004295D01*
X202327404Y-96002464D01*
X202331367Y-95996169D01*
X202359938Y-95939025D01*
X202365193Y-95925293D01*
X202365383Y-95922606D01*
X202366415Y-95920117D01*
X202367856Y-95905485D01*
X202367856Y-95848342D01*
X202366415Y-95833710D01*
X202365383Y-95831220D01*
X202365193Y-95828533D01*
X202359938Y-95814801D01*
X202331367Y-95757659D01*
X202327403Y-95751362D01*
X202326646Y-95749533D01*
X202324956Y-95747474D01*
X202323535Y-95745216D01*
X202322036Y-95743916D01*
X202317319Y-95738168D01*
X202288748Y-95709596D01*
X202282996Y-95704875D01*
X202281698Y-95703378D01*
X202279442Y-95701958D01*
X202277383Y-95700268D01*
X202275552Y-95699509D01*
X202269255Y-95695546D01*
X202212112Y-95666975D01*
X202211042Y-95666565D01*
X202210607Y-95666243D01*
X202204461Y-95664047D01*
X202198380Y-95661720D01*
X202197840Y-95661681D01*
X202196761Y-95661296D01*
X202090460Y-95634720D01*
X202051569Y-95615275D01*
X202040210Y-95603916D01*
X202024999Y-95573493D01*
X202024999Y-95551762D01*
X202040210Y-95521339D01*
X202051569Y-95509980D01*
X202081990Y-95494771D01*
X202194972Y-95494771D01*
X202269139Y-95519493D01*
X202283476Y-95522753D01*
X202312666Y-95520678D01*
X202338839Y-95507591D01*
X202358013Y-95485484D01*
X202367267Y-95457722D01*
X202365192Y-95428532D01*
X202353495Y-95405139D01*
X202390726Y-95405139D01*
X202390726Y-95434403D01*
X202401925Y-95461439D01*
X202422617Y-95482131D01*
X202449653Y-95493330D01*
X202464285Y-95494771D01*
X202560714Y-95494771D01*
X202560714Y-96019771D01*
X202562155Y-96034403D01*
X202573354Y-96061439D01*
X202594046Y-96082131D01*
X202621082Y-96093330D01*
X202650346Y-96093330D01*
X202677382Y-96082131D01*
X202698074Y-96061439D01*
X202709273Y-96034403D01*
X202710714Y-96019771D01*
X202710714Y-95494771D01*
X202807143Y-95494771D01*
X202821775Y-95493330D01*
X202848811Y-95482131D01*
X202869503Y-95461439D01*
X202880702Y-95434403D01*
X202880702Y-95419771D01*
X202932143Y-95419771D01*
X202932143Y-96019771D01*
X202933584Y-96034403D01*
X202944783Y-96061439D01*
X202965475Y-96082131D01*
X202992511Y-96093330D01*
X203021775Y-96093330D01*
X203048811Y-96082131D01*
X203069503Y-96061439D01*
X203080702Y-96034403D01*
X203082143Y-96019771D01*
X203082143Y-95757838D01*
X203139179Y-95880059D01*
X203142353Y-95885416D01*
X203143013Y-95887231D01*
X203144188Y-95888514D01*
X203146673Y-95892708D01*
X203155078Y-95900406D01*
X203162777Y-95908812D01*
X203165796Y-95910220D01*
X203168254Y-95912472D01*
X203178963Y-95916366D01*
X203189295Y-95921188D01*
X203192626Y-95921334D01*
X203195755Y-95922472D01*
X203207143Y-95921971D01*
X203218531Y-95922472D01*
X203221659Y-95921334D01*
X203224991Y-95921188D01*
X203235322Y-95916366D01*
X203246032Y-95912472D01*
X203248489Y-95910220D01*
X203251509Y-95908812D01*
X203259207Y-95900406D01*
X203267613Y-95892708D01*
X203270096Y-95888515D01*
X203271273Y-95887231D01*
X203271933Y-95885415D01*
X203275107Y-95880058D01*
X203332143Y-95757838D01*
X203332143Y-96019771D01*
X203333584Y-96034403D01*
X203344783Y-96061439D01*
X203365475Y-96082131D01*
X203392511Y-96093330D01*
X203421775Y-96093330D01*
X203448811Y-96082131D01*
X203469503Y-96061439D01*
X203480702Y-96034403D01*
X203482143Y-96019771D01*
X203482143Y-95534057D01*
X204046428Y-95534057D01*
X204046428Y-95591200D01*
X204047869Y-95605832D01*
X204048899Y-95608320D01*
X204049091Y-95611010D01*
X204054346Y-95624742D01*
X204082918Y-95681884D01*
X204086881Y-95688180D01*
X204087639Y-95690009D01*
X204089329Y-95692068D01*
X204090751Y-95694327D01*
X204092248Y-95695625D01*
X204096966Y-95701374D01*
X204125537Y-95729946D01*
X204131291Y-95734669D01*
X204132588Y-95736164D01*
X204134840Y-95737581D01*
X204136902Y-95739274D01*
X204138734Y-95740032D01*
X204145030Y-95743996D01*
X204202174Y-95772567D01*
X204203241Y-95772975D01*
X204203678Y-95773299D01*
X204209838Y-95775500D01*
X204215906Y-95777822D01*
X204216444Y-95777860D01*
X204217524Y-95778246D01*
X204323825Y-95804822D01*
X204362714Y-95824266D01*
X204374074Y-95835626D01*
X204389285Y-95866047D01*
X204389285Y-95887780D01*
X204374074Y-95918201D01*
X204362714Y-95929561D01*
X204332296Y-95944771D01*
X204219314Y-95944771D01*
X204145145Y-95920049D01*
X204130808Y-95916789D01*
X204101618Y-95918864D01*
X204075444Y-95931951D01*
X204056271Y-95954058D01*
X204047017Y-95981820D01*
X204049092Y-96011010D01*
X204062179Y-96037184D01*
X204084286Y-96056357D01*
X204097711Y-96062351D01*
X204183426Y-96090922D01*
X204190679Y-96092571D01*
X204192511Y-96093330D01*
X204195165Y-96093591D01*
X204197763Y-96094182D01*
X204199737Y-96094041D01*
X204207143Y-96094771D01*
X204350000Y-96094771D01*
X204364632Y-96093330D01*
X204367121Y-96092298D01*
X204369809Y-96092108D01*
X204383541Y-96086853D01*
X204440684Y-96058282D01*
X204446981Y-96054318D01*
X204448812Y-96053560D01*
X204450871Y-96051869D01*
X204453127Y-96050450D01*
X204454425Y-96048952D01*
X204460177Y-96044232D01*
X204488748Y-96015660D01*
X204493468Y-96009907D01*
X204494964Y-96008611D01*
X204496383Y-96006356D01*
X204498075Y-96004295D01*
X204498833Y-96002464D01*
X204502796Y-95996169D01*
X204531367Y-95939025D01*
X204536622Y-95925293D01*
X204536812Y-95922606D01*
X204537844Y-95920117D01*
X204539285Y-95905485D01*
X204539285Y-95848342D01*
X204537844Y-95833710D01*
X204536812Y-95831220D01*
X204536622Y-95828533D01*
X204531367Y-95814801D01*
X204502796Y-95757659D01*
X204498832Y-95751362D01*
X204498075Y-95749533D01*
X204496385Y-95747474D01*
X204494964Y-95745216D01*
X204493465Y-95743916D01*
X204488748Y-95738168D01*
X204460177Y-95709596D01*
X204454425Y-95704875D01*
X204453127Y-95703378D01*
X204450871Y-95701958D01*
X204448812Y-95700268D01*
X204446981Y-95699509D01*
X204440684Y-95695546D01*
X204383541Y-95666975D01*
X204382471Y-95666565D01*
X204382036Y-95666243D01*
X204375890Y-95664047D01*
X204369809Y-95661720D01*
X204369269Y-95661681D01*
X204368190Y-95661296D01*
X204261889Y-95634720D01*
X204222998Y-95615275D01*
X204211639Y-95603916D01*
X204196428Y-95573493D01*
X204196428Y-95551762D01*
X204211639Y-95521339D01*
X204222998Y-95509980D01*
X204253419Y-95494771D01*
X204366401Y-95494771D01*
X204440568Y-95519493D01*
X204454905Y-95522753D01*
X204484095Y-95520678D01*
X204510268Y-95507591D01*
X204529442Y-95485484D01*
X204538696Y-95457722D01*
X204536621Y-95428532D01*
X204533642Y-95422575D01*
X204589338Y-95422575D01*
X204591326Y-95437143D01*
X204734182Y-96037142D01*
X204735912Y-96042164D01*
X204736152Y-96043964D01*
X204737093Y-96045591D01*
X204738973Y-96051043D01*
X204745358Y-96059865D01*
X204750814Y-96069289D01*
X204753872Y-96071630D01*
X204756130Y-96074749D01*
X204765401Y-96080454D01*
X204774052Y-96087076D01*
X204777773Y-96088068D01*
X204781052Y-96090086D01*
X204791801Y-96091809D01*
X204802327Y-96094616D01*
X204806145Y-96094108D01*
X204809947Y-96094718D01*
X204820536Y-96092196D01*
X204831336Y-96090762D01*
X204834670Y-96088831D01*
X204838415Y-96087940D01*
X204847235Y-96081557D01*
X204856661Y-96076100D01*
X204859001Y-96073042D01*
X204862122Y-96070784D01*
X204867829Y-96061508D01*
X204874448Y-96052862D01*
X204876473Y-96047462D01*
X204877458Y-96045862D01*
X204877745Y-96044070D01*
X204879611Y-96039096D01*
X204921428Y-95882279D01*
X204963246Y-96039095D01*
X204965111Y-96044069D01*
X204965399Y-96045862D01*
X204966384Y-96047463D01*
X204968409Y-96052862D01*
X204975027Y-96061508D01*
X204980735Y-96070784D01*
X204983855Y-96073042D01*
X204986196Y-96076100D01*
X204995614Y-96081552D01*
X205004442Y-96087941D01*
X205008192Y-96088833D01*
X205011521Y-96090761D01*
X205022305Y-96092194D01*
X205032910Y-96094719D01*
X205036714Y-96094109D01*
X205040529Y-96094616D01*
X205051050Y-96091810D01*
X205061805Y-96090086D01*
X205065084Y-96088068D01*
X205068805Y-96087076D01*
X205077451Y-96080457D01*
X205086727Y-96074750D01*
X205088985Y-96071629D01*
X205092043Y-96069289D01*
X205097497Y-96059867D01*
X205103884Y-96051043D01*
X205105762Y-96045592D01*
X205106705Y-96043964D01*
X205106944Y-96042162D01*
X205108674Y-96037143D01*
X205251533Y-95437142D01*
X205253520Y-95422574D01*
X205253071Y-95419771D01*
X205332143Y-95419771D01*
X205332143Y-96019771D01*
X205333584Y-96034403D01*
X205344783Y-96061439D01*
X205365475Y-96082131D01*
X205392511Y-96093330D01*
X205407143Y-96094771D01*
X205550000Y-96094771D01*
X205557405Y-96094041D01*
X205559380Y-96094182D01*
X205561977Y-96093591D01*
X205564632Y-96093330D01*
X205566463Y-96092571D01*
X205573717Y-96090922D01*
X205659430Y-96062351D01*
X205672856Y-96056357D01*
X205674891Y-96054591D01*
X205677382Y-96053560D01*
X205688747Y-96044233D01*
X205745890Y-95987090D01*
X205750610Y-95981337D01*
X205752107Y-95980040D01*
X205753526Y-95977784D01*
X205755217Y-95975725D01*
X205755974Y-95973895D01*
X205759939Y-95967598D01*
X205788510Y-95910454D01*
X205788918Y-95909386D01*
X205789242Y-95908950D01*
X205791443Y-95902789D01*
X205793765Y-95896722D01*
X205793803Y-95896183D01*
X205794189Y-95895104D01*
X205822761Y-95780819D01*
X205823136Y-95778280D01*
X205823559Y-95777260D01*
X205824101Y-95771748D01*
X205824911Y-95766274D01*
X205824748Y-95765181D01*
X205825000Y-95762628D01*
X205825000Y-95676914D01*
X205824748Y-95674360D01*
X205824911Y-95673268D01*
X205824101Y-95667793D01*
X205823559Y-95662282D01*
X205823136Y-95661261D01*
X205822761Y-95658723D01*
X205794189Y-95544438D01*
X205793803Y-95543358D01*
X205793765Y-95542820D01*
X205791443Y-95536752D01*
X205789242Y-95530592D01*
X205788918Y-95530155D01*
X205788510Y-95529088D01*
X205759939Y-95471944D01*
X205755974Y-95465646D01*
X205755217Y-95463817D01*
X205753526Y-95461757D01*
X205752107Y-95459502D01*
X205750610Y-95458204D01*
X205745890Y-95452452D01*
X205688747Y-95395309D01*
X205677382Y-95385982D01*
X205674891Y-95384950D01*
X205672856Y-95383185D01*
X205659430Y-95377191D01*
X205573717Y-95348620D01*
X205566463Y-95346970D01*
X205564632Y-95346212D01*
X205561977Y-95345950D01*
X205559380Y-95345360D01*
X205557405Y-95345500D01*
X205550000Y-95344771D01*
X205407143Y-95344771D01*
X205392511Y-95346212D01*
X205365475Y-95357411D01*
X205344783Y-95378103D01*
X205333584Y-95405139D01*
X205332143Y-95419771D01*
X205253071Y-95419771D01*
X205248887Y-95393680D01*
X205233551Y-95368758D01*
X205209844Y-95351601D01*
X205181376Y-95344823D01*
X205152481Y-95349455D01*
X205127559Y-95364792D01*
X205110403Y-95388499D01*
X205105612Y-95402399D01*
X205031598Y-95713255D01*
X204993897Y-95571875D01*
X204992611Y-95568447D01*
X204992420Y-95567006D01*
X204991428Y-95565293D01*
X204988734Y-95558109D01*
X204982720Y-95550252D01*
X204977758Y-95541681D01*
X204973897Y-95538726D01*
X204970947Y-95534871D01*
X204962387Y-95529915D01*
X204954521Y-95523894D01*
X204949823Y-95522641D01*
X204945622Y-95520209D01*
X204935815Y-95518906D01*
X204926245Y-95516354D01*
X204921426Y-95516994D01*
X204916614Y-95516355D01*
X204907053Y-95518904D01*
X204897236Y-95520209D01*
X204893030Y-95522643D01*
X204888338Y-95523895D01*
X204880478Y-95529910D01*
X204871911Y-95534871D01*
X204868957Y-95538729D01*
X204865100Y-95541682D01*
X204860141Y-95550247D01*
X204854124Y-95558108D01*
X204851429Y-95565294D01*
X204850438Y-95567007D01*
X204850246Y-95568449D01*
X204848962Y-95571875D01*
X204811259Y-95713256D01*
X204737246Y-95402399D01*
X204732456Y-95388499D01*
X204715299Y-95364792D01*
X204690377Y-95349456D01*
X204661482Y-95344823D01*
X204633014Y-95351601D01*
X204609307Y-95368758D01*
X204593971Y-95393680D01*
X204589338Y-95422575D01*
X204533642Y-95422575D01*
X204523534Y-95402358D01*
X204501427Y-95383185D01*
X204488001Y-95377191D01*
X204402288Y-95348620D01*
X204395034Y-95346970D01*
X204393203Y-95346212D01*
X204390548Y-95345950D01*
X204387951Y-95345360D01*
X204385976Y-95345500D01*
X204378571Y-95344771D01*
X204235714Y-95344771D01*
X204221082Y-95346212D01*
X204218592Y-95347243D01*
X204215906Y-95347434D01*
X204202174Y-95352689D01*
X204145030Y-95381260D01*
X204138734Y-95385223D01*
X204136902Y-95385982D01*
X204134840Y-95387674D01*
X204132588Y-95389092D01*
X204131291Y-95390586D01*
X204125537Y-95395310D01*
X204096966Y-95423882D01*
X204092245Y-95429633D01*
X204090751Y-95430930D01*
X204089332Y-95433183D01*
X204087639Y-95435247D01*
X204086880Y-95437078D01*
X204082918Y-95443373D01*
X204054346Y-95500516D01*
X204049091Y-95514247D01*
X204048899Y-95516936D01*
X204047869Y-95519425D01*
X204046428Y-95534057D01*
X203482143Y-95534057D01*
X203482143Y-95419771D01*
X203481195Y-95410149D01*
X203481273Y-95408383D01*
X203480928Y-95407434D01*
X203480702Y-95405139D01*
X203475720Y-95393112D01*
X203471273Y-95380882D01*
X203470143Y-95379648D01*
X203469503Y-95378103D01*
X203460297Y-95368897D01*
X203451509Y-95359301D01*
X203449993Y-95358593D01*
X203448811Y-95357411D01*
X203436789Y-95352431D01*
X203424991Y-95346925D01*
X203423319Y-95346851D01*
X203421775Y-95346212D01*
X203408756Y-95346212D01*
X203395755Y-95345641D01*
X203394185Y-95346212D01*
X203392511Y-95346212D01*
X203380484Y-95351193D01*
X203368254Y-95355641D01*
X203367020Y-95356770D01*
X203365475Y-95357411D01*
X203356269Y-95366616D01*
X203346673Y-95375405D01*
X203345498Y-95377387D01*
X203344783Y-95378103D01*
X203344105Y-95379738D01*
X203339179Y-95388054D01*
X203207142Y-95670988D01*
X203075107Y-95388055D01*
X203070181Y-95379739D01*
X203069503Y-95378103D01*
X203068787Y-95377387D01*
X203067613Y-95375405D01*
X203058016Y-95366616D01*
X203048811Y-95357411D01*
X203047265Y-95356770D01*
X203046032Y-95355641D01*
X203033801Y-95351193D01*
X203021775Y-95346212D01*
X203020101Y-95346212D01*
X203018531Y-95345641D01*
X203005530Y-95346212D01*
X202992511Y-95346212D01*
X202990966Y-95346851D01*
X202989295Y-95346925D01*
X202977496Y-95352431D01*
X202965475Y-95357411D01*
X202964292Y-95358593D01*
X202962777Y-95359301D01*
X202953988Y-95368897D01*
X202944783Y-95378103D01*
X202944142Y-95379648D01*
X202943013Y-95380882D01*
X202938565Y-95393112D01*
X202933584Y-95405139D01*
X202933357Y-95407434D01*
X202933013Y-95408383D01*
X202933090Y-95410149D01*
X202932143Y-95419771D01*
X202880702Y-95419771D01*
X202880702Y-95405139D01*
X202869503Y-95378103D01*
X202848811Y-95357411D01*
X202821775Y-95346212D01*
X202807143Y-95344771D01*
X202464285Y-95344771D01*
X202449653Y-95346212D01*
X202422617Y-95357411D01*
X202401925Y-95378103D01*
X202390726Y-95405139D01*
X202353495Y-95405139D01*
X202352105Y-95402358D01*
X202329998Y-95383185D01*
X202316572Y-95377191D01*
X202230859Y-95348620D01*
X202223605Y-95346970D01*
X202221774Y-95346212D01*
X202219119Y-95345950D01*
X202216522Y-95345360D01*
X202214547Y-95345500D01*
X202207142Y-95344771D01*
X202064285Y-95344771D01*
X202049653Y-95346212D01*
X202047163Y-95347243D01*
X202044477Y-95347434D01*
X202030745Y-95352689D01*
X201973601Y-95381260D01*
X201967305Y-95385223D01*
X201965473Y-95385982D01*
X201963411Y-95387674D01*
X201961159Y-95389092D01*
X201959862Y-95390586D01*
X201954108Y-95395310D01*
X201925537Y-95423882D01*
X201920816Y-95429633D01*
X201919322Y-95430930D01*
X201917903Y-95433183D01*
X201916210Y-95435247D01*
X201915451Y-95437078D01*
X201911489Y-95443373D01*
X201882917Y-95500516D01*
X201877662Y-95514247D01*
X201877470Y-95516936D01*
X201876440Y-95519425D01*
X201874999Y-95534057D01*
X201799999Y-95534057D01*
X201799999Y-95269771D01*
X205900000Y-95269771D01*
X205900000Y-96169771D01*
G37*
G36*
X218126999Y-71359980D02*
G01*
X218138359Y-71371340D01*
X218153571Y-71401762D01*
X218153571Y-71452065D01*
X218138360Y-71482486D01*
X218127001Y-71493845D01*
X218096579Y-71509057D01*
X217960714Y-71509057D01*
X217960714Y-71344771D01*
X218096581Y-71344771D01*
X218126999Y-71359980D01*
G37*
G36*
X220548559Y-72019771D02*
G01*
X217735714Y-72019771D01*
X217735714Y-71269771D01*
X217810714Y-71269771D01*
X217810714Y-71869771D01*
X217812155Y-71884403D01*
X217823354Y-71911439D01*
X217844046Y-71932131D01*
X217871082Y-71943330D01*
X217900346Y-71943330D01*
X217927382Y-71932131D01*
X217948074Y-71911439D01*
X217959273Y-71884403D01*
X217960714Y-71869771D01*
X217960714Y-71659057D01*
X217989522Y-71659057D01*
X218167128Y-71912780D01*
X218176700Y-71923941D01*
X218201378Y-71939667D01*
X218230196Y-71944753D01*
X218258767Y-71938423D01*
X218282741Y-71921642D01*
X218298468Y-71896963D01*
X218303553Y-71868145D01*
X218297223Y-71839574D01*
X218290013Y-71826761D01*
X218162086Y-71644008D01*
X218204969Y-71622567D01*
X218211265Y-71618603D01*
X218213096Y-71617845D01*
X218215157Y-71616153D01*
X218217412Y-71614734D01*
X218218708Y-71613238D01*
X218224461Y-71608518D01*
X218253032Y-71579947D01*
X218257752Y-71574194D01*
X218259248Y-71572898D01*
X218260667Y-71570643D01*
X218262359Y-71568582D01*
X218263117Y-71566751D01*
X218267081Y-71560455D01*
X218295653Y-71503313D01*
X218300908Y-71489581D01*
X218301099Y-71486891D01*
X218302130Y-71484403D01*
X218303571Y-71469771D01*
X218303571Y-71384057D01*
X218302130Y-71369425D01*
X218301099Y-71366936D01*
X218300908Y-71364247D01*
X218295653Y-71350515D01*
X218267081Y-71293373D01*
X218263118Y-71287078D01*
X218262360Y-71285247D01*
X218260666Y-71283183D01*
X218259248Y-71280930D01*
X218257753Y-71279633D01*
X218253033Y-71273882D01*
X218248922Y-71269771D01*
X218410714Y-71269771D01*
X218410714Y-71869771D01*
X218412155Y-71884403D01*
X218423354Y-71911439D01*
X218444046Y-71932131D01*
X218471082Y-71943330D01*
X218485714Y-71944771D01*
X218771428Y-71944771D01*
X218786060Y-71943330D01*
X218813096Y-71932131D01*
X218833788Y-71911439D01*
X218844987Y-71884403D01*
X218844987Y-71855139D01*
X218833788Y-71828103D01*
X218813096Y-71807411D01*
X218786060Y-71796212D01*
X218771428Y-71794771D01*
X218560714Y-71794771D01*
X218560714Y-71630485D01*
X218685714Y-71630485D01*
X218700346Y-71629044D01*
X218727382Y-71617845D01*
X218748074Y-71597153D01*
X218759273Y-71570117D01*
X218759273Y-71540853D01*
X218748074Y-71513817D01*
X218727382Y-71493125D01*
X218700346Y-71481926D01*
X218685714Y-71480485D01*
X218560714Y-71480485D01*
X218560714Y-71384057D01*
X218924999Y-71384057D01*
X218924999Y-71441200D01*
X218926440Y-71455832D01*
X218927470Y-71458320D01*
X218927662Y-71461010D01*
X218932917Y-71474742D01*
X218961489Y-71531884D01*
X218965452Y-71538180D01*
X218966210Y-71540009D01*
X218967900Y-71542068D01*
X218969322Y-71544327D01*
X218970819Y-71545625D01*
X218975537Y-71551374D01*
X219004108Y-71579946D01*
X219009862Y-71584669D01*
X219011159Y-71586164D01*
X219013411Y-71587581D01*
X219015473Y-71589274D01*
X219017305Y-71590032D01*
X219023601Y-71593996D01*
X219080745Y-71622567D01*
X219081812Y-71622975D01*
X219082249Y-71623299D01*
X219088409Y-71625500D01*
X219094477Y-71627822D01*
X219095015Y-71627860D01*
X219096095Y-71628246D01*
X219202396Y-71654822D01*
X219241285Y-71674266D01*
X219252645Y-71685626D01*
X219267856Y-71716047D01*
X219267856Y-71737780D01*
X219252645Y-71768201D01*
X219241285Y-71779561D01*
X219210867Y-71794771D01*
X219097885Y-71794771D01*
X219023716Y-71770049D01*
X219009379Y-71766789D01*
X218980189Y-71768864D01*
X218954015Y-71781951D01*
X218934842Y-71804058D01*
X218925588Y-71831820D01*
X218927663Y-71861010D01*
X218940750Y-71887184D01*
X218962857Y-71906357D01*
X218976282Y-71912351D01*
X219061997Y-71940922D01*
X219069250Y-71942571D01*
X219071082Y-71943330D01*
X219073736Y-71943591D01*
X219076334Y-71944182D01*
X219078308Y-71944041D01*
X219085714Y-71944771D01*
X219228571Y-71944771D01*
X219243203Y-71943330D01*
X219245692Y-71942298D01*
X219248380Y-71942108D01*
X219262112Y-71936853D01*
X219319255Y-71908282D01*
X219325552Y-71904318D01*
X219327383Y-71903560D01*
X219329442Y-71901869D01*
X219331698Y-71900450D01*
X219332996Y-71898952D01*
X219338748Y-71894232D01*
X219367319Y-71865660D01*
X219372039Y-71859907D01*
X219373535Y-71858611D01*
X219374954Y-71856356D01*
X219376646Y-71854295D01*
X219377404Y-71852464D01*
X219381367Y-71846169D01*
X219409938Y-71789025D01*
X219415193Y-71775293D01*
X219415383Y-71772606D01*
X219416415Y-71770117D01*
X219417856Y-71755485D01*
X219417856Y-71698342D01*
X219416415Y-71683710D01*
X219415383Y-71681220D01*
X219415193Y-71678533D01*
X219409938Y-71664801D01*
X219381367Y-71607659D01*
X219377403Y-71601362D01*
X219376646Y-71599533D01*
X219374956Y-71597474D01*
X219373535Y-71595216D01*
X219372036Y-71593916D01*
X219367319Y-71588168D01*
X219338748Y-71559596D01*
X219332996Y-71554875D01*
X219331698Y-71553378D01*
X219329442Y-71551958D01*
X219327383Y-71550268D01*
X219325552Y-71549509D01*
X219319255Y-71545546D01*
X219262112Y-71516975D01*
X219261042Y-71516565D01*
X219260607Y-71516243D01*
X219254461Y-71514047D01*
X219248380Y-71511720D01*
X219247840Y-71511681D01*
X219246761Y-71511296D01*
X219140460Y-71484720D01*
X219101569Y-71465275D01*
X219090210Y-71453916D01*
X219074999Y-71423493D01*
X219074999Y-71401762D01*
X219090210Y-71371339D01*
X219101569Y-71359980D01*
X219131990Y-71344771D01*
X219244972Y-71344771D01*
X219319139Y-71369493D01*
X219333476Y-71372753D01*
X219362666Y-71370678D01*
X219388839Y-71357591D01*
X219408013Y-71335484D01*
X219417267Y-71307722D01*
X219415192Y-71278532D01*
X219410811Y-71269771D01*
X219525000Y-71269771D01*
X219525000Y-71869771D01*
X219526441Y-71884403D01*
X219537640Y-71911439D01*
X219558332Y-71932131D01*
X219585368Y-71943330D01*
X219600000Y-71944771D01*
X219885714Y-71944771D01*
X219900346Y-71943330D01*
X219927382Y-71932131D01*
X219948074Y-71911439D01*
X219959273Y-71884403D01*
X219959273Y-71855139D01*
X219948074Y-71828103D01*
X219927382Y-71807411D01*
X219900346Y-71796212D01*
X219885714Y-71794771D01*
X219675000Y-71794771D01*
X219675000Y-71630485D01*
X219800000Y-71630485D01*
X219814632Y-71629044D01*
X219841668Y-71617845D01*
X219862360Y-71597153D01*
X219873559Y-71570117D01*
X219873559Y-71540853D01*
X219862360Y-71513817D01*
X219841668Y-71493125D01*
X219814632Y-71481926D01*
X219800000Y-71480485D01*
X219675000Y-71480485D01*
X219675000Y-71344771D01*
X219885714Y-71344771D01*
X219900346Y-71343330D01*
X219927382Y-71332131D01*
X219948074Y-71311439D01*
X219959273Y-71284403D01*
X219959273Y-71255139D01*
X219983583Y-71255139D01*
X219983583Y-71284403D01*
X219994782Y-71311439D01*
X220015474Y-71332131D01*
X220042510Y-71343330D01*
X220057142Y-71344771D01*
X220153571Y-71344771D01*
X220153571Y-71869771D01*
X220155012Y-71884403D01*
X220166211Y-71911439D01*
X220186903Y-71932131D01*
X220213939Y-71943330D01*
X220243203Y-71943330D01*
X220270239Y-71932131D01*
X220290931Y-71911439D01*
X220302130Y-71884403D01*
X220303571Y-71869771D01*
X220303571Y-71344771D01*
X220400000Y-71344771D01*
X220414632Y-71343330D01*
X220441668Y-71332131D01*
X220462360Y-71311439D01*
X220473559Y-71284403D01*
X220473559Y-71255139D01*
X220462360Y-71228103D01*
X220441668Y-71207411D01*
X220414632Y-71196212D01*
X220400000Y-71194771D01*
X220057142Y-71194771D01*
X220042510Y-71196212D01*
X220015474Y-71207411D01*
X219994782Y-71228103D01*
X219983583Y-71255139D01*
X219959273Y-71255139D01*
X219948074Y-71228103D01*
X219927382Y-71207411D01*
X219900346Y-71196212D01*
X219885714Y-71194771D01*
X219600000Y-71194771D01*
X219585368Y-71196212D01*
X219558332Y-71207411D01*
X219537640Y-71228103D01*
X219526441Y-71255139D01*
X219525000Y-71269771D01*
X219410811Y-71269771D01*
X219402105Y-71252358D01*
X219379998Y-71233185D01*
X219366572Y-71227191D01*
X219280859Y-71198620D01*
X219273605Y-71196970D01*
X219271774Y-71196212D01*
X219269119Y-71195950D01*
X219266522Y-71195360D01*
X219264547Y-71195500D01*
X219257142Y-71194771D01*
X219114285Y-71194771D01*
X219099653Y-71196212D01*
X219097163Y-71197243D01*
X219094477Y-71197434D01*
X219080745Y-71202689D01*
X219023601Y-71231260D01*
X219017305Y-71235223D01*
X219015473Y-71235982D01*
X219013411Y-71237674D01*
X219011159Y-71239092D01*
X219009862Y-71240586D01*
X219004108Y-71245310D01*
X218975537Y-71273882D01*
X218970816Y-71279633D01*
X218969322Y-71280930D01*
X218967903Y-71283183D01*
X218966210Y-71285247D01*
X218965451Y-71287078D01*
X218961489Y-71293373D01*
X218932917Y-71350516D01*
X218927662Y-71364247D01*
X218927470Y-71366936D01*
X218926440Y-71369425D01*
X218924999Y-71384057D01*
X218560714Y-71384057D01*
X218560714Y-71344771D01*
X218771428Y-71344771D01*
X218786060Y-71343330D01*
X218813096Y-71332131D01*
X218833788Y-71311439D01*
X218844987Y-71284403D01*
X218844987Y-71255139D01*
X218833788Y-71228103D01*
X218813096Y-71207411D01*
X218786060Y-71196212D01*
X218771428Y-71194771D01*
X218485714Y-71194771D01*
X218471082Y-71196212D01*
X218444046Y-71207411D01*
X218423354Y-71228103D01*
X218412155Y-71255139D01*
X218410714Y-71269771D01*
X218248922Y-71269771D01*
X218224462Y-71245310D01*
X218218710Y-71240589D01*
X218217412Y-71239092D01*
X218215156Y-71237672D01*
X218213097Y-71235982D01*
X218211266Y-71235223D01*
X218204969Y-71231260D01*
X218147826Y-71202689D01*
X218134094Y-71197434D01*
X218131406Y-71197243D01*
X218128917Y-71196212D01*
X218114285Y-71194771D01*
X217885714Y-71194771D01*
X217871082Y-71196212D01*
X217844046Y-71207411D01*
X217823354Y-71228103D01*
X217812155Y-71255139D01*
X217810714Y-71269771D01*
X217735714Y-71269771D01*
X217735714Y-71119771D01*
X220548559Y-71119771D01*
X220548559Y-72019771D01*
G37*
X209040476Y-109062295D02*
X209040476Y-109709914D01*
X209040476Y-109709914D02*
X209078571Y-109786104D01*
X209078571Y-109786104D02*
X209116666Y-109824200D01*
X209116666Y-109824200D02*
X209192857Y-109862295D01*
X209192857Y-109862295D02*
X209345238Y-109862295D01*
X209345238Y-109862295D02*
X209421428Y-109824200D01*
X209421428Y-109824200D02*
X209459523Y-109786104D01*
X209459523Y-109786104D02*
X209497619Y-109709914D01*
X209497619Y-109709914D02*
X209497619Y-109062295D01*
X210297618Y-109862295D02*
X209840475Y-109862295D01*
X210069047Y-109862295D02*
X210069047Y-109062295D01*
X210069047Y-109062295D02*
X209992856Y-109176580D01*
X209992856Y-109176580D02*
X209916666Y-109252771D01*
X209916666Y-109252771D02*
X209840475Y-109290866D01*
X208040476Y-85362295D02*
X208040476Y-86009914D01*
X208040476Y-86009914D02*
X208078571Y-86086104D01*
X208078571Y-86086104D02*
X208116666Y-86124200D01*
X208116666Y-86124200D02*
X208192857Y-86162295D01*
X208192857Y-86162295D02*
X208345238Y-86162295D01*
X208345238Y-86162295D02*
X208421428Y-86124200D01*
X208421428Y-86124200D02*
X208459523Y-86086104D01*
X208459523Y-86086104D02*
X208497619Y-86009914D01*
X208497619Y-86009914D02*
X208497619Y-85362295D01*
X208802380Y-85362295D02*
X209297618Y-85362295D01*
X209297618Y-85362295D02*
X209030952Y-85667057D01*
X209030952Y-85667057D02*
X209145237Y-85667057D01*
X209145237Y-85667057D02*
X209221428Y-85705152D01*
X209221428Y-85705152D02*
X209259523Y-85743247D01*
X209259523Y-85743247D02*
X209297618Y-85819438D01*
X209297618Y-85819438D02*
X209297618Y-86009914D01*
X209297618Y-86009914D02*
X209259523Y-86086104D01*
X209259523Y-86086104D02*
X209221428Y-86124200D01*
X209221428Y-86124200D02*
X209145237Y-86162295D01*
X209145237Y-86162295D02*
X208916666Y-86162295D01*
X208916666Y-86162295D02*
X208840475Y-86124200D01*
X208840475Y-86124200D02*
X208802380Y-86086104D01*
X202830475Y-97794200D02*
X202944761Y-97832295D01*
X202944761Y-97832295D02*
X203135237Y-97832295D01*
X203135237Y-97832295D02*
X203211428Y-97794200D01*
X203211428Y-97794200D02*
X203249523Y-97756104D01*
X203249523Y-97756104D02*
X203287618Y-97679914D01*
X203287618Y-97679914D02*
X203287618Y-97603723D01*
X203287618Y-97603723D02*
X203249523Y-97527533D01*
X203249523Y-97527533D02*
X203211428Y-97489438D01*
X203211428Y-97489438D02*
X203135237Y-97451342D01*
X203135237Y-97451342D02*
X202982856Y-97413247D01*
X202982856Y-97413247D02*
X202906666Y-97375152D01*
X202906666Y-97375152D02*
X202868571Y-97337057D01*
X202868571Y-97337057D02*
X202830475Y-97260866D01*
X202830475Y-97260866D02*
X202830475Y-97184676D01*
X202830475Y-97184676D02*
X202868571Y-97108485D01*
X202868571Y-97108485D02*
X202906666Y-97070390D01*
X202906666Y-97070390D02*
X202982856Y-97032295D01*
X202982856Y-97032295D02*
X203173333Y-97032295D01*
X203173333Y-97032295D02*
X203287618Y-97070390D01*
X203897142Y-97413247D02*
X204011428Y-97451342D01*
X204011428Y-97451342D02*
X204049523Y-97489438D01*
X204049523Y-97489438D02*
X204087619Y-97565628D01*
X204087619Y-97565628D02*
X204087619Y-97679914D01*
X204087619Y-97679914D02*
X204049523Y-97756104D01*
X204049523Y-97756104D02*
X204011428Y-97794200D01*
X204011428Y-97794200D02*
X203935238Y-97832295D01*
X203935238Y-97832295D02*
X203630476Y-97832295D01*
X203630476Y-97832295D02*
X203630476Y-97032295D01*
X203630476Y-97032295D02*
X203897142Y-97032295D01*
X203897142Y-97032295D02*
X203973333Y-97070390D01*
X203973333Y-97070390D02*
X204011428Y-97108485D01*
X204011428Y-97108485D02*
X204049523Y-97184676D01*
X204049523Y-97184676D02*
X204049523Y-97260866D01*
X204049523Y-97260866D02*
X204011428Y-97337057D01*
X204011428Y-97337057D02*
X203973333Y-97375152D01*
X203973333Y-97375152D02*
X203897142Y-97413247D01*
X203897142Y-97413247D02*
X203630476Y-97413247D01*
X204392380Y-97108485D02*
X204430476Y-97070390D01*
X204430476Y-97070390D02*
X204506666Y-97032295D01*
X204506666Y-97032295D02*
X204697142Y-97032295D01*
X204697142Y-97032295D02*
X204773333Y-97070390D01*
X204773333Y-97070390D02*
X204811428Y-97108485D01*
X204811428Y-97108485D02*
X204849523Y-97184676D01*
X204849523Y-97184676D02*
X204849523Y-97260866D01*
X204849523Y-97260866D02*
X204811428Y-97375152D01*
X204811428Y-97375152D02*
X204354285Y-97832295D01*
X204354285Y-97832295D02*
X204849523Y-97832295D01*
X221266666Y-100362295D02*
X220885714Y-100362295D01*
X220885714Y-100362295D02*
X220885714Y-99562295D01*
X221952380Y-100362295D02*
X221495237Y-100362295D01*
X221723809Y-100362295D02*
X221723809Y-99562295D01*
X221723809Y-99562295D02*
X221647618Y-99676580D01*
X221647618Y-99676580D02*
X221571428Y-99752771D01*
X221571428Y-99752771D02*
X221495237Y-99790866D01*
X203620475Y-110474200D02*
X203734761Y-110512295D01*
X203734761Y-110512295D02*
X203925237Y-110512295D01*
X203925237Y-110512295D02*
X204001428Y-110474200D01*
X204001428Y-110474200D02*
X204039523Y-110436104D01*
X204039523Y-110436104D02*
X204077618Y-110359914D01*
X204077618Y-110359914D02*
X204077618Y-110283723D01*
X204077618Y-110283723D02*
X204039523Y-110207533D01*
X204039523Y-110207533D02*
X204001428Y-110169438D01*
X204001428Y-110169438D02*
X203925237Y-110131342D01*
X203925237Y-110131342D02*
X203772856Y-110093247D01*
X203772856Y-110093247D02*
X203696666Y-110055152D01*
X203696666Y-110055152D02*
X203658571Y-110017057D01*
X203658571Y-110017057D02*
X203620475Y-109940866D01*
X203620475Y-109940866D02*
X203620475Y-109864676D01*
X203620475Y-109864676D02*
X203658571Y-109788485D01*
X203658571Y-109788485D02*
X203696666Y-109750390D01*
X203696666Y-109750390D02*
X203772856Y-109712295D01*
X203772856Y-109712295D02*
X203963333Y-109712295D01*
X203963333Y-109712295D02*
X204077618Y-109750390D01*
X204687142Y-110093247D02*
X204801428Y-110131342D01*
X204801428Y-110131342D02*
X204839523Y-110169438D01*
X204839523Y-110169438D02*
X204877619Y-110245628D01*
X204877619Y-110245628D02*
X204877619Y-110359914D01*
X204877619Y-110359914D02*
X204839523Y-110436104D01*
X204839523Y-110436104D02*
X204801428Y-110474200D01*
X204801428Y-110474200D02*
X204725238Y-110512295D01*
X204725238Y-110512295D02*
X204420476Y-110512295D01*
X204420476Y-110512295D02*
X204420476Y-109712295D01*
X204420476Y-109712295D02*
X204687142Y-109712295D01*
X204687142Y-109712295D02*
X204763333Y-109750390D01*
X204763333Y-109750390D02*
X204801428Y-109788485D01*
X204801428Y-109788485D02*
X204839523Y-109864676D01*
X204839523Y-109864676D02*
X204839523Y-109940866D01*
X204839523Y-109940866D02*
X204801428Y-110017057D01*
X204801428Y-110017057D02*
X204763333Y-110055152D01*
X204763333Y-110055152D02*
X204687142Y-110093247D01*
X204687142Y-110093247D02*
X204420476Y-110093247D01*
X205639523Y-110512295D02*
X205182380Y-110512295D01*
X205410952Y-110512295D02*
X205410952Y-109712295D01*
X205410952Y-109712295D02*
X205334761Y-109826580D01*
X205334761Y-109826580D02*
X205258571Y-109902771D01*
X205258571Y-109902771D02*
X205182380Y-109940866D01*
X216909524Y-102867295D02*
X216909524Y-102067295D01*
X216909524Y-102067295D02*
X217100000Y-102067295D01*
X217100000Y-102067295D02*
X217214286Y-102105390D01*
X217214286Y-102105390D02*
X217290476Y-102181580D01*
X217290476Y-102181580D02*
X217328571Y-102257771D01*
X217328571Y-102257771D02*
X217366667Y-102410152D01*
X217366667Y-102410152D02*
X217366667Y-102524438D01*
X217366667Y-102524438D02*
X217328571Y-102676819D01*
X217328571Y-102676819D02*
X217290476Y-102753009D01*
X217290476Y-102753009D02*
X217214286Y-102829200D01*
X217214286Y-102829200D02*
X217100000Y-102867295D01*
X217100000Y-102867295D02*
X216909524Y-102867295D01*
X217671428Y-102143485D02*
X217709524Y-102105390D01*
X217709524Y-102105390D02*
X217785714Y-102067295D01*
X217785714Y-102067295D02*
X217976190Y-102067295D01*
X217976190Y-102067295D02*
X218052381Y-102105390D01*
X218052381Y-102105390D02*
X218090476Y-102143485D01*
X218090476Y-102143485D02*
X218128571Y-102219676D01*
X218128571Y-102219676D02*
X218128571Y-102295866D01*
X218128571Y-102295866D02*
X218090476Y-102410152D01*
X218090476Y-102410152D02*
X217633333Y-102867295D01*
X217633333Y-102867295D02*
X218128571Y-102867295D01*
D12*
%TO.C,J5*%
X198110000Y-107720000D02*
X198110000Y-108700000D01*
X198110000Y-107720000D02*
X198990000Y-107720000D01*
X200990000Y-110620000D02*
X199230000Y-110620000D01*
X201230000Y-107720000D02*
X202110000Y-107720000D01*
X202110000Y-107720000D02*
X202110000Y-108700000D01*
D13*
X200710000Y-105920000D02*
G75*
G02*
X200510000Y-105920000I-100000J0D01*
G01*
X200510000Y-105920000D02*
G75*
G02*
X200710000Y-105920000I100000J0D01*
G01*
D14*
%TO.C,C8*%
X230446233Y-109321250D02*
X230738767Y-109321250D01*
X230446233Y-110341250D02*
X230738767Y-110341250D01*
%TO.C,R18*%
X211142224Y-94727500D02*
X210632776Y-94727500D01*
X211142224Y-95772500D02*
X210632776Y-95772500D01*
%TO.C,C13*%
X221798752Y-94115000D02*
X221276248Y-94115000D01*
X221798752Y-95585000D02*
X221276248Y-95585000D01*
%TO.C,C15*%
X223611250Y-91291233D02*
X223611250Y-91583767D01*
X224631250Y-91291233D02*
X224631250Y-91583767D01*
%TO.C,FB1*%
X226061250Y-80046267D02*
X226061250Y-79703733D01*
X227081250Y-80046267D02*
X227081250Y-79703733D01*
%TO.C,C12*%
X230561248Y-93265000D02*
X231083752Y-93265000D01*
X230561248Y-94735000D02*
X231083752Y-94735000D01*
D12*
%TO.C,J4*%
X237300000Y-88000000D02*
X238280000Y-88000000D01*
X237300000Y-88880000D02*
X237300000Y-88000000D01*
X237300000Y-95000000D02*
X237300000Y-94120000D01*
X237300000Y-95000000D02*
X238280000Y-95000000D01*
X240200000Y-89120000D02*
X240200000Y-93880000D01*
D13*
X235600000Y-89500000D02*
G75*
G02*
X235400000Y-89500000I-100000J0D01*
G01*
X235400000Y-89500000D02*
G75*
G02*
X235600000Y-89500000I100000J0D01*
G01*
D14*
%TO.C,D5*%
X206252500Y-78965000D02*
X206252500Y-80435000D01*
X206252500Y-80435000D02*
X208712500Y-80435000D01*
X208712500Y-78965000D02*
X206252500Y-78965000D01*
%TO.C,C23*%
X234665000Y-69061252D02*
X234665000Y-68538748D01*
X236135000Y-69061252D02*
X236135000Y-68538748D01*
%TO.C,C22*%
X237090000Y-69046267D02*
X237090000Y-68753733D01*
X238110000Y-69046267D02*
X238110000Y-68753733D01*
%TO.C,R9*%
X204477500Y-102732776D02*
X204477500Y-103242224D01*
X205522500Y-102732776D02*
X205522500Y-103242224D01*
%TO.C,C17*%
X214146267Y-80740000D02*
X213853733Y-80740000D01*
X214146267Y-81760000D02*
X213853733Y-81760000D01*
%TO.C,R12*%
X231019564Y-104096250D02*
X230565436Y-104096250D01*
X231019564Y-105566250D02*
X230565436Y-105566250D01*
%TO.C,R5*%
X205977500Y-103242224D02*
X205977500Y-102732776D01*
X207022500Y-103242224D02*
X207022500Y-102732776D01*
%TO.C,C11*%
X230561248Y-98695625D02*
X231083752Y-98695625D01*
X230561248Y-100165625D02*
X231083752Y-100165625D01*
%TO.C,R22*%
X208167224Y-77687500D02*
X207657776Y-77687500D01*
X208167224Y-78732500D02*
X207657776Y-78732500D01*
%TO.C,CY2*%
X229211250Y-86183767D02*
X229211250Y-85891233D01*
X230231250Y-86183767D02*
X230231250Y-85891233D01*
%TO.C,DWM1*%
X198750000Y-52650000D02*
X198750000Y-62400000D01*
X198750000Y-52650000D02*
X212250000Y-52650000D01*
X198750000Y-76150000D02*
X198750000Y-74400000D01*
X199500000Y-76150000D02*
X198750000Y-76150000D01*
X211500000Y-76150000D02*
X212250000Y-76150000D01*
X212250000Y-52650000D02*
X212250000Y-62400000D01*
X212250000Y-76150000D02*
X212250000Y-74400000D01*
X198400000Y-62400000D02*
X197900000Y-62400000D01*
X198400000Y-61900000D01*
X198400000Y-62400000D01*
G36*
X198400000Y-62400000D02*
G01*
X197900000Y-62400000D01*
X198400000Y-61900000D01*
X198400000Y-62400000D01*
G37*
%TO.C,CY1*%
X229211250Y-89508767D02*
X229211250Y-89216233D01*
X230231250Y-89508767D02*
X230231250Y-89216233D01*
%TO.C,Y1*%
X225511250Y-89810000D02*
X228931250Y-89810000D01*
X228931250Y-89810000D02*
X228931250Y-85690000D01*
%TO.C,C1*%
X218485000Y-102906252D02*
X218485000Y-102383748D01*
X219955000Y-102906252D02*
X219955000Y-102383748D01*
%TO.C,R11*%
X211167224Y-100314167D02*
X210657776Y-100314167D01*
X211167224Y-101359167D02*
X210657776Y-101359167D01*
%TO.C,SW4*%
X225700000Y-64500000D02*
X222500000Y-64500000D01*
X225700000Y-68500000D02*
X222500000Y-68500000D01*
%TO.C,R17*%
X211142224Y-93227500D02*
X210632776Y-93227500D01*
X211142224Y-94272500D02*
X210632776Y-94272500D01*
%TO.C,C25*%
X195383767Y-68790000D02*
X195091233Y-68790000D01*
X195383767Y-69810000D02*
X195091233Y-69810000D01*
D12*
%TO.C,U2*%
X223000000Y-103200000D02*
X223505000Y-103200000D01*
X223000000Y-103280000D02*
X223000000Y-103200000D01*
X223000000Y-105620000D02*
X223000000Y-105700000D01*
X223000000Y-105700000D02*
X223305000Y-105700000D01*
X225495000Y-103200000D02*
X226000000Y-103200000D01*
X226000000Y-103200000D02*
X226000000Y-103280000D01*
X226000000Y-105620000D02*
X226000000Y-105700000D01*
X226000000Y-105700000D02*
X225695000Y-105700000D01*
D13*
X223450000Y-106450000D02*
G75*
G02*
X223250000Y-106450000I-100000J0D01*
G01*
X223250000Y-106450000D02*
G75*
G02*
X223450000Y-106450000I100000J0D01*
G01*
D14*
%TO.C,J2*%
X193113250Y-83100000D02*
X193113250Y-92500000D01*
X195013250Y-83100000D02*
X193113250Y-83100000D01*
X195013250Y-92500000D02*
X193113250Y-92500000D01*
X198913250Y-83100000D02*
X196913250Y-83100000D01*
X198913250Y-92500000D02*
X196913250Y-92500000D01*
%TO.C,SW1*%
X193900000Y-101050000D02*
X195090000Y-101050000D01*
X195090000Y-100135000D02*
X195090000Y-101050000D01*
X195090000Y-100135000D02*
X200610000Y-100135000D01*
X195090000Y-105865000D02*
X195090000Y-104890000D01*
X195090000Y-105865000D02*
X200610000Y-105865000D01*
X200610000Y-100135000D02*
X200610000Y-101110000D01*
X200610000Y-105865000D02*
X200610000Y-104890000D01*
%TO.C,D6*%
X202400000Y-80435000D02*
X204860000Y-80435000D01*
X204860000Y-78965000D02*
X202400000Y-78965000D01*
X204860000Y-80435000D02*
X204860000Y-78965000D01*
%TO.C,D4*%
X214200000Y-98235000D02*
X216660000Y-98235000D01*
X216660000Y-96765000D02*
X214200000Y-96765000D01*
X216660000Y-98235000D02*
X216660000Y-96765000D01*
%TO.C,C19*%
X221683767Y-91890000D02*
X221391233Y-91890000D01*
X221683767Y-92910000D02*
X221391233Y-92910000D01*
%TO.C,U4*%
X215084000Y-83390000D02*
X215084000Y-83865000D01*
X215084000Y-90610000D02*
X215084000Y-90135000D01*
X215559000Y-83390000D02*
X215084000Y-83390000D01*
X215559000Y-90610000D02*
X215084000Y-90610000D01*
X221829000Y-83390000D02*
X222304000Y-83390000D01*
X221829000Y-90610000D02*
X222004000Y-90610000D01*
X222304000Y-83390000D02*
X222304000Y-83865000D01*
X222304000Y-90135000D02*
X222304000Y-90370000D01*
X222544000Y-90940000D02*
X222064000Y-90940000D01*
X222304000Y-90610000D01*
X222544000Y-90940000D01*
G36*
X222544000Y-90940000D02*
G01*
X222064000Y-90940000D01*
X222304000Y-90610000D01*
X222544000Y-90940000D01*
G37*
%TO.C,D3*%
X214200000Y-101568333D02*
X216660000Y-101568333D01*
X216660000Y-100098333D02*
X214200000Y-100098333D01*
X216660000Y-101568333D02*
X216660000Y-100098333D01*
%TO.C,C9*%
X230561248Y-101410938D02*
X231083752Y-101410938D01*
X230561248Y-102880938D02*
X231083752Y-102880938D01*
%TO.C,R20*%
X223154026Y-76027500D02*
X223663474Y-76027500D01*
X223154026Y-77072500D02*
X223663474Y-77072500D01*
%TO.C,U6*%
X239550000Y-73850000D02*
G75*
G02*
X238750000Y-73850000I-400000J0D01*
G01*
X238750000Y-73850000D02*
G75*
G02*
X239550000Y-73850000I400000J0D01*
G01*
D15*
G36*
X239149228Y-70864212D02*
G01*
X238749228Y-70264212D01*
X239549228Y-70264212D01*
X239149228Y-70864212D01*
G37*
D14*
%TO.C,R15*%
X223154026Y-74494505D02*
X223663474Y-74494505D01*
X223154026Y-75539505D02*
X223663474Y-75539505D01*
%TO.C,C14*%
X226074983Y-84090000D02*
X226367517Y-84090000D01*
X226074983Y-85110000D02*
X226367517Y-85110000D01*
%TO.C,R1*%
X222277500Y-109884724D02*
X222277500Y-109375276D01*
X223322500Y-109884724D02*
X223322500Y-109375276D01*
%TO.C,D7*%
X208210000Y-90150000D02*
X205550000Y-90150000D01*
X208210000Y-91850000D02*
X205550000Y-91850000D01*
X208210000Y-91850000D02*
X208210000Y-90150000D01*
%TO.C,C7*%
X212799273Y-109138748D02*
X212799273Y-109661252D01*
X214269273Y-109138748D02*
X214269273Y-109661252D01*
%TO.C,C20*%
X226074983Y-82590000D02*
X226367517Y-82590000D01*
X226074983Y-83610000D02*
X226367517Y-83610000D01*
%TO.C,R10*%
X210632776Y-101977500D02*
X211142224Y-101977500D01*
X210632776Y-103022500D02*
X211142224Y-103022500D01*
%TO.C,SW3*%
X237650000Y-101100000D02*
X237650000Y-100900000D01*
X237650000Y-104100000D02*
X237650000Y-102400000D01*
X238700000Y-105950000D02*
X239490000Y-105950000D01*
X239490000Y-99050000D02*
X238700000Y-99050000D01*
X240500000Y-103900000D02*
X241790000Y-103900000D01*
X240500000Y-105350000D02*
X240500000Y-99650000D01*
X241790000Y-102600000D02*
X240500000Y-102600000D01*
X241790000Y-102600000D02*
X242000000Y-102800000D01*
X241790000Y-103900000D02*
X242000000Y-103700000D01*
X242000000Y-103700000D02*
X242000000Y-102800000D01*
%TO.C,C21*%
X224086250Y-80136252D02*
X224086250Y-79613748D01*
X225556250Y-80136252D02*
X225556250Y-79613748D01*
%TO.C,C3*%
X219143091Y-109138748D02*
X219143091Y-109661252D01*
X220613091Y-109138748D02*
X220613091Y-109661252D01*
%TO.C,R19*%
X234477500Y-101017224D02*
X234477500Y-100507776D01*
X235522500Y-101017224D02*
X235522500Y-100507776D01*
%TO.C,C18*%
X216054000Y-80373752D02*
X216054000Y-79851248D01*
X217524000Y-80373752D02*
X217524000Y-79851248D01*
%TO.C,R16*%
X211142224Y-91727500D02*
X210632776Y-91727500D01*
X211142224Y-92772500D02*
X210632776Y-92772500D01*
%TO.C,D1*%
X214200000Y-99901667D02*
X216660000Y-99901667D01*
X216660000Y-98431667D02*
X214200000Y-98431667D01*
X216660000Y-99901667D02*
X216660000Y-98431667D01*
D12*
%TO.C,J3*%
X194900000Y-97900000D02*
X194900000Y-96920000D01*
X195780000Y-97900000D02*
X194900000Y-97900000D01*
X196020000Y-95000000D02*
X199780000Y-95000000D01*
X200900000Y-97900000D02*
X200020000Y-97900000D01*
X200900000Y-97900000D02*
X200900000Y-96920000D01*
D13*
X196500000Y-99700000D02*
G75*
G02*
X196300000Y-99700000I-100000J0D01*
G01*
X196300000Y-99700000D02*
G75*
G02*
X196500000Y-99700000I100000J0D01*
G01*
D14*
%TO.C,R4*%
X220224724Y-105527500D02*
X219715276Y-105527500D01*
X220224724Y-106572500D02*
X219715276Y-106572500D01*
%TO.C,C26*%
X195561252Y-73265000D02*
X195038748Y-73265000D01*
X195561252Y-74735000D02*
X195038748Y-74735000D01*
%TO.C,R8*%
X202790750Y-83642224D02*
X202790750Y-83132776D01*
X203835750Y-83642224D02*
X203835750Y-83132776D01*
%TO.C,R3*%
X211154724Y-98650833D02*
X210645276Y-98650833D01*
X211154724Y-99695833D02*
X210645276Y-99695833D01*
%TO.C,R23*%
X202945276Y-77687500D02*
X203454724Y-77687500D01*
X202945276Y-78732500D02*
X203454724Y-78732500D01*
%TO.C,R21*%
X211142224Y-96987500D02*
X210632776Y-96987500D01*
X211142224Y-98032500D02*
X210632776Y-98032500D01*
%TO.C,C5*%
X213248752Y-103590000D02*
X212726248Y-103590000D01*
X213248752Y-105060000D02*
X212726248Y-105060000D01*
%TO.C,SW2*%
X222500000Y-69600000D02*
X225700000Y-69600000D01*
X222500000Y-73600000D02*
X225700000Y-73600000D01*
%TO.C,C16*%
X212890000Y-90646267D02*
X212890000Y-90353733D01*
X213910000Y-90646267D02*
X213910000Y-90353733D01*
%TO.C,R24*%
X211145276Y-83177500D02*
X211654724Y-83177500D01*
X211145276Y-84222500D02*
X211654724Y-84222500D01*
%TO.C,U1*%
X207590000Y-105665000D02*
X207590000Y-105430000D01*
X207590000Y-108410000D02*
X207590000Y-107935000D01*
X208065000Y-105190000D02*
X207890000Y-105190000D01*
X208065000Y-108410000D02*
X207590000Y-108410000D01*
X210335000Y-105190000D02*
X210810000Y-105190000D01*
X210335000Y-108410000D02*
X210810000Y-108410000D01*
X210810000Y-105190000D02*
X210810000Y-105665000D01*
X210810000Y-108410000D02*
X210810000Y-107935000D01*
X207590000Y-105190000D02*
X207350000Y-104860000D01*
X207830000Y-104860000D01*
X207590000Y-105190000D01*
G36*
X207590000Y-105190000D02*
G01*
X207350000Y-104860000D01*
X207830000Y-104860000D01*
X207590000Y-105190000D01*
G37*
%TO.C,R2*%
X213707776Y-105527500D02*
X214217224Y-105527500D01*
X213707776Y-106572500D02*
X214217224Y-106572500D01*
%TO.C,C24*%
X195383767Y-70790000D02*
X195091233Y-70790000D01*
X195383767Y-71810000D02*
X195091233Y-71810000D01*
%TO.C,F1*%
X195390000Y-79002064D02*
X195390000Y-77797936D01*
X197210000Y-79002064D02*
X197210000Y-77797936D01*
%TO.C,U3*%
X206762500Y-86290000D02*
X205962500Y-86290000D01*
X206762500Y-86290000D02*
X207562500Y-86290000D01*
X206762500Y-89410000D02*
X205962500Y-89410000D01*
X206762500Y-89410000D02*
X207562500Y-89410000D01*
X205462500Y-86340000D02*
X205222500Y-86010000D01*
X205702500Y-86010000D01*
X205462500Y-86340000D01*
G36*
X205462500Y-86340000D02*
G01*
X205222500Y-86010000D01*
X205702500Y-86010000D01*
X205462500Y-86340000D01*
G37*
%TO.C,R7*%
X202790750Y-92545276D02*
X202790750Y-93054724D01*
X203835750Y-92545276D02*
X203835750Y-93054724D01*
%TO.C,R14*%
X225177500Y-109375276D02*
X225177500Y-109884724D01*
X226222500Y-109375276D02*
X226222500Y-109884724D01*
%TO.C,R13*%
X230565436Y-106796250D02*
X231019564Y-106796250D01*
X230565436Y-108266250D02*
X231019564Y-108266250D01*
%TO.C,SB2*%
D11*
X205250000Y-96830000D02*
X207950000Y-96830000D01*
X207950000Y-98130000D01*
X205250000Y-98130000D01*
X205250000Y-96830000D01*
D14*
%TO.C,C2*%
X215971182Y-109138748D02*
X215971182Y-109661252D01*
X217441182Y-109138748D02*
X217441182Y-109661252D01*
%TO.C,L1*%
X222399200Y-97890000D02*
X226619200Y-97890000D01*
X226619200Y-102110000D02*
X222399200Y-102110000D01*
%TO.C,SB1*%
D11*
X203312500Y-108080000D02*
X206012500Y-108080000D01*
X206012500Y-109380000D01*
X203312500Y-109380000D01*
X203312500Y-108080000D01*
D14*
%TO.C,C10*%
X230561248Y-95980313D02*
X231083752Y-95980313D01*
X230561248Y-97450313D02*
X231083752Y-97450313D01*
%TO.C,C6*%
X204923752Y-106045000D02*
X204401248Y-106045000D01*
X204923752Y-107515000D02*
X204401248Y-107515000D01*
%TO.C,C4*%
X220610000Y-103021267D02*
X220610000Y-102728733D01*
X221630000Y-103021267D02*
X221630000Y-102728733D01*
%TO.C,D2*%
X214175000Y-103235000D02*
X216635000Y-103235000D01*
X216635000Y-101765000D02*
X214175000Y-101765000D01*
X216635000Y-103235000D02*
X216635000Y-101765000D01*
%TD*%
%LPC*%
D16*
%TO.C,U2*%
X223450000Y-104850000D02*
X222750000Y-104850000D01*
X222750000Y-104500000D01*
X223450000Y-104500000D01*
X223450000Y-104850000D01*
G36*
X223450000Y-104850000D02*
G01*
X222750000Y-104850000D01*
X222750000Y-104500000D01*
X223450000Y-104500000D01*
X223450000Y-104850000D01*
G37*
X223450000Y-105350000D02*
X222750000Y-105350000D01*
X222750000Y-105000000D01*
X223450000Y-105000000D01*
X223450000Y-105350000D01*
G36*
X223450000Y-105350000D02*
G01*
X222750000Y-105350000D01*
X222750000Y-105000000D01*
X223450000Y-105000000D01*
X223450000Y-105350000D01*
G37*
X223925000Y-105950000D02*
X223575000Y-105950000D01*
X223575000Y-105250000D01*
X223925000Y-105250000D01*
X223925000Y-105950000D01*
G36*
X223925000Y-105950000D02*
G01*
X223575000Y-105950000D01*
X223575000Y-105250000D01*
X223925000Y-105250000D01*
X223925000Y-105950000D01*
G37*
X224125000Y-104350000D02*
X223875000Y-104350000D01*
X223875000Y-103000000D01*
X224125000Y-103000000D01*
X224125000Y-104350000D01*
G36*
X224125000Y-104350000D02*
G01*
X223875000Y-104350000D01*
X223875000Y-103000000D01*
X224125000Y-103000000D01*
X224125000Y-104350000D01*
G37*
X224425000Y-105950000D02*
X224075000Y-105950000D01*
X224075000Y-105250000D01*
X224425000Y-105250000D01*
X224425000Y-105950000D01*
G36*
X224425000Y-105950000D02*
G01*
X224075000Y-105950000D01*
X224075000Y-105250000D01*
X224425000Y-105250000D01*
X224425000Y-105950000D01*
G37*
X224625000Y-104700000D02*
X224375000Y-104700000D01*
X224375000Y-103000000D01*
X224625000Y-103000000D01*
X224625000Y-104700000D01*
G36*
X224625000Y-104700000D02*
G01*
X224375000Y-104700000D01*
X224375000Y-103000000D01*
X224625000Y-103000000D01*
X224625000Y-104700000D01*
G37*
X224925000Y-105950000D02*
X224575000Y-105950000D01*
X224575000Y-105250000D01*
X224925000Y-105250000D01*
X224925000Y-105950000D01*
G36*
X224925000Y-105950000D02*
G01*
X224575000Y-105950000D01*
X224575000Y-105250000D01*
X224925000Y-105250000D01*
X224925000Y-105950000D01*
G37*
X225125000Y-104350000D02*
X224875000Y-104350000D01*
X224875000Y-103000000D01*
X225125000Y-103000000D01*
X225125000Y-104350000D01*
G36*
X225125000Y-104350000D02*
G01*
X224875000Y-104350000D01*
X224875000Y-103000000D01*
X225125000Y-103000000D01*
X225125000Y-104350000D01*
G37*
X225425000Y-105950000D02*
X225075000Y-105950000D01*
X225075000Y-105250000D01*
X225425000Y-105250000D01*
X225425000Y-105950000D01*
G36*
X225425000Y-105950000D02*
G01*
X225075000Y-105950000D01*
X225075000Y-105250000D01*
X225425000Y-105250000D01*
X225425000Y-105950000D01*
G37*
X226250000Y-104850000D02*
X225550000Y-104850000D01*
X225550000Y-104500000D01*
X226250000Y-104500000D01*
X226250000Y-104850000D01*
G36*
X226250000Y-104850000D02*
G01*
X225550000Y-104850000D01*
X225550000Y-104500000D01*
X226250000Y-104500000D01*
X226250000Y-104850000D01*
G37*
X226250000Y-105350000D02*
X225550000Y-105350000D01*
X225550000Y-105000000D01*
X226250000Y-105000000D01*
X226250000Y-105350000D01*
G36*
X226250000Y-105350000D02*
G01*
X225550000Y-105350000D01*
X225550000Y-105000000D01*
X226250000Y-105000000D01*
X226250000Y-105350000D01*
G37*
X223400000Y-104300000D02*
X222800000Y-104300000D01*
X222800000Y-104050000D01*
X223150000Y-104050000D01*
X223150000Y-103800000D01*
X222800000Y-103800000D01*
X222800000Y-103550000D01*
X223400000Y-103550000D01*
X223400000Y-104300000D01*
G36*
X223400000Y-104300000D02*
G01*
X222800000Y-104300000D01*
X222800000Y-104050000D01*
X223150000Y-104050000D01*
X223150000Y-103800000D01*
X222800000Y-103800000D01*
X222800000Y-103550000D01*
X223400000Y-103550000D01*
X223400000Y-104300000D01*
G37*
X226200000Y-103800000D02*
X225850000Y-103800000D01*
X225850000Y-104050000D01*
X226200000Y-104050000D01*
X226200000Y-104300000D01*
X225600000Y-104300000D01*
X225600000Y-103550000D01*
X226200000Y-103550000D01*
X226200000Y-103800000D01*
G36*
X226200000Y-103800000D02*
G01*
X225850000Y-103800000D01*
X225850000Y-104050000D01*
X226200000Y-104050000D01*
X226200000Y-104300000D01*
X225600000Y-104300000D01*
X225600000Y-103550000D01*
X226200000Y-103550000D01*
X226200000Y-103800000D01*
G37*
%TO.C,SB2*%
G36*
X205400000Y-96980000D02*
G01*
X207800000Y-96980000D01*
X207800000Y-97980000D01*
X205400000Y-97980000D01*
X205400000Y-96980000D01*
G37*
%TO.C,SB1*%
G36*
X203462500Y-108230000D02*
G01*
X205862500Y-108230000D01*
X205862500Y-109230000D01*
X203462500Y-109230000D01*
X203462500Y-108230000D01*
G37*
%TD*%
D17*
%TO.C,J5*%
X200610000Y-107395000D03*
X199610000Y-107395000D03*
D18*
X201910000Y-109920000D03*
X198310000Y-109920000D03*
%TD*%
D19*
%TO.C,C8*%
X229730000Y-109831250D03*
X231455000Y-109831250D03*
%TD*%
D20*
%TO.C,R18*%
X211800000Y-95250000D03*
X209975000Y-95250000D03*
%TD*%
D21*
%TO.C,C13*%
X222575000Y-94850000D03*
X220500000Y-94850000D03*
%TD*%
D22*
%TO.C,C15*%
X224121250Y-90575000D03*
X224121250Y-92300000D03*
%TD*%
D23*
%TO.C,H3*%
X194850000Y-110100000D03*
%TD*%
D24*
%TO.C,FB1*%
X226571250Y-80750000D03*
X226571250Y-79000000D03*
%TD*%
D25*
%TO.C,C12*%
X229785000Y-94000000D03*
X231860000Y-94000000D03*
%TD*%
D26*
%TO.C,J4*%
X236975000Y-89500000D03*
X236975000Y-90500000D03*
X236975000Y-91500000D03*
X236975000Y-92500000D03*
X236975000Y-93500000D03*
D27*
X239500000Y-88200000D03*
X239500000Y-94800000D03*
%TD*%
D28*
%TO.C,D5*%
X207037500Y-79700000D03*
X208787500Y-79700000D03*
%TD*%
D29*
%TO.C,C23*%
X235400000Y-69837500D03*
X235400000Y-67762500D03*
%TD*%
D30*
%TO.C,C22*%
X237600000Y-69762500D03*
X237600000Y-68037500D03*
%TD*%
D31*
%TO.C,R9*%
X205000000Y-102075000D03*
X205000000Y-103900000D03*
%TD*%
D32*
%TO.C,C17*%
X214862500Y-81250000D03*
X213137500Y-81250000D03*
%TD*%
D33*
%TO.C,R12*%
X231792500Y-104831250D03*
X229792500Y-104831250D03*
%TD*%
D34*
%TO.C,R5*%
X206500000Y-103900000D03*
X206500000Y-102075000D03*
%TD*%
D25*
%TO.C,C11*%
X229785000Y-99430625D03*
X231860000Y-99430625D03*
%TD*%
D20*
%TO.C,R22*%
X208825000Y-78210000D03*
X207000000Y-78210000D03*
%TD*%
D30*
%TO.C,CY2*%
X229721250Y-86900000D03*
X229721250Y-85175000D03*
%TD*%
D35*
%TO.C,DWM1*%
X199200000Y-63601200D03*
X199200000Y-65001200D03*
X199200000Y-66401200D03*
X199200000Y-67801200D03*
X199200000Y-69201200D03*
X199200000Y-70601200D03*
X199200000Y-72001200D03*
X199200000Y-73401200D03*
D36*
X200600000Y-75696200D03*
X202000000Y-75696200D03*
X203400000Y-75696200D03*
X204800000Y-75696200D03*
X206200000Y-75696200D03*
X207600000Y-75696200D03*
X209000000Y-75696200D03*
X210400000Y-75696200D03*
D35*
X211800000Y-73400000D03*
X211800000Y-72000000D03*
X211800000Y-70601200D03*
X211800000Y-69201200D03*
X211800000Y-67801200D03*
X211800000Y-66401200D03*
X211800000Y-65001200D03*
X211800000Y-63601200D03*
%TD*%
D30*
%TO.C,CY1*%
X229721250Y-90225000D03*
X229721250Y-88500000D03*
%TD*%
D37*
%TO.C,Y1*%
X228071250Y-88850000D03*
X228071250Y-86650000D03*
X226371250Y-86650000D03*
X226371250Y-88850000D03*
%TD*%
D29*
%TO.C,C1*%
X219220000Y-103682500D03*
X219220000Y-101607500D03*
%TD*%
D20*
%TO.C,R11*%
X211825000Y-100836667D03*
X210000000Y-100836667D03*
%TD*%
D38*
%TO.C,SW4*%
X226450000Y-66500000D03*
X221750000Y-66500000D03*
%TD*%
D20*
%TO.C,R17*%
X211800000Y-93750000D03*
X209975000Y-93750000D03*
%TD*%
D23*
%TO.C,H1*%
X194900000Y-65200000D03*
%TD*%
D32*
%TO.C,C25*%
X196100000Y-69300000D03*
X194375000Y-69300000D03*
%TD*%
D39*
%TO.C,J2*%
X199613250Y-84910000D03*
X199613250Y-90690000D03*
D40*
X201058250Y-84550000D03*
X201058250Y-85350000D03*
D41*
X201058250Y-86550000D03*
X201058250Y-87550000D03*
X201058250Y-88050000D03*
X201058250Y-89050000D03*
D40*
X201058250Y-90250000D03*
X201058250Y-91050000D03*
X201058250Y-91050000D03*
X201058250Y-90250000D03*
D41*
X201058250Y-89550000D03*
X201058250Y-88550000D03*
X201058250Y-87050000D03*
X201058250Y-86050000D03*
D40*
X201058250Y-85350000D03*
X201058250Y-84550000D03*
D42*
X200143250Y-83480000D03*
D43*
X195963250Y-83480000D03*
D42*
X200143250Y-92120000D03*
D43*
X195963250Y-92120000D03*
%TD*%
D44*
%TO.C,SW1*%
X195225000Y-101730000D03*
X195225000Y-103000000D03*
X195225000Y-104270000D03*
X200475000Y-104270000D03*
X200475000Y-103000000D03*
X200475000Y-101730000D03*
%TD*%
D45*
%TO.C,D6*%
X204075000Y-79700000D03*
X202325000Y-79700000D03*
%TD*%
%TO.C,D4*%
X215875000Y-97500000D03*
X214125000Y-97500000D03*
%TD*%
D32*
%TO.C,C19*%
X222400000Y-92400000D03*
X220675000Y-92400000D03*
%TD*%
D46*
%TO.C,U4*%
X222131500Y-89750000D03*
X222131500Y-89250000D03*
X222131500Y-88750000D03*
X222131500Y-88250000D03*
X222131500Y-87750000D03*
X222131500Y-87250000D03*
X222131500Y-86750000D03*
X222131500Y-86250000D03*
X222131500Y-85750000D03*
X222131500Y-85250000D03*
X222131500Y-84750000D03*
X222131500Y-84250000D03*
D47*
X221444000Y-83562500D03*
X220944000Y-83562500D03*
X220444000Y-83562500D03*
X219944000Y-83562500D03*
X219444000Y-83562500D03*
X218944000Y-83562500D03*
X218444000Y-83562500D03*
X217944000Y-83562500D03*
X217444000Y-83562500D03*
X216944000Y-83562500D03*
X216444000Y-83562500D03*
X215944000Y-83562500D03*
D46*
X215256500Y-84250000D03*
X215256500Y-84750000D03*
X215256500Y-85250000D03*
X215256500Y-85750000D03*
X215256500Y-86250000D03*
X215256500Y-86750000D03*
X215256500Y-87250000D03*
X215256500Y-87750000D03*
X215256500Y-88250000D03*
X215256500Y-88750000D03*
X215256500Y-89250000D03*
X215256500Y-89750000D03*
D47*
X215944000Y-90437500D03*
X216444000Y-90437500D03*
X216944000Y-90437500D03*
X217444000Y-90437500D03*
X217944000Y-90437500D03*
X218444000Y-90437500D03*
X218944000Y-90437500D03*
X219444000Y-90437500D03*
X219944000Y-90437500D03*
X220444000Y-90437500D03*
X220944000Y-90437500D03*
X221444000Y-90437500D03*
D48*
X218694000Y-87000000D03*
%TD*%
D45*
%TO.C,D3*%
X215875000Y-100833333D03*
X214125000Y-100833333D03*
%TD*%
D25*
%TO.C,C9*%
X229785000Y-102145938D03*
X231860000Y-102145938D03*
%TD*%
D49*
%TO.C,R20*%
X222496250Y-76550000D03*
X224321250Y-76550000D03*
%TD*%
D50*
%TO.C,U6*%
X239150000Y-72100000D03*
X238050000Y-72100000D03*
X236950000Y-72100000D03*
X235850000Y-72100000D03*
X234750000Y-72100000D03*
X233650000Y-72100000D03*
X232550000Y-72100000D03*
X231450000Y-72100000D03*
D51*
X230600000Y-75000000D03*
X230600000Y-76100000D03*
D50*
X231450000Y-82100000D03*
X232550000Y-82100000D03*
X233650000Y-82100000D03*
X234750000Y-82100000D03*
X235850000Y-82100000D03*
X236950000Y-82100000D03*
X238050000Y-82100000D03*
X239150000Y-82100000D03*
X240250000Y-82100000D03*
X241350000Y-82100000D03*
%TD*%
D49*
%TO.C,R15*%
X222496250Y-75017005D03*
X224321250Y-75017005D03*
%TD*%
D19*
%TO.C,C14*%
X225358750Y-84600000D03*
X227083750Y-84600000D03*
%TD*%
D34*
%TO.C,R1*%
X222800000Y-110542500D03*
X222800000Y-108717500D03*
%TD*%
D52*
%TO.C,D7*%
X207650000Y-91000000D03*
X205550000Y-91000000D03*
%TD*%
D53*
%TO.C,C7*%
X213534273Y-108362500D03*
X213534273Y-110437500D03*
%TD*%
D19*
%TO.C,C20*%
X225358750Y-83100000D03*
X227083750Y-83100000D03*
%TD*%
D49*
%TO.C,R10*%
X209975000Y-102500000D03*
X211800000Y-102500000D03*
%TD*%
D54*
%TO.C,SW3*%
X237990000Y-106150000D03*
X240200000Y-106150000D03*
D55*
X239100000Y-104000000D03*
X239100000Y-101000000D03*
D54*
X237990000Y-98850000D03*
X240200000Y-98850000D03*
D56*
X237340000Y-104750000D03*
X237340000Y-101750000D03*
X237340000Y-100250000D03*
%TD*%
D23*
%TO.C,H2*%
X239800000Y-65200000D03*
%TD*%
D29*
%TO.C,C21*%
X224821250Y-80912500D03*
X224821250Y-78837500D03*
%TD*%
D53*
%TO.C,C3*%
X219878091Y-108362500D03*
X219878091Y-110437500D03*
%TD*%
D34*
%TO.C,R19*%
X235000000Y-101675000D03*
X235000000Y-99850000D03*
%TD*%
D29*
%TO.C,C18*%
X216789000Y-81150000D03*
X216789000Y-79075000D03*
%TD*%
D20*
%TO.C,R16*%
X211800000Y-92250000D03*
X209975000Y-92250000D03*
%TD*%
D45*
%TO.C,D1*%
X215875000Y-99166667D03*
X214125000Y-99166667D03*
%TD*%
D57*
%TO.C,J3*%
X196400000Y-98225000D03*
X197400000Y-98225000D03*
X198400000Y-98225000D03*
X199400000Y-98225000D03*
D58*
X195100000Y-95700000D03*
X200700000Y-95700000D03*
%TD*%
D20*
%TO.C,R4*%
X220882500Y-106050000D03*
X219057500Y-106050000D03*
%TD*%
D21*
%TO.C,C26*%
X196337500Y-74000000D03*
X194262500Y-74000000D03*
%TD*%
D34*
%TO.C,R8*%
X203313250Y-84300000D03*
X203313250Y-82475000D03*
%TD*%
D20*
%TO.C,R3*%
X211812500Y-99173333D03*
X209987500Y-99173333D03*
%TD*%
D49*
%TO.C,R23*%
X202287500Y-78210000D03*
X204112500Y-78210000D03*
%TD*%
D20*
%TO.C,R21*%
X211800000Y-97510000D03*
X209975000Y-97510000D03*
%TD*%
D21*
%TO.C,C5*%
X214025000Y-104325000D03*
X211950000Y-104325000D03*
%TD*%
D59*
%TO.C,SW2*%
X221750000Y-71600000D03*
X226450000Y-71600000D03*
%TD*%
D30*
%TO.C,C16*%
X213400000Y-91362500D03*
X213400000Y-89637500D03*
%TD*%
D49*
%TO.C,R24*%
X210487500Y-83700000D03*
X212312500Y-83700000D03*
%TD*%
D60*
%TO.C,U1*%
X207762500Y-106050000D03*
X207762500Y-106550000D03*
X207762500Y-107050000D03*
X207762500Y-107550000D03*
D61*
X208450000Y-108237500D03*
X208950000Y-108237500D03*
X209450000Y-108237500D03*
X209950000Y-108237500D03*
D60*
X210637500Y-107550000D03*
X210637500Y-107050000D03*
X210637500Y-106550000D03*
X210637500Y-106050000D03*
D61*
X209950000Y-105362500D03*
X209450000Y-105362500D03*
X208950000Y-105362500D03*
X208450000Y-105362500D03*
D62*
X209200000Y-106800000D03*
%TD*%
D49*
%TO.C,R2*%
X213050000Y-106050000D03*
X214875000Y-106050000D03*
%TD*%
D32*
%TO.C,C24*%
X196100000Y-71300000D03*
X194375000Y-71300000D03*
%TD*%
D63*
%TO.C,F1*%
X196300000Y-79800000D03*
X196300000Y-77000000D03*
%TD*%
D64*
%TO.C,U3*%
X205625000Y-86900000D03*
X205625000Y-87850000D03*
X205625000Y-88800000D03*
X207900000Y-88800000D03*
X207900000Y-87850000D03*
X207900000Y-86900000D03*
%TD*%
D31*
%TO.C,R7*%
X203313250Y-91887500D03*
X203313250Y-93712500D03*
%TD*%
%TO.C,R14*%
X225700000Y-108717500D03*
X225700000Y-110542500D03*
%TD*%
D65*
%TO.C,R13*%
X229792500Y-107531250D03*
X231792500Y-107531250D03*
%TD*%
D66*
%TO.C,SB2*%
X205850000Y-97480000D03*
D67*
X207350000Y-97480000D03*
%TD*%
D53*
%TO.C,C2*%
X216706182Y-108362500D03*
X216706182Y-110437500D03*
%TD*%
D68*
%TO.C,L1*%
X226009200Y-100000000D03*
X223009200Y-100000000D03*
%TD*%
D66*
%TO.C,SB1*%
X203912500Y-108730000D03*
D67*
X205412500Y-108730000D03*
%TD*%
D25*
%TO.C,C10*%
X229785000Y-96715313D03*
X231860000Y-96715313D03*
%TD*%
D21*
%TO.C,C6*%
X205700000Y-106780000D03*
X203625000Y-106780000D03*
%TD*%
D30*
%TO.C,C4*%
X221120000Y-103737500D03*
X221120000Y-102012500D03*
%TD*%
D45*
%TO.C,D2*%
X215850000Y-102500000D03*
X214100000Y-102500000D03*
%TD*%
D23*
%TO.C,H4*%
X239800000Y-110100000D03*
%TD*%
%LPD*%
M02*
