M48
; DRILL file {KiCad 9.0.4} date 2025-11-12T13:02:11+0700
; FORMAT={-:-/ absolute / metric / decimal}
; #@! TF.CreationDate,2025-11-12T13:02:11+07:00
; #@! TF.GenerationSoftware,Kicad,Pcbnew,9.0.4
; #@! TF.FileFunction,MixedPlating,1,2
FMAT,2
METRIC
; #@! TA.AperFunction,Plated,PTH,ViaDrill
T1C0.250
; #@! TA.AperFunction,Plated,PTH,ViaDrill
T2C0.300
; #@! TA.AperFunction,Plated,PTH,ComponentDrill
T3C0.600
; #@! TA.AperFunction,NonPlated,NPTH,ComponentDrill
T4C0.650
; #@! TA.AperFunction,NonPlated,NPTH,ComponentDrill
T5C0.900
; #@! TA.AperFunction,NonPlated,NPTH,ComponentDrill
T6C2.200
%
G90
G05
T1
X193.7Y-75.5
X193.8Y-68.2
X193.8Y-70.3
X193.8Y-72.5
X194.0Y-76.7
X194.0Y-81.5
X194.0Y-88.8
X194.0Y-93.35
X194.0Y-98.5
X194.013Y-86.3
X194.05Y-96.15
X194.8Y-72.5
X194.8Y-75.5
X194.9Y-68.2
X194.9Y-70.3
X195.0Y-106.0
X195.0Y-108.0
X195.2Y-100.5
X196.513Y-86.3
X196.513Y-88.8
X196.65Y-93.35
X196.75Y-64.65
X196.75Y-65.4
X197.5Y-64.65
X197.5Y-65.4
X197.8Y-103.0
X198.2Y-74.5
X198.2Y-75.5
X198.3Y-108.3
X199.0Y-100.5
X199.2Y-74.5
X199.2Y-75.5
X200.1Y-109.0
X200.1Y-110.25
X200.75Y-98.675
X201.5Y-69.0
X201.5Y-73.0
X201.55Y-67.0
X201.6Y-100.2
X202.07Y-105.4
X202.28Y-91.06
X202.28Y-91.78
X202.31Y-83.8
X202.31Y-84.56
X202.5Y-67.0
X203.5Y-67.0
X203.5Y-71.0
X203.5Y-86.0
X203.5Y-87.8
X203.5Y-89.4
X203.9Y-104.5
X204.0Y-111.0
X204.45Y-67.0
X205.5Y-67.025
X205.5Y-69.0
X205.5Y-73.0
X205.5Y-79.8
X206.0Y-111.0
X206.5Y-67.0
X207.43Y-102.05
X207.5Y-67.0
X207.5Y-71.0
X208.0Y-111.0
X208.475Y-90.975
X208.55Y-67.0
X208.8Y-89.8
X209.15Y-109.275
X209.2Y-106.815
X209.5Y-69.0
X209.5Y-73.0
X209.525Y-67.0
X209.65Y-86.9
X209.65Y-89.1
X210.0Y-111.0
X210.5Y-87.0
X210.5Y-89.0
X210.699Y-108.25
X211.5Y-87.0
X211.5Y-89.0
X212.0Y-74.5
X212.0Y-75.5
X212.0Y-76.5
X212.0Y-81.3
X212.0Y-111.0
X212.5Y-87.0
X213.0Y-74.5
X213.0Y-75.5
X213.0Y-76.5
X213.5Y-87.0
X213.53Y-111.59
X213.56Y-67.82
X213.65Y-63.65
X213.65Y-64.4
X213.65Y-65.2
X213.75Y-72.8
X214.225Y-89.55
X214.4Y-63.65
X214.4Y-64.4
X214.4Y-65.2
X214.75Y-77.5
X215.1Y-104.1
X215.4Y-79.15
X215.6Y-74.2
X215.7Y-93.3
X215.7Y-94.75
X216.0Y-63.5
X216.0Y-66.5
X216.01Y-111.61
X216.2Y-82.5
X216.872Y-87.024
X216.894Y-85.2
X216.894Y-88.8
X217.1Y-100.0
X217.1Y-106.8
X217.45Y-76.05
X217.5Y-65.0
X217.5Y-68.0
X218.3Y-79.15
X218.694Y-85.2
X218.694Y-87.0
X218.694Y-88.8
X218.89Y-111.6
X219.0Y-63.5
X219.0Y-66.5
X219.0Y-69.5
X219.0Y-100.425
X219.4Y-94.8
X220.225Y-108.4
X220.25Y-104.95
X220.494Y-85.2
X220.494Y-87.0
X220.494Y-88.8
X220.5Y-65.0
X220.5Y-68.0
X220.5Y-70.7
X220.6Y-91.4
X220.9Y-100.9
X221.8Y-73.0
X222.0Y-63.5
X222.0Y-69.45
X222.2Y-105.6
X222.4Y-97.4
X223.4Y-97.4
X223.5Y-65.0
X223.5Y-68.0
X223.6Y-71.6
X223.711Y-86.0
X224.155Y-93.345
X224.5Y-102.311
X224.6Y-97.4
X224.762Y-94.737
X225.0Y-63.5
X225.0Y-66.5
X225.0Y-69.5
X225.121Y-88.81
X225.6Y-97.4
X225.806Y-76.073
X225.9Y-106.4
X226.0Y-73.2
X226.321Y-90.5
X226.5Y-65.0
X226.5Y-68.0
X226.6Y-95.4
X226.6Y-97.4
X226.79Y-109.29
X227.0Y-74.7
X227.2Y-82.0
X227.4Y-100.95
X228.0Y-63.5
X228.0Y-66.5
X228.0Y-69.5
X228.027Y-104.6
X228.321Y-83.3
X228.321Y-84.6
X228.321Y-90.5
X228.692Y-87.749
X229.5Y-65.0
X229.5Y-68.0
X229.75Y-73.25
X229.75Y-74.0
X229.75Y-77.0
X229.75Y-80.0
X229.77Y-81.05
X230.5Y-73.25
X230.5Y-74.0
X230.5Y-77.0
X230.5Y-80.0
X230.821Y-85.5
X230.821Y-87.0
X230.821Y-88.5
X230.821Y-90.0
X231.0Y-63.5
X231.0Y-66.5
X231.0Y-69.0
X231.75Y-107.975
X231.82Y-96.05
X232.0Y-76.6
X232.0Y-80.0
X232.5Y-65.0
X232.5Y-68.0
X232.8Y-109.05
X232.89Y-97.28
X232.9Y-102.1
X232.94Y-104.4
X232.95Y-94.0
X232.95Y-99.45
X233.25Y-84.0
X233.5Y-78.5
X233.5Y-87.5
X233.5Y-91.0
X233.593Y-75.593
X233.7Y-99.9
X234.0Y-63.5
X234.0Y-66.5
X234.0Y-69.0
X235.0Y-74.0
X235.0Y-77.0
X235.0Y-80.0
X235.0Y-104.0
X235.0Y-107.4
X235.0Y-110.0
X235.5Y-65.0
X235.6Y-93.8
X236.5Y-75.5
X236.5Y-78.5
X236.7Y-110.0
X237.0Y-63.5
X237.0Y-66.5
X237.0Y-84.0
X237.0Y-95.0
X238.0Y-107.4
X239.0Y-66.75
X239.0Y-67.75
X239.0Y-68.75
X239.0Y-69.75
X239.0Y-73.7
X239.0Y-74.45
X239.0Y-75.175
X239.0Y-75.95
X239.0Y-76.7
X239.0Y-77.45
X239.0Y-78.225
X239.0Y-78.95
X239.0Y-79.7
X239.0Y-80.45
X239.0Y-84.5
X239.0Y-86.0
X239.0Y-90.0
X239.0Y-92.0
X239.0Y-98.0
X240.725Y-83.65
X240.725Y-84.4
X241.0Y-86.0
X241.0Y-90.0
X241.0Y-92.0
X241.0Y-94.95
X241.0Y-98.0
X241.0Y-101.0
X241.0Y-104.0
X241.0Y-107.0
X241.4Y-83.6
X241.4Y-84.4
T2
X196.6Y-67.2
X197.25Y-95.25
X197.4Y-96.7
X198.4Y-96.0
X199.442Y-89.781
X199.491Y-85.85
X203.162Y-103.787
X203.188Y-101.212
X203.2Y-102.4
X206.598Y-80.81
X206.805Y-84.0
X206.805Y-85.0
X206.805Y-93.35
X206.805Y-94.3
X209.825Y-91.05
X210.2Y-109.375
X210.833Y-100.11
X211.95Y-108.5
X213.75Y-92.5
X213.75Y-94.0
X213.75Y-95.5
X214.076Y-77.931
X214.1Y-83.7
X214.5Y-69.2
X214.83Y-91.75
X216.0Y-72.0
X217.2Y-74.8
X217.45Y-103.625
X219.4Y-97.55
X220.475Y-93.425
X222.3Y-82.15
X222.496Y-77.85
X222.55Y-68.375
X223.009Y-82.842
X223.396Y-73.779
X223.396Y-77.85
X224.201Y-82.125
X224.621Y-85.954
X224.671Y-77.66
X230.2Y-77.8
X230.2Y-79.1
X232.1Y-85.6
X232.711Y-75.212
X233.453Y-74.701
X234.2Y-74.2
X234.2Y-84.1
X235.1Y-84.1
X236.0Y-84.1
X237.2Y-88.5
T4
X199.613Y-84.91
X199.613Y-90.69
T5
X239.1Y-101.0
X239.1Y-104.0
T6
X194.85Y-110.1
X194.9Y-65.2
X239.8Y-65.2
X239.8Y-110.1
T3
G00X196.263Y-83.48
M15
G01X195.663Y-83.48
M16
G05
G00X196.263Y-92.12
M15
G01X195.663Y-92.12
M16
G05
G00X200.693Y-83.48
M15
G01X199.593Y-83.48
M16
G05
G00X200.693Y-92.12
M15
G01X199.593Y-92.12
M16
G05
M30
