%TF.GenerationSoftware,KiCad,Pcbnew,9.0.4*%
%TF.CreationDate,2025-11-04T12:24:41+07:00*%
%TF.ProjectId,anchor,616e6368-6f72-42e6-9b69-6361645f7063,rev?*%
%TF.SameCoordinates,Original*%
%TF.FileFunction,Legend,Bot*%
%TF.FilePolarity,Positive*%
%FSLAX46Y46*%
G04 Gerber Fmt 4.6, Leading zero omitted, Abs format (unit mm)*
G04 Created by KiCad (PCBNEW 9.0.4) date 2025-11-04 12:24:41*
%MOMM*%
%LPD*%
G01*
G04 APERTURE LIST*
%ADD10C,0.200000*%
%ADD11C,0.350000*%
%ADD12C,0.150000*%
%ADD13C,0.120000*%
%ADD14C,0.100000*%
%ADD15C,2.200000*%
%ADD16C,0.650000*%
%ADD17O,2.100000X1.000000*%
%ADD18O,1.600000X1.000000*%
%ADD19C,0.900000*%
%ADD20C,1.000000*%
%ADD21R,1.500000X1.500000*%
%ADD22C,1.500000*%
G04 APERTURE END LIST*
D10*
X234546993Y-110343409D02*
X234404136Y-110391028D01*
X234404136Y-110391028D02*
X234356517Y-110438647D01*
X234356517Y-110438647D02*
X234308898Y-110533885D01*
X234308898Y-110533885D02*
X234308898Y-110676742D01*
X234308898Y-110676742D02*
X234356517Y-110771980D01*
X234356517Y-110771980D02*
X234404136Y-110819600D01*
X234404136Y-110819600D02*
X234499374Y-110867219D01*
X234499374Y-110867219D02*
X234880326Y-110867219D01*
X234880326Y-110867219D02*
X234880326Y-109867219D01*
X234880326Y-109867219D02*
X234546993Y-109867219D01*
X234546993Y-109867219D02*
X234451755Y-109914838D01*
X234451755Y-109914838D02*
X234404136Y-109962457D01*
X234404136Y-109962457D02*
X234356517Y-110057695D01*
X234356517Y-110057695D02*
X234356517Y-110152933D01*
X234356517Y-110152933D02*
X234404136Y-110248171D01*
X234404136Y-110248171D02*
X234451755Y-110295790D01*
X234451755Y-110295790D02*
X234546993Y-110343409D01*
X234546993Y-110343409D02*
X234880326Y-110343409D01*
X233689850Y-109867219D02*
X233499374Y-109867219D01*
X233499374Y-109867219D02*
X233404136Y-109914838D01*
X233404136Y-109914838D02*
X233308898Y-110010076D01*
X233308898Y-110010076D02*
X233261279Y-110200552D01*
X233261279Y-110200552D02*
X233261279Y-110533885D01*
X233261279Y-110533885D02*
X233308898Y-110724361D01*
X233308898Y-110724361D02*
X233404136Y-110819600D01*
X233404136Y-110819600D02*
X233499374Y-110867219D01*
X233499374Y-110867219D02*
X233689850Y-110867219D01*
X233689850Y-110867219D02*
X233785088Y-110819600D01*
X233785088Y-110819600D02*
X233880326Y-110724361D01*
X233880326Y-110724361D02*
X233927945Y-110533885D01*
X233927945Y-110533885D02*
X233927945Y-110200552D01*
X233927945Y-110200552D02*
X233880326Y-110010076D01*
X233880326Y-110010076D02*
X233785088Y-109914838D01*
X233785088Y-109914838D02*
X233689850Y-109867219D01*
X232880326Y-110581504D02*
X232404136Y-110581504D01*
X232975564Y-110867219D02*
X232642231Y-109867219D01*
X232642231Y-109867219D02*
X232308898Y-110867219D01*
X231404136Y-110867219D02*
X231737469Y-110391028D01*
X231975564Y-110867219D02*
X231975564Y-109867219D01*
X231975564Y-109867219D02*
X231594612Y-109867219D01*
X231594612Y-109867219D02*
X231499374Y-109914838D01*
X231499374Y-109914838D02*
X231451755Y-109962457D01*
X231451755Y-109962457D02*
X231404136Y-110057695D01*
X231404136Y-110057695D02*
X231404136Y-110200552D01*
X231404136Y-110200552D02*
X231451755Y-110295790D01*
X231451755Y-110295790D02*
X231499374Y-110343409D01*
X231499374Y-110343409D02*
X231594612Y-110391028D01*
X231594612Y-110391028D02*
X231975564Y-110391028D01*
X230975564Y-110867219D02*
X230975564Y-109867219D01*
X230975564Y-109867219D02*
X230737469Y-109867219D01*
X230737469Y-109867219D02*
X230594612Y-109914838D01*
X230594612Y-109914838D02*
X230499374Y-110010076D01*
X230499374Y-110010076D02*
X230451755Y-110105314D01*
X230451755Y-110105314D02*
X230404136Y-110295790D01*
X230404136Y-110295790D02*
X230404136Y-110438647D01*
X230404136Y-110438647D02*
X230451755Y-110629123D01*
X230451755Y-110629123D02*
X230499374Y-110724361D01*
X230499374Y-110724361D02*
X230594612Y-110819600D01*
X230594612Y-110819600D02*
X230737469Y-110867219D01*
X230737469Y-110867219D02*
X230975564Y-110867219D01*
X229975564Y-110771980D02*
X229927945Y-110819600D01*
X229927945Y-110819600D02*
X229975564Y-110867219D01*
X229975564Y-110867219D02*
X230023183Y-110819600D01*
X230023183Y-110819600D02*
X229975564Y-110771980D01*
X229975564Y-110771980D02*
X229975564Y-110867219D01*
X229975564Y-110248171D02*
X229927945Y-110295790D01*
X229927945Y-110295790D02*
X229975564Y-110343409D01*
X229975564Y-110343409D02*
X230023183Y-110295790D01*
X230023183Y-110295790D02*
X229975564Y-110248171D01*
X229975564Y-110248171D02*
X229975564Y-110343409D01*
X228785088Y-110581504D02*
X228308898Y-110581504D01*
X228880326Y-110867219D02*
X228546993Y-109867219D01*
X228546993Y-109867219D02*
X228213660Y-110867219D01*
X227880326Y-110867219D02*
X227880326Y-109867219D01*
X227880326Y-109867219D02*
X227308898Y-110867219D01*
X227308898Y-110867219D02*
X227308898Y-109867219D01*
X226261279Y-110771980D02*
X226308898Y-110819600D01*
X226308898Y-110819600D02*
X226451755Y-110867219D01*
X226451755Y-110867219D02*
X226546993Y-110867219D01*
X226546993Y-110867219D02*
X226689850Y-110819600D01*
X226689850Y-110819600D02*
X226785088Y-110724361D01*
X226785088Y-110724361D02*
X226832707Y-110629123D01*
X226832707Y-110629123D02*
X226880326Y-110438647D01*
X226880326Y-110438647D02*
X226880326Y-110295790D01*
X226880326Y-110295790D02*
X226832707Y-110105314D01*
X226832707Y-110105314D02*
X226785088Y-110010076D01*
X226785088Y-110010076D02*
X226689850Y-109914838D01*
X226689850Y-109914838D02*
X226546993Y-109867219D01*
X226546993Y-109867219D02*
X226451755Y-109867219D01*
X226451755Y-109867219D02*
X226308898Y-109914838D01*
X226308898Y-109914838D02*
X226261279Y-109962457D01*
X225832707Y-110867219D02*
X225832707Y-109867219D01*
X225832707Y-110343409D02*
X225261279Y-110343409D01*
X225261279Y-110867219D02*
X225261279Y-109867219D01*
X224594612Y-109867219D02*
X224404136Y-109867219D01*
X224404136Y-109867219D02*
X224308898Y-109914838D01*
X224308898Y-109914838D02*
X224213660Y-110010076D01*
X224213660Y-110010076D02*
X224166041Y-110200552D01*
X224166041Y-110200552D02*
X224166041Y-110533885D01*
X224166041Y-110533885D02*
X224213660Y-110724361D01*
X224213660Y-110724361D02*
X224308898Y-110819600D01*
X224308898Y-110819600D02*
X224404136Y-110867219D01*
X224404136Y-110867219D02*
X224594612Y-110867219D01*
X224594612Y-110867219D02*
X224689850Y-110819600D01*
X224689850Y-110819600D02*
X224785088Y-110724361D01*
X224785088Y-110724361D02*
X224832707Y-110533885D01*
X224832707Y-110533885D02*
X224832707Y-110200552D01*
X224832707Y-110200552D02*
X224785088Y-110010076D01*
X224785088Y-110010076D02*
X224689850Y-109914838D01*
X224689850Y-109914838D02*
X224594612Y-109867219D01*
X223166041Y-110867219D02*
X223499374Y-110391028D01*
X223737469Y-110867219D02*
X223737469Y-109867219D01*
X223737469Y-109867219D02*
X223356517Y-109867219D01*
X223356517Y-109867219D02*
X223261279Y-109914838D01*
X223261279Y-109914838D02*
X223213660Y-109962457D01*
X223213660Y-109962457D02*
X223166041Y-110057695D01*
X223166041Y-110057695D02*
X223166041Y-110200552D01*
X223166041Y-110200552D02*
X223213660Y-110295790D01*
X223213660Y-110295790D02*
X223261279Y-110343409D01*
X223261279Y-110343409D02*
X223356517Y-110391028D01*
X223356517Y-110391028D02*
X223737469Y-110391028D01*
X221404136Y-110867219D02*
X221737469Y-110391028D01*
X221975564Y-110867219D02*
X221975564Y-109867219D01*
X221975564Y-109867219D02*
X221594612Y-109867219D01*
X221594612Y-109867219D02*
X221499374Y-109914838D01*
X221499374Y-109914838D02*
X221451755Y-109962457D01*
X221451755Y-109962457D02*
X221404136Y-110057695D01*
X221404136Y-110057695D02*
X221404136Y-110200552D01*
X221404136Y-110200552D02*
X221451755Y-110295790D01*
X221451755Y-110295790D02*
X221499374Y-110343409D01*
X221499374Y-110343409D02*
X221594612Y-110391028D01*
X221594612Y-110391028D02*
X221975564Y-110391028D01*
X220975564Y-110343409D02*
X220642231Y-110343409D01*
X220499374Y-110867219D02*
X220975564Y-110867219D01*
X220975564Y-110867219D02*
X220975564Y-109867219D01*
X220975564Y-109867219D02*
X220499374Y-109867219D01*
X220213659Y-109867219D02*
X219880326Y-110867219D01*
X219880326Y-110867219D02*
X219546993Y-109867219D01*
X218546992Y-110200552D02*
X218308897Y-110867219D01*
X218308897Y-110867219D02*
X218070802Y-110200552D01*
X217499373Y-109867219D02*
X217404135Y-109867219D01*
X217404135Y-109867219D02*
X217308897Y-109914838D01*
X217308897Y-109914838D02*
X217261278Y-109962457D01*
X217261278Y-109962457D02*
X217213659Y-110057695D01*
X217213659Y-110057695D02*
X217166040Y-110248171D01*
X217166040Y-110248171D02*
X217166040Y-110486266D01*
X217166040Y-110486266D02*
X217213659Y-110676742D01*
X217213659Y-110676742D02*
X217261278Y-110771980D01*
X217261278Y-110771980D02*
X217308897Y-110819600D01*
X217308897Y-110819600D02*
X217404135Y-110867219D01*
X217404135Y-110867219D02*
X217499373Y-110867219D01*
X217499373Y-110867219D02*
X217594611Y-110819600D01*
X217594611Y-110819600D02*
X217642230Y-110771980D01*
X217642230Y-110771980D02*
X217689849Y-110676742D01*
X217689849Y-110676742D02*
X217737468Y-110486266D01*
X217737468Y-110486266D02*
X217737468Y-110248171D01*
X217737468Y-110248171D02*
X217689849Y-110057695D01*
X217689849Y-110057695D02*
X217642230Y-109962457D01*
X217642230Y-109962457D02*
X217594611Y-109914838D01*
X217594611Y-109914838D02*
X217499373Y-109867219D01*
X216737468Y-110771980D02*
X216689849Y-110819600D01*
X216689849Y-110819600D02*
X216737468Y-110867219D01*
X216737468Y-110867219D02*
X216785087Y-110819600D01*
X216785087Y-110819600D02*
X216737468Y-110771980D01*
X216737468Y-110771980D02*
X216737468Y-110867219D01*
X216308897Y-109962457D02*
X216261278Y-109914838D01*
X216261278Y-109914838D02*
X216166040Y-109867219D01*
X216166040Y-109867219D02*
X215927945Y-109867219D01*
X215927945Y-109867219D02*
X215832707Y-109914838D01*
X215832707Y-109914838D02*
X215785088Y-109962457D01*
X215785088Y-109962457D02*
X215737469Y-110057695D01*
X215737469Y-110057695D02*
X215737469Y-110152933D01*
X215737469Y-110152933D02*
X215785088Y-110295790D01*
X215785088Y-110295790D02*
X216356516Y-110867219D01*
X216356516Y-110867219D02*
X215737469Y-110867219D01*
D11*
X234693546Y-106537038D02*
X234693546Y-108156085D01*
X234693546Y-108156085D02*
X234598308Y-108346561D01*
X234598308Y-108346561D02*
X234503070Y-108441800D01*
X234503070Y-108441800D02*
X234312594Y-108537038D01*
X234312594Y-108537038D02*
X233931641Y-108537038D01*
X233931641Y-108537038D02*
X233741165Y-108441800D01*
X233741165Y-108441800D02*
X233645927Y-108346561D01*
X233645927Y-108346561D02*
X233550689Y-108156085D01*
X233550689Y-108156085D02*
X233550689Y-106537038D01*
X232788784Y-106537038D02*
X232312594Y-108537038D01*
X232312594Y-108537038D02*
X231931641Y-107108466D01*
X231931641Y-107108466D02*
X231550689Y-108537038D01*
X231550689Y-108537038D02*
X231074499Y-106537038D01*
X229645927Y-107489419D02*
X229360213Y-107584657D01*
X229360213Y-107584657D02*
X229264975Y-107679895D01*
X229264975Y-107679895D02*
X229169737Y-107870371D01*
X229169737Y-107870371D02*
X229169737Y-108156085D01*
X229169737Y-108156085D02*
X229264975Y-108346561D01*
X229264975Y-108346561D02*
X229360213Y-108441800D01*
X229360213Y-108441800D02*
X229550689Y-108537038D01*
X229550689Y-108537038D02*
X230312594Y-108537038D01*
X230312594Y-108537038D02*
X230312594Y-106537038D01*
X230312594Y-106537038D02*
X229645927Y-106537038D01*
X229645927Y-106537038D02*
X229455451Y-106632276D01*
X229455451Y-106632276D02*
X229360213Y-106727514D01*
X229360213Y-106727514D02*
X229264975Y-106917990D01*
X229264975Y-106917990D02*
X229264975Y-107108466D01*
X229264975Y-107108466D02*
X229360213Y-107298942D01*
X229360213Y-107298942D02*
X229455451Y-107394180D01*
X229455451Y-107394180D02*
X229645927Y-107489419D01*
X229645927Y-107489419D02*
X230312594Y-107489419D01*
X228312594Y-107775133D02*
X226788785Y-107775133D01*
X224693547Y-108537038D02*
X225360214Y-107584657D01*
X225836404Y-108537038D02*
X225836404Y-106537038D01*
X225836404Y-106537038D02*
X225074499Y-106537038D01*
X225074499Y-106537038D02*
X224884023Y-106632276D01*
X224884023Y-106632276D02*
X224788785Y-106727514D01*
X224788785Y-106727514D02*
X224693547Y-106917990D01*
X224693547Y-106917990D02*
X224693547Y-107203704D01*
X224693547Y-107203704D02*
X224788785Y-107394180D01*
X224788785Y-107394180D02*
X224884023Y-107489419D01*
X224884023Y-107489419D02*
X225074499Y-107584657D01*
X225074499Y-107584657D02*
X225836404Y-107584657D01*
X224122118Y-106537038D02*
X222979261Y-106537038D01*
X223550690Y-108537038D02*
X223550690Y-106537038D01*
X221360213Y-108537038D02*
X222312594Y-108537038D01*
X222312594Y-108537038D02*
X222312594Y-106537038D01*
X220788784Y-108441800D02*
X220503070Y-108537038D01*
X220503070Y-108537038D02*
X220026879Y-108537038D01*
X220026879Y-108537038D02*
X219836403Y-108441800D01*
X219836403Y-108441800D02*
X219741165Y-108346561D01*
X219741165Y-108346561D02*
X219645927Y-108156085D01*
X219645927Y-108156085D02*
X219645927Y-107965609D01*
X219645927Y-107965609D02*
X219741165Y-107775133D01*
X219741165Y-107775133D02*
X219836403Y-107679895D01*
X219836403Y-107679895D02*
X220026879Y-107584657D01*
X220026879Y-107584657D02*
X220407832Y-107489419D01*
X220407832Y-107489419D02*
X220598308Y-107394180D01*
X220598308Y-107394180D02*
X220693546Y-107298942D01*
X220693546Y-107298942D02*
X220788784Y-107108466D01*
X220788784Y-107108466D02*
X220788784Y-106917990D01*
X220788784Y-106917990D02*
X220693546Y-106727514D01*
X220693546Y-106727514D02*
X220598308Y-106632276D01*
X220598308Y-106632276D02*
X220407832Y-106537038D01*
X220407832Y-106537038D02*
X219931641Y-106537038D01*
X219931641Y-106537038D02*
X219645927Y-106632276D01*
D12*
X216709523Y-66314295D02*
X216252380Y-66314295D01*
X216480952Y-67114295D02*
X216480952Y-66314295D01*
X215985713Y-67114295D02*
X215985713Y-66314295D01*
X215985713Y-66314295D02*
X215680951Y-66314295D01*
X215680951Y-66314295D02*
X215604761Y-66352390D01*
X215604761Y-66352390D02*
X215566666Y-66390485D01*
X215566666Y-66390485D02*
X215528570Y-66466676D01*
X215528570Y-66466676D02*
X215528570Y-66580961D01*
X215528570Y-66580961D02*
X215566666Y-66657152D01*
X215566666Y-66657152D02*
X215604761Y-66695247D01*
X215604761Y-66695247D02*
X215680951Y-66733342D01*
X215680951Y-66733342D02*
X215985713Y-66733342D01*
X215261904Y-66314295D02*
X214728570Y-66314295D01*
X214728570Y-66314295D02*
X215071428Y-67114295D01*
X200168094Y-104626819D02*
X199596666Y-104626819D01*
X199882380Y-105626819D02*
X199882380Y-104626819D01*
X199263332Y-105626819D02*
X199263332Y-104626819D01*
X199263332Y-104626819D02*
X198882380Y-104626819D01*
X198882380Y-104626819D02*
X198787142Y-104674438D01*
X198787142Y-104674438D02*
X198739523Y-104722057D01*
X198739523Y-104722057D02*
X198691904Y-104817295D01*
X198691904Y-104817295D02*
X198691904Y-104960152D01*
X198691904Y-104960152D02*
X198739523Y-105055390D01*
X198739523Y-105055390D02*
X198787142Y-105103009D01*
X198787142Y-105103009D02*
X198882380Y-105150628D01*
X198882380Y-105150628D02*
X199263332Y-105150628D01*
X197739523Y-105626819D02*
X198310951Y-105626819D01*
X198025237Y-105626819D02*
X198025237Y-104626819D01*
X198025237Y-104626819D02*
X198120475Y-104769676D01*
X198120475Y-104769676D02*
X198215713Y-104864914D01*
X198215713Y-104864914D02*
X198310951Y-104912533D01*
X197406189Y-104626819D02*
X196787142Y-104626819D01*
X196787142Y-104626819D02*
X197120475Y-105007771D01*
X197120475Y-105007771D02*
X196977618Y-105007771D01*
X196977618Y-105007771D02*
X196882380Y-105055390D01*
X196882380Y-105055390D02*
X196834761Y-105103009D01*
X196834761Y-105103009D02*
X196787142Y-105198247D01*
X196787142Y-105198247D02*
X196787142Y-105436342D01*
X196787142Y-105436342D02*
X196834761Y-105531580D01*
X196834761Y-105531580D02*
X196882380Y-105579200D01*
X196882380Y-105579200D02*
X196977618Y-105626819D01*
X196977618Y-105626819D02*
X197263332Y-105626819D01*
X197263332Y-105626819D02*
X197358570Y-105579200D01*
X197358570Y-105579200D02*
X197406189Y-105531580D01*
X200009523Y-76914295D02*
X199552380Y-76914295D01*
X199780952Y-77714295D02*
X199780952Y-76914295D01*
X199285713Y-77714295D02*
X199285713Y-76914295D01*
X199285713Y-76914295D02*
X198980951Y-76914295D01*
X198980951Y-76914295D02*
X198904761Y-76952390D01*
X198904761Y-76952390D02*
X198866666Y-76990485D01*
X198866666Y-76990485D02*
X198828570Y-77066676D01*
X198828570Y-77066676D02*
X198828570Y-77180961D01*
X198828570Y-77180961D02*
X198866666Y-77257152D01*
X198866666Y-77257152D02*
X198904761Y-77295247D01*
X198904761Y-77295247D02*
X198980951Y-77333342D01*
X198980951Y-77333342D02*
X199285713Y-77333342D01*
X198142856Y-76914295D02*
X198295237Y-76914295D01*
X198295237Y-76914295D02*
X198371428Y-76952390D01*
X198371428Y-76952390D02*
X198409523Y-76990485D01*
X198409523Y-76990485D02*
X198485713Y-77104771D01*
X198485713Y-77104771D02*
X198523809Y-77257152D01*
X198523809Y-77257152D02*
X198523809Y-77561914D01*
X198523809Y-77561914D02*
X198485713Y-77638104D01*
X198485713Y-77638104D02*
X198447618Y-77676200D01*
X198447618Y-77676200D02*
X198371428Y-77714295D01*
X198371428Y-77714295D02*
X198219047Y-77714295D01*
X198219047Y-77714295D02*
X198142856Y-77676200D01*
X198142856Y-77676200D02*
X198104761Y-77638104D01*
X198104761Y-77638104D02*
X198066666Y-77561914D01*
X198066666Y-77561914D02*
X198066666Y-77371438D01*
X198066666Y-77371438D02*
X198104761Y-77295247D01*
X198104761Y-77295247D02*
X198142856Y-77257152D01*
X198142856Y-77257152D02*
X198219047Y-77219057D01*
X198219047Y-77219057D02*
X198371428Y-77219057D01*
X198371428Y-77219057D02*
X198447618Y-77257152D01*
X198447618Y-77257152D02*
X198485713Y-77295247D01*
X198485713Y-77295247D02*
X198523809Y-77371438D01*
X217809523Y-79227295D02*
X217352380Y-79227295D01*
X217580952Y-80027295D02*
X217580952Y-79227295D01*
X217085713Y-80027295D02*
X217085713Y-79227295D01*
X217085713Y-79227295D02*
X216780951Y-79227295D01*
X216780951Y-79227295D02*
X216704761Y-79265390D01*
X216704761Y-79265390D02*
X216666666Y-79303485D01*
X216666666Y-79303485D02*
X216628570Y-79379676D01*
X216628570Y-79379676D02*
X216628570Y-79493961D01*
X216628570Y-79493961D02*
X216666666Y-79570152D01*
X216666666Y-79570152D02*
X216704761Y-79608247D01*
X216704761Y-79608247D02*
X216780951Y-79646342D01*
X216780951Y-79646342D02*
X217085713Y-79646342D01*
X216361904Y-79227295D02*
X215866666Y-79227295D01*
X215866666Y-79227295D02*
X216133332Y-79532057D01*
X216133332Y-79532057D02*
X216019047Y-79532057D01*
X216019047Y-79532057D02*
X215942856Y-79570152D01*
X215942856Y-79570152D02*
X215904761Y-79608247D01*
X215904761Y-79608247D02*
X215866666Y-79684438D01*
X215866666Y-79684438D02*
X215866666Y-79874914D01*
X215866666Y-79874914D02*
X215904761Y-79951104D01*
X215904761Y-79951104D02*
X215942856Y-79989200D01*
X215942856Y-79989200D02*
X216019047Y-80027295D01*
X216019047Y-80027295D02*
X216247618Y-80027295D01*
X216247618Y-80027295D02*
X216323809Y-79989200D01*
X216323809Y-79989200D02*
X216361904Y-79951104D01*
X219390476Y-68414295D02*
X218933333Y-68414295D01*
X219161905Y-69214295D02*
X219161905Y-68414295D01*
X218666666Y-69214295D02*
X218666666Y-68414295D01*
X218666666Y-68414295D02*
X218361904Y-68414295D01*
X218361904Y-68414295D02*
X218285714Y-68452390D01*
X218285714Y-68452390D02*
X218247619Y-68490485D01*
X218247619Y-68490485D02*
X218209523Y-68566676D01*
X218209523Y-68566676D02*
X218209523Y-68680961D01*
X218209523Y-68680961D02*
X218247619Y-68757152D01*
X218247619Y-68757152D02*
X218285714Y-68795247D01*
X218285714Y-68795247D02*
X218361904Y-68833342D01*
X218361904Y-68833342D02*
X218666666Y-68833342D01*
X217447619Y-69214295D02*
X217904762Y-69214295D01*
X217676190Y-69214295D02*
X217676190Y-68414295D01*
X217676190Y-68414295D02*
X217752381Y-68528580D01*
X217752381Y-68528580D02*
X217828571Y-68604771D01*
X217828571Y-68604771D02*
X217904762Y-68642866D01*
X216952380Y-68414295D02*
X216876190Y-68414295D01*
X216876190Y-68414295D02*
X216799999Y-68452390D01*
X216799999Y-68452390D02*
X216761904Y-68490485D01*
X216761904Y-68490485D02*
X216723809Y-68566676D01*
X216723809Y-68566676D02*
X216685714Y-68719057D01*
X216685714Y-68719057D02*
X216685714Y-68909533D01*
X216685714Y-68909533D02*
X216723809Y-69061914D01*
X216723809Y-69061914D02*
X216761904Y-69138104D01*
X216761904Y-69138104D02*
X216799999Y-69176200D01*
X216799999Y-69176200D02*
X216876190Y-69214295D01*
X216876190Y-69214295D02*
X216952380Y-69214295D01*
X216952380Y-69214295D02*
X217028571Y-69176200D01*
X217028571Y-69176200D02*
X217066666Y-69138104D01*
X217066666Y-69138104D02*
X217104761Y-69061914D01*
X217104761Y-69061914D02*
X217142857Y-68909533D01*
X217142857Y-68909533D02*
X217142857Y-68719057D01*
X217142857Y-68719057D02*
X217104761Y-68566676D01*
X217104761Y-68566676D02*
X217066666Y-68490485D01*
X217066666Y-68490485D02*
X217028571Y-68452390D01*
X217028571Y-68452390D02*
X216952380Y-68414295D01*
X228080773Y-78514295D02*
X227623630Y-78514295D01*
X227852202Y-79314295D02*
X227852202Y-78514295D01*
X227356963Y-79314295D02*
X227356963Y-78514295D01*
X227356963Y-78514295D02*
X227052201Y-78514295D01*
X227052201Y-78514295D02*
X226976011Y-78552390D01*
X226976011Y-78552390D02*
X226937916Y-78590485D01*
X226937916Y-78590485D02*
X226899820Y-78666676D01*
X226899820Y-78666676D02*
X226899820Y-78780961D01*
X226899820Y-78780961D02*
X226937916Y-78857152D01*
X226937916Y-78857152D02*
X226976011Y-78895247D01*
X226976011Y-78895247D02*
X227052201Y-78933342D01*
X227052201Y-78933342D02*
X227356963Y-78933342D01*
X226518868Y-79314295D02*
X226366487Y-79314295D01*
X226366487Y-79314295D02*
X226290297Y-79276200D01*
X226290297Y-79276200D02*
X226252201Y-79238104D01*
X226252201Y-79238104D02*
X226176011Y-79123819D01*
X226176011Y-79123819D02*
X226137916Y-78971438D01*
X226137916Y-78971438D02*
X226137916Y-78666676D01*
X226137916Y-78666676D02*
X226176011Y-78590485D01*
X226176011Y-78590485D02*
X226214106Y-78552390D01*
X226214106Y-78552390D02*
X226290297Y-78514295D01*
X226290297Y-78514295D02*
X226442678Y-78514295D01*
X226442678Y-78514295D02*
X226518868Y-78552390D01*
X226518868Y-78552390D02*
X226556963Y-78590485D01*
X226556963Y-78590485D02*
X226595059Y-78666676D01*
X226595059Y-78666676D02*
X226595059Y-78857152D01*
X226595059Y-78857152D02*
X226556963Y-78933342D01*
X226556963Y-78933342D02*
X226518868Y-78971438D01*
X226518868Y-78971438D02*
X226442678Y-79009533D01*
X226442678Y-79009533D02*
X226290297Y-79009533D01*
X226290297Y-79009533D02*
X226214106Y-78971438D01*
X226214106Y-78971438D02*
X226176011Y-78933342D01*
X226176011Y-78933342D02*
X226137916Y-78857152D01*
X231709523Y-100312295D02*
X231252380Y-100312295D01*
X231480952Y-101112295D02*
X231480952Y-100312295D01*
X230985713Y-101112295D02*
X230985713Y-100312295D01*
X230985713Y-100312295D02*
X230680951Y-100312295D01*
X230680951Y-100312295D02*
X230604761Y-100350390D01*
X230604761Y-100350390D02*
X230566666Y-100388485D01*
X230566666Y-100388485D02*
X230528570Y-100464676D01*
X230528570Y-100464676D02*
X230528570Y-100578961D01*
X230528570Y-100578961D02*
X230566666Y-100655152D01*
X230566666Y-100655152D02*
X230604761Y-100693247D01*
X230604761Y-100693247D02*
X230680951Y-100731342D01*
X230680951Y-100731342D02*
X230985713Y-100731342D01*
X229842856Y-100578961D02*
X229842856Y-101112295D01*
X230033332Y-100274200D02*
X230223809Y-100845628D01*
X230223809Y-100845628D02*
X229728570Y-100845628D01*
X228109523Y-99962295D02*
X227652380Y-99962295D01*
X227880952Y-100762295D02*
X227880952Y-99962295D01*
X227385713Y-100762295D02*
X227385713Y-99962295D01*
X227385713Y-99962295D02*
X227080951Y-99962295D01*
X227080951Y-99962295D02*
X227004761Y-100000390D01*
X227004761Y-100000390D02*
X226966666Y-100038485D01*
X226966666Y-100038485D02*
X226928570Y-100114676D01*
X226928570Y-100114676D02*
X226928570Y-100228961D01*
X226928570Y-100228961D02*
X226966666Y-100305152D01*
X226966666Y-100305152D02*
X227004761Y-100343247D01*
X227004761Y-100343247D02*
X227080951Y-100381342D01*
X227080951Y-100381342D02*
X227385713Y-100381342D01*
X226204761Y-99962295D02*
X226585713Y-99962295D01*
X226585713Y-99962295D02*
X226623809Y-100343247D01*
X226623809Y-100343247D02*
X226585713Y-100305152D01*
X226585713Y-100305152D02*
X226509523Y-100267057D01*
X226509523Y-100267057D02*
X226319047Y-100267057D01*
X226319047Y-100267057D02*
X226242856Y-100305152D01*
X226242856Y-100305152D02*
X226204761Y-100343247D01*
X226204761Y-100343247D02*
X226166666Y-100419438D01*
X226166666Y-100419438D02*
X226166666Y-100609914D01*
X226166666Y-100609914D02*
X226204761Y-100686104D01*
X226204761Y-100686104D02*
X226242856Y-100724200D01*
X226242856Y-100724200D02*
X226319047Y-100762295D01*
X226319047Y-100762295D02*
X226509523Y-100762295D01*
X226509523Y-100762295D02*
X226585713Y-100724200D01*
X226585713Y-100724200D02*
X226623809Y-100686104D01*
X212151747Y-100609795D02*
X211694604Y-100609795D01*
X211923176Y-101409795D02*
X211923176Y-100609795D01*
X211427937Y-101409795D02*
X211427937Y-100609795D01*
X211427937Y-100609795D02*
X211123175Y-100609795D01*
X211123175Y-100609795D02*
X211046985Y-100647890D01*
X211046985Y-100647890D02*
X211008890Y-100685985D01*
X211008890Y-100685985D02*
X210970794Y-100762176D01*
X210970794Y-100762176D02*
X210970794Y-100876461D01*
X210970794Y-100876461D02*
X211008890Y-100952652D01*
X211008890Y-100952652D02*
X211046985Y-100990747D01*
X211046985Y-100990747D02*
X211123175Y-101028842D01*
X211123175Y-101028842D02*
X211427937Y-101028842D01*
X210208890Y-101409795D02*
X210666033Y-101409795D01*
X210437461Y-101409795D02*
X210437461Y-100609795D01*
X210437461Y-100609795D02*
X210513652Y-100724080D01*
X210513652Y-100724080D02*
X210589842Y-100800271D01*
X210589842Y-100800271D02*
X210666033Y-100838366D01*
X220809523Y-70414295D02*
X220352380Y-70414295D01*
X220580952Y-71214295D02*
X220580952Y-70414295D01*
X220085713Y-71214295D02*
X220085713Y-70414295D01*
X220085713Y-70414295D02*
X219780951Y-70414295D01*
X219780951Y-70414295D02*
X219704761Y-70452390D01*
X219704761Y-70452390D02*
X219666666Y-70490485D01*
X219666666Y-70490485D02*
X219628570Y-70566676D01*
X219628570Y-70566676D02*
X219628570Y-70680961D01*
X219628570Y-70680961D02*
X219666666Y-70757152D01*
X219666666Y-70757152D02*
X219704761Y-70795247D01*
X219704761Y-70795247D02*
X219780951Y-70833342D01*
X219780951Y-70833342D02*
X220085713Y-70833342D01*
X219171428Y-70757152D02*
X219247618Y-70719057D01*
X219247618Y-70719057D02*
X219285713Y-70680961D01*
X219285713Y-70680961D02*
X219323809Y-70604771D01*
X219323809Y-70604771D02*
X219323809Y-70566676D01*
X219323809Y-70566676D02*
X219285713Y-70490485D01*
X219285713Y-70490485D02*
X219247618Y-70452390D01*
X219247618Y-70452390D02*
X219171428Y-70414295D01*
X219171428Y-70414295D02*
X219019047Y-70414295D01*
X219019047Y-70414295D02*
X218942856Y-70452390D01*
X218942856Y-70452390D02*
X218904761Y-70490485D01*
X218904761Y-70490485D02*
X218866666Y-70566676D01*
X218866666Y-70566676D02*
X218866666Y-70604771D01*
X218866666Y-70604771D02*
X218904761Y-70680961D01*
X218904761Y-70680961D02*
X218942856Y-70719057D01*
X218942856Y-70719057D02*
X219019047Y-70757152D01*
X219019047Y-70757152D02*
X219171428Y-70757152D01*
X219171428Y-70757152D02*
X219247618Y-70795247D01*
X219247618Y-70795247D02*
X219285713Y-70833342D01*
X219285713Y-70833342D02*
X219323809Y-70909533D01*
X219323809Y-70909533D02*
X219323809Y-71061914D01*
X219323809Y-71061914D02*
X219285713Y-71138104D01*
X219285713Y-71138104D02*
X219247618Y-71176200D01*
X219247618Y-71176200D02*
X219171428Y-71214295D01*
X219171428Y-71214295D02*
X219019047Y-71214295D01*
X219019047Y-71214295D02*
X218942856Y-71176200D01*
X218942856Y-71176200D02*
X218904761Y-71138104D01*
X218904761Y-71138104D02*
X218866666Y-71061914D01*
X218866666Y-71061914D02*
X218866666Y-70909533D01*
X218866666Y-70909533D02*
X218904761Y-70833342D01*
X218904761Y-70833342D02*
X218942856Y-70795247D01*
X218942856Y-70795247D02*
X219019047Y-70757152D01*
X213490476Y-80262295D02*
X213033333Y-80262295D01*
X213261905Y-81062295D02*
X213261905Y-80262295D01*
X212766666Y-81062295D02*
X212766666Y-80262295D01*
X212766666Y-80262295D02*
X212461904Y-80262295D01*
X212461904Y-80262295D02*
X212385714Y-80300390D01*
X212385714Y-80300390D02*
X212347619Y-80338485D01*
X212347619Y-80338485D02*
X212309523Y-80414676D01*
X212309523Y-80414676D02*
X212309523Y-80528961D01*
X212309523Y-80528961D02*
X212347619Y-80605152D01*
X212347619Y-80605152D02*
X212385714Y-80643247D01*
X212385714Y-80643247D02*
X212461904Y-80681342D01*
X212461904Y-80681342D02*
X212766666Y-80681342D01*
X211547619Y-81062295D02*
X212004762Y-81062295D01*
X211776190Y-81062295D02*
X211776190Y-80262295D01*
X211776190Y-80262295D02*
X211852381Y-80376580D01*
X211852381Y-80376580D02*
X211928571Y-80452771D01*
X211928571Y-80452771D02*
X212004762Y-80490866D01*
X210785714Y-81062295D02*
X211242857Y-81062295D01*
X211014285Y-81062295D02*
X211014285Y-80262295D01*
X211014285Y-80262295D02*
X211090476Y-80376580D01*
X211090476Y-80376580D02*
X211166666Y-80452771D01*
X211166666Y-80452771D02*
X211242857Y-80490866D01*
X228136726Y-74564295D02*
X227679583Y-74564295D01*
X227908155Y-75364295D02*
X227908155Y-74564295D01*
X227412916Y-75364295D02*
X227412916Y-74564295D01*
X227412916Y-74564295D02*
X227108154Y-74564295D01*
X227108154Y-74564295D02*
X227031964Y-74602390D01*
X227031964Y-74602390D02*
X226993869Y-74640485D01*
X226993869Y-74640485D02*
X226955773Y-74716676D01*
X226955773Y-74716676D02*
X226955773Y-74830961D01*
X226955773Y-74830961D02*
X226993869Y-74907152D01*
X226993869Y-74907152D02*
X227031964Y-74945247D01*
X227031964Y-74945247D02*
X227108154Y-74983342D01*
X227108154Y-74983342D02*
X227412916Y-74983342D01*
X226193869Y-75364295D02*
X226651012Y-75364295D01*
X226422440Y-75364295D02*
X226422440Y-74564295D01*
X226422440Y-74564295D02*
X226498631Y-74678580D01*
X226498631Y-74678580D02*
X226574821Y-74754771D01*
X226574821Y-74754771D02*
X226651012Y-74792866D01*
X225889107Y-74640485D02*
X225851011Y-74602390D01*
X225851011Y-74602390D02*
X225774821Y-74564295D01*
X225774821Y-74564295D02*
X225584345Y-74564295D01*
X225584345Y-74564295D02*
X225508154Y-74602390D01*
X225508154Y-74602390D02*
X225470059Y-74640485D01*
X225470059Y-74640485D02*
X225431964Y-74716676D01*
X225431964Y-74716676D02*
X225431964Y-74792866D01*
X225431964Y-74792866D02*
X225470059Y-74907152D01*
X225470059Y-74907152D02*
X225927202Y-75364295D01*
X225927202Y-75364295D02*
X225431964Y-75364295D01*
X216189523Y-100364795D02*
X215732380Y-100364795D01*
X215960952Y-101164795D02*
X215960952Y-100364795D01*
X215465713Y-101164795D02*
X215465713Y-100364795D01*
X215465713Y-100364795D02*
X215160951Y-100364795D01*
X215160951Y-100364795D02*
X215084761Y-100402890D01*
X215084761Y-100402890D02*
X215046666Y-100440985D01*
X215046666Y-100440985D02*
X215008570Y-100517176D01*
X215008570Y-100517176D02*
X215008570Y-100631461D01*
X215008570Y-100631461D02*
X215046666Y-100707652D01*
X215046666Y-100707652D02*
X215084761Y-100745747D01*
X215084761Y-100745747D02*
X215160951Y-100783842D01*
X215160951Y-100783842D02*
X215465713Y-100783842D01*
X214703809Y-100440985D02*
X214665713Y-100402890D01*
X214665713Y-100402890D02*
X214589523Y-100364795D01*
X214589523Y-100364795D02*
X214399047Y-100364795D01*
X214399047Y-100364795D02*
X214322856Y-100402890D01*
X214322856Y-100402890D02*
X214284761Y-100440985D01*
X214284761Y-100440985D02*
X214246666Y-100517176D01*
X214246666Y-100517176D02*
X214246666Y-100593366D01*
X214246666Y-100593366D02*
X214284761Y-100707652D01*
X214284761Y-100707652D02*
X214741904Y-101164795D01*
X214741904Y-101164795D02*
X214246666Y-101164795D01*
X217020476Y-102732295D02*
X216563333Y-102732295D01*
X216791905Y-103532295D02*
X216791905Y-102732295D01*
X216296666Y-103532295D02*
X216296666Y-102732295D01*
X216296666Y-102732295D02*
X215991904Y-102732295D01*
X215991904Y-102732295D02*
X215915714Y-102770390D01*
X215915714Y-102770390D02*
X215877619Y-102808485D01*
X215877619Y-102808485D02*
X215839523Y-102884676D01*
X215839523Y-102884676D02*
X215839523Y-102998961D01*
X215839523Y-102998961D02*
X215877619Y-103075152D01*
X215877619Y-103075152D02*
X215915714Y-103113247D01*
X215915714Y-103113247D02*
X215991904Y-103151342D01*
X215991904Y-103151342D02*
X216296666Y-103151342D01*
X215077619Y-103532295D02*
X215534762Y-103532295D01*
X215306190Y-103532295D02*
X215306190Y-102732295D01*
X215306190Y-102732295D02*
X215382381Y-102846580D01*
X215382381Y-102846580D02*
X215458571Y-102922771D01*
X215458571Y-102922771D02*
X215534762Y-102960866D01*
X214391904Y-102998961D02*
X214391904Y-103532295D01*
X214582380Y-102694200D02*
X214772857Y-103265628D01*
X214772857Y-103265628D02*
X214277618Y-103265628D01*
D13*
%TO.C,TP7*%
X216400000Y-68200000D02*
G75*
G02*
X215000000Y-68200000I-700000J0D01*
G01*
X215000000Y-68200000D02*
G75*
G02*
X216400000Y-68200000I700000J0D01*
G01*
%TO.C,TP13*%
D14*
X199280000Y-105970000D02*
X197580000Y-105970000D01*
X197580000Y-107670000D01*
X199280000Y-107670000D01*
X199280000Y-105970000D01*
D13*
%TO.C,TP6*%
X199950000Y-79000000D02*
G75*
G02*
X198050000Y-79000000I-950000J0D01*
G01*
X198050000Y-79000000D02*
G75*
G02*
X199950000Y-79000000I950000J0D01*
G01*
%TO.C,TP3*%
D14*
X215900000Y-78500000D02*
X217700000Y-78500000D01*
X217700000Y-76700000D01*
X215900000Y-76700000D01*
X215900000Y-78500000D01*
D13*
%TO.C,TP15*%
X202720000Y-106820000D02*
G75*
G02*
X200820000Y-106820000I-950000J0D01*
G01*
X200820000Y-106820000D02*
G75*
G02*
X202720000Y-106820000I950000J0D01*
G01*
%TO.C,TP10*%
X218400000Y-70300000D02*
G75*
G02*
X217000000Y-70300000I-700000J0D01*
G01*
X217000000Y-70300000D02*
G75*
G02*
X218400000Y-70300000I700000J0D01*
G01*
%TO.C,TP9*%
X227771250Y-80400000D02*
G75*
G02*
X226371250Y-80400000I-700000J0D01*
G01*
X226371250Y-80400000D02*
G75*
G02*
X227771250Y-80400000I700000J0D01*
G01*
%TO.C,TP4*%
D14*
X231600000Y-97700000D02*
X229800000Y-97700000D01*
X229800000Y-99500000D01*
X231600000Y-99500000D01*
X231600000Y-97700000D01*
D13*
%TO.C,TP5*%
X228450000Y-98700000D02*
G75*
G02*
X226550000Y-98700000I-950000J0D01*
G01*
X226550000Y-98700000D02*
G75*
G02*
X228450000Y-98700000I950000J0D01*
G01*
%TO.C,TP1*%
X212092224Y-98847500D02*
G75*
G02*
X210192224Y-98847500I-950000J0D01*
G01*
X210192224Y-98847500D02*
G75*
G02*
X212092224Y-98847500I950000J0D01*
G01*
%TO.C,TP8*%
X220500000Y-72300000D02*
G75*
G02*
X219100000Y-72300000I-700000J0D01*
G01*
X219100000Y-72300000D02*
G75*
G02*
X220500000Y-72300000I700000J0D01*
G01*
%TO.C,TP11*%
X212800000Y-79200000D02*
G75*
G02*
X211400000Y-79200000I-700000J0D01*
G01*
X211400000Y-79200000D02*
G75*
G02*
X212800000Y-79200000I700000J0D01*
G01*
%TO.C,TP12*%
X227771250Y-76450000D02*
G75*
G02*
X226371250Y-76450000I-700000J0D01*
G01*
X226371250Y-76450000D02*
G75*
G02*
X227771250Y-76450000I700000J0D01*
G01*
%TO.C,TP2*%
D14*
X216080000Y-97902500D02*
X214280000Y-97902500D01*
X214280000Y-99702500D01*
X216080000Y-99702500D01*
X216080000Y-97902500D01*
D13*
%TO.C,TP14*%
X216600000Y-104400000D02*
G75*
G02*
X215200000Y-104400000I-700000J0D01*
G01*
X215200000Y-104400000D02*
G75*
G02*
X216600000Y-104400000I700000J0D01*
G01*
%TD*%
%LPC*%
D15*
%TO.C,H3*%
X194850000Y-110100000D03*
%TD*%
%TO.C,H1*%
X194900000Y-65200000D03*
%TD*%
D16*
%TO.C,J2*%
X199613250Y-84910000D03*
X199613250Y-90690000D03*
D17*
X200143250Y-83480000D03*
D18*
X195963250Y-83480000D03*
D17*
X200143250Y-92120000D03*
D18*
X195963250Y-92120000D03*
%TD*%
D19*
%TO.C,SW3*%
X239100000Y-104000000D03*
X239100000Y-101000000D03*
%TD*%
D15*
%TO.C,H2*%
X239800000Y-65200000D03*
%TD*%
D20*
%TO.C,TP7*%
X215700000Y-68200000D03*
%TD*%
D21*
%TO.C,TP13*%
X198430000Y-106820000D03*
%TD*%
D22*
%TO.C,TP6*%
X199000000Y-79000000D03*
%TD*%
D21*
%TO.C,TP3*%
X216800000Y-77600000D03*
%TD*%
D15*
%TO.C,H4*%
X239800000Y-110100000D03*
%TD*%
D22*
%TO.C,TP15*%
X201770000Y-106820000D03*
%TD*%
D20*
%TO.C,TP10*%
X217700000Y-70300000D03*
%TD*%
%TO.C,TP9*%
X227071250Y-80400000D03*
%TD*%
D21*
%TO.C,TP4*%
X230700000Y-98600000D03*
%TD*%
D22*
%TO.C,TP5*%
X227500000Y-98700000D03*
%TD*%
%TO.C,TP1*%
X211142224Y-98847500D03*
%TD*%
D20*
%TO.C,TP8*%
X219800000Y-72300000D03*
%TD*%
%TO.C,TP11*%
X212100000Y-79200000D03*
%TD*%
%TO.C,TP12*%
X227071250Y-76450000D03*
%TD*%
D21*
%TO.C,TP2*%
X215180000Y-98802500D03*
%TD*%
D20*
%TO.C,TP14*%
X215900000Y-104400000D03*
%TD*%
%LPD*%
M02*
