%TF.GenerationSoftware,KiCad,Pcbnew,9.0.4*%
%TF.CreationDate,2025-11-04T12:24:42+07:00*%
%TF.ProjectId,anchor,616e6368-6f72-42e6-9b69-6361645f7063,rev?*%
%TF.SameCoordinates,Original*%
%TF.FileFunction,Soldermask,Top*%
%TF.FilePolarity,Negative*%
%FSLAX46Y46*%
G04 Gerber Fmt 4.6, Leading zero omitted, Abs format (unit mm)*
G04 Created by KiCad (PCBNEW 9.0.4) date 2025-11-04 12:24:42*
%MOMM*%
%LPD*%
G01*
G04 APERTURE LIST*
G04 Aperture macros list*
%AMRoundRect*
0 Rectangle with rounded corners*
0 $1 Rounding radius*
0 $2 $3 $4 $5 $6 $7 $8 $9 X,Y pos of 4 corners*
0 Add a 4 corners polygon primitive as box body*
4,1,4,$2,$3,$4,$5,$6,$7,$8,$9,$2,$3,0*
0 Add four circle primitives for the rounded corners*
1,1,$1+$1,$2,$3*
1,1,$1+$1,$4,$5*
1,1,$1+$1,$6,$7*
1,1,$1+$1,$8,$9*
0 Add four rect primitives between the rounded corners*
20,1,$1+$1,$2,$3,$4,$5,0*
20,1,$1+$1,$4,$5,$6,$7,0*
20,1,$1+$1,$6,$7,$8,$9,0*
20,1,$1+$1,$8,$9,$2,$3,0*%
%AMFreePoly0*
4,1,6,0.850000,0.000000,0.450000,-0.500000,-0.450000,-0.500000,-0.450000,0.500000,0.450000,0.500000,0.850000,0.000000,0.850000,0.000000,$1*%
%AMFreePoly1*
4,1,7,0.450000,-0.500000,-0.650000,-0.500000,-0.200000,-0.050000,-0.200000,0.050000,-0.650000,0.500000,0.450000,0.500000,0.450000,-0.500000,0.450000,-0.500000,$1*%
G04 Aperture macros list end*
%ADD10C,0.010000*%
%ADD11RoundRect,0.102000X0.300000X0.775000X-0.300000X0.775000X-0.300000X-0.775000X0.300000X-0.775000X0*%
%ADD12RoundRect,0.102000X0.600000X0.900000X-0.600000X0.900000X-0.600000X-0.900000X0.600000X-0.900000X0*%
%ADD13RoundRect,0.237500X-0.300000X-0.237500X0.300000X-0.237500X0.300000X0.237500X-0.300000X0.237500X0*%
%ADD14RoundRect,0.237500X0.250000X0.237500X-0.250000X0.237500X-0.250000X-0.237500X0.250000X-0.237500X0*%
%ADD15RoundRect,0.250000X0.337500X0.475000X-0.337500X0.475000X-0.337500X-0.475000X0.337500X-0.475000X0*%
%ADD16RoundRect,0.237500X-0.237500X0.300000X-0.237500X-0.300000X0.237500X-0.300000X0.237500X0.300000X0*%
%ADD17C,2.200000*%
%ADD18RoundRect,0.237500X0.237500X-0.287500X0.237500X0.287500X-0.237500X0.287500X-0.237500X-0.287500X0*%
%ADD19RoundRect,0.250000X-0.337500X-0.475000X0.337500X-0.475000X0.337500X0.475000X-0.337500X0.475000X0*%
%ADD20RoundRect,0.102000X-0.775000X0.300000X-0.775000X-0.300000X0.775000X-0.300000X0.775000X0.300000X0*%
%ADD21RoundRect,0.102000X-0.900000X0.600000X-0.900000X-0.600000X0.900000X-0.600000X0.900000X0.600000X0*%
%ADD22RoundRect,0.237500X-0.287500X-0.237500X0.287500X-0.237500X0.287500X0.237500X-0.287500X0.237500X0*%
%ADD23RoundRect,0.250000X0.475000X-0.337500X0.475000X0.337500X-0.475000X0.337500X-0.475000X-0.337500X0*%
%ADD24RoundRect,0.237500X0.237500X-0.300000X0.237500X0.300000X-0.237500X0.300000X-0.237500X-0.300000X0*%
%ADD25RoundRect,0.237500X-0.237500X0.250000X-0.237500X-0.250000X0.237500X-0.250000X0.237500X0.250000X0*%
%ADD26RoundRect,0.237500X0.300000X0.237500X-0.300000X0.237500X-0.300000X-0.237500X0.300000X-0.237500X0*%
%ADD27RoundRect,0.250000X0.350000X0.450000X-0.350000X0.450000X-0.350000X-0.450000X0.350000X-0.450000X0*%
%ADD28RoundRect,0.237500X0.237500X-0.250000X0.237500X0.250000X-0.237500X0.250000X-0.237500X-0.250000X0*%
%ADD29R,2.450000X1.000000*%
%ADD30R,1.000000X2.450000*%
%ADD31RoundRect,0.250000X0.350000X-0.450000X0.350000X0.450000X-0.350000X0.450000X-0.350000X-0.450000X0*%
%ADD32RoundRect,0.350000X0.550000X0.350000X-0.550000X0.350000X-0.550000X-0.350000X0.550000X-0.350000X0*%
%ADD33C,0.650000*%
%ADD34R,1.450000X0.600000*%
%ADD35R,1.450000X0.300000*%
%ADD36O,2.100000X1.000000*%
%ADD37O,1.600000X1.000000*%
%ADD38RoundRect,0.190000X-1.135000X-0.190000X1.135000X-0.190000X1.135000X0.190000X-1.135000X0.190000X0*%
%ADD39RoundRect,0.237500X0.287500X0.237500X-0.287500X0.237500X-0.287500X-0.237500X0.287500X-0.237500X0*%
%ADD40RoundRect,0.062500X0.375000X0.062500X-0.375000X0.062500X-0.375000X-0.062500X0.375000X-0.062500X0*%
%ADD41RoundRect,0.062500X0.062500X0.375000X-0.062500X0.375000X-0.062500X-0.375000X0.062500X-0.375000X0*%
%ADD42R,5.600000X5.600000*%
%ADD43RoundRect,0.237500X-0.250000X-0.237500X0.250000X-0.237500X0.250000X0.237500X-0.250000X0.237500X0*%
%ADD44R,0.600000X1.800000*%
%ADD45R,1.800000X0.600000*%
%ADD46RoundRect,0.112500X0.187500X0.112500X-0.187500X0.112500X-0.187500X-0.112500X0.187500X-0.112500X0*%
%ADD47RoundRect,0.250000X-0.475000X0.337500X-0.475000X-0.337500X0.475000X-0.337500X0.475000X0.337500X0*%
%ADD48R,0.800000X1.000000*%
%ADD49C,0.900000*%
%ADD50R,1.500000X0.700000*%
%ADD51RoundRect,0.102000X-0.300000X-0.775000X0.300000X-0.775000X0.300000X0.775000X-0.300000X0.775000X0*%
%ADD52RoundRect,0.102000X-0.600000X-0.900000X0.600000X-0.900000X0.600000X0.900000X-0.600000X0.900000X0*%
%ADD53RoundRect,0.350000X-0.550000X-0.350000X0.550000X-0.350000X0.550000X0.350000X-0.550000X0.350000X0*%
%ADD54RoundRect,0.062500X-0.375000X-0.062500X0.375000X-0.062500X0.375000X0.062500X-0.375000X0.062500X0*%
%ADD55RoundRect,0.062500X-0.062500X-0.375000X0.062500X-0.375000X0.062500X0.375000X-0.062500X0.375000X0*%
%ADD56R,1.600000X1.600000*%
%ADD57RoundRect,0.250000X0.625000X-0.375000X0.625000X0.375000X-0.625000X0.375000X-0.625000X-0.375000X0*%
%ADD58RoundRect,0.150000X-0.512500X-0.150000X0.512500X-0.150000X0.512500X0.150000X-0.512500X0.150000X0*%
%ADD59RoundRect,0.250000X-0.350000X-0.450000X0.350000X-0.450000X0.350000X0.450000X-0.350000X0.450000X0*%
%ADD60FreePoly0,0.000000*%
%ADD61FreePoly1,0.000000*%
%ADD62RoundRect,0.250000X0.300000X1.600000X-0.300000X1.600000X-0.300000X-1.600000X0.300000X-1.600000X0*%
G04 APERTURE END LIST*
D10*
%TO.C,U2*%
X223450000Y-104850000D02*
X222750000Y-104850000D01*
X222750000Y-104500000D01*
X223450000Y-104500000D01*
X223450000Y-104850000D01*
G36*
X223450000Y-104850000D02*
G01*
X222750000Y-104850000D01*
X222750000Y-104500000D01*
X223450000Y-104500000D01*
X223450000Y-104850000D01*
G37*
X223450000Y-105350000D02*
X222750000Y-105350000D01*
X222750000Y-105000000D01*
X223450000Y-105000000D01*
X223450000Y-105350000D01*
G36*
X223450000Y-105350000D02*
G01*
X222750000Y-105350000D01*
X222750000Y-105000000D01*
X223450000Y-105000000D01*
X223450000Y-105350000D01*
G37*
X223925000Y-105950000D02*
X223575000Y-105950000D01*
X223575000Y-105250000D01*
X223925000Y-105250000D01*
X223925000Y-105950000D01*
G36*
X223925000Y-105950000D02*
G01*
X223575000Y-105950000D01*
X223575000Y-105250000D01*
X223925000Y-105250000D01*
X223925000Y-105950000D01*
G37*
X224125000Y-104350000D02*
X223875000Y-104350000D01*
X223875000Y-103000000D01*
X224125000Y-103000000D01*
X224125000Y-104350000D01*
G36*
X224125000Y-104350000D02*
G01*
X223875000Y-104350000D01*
X223875000Y-103000000D01*
X224125000Y-103000000D01*
X224125000Y-104350000D01*
G37*
X224425000Y-105950000D02*
X224075000Y-105950000D01*
X224075000Y-105250000D01*
X224425000Y-105250000D01*
X224425000Y-105950000D01*
G36*
X224425000Y-105950000D02*
G01*
X224075000Y-105950000D01*
X224075000Y-105250000D01*
X224425000Y-105250000D01*
X224425000Y-105950000D01*
G37*
X224625000Y-104700000D02*
X224375000Y-104700000D01*
X224375000Y-103000000D01*
X224625000Y-103000000D01*
X224625000Y-104700000D01*
G36*
X224625000Y-104700000D02*
G01*
X224375000Y-104700000D01*
X224375000Y-103000000D01*
X224625000Y-103000000D01*
X224625000Y-104700000D01*
G37*
X224925000Y-105950000D02*
X224575000Y-105950000D01*
X224575000Y-105250000D01*
X224925000Y-105250000D01*
X224925000Y-105950000D01*
G36*
X224925000Y-105950000D02*
G01*
X224575000Y-105950000D01*
X224575000Y-105250000D01*
X224925000Y-105250000D01*
X224925000Y-105950000D01*
G37*
X225125000Y-104350000D02*
X224875000Y-104350000D01*
X224875000Y-103000000D01*
X225125000Y-103000000D01*
X225125000Y-104350000D01*
G36*
X225125000Y-104350000D02*
G01*
X224875000Y-104350000D01*
X224875000Y-103000000D01*
X225125000Y-103000000D01*
X225125000Y-104350000D01*
G37*
X225425000Y-105950000D02*
X225075000Y-105950000D01*
X225075000Y-105250000D01*
X225425000Y-105250000D01*
X225425000Y-105950000D01*
G36*
X225425000Y-105950000D02*
G01*
X225075000Y-105950000D01*
X225075000Y-105250000D01*
X225425000Y-105250000D01*
X225425000Y-105950000D01*
G37*
X226250000Y-104850000D02*
X225550000Y-104850000D01*
X225550000Y-104500000D01*
X226250000Y-104500000D01*
X226250000Y-104850000D01*
G36*
X226250000Y-104850000D02*
G01*
X225550000Y-104850000D01*
X225550000Y-104500000D01*
X226250000Y-104500000D01*
X226250000Y-104850000D01*
G37*
X226250000Y-105350000D02*
X225550000Y-105350000D01*
X225550000Y-105000000D01*
X226250000Y-105000000D01*
X226250000Y-105350000D01*
G36*
X226250000Y-105350000D02*
G01*
X225550000Y-105350000D01*
X225550000Y-105000000D01*
X226250000Y-105000000D01*
X226250000Y-105350000D01*
G37*
X223400000Y-104300000D02*
X222800000Y-104300000D01*
X222800000Y-104050000D01*
X223150000Y-104050000D01*
X223150000Y-103800000D01*
X222800000Y-103800000D01*
X222800000Y-103550000D01*
X223400000Y-103550000D01*
X223400000Y-104300000D01*
G36*
X223400000Y-104300000D02*
G01*
X222800000Y-104300000D01*
X222800000Y-104050000D01*
X223150000Y-104050000D01*
X223150000Y-103800000D01*
X222800000Y-103800000D01*
X222800000Y-103550000D01*
X223400000Y-103550000D01*
X223400000Y-104300000D01*
G37*
X226200000Y-103800000D02*
X225850000Y-103800000D01*
X225850000Y-104050000D01*
X226200000Y-104050000D01*
X226200000Y-104300000D01*
X225600000Y-104300000D01*
X225600000Y-103550000D01*
X226200000Y-103550000D01*
X226200000Y-103800000D01*
G36*
X226200000Y-103800000D02*
G01*
X225850000Y-103800000D01*
X225850000Y-104050000D01*
X226200000Y-104050000D01*
X226200000Y-104300000D01*
X225600000Y-104300000D01*
X225600000Y-103550000D01*
X226200000Y-103550000D01*
X226200000Y-103800000D01*
G37*
%TO.C,SB2*%
G36*
X205400000Y-96980000D02*
G01*
X207800000Y-96980000D01*
X207800000Y-97980000D01*
X205400000Y-97980000D01*
X205400000Y-96980000D01*
G37*
%TO.C,SB1*%
G36*
X203462500Y-108230000D02*
G01*
X205862500Y-108230000D01*
X205862500Y-109230000D01*
X203462500Y-109230000D01*
X203462500Y-108230000D01*
G37*
%TD*%
D11*
%TO.C,J5*%
X200610000Y-107395000D03*
X199610000Y-107395000D03*
D12*
X201910000Y-109920000D03*
X198310000Y-109920000D03*
%TD*%
D13*
%TO.C,C8*%
X229730000Y-109831250D03*
X231455000Y-109831250D03*
%TD*%
D14*
%TO.C,R18*%
X211800000Y-95250000D03*
X209975000Y-95250000D03*
%TD*%
D15*
%TO.C,C13*%
X222575000Y-94850000D03*
X220500000Y-94850000D03*
%TD*%
D16*
%TO.C,C15*%
X224121250Y-90575000D03*
X224121250Y-92300000D03*
%TD*%
D17*
%TO.C,H3*%
X194850000Y-110100000D03*
%TD*%
D18*
%TO.C,FB1*%
X226571250Y-80750000D03*
X226571250Y-79000000D03*
%TD*%
D19*
%TO.C,C12*%
X229785000Y-94000000D03*
X231860000Y-94000000D03*
%TD*%
D20*
%TO.C,J4*%
X236975000Y-89500000D03*
X236975000Y-90500000D03*
X236975000Y-91500000D03*
X236975000Y-92500000D03*
X236975000Y-93500000D03*
D21*
X239500000Y-88200000D03*
X239500000Y-94800000D03*
%TD*%
D22*
%TO.C,D5*%
X207037500Y-79700000D03*
X208787500Y-79700000D03*
%TD*%
D23*
%TO.C,C23*%
X235400000Y-69837500D03*
X235400000Y-67762500D03*
%TD*%
D24*
%TO.C,C22*%
X237600000Y-69762500D03*
X237600000Y-68037500D03*
%TD*%
D25*
%TO.C,R9*%
X205000000Y-102075000D03*
X205000000Y-103900000D03*
%TD*%
D26*
%TO.C,C17*%
X214862500Y-81250000D03*
X213137500Y-81250000D03*
%TD*%
D27*
%TO.C,R12*%
X231792500Y-104831250D03*
X229792500Y-104831250D03*
%TD*%
D28*
%TO.C,R5*%
X206500000Y-103900000D03*
X206500000Y-102075000D03*
%TD*%
D19*
%TO.C,C11*%
X229785000Y-99430625D03*
X231860000Y-99430625D03*
%TD*%
D14*
%TO.C,R22*%
X208825000Y-78210000D03*
X207000000Y-78210000D03*
%TD*%
D24*
%TO.C,CY2*%
X229721250Y-86900000D03*
X229721250Y-85175000D03*
%TD*%
D29*
%TO.C,DWM1*%
X199200000Y-63601200D03*
X199200000Y-65001200D03*
X199200000Y-66401200D03*
X199200000Y-67801200D03*
X199200000Y-69201200D03*
X199200000Y-70601200D03*
X199200000Y-72001200D03*
X199200000Y-73401200D03*
D30*
X200600000Y-75696200D03*
X202000000Y-75696200D03*
X203400000Y-75696200D03*
X204800000Y-75696200D03*
X206200000Y-75696200D03*
X207600000Y-75696200D03*
X209000000Y-75696200D03*
X210400000Y-75696200D03*
D29*
X211800000Y-73400000D03*
X211800000Y-72000000D03*
X211800000Y-70601200D03*
X211800000Y-69201200D03*
X211800000Y-67801200D03*
X211800000Y-66401200D03*
X211800000Y-65001200D03*
X211800000Y-63601200D03*
%TD*%
D24*
%TO.C,CY1*%
X229721250Y-90225000D03*
X229721250Y-88500000D03*
%TD*%
D31*
%TO.C,Y1*%
X228071250Y-88850000D03*
X228071250Y-86650000D03*
X226371250Y-86650000D03*
X226371250Y-88850000D03*
%TD*%
D23*
%TO.C,C1*%
X219220000Y-103682500D03*
X219220000Y-101607500D03*
%TD*%
D14*
%TO.C,R11*%
X211825000Y-100836667D03*
X210000000Y-100836667D03*
%TD*%
D32*
%TO.C,SW4*%
X226450000Y-66500000D03*
X221750000Y-66500000D03*
%TD*%
D14*
%TO.C,R17*%
X211800000Y-93750000D03*
X209975000Y-93750000D03*
%TD*%
D17*
%TO.C,H1*%
X194900000Y-65200000D03*
%TD*%
D26*
%TO.C,C25*%
X196100000Y-69300000D03*
X194375000Y-69300000D03*
%TD*%
D33*
%TO.C,J2*%
X199613250Y-84910000D03*
X199613250Y-90690000D03*
D34*
X201058250Y-84550000D03*
X201058250Y-85350000D03*
D35*
X201058250Y-86550000D03*
X201058250Y-87550000D03*
X201058250Y-88050000D03*
X201058250Y-89050000D03*
D34*
X201058250Y-90250000D03*
X201058250Y-91050000D03*
X201058250Y-91050000D03*
X201058250Y-90250000D03*
D35*
X201058250Y-89550000D03*
X201058250Y-88550000D03*
X201058250Y-87050000D03*
X201058250Y-86050000D03*
D34*
X201058250Y-85350000D03*
X201058250Y-84550000D03*
D36*
X200143250Y-83480000D03*
D37*
X195963250Y-83480000D03*
D36*
X200143250Y-92120000D03*
D37*
X195963250Y-92120000D03*
%TD*%
D38*
%TO.C,SW1*%
X195225000Y-101730000D03*
X195225000Y-103000000D03*
X195225000Y-104270000D03*
X200475000Y-104270000D03*
X200475000Y-103000000D03*
X200475000Y-101730000D03*
%TD*%
D39*
%TO.C,D6*%
X204075000Y-79700000D03*
X202325000Y-79700000D03*
%TD*%
%TO.C,D4*%
X215875000Y-97500000D03*
X214125000Y-97500000D03*
%TD*%
D26*
%TO.C,C19*%
X222400000Y-92400000D03*
X220675000Y-92400000D03*
%TD*%
D40*
%TO.C,U4*%
X222131500Y-89750000D03*
X222131500Y-89250000D03*
X222131500Y-88750000D03*
X222131500Y-88250000D03*
X222131500Y-87750000D03*
X222131500Y-87250000D03*
X222131500Y-86750000D03*
X222131500Y-86250000D03*
X222131500Y-85750000D03*
X222131500Y-85250000D03*
X222131500Y-84750000D03*
X222131500Y-84250000D03*
D41*
X221444000Y-83562500D03*
X220944000Y-83562500D03*
X220444000Y-83562500D03*
X219944000Y-83562500D03*
X219444000Y-83562500D03*
X218944000Y-83562500D03*
X218444000Y-83562500D03*
X217944000Y-83562500D03*
X217444000Y-83562500D03*
X216944000Y-83562500D03*
X216444000Y-83562500D03*
X215944000Y-83562500D03*
D40*
X215256500Y-84250000D03*
X215256500Y-84750000D03*
X215256500Y-85250000D03*
X215256500Y-85750000D03*
X215256500Y-86250000D03*
X215256500Y-86750000D03*
X215256500Y-87250000D03*
X215256500Y-87750000D03*
X215256500Y-88250000D03*
X215256500Y-88750000D03*
X215256500Y-89250000D03*
X215256500Y-89750000D03*
D41*
X215944000Y-90437500D03*
X216444000Y-90437500D03*
X216944000Y-90437500D03*
X217444000Y-90437500D03*
X217944000Y-90437500D03*
X218444000Y-90437500D03*
X218944000Y-90437500D03*
X219444000Y-90437500D03*
X219944000Y-90437500D03*
X220444000Y-90437500D03*
X220944000Y-90437500D03*
X221444000Y-90437500D03*
D42*
X218694000Y-87000000D03*
%TD*%
D39*
%TO.C,D3*%
X215875000Y-100833333D03*
X214125000Y-100833333D03*
%TD*%
D19*
%TO.C,C9*%
X229785000Y-102145938D03*
X231860000Y-102145938D03*
%TD*%
D43*
%TO.C,R20*%
X222496250Y-76550000D03*
X224321250Y-76550000D03*
%TD*%
D44*
%TO.C,U6*%
X239150000Y-72100000D03*
X238050000Y-72100000D03*
X236950000Y-72100000D03*
X235850000Y-72100000D03*
X234750000Y-72100000D03*
X233650000Y-72100000D03*
X232550000Y-72100000D03*
X231450000Y-72100000D03*
D45*
X230600000Y-75000000D03*
X230600000Y-76100000D03*
D44*
X231450000Y-82100000D03*
X232550000Y-82100000D03*
X233650000Y-82100000D03*
X234750000Y-82100000D03*
X235850000Y-82100000D03*
X236950000Y-82100000D03*
X238050000Y-82100000D03*
X239150000Y-82100000D03*
X240250000Y-82100000D03*
X241350000Y-82100000D03*
%TD*%
D43*
%TO.C,R15*%
X222496250Y-75017005D03*
X224321250Y-75017005D03*
%TD*%
D13*
%TO.C,C14*%
X225358750Y-84600000D03*
X227083750Y-84600000D03*
%TD*%
D28*
%TO.C,R1*%
X222800000Y-110542500D03*
X222800000Y-108717500D03*
%TD*%
D46*
%TO.C,D7*%
X207650000Y-91000000D03*
X205550000Y-91000000D03*
%TD*%
D47*
%TO.C,C7*%
X213534273Y-108362500D03*
X213534273Y-110437500D03*
%TD*%
D13*
%TO.C,C20*%
X225358750Y-83100000D03*
X227083750Y-83100000D03*
%TD*%
D43*
%TO.C,R10*%
X209975000Y-102500000D03*
X211800000Y-102500000D03*
%TD*%
D48*
%TO.C,SW3*%
X237990000Y-106150000D03*
X240200000Y-106150000D03*
D49*
X239100000Y-104000000D03*
X239100000Y-101000000D03*
D48*
X237990000Y-98850000D03*
X240200000Y-98850000D03*
D50*
X237340000Y-104750000D03*
X237340000Y-101750000D03*
X237340000Y-100250000D03*
%TD*%
D17*
%TO.C,H2*%
X239800000Y-65200000D03*
%TD*%
D23*
%TO.C,C21*%
X224821250Y-80912500D03*
X224821250Y-78837500D03*
%TD*%
D47*
%TO.C,C3*%
X219878091Y-108362500D03*
X219878091Y-110437500D03*
%TD*%
D28*
%TO.C,R19*%
X235000000Y-101675000D03*
X235000000Y-99850000D03*
%TD*%
D23*
%TO.C,C18*%
X216789000Y-81150000D03*
X216789000Y-79075000D03*
%TD*%
D14*
%TO.C,R16*%
X211800000Y-92250000D03*
X209975000Y-92250000D03*
%TD*%
D39*
%TO.C,D1*%
X215875000Y-99166667D03*
X214125000Y-99166667D03*
%TD*%
D51*
%TO.C,J3*%
X196400000Y-98225000D03*
X197400000Y-98225000D03*
X198400000Y-98225000D03*
X199400000Y-98225000D03*
D52*
X195100000Y-95700000D03*
X200700000Y-95700000D03*
%TD*%
D14*
%TO.C,R4*%
X220882500Y-106050000D03*
X219057500Y-106050000D03*
%TD*%
D15*
%TO.C,C26*%
X196337500Y-74000000D03*
X194262500Y-74000000D03*
%TD*%
D28*
%TO.C,R8*%
X203313250Y-84300000D03*
X203313250Y-82475000D03*
%TD*%
D14*
%TO.C,R3*%
X211812500Y-99173333D03*
X209987500Y-99173333D03*
%TD*%
D43*
%TO.C,R23*%
X202287500Y-78210000D03*
X204112500Y-78210000D03*
%TD*%
D14*
%TO.C,R21*%
X211800000Y-97510000D03*
X209975000Y-97510000D03*
%TD*%
D15*
%TO.C,C5*%
X214025000Y-104325000D03*
X211950000Y-104325000D03*
%TD*%
D53*
%TO.C,SW2*%
X221750000Y-71600000D03*
X226450000Y-71600000D03*
%TD*%
D24*
%TO.C,C16*%
X213400000Y-91362500D03*
X213400000Y-89637500D03*
%TD*%
D43*
%TO.C,R24*%
X210487500Y-83700000D03*
X212312500Y-83700000D03*
%TD*%
D54*
%TO.C,U1*%
X207762500Y-106050000D03*
X207762500Y-106550000D03*
X207762500Y-107050000D03*
X207762500Y-107550000D03*
D55*
X208450000Y-108237500D03*
X208950000Y-108237500D03*
X209450000Y-108237500D03*
X209950000Y-108237500D03*
D54*
X210637500Y-107550000D03*
X210637500Y-107050000D03*
X210637500Y-106550000D03*
X210637500Y-106050000D03*
D55*
X209950000Y-105362500D03*
X209450000Y-105362500D03*
X208950000Y-105362500D03*
X208450000Y-105362500D03*
D56*
X209200000Y-106800000D03*
%TD*%
D43*
%TO.C,R2*%
X213050000Y-106050000D03*
X214875000Y-106050000D03*
%TD*%
D26*
%TO.C,C24*%
X196100000Y-71300000D03*
X194375000Y-71300000D03*
%TD*%
D57*
%TO.C,F1*%
X196300000Y-79800000D03*
X196300000Y-77000000D03*
%TD*%
D58*
%TO.C,U3*%
X205625000Y-86900000D03*
X205625000Y-87850000D03*
X205625000Y-88800000D03*
X207900000Y-88800000D03*
X207900000Y-87850000D03*
X207900000Y-86900000D03*
%TD*%
D25*
%TO.C,R7*%
X203313250Y-91887500D03*
X203313250Y-93712500D03*
%TD*%
%TO.C,R14*%
X225700000Y-108717500D03*
X225700000Y-110542500D03*
%TD*%
D59*
%TO.C,R13*%
X229792500Y-107531250D03*
X231792500Y-107531250D03*
%TD*%
D60*
%TO.C,SB2*%
X205850000Y-97480000D03*
D61*
X207350000Y-97480000D03*
%TD*%
D47*
%TO.C,C2*%
X216706182Y-108362500D03*
X216706182Y-110437500D03*
%TD*%
D62*
%TO.C,L1*%
X226009200Y-100000000D03*
X223009200Y-100000000D03*
%TD*%
D60*
%TO.C,SB1*%
X203912500Y-108730000D03*
D61*
X205412500Y-108730000D03*
%TD*%
D19*
%TO.C,C10*%
X229785000Y-96715313D03*
X231860000Y-96715313D03*
%TD*%
D15*
%TO.C,C6*%
X205700000Y-106780000D03*
X203625000Y-106780000D03*
%TD*%
D24*
%TO.C,C4*%
X221120000Y-103737500D03*
X221120000Y-102012500D03*
%TD*%
D39*
%TO.C,D2*%
X215850000Y-102500000D03*
X214100000Y-102500000D03*
%TD*%
D17*
%TO.C,H4*%
X239800000Y-110100000D03*
%TD*%
M02*
