%TF.GenerationSoftware,KiCad,Pcbnew,9.0.4*%
%TF.CreationDate,2025-11-12T13:02:08+07:00*%
%TF.ProjectId,anchor,616e6368-6f72-42e6-9b69-6361645f7063,rev?*%
%TF.SameCoordinates,Original*%
%TF.FileFunction,Legend,Top*%
%TF.FilePolarity,Positive*%
%FSLAX46Y46*%
G04 Gerber Fmt 4.6, Leading zero omitted, Abs format (unit mm)*
G04 Created by KiCad (PCBNEW 9.0.4) date 2025-11-12 13:02:08*
%MOMM*%
%LPD*%
G01*
G04 APERTURE LIST*
G04 Aperture macros list*
%AMRoundRect*
0 Rectangle with rounded corners*
0 $1 Rounding radius*
0 $2 $3 $4 $5 $6 $7 $8 $9 X,Y pos of 4 corners*
0 Add a 4 corners polygon primitive as box body*
4,1,4,$2,$3,$4,$5,$6,$7,$8,$9,$2,$3,0*
0 Add four circle primitives for the rounded corners*
1,1,$1+$1,$2,$3*
1,1,$1+$1,$4,$5*
1,1,$1+$1,$6,$7*
1,1,$1+$1,$8,$9*
0 Add four rect primitives between the rounded corners*
20,1,$1+$1,$2,$3,$4,$5,0*
20,1,$1+$1,$4,$5,$6,$7,0*
20,1,$1+$1,$6,$7,$8,$9,0*
20,1,$1+$1,$8,$9,$2,$3,0*%
G04 Aperture macros list end*
%ADD10C,0.150000*%
%ADD11C,0.100000*%
%ADD12C,0.127000*%
%ADD13C,0.200000*%
%ADD14C,0.120000*%
%ADD15C,0.000000*%
%ADD16C,0.010000*%
%ADD17RoundRect,0.102000X0.300000X0.775000X-0.300000X0.775000X-0.300000X-0.775000X0.300000X-0.775000X0*%
%ADD18RoundRect,0.102000X0.600000X0.900000X-0.600000X0.900000X-0.600000X-0.900000X0.600000X-0.900000X0*%
%ADD19RoundRect,0.237500X-0.237500X0.300000X-0.237500X-0.300000X0.237500X-0.300000X0.237500X0.300000X0*%
%ADD20RoundRect,0.237500X0.250000X0.237500X-0.250000X0.237500X-0.250000X-0.237500X0.250000X-0.237500X0*%
%ADD21RoundRect,0.250000X0.337500X0.475000X-0.337500X0.475000X-0.337500X-0.475000X0.337500X-0.475000X0*%
%ADD22C,2.200000*%
%ADD23RoundRect,0.237500X0.237500X-0.287500X0.237500X0.287500X-0.237500X0.287500X-0.237500X-0.287500X0*%
%ADD24RoundRect,0.250000X-0.337500X-0.475000X0.337500X-0.475000X0.337500X0.475000X-0.337500X0.475000X0*%
%ADD25RoundRect,0.102000X-0.775000X0.300000X-0.775000X-0.300000X0.775000X-0.300000X0.775000X0.300000X0*%
%ADD26RoundRect,0.102000X-0.900000X0.600000X-0.900000X-0.600000X0.900000X-0.600000X0.900000X0.600000X0*%
%ADD27RoundRect,0.237500X-0.287500X-0.237500X0.287500X-0.237500X0.287500X0.237500X-0.287500X0.237500X0*%
%ADD28RoundRect,0.250000X0.475000X-0.337500X0.475000X0.337500X-0.475000X0.337500X-0.475000X-0.337500X0*%
%ADD29RoundRect,0.237500X0.237500X-0.300000X0.237500X0.300000X-0.237500X0.300000X-0.237500X-0.300000X0*%
%ADD30RoundRect,0.237500X-0.237500X0.250000X-0.237500X-0.250000X0.237500X-0.250000X0.237500X0.250000X0*%
%ADD31R,1.500000X1.500000*%
%ADD32RoundRect,0.237500X0.300000X0.237500X-0.300000X0.237500X-0.300000X-0.237500X0.300000X-0.237500X0*%
%ADD33RoundRect,0.250000X0.350000X0.450000X-0.350000X0.450000X-0.350000X-0.450000X0.350000X-0.450000X0*%
%ADD34RoundRect,0.237500X0.237500X-0.250000X0.237500X0.250000X-0.237500X0.250000X-0.237500X-0.250000X0*%
%ADD35R,2.450000X1.000000*%
%ADD36R,1.000000X2.450000*%
%ADD37C,1.500000*%
%ADD38RoundRect,0.250000X0.350000X-0.450000X0.350000X0.450000X-0.350000X0.450000X-0.350000X-0.450000X0*%
%ADD39C,0.650000*%
%ADD40R,1.450000X0.600000*%
%ADD41R,1.450000X0.300000*%
%ADD42O,2.100000X1.000000*%
%ADD43O,1.600000X1.000000*%
%ADD44RoundRect,0.190000X-1.135000X-0.190000X1.135000X-0.190000X1.135000X0.190000X-1.135000X0.190000X0*%
%ADD45RoundRect,0.237500X0.287500X0.237500X-0.287500X0.237500X-0.287500X-0.237500X0.287500X-0.237500X0*%
%ADD46RoundRect,0.062500X0.375000X0.062500X-0.375000X0.062500X-0.375000X-0.062500X0.375000X-0.062500X0*%
%ADD47RoundRect,0.062500X0.062500X0.375000X-0.062500X0.375000X-0.062500X-0.375000X0.062500X-0.375000X0*%
%ADD48R,5.600000X5.600000*%
%ADD49RoundRect,0.237500X-0.250000X-0.237500X0.250000X-0.237500X0.250000X0.237500X-0.250000X0.237500X0*%
%ADD50R,0.600000X1.800000*%
%ADD51R,1.800000X0.600000*%
%ADD52RoundRect,0.237500X-0.300000X-0.237500X0.300000X-0.237500X0.300000X0.237500X-0.300000X0.237500X0*%
%ADD53RoundRect,0.112500X0.187500X0.112500X-0.187500X0.112500X-0.187500X-0.112500X0.187500X-0.112500X0*%
%ADD54RoundRect,0.250000X-0.475000X0.337500X-0.475000X-0.337500X0.475000X-0.337500X0.475000X0.337500X0*%
%ADD55R,0.800000X1.000000*%
%ADD56C,0.900000*%
%ADD57R,1.500000X0.700000*%
%ADD58RoundRect,0.102000X-0.300000X-0.775000X0.300000X-0.775000X0.300000X0.775000X-0.300000X0.775000X0*%
%ADD59RoundRect,0.102000X-0.600000X-0.900000X0.600000X-0.900000X0.600000X0.900000X-0.600000X0.900000X0*%
%ADD60RoundRect,0.350000X-0.550000X-0.350000X0.550000X-0.350000X0.550000X0.350000X-0.550000X0.350000X0*%
%ADD61RoundRect,0.062500X-0.375000X-0.062500X0.375000X-0.062500X0.375000X0.062500X-0.375000X0.062500X0*%
%ADD62RoundRect,0.062500X-0.062500X-0.375000X0.062500X-0.375000X0.062500X0.375000X-0.062500X0.375000X0*%
%ADD63R,1.600000X1.600000*%
%ADD64RoundRect,0.250000X0.625000X-0.375000X0.625000X0.375000X-0.625000X0.375000X-0.625000X-0.375000X0*%
%ADD65RoundRect,0.150000X-0.512500X-0.150000X0.512500X-0.150000X0.512500X0.150000X-0.512500X0.150000X0*%
%ADD66RoundRect,0.250000X-0.350000X-0.450000X0.350000X-0.450000X0.350000X0.450000X-0.350000X0.450000X0*%
%ADD67RoundRect,0.250000X0.300000X1.600000X-0.300000X1.600000X-0.300000X-1.600000X0.300000X-1.600000X0*%
%ADD68RoundRect,0.350000X0.550000X0.350000X-0.550000X0.350000X-0.550000X-0.350000X0.550000X-0.350000X0*%
G04 APERTURE END LIST*
D10*
X197450839Y-111620466D02*
X196841316Y-111620466D01*
D11*
X193817217Y-93858609D02*
X194126741Y-93858609D01*
X194126741Y-93858609D02*
X193960074Y-94049085D01*
X193960074Y-94049085D02*
X194031503Y-94049085D01*
X194031503Y-94049085D02*
X194079122Y-94072895D01*
X194079122Y-94072895D02*
X194102931Y-94096704D01*
X194102931Y-94096704D02*
X194126741Y-94144323D01*
X194126741Y-94144323D02*
X194126741Y-94263371D01*
X194126741Y-94263371D02*
X194102931Y-94310990D01*
X194102931Y-94310990D02*
X194079122Y-94334800D01*
X194079122Y-94334800D02*
X194031503Y-94358609D01*
X194031503Y-94358609D02*
X193888646Y-94358609D01*
X193888646Y-94358609D02*
X193841027Y-94334800D01*
X193841027Y-94334800D02*
X193817217Y-94310990D01*
X194269598Y-93858609D02*
X194436264Y-94358609D01*
X194436264Y-94358609D02*
X194602931Y-93858609D01*
X194721978Y-93858609D02*
X195031502Y-93858609D01*
X195031502Y-93858609D02*
X194864835Y-94049085D01*
X194864835Y-94049085D02*
X194936264Y-94049085D01*
X194936264Y-94049085D02*
X194983883Y-94072895D01*
X194983883Y-94072895D02*
X195007692Y-94096704D01*
X195007692Y-94096704D02*
X195031502Y-94144323D01*
X195031502Y-94144323D02*
X195031502Y-94263371D01*
X195031502Y-94263371D02*
X195007692Y-94310990D01*
X195007692Y-94310990D02*
X194983883Y-94334800D01*
X194983883Y-94334800D02*
X194936264Y-94358609D01*
X194936264Y-94358609D02*
X194793407Y-94358609D01*
X194793407Y-94358609D02*
X194745788Y-94334800D01*
X194745788Y-94334800D02*
X194721978Y-94310990D01*
X195602930Y-94334800D02*
X195674358Y-94358609D01*
X195674358Y-94358609D02*
X195793406Y-94358609D01*
X195793406Y-94358609D02*
X195841025Y-94334800D01*
X195841025Y-94334800D02*
X195864834Y-94310990D01*
X195864834Y-94310990D02*
X195888644Y-94263371D01*
X195888644Y-94263371D02*
X195888644Y-94215752D01*
X195888644Y-94215752D02*
X195864834Y-94168133D01*
X195864834Y-94168133D02*
X195841025Y-94144323D01*
X195841025Y-94144323D02*
X195793406Y-94120514D01*
X195793406Y-94120514D02*
X195698168Y-94096704D01*
X195698168Y-94096704D02*
X195650549Y-94072895D01*
X195650549Y-94072895D02*
X195626739Y-94049085D01*
X195626739Y-94049085D02*
X195602930Y-94001466D01*
X195602930Y-94001466D02*
X195602930Y-93953847D01*
X195602930Y-93953847D02*
X195626739Y-93906228D01*
X195626739Y-93906228D02*
X195650549Y-93882419D01*
X195650549Y-93882419D02*
X195698168Y-93858609D01*
X195698168Y-93858609D02*
X195817215Y-93858609D01*
X195817215Y-93858609D02*
X195888644Y-93882419D01*
X196055310Y-93858609D02*
X196174358Y-94358609D01*
X196174358Y-94358609D02*
X196269596Y-94001466D01*
X196269596Y-94001466D02*
X196364834Y-94358609D01*
X196364834Y-94358609D02*
X196483882Y-93858609D01*
X196650549Y-94334800D02*
X196721977Y-94358609D01*
X196721977Y-94358609D02*
X196841025Y-94358609D01*
X196841025Y-94358609D02*
X196888644Y-94334800D01*
X196888644Y-94334800D02*
X196912453Y-94310990D01*
X196912453Y-94310990D02*
X196936263Y-94263371D01*
X196936263Y-94263371D02*
X196936263Y-94215752D01*
X196936263Y-94215752D02*
X196912453Y-94168133D01*
X196912453Y-94168133D02*
X196888644Y-94144323D01*
X196888644Y-94144323D02*
X196841025Y-94120514D01*
X196841025Y-94120514D02*
X196745787Y-94096704D01*
X196745787Y-94096704D02*
X196698168Y-94072895D01*
X196698168Y-94072895D02*
X196674358Y-94049085D01*
X196674358Y-94049085D02*
X196650549Y-94001466D01*
X196650549Y-94001466D02*
X196650549Y-93953847D01*
X196650549Y-93953847D02*
X196674358Y-93906228D01*
X196674358Y-93906228D02*
X196698168Y-93882419D01*
X196698168Y-93882419D02*
X196745787Y-93858609D01*
X196745787Y-93858609D02*
X196864834Y-93858609D01*
X196864834Y-93858609D02*
X196936263Y-93882419D01*
X197388643Y-94358609D02*
X197150548Y-94358609D01*
X197150548Y-94358609D02*
X197150548Y-93858609D01*
X197555310Y-94358609D02*
X197555310Y-93858609D01*
X197841024Y-94358609D02*
X197626739Y-94072895D01*
X197841024Y-93858609D02*
X197555310Y-94144323D01*
X198412453Y-94334800D02*
X198483881Y-94358609D01*
X198483881Y-94358609D02*
X198602929Y-94358609D01*
X198602929Y-94358609D02*
X198650548Y-94334800D01*
X198650548Y-94334800D02*
X198674357Y-94310990D01*
X198674357Y-94310990D02*
X198698167Y-94263371D01*
X198698167Y-94263371D02*
X198698167Y-94215752D01*
X198698167Y-94215752D02*
X198674357Y-94168133D01*
X198674357Y-94168133D02*
X198650548Y-94144323D01*
X198650548Y-94144323D02*
X198602929Y-94120514D01*
X198602929Y-94120514D02*
X198507691Y-94096704D01*
X198507691Y-94096704D02*
X198460072Y-94072895D01*
X198460072Y-94072895D02*
X198436262Y-94049085D01*
X198436262Y-94049085D02*
X198412453Y-94001466D01*
X198412453Y-94001466D02*
X198412453Y-93953847D01*
X198412453Y-93953847D02*
X198436262Y-93906228D01*
X198436262Y-93906228D02*
X198460072Y-93882419D01*
X198460072Y-93882419D02*
X198507691Y-93858609D01*
X198507691Y-93858609D02*
X198626738Y-93858609D01*
X198626738Y-93858609D02*
X198698167Y-93882419D01*
X198864833Y-93858609D02*
X198983881Y-94358609D01*
X198983881Y-94358609D02*
X199079119Y-94001466D01*
X199079119Y-94001466D02*
X199174357Y-94358609D01*
X199174357Y-94358609D02*
X199293405Y-93858609D01*
X199483881Y-94358609D02*
X199483881Y-93858609D01*
X199483881Y-93858609D02*
X199602929Y-93858609D01*
X199602929Y-93858609D02*
X199674357Y-93882419D01*
X199674357Y-93882419D02*
X199721976Y-93930038D01*
X199721976Y-93930038D02*
X199745786Y-93977657D01*
X199745786Y-93977657D02*
X199769595Y-94072895D01*
X199769595Y-94072895D02*
X199769595Y-94144323D01*
X199769595Y-94144323D02*
X199745786Y-94239561D01*
X199745786Y-94239561D02*
X199721976Y-94287180D01*
X199721976Y-94287180D02*
X199674357Y-94334800D01*
X199674357Y-94334800D02*
X199602929Y-94358609D01*
X199602929Y-94358609D02*
X199483881Y-94358609D01*
X199983881Y-94358609D02*
X199983881Y-93858609D01*
X200317214Y-93858609D02*
X200412452Y-93858609D01*
X200412452Y-93858609D02*
X200460071Y-93882419D01*
X200460071Y-93882419D02*
X200507690Y-93930038D01*
X200507690Y-93930038D02*
X200531500Y-94025276D01*
X200531500Y-94025276D02*
X200531500Y-94191942D01*
X200531500Y-94191942D02*
X200507690Y-94287180D01*
X200507690Y-94287180D02*
X200460071Y-94334800D01*
X200460071Y-94334800D02*
X200412452Y-94358609D01*
X200412452Y-94358609D02*
X200317214Y-94358609D01*
X200317214Y-94358609D02*
X200269595Y-94334800D01*
X200269595Y-94334800D02*
X200221976Y-94287180D01*
X200221976Y-94287180D02*
X200198167Y-94191942D01*
X200198167Y-94191942D02*
X200198167Y-94025276D01*
X200198167Y-94025276D02*
X200221976Y-93930038D01*
X200221976Y-93930038D02*
X200269595Y-93882419D01*
X200269595Y-93882419D02*
X200317214Y-93858609D01*
X201388643Y-93882419D02*
X201341024Y-93858609D01*
X201341024Y-93858609D02*
X201269595Y-93858609D01*
X201269595Y-93858609D02*
X201198167Y-93882419D01*
X201198167Y-93882419D02*
X201150548Y-93930038D01*
X201150548Y-93930038D02*
X201126738Y-93977657D01*
X201126738Y-93977657D02*
X201102929Y-94072895D01*
X201102929Y-94072895D02*
X201102929Y-94144323D01*
X201102929Y-94144323D02*
X201126738Y-94239561D01*
X201126738Y-94239561D02*
X201150548Y-94287180D01*
X201150548Y-94287180D02*
X201198167Y-94334800D01*
X201198167Y-94334800D02*
X201269595Y-94358609D01*
X201269595Y-94358609D02*
X201317214Y-94358609D01*
X201317214Y-94358609D02*
X201388643Y-94334800D01*
X201388643Y-94334800D02*
X201412452Y-94310990D01*
X201412452Y-94310990D02*
X201412452Y-94144323D01*
X201412452Y-94144323D02*
X201317214Y-94144323D01*
X201626738Y-94358609D02*
X201626738Y-93858609D01*
X201626738Y-93858609D02*
X201912452Y-94358609D01*
X201912452Y-94358609D02*
X201912452Y-93858609D01*
X202150548Y-94358609D02*
X202150548Y-93858609D01*
X202150548Y-93858609D02*
X202269596Y-93858609D01*
X202269596Y-93858609D02*
X202341024Y-93882419D01*
X202341024Y-93882419D02*
X202388643Y-93930038D01*
X202388643Y-93930038D02*
X202412453Y-93977657D01*
X202412453Y-93977657D02*
X202436262Y-94072895D01*
X202436262Y-94072895D02*
X202436262Y-94144323D01*
X202436262Y-94144323D02*
X202412453Y-94239561D01*
X202412453Y-94239561D02*
X202388643Y-94287180D01*
X202388643Y-94287180D02*
X202341024Y-94334800D01*
X202341024Y-94334800D02*
X202269596Y-94358609D01*
X202269596Y-94358609D02*
X202150548Y-94358609D01*
X241127419Y-96363258D02*
X241103609Y-96410877D01*
X241103609Y-96410877D02*
X241103609Y-96482306D01*
X241103609Y-96482306D02*
X241127419Y-96553734D01*
X241127419Y-96553734D02*
X241175038Y-96601353D01*
X241175038Y-96601353D02*
X241222657Y-96625163D01*
X241222657Y-96625163D02*
X241317895Y-96648972D01*
X241317895Y-96648972D02*
X241389323Y-96648972D01*
X241389323Y-96648972D02*
X241484561Y-96625163D01*
X241484561Y-96625163D02*
X241532180Y-96601353D01*
X241532180Y-96601353D02*
X241579800Y-96553734D01*
X241579800Y-96553734D02*
X241603609Y-96482306D01*
X241603609Y-96482306D02*
X241603609Y-96434687D01*
X241603609Y-96434687D02*
X241579800Y-96363258D01*
X241579800Y-96363258D02*
X241555990Y-96339449D01*
X241555990Y-96339449D02*
X241389323Y-96339449D01*
X241389323Y-96339449D02*
X241389323Y-96434687D01*
X241603609Y-96125163D02*
X241103609Y-96125163D01*
X241103609Y-96125163D02*
X241603609Y-95839449D01*
X241603609Y-95839449D02*
X241103609Y-95839449D01*
X241603609Y-95601353D02*
X241103609Y-95601353D01*
X241103609Y-95601353D02*
X241103609Y-95482305D01*
X241103609Y-95482305D02*
X241127419Y-95410877D01*
X241127419Y-95410877D02*
X241175038Y-95363258D01*
X241175038Y-95363258D02*
X241222657Y-95339448D01*
X241222657Y-95339448D02*
X241317895Y-95315639D01*
X241317895Y-95315639D02*
X241389323Y-95315639D01*
X241389323Y-95315639D02*
X241484561Y-95339448D01*
X241484561Y-95339448D02*
X241532180Y-95363258D01*
X241532180Y-95363258D02*
X241579800Y-95410877D01*
X241579800Y-95410877D02*
X241603609Y-95482305D01*
X241603609Y-95482305D02*
X241603609Y-95601353D01*
X241603609Y-94434687D02*
X241365514Y-94601353D01*
X241603609Y-94720401D02*
X241103609Y-94720401D01*
X241103609Y-94720401D02*
X241103609Y-94529925D01*
X241103609Y-94529925D02*
X241127419Y-94482306D01*
X241127419Y-94482306D02*
X241151228Y-94458496D01*
X241151228Y-94458496D02*
X241198847Y-94434687D01*
X241198847Y-94434687D02*
X241270276Y-94434687D01*
X241270276Y-94434687D02*
X241317895Y-94458496D01*
X241317895Y-94458496D02*
X241341704Y-94482306D01*
X241341704Y-94482306D02*
X241365514Y-94529925D01*
X241365514Y-94529925D02*
X241365514Y-94720401D01*
X241579800Y-94244210D02*
X241603609Y-94172782D01*
X241603609Y-94172782D02*
X241603609Y-94053734D01*
X241603609Y-94053734D02*
X241579800Y-94006115D01*
X241579800Y-94006115D02*
X241555990Y-93982306D01*
X241555990Y-93982306D02*
X241508371Y-93958496D01*
X241508371Y-93958496D02*
X241460752Y-93958496D01*
X241460752Y-93958496D02*
X241413133Y-93982306D01*
X241413133Y-93982306D02*
X241389323Y-94006115D01*
X241389323Y-94006115D02*
X241365514Y-94053734D01*
X241365514Y-94053734D02*
X241341704Y-94148972D01*
X241341704Y-94148972D02*
X241317895Y-94196591D01*
X241317895Y-94196591D02*
X241294085Y-94220401D01*
X241294085Y-94220401D02*
X241246466Y-94244210D01*
X241246466Y-94244210D02*
X241198847Y-94244210D01*
X241198847Y-94244210D02*
X241151228Y-94220401D01*
X241151228Y-94220401D02*
X241127419Y-94196591D01*
X241127419Y-94196591D02*
X241103609Y-94148972D01*
X241103609Y-94148972D02*
X241103609Y-94029925D01*
X241103609Y-94029925D02*
X241127419Y-93958496D01*
X241103609Y-93815639D02*
X241103609Y-93529925D01*
X241603609Y-93672782D02*
X241103609Y-93672782D01*
X241579800Y-93006116D02*
X241603609Y-92934688D01*
X241603609Y-92934688D02*
X241603609Y-92815640D01*
X241603609Y-92815640D02*
X241579800Y-92768021D01*
X241579800Y-92768021D02*
X241555990Y-92744212D01*
X241555990Y-92744212D02*
X241508371Y-92720402D01*
X241508371Y-92720402D02*
X241460752Y-92720402D01*
X241460752Y-92720402D02*
X241413133Y-92744212D01*
X241413133Y-92744212D02*
X241389323Y-92768021D01*
X241389323Y-92768021D02*
X241365514Y-92815640D01*
X241365514Y-92815640D02*
X241341704Y-92910878D01*
X241341704Y-92910878D02*
X241317895Y-92958497D01*
X241317895Y-92958497D02*
X241294085Y-92982307D01*
X241294085Y-92982307D02*
X241246466Y-93006116D01*
X241246466Y-93006116D02*
X241198847Y-93006116D01*
X241198847Y-93006116D02*
X241151228Y-92982307D01*
X241151228Y-92982307D02*
X241127419Y-92958497D01*
X241127419Y-92958497D02*
X241103609Y-92910878D01*
X241103609Y-92910878D02*
X241103609Y-92791831D01*
X241103609Y-92791831D02*
X241127419Y-92720402D01*
X241103609Y-92553736D02*
X241603609Y-92434688D01*
X241603609Y-92434688D02*
X241246466Y-92339450D01*
X241246466Y-92339450D02*
X241603609Y-92244212D01*
X241603609Y-92244212D02*
X241103609Y-92125165D01*
X241579800Y-91958497D02*
X241603609Y-91887069D01*
X241603609Y-91887069D02*
X241603609Y-91768021D01*
X241603609Y-91768021D02*
X241579800Y-91720402D01*
X241579800Y-91720402D02*
X241555990Y-91696593D01*
X241555990Y-91696593D02*
X241508371Y-91672783D01*
X241508371Y-91672783D02*
X241460752Y-91672783D01*
X241460752Y-91672783D02*
X241413133Y-91696593D01*
X241413133Y-91696593D02*
X241389323Y-91720402D01*
X241389323Y-91720402D02*
X241365514Y-91768021D01*
X241365514Y-91768021D02*
X241341704Y-91863259D01*
X241341704Y-91863259D02*
X241317895Y-91910878D01*
X241317895Y-91910878D02*
X241294085Y-91934688D01*
X241294085Y-91934688D02*
X241246466Y-91958497D01*
X241246466Y-91958497D02*
X241198847Y-91958497D01*
X241198847Y-91958497D02*
X241151228Y-91934688D01*
X241151228Y-91934688D02*
X241127419Y-91910878D01*
X241127419Y-91910878D02*
X241103609Y-91863259D01*
X241103609Y-91863259D02*
X241103609Y-91744212D01*
X241103609Y-91744212D02*
X241127419Y-91672783D01*
X241603609Y-91220403D02*
X241603609Y-91458498D01*
X241603609Y-91458498D02*
X241103609Y-91458498D01*
X241603609Y-91053736D02*
X241103609Y-91053736D01*
X241603609Y-90768022D02*
X241317895Y-90982307D01*
X241103609Y-90768022D02*
X241389323Y-91053736D01*
X241579800Y-90196593D02*
X241603609Y-90125165D01*
X241603609Y-90125165D02*
X241603609Y-90006117D01*
X241603609Y-90006117D02*
X241579800Y-89958498D01*
X241579800Y-89958498D02*
X241555990Y-89934689D01*
X241555990Y-89934689D02*
X241508371Y-89910879D01*
X241508371Y-89910879D02*
X241460752Y-89910879D01*
X241460752Y-89910879D02*
X241413133Y-89934689D01*
X241413133Y-89934689D02*
X241389323Y-89958498D01*
X241389323Y-89958498D02*
X241365514Y-90006117D01*
X241365514Y-90006117D02*
X241341704Y-90101355D01*
X241341704Y-90101355D02*
X241317895Y-90148974D01*
X241317895Y-90148974D02*
X241294085Y-90172784D01*
X241294085Y-90172784D02*
X241246466Y-90196593D01*
X241246466Y-90196593D02*
X241198847Y-90196593D01*
X241198847Y-90196593D02*
X241151228Y-90172784D01*
X241151228Y-90172784D02*
X241127419Y-90148974D01*
X241127419Y-90148974D02*
X241103609Y-90101355D01*
X241103609Y-90101355D02*
X241103609Y-89982308D01*
X241103609Y-89982308D02*
X241127419Y-89910879D01*
X241103609Y-89744213D02*
X241603609Y-89625165D01*
X241603609Y-89625165D02*
X241246466Y-89529927D01*
X241246466Y-89529927D02*
X241603609Y-89434689D01*
X241603609Y-89434689D02*
X241103609Y-89315642D01*
X241603609Y-89125165D02*
X241103609Y-89125165D01*
X241103609Y-89125165D02*
X241103609Y-89006117D01*
X241103609Y-89006117D02*
X241127419Y-88934689D01*
X241127419Y-88934689D02*
X241175038Y-88887070D01*
X241175038Y-88887070D02*
X241222657Y-88863260D01*
X241222657Y-88863260D02*
X241317895Y-88839451D01*
X241317895Y-88839451D02*
X241389323Y-88839451D01*
X241389323Y-88839451D02*
X241484561Y-88863260D01*
X241484561Y-88863260D02*
X241532180Y-88887070D01*
X241532180Y-88887070D02*
X241579800Y-88934689D01*
X241579800Y-88934689D02*
X241603609Y-89006117D01*
X241603609Y-89006117D02*
X241603609Y-89125165D01*
X241603609Y-88625165D02*
X241103609Y-88625165D01*
X241103609Y-88291832D02*
X241103609Y-88196594D01*
X241103609Y-88196594D02*
X241127419Y-88148975D01*
X241127419Y-88148975D02*
X241175038Y-88101356D01*
X241175038Y-88101356D02*
X241270276Y-88077546D01*
X241270276Y-88077546D02*
X241436942Y-88077546D01*
X241436942Y-88077546D02*
X241532180Y-88101356D01*
X241532180Y-88101356D02*
X241579800Y-88148975D01*
X241579800Y-88148975D02*
X241603609Y-88196594D01*
X241603609Y-88196594D02*
X241603609Y-88291832D01*
X241603609Y-88291832D02*
X241579800Y-88339451D01*
X241579800Y-88339451D02*
X241532180Y-88387070D01*
X241532180Y-88387070D02*
X241436942Y-88410879D01*
X241436942Y-88410879D02*
X241270276Y-88410879D01*
X241270276Y-88410879D02*
X241175038Y-88387070D01*
X241175038Y-88387070D02*
X241127419Y-88339451D01*
X241127419Y-88339451D02*
X241103609Y-88291832D01*
X241103609Y-87529927D02*
X241103609Y-87220403D01*
X241103609Y-87220403D02*
X241294085Y-87387070D01*
X241294085Y-87387070D02*
X241294085Y-87315641D01*
X241294085Y-87315641D02*
X241317895Y-87268022D01*
X241317895Y-87268022D02*
X241341704Y-87244213D01*
X241341704Y-87244213D02*
X241389323Y-87220403D01*
X241389323Y-87220403D02*
X241508371Y-87220403D01*
X241508371Y-87220403D02*
X241555990Y-87244213D01*
X241555990Y-87244213D02*
X241579800Y-87268022D01*
X241579800Y-87268022D02*
X241603609Y-87315641D01*
X241603609Y-87315641D02*
X241603609Y-87458498D01*
X241603609Y-87458498D02*
X241579800Y-87506117D01*
X241579800Y-87506117D02*
X241555990Y-87529927D01*
X241103609Y-87077546D02*
X241603609Y-86910880D01*
X241603609Y-86910880D02*
X241103609Y-86744213D01*
X241103609Y-86625166D02*
X241103609Y-86315642D01*
X241103609Y-86315642D02*
X241294085Y-86482309D01*
X241294085Y-86482309D02*
X241294085Y-86410880D01*
X241294085Y-86410880D02*
X241317895Y-86363261D01*
X241317895Y-86363261D02*
X241341704Y-86339452D01*
X241341704Y-86339452D02*
X241389323Y-86315642D01*
X241389323Y-86315642D02*
X241508371Y-86315642D01*
X241508371Y-86315642D02*
X241555990Y-86339452D01*
X241555990Y-86339452D02*
X241579800Y-86363261D01*
X241579800Y-86363261D02*
X241603609Y-86410880D01*
X241603609Y-86410880D02*
X241603609Y-86553737D01*
X241603609Y-86553737D02*
X241579800Y-86601356D01*
X241579800Y-86601356D02*
X241555990Y-86625166D01*
D10*
X203310839Y-111580466D02*
X202701316Y-111580466D01*
X203006077Y-111275704D02*
X203006077Y-111885228D01*
G36*
X234853915Y-93104495D02*
G01*
X234865275Y-93115855D01*
X234880485Y-93146275D01*
X234880485Y-93253570D01*
X234744771Y-93253570D01*
X234744771Y-93146275D01*
X234759981Y-93115855D01*
X234771340Y-93104495D01*
X234801762Y-93089285D01*
X234823495Y-93089285D01*
X234853915Y-93104495D01*
G37*
G36*
X235168202Y-93075924D02*
G01*
X235179561Y-93087283D01*
X235194771Y-93117703D01*
X235194771Y-93253570D01*
X235030485Y-93253570D01*
X235030485Y-93140741D01*
X235049608Y-93083370D01*
X235057055Y-93075923D01*
X235087476Y-93060713D01*
X235137779Y-93060713D01*
X235168202Y-93075924D01*
G37*
G36*
X235100739Y-89742193D02*
G01*
X235139629Y-89761637D01*
X235175648Y-89797656D01*
X235194771Y-89855025D01*
X235194771Y-89910713D01*
X234744771Y-89910713D01*
X234744771Y-89855025D01*
X234763894Y-89797655D01*
X234799911Y-89761638D01*
X234838803Y-89742192D01*
X234936148Y-89717856D01*
X235003394Y-89717856D01*
X235100739Y-89742193D01*
G37*
G36*
X235419771Y-93478570D02*
G01*
X234519771Y-93478570D01*
X234519771Y-93128570D01*
X234594771Y-93128570D01*
X234594771Y-93328570D01*
X234596212Y-93343202D01*
X234607411Y-93370238D01*
X234628103Y-93390930D01*
X234655139Y-93402129D01*
X234669771Y-93403570D01*
X235269771Y-93403570D01*
X235284403Y-93402129D01*
X235311439Y-93390930D01*
X235332131Y-93370238D01*
X235343330Y-93343202D01*
X235344771Y-93328570D01*
X235344771Y-93099999D01*
X235343330Y-93085367D01*
X235342298Y-93082877D01*
X235342108Y-93080191D01*
X235336853Y-93066459D01*
X235308282Y-93009315D01*
X235304318Y-93003019D01*
X235303560Y-93001187D01*
X235301867Y-92999125D01*
X235300450Y-92996873D01*
X235298955Y-92995576D01*
X235294232Y-92989822D01*
X235265660Y-92961251D01*
X235259908Y-92956530D01*
X235258612Y-92955036D01*
X235256358Y-92953617D01*
X235254295Y-92951924D01*
X235252463Y-92951165D01*
X235246169Y-92947203D01*
X235189026Y-92918631D01*
X235175295Y-92913376D01*
X235172605Y-92913184D01*
X235170117Y-92912154D01*
X235155485Y-92910713D01*
X235069771Y-92910713D01*
X235055139Y-92912154D01*
X235052650Y-92913184D01*
X235049961Y-92913376D01*
X235036229Y-92918631D01*
X234979087Y-92947203D01*
X234972790Y-92951166D01*
X234970960Y-92951925D01*
X234968898Y-92953616D01*
X234966644Y-92955036D01*
X234965347Y-92956531D01*
X234959595Y-92961252D01*
X234940197Y-92980649D01*
X234940010Y-92980496D01*
X234938179Y-92979737D01*
X234931883Y-92975774D01*
X234874741Y-92947203D01*
X234861009Y-92941948D01*
X234858321Y-92941757D01*
X234855832Y-92940726D01*
X234841200Y-92939285D01*
X234784057Y-92939285D01*
X234769425Y-92940726D01*
X234766935Y-92941757D01*
X234764249Y-92941948D01*
X234750517Y-92947203D01*
X234693373Y-92975774D01*
X234687079Y-92979735D01*
X234685246Y-92980495D01*
X234683182Y-92982188D01*
X234680931Y-92983606D01*
X234679634Y-92985100D01*
X234673881Y-92989823D01*
X234645309Y-93018395D01*
X234640588Y-93024146D01*
X234639093Y-93025444D01*
X234637673Y-93027698D01*
X234635982Y-93029760D01*
X234635223Y-93031590D01*
X234631260Y-93037887D01*
X234602689Y-93095029D01*
X234597434Y-93108761D01*
X234597243Y-93111448D01*
X234596212Y-93113938D01*
X234594771Y-93128570D01*
X234519771Y-93128570D01*
X234519771Y-92713938D01*
X234596212Y-92713938D01*
X234596212Y-92743202D01*
X234607411Y-92770238D01*
X234628103Y-92790930D01*
X234655139Y-92802129D01*
X234669771Y-92803570D01*
X235269771Y-92803570D01*
X235284403Y-92802129D01*
X235311439Y-92790930D01*
X235332131Y-92770238D01*
X235343330Y-92743202D01*
X235344771Y-92728570D01*
X235344771Y-92442856D01*
X235343330Y-92428224D01*
X235332131Y-92401188D01*
X235311439Y-92380496D01*
X235284403Y-92369297D01*
X235255139Y-92369297D01*
X235228103Y-92380496D01*
X235207411Y-92401188D01*
X235196212Y-92428224D01*
X235194771Y-92442856D01*
X235194771Y-92653570D01*
X234669771Y-92653570D01*
X234655139Y-92655011D01*
X234628103Y-92666210D01*
X234607411Y-92686902D01*
X234596212Y-92713938D01*
X234519771Y-92713938D01*
X234519771Y-91957142D01*
X234594771Y-91957142D01*
X234594771Y-92242856D01*
X234596212Y-92257488D01*
X234607411Y-92284524D01*
X234628103Y-92305216D01*
X234655139Y-92316415D01*
X234669771Y-92317856D01*
X235269771Y-92317856D01*
X235284403Y-92316415D01*
X235311439Y-92305216D01*
X235332131Y-92284524D01*
X235343330Y-92257488D01*
X235344771Y-92242856D01*
X235344771Y-91957142D01*
X235343330Y-91942510D01*
X235332131Y-91915474D01*
X235311439Y-91894782D01*
X235284403Y-91883583D01*
X235255139Y-91883583D01*
X235228103Y-91894782D01*
X235207411Y-91915474D01*
X235196212Y-91942510D01*
X235194771Y-91957142D01*
X235194771Y-92167856D01*
X235030485Y-92167856D01*
X235030485Y-92042856D01*
X235029044Y-92028224D01*
X235017845Y-92001188D01*
X234997153Y-91980496D01*
X234970117Y-91969297D01*
X234940853Y-91969297D01*
X234913817Y-91980496D01*
X234893125Y-92001188D01*
X234881926Y-92028224D01*
X234880485Y-92042856D01*
X234880485Y-92167856D01*
X234744771Y-92167856D01*
X234744771Y-91957142D01*
X234743330Y-91942510D01*
X234732131Y-91915474D01*
X234711439Y-91894782D01*
X234684403Y-91883583D01*
X234655139Y-91883583D01*
X234628103Y-91894782D01*
X234607411Y-91915474D01*
X234596212Y-91942510D01*
X234594771Y-91957142D01*
X234519771Y-91957142D01*
X234519771Y-91014285D01*
X234594771Y-91014285D01*
X234594771Y-91157142D01*
X234596212Y-91171774D01*
X234597243Y-91174263D01*
X234597434Y-91176951D01*
X234602689Y-91190683D01*
X234631260Y-91247826D01*
X234635223Y-91254123D01*
X234635982Y-91255954D01*
X234637672Y-91258013D01*
X234639092Y-91260269D01*
X234640589Y-91261567D01*
X234645310Y-91267319D01*
X234673882Y-91295890D01*
X234679633Y-91300610D01*
X234680930Y-91302105D01*
X234683183Y-91303523D01*
X234685247Y-91305217D01*
X234687078Y-91305975D01*
X234693373Y-91309938D01*
X234750515Y-91338510D01*
X234764247Y-91343765D01*
X234766936Y-91343956D01*
X234769425Y-91344987D01*
X234784057Y-91346428D01*
X234841200Y-91346428D01*
X234855832Y-91344987D01*
X234858320Y-91343956D01*
X234861010Y-91343765D01*
X234874742Y-91338510D01*
X234931884Y-91309938D01*
X234938180Y-91305974D01*
X234940009Y-91305217D01*
X234942068Y-91303526D01*
X234944327Y-91302105D01*
X234945625Y-91300607D01*
X234951374Y-91295890D01*
X234979946Y-91267319D01*
X234984669Y-91261564D01*
X234986164Y-91260268D01*
X234987581Y-91258015D01*
X234989274Y-91255954D01*
X234990032Y-91254121D01*
X234993996Y-91247826D01*
X235022567Y-91190682D01*
X235022975Y-91189614D01*
X235023299Y-91189178D01*
X235025500Y-91183017D01*
X235027822Y-91176950D01*
X235027860Y-91176411D01*
X235028246Y-91175332D01*
X235054821Y-91069031D01*
X235074267Y-91030141D01*
X235085627Y-91018781D01*
X235116047Y-91003571D01*
X235137781Y-91003571D01*
X235168200Y-91018780D01*
X235179561Y-91030141D01*
X235194771Y-91060561D01*
X235194771Y-91173545D01*
X235170049Y-91247711D01*
X235166789Y-91262048D01*
X235168864Y-91291238D01*
X235181950Y-91317412D01*
X235204058Y-91336585D01*
X235231820Y-91345839D01*
X235261010Y-91343764D01*
X235287184Y-91330678D01*
X235306357Y-91308570D01*
X235312351Y-91295145D01*
X235340922Y-91209431D01*
X235342571Y-91202177D01*
X235343330Y-91200346D01*
X235343591Y-91197691D01*
X235344182Y-91195094D01*
X235344041Y-91193119D01*
X235344771Y-91185714D01*
X235344771Y-91042856D01*
X235343330Y-91028224D01*
X235342298Y-91025734D01*
X235342108Y-91023047D01*
X235336853Y-91009315D01*
X235308282Y-90952173D01*
X235304319Y-90945878D01*
X235303561Y-90944046D01*
X235301869Y-90941984D01*
X235300450Y-90939730D01*
X235298953Y-90938431D01*
X235294233Y-90932681D01*
X235265661Y-90904109D01*
X235259911Y-90899390D01*
X235258612Y-90897892D01*
X235256352Y-90896470D01*
X235254296Y-90894782D01*
X235252468Y-90894024D01*
X235246169Y-90890060D01*
X235189026Y-90861489D01*
X235175294Y-90856234D01*
X235172606Y-90856043D01*
X235170117Y-90855012D01*
X235155485Y-90853571D01*
X235098342Y-90853571D01*
X235083710Y-90855012D01*
X235081220Y-90856043D01*
X235078533Y-90856234D01*
X235064801Y-90861489D01*
X235007659Y-90890060D01*
X235001364Y-90894022D01*
X234999532Y-90894781D01*
X234997470Y-90896472D01*
X234995216Y-90897892D01*
X234993917Y-90899388D01*
X234988167Y-90904109D01*
X234959595Y-90932681D01*
X234954874Y-90938432D01*
X234953379Y-90939730D01*
X234951959Y-90941984D01*
X234950268Y-90944046D01*
X234949509Y-90945876D01*
X234945546Y-90952173D01*
X234916975Y-91009315D01*
X234916565Y-91010384D01*
X234916243Y-91010820D01*
X234914047Y-91016965D01*
X234911720Y-91023047D01*
X234911681Y-91023586D01*
X234911296Y-91024666D01*
X234884720Y-91130966D01*
X234865275Y-91169857D01*
X234853916Y-91181216D01*
X234823493Y-91196428D01*
X234801762Y-91196428D01*
X234771340Y-91181216D01*
X234759980Y-91169856D01*
X234744771Y-91139437D01*
X234744771Y-91026454D01*
X234769493Y-90952288D01*
X234772753Y-90937951D01*
X234770678Y-90908761D01*
X234757591Y-90882588D01*
X234735484Y-90863414D01*
X234707722Y-90854160D01*
X234678532Y-90856235D01*
X234652358Y-90869322D01*
X234633185Y-90891429D01*
X234627191Y-90904855D01*
X234598620Y-90990568D01*
X234596970Y-90997821D01*
X234596212Y-90999653D01*
X234595950Y-91002307D01*
X234595360Y-91004905D01*
X234595500Y-91006879D01*
X234594771Y-91014285D01*
X234519771Y-91014285D01*
X234519771Y-90211481D01*
X234594823Y-90211481D01*
X234599456Y-90240376D01*
X234614792Y-90265298D01*
X234638499Y-90282455D01*
X234652399Y-90287245D01*
X234963254Y-90361258D01*
X234821875Y-90398959D01*
X234818446Y-90400244D01*
X234817007Y-90400436D01*
X234815296Y-90401426D01*
X234808109Y-90404122D01*
X234800249Y-90410137D01*
X234791682Y-90415098D01*
X234788728Y-90418955D01*
X234784871Y-90421909D01*
X234779910Y-90430476D01*
X234773895Y-90438336D01*
X234772643Y-90443028D01*
X234770209Y-90447234D01*
X234768905Y-90457048D01*
X234766355Y-90466611D01*
X234766994Y-90471426D01*
X234766355Y-90476242D01*
X234768905Y-90485804D01*
X234770209Y-90495620D01*
X234772643Y-90499825D01*
X234773895Y-90504518D01*
X234779910Y-90512377D01*
X234784871Y-90520945D01*
X234788728Y-90523898D01*
X234791682Y-90527756D01*
X234800249Y-90532716D01*
X234808109Y-90538732D01*
X234815296Y-90541427D01*
X234817007Y-90542418D01*
X234818447Y-90542609D01*
X234821875Y-90543895D01*
X234963255Y-90581596D01*
X234652399Y-90655610D01*
X234638499Y-90660400D01*
X234614792Y-90677557D01*
X234599456Y-90702479D01*
X234594823Y-90731374D01*
X234601601Y-90759842D01*
X234618758Y-90783549D01*
X234643680Y-90798885D01*
X234672575Y-90803518D01*
X234687143Y-90801530D01*
X235287142Y-90658674D01*
X235292163Y-90656943D01*
X235293965Y-90656704D01*
X235295593Y-90655761D01*
X235301043Y-90653883D01*
X235309861Y-90647500D01*
X235319290Y-90642042D01*
X235321632Y-90638981D01*
X235324749Y-90636726D01*
X235330448Y-90627464D01*
X235337077Y-90618805D01*
X235338070Y-90615078D01*
X235340086Y-90611804D01*
X235341807Y-90601064D01*
X235344617Y-90590529D01*
X235344109Y-90586707D01*
X235344718Y-90582909D01*
X235342197Y-90572323D01*
X235340762Y-90561520D01*
X235338831Y-90558185D01*
X235337940Y-90554441D01*
X235331557Y-90545620D01*
X235326100Y-90536195D01*
X235323042Y-90533854D01*
X235320784Y-90530734D01*
X235311511Y-90525028D01*
X235302863Y-90518408D01*
X235297463Y-90516383D01*
X235295862Y-90515398D01*
X235294068Y-90515110D01*
X235289096Y-90513246D01*
X235132278Y-90471427D01*
X235289095Y-90429610D01*
X235294069Y-90427744D01*
X235295862Y-90427457D01*
X235297463Y-90426471D01*
X235302862Y-90424447D01*
X235311508Y-90417828D01*
X235320784Y-90412121D01*
X235323042Y-90409000D01*
X235326100Y-90406660D01*
X235331555Y-90397236D01*
X235337940Y-90388414D01*
X235338832Y-90384666D01*
X235340761Y-90381335D01*
X235342195Y-90370540D01*
X235344718Y-90359946D01*
X235344108Y-90356144D01*
X235344616Y-90352327D01*
X235341809Y-90341802D01*
X235340086Y-90331051D01*
X235338068Y-90327772D01*
X235337076Y-90324051D01*
X235330454Y-90315400D01*
X235324749Y-90306129D01*
X235321630Y-90303871D01*
X235319289Y-90300813D01*
X235309865Y-90295357D01*
X235301043Y-90288972D01*
X235295591Y-90287092D01*
X235293964Y-90286151D01*
X235292164Y-90285911D01*
X235287142Y-90284181D01*
X234687143Y-90141325D01*
X234672575Y-90139337D01*
X234643680Y-90143970D01*
X234618758Y-90159306D01*
X234601601Y-90183013D01*
X234594823Y-90211481D01*
X234519771Y-90211481D01*
X234519771Y-89842856D01*
X234594771Y-89842856D01*
X234594771Y-89985713D01*
X234596212Y-90000345D01*
X234607411Y-90027381D01*
X234628103Y-90048073D01*
X234655139Y-90059272D01*
X234669771Y-90060713D01*
X235269771Y-90060713D01*
X235284403Y-90059272D01*
X235311439Y-90048073D01*
X235332131Y-90027381D01*
X235343330Y-90000345D01*
X235344771Y-89985713D01*
X235344771Y-89842856D01*
X235344041Y-89835450D01*
X235344182Y-89833476D01*
X235343591Y-89830878D01*
X235343330Y-89828224D01*
X235342571Y-89826392D01*
X235340922Y-89819139D01*
X235312351Y-89733425D01*
X235306357Y-89720000D01*
X235304591Y-89717964D01*
X235303560Y-89715474D01*
X235294233Y-89704109D01*
X235237090Y-89646966D01*
X235231340Y-89642247D01*
X235230041Y-89640749D01*
X235227781Y-89639327D01*
X235225725Y-89637639D01*
X235223897Y-89636881D01*
X235217598Y-89632917D01*
X235160455Y-89604346D01*
X235159385Y-89603936D01*
X235158950Y-89603614D01*
X235152804Y-89601418D01*
X235146723Y-89599091D01*
X235146183Y-89599052D01*
X235145104Y-89598667D01*
X235030818Y-89570095D01*
X235028281Y-89569719D01*
X235027260Y-89569297D01*
X235021747Y-89568754D01*
X235016274Y-89567945D01*
X235015181Y-89568107D01*
X235012628Y-89567856D01*
X234926914Y-89567856D01*
X234924360Y-89568107D01*
X234923268Y-89567945D01*
X234917793Y-89568754D01*
X234912282Y-89569297D01*
X234911261Y-89569719D01*
X234908723Y-89570095D01*
X234794438Y-89598667D01*
X234793358Y-89599052D01*
X234792820Y-89599091D01*
X234786752Y-89601412D01*
X234780592Y-89603614D01*
X234780155Y-89603937D01*
X234779088Y-89604346D01*
X234721944Y-89632917D01*
X234715646Y-89636881D01*
X234713817Y-89637639D01*
X234711757Y-89639329D01*
X234709502Y-89640749D01*
X234708204Y-89642245D01*
X234702452Y-89646966D01*
X234645309Y-89704109D01*
X234635982Y-89715474D01*
X234634950Y-89717964D01*
X234633185Y-89720000D01*
X234627191Y-89733426D01*
X234598620Y-89819139D01*
X234596970Y-89826392D01*
X234596212Y-89828224D01*
X234595950Y-89830878D01*
X234595360Y-89833476D01*
X234595500Y-89835450D01*
X234594771Y-89842856D01*
X234519771Y-89842856D01*
X234519771Y-89492856D01*
X235419771Y-89492856D01*
X235419771Y-93478570D01*
G37*
X209709524Y-80062295D02*
X209709524Y-79262295D01*
X209709524Y-79262295D02*
X209900000Y-79262295D01*
X209900000Y-79262295D02*
X210014286Y-79300390D01*
X210014286Y-79300390D02*
X210090476Y-79376580D01*
X210090476Y-79376580D02*
X210128571Y-79452771D01*
X210128571Y-79452771D02*
X210166667Y-79605152D01*
X210166667Y-79605152D02*
X210166667Y-79719438D01*
X210166667Y-79719438D02*
X210128571Y-79871819D01*
X210128571Y-79871819D02*
X210090476Y-79948009D01*
X210090476Y-79948009D02*
X210014286Y-80024200D01*
X210014286Y-80024200D02*
X209900000Y-80062295D01*
X209900000Y-80062295D02*
X209709524Y-80062295D01*
X210890476Y-79262295D02*
X210509524Y-79262295D01*
X210509524Y-79262295D02*
X210471428Y-79643247D01*
X210471428Y-79643247D02*
X210509524Y-79605152D01*
X210509524Y-79605152D02*
X210585714Y-79567057D01*
X210585714Y-79567057D02*
X210776190Y-79567057D01*
X210776190Y-79567057D02*
X210852381Y-79605152D01*
X210852381Y-79605152D02*
X210890476Y-79643247D01*
X210890476Y-79643247D02*
X210928571Y-79719438D01*
X210928571Y-79719438D02*
X210928571Y-79909914D01*
X210928571Y-79909914D02*
X210890476Y-79986104D01*
X210890476Y-79986104D02*
X210852381Y-80024200D01*
X210852381Y-80024200D02*
X210776190Y-80062295D01*
X210776190Y-80062295D02*
X210585714Y-80062295D01*
X210585714Y-80062295D02*
X210509524Y-80024200D01*
X210509524Y-80024200D02*
X210471428Y-79986104D01*
X205590476Y-97600390D02*
X205514286Y-97562295D01*
X205514286Y-97562295D02*
X205400000Y-97562295D01*
X205400000Y-97562295D02*
X205285714Y-97600390D01*
X205285714Y-97600390D02*
X205209524Y-97676580D01*
X205209524Y-97676580D02*
X205171429Y-97752771D01*
X205171429Y-97752771D02*
X205133333Y-97905152D01*
X205133333Y-97905152D02*
X205133333Y-98019438D01*
X205133333Y-98019438D02*
X205171429Y-98171819D01*
X205171429Y-98171819D02*
X205209524Y-98248009D01*
X205209524Y-98248009D02*
X205285714Y-98324200D01*
X205285714Y-98324200D02*
X205400000Y-98362295D01*
X205400000Y-98362295D02*
X205476191Y-98362295D01*
X205476191Y-98362295D02*
X205590476Y-98324200D01*
X205590476Y-98324200D02*
X205628572Y-98286104D01*
X205628572Y-98286104D02*
X205628572Y-98019438D01*
X205628572Y-98019438D02*
X205476191Y-98019438D01*
X205971429Y-98362295D02*
X205971429Y-97562295D01*
X205971429Y-97562295D02*
X206428572Y-98362295D01*
X206428572Y-98362295D02*
X206428572Y-97562295D01*
X206809524Y-98362295D02*
X206809524Y-97562295D01*
X206809524Y-97562295D02*
X207000000Y-97562295D01*
X207000000Y-97562295D02*
X207114286Y-97600390D01*
X207114286Y-97600390D02*
X207190476Y-97676580D01*
X207190476Y-97676580D02*
X207228571Y-97752771D01*
X207228571Y-97752771D02*
X207266667Y-97905152D01*
X207266667Y-97905152D02*
X207266667Y-98019438D01*
X207266667Y-98019438D02*
X207228571Y-98171819D01*
X207228571Y-98171819D02*
X207190476Y-98248009D01*
X207190476Y-98248009D02*
X207114286Y-98324200D01*
X207114286Y-98324200D02*
X207000000Y-98362295D01*
X207000000Y-98362295D02*
X206809524Y-98362295D01*
X203995238Y-64762295D02*
X203995238Y-63962295D01*
X203995238Y-63962295D02*
X204185714Y-63962295D01*
X204185714Y-63962295D02*
X204300000Y-64000390D01*
X204300000Y-64000390D02*
X204376190Y-64076580D01*
X204376190Y-64076580D02*
X204414285Y-64152771D01*
X204414285Y-64152771D02*
X204452381Y-64305152D01*
X204452381Y-64305152D02*
X204452381Y-64419438D01*
X204452381Y-64419438D02*
X204414285Y-64571819D01*
X204414285Y-64571819D02*
X204376190Y-64648009D01*
X204376190Y-64648009D02*
X204300000Y-64724200D01*
X204300000Y-64724200D02*
X204185714Y-64762295D01*
X204185714Y-64762295D02*
X203995238Y-64762295D01*
X204719047Y-63962295D02*
X204909523Y-64762295D01*
X204909523Y-64762295D02*
X205061904Y-64190866D01*
X205061904Y-64190866D02*
X205214285Y-64762295D01*
X205214285Y-64762295D02*
X205404762Y-63962295D01*
X205709524Y-64762295D02*
X205709524Y-63962295D01*
X205709524Y-63962295D02*
X205976190Y-64533723D01*
X205976190Y-64533723D02*
X206242857Y-63962295D01*
X206242857Y-63962295D02*
X206242857Y-64762295D01*
X207042857Y-64762295D02*
X206585714Y-64762295D01*
X206814286Y-64762295D02*
X206814286Y-63962295D01*
X206814286Y-63962295D02*
X206738095Y-64076580D01*
X206738095Y-64076580D02*
X206661905Y-64152771D01*
X206661905Y-64152771D02*
X206585714Y-64190866D01*
X197709523Y-80562295D02*
X198204761Y-80562295D01*
X198204761Y-80562295D02*
X197938095Y-80867057D01*
X197938095Y-80867057D02*
X198052380Y-80867057D01*
X198052380Y-80867057D02*
X198128571Y-80905152D01*
X198128571Y-80905152D02*
X198166666Y-80943247D01*
X198166666Y-80943247D02*
X198204761Y-81019438D01*
X198204761Y-81019438D02*
X198204761Y-81209914D01*
X198204761Y-81209914D02*
X198166666Y-81286104D01*
X198166666Y-81286104D02*
X198128571Y-81324200D01*
X198128571Y-81324200D02*
X198052380Y-81362295D01*
X198052380Y-81362295D02*
X197823809Y-81362295D01*
X197823809Y-81362295D02*
X197747618Y-81324200D01*
X197747618Y-81324200D02*
X197709523Y-81286104D01*
X198433333Y-80562295D02*
X198700000Y-81362295D01*
X198700000Y-81362295D02*
X198966666Y-80562295D01*
X199157142Y-80562295D02*
X199652380Y-80562295D01*
X199652380Y-80562295D02*
X199385714Y-80867057D01*
X199385714Y-80867057D02*
X199499999Y-80867057D01*
X199499999Y-80867057D02*
X199576190Y-80905152D01*
X199576190Y-80905152D02*
X199614285Y-80943247D01*
X199614285Y-80943247D02*
X199652380Y-81019438D01*
X199652380Y-81019438D02*
X199652380Y-81209914D01*
X199652380Y-81209914D02*
X199614285Y-81286104D01*
X199614285Y-81286104D02*
X199576190Y-81324200D01*
X199576190Y-81324200D02*
X199499999Y-81362295D01*
X199499999Y-81362295D02*
X199271428Y-81362295D01*
X199271428Y-81362295D02*
X199195237Y-81324200D01*
X199195237Y-81324200D02*
X199157142Y-81286104D01*
X226840298Y-90581342D02*
X226840298Y-90962295D01*
X226573631Y-90162295D02*
X226840298Y-90581342D01*
X226840298Y-90581342D02*
X227106964Y-90162295D01*
X227792678Y-90962295D02*
X227335535Y-90962295D01*
X227564107Y-90962295D02*
X227564107Y-90162295D01*
X227564107Y-90162295D02*
X227487916Y-90276580D01*
X227487916Y-90276580D02*
X227411726Y-90352771D01*
X227411726Y-90352771D02*
X227335535Y-90390866D01*
X226465476Y-105562295D02*
X226465476Y-106209914D01*
X226465476Y-106209914D02*
X226503571Y-106286104D01*
X226503571Y-106286104D02*
X226541666Y-106324200D01*
X226541666Y-106324200D02*
X226617857Y-106362295D01*
X226617857Y-106362295D02*
X226770238Y-106362295D01*
X226770238Y-106362295D02*
X226846428Y-106324200D01*
X226846428Y-106324200D02*
X226884523Y-106286104D01*
X226884523Y-106286104D02*
X226922619Y-106209914D01*
X226922619Y-106209914D02*
X226922619Y-105562295D01*
X227265475Y-105638485D02*
X227303571Y-105600390D01*
X227303571Y-105600390D02*
X227379761Y-105562295D01*
X227379761Y-105562295D02*
X227570237Y-105562295D01*
X227570237Y-105562295D02*
X227646428Y-105600390D01*
X227646428Y-105600390D02*
X227684523Y-105638485D01*
X227684523Y-105638485D02*
X227722618Y-105714676D01*
X227722618Y-105714676D02*
X227722618Y-105790866D01*
X227722618Y-105790866D02*
X227684523Y-105905152D01*
X227684523Y-105905152D02*
X227227380Y-106362295D01*
X227227380Y-106362295D02*
X227722618Y-106362295D01*
X202933333Y-86562295D02*
X202933333Y-87133723D01*
X202933333Y-87133723D02*
X202895238Y-87248009D01*
X202895238Y-87248009D02*
X202819047Y-87324200D01*
X202819047Y-87324200D02*
X202704762Y-87362295D01*
X202704762Y-87362295D02*
X202628571Y-87362295D01*
X203276190Y-86638485D02*
X203314286Y-86600390D01*
X203314286Y-86600390D02*
X203390476Y-86562295D01*
X203390476Y-86562295D02*
X203580952Y-86562295D01*
X203580952Y-86562295D02*
X203657143Y-86600390D01*
X203657143Y-86600390D02*
X203695238Y-86638485D01*
X203695238Y-86638485D02*
X203733333Y-86714676D01*
X203733333Y-86714676D02*
X203733333Y-86790866D01*
X203733333Y-86790866D02*
X203695238Y-86905152D01*
X203695238Y-86905152D02*
X203238095Y-87362295D01*
X203238095Y-87362295D02*
X203733333Y-87362295D01*
X196213332Y-107144200D02*
X196327618Y-107182295D01*
X196327618Y-107182295D02*
X196518094Y-107182295D01*
X196518094Y-107182295D02*
X196594285Y-107144200D01*
X196594285Y-107144200D02*
X196632380Y-107106104D01*
X196632380Y-107106104D02*
X196670475Y-107029914D01*
X196670475Y-107029914D02*
X196670475Y-106953723D01*
X196670475Y-106953723D02*
X196632380Y-106877533D01*
X196632380Y-106877533D02*
X196594285Y-106839438D01*
X196594285Y-106839438D02*
X196518094Y-106801342D01*
X196518094Y-106801342D02*
X196365713Y-106763247D01*
X196365713Y-106763247D02*
X196289523Y-106725152D01*
X196289523Y-106725152D02*
X196251428Y-106687057D01*
X196251428Y-106687057D02*
X196213332Y-106610866D01*
X196213332Y-106610866D02*
X196213332Y-106534676D01*
X196213332Y-106534676D02*
X196251428Y-106458485D01*
X196251428Y-106458485D02*
X196289523Y-106420390D01*
X196289523Y-106420390D02*
X196365713Y-106382295D01*
X196365713Y-106382295D02*
X196556190Y-106382295D01*
X196556190Y-106382295D02*
X196670475Y-106420390D01*
X196937142Y-106382295D02*
X197127618Y-107182295D01*
X197127618Y-107182295D02*
X197279999Y-106610866D01*
X197279999Y-106610866D02*
X197432380Y-107182295D01*
X197432380Y-107182295D02*
X197622857Y-106382295D01*
X198346666Y-107182295D02*
X197889523Y-107182295D01*
X198118095Y-107182295D02*
X198118095Y-106382295D01*
X198118095Y-106382295D02*
X198041904Y-106496580D01*
X198041904Y-106496580D02*
X197965714Y-106572771D01*
X197965714Y-106572771D02*
X197889523Y-106610866D01*
X200109524Y-80062295D02*
X200109524Y-79262295D01*
X200109524Y-79262295D02*
X200300000Y-79262295D01*
X200300000Y-79262295D02*
X200414286Y-79300390D01*
X200414286Y-79300390D02*
X200490476Y-79376580D01*
X200490476Y-79376580D02*
X200528571Y-79452771D01*
X200528571Y-79452771D02*
X200566667Y-79605152D01*
X200566667Y-79605152D02*
X200566667Y-79719438D01*
X200566667Y-79719438D02*
X200528571Y-79871819D01*
X200528571Y-79871819D02*
X200490476Y-79948009D01*
X200490476Y-79948009D02*
X200414286Y-80024200D01*
X200414286Y-80024200D02*
X200300000Y-80062295D01*
X200300000Y-80062295D02*
X200109524Y-80062295D01*
X201252381Y-79262295D02*
X201100000Y-79262295D01*
X201100000Y-79262295D02*
X201023809Y-79300390D01*
X201023809Y-79300390D02*
X200985714Y-79338485D01*
X200985714Y-79338485D02*
X200909524Y-79452771D01*
X200909524Y-79452771D02*
X200871428Y-79605152D01*
X200871428Y-79605152D02*
X200871428Y-79909914D01*
X200871428Y-79909914D02*
X200909524Y-79986104D01*
X200909524Y-79986104D02*
X200947619Y-80024200D01*
X200947619Y-80024200D02*
X201023809Y-80062295D01*
X201023809Y-80062295D02*
X201176190Y-80062295D01*
X201176190Y-80062295D02*
X201252381Y-80024200D01*
X201252381Y-80024200D02*
X201290476Y-79986104D01*
X201290476Y-79986104D02*
X201328571Y-79909914D01*
X201328571Y-79909914D02*
X201328571Y-79719438D01*
X201328571Y-79719438D02*
X201290476Y-79643247D01*
X201290476Y-79643247D02*
X201252381Y-79605152D01*
X201252381Y-79605152D02*
X201176190Y-79567057D01*
X201176190Y-79567057D02*
X201023809Y-79567057D01*
X201023809Y-79567057D02*
X200947619Y-79605152D01*
X200947619Y-79605152D02*
X200909524Y-79643247D01*
X200909524Y-79643247D02*
X200871428Y-79719438D01*
X216934524Y-97862295D02*
X216934524Y-97062295D01*
X216934524Y-97062295D02*
X217125000Y-97062295D01*
X217125000Y-97062295D02*
X217239286Y-97100390D01*
X217239286Y-97100390D02*
X217315476Y-97176580D01*
X217315476Y-97176580D02*
X217353571Y-97252771D01*
X217353571Y-97252771D02*
X217391667Y-97405152D01*
X217391667Y-97405152D02*
X217391667Y-97519438D01*
X217391667Y-97519438D02*
X217353571Y-97671819D01*
X217353571Y-97671819D02*
X217315476Y-97748009D01*
X217315476Y-97748009D02*
X217239286Y-97824200D01*
X217239286Y-97824200D02*
X217125000Y-97862295D01*
X217125000Y-97862295D02*
X216934524Y-97862295D01*
X217658333Y-97062295D02*
X218153571Y-97062295D01*
X218153571Y-97062295D02*
X217886905Y-97367057D01*
X217886905Y-97367057D02*
X218001190Y-97367057D01*
X218001190Y-97367057D02*
X218077381Y-97405152D01*
X218077381Y-97405152D02*
X218115476Y-97443247D01*
X218115476Y-97443247D02*
X218153571Y-97519438D01*
X218153571Y-97519438D02*
X218153571Y-97709914D01*
X218153571Y-97709914D02*
X218115476Y-97786104D01*
X218115476Y-97786104D02*
X218077381Y-97824200D01*
X218077381Y-97824200D02*
X218001190Y-97862295D01*
X218001190Y-97862295D02*
X217772619Y-97862295D01*
X217772619Y-97862295D02*
X217696428Y-97824200D01*
X217696428Y-97824200D02*
X217658333Y-97786104D01*
X216934524Y-101195628D02*
X216934524Y-100395628D01*
X216934524Y-100395628D02*
X217125000Y-100395628D01*
X217125000Y-100395628D02*
X217239286Y-100433723D01*
X217239286Y-100433723D02*
X217315476Y-100509913D01*
X217315476Y-100509913D02*
X217353571Y-100586104D01*
X217353571Y-100586104D02*
X217391667Y-100738485D01*
X217391667Y-100738485D02*
X217391667Y-100852771D01*
X217391667Y-100852771D02*
X217353571Y-101005152D01*
X217353571Y-101005152D02*
X217315476Y-101081342D01*
X217315476Y-101081342D02*
X217239286Y-101157533D01*
X217239286Y-101157533D02*
X217125000Y-101195628D01*
X217125000Y-101195628D02*
X216934524Y-101195628D01*
X218153571Y-101195628D02*
X217696428Y-101195628D01*
X217925000Y-101195628D02*
X217925000Y-100395628D01*
X217925000Y-100395628D02*
X217848809Y-100509913D01*
X217848809Y-100509913D02*
X217772619Y-100586104D01*
X217772619Y-100586104D02*
X217696428Y-100624199D01*
X206669524Y-93182295D02*
X206669524Y-92382295D01*
X206669524Y-92382295D02*
X206860000Y-92382295D01*
X206860000Y-92382295D02*
X206974286Y-92420390D01*
X206974286Y-92420390D02*
X207050476Y-92496580D01*
X207050476Y-92496580D02*
X207088571Y-92572771D01*
X207088571Y-92572771D02*
X207126667Y-92725152D01*
X207126667Y-92725152D02*
X207126667Y-92839438D01*
X207126667Y-92839438D02*
X207088571Y-92991819D01*
X207088571Y-92991819D02*
X207050476Y-93068009D01*
X207050476Y-93068009D02*
X206974286Y-93144200D01*
X206974286Y-93144200D02*
X206860000Y-93182295D01*
X206860000Y-93182295D02*
X206669524Y-93182295D01*
X207393333Y-92382295D02*
X207926667Y-92382295D01*
X207926667Y-92382295D02*
X207583809Y-93182295D01*
X205804761Y-111393247D02*
X205919047Y-111431342D01*
X205919047Y-111431342D02*
X205957142Y-111469438D01*
X205957142Y-111469438D02*
X205995238Y-111545628D01*
X205995238Y-111545628D02*
X205995238Y-111659914D01*
X205995238Y-111659914D02*
X205957142Y-111736104D01*
X205957142Y-111736104D02*
X205919047Y-111774200D01*
X205919047Y-111774200D02*
X205842857Y-111812295D01*
X205842857Y-111812295D02*
X205538095Y-111812295D01*
X205538095Y-111812295D02*
X205538095Y-111012295D01*
X205538095Y-111012295D02*
X205804761Y-111012295D01*
X205804761Y-111012295D02*
X205880952Y-111050390D01*
X205880952Y-111050390D02*
X205919047Y-111088485D01*
X205919047Y-111088485D02*
X205957142Y-111164676D01*
X205957142Y-111164676D02*
X205957142Y-111240866D01*
X205957142Y-111240866D02*
X205919047Y-111317057D01*
X205919047Y-111317057D02*
X205880952Y-111355152D01*
X205880952Y-111355152D02*
X205804761Y-111393247D01*
X205804761Y-111393247D02*
X205538095Y-111393247D01*
X206299999Y-111583723D02*
X206680952Y-111583723D01*
X206223809Y-111812295D02*
X206490476Y-111012295D01*
X206490476Y-111012295D02*
X206757142Y-111812295D01*
X206909523Y-111012295D02*
X207366666Y-111012295D01*
X207138094Y-111812295D02*
X207138094Y-111012295D01*
X207519047Y-111012295D02*
X207976190Y-111012295D01*
X207747618Y-111812295D02*
X207747618Y-111012295D01*
G36*
X238030914Y-97349608D02*
G01*
X238038361Y-97357055D01*
X238053572Y-97387476D01*
X238053572Y-97437779D01*
X238038360Y-97468201D01*
X238027000Y-97479561D01*
X237996582Y-97494771D01*
X237860715Y-97494771D01*
X237860715Y-97330485D01*
X237973544Y-97330485D01*
X238030914Y-97349608D01*
G37*
G36*
X237998429Y-97059980D02*
G01*
X238009789Y-97071340D01*
X238025000Y-97101761D01*
X238025000Y-97123495D01*
X238009789Y-97153915D01*
X237998429Y-97165275D01*
X237968011Y-97180485D01*
X237860715Y-97180485D01*
X237860715Y-97044771D01*
X237968011Y-97044771D01*
X237998429Y-97059980D01*
G37*
G36*
X238627001Y-97059980D02*
G01*
X238660849Y-97093828D01*
X238682143Y-97179004D01*
X238682143Y-97360537D01*
X238660849Y-97445713D01*
X238627001Y-97479561D01*
X238596582Y-97494771D01*
X238517705Y-97494771D01*
X238487285Y-97479561D01*
X238453437Y-97445713D01*
X238432143Y-97360536D01*
X238432143Y-97179005D01*
X238453437Y-97093828D01*
X238487285Y-97059981D01*
X238517705Y-97044771D01*
X238596582Y-97044771D01*
X238627001Y-97059980D01*
G37*
G36*
X239255572Y-97059980D02*
G01*
X239289420Y-97093828D01*
X239310714Y-97179004D01*
X239310714Y-97360537D01*
X239289420Y-97445713D01*
X239255572Y-97479561D01*
X239225153Y-97494771D01*
X239146276Y-97494771D01*
X239115856Y-97479561D01*
X239082008Y-97445713D01*
X239060714Y-97360536D01*
X239060714Y-97179005D01*
X239082008Y-97093828D01*
X239115856Y-97059981D01*
X239146276Y-97044771D01*
X239225153Y-97044771D01*
X239255572Y-97059980D01*
G37*
G36*
X240048559Y-97719771D02*
G01*
X237635715Y-97719771D01*
X237635715Y-96969771D01*
X237710715Y-96969771D01*
X237710715Y-97569771D01*
X237712156Y-97584403D01*
X237723355Y-97611439D01*
X237744047Y-97632131D01*
X237771083Y-97643330D01*
X237785715Y-97644771D01*
X238014286Y-97644771D01*
X238028918Y-97643330D01*
X238031407Y-97642298D01*
X238034095Y-97642108D01*
X238047827Y-97636853D01*
X238104970Y-97608282D01*
X238111267Y-97604318D01*
X238113098Y-97603560D01*
X238115157Y-97601869D01*
X238117413Y-97600450D01*
X238118711Y-97598952D01*
X238124463Y-97594232D01*
X238153034Y-97565660D01*
X238157754Y-97559908D01*
X238159249Y-97558612D01*
X238160667Y-97556358D01*
X238162361Y-97554295D01*
X238163119Y-97552463D01*
X238167082Y-97546169D01*
X238195654Y-97489027D01*
X238200909Y-97475295D01*
X238201100Y-97472605D01*
X238202131Y-97470117D01*
X238203572Y-97455485D01*
X238203572Y-97369771D01*
X238202131Y-97355139D01*
X238201100Y-97352650D01*
X238200909Y-97349961D01*
X238195654Y-97336229D01*
X238167082Y-97279087D01*
X238163118Y-97272790D01*
X238162360Y-97270960D01*
X238160668Y-97268898D01*
X238159249Y-97266644D01*
X238157753Y-97265347D01*
X238153033Y-97259595D01*
X238133635Y-97240197D01*
X238133790Y-97240009D01*
X238134547Y-97238179D01*
X238138511Y-97231883D01*
X238167082Y-97174741D01*
X238168984Y-97169771D01*
X238282143Y-97169771D01*
X238282143Y-97369771D01*
X238282394Y-97372324D01*
X238282232Y-97373417D01*
X238283041Y-97378890D01*
X238283584Y-97384403D01*
X238284006Y-97385424D01*
X238284382Y-97387961D01*
X238312954Y-97502247D01*
X238317901Y-97516093D01*
X238321221Y-97520574D01*
X238323355Y-97525725D01*
X238332682Y-97537090D01*
X238389825Y-97594233D01*
X238395574Y-97598951D01*
X238396874Y-97600450D01*
X238399133Y-97601871D01*
X238401190Y-97603560D01*
X238403017Y-97604317D01*
X238409317Y-97608282D01*
X238466459Y-97636853D01*
X238480191Y-97642108D01*
X238482878Y-97642298D01*
X238485368Y-97643330D01*
X238500000Y-97644771D01*
X238614286Y-97644771D01*
X238628918Y-97643330D01*
X238631407Y-97642298D01*
X238634095Y-97642108D01*
X238647827Y-97636853D01*
X238704970Y-97608282D01*
X238711269Y-97604317D01*
X238713097Y-97603560D01*
X238715153Y-97601871D01*
X238717413Y-97600450D01*
X238718712Y-97598951D01*
X238724462Y-97594233D01*
X238781605Y-97537090D01*
X238790932Y-97525725D01*
X238793065Y-97520573D01*
X238796386Y-97516093D01*
X238801333Y-97502247D01*
X238829904Y-97387961D01*
X238830278Y-97385424D01*
X238830702Y-97384403D01*
X238831245Y-97378888D01*
X238832054Y-97373416D01*
X238831891Y-97372324D01*
X238832143Y-97369771D01*
X238832143Y-97169771D01*
X238910714Y-97169771D01*
X238910714Y-97369771D01*
X238910965Y-97372324D01*
X238910803Y-97373417D01*
X238911612Y-97378890D01*
X238912155Y-97384403D01*
X238912577Y-97385424D01*
X238912953Y-97387961D01*
X238941525Y-97502247D01*
X238946472Y-97516093D01*
X238949792Y-97520574D01*
X238951926Y-97525725D01*
X238961253Y-97537090D01*
X239018396Y-97594233D01*
X239024145Y-97598951D01*
X239025445Y-97600450D01*
X239027704Y-97601871D01*
X239029761Y-97603560D01*
X239031588Y-97604317D01*
X239037888Y-97608282D01*
X239095030Y-97636853D01*
X239108762Y-97642108D01*
X239111449Y-97642298D01*
X239113939Y-97643330D01*
X239128571Y-97644771D01*
X239242857Y-97644771D01*
X239257489Y-97643330D01*
X239259978Y-97642298D01*
X239262666Y-97642108D01*
X239276398Y-97636853D01*
X239333541Y-97608282D01*
X239339840Y-97604317D01*
X239341668Y-97603560D01*
X239343724Y-97601871D01*
X239345984Y-97600450D01*
X239347283Y-97598951D01*
X239353033Y-97594233D01*
X239410176Y-97537090D01*
X239419503Y-97525725D01*
X239421636Y-97520573D01*
X239424957Y-97516093D01*
X239429904Y-97502247D01*
X239458475Y-97387961D01*
X239458849Y-97385424D01*
X239459273Y-97384403D01*
X239459816Y-97378888D01*
X239460625Y-97373416D01*
X239460462Y-97372324D01*
X239460714Y-97369771D01*
X239460714Y-97169771D01*
X239460462Y-97167217D01*
X239460625Y-97166126D01*
X239459816Y-97160653D01*
X239459273Y-97155139D01*
X239458849Y-97154117D01*
X239458475Y-97151581D01*
X239429904Y-97037295D01*
X239424957Y-97023449D01*
X239421636Y-97018968D01*
X239419503Y-97013817D01*
X239410176Y-97002452D01*
X239362863Y-96955139D01*
X239483583Y-96955139D01*
X239483583Y-96984403D01*
X239494782Y-97011439D01*
X239515474Y-97032131D01*
X239542510Y-97043330D01*
X239557142Y-97044771D01*
X239653571Y-97044771D01*
X239653571Y-97569771D01*
X239655012Y-97584403D01*
X239666211Y-97611439D01*
X239686903Y-97632131D01*
X239713939Y-97643330D01*
X239743203Y-97643330D01*
X239770239Y-97632131D01*
X239790931Y-97611439D01*
X239802130Y-97584403D01*
X239803571Y-97569771D01*
X239803571Y-97044771D01*
X239900000Y-97044771D01*
X239914632Y-97043330D01*
X239941668Y-97032131D01*
X239962360Y-97011439D01*
X239973559Y-96984403D01*
X239973559Y-96955139D01*
X239962360Y-96928103D01*
X239941668Y-96907411D01*
X239914632Y-96896212D01*
X239900000Y-96894771D01*
X239557142Y-96894771D01*
X239542510Y-96896212D01*
X239515474Y-96907411D01*
X239494782Y-96928103D01*
X239483583Y-96955139D01*
X239362863Y-96955139D01*
X239353033Y-96945309D01*
X239347283Y-96940590D01*
X239345984Y-96939092D01*
X239343724Y-96937670D01*
X239341668Y-96935982D01*
X239339840Y-96935224D01*
X239333541Y-96931260D01*
X239276398Y-96902689D01*
X239262666Y-96897434D01*
X239259978Y-96897243D01*
X239257489Y-96896212D01*
X239242857Y-96894771D01*
X239128571Y-96894771D01*
X239113939Y-96896212D01*
X239111449Y-96897243D01*
X239108762Y-96897434D01*
X239095030Y-96902689D01*
X239037888Y-96931260D01*
X239031588Y-96935224D01*
X239029761Y-96935982D01*
X239027704Y-96937670D01*
X239025445Y-96939092D01*
X239024145Y-96940590D01*
X239018396Y-96945309D01*
X238961253Y-97002452D01*
X238951926Y-97013817D01*
X238949792Y-97018967D01*
X238946472Y-97023449D01*
X238941525Y-97037295D01*
X238912953Y-97151581D01*
X238912577Y-97154117D01*
X238912155Y-97155139D01*
X238911612Y-97160651D01*
X238910803Y-97166125D01*
X238910965Y-97167217D01*
X238910714Y-97169771D01*
X238832143Y-97169771D01*
X238831891Y-97167217D01*
X238832054Y-97166126D01*
X238831245Y-97160653D01*
X238830702Y-97155139D01*
X238830278Y-97154117D01*
X238829904Y-97151581D01*
X238801333Y-97037295D01*
X238796386Y-97023449D01*
X238793065Y-97018968D01*
X238790932Y-97013817D01*
X238781605Y-97002452D01*
X238724462Y-96945309D01*
X238718712Y-96940590D01*
X238717413Y-96939092D01*
X238715153Y-96937670D01*
X238713097Y-96935982D01*
X238711269Y-96935224D01*
X238704970Y-96931260D01*
X238647827Y-96902689D01*
X238634095Y-96897434D01*
X238631407Y-96897243D01*
X238628918Y-96896212D01*
X238614286Y-96894771D01*
X238500000Y-96894771D01*
X238485368Y-96896212D01*
X238482878Y-96897243D01*
X238480191Y-96897434D01*
X238466459Y-96902689D01*
X238409317Y-96931260D01*
X238403017Y-96935224D01*
X238401190Y-96935982D01*
X238399133Y-96937670D01*
X238396874Y-96939092D01*
X238395574Y-96940590D01*
X238389825Y-96945309D01*
X238332682Y-97002452D01*
X238323355Y-97013817D01*
X238321221Y-97018967D01*
X238317901Y-97023449D01*
X238312954Y-97037295D01*
X238284382Y-97151581D01*
X238284006Y-97154117D01*
X238283584Y-97155139D01*
X238283041Y-97160651D01*
X238282232Y-97166125D01*
X238282394Y-97167217D01*
X238282143Y-97169771D01*
X238168984Y-97169771D01*
X238172337Y-97161009D01*
X238172527Y-97158321D01*
X238173559Y-97155832D01*
X238175000Y-97141200D01*
X238175000Y-97084057D01*
X238173559Y-97069425D01*
X238172527Y-97066935D01*
X238172337Y-97064249D01*
X238167082Y-97050517D01*
X238138511Y-96993373D01*
X238134548Y-96987077D01*
X238133790Y-96985247D01*
X238132098Y-96983185D01*
X238130679Y-96980931D01*
X238129183Y-96979634D01*
X238124463Y-96973882D01*
X238095892Y-96945310D01*
X238090140Y-96940589D01*
X238088842Y-96939092D01*
X238086586Y-96937672D01*
X238084527Y-96935982D01*
X238082696Y-96935223D01*
X238076399Y-96931260D01*
X238019256Y-96902689D01*
X238005524Y-96897434D01*
X238002836Y-96897243D01*
X238000347Y-96896212D01*
X237985715Y-96894771D01*
X237785715Y-96894771D01*
X237771083Y-96896212D01*
X237744047Y-96907411D01*
X237723355Y-96928103D01*
X237712156Y-96955139D01*
X237710715Y-96969771D01*
X237635715Y-96969771D01*
X237635715Y-96819771D01*
X240048559Y-96819771D01*
X240048559Y-97719771D01*
G37*
X233790476Y-96150390D02*
X233714286Y-96112295D01*
X233714286Y-96112295D02*
X233600000Y-96112295D01*
X233600000Y-96112295D02*
X233485714Y-96150390D01*
X233485714Y-96150390D02*
X233409524Y-96226580D01*
X233409524Y-96226580D02*
X233371429Y-96302771D01*
X233371429Y-96302771D02*
X233333333Y-96455152D01*
X233333333Y-96455152D02*
X233333333Y-96569438D01*
X233333333Y-96569438D02*
X233371429Y-96721819D01*
X233371429Y-96721819D02*
X233409524Y-96798009D01*
X233409524Y-96798009D02*
X233485714Y-96874200D01*
X233485714Y-96874200D02*
X233600000Y-96912295D01*
X233600000Y-96912295D02*
X233676191Y-96912295D01*
X233676191Y-96912295D02*
X233790476Y-96874200D01*
X233790476Y-96874200D02*
X233828572Y-96836104D01*
X233828572Y-96836104D02*
X233828572Y-96569438D01*
X233828572Y-96569438D02*
X233676191Y-96569438D01*
X234171429Y-96912295D02*
X234171429Y-96112295D01*
X234171429Y-96112295D02*
X234628572Y-96912295D01*
X234628572Y-96912295D02*
X234628572Y-96112295D01*
X235009524Y-96912295D02*
X235009524Y-96112295D01*
X235009524Y-96112295D02*
X235200000Y-96112295D01*
X235200000Y-96112295D02*
X235314286Y-96150390D01*
X235314286Y-96150390D02*
X235390476Y-96226580D01*
X235390476Y-96226580D02*
X235428571Y-96302771D01*
X235428571Y-96302771D02*
X235466667Y-96455152D01*
X235466667Y-96455152D02*
X235466667Y-96569438D01*
X235466667Y-96569438D02*
X235428571Y-96721819D01*
X235428571Y-96721819D02*
X235390476Y-96798009D01*
X235390476Y-96798009D02*
X235314286Y-96874200D01*
X235314286Y-96874200D02*
X235200000Y-96912295D01*
X235200000Y-96912295D02*
X235009524Y-96912295D01*
X226509523Y-95362295D02*
X227004761Y-95362295D01*
X227004761Y-95362295D02*
X226738095Y-95667057D01*
X226738095Y-95667057D02*
X226852380Y-95667057D01*
X226852380Y-95667057D02*
X226928571Y-95705152D01*
X226928571Y-95705152D02*
X226966666Y-95743247D01*
X226966666Y-95743247D02*
X227004761Y-95819438D01*
X227004761Y-95819438D02*
X227004761Y-96009914D01*
X227004761Y-96009914D02*
X226966666Y-96086104D01*
X226966666Y-96086104D02*
X226928571Y-96124200D01*
X226928571Y-96124200D02*
X226852380Y-96162295D01*
X226852380Y-96162295D02*
X226623809Y-96162295D01*
X226623809Y-96162295D02*
X226547618Y-96124200D01*
X226547618Y-96124200D02*
X226509523Y-96086104D01*
X227233333Y-95362295D02*
X227500000Y-96162295D01*
X227500000Y-96162295D02*
X227766666Y-95362295D01*
X227957142Y-95362295D02*
X228452380Y-95362295D01*
X228452380Y-95362295D02*
X228185714Y-95667057D01*
X228185714Y-95667057D02*
X228299999Y-95667057D01*
X228299999Y-95667057D02*
X228376190Y-95705152D01*
X228376190Y-95705152D02*
X228414285Y-95743247D01*
X228414285Y-95743247D02*
X228452380Y-95819438D01*
X228452380Y-95819438D02*
X228452380Y-96009914D01*
X228452380Y-96009914D02*
X228414285Y-96086104D01*
X228414285Y-96086104D02*
X228376190Y-96124200D01*
X228376190Y-96124200D02*
X228299999Y-96162295D01*
X228299999Y-96162295D02*
X228071428Y-96162295D01*
X228071428Y-96162295D02*
X227995237Y-96124200D01*
X227995237Y-96124200D02*
X227957142Y-96086104D01*
X202357142Y-99593247D02*
X202471428Y-99631342D01*
X202471428Y-99631342D02*
X202509523Y-99669438D01*
X202509523Y-99669438D02*
X202547619Y-99745628D01*
X202547619Y-99745628D02*
X202547619Y-99859914D01*
X202547619Y-99859914D02*
X202509523Y-99936104D01*
X202509523Y-99936104D02*
X202471428Y-99974200D01*
X202471428Y-99974200D02*
X202395238Y-100012295D01*
X202395238Y-100012295D02*
X202090476Y-100012295D01*
X202090476Y-100012295D02*
X202090476Y-99212295D01*
X202090476Y-99212295D02*
X202357142Y-99212295D01*
X202357142Y-99212295D02*
X202433333Y-99250390D01*
X202433333Y-99250390D02*
X202471428Y-99288485D01*
X202471428Y-99288485D02*
X202509523Y-99364676D01*
X202509523Y-99364676D02*
X202509523Y-99440866D01*
X202509523Y-99440866D02*
X202471428Y-99517057D01*
X202471428Y-99517057D02*
X202433333Y-99555152D01*
X202433333Y-99555152D02*
X202357142Y-99593247D01*
X202357142Y-99593247D02*
X202090476Y-99593247D01*
X202890476Y-99212295D02*
X202890476Y-99859914D01*
X202890476Y-99859914D02*
X202928571Y-99936104D01*
X202928571Y-99936104D02*
X202966666Y-99974200D01*
X202966666Y-99974200D02*
X203042857Y-100012295D01*
X203042857Y-100012295D02*
X203195238Y-100012295D01*
X203195238Y-100012295D02*
X203271428Y-99974200D01*
X203271428Y-99974200D02*
X203309523Y-99936104D01*
X203309523Y-99936104D02*
X203347619Y-99859914D01*
X203347619Y-99859914D02*
X203347619Y-99212295D01*
X203690475Y-99974200D02*
X203804761Y-100012295D01*
X203804761Y-100012295D02*
X203995237Y-100012295D01*
X203995237Y-100012295D02*
X204071428Y-99974200D01*
X204071428Y-99974200D02*
X204109523Y-99936104D01*
X204109523Y-99936104D02*
X204147618Y-99859914D01*
X204147618Y-99859914D02*
X204147618Y-99783723D01*
X204147618Y-99783723D02*
X204109523Y-99707533D01*
X204109523Y-99707533D02*
X204071428Y-99669438D01*
X204071428Y-99669438D02*
X203995237Y-99631342D01*
X203995237Y-99631342D02*
X203842856Y-99593247D01*
X203842856Y-99593247D02*
X203766666Y-99555152D01*
X203766666Y-99555152D02*
X203728571Y-99517057D01*
X203728571Y-99517057D02*
X203690475Y-99440866D01*
X203690475Y-99440866D02*
X203690475Y-99364676D01*
X203690475Y-99364676D02*
X203728571Y-99288485D01*
X203728571Y-99288485D02*
X203766666Y-99250390D01*
X203766666Y-99250390D02*
X203842856Y-99212295D01*
X203842856Y-99212295D02*
X204033333Y-99212295D01*
X204033333Y-99212295D02*
X204147618Y-99250390D01*
X216969524Y-99532295D02*
X216969524Y-98732295D01*
X216969524Y-98732295D02*
X217160000Y-98732295D01*
X217160000Y-98732295D02*
X217274286Y-98770390D01*
X217274286Y-98770390D02*
X217350476Y-98846580D01*
X217350476Y-98846580D02*
X217388571Y-98922771D01*
X217388571Y-98922771D02*
X217426667Y-99075152D01*
X217426667Y-99075152D02*
X217426667Y-99189438D01*
X217426667Y-99189438D02*
X217388571Y-99341819D01*
X217388571Y-99341819D02*
X217350476Y-99418009D01*
X217350476Y-99418009D02*
X217274286Y-99494200D01*
X217274286Y-99494200D02*
X217160000Y-99532295D01*
X217160000Y-99532295D02*
X216969524Y-99532295D01*
X218112381Y-98998961D02*
X218112381Y-99532295D01*
X217921905Y-98694200D02*
X217731428Y-99265628D01*
X217731428Y-99265628D02*
X218226667Y-99265628D01*
G36*
X205595200Y-95513894D02*
G01*
X205631217Y-95549911D01*
X205650663Y-95588803D01*
X205675000Y-95686148D01*
X205675000Y-95753393D01*
X205650663Y-95850738D01*
X205631217Y-95889630D01*
X205595200Y-95925647D01*
X205537830Y-95944771D01*
X205482143Y-95944771D01*
X205482143Y-95494771D01*
X205537830Y-95494771D01*
X205595200Y-95513894D01*
G37*
G36*
X205900000Y-96169771D02*
G01*
X201799999Y-96169771D01*
X201799999Y-95534057D01*
X201874999Y-95534057D01*
X201874999Y-95591200D01*
X201876440Y-95605832D01*
X201877470Y-95608320D01*
X201877662Y-95611010D01*
X201882917Y-95624742D01*
X201911489Y-95681884D01*
X201915452Y-95688180D01*
X201916210Y-95690009D01*
X201917900Y-95692068D01*
X201919322Y-95694327D01*
X201920819Y-95695625D01*
X201925537Y-95701374D01*
X201954108Y-95729946D01*
X201959862Y-95734669D01*
X201961159Y-95736164D01*
X201963411Y-95737581D01*
X201965473Y-95739274D01*
X201967305Y-95740032D01*
X201973601Y-95743996D01*
X202030745Y-95772567D01*
X202031812Y-95772975D01*
X202032249Y-95773299D01*
X202038409Y-95775500D01*
X202044477Y-95777822D01*
X202045015Y-95777860D01*
X202046095Y-95778246D01*
X202152396Y-95804822D01*
X202191285Y-95824266D01*
X202202645Y-95835626D01*
X202217856Y-95866047D01*
X202217856Y-95887780D01*
X202202645Y-95918201D01*
X202191285Y-95929561D01*
X202160867Y-95944771D01*
X202047885Y-95944771D01*
X201973716Y-95920049D01*
X201959379Y-95916789D01*
X201930189Y-95918864D01*
X201904015Y-95931951D01*
X201884842Y-95954058D01*
X201875588Y-95981820D01*
X201877663Y-96011010D01*
X201890750Y-96037184D01*
X201912857Y-96056357D01*
X201926282Y-96062351D01*
X202011997Y-96090922D01*
X202019250Y-96092571D01*
X202021082Y-96093330D01*
X202023736Y-96093591D01*
X202026334Y-96094182D01*
X202028308Y-96094041D01*
X202035714Y-96094771D01*
X202178571Y-96094771D01*
X202193203Y-96093330D01*
X202195692Y-96092298D01*
X202198380Y-96092108D01*
X202212112Y-96086853D01*
X202269255Y-96058282D01*
X202275552Y-96054318D01*
X202277383Y-96053560D01*
X202279442Y-96051869D01*
X202281698Y-96050450D01*
X202282996Y-96048952D01*
X202288748Y-96044232D01*
X202317319Y-96015660D01*
X202322039Y-96009907D01*
X202323535Y-96008611D01*
X202324954Y-96006356D01*
X202326646Y-96004295D01*
X202327404Y-96002464D01*
X202331367Y-95996169D01*
X202359938Y-95939025D01*
X202365193Y-95925293D01*
X202365383Y-95922606D01*
X202366415Y-95920117D01*
X202367856Y-95905485D01*
X202367856Y-95848342D01*
X202366415Y-95833710D01*
X202365383Y-95831220D01*
X202365193Y-95828533D01*
X202359938Y-95814801D01*
X202331367Y-95757659D01*
X202327403Y-95751362D01*
X202326646Y-95749533D01*
X202324956Y-95747474D01*
X202323535Y-95745216D01*
X202322036Y-95743916D01*
X202317319Y-95738168D01*
X202288748Y-95709596D01*
X202282996Y-95704875D01*
X202281698Y-95703378D01*
X202279442Y-95701958D01*
X202277383Y-95700268D01*
X202275552Y-95699509D01*
X202269255Y-95695546D01*
X202212112Y-95666975D01*
X202211042Y-95666565D01*
X202210607Y-95666243D01*
X202204461Y-95664047D01*
X202198380Y-95661720D01*
X202197840Y-95661681D01*
X202196761Y-95661296D01*
X202090460Y-95634720D01*
X202051569Y-95615275D01*
X202040210Y-95603916D01*
X202024999Y-95573493D01*
X202024999Y-95551762D01*
X202040210Y-95521339D01*
X202051569Y-95509980D01*
X202081990Y-95494771D01*
X202194972Y-95494771D01*
X202269139Y-95519493D01*
X202283476Y-95522753D01*
X202312666Y-95520678D01*
X202338839Y-95507591D01*
X202358013Y-95485484D01*
X202367267Y-95457722D01*
X202365192Y-95428532D01*
X202353495Y-95405139D01*
X202390726Y-95405139D01*
X202390726Y-95434403D01*
X202401925Y-95461439D01*
X202422617Y-95482131D01*
X202449653Y-95493330D01*
X202464285Y-95494771D01*
X202560714Y-95494771D01*
X202560714Y-96019771D01*
X202562155Y-96034403D01*
X202573354Y-96061439D01*
X202594046Y-96082131D01*
X202621082Y-96093330D01*
X202650346Y-96093330D01*
X202677382Y-96082131D01*
X202698074Y-96061439D01*
X202709273Y-96034403D01*
X202710714Y-96019771D01*
X202710714Y-95494771D01*
X202807143Y-95494771D01*
X202821775Y-95493330D01*
X202848811Y-95482131D01*
X202869503Y-95461439D01*
X202880702Y-95434403D01*
X202880702Y-95419771D01*
X202932143Y-95419771D01*
X202932143Y-96019771D01*
X202933584Y-96034403D01*
X202944783Y-96061439D01*
X202965475Y-96082131D01*
X202992511Y-96093330D01*
X203021775Y-96093330D01*
X203048811Y-96082131D01*
X203069503Y-96061439D01*
X203080702Y-96034403D01*
X203082143Y-96019771D01*
X203082143Y-95757838D01*
X203139179Y-95880059D01*
X203142353Y-95885416D01*
X203143013Y-95887231D01*
X203144188Y-95888514D01*
X203146673Y-95892708D01*
X203155078Y-95900406D01*
X203162777Y-95908812D01*
X203165796Y-95910220D01*
X203168254Y-95912472D01*
X203178963Y-95916366D01*
X203189295Y-95921188D01*
X203192626Y-95921334D01*
X203195755Y-95922472D01*
X203207143Y-95921971D01*
X203218531Y-95922472D01*
X203221659Y-95921334D01*
X203224991Y-95921188D01*
X203235322Y-95916366D01*
X203246032Y-95912472D01*
X203248489Y-95910220D01*
X203251509Y-95908812D01*
X203259207Y-95900406D01*
X203267613Y-95892708D01*
X203270096Y-95888515D01*
X203271273Y-95887231D01*
X203271933Y-95885415D01*
X203275107Y-95880058D01*
X203332143Y-95757838D01*
X203332143Y-96019771D01*
X203333584Y-96034403D01*
X203344783Y-96061439D01*
X203365475Y-96082131D01*
X203392511Y-96093330D01*
X203421775Y-96093330D01*
X203448811Y-96082131D01*
X203469503Y-96061439D01*
X203480702Y-96034403D01*
X203482143Y-96019771D01*
X203482143Y-95534057D01*
X204046428Y-95534057D01*
X204046428Y-95591200D01*
X204047869Y-95605832D01*
X204048899Y-95608320D01*
X204049091Y-95611010D01*
X204054346Y-95624742D01*
X204082918Y-95681884D01*
X204086881Y-95688180D01*
X204087639Y-95690009D01*
X204089329Y-95692068D01*
X204090751Y-95694327D01*
X204092248Y-95695625D01*
X204096966Y-95701374D01*
X204125537Y-95729946D01*
X204131291Y-95734669D01*
X204132588Y-95736164D01*
X204134840Y-95737581D01*
X204136902Y-95739274D01*
X204138734Y-95740032D01*
X204145030Y-95743996D01*
X204202174Y-95772567D01*
X204203241Y-95772975D01*
X204203678Y-95773299D01*
X204209838Y-95775500D01*
X204215906Y-95777822D01*
X204216444Y-95777860D01*
X204217524Y-95778246D01*
X204323825Y-95804822D01*
X204362714Y-95824266D01*
X204374074Y-95835626D01*
X204389285Y-95866047D01*
X204389285Y-95887780D01*
X204374074Y-95918201D01*
X204362714Y-95929561D01*
X204332296Y-95944771D01*
X204219314Y-95944771D01*
X204145145Y-95920049D01*
X204130808Y-95916789D01*
X204101618Y-95918864D01*
X204075444Y-95931951D01*
X204056271Y-95954058D01*
X204047017Y-95981820D01*
X204049092Y-96011010D01*
X204062179Y-96037184D01*
X204084286Y-96056357D01*
X204097711Y-96062351D01*
X204183426Y-96090922D01*
X204190679Y-96092571D01*
X204192511Y-96093330D01*
X204195165Y-96093591D01*
X204197763Y-96094182D01*
X204199737Y-96094041D01*
X204207143Y-96094771D01*
X204350000Y-96094771D01*
X204364632Y-96093330D01*
X204367121Y-96092298D01*
X204369809Y-96092108D01*
X204383541Y-96086853D01*
X204440684Y-96058282D01*
X204446981Y-96054318D01*
X204448812Y-96053560D01*
X204450871Y-96051869D01*
X204453127Y-96050450D01*
X204454425Y-96048952D01*
X204460177Y-96044232D01*
X204488748Y-96015660D01*
X204493468Y-96009907D01*
X204494964Y-96008611D01*
X204496383Y-96006356D01*
X204498075Y-96004295D01*
X204498833Y-96002464D01*
X204502796Y-95996169D01*
X204531367Y-95939025D01*
X204536622Y-95925293D01*
X204536812Y-95922606D01*
X204537844Y-95920117D01*
X204539285Y-95905485D01*
X204539285Y-95848342D01*
X204537844Y-95833710D01*
X204536812Y-95831220D01*
X204536622Y-95828533D01*
X204531367Y-95814801D01*
X204502796Y-95757659D01*
X204498832Y-95751362D01*
X204498075Y-95749533D01*
X204496385Y-95747474D01*
X204494964Y-95745216D01*
X204493465Y-95743916D01*
X204488748Y-95738168D01*
X204460177Y-95709596D01*
X204454425Y-95704875D01*
X204453127Y-95703378D01*
X204450871Y-95701958D01*
X204448812Y-95700268D01*
X204446981Y-95699509D01*
X204440684Y-95695546D01*
X204383541Y-95666975D01*
X204382471Y-95666565D01*
X204382036Y-95666243D01*
X204375890Y-95664047D01*
X204369809Y-95661720D01*
X204369269Y-95661681D01*
X204368190Y-95661296D01*
X204261889Y-95634720D01*
X204222998Y-95615275D01*
X204211639Y-95603916D01*
X204196428Y-95573493D01*
X204196428Y-95551762D01*
X204211639Y-95521339D01*
X204222998Y-95509980D01*
X204253419Y-95494771D01*
X204366401Y-95494771D01*
X204440568Y-95519493D01*
X204454905Y-95522753D01*
X204484095Y-95520678D01*
X204510268Y-95507591D01*
X204529442Y-95485484D01*
X204538696Y-95457722D01*
X204536621Y-95428532D01*
X204533642Y-95422575D01*
X204589338Y-95422575D01*
X204591326Y-95437143D01*
X204734182Y-96037142D01*
X204735912Y-96042164D01*
X204736152Y-96043964D01*
X204737093Y-96045591D01*
X204738973Y-96051043D01*
X204745358Y-96059865D01*
X204750814Y-96069289D01*
X204753872Y-96071630D01*
X204756130Y-96074749D01*
X204765401Y-96080454D01*
X204774052Y-96087076D01*
X204777773Y-96088068D01*
X204781052Y-96090086D01*
X204791801Y-96091809D01*
X204802327Y-96094616D01*
X204806145Y-96094108D01*
X204809947Y-96094718D01*
X204820536Y-96092196D01*
X204831336Y-96090762D01*
X204834670Y-96088831D01*
X204838415Y-96087940D01*
X204847235Y-96081557D01*
X204856661Y-96076100D01*
X204859001Y-96073042D01*
X204862122Y-96070784D01*
X204867829Y-96061508D01*
X204874448Y-96052862D01*
X204876473Y-96047462D01*
X204877458Y-96045862D01*
X204877745Y-96044070D01*
X204879611Y-96039096D01*
X204921428Y-95882279D01*
X204963246Y-96039095D01*
X204965111Y-96044069D01*
X204965399Y-96045862D01*
X204966384Y-96047463D01*
X204968409Y-96052862D01*
X204975027Y-96061508D01*
X204980735Y-96070784D01*
X204983855Y-96073042D01*
X204986196Y-96076100D01*
X204995614Y-96081552D01*
X205004442Y-96087941D01*
X205008192Y-96088833D01*
X205011521Y-96090761D01*
X205022305Y-96092194D01*
X205032910Y-96094719D01*
X205036714Y-96094109D01*
X205040529Y-96094616D01*
X205051050Y-96091810D01*
X205061805Y-96090086D01*
X205065084Y-96088068D01*
X205068805Y-96087076D01*
X205077451Y-96080457D01*
X205086727Y-96074750D01*
X205088985Y-96071629D01*
X205092043Y-96069289D01*
X205097497Y-96059867D01*
X205103884Y-96051043D01*
X205105762Y-96045592D01*
X205106705Y-96043964D01*
X205106944Y-96042162D01*
X205108674Y-96037143D01*
X205251533Y-95437142D01*
X205253520Y-95422574D01*
X205253071Y-95419771D01*
X205332143Y-95419771D01*
X205332143Y-96019771D01*
X205333584Y-96034403D01*
X205344783Y-96061439D01*
X205365475Y-96082131D01*
X205392511Y-96093330D01*
X205407143Y-96094771D01*
X205550000Y-96094771D01*
X205557405Y-96094041D01*
X205559380Y-96094182D01*
X205561977Y-96093591D01*
X205564632Y-96093330D01*
X205566463Y-96092571D01*
X205573717Y-96090922D01*
X205659430Y-96062351D01*
X205672856Y-96056357D01*
X205674891Y-96054591D01*
X205677382Y-96053560D01*
X205688747Y-96044233D01*
X205745890Y-95987090D01*
X205750610Y-95981337D01*
X205752107Y-95980040D01*
X205753526Y-95977784D01*
X205755217Y-95975725D01*
X205755974Y-95973895D01*
X205759939Y-95967598D01*
X205788510Y-95910454D01*
X205788918Y-95909386D01*
X205789242Y-95908950D01*
X205791443Y-95902789D01*
X205793765Y-95896722D01*
X205793803Y-95896183D01*
X205794189Y-95895104D01*
X205822761Y-95780819D01*
X205823136Y-95778280D01*
X205823559Y-95777260D01*
X205824101Y-95771748D01*
X205824911Y-95766274D01*
X205824748Y-95765181D01*
X205825000Y-95762628D01*
X205825000Y-95676914D01*
X205824748Y-95674360D01*
X205824911Y-95673268D01*
X205824101Y-95667793D01*
X205823559Y-95662282D01*
X205823136Y-95661261D01*
X205822761Y-95658723D01*
X205794189Y-95544438D01*
X205793803Y-95543358D01*
X205793765Y-95542820D01*
X205791443Y-95536752D01*
X205789242Y-95530592D01*
X205788918Y-95530155D01*
X205788510Y-95529088D01*
X205759939Y-95471944D01*
X205755974Y-95465646D01*
X205755217Y-95463817D01*
X205753526Y-95461757D01*
X205752107Y-95459502D01*
X205750610Y-95458204D01*
X205745890Y-95452452D01*
X205688747Y-95395309D01*
X205677382Y-95385982D01*
X205674891Y-95384950D01*
X205672856Y-95383185D01*
X205659430Y-95377191D01*
X205573717Y-95348620D01*
X205566463Y-95346970D01*
X205564632Y-95346212D01*
X205561977Y-95345950D01*
X205559380Y-95345360D01*
X205557405Y-95345500D01*
X205550000Y-95344771D01*
X205407143Y-95344771D01*
X205392511Y-95346212D01*
X205365475Y-95357411D01*
X205344783Y-95378103D01*
X205333584Y-95405139D01*
X205332143Y-95419771D01*
X205253071Y-95419771D01*
X205248887Y-95393680D01*
X205233551Y-95368758D01*
X205209844Y-95351601D01*
X205181376Y-95344823D01*
X205152481Y-95349455D01*
X205127559Y-95364792D01*
X205110403Y-95388499D01*
X205105612Y-95402399D01*
X205031598Y-95713255D01*
X204993897Y-95571875D01*
X204992611Y-95568447D01*
X204992420Y-95567006D01*
X204991428Y-95565293D01*
X204988734Y-95558109D01*
X204982720Y-95550252D01*
X204977758Y-95541681D01*
X204973897Y-95538726D01*
X204970947Y-95534871D01*
X204962387Y-95529915D01*
X204954521Y-95523894D01*
X204949823Y-95522641D01*
X204945622Y-95520209D01*
X204935815Y-95518906D01*
X204926245Y-95516354D01*
X204921426Y-95516994D01*
X204916614Y-95516355D01*
X204907053Y-95518904D01*
X204897236Y-95520209D01*
X204893030Y-95522643D01*
X204888338Y-95523895D01*
X204880478Y-95529910D01*
X204871911Y-95534871D01*
X204868957Y-95538729D01*
X204865100Y-95541682D01*
X204860141Y-95550247D01*
X204854124Y-95558108D01*
X204851429Y-95565294D01*
X204850438Y-95567007D01*
X204850246Y-95568449D01*
X204848962Y-95571875D01*
X204811259Y-95713256D01*
X204737246Y-95402399D01*
X204732456Y-95388499D01*
X204715299Y-95364792D01*
X204690377Y-95349456D01*
X204661482Y-95344823D01*
X204633014Y-95351601D01*
X204609307Y-95368758D01*
X204593971Y-95393680D01*
X204589338Y-95422575D01*
X204533642Y-95422575D01*
X204523534Y-95402358D01*
X204501427Y-95383185D01*
X204488001Y-95377191D01*
X204402288Y-95348620D01*
X204395034Y-95346970D01*
X204393203Y-95346212D01*
X204390548Y-95345950D01*
X204387951Y-95345360D01*
X204385976Y-95345500D01*
X204378571Y-95344771D01*
X204235714Y-95344771D01*
X204221082Y-95346212D01*
X204218592Y-95347243D01*
X204215906Y-95347434D01*
X204202174Y-95352689D01*
X204145030Y-95381260D01*
X204138734Y-95385223D01*
X204136902Y-95385982D01*
X204134840Y-95387674D01*
X204132588Y-95389092D01*
X204131291Y-95390586D01*
X204125537Y-95395310D01*
X204096966Y-95423882D01*
X204092245Y-95429633D01*
X204090751Y-95430930D01*
X204089332Y-95433183D01*
X204087639Y-95435247D01*
X204086880Y-95437078D01*
X204082918Y-95443373D01*
X204054346Y-95500516D01*
X204049091Y-95514247D01*
X204048899Y-95516936D01*
X204047869Y-95519425D01*
X204046428Y-95534057D01*
X203482143Y-95534057D01*
X203482143Y-95419771D01*
X203481195Y-95410149D01*
X203481273Y-95408383D01*
X203480928Y-95407434D01*
X203480702Y-95405139D01*
X203475720Y-95393112D01*
X203471273Y-95380882D01*
X203470143Y-95379648D01*
X203469503Y-95378103D01*
X203460297Y-95368897D01*
X203451509Y-95359301D01*
X203449993Y-95358593D01*
X203448811Y-95357411D01*
X203436789Y-95352431D01*
X203424991Y-95346925D01*
X203423319Y-95346851D01*
X203421775Y-95346212D01*
X203408756Y-95346212D01*
X203395755Y-95345641D01*
X203394185Y-95346212D01*
X203392511Y-95346212D01*
X203380484Y-95351193D01*
X203368254Y-95355641D01*
X203367020Y-95356770D01*
X203365475Y-95357411D01*
X203356269Y-95366616D01*
X203346673Y-95375405D01*
X203345498Y-95377387D01*
X203344783Y-95378103D01*
X203344105Y-95379738D01*
X203339179Y-95388054D01*
X203207142Y-95670988D01*
X203075107Y-95388055D01*
X203070181Y-95379739D01*
X203069503Y-95378103D01*
X203068787Y-95377387D01*
X203067613Y-95375405D01*
X203058016Y-95366616D01*
X203048811Y-95357411D01*
X203047265Y-95356770D01*
X203046032Y-95355641D01*
X203033801Y-95351193D01*
X203021775Y-95346212D01*
X203020101Y-95346212D01*
X203018531Y-95345641D01*
X203005530Y-95346212D01*
X202992511Y-95346212D01*
X202990966Y-95346851D01*
X202989295Y-95346925D01*
X202977496Y-95352431D01*
X202965475Y-95357411D01*
X202964292Y-95358593D01*
X202962777Y-95359301D01*
X202953988Y-95368897D01*
X202944783Y-95378103D01*
X202944142Y-95379648D01*
X202943013Y-95380882D01*
X202938565Y-95393112D01*
X202933584Y-95405139D01*
X202933357Y-95407434D01*
X202933013Y-95408383D01*
X202933090Y-95410149D01*
X202932143Y-95419771D01*
X202880702Y-95419771D01*
X202880702Y-95405139D01*
X202869503Y-95378103D01*
X202848811Y-95357411D01*
X202821775Y-95346212D01*
X202807143Y-95344771D01*
X202464285Y-95344771D01*
X202449653Y-95346212D01*
X202422617Y-95357411D01*
X202401925Y-95378103D01*
X202390726Y-95405139D01*
X202353495Y-95405139D01*
X202352105Y-95402358D01*
X202329998Y-95383185D01*
X202316572Y-95377191D01*
X202230859Y-95348620D01*
X202223605Y-95346970D01*
X202221774Y-95346212D01*
X202219119Y-95345950D01*
X202216522Y-95345360D01*
X202214547Y-95345500D01*
X202207142Y-95344771D01*
X202064285Y-95344771D01*
X202049653Y-95346212D01*
X202047163Y-95347243D01*
X202044477Y-95347434D01*
X202030745Y-95352689D01*
X201973601Y-95381260D01*
X201967305Y-95385223D01*
X201965473Y-95385982D01*
X201963411Y-95387674D01*
X201961159Y-95389092D01*
X201959862Y-95390586D01*
X201954108Y-95395310D01*
X201925537Y-95423882D01*
X201920816Y-95429633D01*
X201919322Y-95430930D01*
X201917903Y-95433183D01*
X201916210Y-95435247D01*
X201915451Y-95437078D01*
X201911489Y-95443373D01*
X201882917Y-95500516D01*
X201877662Y-95514247D01*
X201877470Y-95516936D01*
X201876440Y-95519425D01*
X201874999Y-95534057D01*
X201799999Y-95534057D01*
X201799999Y-95269771D01*
X205900000Y-95269771D01*
X205900000Y-96169771D01*
G37*
G36*
X218126999Y-71359980D02*
G01*
X218138359Y-71371340D01*
X218153571Y-71401762D01*
X218153571Y-71452065D01*
X218138360Y-71482486D01*
X218127001Y-71493845D01*
X218096579Y-71509057D01*
X217960714Y-71509057D01*
X217960714Y-71344771D01*
X218096581Y-71344771D01*
X218126999Y-71359980D01*
G37*
G36*
X220548559Y-72019771D02*
G01*
X217735714Y-72019771D01*
X217735714Y-71269771D01*
X217810714Y-71269771D01*
X217810714Y-71869771D01*
X217812155Y-71884403D01*
X217823354Y-71911439D01*
X217844046Y-71932131D01*
X217871082Y-71943330D01*
X217900346Y-71943330D01*
X217927382Y-71932131D01*
X217948074Y-71911439D01*
X217959273Y-71884403D01*
X217960714Y-71869771D01*
X217960714Y-71659057D01*
X217989522Y-71659057D01*
X218167128Y-71912780D01*
X218176700Y-71923941D01*
X218201378Y-71939667D01*
X218230196Y-71944753D01*
X218258767Y-71938423D01*
X218282741Y-71921642D01*
X218298468Y-71896963D01*
X218303553Y-71868145D01*
X218297223Y-71839574D01*
X218290013Y-71826761D01*
X218162086Y-71644008D01*
X218204969Y-71622567D01*
X218211265Y-71618603D01*
X218213096Y-71617845D01*
X218215157Y-71616153D01*
X218217412Y-71614734D01*
X218218708Y-71613238D01*
X218224461Y-71608518D01*
X218253032Y-71579947D01*
X218257752Y-71574194D01*
X218259248Y-71572898D01*
X218260667Y-71570643D01*
X218262359Y-71568582D01*
X218263117Y-71566751D01*
X218267081Y-71560455D01*
X218295653Y-71503313D01*
X218300908Y-71489581D01*
X218301099Y-71486891D01*
X218302130Y-71484403D01*
X218303571Y-71469771D01*
X218303571Y-71384057D01*
X218302130Y-71369425D01*
X218301099Y-71366936D01*
X218300908Y-71364247D01*
X218295653Y-71350515D01*
X218267081Y-71293373D01*
X218263118Y-71287078D01*
X218262360Y-71285247D01*
X218260666Y-71283183D01*
X218259248Y-71280930D01*
X218257753Y-71279633D01*
X218253033Y-71273882D01*
X218248922Y-71269771D01*
X218410714Y-71269771D01*
X218410714Y-71869771D01*
X218412155Y-71884403D01*
X218423354Y-71911439D01*
X218444046Y-71932131D01*
X218471082Y-71943330D01*
X218485714Y-71944771D01*
X218771428Y-71944771D01*
X218786060Y-71943330D01*
X218813096Y-71932131D01*
X218833788Y-71911439D01*
X218844987Y-71884403D01*
X218844987Y-71855139D01*
X218833788Y-71828103D01*
X218813096Y-71807411D01*
X218786060Y-71796212D01*
X218771428Y-71794771D01*
X218560714Y-71794771D01*
X218560714Y-71630485D01*
X218685714Y-71630485D01*
X218700346Y-71629044D01*
X218727382Y-71617845D01*
X218748074Y-71597153D01*
X218759273Y-71570117D01*
X218759273Y-71540853D01*
X218748074Y-71513817D01*
X218727382Y-71493125D01*
X218700346Y-71481926D01*
X218685714Y-71480485D01*
X218560714Y-71480485D01*
X218560714Y-71384057D01*
X218924999Y-71384057D01*
X218924999Y-71441200D01*
X218926440Y-71455832D01*
X218927470Y-71458320D01*
X218927662Y-71461010D01*
X218932917Y-71474742D01*
X218961489Y-71531884D01*
X218965452Y-71538180D01*
X218966210Y-71540009D01*
X218967900Y-71542068D01*
X218969322Y-71544327D01*
X218970819Y-71545625D01*
X218975537Y-71551374D01*
X219004108Y-71579946D01*
X219009862Y-71584669D01*
X219011159Y-71586164D01*
X219013411Y-71587581D01*
X219015473Y-71589274D01*
X219017305Y-71590032D01*
X219023601Y-71593996D01*
X219080745Y-71622567D01*
X219081812Y-71622975D01*
X219082249Y-71623299D01*
X219088409Y-71625500D01*
X219094477Y-71627822D01*
X219095015Y-71627860D01*
X219096095Y-71628246D01*
X219202396Y-71654822D01*
X219241285Y-71674266D01*
X219252645Y-71685626D01*
X219267856Y-71716047D01*
X219267856Y-71737780D01*
X219252645Y-71768201D01*
X219241285Y-71779561D01*
X219210867Y-71794771D01*
X219097885Y-71794771D01*
X219023716Y-71770049D01*
X219009379Y-71766789D01*
X218980189Y-71768864D01*
X218954015Y-71781951D01*
X218934842Y-71804058D01*
X218925588Y-71831820D01*
X218927663Y-71861010D01*
X218940750Y-71887184D01*
X218962857Y-71906357D01*
X218976282Y-71912351D01*
X219061997Y-71940922D01*
X219069250Y-71942571D01*
X219071082Y-71943330D01*
X219073736Y-71943591D01*
X219076334Y-71944182D01*
X219078308Y-71944041D01*
X219085714Y-71944771D01*
X219228571Y-71944771D01*
X219243203Y-71943330D01*
X219245692Y-71942298D01*
X219248380Y-71942108D01*
X219262112Y-71936853D01*
X219319255Y-71908282D01*
X219325552Y-71904318D01*
X219327383Y-71903560D01*
X219329442Y-71901869D01*
X219331698Y-71900450D01*
X219332996Y-71898952D01*
X219338748Y-71894232D01*
X219367319Y-71865660D01*
X219372039Y-71859907D01*
X219373535Y-71858611D01*
X219374954Y-71856356D01*
X219376646Y-71854295D01*
X219377404Y-71852464D01*
X219381367Y-71846169D01*
X219409938Y-71789025D01*
X219415193Y-71775293D01*
X219415383Y-71772606D01*
X219416415Y-71770117D01*
X219417856Y-71755485D01*
X219417856Y-71698342D01*
X219416415Y-71683710D01*
X219415383Y-71681220D01*
X219415193Y-71678533D01*
X219409938Y-71664801D01*
X219381367Y-71607659D01*
X219377403Y-71601362D01*
X219376646Y-71599533D01*
X219374956Y-71597474D01*
X219373535Y-71595216D01*
X219372036Y-71593916D01*
X219367319Y-71588168D01*
X219338748Y-71559596D01*
X219332996Y-71554875D01*
X219331698Y-71553378D01*
X219329442Y-71551958D01*
X219327383Y-71550268D01*
X219325552Y-71549509D01*
X219319255Y-71545546D01*
X219262112Y-71516975D01*
X219261042Y-71516565D01*
X219260607Y-71516243D01*
X219254461Y-71514047D01*
X219248380Y-71511720D01*
X219247840Y-71511681D01*
X219246761Y-71511296D01*
X219140460Y-71484720D01*
X219101569Y-71465275D01*
X219090210Y-71453916D01*
X219074999Y-71423493D01*
X219074999Y-71401762D01*
X219090210Y-71371339D01*
X219101569Y-71359980D01*
X219131990Y-71344771D01*
X219244972Y-71344771D01*
X219319139Y-71369493D01*
X219333476Y-71372753D01*
X219362666Y-71370678D01*
X219388839Y-71357591D01*
X219408013Y-71335484D01*
X219417267Y-71307722D01*
X219415192Y-71278532D01*
X219410811Y-71269771D01*
X219525000Y-71269771D01*
X219525000Y-71869771D01*
X219526441Y-71884403D01*
X219537640Y-71911439D01*
X219558332Y-71932131D01*
X219585368Y-71943330D01*
X219600000Y-71944771D01*
X219885714Y-71944771D01*
X219900346Y-71943330D01*
X219927382Y-71932131D01*
X219948074Y-71911439D01*
X219959273Y-71884403D01*
X219959273Y-71855139D01*
X219948074Y-71828103D01*
X219927382Y-71807411D01*
X219900346Y-71796212D01*
X219885714Y-71794771D01*
X219675000Y-71794771D01*
X219675000Y-71630485D01*
X219800000Y-71630485D01*
X219814632Y-71629044D01*
X219841668Y-71617845D01*
X219862360Y-71597153D01*
X219873559Y-71570117D01*
X219873559Y-71540853D01*
X219862360Y-71513817D01*
X219841668Y-71493125D01*
X219814632Y-71481926D01*
X219800000Y-71480485D01*
X219675000Y-71480485D01*
X219675000Y-71344771D01*
X219885714Y-71344771D01*
X219900346Y-71343330D01*
X219927382Y-71332131D01*
X219948074Y-71311439D01*
X219959273Y-71284403D01*
X219959273Y-71255139D01*
X219983583Y-71255139D01*
X219983583Y-71284403D01*
X219994782Y-71311439D01*
X220015474Y-71332131D01*
X220042510Y-71343330D01*
X220057142Y-71344771D01*
X220153571Y-71344771D01*
X220153571Y-71869771D01*
X220155012Y-71884403D01*
X220166211Y-71911439D01*
X220186903Y-71932131D01*
X220213939Y-71943330D01*
X220243203Y-71943330D01*
X220270239Y-71932131D01*
X220290931Y-71911439D01*
X220302130Y-71884403D01*
X220303571Y-71869771D01*
X220303571Y-71344771D01*
X220400000Y-71344771D01*
X220414632Y-71343330D01*
X220441668Y-71332131D01*
X220462360Y-71311439D01*
X220473559Y-71284403D01*
X220473559Y-71255139D01*
X220462360Y-71228103D01*
X220441668Y-71207411D01*
X220414632Y-71196212D01*
X220400000Y-71194771D01*
X220057142Y-71194771D01*
X220042510Y-71196212D01*
X220015474Y-71207411D01*
X219994782Y-71228103D01*
X219983583Y-71255139D01*
X219959273Y-71255139D01*
X219948074Y-71228103D01*
X219927382Y-71207411D01*
X219900346Y-71196212D01*
X219885714Y-71194771D01*
X219600000Y-71194771D01*
X219585368Y-71196212D01*
X219558332Y-71207411D01*
X219537640Y-71228103D01*
X219526441Y-71255139D01*
X219525000Y-71269771D01*
X219410811Y-71269771D01*
X219402105Y-71252358D01*
X219379998Y-71233185D01*
X219366572Y-71227191D01*
X219280859Y-71198620D01*
X219273605Y-71196970D01*
X219271774Y-71196212D01*
X219269119Y-71195950D01*
X219266522Y-71195360D01*
X219264547Y-71195500D01*
X219257142Y-71194771D01*
X219114285Y-71194771D01*
X219099653Y-71196212D01*
X219097163Y-71197243D01*
X219094477Y-71197434D01*
X219080745Y-71202689D01*
X219023601Y-71231260D01*
X219017305Y-71235223D01*
X219015473Y-71235982D01*
X219013411Y-71237674D01*
X219011159Y-71239092D01*
X219009862Y-71240586D01*
X219004108Y-71245310D01*
X218975537Y-71273882D01*
X218970816Y-71279633D01*
X218969322Y-71280930D01*
X218967903Y-71283183D01*
X218966210Y-71285247D01*
X218965451Y-71287078D01*
X218961489Y-71293373D01*
X218932917Y-71350516D01*
X218927662Y-71364247D01*
X218927470Y-71366936D01*
X218926440Y-71369425D01*
X218924999Y-71384057D01*
X218560714Y-71384057D01*
X218560714Y-71344771D01*
X218771428Y-71344771D01*
X218786060Y-71343330D01*
X218813096Y-71332131D01*
X218833788Y-71311439D01*
X218844987Y-71284403D01*
X218844987Y-71255139D01*
X218833788Y-71228103D01*
X218813096Y-71207411D01*
X218786060Y-71196212D01*
X218771428Y-71194771D01*
X218485714Y-71194771D01*
X218471082Y-71196212D01*
X218444046Y-71207411D01*
X218423354Y-71228103D01*
X218412155Y-71255139D01*
X218410714Y-71269771D01*
X218248922Y-71269771D01*
X218224462Y-71245310D01*
X218218710Y-71240589D01*
X218217412Y-71239092D01*
X218215156Y-71237672D01*
X218213097Y-71235982D01*
X218211266Y-71235223D01*
X218204969Y-71231260D01*
X218147826Y-71202689D01*
X218134094Y-71197434D01*
X218131406Y-71197243D01*
X218128917Y-71196212D01*
X218114285Y-71194771D01*
X217885714Y-71194771D01*
X217871082Y-71196212D01*
X217844046Y-71207411D01*
X217823354Y-71228103D01*
X217812155Y-71255139D01*
X217810714Y-71269771D01*
X217735714Y-71269771D01*
X217735714Y-71119771D01*
X220548559Y-71119771D01*
X220548559Y-72019771D01*
G37*
X209040476Y-109062295D02*
X209040476Y-109709914D01*
X209040476Y-109709914D02*
X209078571Y-109786104D01*
X209078571Y-109786104D02*
X209116666Y-109824200D01*
X209116666Y-109824200D02*
X209192857Y-109862295D01*
X209192857Y-109862295D02*
X209345238Y-109862295D01*
X209345238Y-109862295D02*
X209421428Y-109824200D01*
X209421428Y-109824200D02*
X209459523Y-109786104D01*
X209459523Y-109786104D02*
X209497619Y-109709914D01*
X209497619Y-109709914D02*
X209497619Y-109062295D01*
X210297618Y-109862295D02*
X209840475Y-109862295D01*
X210069047Y-109862295D02*
X210069047Y-109062295D01*
X210069047Y-109062295D02*
X209992856Y-109176580D01*
X209992856Y-109176580D02*
X209916666Y-109252771D01*
X209916666Y-109252771D02*
X209840475Y-109290866D01*
X207790476Y-83500390D02*
X207714286Y-83462295D01*
X207714286Y-83462295D02*
X207600000Y-83462295D01*
X207600000Y-83462295D02*
X207485714Y-83500390D01*
X207485714Y-83500390D02*
X207409524Y-83576580D01*
X207409524Y-83576580D02*
X207371429Y-83652771D01*
X207371429Y-83652771D02*
X207333333Y-83805152D01*
X207333333Y-83805152D02*
X207333333Y-83919438D01*
X207333333Y-83919438D02*
X207371429Y-84071819D01*
X207371429Y-84071819D02*
X207409524Y-84148009D01*
X207409524Y-84148009D02*
X207485714Y-84224200D01*
X207485714Y-84224200D02*
X207600000Y-84262295D01*
X207600000Y-84262295D02*
X207676191Y-84262295D01*
X207676191Y-84262295D02*
X207790476Y-84224200D01*
X207790476Y-84224200D02*
X207828572Y-84186104D01*
X207828572Y-84186104D02*
X207828572Y-83919438D01*
X207828572Y-83919438D02*
X207676191Y-83919438D01*
X208171429Y-84262295D02*
X208171429Y-83462295D01*
X208171429Y-83462295D02*
X208628572Y-84262295D01*
X208628572Y-84262295D02*
X208628572Y-83462295D01*
X209009524Y-84262295D02*
X209009524Y-83462295D01*
X209009524Y-83462295D02*
X209200000Y-83462295D01*
X209200000Y-83462295D02*
X209314286Y-83500390D01*
X209314286Y-83500390D02*
X209390476Y-83576580D01*
X209390476Y-83576580D02*
X209428571Y-83652771D01*
X209428571Y-83652771D02*
X209466667Y-83805152D01*
X209466667Y-83805152D02*
X209466667Y-83919438D01*
X209466667Y-83919438D02*
X209428571Y-84071819D01*
X209428571Y-84071819D02*
X209390476Y-84148009D01*
X209390476Y-84148009D02*
X209314286Y-84224200D01*
X209314286Y-84224200D02*
X209200000Y-84262295D01*
X209200000Y-84262295D02*
X209009524Y-84262295D01*
X208040476Y-85362295D02*
X208040476Y-86009914D01*
X208040476Y-86009914D02*
X208078571Y-86086104D01*
X208078571Y-86086104D02*
X208116666Y-86124200D01*
X208116666Y-86124200D02*
X208192857Y-86162295D01*
X208192857Y-86162295D02*
X208345238Y-86162295D01*
X208345238Y-86162295D02*
X208421428Y-86124200D01*
X208421428Y-86124200D02*
X208459523Y-86086104D01*
X208459523Y-86086104D02*
X208497619Y-86009914D01*
X208497619Y-86009914D02*
X208497619Y-85362295D01*
X208802380Y-85362295D02*
X209297618Y-85362295D01*
X209297618Y-85362295D02*
X209030952Y-85667057D01*
X209030952Y-85667057D02*
X209145237Y-85667057D01*
X209145237Y-85667057D02*
X209221428Y-85705152D01*
X209221428Y-85705152D02*
X209259523Y-85743247D01*
X209259523Y-85743247D02*
X209297618Y-85819438D01*
X209297618Y-85819438D02*
X209297618Y-86009914D01*
X209297618Y-86009914D02*
X209259523Y-86086104D01*
X209259523Y-86086104D02*
X209221428Y-86124200D01*
X209221428Y-86124200D02*
X209145237Y-86162295D01*
X209145237Y-86162295D02*
X208916666Y-86162295D01*
X208916666Y-86162295D02*
X208840475Y-86124200D01*
X208840475Y-86124200D02*
X208802380Y-86086104D01*
X224366666Y-97062295D02*
X223985714Y-97062295D01*
X223985714Y-97062295D02*
X223985714Y-96262295D01*
X225052380Y-97062295D02*
X224595237Y-97062295D01*
X224823809Y-97062295D02*
X224823809Y-96262295D01*
X224823809Y-96262295D02*
X224747618Y-96376580D01*
X224747618Y-96376580D02*
X224671428Y-96452771D01*
X224671428Y-96452771D02*
X224595237Y-96490866D01*
X216909524Y-102867295D02*
X216909524Y-102067295D01*
X216909524Y-102067295D02*
X217100000Y-102067295D01*
X217100000Y-102067295D02*
X217214286Y-102105390D01*
X217214286Y-102105390D02*
X217290476Y-102181580D01*
X217290476Y-102181580D02*
X217328571Y-102257771D01*
X217328571Y-102257771D02*
X217366667Y-102410152D01*
X217366667Y-102410152D02*
X217366667Y-102524438D01*
X217366667Y-102524438D02*
X217328571Y-102676819D01*
X217328571Y-102676819D02*
X217290476Y-102753009D01*
X217290476Y-102753009D02*
X217214286Y-102829200D01*
X217214286Y-102829200D02*
X217100000Y-102867295D01*
X217100000Y-102867295D02*
X216909524Y-102867295D01*
X217671428Y-102143485D02*
X217709524Y-102105390D01*
X217709524Y-102105390D02*
X217785714Y-102067295D01*
X217785714Y-102067295D02*
X217976190Y-102067295D01*
X217976190Y-102067295D02*
X218052381Y-102105390D01*
X218052381Y-102105390D02*
X218090476Y-102143485D01*
X218090476Y-102143485D02*
X218128571Y-102219676D01*
X218128571Y-102219676D02*
X218128571Y-102295866D01*
X218128571Y-102295866D02*
X218090476Y-102410152D01*
X218090476Y-102410152D02*
X217633333Y-102867295D01*
X217633333Y-102867295D02*
X218128571Y-102867295D01*
G36*
X220155571Y-66759980D02*
G01*
X220166931Y-66771340D01*
X220182143Y-66801762D01*
X220182143Y-66852065D01*
X220166932Y-66882486D01*
X220155573Y-66893845D01*
X220125151Y-66909057D01*
X219989286Y-66909057D01*
X219989286Y-66744771D01*
X220125153Y-66744771D01*
X220155571Y-66759980D01*
G37*
G36*
X220407143Y-67419771D02*
G01*
X218021429Y-67419771D01*
X218021429Y-66669771D01*
X218096429Y-66669771D01*
X218096429Y-67155485D01*
X218097870Y-67170117D01*
X218098901Y-67172606D01*
X218099092Y-67175294D01*
X218104347Y-67189026D01*
X218132918Y-67246169D01*
X218136882Y-67252468D01*
X218137640Y-67254296D01*
X218139328Y-67256352D01*
X218140750Y-67258612D01*
X218142248Y-67259911D01*
X218146967Y-67265661D01*
X218175539Y-67294233D01*
X218181289Y-67298953D01*
X218182588Y-67300450D01*
X218184842Y-67301869D01*
X218186904Y-67303561D01*
X218188736Y-67304319D01*
X218195031Y-67308282D01*
X218252173Y-67336853D01*
X218265905Y-67342108D01*
X218268592Y-67342298D01*
X218271082Y-67343330D01*
X218285714Y-67344771D01*
X218400000Y-67344771D01*
X218414632Y-67343330D01*
X218417121Y-67342298D01*
X218419809Y-67342108D01*
X218433541Y-67336853D01*
X218490684Y-67308282D01*
X218496981Y-67304318D01*
X218498812Y-67303560D01*
X218500871Y-67301869D01*
X218503127Y-67300450D01*
X218504425Y-67298952D01*
X218510177Y-67294232D01*
X218538748Y-67265660D01*
X218543468Y-67259908D01*
X218544963Y-67258612D01*
X218546381Y-67256358D01*
X218548075Y-67254295D01*
X218548833Y-67252463D01*
X218552796Y-67246169D01*
X218581368Y-67189027D01*
X218586623Y-67175295D01*
X218586814Y-67172605D01*
X218587845Y-67170117D01*
X218589286Y-67155485D01*
X218589286Y-66784057D01*
X218696428Y-66784057D01*
X218696428Y-66841200D01*
X218697869Y-66855832D01*
X218698899Y-66858320D01*
X218699091Y-66861010D01*
X218704346Y-66874742D01*
X218732918Y-66931884D01*
X218736881Y-66938180D01*
X218737639Y-66940009D01*
X218739329Y-66942068D01*
X218740751Y-66944327D01*
X218742248Y-66945625D01*
X218746966Y-66951374D01*
X218775537Y-66979946D01*
X218781291Y-66984669D01*
X218782588Y-66986164D01*
X218784840Y-66987581D01*
X218786902Y-66989274D01*
X218788734Y-66990032D01*
X218795030Y-66993996D01*
X218852174Y-67022567D01*
X218853241Y-67022975D01*
X218853678Y-67023299D01*
X218859838Y-67025500D01*
X218865906Y-67027822D01*
X218866444Y-67027860D01*
X218867524Y-67028246D01*
X218973825Y-67054822D01*
X219012714Y-67074266D01*
X219024074Y-67085626D01*
X219039285Y-67116047D01*
X219039285Y-67137780D01*
X219024074Y-67168201D01*
X219012714Y-67179561D01*
X218982296Y-67194771D01*
X218869314Y-67194771D01*
X218795145Y-67170049D01*
X218780808Y-67166789D01*
X218751618Y-67168864D01*
X218725444Y-67181951D01*
X218706271Y-67204058D01*
X218697017Y-67231820D01*
X218699092Y-67261010D01*
X218712179Y-67287184D01*
X218734286Y-67306357D01*
X218747711Y-67312351D01*
X218833426Y-67340922D01*
X218840679Y-67342571D01*
X218842511Y-67343330D01*
X218845165Y-67343591D01*
X218847763Y-67344182D01*
X218849737Y-67344041D01*
X218857143Y-67344771D01*
X219000000Y-67344771D01*
X219014632Y-67343330D01*
X219017121Y-67342298D01*
X219019809Y-67342108D01*
X219033541Y-67336853D01*
X219090684Y-67308282D01*
X219096981Y-67304318D01*
X219098812Y-67303560D01*
X219100871Y-67301869D01*
X219103127Y-67300450D01*
X219104425Y-67298952D01*
X219110177Y-67294232D01*
X219138748Y-67265660D01*
X219143468Y-67259907D01*
X219144964Y-67258611D01*
X219146383Y-67256356D01*
X219148075Y-67254295D01*
X219148833Y-67252464D01*
X219152796Y-67246169D01*
X219181367Y-67189025D01*
X219186622Y-67175293D01*
X219186812Y-67172606D01*
X219187844Y-67170117D01*
X219189285Y-67155485D01*
X219189285Y-67098342D01*
X219187844Y-67083710D01*
X219186812Y-67081220D01*
X219186622Y-67078533D01*
X219181367Y-67064801D01*
X219152796Y-67007659D01*
X219148832Y-67001362D01*
X219148075Y-66999533D01*
X219146385Y-66997474D01*
X219144964Y-66995216D01*
X219143465Y-66993916D01*
X219138748Y-66988168D01*
X219110177Y-66959596D01*
X219104425Y-66954875D01*
X219103127Y-66953378D01*
X219100871Y-66951958D01*
X219098812Y-66950268D01*
X219096981Y-66949509D01*
X219090684Y-66945546D01*
X219033541Y-66916975D01*
X219032471Y-66916565D01*
X219032036Y-66916243D01*
X219025890Y-66914047D01*
X219019809Y-66911720D01*
X219019269Y-66911681D01*
X219018190Y-66911296D01*
X218911889Y-66884720D01*
X218872998Y-66865275D01*
X218861639Y-66853916D01*
X218846428Y-66823493D01*
X218846428Y-66801762D01*
X218861639Y-66771339D01*
X218872998Y-66759980D01*
X218903419Y-66744771D01*
X219016401Y-66744771D01*
X219090568Y-66769493D01*
X219104905Y-66772753D01*
X219134095Y-66770678D01*
X219160268Y-66757591D01*
X219179442Y-66735484D01*
X219188696Y-66707722D01*
X219186621Y-66678532D01*
X219182240Y-66669771D01*
X219296429Y-66669771D01*
X219296429Y-67269771D01*
X219297870Y-67284403D01*
X219309069Y-67311439D01*
X219329761Y-67332131D01*
X219356797Y-67343330D01*
X219371429Y-67344771D01*
X219657143Y-67344771D01*
X219671775Y-67343330D01*
X219698811Y-67332131D01*
X219719503Y-67311439D01*
X219730702Y-67284403D01*
X219730702Y-67255139D01*
X219719503Y-67228103D01*
X219698811Y-67207411D01*
X219671775Y-67196212D01*
X219657143Y-67194771D01*
X219446429Y-67194771D01*
X219446429Y-67030485D01*
X219571429Y-67030485D01*
X219586061Y-67029044D01*
X219613097Y-67017845D01*
X219633789Y-66997153D01*
X219644988Y-66970117D01*
X219644988Y-66940853D01*
X219633789Y-66913817D01*
X219613097Y-66893125D01*
X219586061Y-66881926D01*
X219571429Y-66880485D01*
X219446429Y-66880485D01*
X219446429Y-66744771D01*
X219657143Y-66744771D01*
X219671775Y-66743330D01*
X219698811Y-66732131D01*
X219719503Y-66711439D01*
X219730702Y-66684403D01*
X219730702Y-66669771D01*
X219839286Y-66669771D01*
X219839286Y-67269771D01*
X219840727Y-67284403D01*
X219851926Y-67311439D01*
X219872618Y-67332131D01*
X219899654Y-67343330D01*
X219928918Y-67343330D01*
X219955954Y-67332131D01*
X219976646Y-67311439D01*
X219987845Y-67284403D01*
X219989286Y-67269771D01*
X219989286Y-67059057D01*
X220018094Y-67059057D01*
X220195700Y-67312780D01*
X220205272Y-67323941D01*
X220229950Y-67339667D01*
X220258768Y-67344753D01*
X220287339Y-67338423D01*
X220311313Y-67321642D01*
X220327040Y-67296963D01*
X220332125Y-67268145D01*
X220325795Y-67239574D01*
X220318585Y-67226761D01*
X220190658Y-67044008D01*
X220233541Y-67022567D01*
X220239837Y-67018603D01*
X220241668Y-67017845D01*
X220243729Y-67016153D01*
X220245984Y-67014734D01*
X220247280Y-67013238D01*
X220253033Y-67008518D01*
X220281604Y-66979947D01*
X220286324Y-66974194D01*
X220287820Y-66972898D01*
X220289239Y-66970643D01*
X220290931Y-66968582D01*
X220291689Y-66966751D01*
X220295653Y-66960455D01*
X220324225Y-66903313D01*
X220329480Y-66889581D01*
X220329671Y-66886891D01*
X220330702Y-66884403D01*
X220332143Y-66869771D01*
X220332143Y-66784057D01*
X220330702Y-66769425D01*
X220329671Y-66766936D01*
X220329480Y-66764247D01*
X220324225Y-66750515D01*
X220295653Y-66693373D01*
X220291690Y-66687078D01*
X220290932Y-66685247D01*
X220289238Y-66683183D01*
X220287820Y-66680930D01*
X220286325Y-66679633D01*
X220281605Y-66673882D01*
X220253034Y-66645310D01*
X220247282Y-66640589D01*
X220245984Y-66639092D01*
X220243728Y-66637672D01*
X220241669Y-66635982D01*
X220239838Y-66635223D01*
X220233541Y-66631260D01*
X220176398Y-66602689D01*
X220162666Y-66597434D01*
X220159978Y-66597243D01*
X220157489Y-66596212D01*
X220142857Y-66594771D01*
X219914286Y-66594771D01*
X219899654Y-66596212D01*
X219872618Y-66607411D01*
X219851926Y-66628103D01*
X219840727Y-66655139D01*
X219839286Y-66669771D01*
X219730702Y-66669771D01*
X219730702Y-66655139D01*
X219719503Y-66628103D01*
X219698811Y-66607411D01*
X219671775Y-66596212D01*
X219657143Y-66594771D01*
X219371429Y-66594771D01*
X219356797Y-66596212D01*
X219329761Y-66607411D01*
X219309069Y-66628103D01*
X219297870Y-66655139D01*
X219296429Y-66669771D01*
X219182240Y-66669771D01*
X219173534Y-66652358D01*
X219151427Y-66633185D01*
X219138001Y-66627191D01*
X219052288Y-66598620D01*
X219045034Y-66596970D01*
X219043203Y-66596212D01*
X219040548Y-66595950D01*
X219037951Y-66595360D01*
X219035976Y-66595500D01*
X219028571Y-66594771D01*
X218885714Y-66594771D01*
X218871082Y-66596212D01*
X218868592Y-66597243D01*
X218865906Y-66597434D01*
X218852174Y-66602689D01*
X218795030Y-66631260D01*
X218788734Y-66635223D01*
X218786902Y-66635982D01*
X218784840Y-66637674D01*
X218782588Y-66639092D01*
X218781291Y-66640586D01*
X218775537Y-66645310D01*
X218746966Y-66673882D01*
X218742245Y-66679633D01*
X218740751Y-66680930D01*
X218739332Y-66683183D01*
X218737639Y-66685247D01*
X218736880Y-66687078D01*
X218732918Y-66693373D01*
X218704346Y-66750516D01*
X218699091Y-66764247D01*
X218698899Y-66766936D01*
X218697869Y-66769425D01*
X218696428Y-66784057D01*
X218589286Y-66784057D01*
X218589286Y-66669771D01*
X218587845Y-66655139D01*
X218576646Y-66628103D01*
X218555954Y-66607411D01*
X218528918Y-66596212D01*
X218499654Y-66596212D01*
X218472618Y-66607411D01*
X218451926Y-66628103D01*
X218440727Y-66655139D01*
X218439286Y-66669771D01*
X218439286Y-67137779D01*
X218424074Y-67168201D01*
X218412714Y-67179561D01*
X218382296Y-67194771D01*
X218303419Y-67194771D01*
X218272999Y-67179561D01*
X218261638Y-67168200D01*
X218246429Y-67137780D01*
X218246429Y-66669771D01*
X218244988Y-66655139D01*
X218233789Y-66628103D01*
X218213097Y-66607411D01*
X218186061Y-66596212D01*
X218156797Y-66596212D01*
X218129761Y-66607411D01*
X218109069Y-66628103D01*
X218097870Y-66655139D01*
X218096429Y-66669771D01*
X218021429Y-66669771D01*
X218021429Y-66519771D01*
X220407143Y-66519771D01*
X220407143Y-67419771D01*
G37*
D12*
%TO.C,J5*%
X198110000Y-107720000D02*
X198110000Y-108700000D01*
X198110000Y-107720000D02*
X198990000Y-107720000D01*
X200990000Y-110620000D02*
X199230000Y-110620000D01*
X201230000Y-107720000D02*
X202110000Y-107720000D01*
X202110000Y-107720000D02*
X202110000Y-108700000D01*
D13*
X200710000Y-105920000D02*
G75*
G02*
X200510000Y-105920000I-100000J0D01*
G01*
X200510000Y-105920000D02*
G75*
G02*
X200710000Y-105920000I100000J0D01*
G01*
D14*
%TO.C,C8*%
X225250000Y-108266233D02*
X225250000Y-108558767D01*
X226270000Y-108266233D02*
X226270000Y-108558767D01*
%TO.C,R18*%
X211142224Y-94727500D02*
X210632776Y-94727500D01*
X211142224Y-95772500D02*
X210632776Y-95772500D01*
%TO.C,C13*%
X221798752Y-94115000D02*
X221276248Y-94115000D01*
X221798752Y-95585000D02*
X221276248Y-95585000D01*
%TO.C,C15*%
X223611250Y-91291233D02*
X223611250Y-91583767D01*
X224631250Y-91291233D02*
X224631250Y-91583767D01*
%TO.C,FB1*%
X226061250Y-80046267D02*
X226061250Y-79703733D01*
X227081250Y-80046267D02*
X227081250Y-79703733D01*
%TO.C,C12*%
X230518748Y-96548000D02*
X231041252Y-96548000D01*
X230518748Y-98018000D02*
X231041252Y-98018000D01*
D12*
%TO.C,J4*%
X237300000Y-88000000D02*
X238280000Y-88000000D01*
X237300000Y-88880000D02*
X237300000Y-88000000D01*
X237300000Y-95000000D02*
X237300000Y-94120000D01*
X237300000Y-95000000D02*
X238280000Y-95000000D01*
X240200000Y-89120000D02*
X240200000Y-93880000D01*
D13*
X235600000Y-89500000D02*
G75*
G02*
X235400000Y-89500000I-100000J0D01*
G01*
X235400000Y-89500000D02*
G75*
G02*
X235600000Y-89500000I100000J0D01*
G01*
D14*
%TO.C,D5*%
X206252500Y-78965000D02*
X206252500Y-80435000D01*
X206252500Y-80435000D02*
X208712500Y-80435000D01*
X208712500Y-78965000D02*
X206252500Y-78965000D01*
%TO.C,C23*%
X234665000Y-69061252D02*
X234665000Y-68538748D01*
X236135000Y-69061252D02*
X236135000Y-68538748D01*
%TO.C,C22*%
X237090000Y-69046267D02*
X237090000Y-68753733D01*
X238110000Y-69046267D02*
X238110000Y-68753733D01*
%TO.C,R9*%
X204477500Y-102732776D02*
X204477500Y-103242224D01*
X205522500Y-102732776D02*
X205522500Y-103242224D01*
%TO.C,TP13*%
D11*
X205350000Y-98850000D02*
X207050000Y-98850000D01*
X207050000Y-100550000D01*
X205350000Y-100550000D01*
X205350000Y-98850000D01*
D14*
%TO.C,C17*%
X214146267Y-80740000D02*
X213853733Y-80740000D01*
X214146267Y-81760000D02*
X213853733Y-81760000D01*
%TO.C,R12*%
X230977064Y-106015000D02*
X230522936Y-106015000D01*
X230977064Y-107485000D02*
X230522936Y-107485000D01*
%TO.C,R5*%
X205977500Y-103242224D02*
X205977500Y-102732776D01*
X207022500Y-103242224D02*
X207022500Y-102732776D01*
%TO.C,C11*%
X230518748Y-101296500D02*
X231041252Y-101296500D01*
X230518748Y-102766500D02*
X231041252Y-102766500D01*
%TO.C,R22*%
X208167224Y-77687500D02*
X207657776Y-77687500D01*
X208167224Y-78732500D02*
X207657776Y-78732500D01*
%TO.C,CY2*%
X229211250Y-86183767D02*
X229211250Y-85891233D01*
X230231250Y-86183767D02*
X230231250Y-85891233D01*
%TO.C,DWM1*%
X198750000Y-52650000D02*
X198750000Y-62400000D01*
X198750000Y-52650000D02*
X212250000Y-52650000D01*
X198750000Y-76150000D02*
X198750000Y-74400000D01*
X199500000Y-76150000D02*
X198750000Y-76150000D01*
X211500000Y-76150000D02*
X212250000Y-76150000D01*
X212250000Y-52650000D02*
X212250000Y-62400000D01*
X212250000Y-76150000D02*
X212250000Y-74400000D01*
X198400000Y-62400000D02*
X197900000Y-62400000D01*
X198400000Y-61900000D01*
X198400000Y-62400000D01*
G36*
X198400000Y-62400000D02*
G01*
X197900000Y-62400000D01*
X198400000Y-61900000D01*
X198400000Y-62400000D01*
G37*
%TO.C,CY1*%
X229211250Y-89508767D02*
X229211250Y-89216233D01*
X230231250Y-89508767D02*
X230231250Y-89216233D01*
%TO.C,TP6*%
X199650000Y-79200000D02*
G75*
G02*
X197750000Y-79200000I-950000J0D01*
G01*
X197750000Y-79200000D02*
G75*
G02*
X199650000Y-79200000I950000J0D01*
G01*
%TO.C,Y1*%
X225511250Y-89810000D02*
X228931250Y-89810000D01*
X228931250Y-89810000D02*
X228931250Y-85690000D01*
%TO.C,C1*%
X218475000Y-102961252D02*
X218475000Y-102438748D01*
X219945000Y-102961252D02*
X219945000Y-102438748D01*
%TO.C,R11*%
X211167224Y-100314167D02*
X210657776Y-100314167D01*
X211167224Y-101359167D02*
X210657776Y-101359167D01*
%TO.C,R17*%
X211142224Y-93227500D02*
X210632776Y-93227500D01*
X211142224Y-94272500D02*
X210632776Y-94272500D01*
%TO.C,C25*%
X195383767Y-68790000D02*
X195091233Y-68790000D01*
X195383767Y-69810000D02*
X195091233Y-69810000D01*
D12*
%TO.C,U2*%
X223000000Y-103200000D02*
X223505000Y-103200000D01*
X223000000Y-103280000D02*
X223000000Y-103200000D01*
X223000000Y-105620000D02*
X223000000Y-105700000D01*
X223000000Y-105700000D02*
X223305000Y-105700000D01*
X225495000Y-103200000D02*
X226000000Y-103200000D01*
X226000000Y-103200000D02*
X226000000Y-103280000D01*
X226000000Y-105620000D02*
X226000000Y-105700000D01*
X226000000Y-105700000D02*
X225695000Y-105700000D01*
D13*
X223450000Y-106450000D02*
G75*
G02*
X223250000Y-106450000I-100000J0D01*
G01*
X223250000Y-106450000D02*
G75*
G02*
X223450000Y-106450000I100000J0D01*
G01*
D14*
%TO.C,J2*%
X193113250Y-83100000D02*
X193113250Y-92500000D01*
X195013250Y-83100000D02*
X193113250Y-83100000D01*
X195013250Y-92500000D02*
X193113250Y-92500000D01*
X198913250Y-83100000D02*
X196913250Y-83100000D01*
X198913250Y-92500000D02*
X196913250Y-92500000D01*
%TO.C,SW1*%
X193900000Y-101050000D02*
X195090000Y-101050000D01*
X195090000Y-100135000D02*
X195090000Y-101050000D01*
X195090000Y-100135000D02*
X200610000Y-100135000D01*
X195090000Y-105865000D02*
X195090000Y-104890000D01*
X195090000Y-105865000D02*
X200610000Y-105865000D01*
X200610000Y-100135000D02*
X200610000Y-101110000D01*
X200610000Y-105865000D02*
X200610000Y-104890000D01*
%TO.C,D6*%
X202400000Y-80435000D02*
X204860000Y-80435000D01*
X204860000Y-78965000D02*
X202400000Y-78965000D01*
X204860000Y-80435000D02*
X204860000Y-78965000D01*
%TO.C,D3*%
X214200000Y-98235000D02*
X216660000Y-98235000D01*
X216660000Y-96765000D02*
X214200000Y-96765000D01*
X216660000Y-98235000D02*
X216660000Y-96765000D01*
%TO.C,C19*%
X221683767Y-91890000D02*
X221391233Y-91890000D01*
X221683767Y-92910000D02*
X221391233Y-92910000D01*
%TO.C,U4*%
X215084000Y-83390000D02*
X215084000Y-83865000D01*
X215084000Y-90610000D02*
X215084000Y-90135000D01*
X215559000Y-83390000D02*
X215084000Y-83390000D01*
X215559000Y-90610000D02*
X215084000Y-90610000D01*
X221829000Y-83390000D02*
X222304000Y-83390000D01*
X221829000Y-90610000D02*
X222004000Y-90610000D01*
X222304000Y-83390000D02*
X222304000Y-83865000D01*
X222304000Y-90135000D02*
X222304000Y-90370000D01*
X222544000Y-90940000D02*
X222064000Y-90940000D01*
X222304000Y-90610000D01*
X222544000Y-90940000D01*
G36*
X222544000Y-90940000D02*
G01*
X222064000Y-90940000D01*
X222304000Y-90610000D01*
X222544000Y-90940000D01*
G37*
%TO.C,D1*%
X214200000Y-101568333D02*
X216660000Y-101568333D01*
X216660000Y-100098333D02*
X214200000Y-100098333D01*
X216660000Y-101568333D02*
X216660000Y-100098333D01*
%TO.C,C9*%
X230518748Y-103670750D02*
X231041252Y-103670750D01*
X230518748Y-105140750D02*
X231041252Y-105140750D01*
%TO.C,R20*%
X223154026Y-76027500D02*
X223663474Y-76027500D01*
X223154026Y-77072500D02*
X223663474Y-77072500D01*
%TO.C,U6*%
X239550000Y-73850000D02*
G75*
G02*
X238750000Y-73850000I-400000J0D01*
G01*
X238750000Y-73850000D02*
G75*
G02*
X239550000Y-73850000I400000J0D01*
G01*
D15*
G36*
X239149228Y-70864212D02*
G01*
X238749228Y-70264212D01*
X239549228Y-70264212D01*
X239149228Y-70864212D01*
G37*
D14*
%TO.C,R15*%
X223154026Y-74494505D02*
X223663474Y-74494505D01*
X223154026Y-75539505D02*
X223663474Y-75539505D01*
%TO.C,C14*%
X226074983Y-84090000D02*
X226367517Y-84090000D01*
X226074983Y-85110000D02*
X226367517Y-85110000D01*
%TO.C,R1*%
X222237500Y-108157776D02*
X222237500Y-108667224D01*
X223282500Y-108157776D02*
X223282500Y-108667224D01*
%TO.C,D7*%
X208350000Y-90150000D02*
X205690000Y-90150000D01*
X208350000Y-91850000D02*
X205690000Y-91850000D01*
X208350000Y-91850000D02*
X208350000Y-90150000D01*
%TO.C,TP15*%
X207650000Y-109700000D02*
G75*
G02*
X205750000Y-109700000I-950000J0D01*
G01*
X205750000Y-109700000D02*
G75*
G02*
X207650000Y-109700000I950000J0D01*
G01*
%TO.C,C7*%
X212799273Y-109138748D02*
X212799273Y-109661252D01*
X214269273Y-109138748D02*
X214269273Y-109661252D01*
%TO.C,C20*%
X226074983Y-82590000D02*
X226367517Y-82590000D01*
X226074983Y-83610000D02*
X226367517Y-83610000D01*
%TO.C,R10*%
X210632776Y-101977500D02*
X211142224Y-101977500D01*
X210632776Y-103022500D02*
X211142224Y-103022500D01*
%TO.C,SW3*%
X237650000Y-101100000D02*
X237650000Y-100900000D01*
X237650000Y-104100000D02*
X237650000Y-102400000D01*
X238700000Y-105950000D02*
X239490000Y-105950000D01*
X239490000Y-99050000D02*
X238700000Y-99050000D01*
X240500000Y-103900000D02*
X241790000Y-103900000D01*
X240500000Y-105350000D02*
X240500000Y-99650000D01*
X241790000Y-102600000D02*
X240500000Y-102600000D01*
X241790000Y-102600000D02*
X242000000Y-102800000D01*
X241790000Y-103900000D02*
X242000000Y-103700000D01*
X242000000Y-103700000D02*
X242000000Y-102800000D01*
%TO.C,TP4*%
D11*
X233500000Y-93900000D02*
X235300000Y-93900000D01*
X235300000Y-95700000D01*
X233500000Y-95700000D01*
X233500000Y-93900000D01*
D14*
%TO.C,C21*%
X224086250Y-80136252D02*
X224086250Y-79613748D01*
X225556250Y-80136252D02*
X225556250Y-79613748D01*
%TO.C,TP5*%
X228450000Y-94000000D02*
G75*
G02*
X226550000Y-94000000I-950000J0D01*
G01*
X226550000Y-94000000D02*
G75*
G02*
X228450000Y-94000000I950000J0D01*
G01*
%TO.C,TP1*%
X204050000Y-97900000D02*
G75*
G02*
X202150000Y-97900000I-950000J0D01*
G01*
X202150000Y-97900000D02*
G75*
G02*
X204050000Y-97900000I950000J0D01*
G01*
%TO.C,C3*%
X218140000Y-109138748D02*
X218140000Y-109661252D01*
X219610000Y-109138748D02*
X219610000Y-109661252D01*
%TO.C,R19*%
X234477500Y-101017224D02*
X234477500Y-100507776D01*
X235522500Y-101017224D02*
X235522500Y-100507776D01*
%TO.C,C18*%
X216054000Y-80373752D02*
X216054000Y-79851248D01*
X217524000Y-80373752D02*
X217524000Y-79851248D01*
%TO.C,R16*%
X211142224Y-91727500D02*
X210632776Y-91727500D01*
X211142224Y-92772500D02*
X210632776Y-92772500D01*
%TO.C,D4*%
X214200000Y-99901667D02*
X216660000Y-99901667D01*
X216660000Y-98431667D02*
X214200000Y-98431667D01*
X216660000Y-99901667D02*
X216660000Y-98431667D01*
D12*
%TO.C,J3*%
X194900000Y-97900000D02*
X194900000Y-96920000D01*
X195780000Y-97900000D02*
X194900000Y-97900000D01*
X196020000Y-95000000D02*
X199780000Y-95000000D01*
X200900000Y-97900000D02*
X200020000Y-97900000D01*
X200900000Y-97900000D02*
X200900000Y-96920000D01*
D13*
X196500000Y-99700000D02*
G75*
G02*
X196300000Y-99700000I-100000J0D01*
G01*
X196300000Y-99700000D02*
G75*
G02*
X196500000Y-99700000I100000J0D01*
G01*
D14*
%TO.C,R4*%
X220737500Y-108157776D02*
X220737500Y-108667224D01*
X221782500Y-108157776D02*
X221782500Y-108667224D01*
%TO.C,C26*%
X195561252Y-73265000D02*
X195038748Y-73265000D01*
X195561252Y-74735000D02*
X195038748Y-74735000D01*
%TO.C,R8*%
X202790750Y-83642224D02*
X202790750Y-83132776D01*
X203835750Y-83642224D02*
X203835750Y-83132776D01*
%TO.C,R3*%
X211154724Y-98650833D02*
X210645276Y-98650833D01*
X211154724Y-99695833D02*
X210645276Y-99695833D01*
%TO.C,R23*%
X202945276Y-77687500D02*
X203454724Y-77687500D01*
X202945276Y-78732500D02*
X203454724Y-78732500D01*
%TO.C,R21*%
X211142224Y-96987500D02*
X210632776Y-96987500D01*
X211142224Y-98032500D02*
X210632776Y-98032500D01*
%TO.C,C5*%
X213248752Y-103590000D02*
X212726248Y-103590000D01*
X213248752Y-105060000D02*
X212726248Y-105060000D01*
%TO.C,SW2*%
X222500000Y-69600000D02*
X225700000Y-69600000D01*
X222500000Y-73600000D02*
X225700000Y-73600000D01*
%TO.C,C16*%
X212840000Y-90646267D02*
X212840000Y-90353733D01*
X213860000Y-90646267D02*
X213860000Y-90353733D01*
%TO.C,R24*%
X211145276Y-83177500D02*
X211654724Y-83177500D01*
X211145276Y-84222500D02*
X211654724Y-84222500D01*
%TO.C,U1*%
X207590000Y-105665000D02*
X207590000Y-105430000D01*
X207590000Y-108410000D02*
X207590000Y-107935000D01*
X208065000Y-105190000D02*
X207890000Y-105190000D01*
X208065000Y-108410000D02*
X207590000Y-108410000D01*
X210335000Y-105190000D02*
X210810000Y-105190000D01*
X210335000Y-108410000D02*
X210810000Y-108410000D01*
X210810000Y-105190000D02*
X210810000Y-105665000D01*
X210810000Y-108410000D02*
X210810000Y-107935000D01*
X207590000Y-105190000D02*
X207350000Y-104860000D01*
X207830000Y-104860000D01*
X207590000Y-105190000D01*
G36*
X207590000Y-105190000D02*
G01*
X207350000Y-104860000D01*
X207830000Y-104860000D01*
X207590000Y-105190000D01*
G37*
%TO.C,TP2*%
D11*
X207500000Y-81300000D02*
X209300000Y-81300000D01*
X209300000Y-83100000D01*
X207500000Y-83100000D01*
X207500000Y-81300000D01*
D14*
%TO.C,R2*%
X214005276Y-105537500D02*
X214514724Y-105537500D01*
X214005276Y-106582500D02*
X214514724Y-106582500D01*
%TO.C,C24*%
X195383767Y-70790000D02*
X195091233Y-70790000D01*
X195383767Y-71810000D02*
X195091233Y-71810000D01*
%TO.C,F1*%
X195390000Y-79002064D02*
X195390000Y-77797936D01*
X197210000Y-79002064D02*
X197210000Y-77797936D01*
%TO.C,U3*%
X206762500Y-86290000D02*
X205962500Y-86290000D01*
X206762500Y-86290000D02*
X207562500Y-86290000D01*
X206762500Y-89410000D02*
X205962500Y-89410000D01*
X206762500Y-89410000D02*
X207562500Y-89410000D01*
X205462500Y-86340000D02*
X205222500Y-86010000D01*
X205702500Y-86010000D01*
X205462500Y-86340000D01*
G36*
X205462500Y-86340000D02*
G01*
X205222500Y-86010000D01*
X205702500Y-86010000D01*
X205462500Y-86340000D01*
G37*
%TO.C,R7*%
X202790750Y-92545276D02*
X202790750Y-93054724D01*
X203835750Y-92545276D02*
X203835750Y-93054724D01*
%TO.C,R14*%
X223737500Y-108157776D02*
X223737500Y-108667224D01*
X224782500Y-108157776D02*
X224782500Y-108667224D01*
%TO.C,R13*%
X230522936Y-108329250D02*
X230977064Y-108329250D01*
X230522936Y-109799250D02*
X230977064Y-109799250D01*
%TO.C,C2*%
X215469637Y-109138748D02*
X215469637Y-109661252D01*
X216939637Y-109138748D02*
X216939637Y-109661252D01*
%TO.C,L1*%
X222399200Y-97890000D02*
X226619200Y-97890000D01*
X226619200Y-102110000D02*
X222399200Y-102110000D01*
%TO.C,C10*%
X230518748Y-98922250D02*
X231041252Y-98922250D01*
X230518748Y-100392250D02*
X231041252Y-100392250D01*
%TO.C,C6*%
X203365000Y-107586248D02*
X203365000Y-108108752D01*
X204835000Y-107586248D02*
X204835000Y-108108752D01*
%TO.C,C4*%
X220580000Y-103126267D02*
X220580000Y-102833733D01*
X221600000Y-103126267D02*
X221600000Y-102833733D01*
%TO.C,D2*%
X214175000Y-103235000D02*
X216635000Y-103235000D01*
X216635000Y-101765000D02*
X214175000Y-101765000D01*
X216635000Y-103235000D02*
X216635000Y-101765000D01*
%TO.C,SW4*%
X225700000Y-69000000D02*
X222500000Y-69000000D01*
X225700000Y-65000000D02*
X222500000Y-65000000D01*
%TD*%
%LPC*%
D16*
%TO.C,U2*%
X223450000Y-104850000D02*
X222750000Y-104850000D01*
X222750000Y-104500000D01*
X223450000Y-104500000D01*
X223450000Y-104850000D01*
G36*
X223450000Y-104850000D02*
G01*
X222750000Y-104850000D01*
X222750000Y-104500000D01*
X223450000Y-104500000D01*
X223450000Y-104850000D01*
G37*
X223450000Y-105350000D02*
X222750000Y-105350000D01*
X222750000Y-105000000D01*
X223450000Y-105000000D01*
X223450000Y-105350000D01*
G36*
X223450000Y-105350000D02*
G01*
X222750000Y-105350000D01*
X222750000Y-105000000D01*
X223450000Y-105000000D01*
X223450000Y-105350000D01*
G37*
X223925000Y-105950000D02*
X223575000Y-105950000D01*
X223575000Y-105250000D01*
X223925000Y-105250000D01*
X223925000Y-105950000D01*
G36*
X223925000Y-105950000D02*
G01*
X223575000Y-105950000D01*
X223575000Y-105250000D01*
X223925000Y-105250000D01*
X223925000Y-105950000D01*
G37*
X224125000Y-104350000D02*
X223875000Y-104350000D01*
X223875000Y-103000000D01*
X224125000Y-103000000D01*
X224125000Y-104350000D01*
G36*
X224125000Y-104350000D02*
G01*
X223875000Y-104350000D01*
X223875000Y-103000000D01*
X224125000Y-103000000D01*
X224125000Y-104350000D01*
G37*
X224425000Y-105950000D02*
X224075000Y-105950000D01*
X224075000Y-105250000D01*
X224425000Y-105250000D01*
X224425000Y-105950000D01*
G36*
X224425000Y-105950000D02*
G01*
X224075000Y-105950000D01*
X224075000Y-105250000D01*
X224425000Y-105250000D01*
X224425000Y-105950000D01*
G37*
X224625000Y-104700000D02*
X224375000Y-104700000D01*
X224375000Y-103000000D01*
X224625000Y-103000000D01*
X224625000Y-104700000D01*
G36*
X224625000Y-104700000D02*
G01*
X224375000Y-104700000D01*
X224375000Y-103000000D01*
X224625000Y-103000000D01*
X224625000Y-104700000D01*
G37*
X224925000Y-105950000D02*
X224575000Y-105950000D01*
X224575000Y-105250000D01*
X224925000Y-105250000D01*
X224925000Y-105950000D01*
G36*
X224925000Y-105950000D02*
G01*
X224575000Y-105950000D01*
X224575000Y-105250000D01*
X224925000Y-105250000D01*
X224925000Y-105950000D01*
G37*
X225125000Y-104350000D02*
X224875000Y-104350000D01*
X224875000Y-103000000D01*
X225125000Y-103000000D01*
X225125000Y-104350000D01*
G36*
X225125000Y-104350000D02*
G01*
X224875000Y-104350000D01*
X224875000Y-103000000D01*
X225125000Y-103000000D01*
X225125000Y-104350000D01*
G37*
X225425000Y-105950000D02*
X225075000Y-105950000D01*
X225075000Y-105250000D01*
X225425000Y-105250000D01*
X225425000Y-105950000D01*
G36*
X225425000Y-105950000D02*
G01*
X225075000Y-105950000D01*
X225075000Y-105250000D01*
X225425000Y-105250000D01*
X225425000Y-105950000D01*
G37*
X226250000Y-104850000D02*
X225550000Y-104850000D01*
X225550000Y-104500000D01*
X226250000Y-104500000D01*
X226250000Y-104850000D01*
G36*
X226250000Y-104850000D02*
G01*
X225550000Y-104850000D01*
X225550000Y-104500000D01*
X226250000Y-104500000D01*
X226250000Y-104850000D01*
G37*
X226250000Y-105350000D02*
X225550000Y-105350000D01*
X225550000Y-105000000D01*
X226250000Y-105000000D01*
X226250000Y-105350000D01*
G36*
X226250000Y-105350000D02*
G01*
X225550000Y-105350000D01*
X225550000Y-105000000D01*
X226250000Y-105000000D01*
X226250000Y-105350000D01*
G37*
X223400000Y-104300000D02*
X222800000Y-104300000D01*
X222800000Y-104050000D01*
X223150000Y-104050000D01*
X223150000Y-103800000D01*
X222800000Y-103800000D01*
X222800000Y-103550000D01*
X223400000Y-103550000D01*
X223400000Y-104300000D01*
G36*
X223400000Y-104300000D02*
G01*
X222800000Y-104300000D01*
X222800000Y-104050000D01*
X223150000Y-104050000D01*
X223150000Y-103800000D01*
X222800000Y-103800000D01*
X222800000Y-103550000D01*
X223400000Y-103550000D01*
X223400000Y-104300000D01*
G37*
X226200000Y-103800000D02*
X225850000Y-103800000D01*
X225850000Y-104050000D01*
X226200000Y-104050000D01*
X226200000Y-104300000D01*
X225600000Y-104300000D01*
X225600000Y-103550000D01*
X226200000Y-103550000D01*
X226200000Y-103800000D01*
G36*
X226200000Y-103800000D02*
G01*
X225850000Y-103800000D01*
X225850000Y-104050000D01*
X226200000Y-104050000D01*
X226200000Y-104300000D01*
X225600000Y-104300000D01*
X225600000Y-103550000D01*
X226200000Y-103550000D01*
X226200000Y-103800000D01*
G37*
%TD*%
D17*
%TO.C,J5*%
X200610000Y-107395000D03*
X199610000Y-107395000D03*
D18*
X201910000Y-109920000D03*
X198310000Y-109920000D03*
%TD*%
D19*
%TO.C,C8*%
X225760000Y-107550000D03*
X225760000Y-109275000D03*
%TD*%
D20*
%TO.C,R18*%
X211800000Y-95250000D03*
X209975000Y-95250000D03*
%TD*%
D21*
%TO.C,C13*%
X222575000Y-94850000D03*
X220500000Y-94850000D03*
%TD*%
D19*
%TO.C,C15*%
X224121250Y-90575000D03*
X224121250Y-92300000D03*
%TD*%
D22*
%TO.C,H3*%
X194850000Y-110100000D03*
%TD*%
D23*
%TO.C,FB1*%
X226571250Y-80750000D03*
X226571250Y-79000000D03*
%TD*%
D24*
%TO.C,C12*%
X229742500Y-97283000D03*
X231817500Y-97283000D03*
%TD*%
D25*
%TO.C,J4*%
X236975000Y-89500000D03*
X236975000Y-90500000D03*
X236975000Y-91500000D03*
X236975000Y-92500000D03*
X236975000Y-93500000D03*
D26*
X239500000Y-88200000D03*
X239500000Y-94800000D03*
%TD*%
D27*
%TO.C,D5*%
X207037500Y-79700000D03*
X208787500Y-79700000D03*
%TD*%
D28*
%TO.C,C23*%
X235400000Y-69837500D03*
X235400000Y-67762500D03*
%TD*%
D29*
%TO.C,C22*%
X237600000Y-69762500D03*
X237600000Y-68037500D03*
%TD*%
D30*
%TO.C,R9*%
X205000000Y-102075000D03*
X205000000Y-103900000D03*
%TD*%
D31*
%TO.C,TP13*%
X206200000Y-99700000D03*
%TD*%
D32*
%TO.C,C17*%
X214862500Y-81250000D03*
X213137500Y-81250000D03*
%TD*%
D33*
%TO.C,R12*%
X231750000Y-106750000D03*
X229750000Y-106750000D03*
%TD*%
D34*
%TO.C,R5*%
X206500000Y-103900000D03*
X206500000Y-102075000D03*
%TD*%
D24*
%TO.C,C11*%
X229742500Y-102031500D03*
X231817500Y-102031500D03*
%TD*%
D20*
%TO.C,R22*%
X208825000Y-78210000D03*
X207000000Y-78210000D03*
%TD*%
D29*
%TO.C,CY2*%
X229721250Y-86900000D03*
X229721250Y-85175000D03*
%TD*%
D35*
%TO.C,DWM1*%
X199200000Y-63601200D03*
X199200000Y-65001200D03*
X199200000Y-66401200D03*
X199200000Y-67801200D03*
X199200000Y-69201200D03*
X199200000Y-70601200D03*
X199200000Y-72001200D03*
X199200000Y-73401200D03*
D36*
X200600000Y-75696200D03*
X202000000Y-75696200D03*
X203400000Y-75696200D03*
X204800000Y-75696200D03*
X206200000Y-75696200D03*
X207600000Y-75696200D03*
X209000000Y-75696200D03*
X210400000Y-75696200D03*
D35*
X211800000Y-73400000D03*
X211800000Y-72000000D03*
X211800000Y-70601200D03*
X211800000Y-69201200D03*
X211800000Y-67801200D03*
X211800000Y-66401200D03*
X211800000Y-65001200D03*
X211800000Y-63601200D03*
%TD*%
D29*
%TO.C,CY1*%
X229721250Y-90225000D03*
X229721250Y-88500000D03*
%TD*%
D37*
%TO.C,TP6*%
X198700000Y-79200000D03*
%TD*%
D38*
%TO.C,Y1*%
X228071250Y-88850000D03*
X228071250Y-86650000D03*
X226371250Y-86650000D03*
X226371250Y-88850000D03*
%TD*%
D28*
%TO.C,C1*%
X219210000Y-103737500D03*
X219210000Y-101662500D03*
%TD*%
D20*
%TO.C,R11*%
X211825000Y-100836667D03*
X210000000Y-100836667D03*
%TD*%
%TO.C,R17*%
X211800000Y-93750000D03*
X209975000Y-93750000D03*
%TD*%
D22*
%TO.C,H1*%
X194900000Y-65200000D03*
%TD*%
D32*
%TO.C,C25*%
X196100000Y-69300000D03*
X194375000Y-69300000D03*
%TD*%
D39*
%TO.C,J2*%
X199613250Y-84910000D03*
X199613250Y-90690000D03*
D40*
X201058250Y-84550000D03*
X201058250Y-85350000D03*
D41*
X201058250Y-86550000D03*
X201058250Y-87550000D03*
X201058250Y-88050000D03*
X201058250Y-89050000D03*
D40*
X201058250Y-90250000D03*
X201058250Y-91050000D03*
X201058250Y-91050000D03*
X201058250Y-90250000D03*
D41*
X201058250Y-89550000D03*
X201058250Y-88550000D03*
X201058250Y-87050000D03*
X201058250Y-86050000D03*
D40*
X201058250Y-85350000D03*
X201058250Y-84550000D03*
D42*
X200143250Y-83480000D03*
D43*
X195963250Y-83480000D03*
D42*
X200143250Y-92120000D03*
D43*
X195963250Y-92120000D03*
%TD*%
D44*
%TO.C,SW1*%
X195225000Y-101730000D03*
X195225000Y-103000000D03*
X195225000Y-104270000D03*
X200475000Y-104270000D03*
X200475000Y-103000000D03*
X200475000Y-101730000D03*
%TD*%
D45*
%TO.C,D6*%
X204075000Y-79700000D03*
X202325000Y-79700000D03*
%TD*%
%TO.C,D3*%
X215875000Y-97500000D03*
X214125000Y-97500000D03*
%TD*%
D32*
%TO.C,C19*%
X222400000Y-92400000D03*
X220675000Y-92400000D03*
%TD*%
D46*
%TO.C,U4*%
X222131500Y-89750000D03*
X222131500Y-89250000D03*
X222131500Y-88750000D03*
X222131500Y-88250000D03*
X222131500Y-87750000D03*
X222131500Y-87250000D03*
X222131500Y-86750000D03*
X222131500Y-86250000D03*
X222131500Y-85750000D03*
X222131500Y-85250000D03*
X222131500Y-84750000D03*
X222131500Y-84250000D03*
D47*
X221444000Y-83562500D03*
X220944000Y-83562500D03*
X220444000Y-83562500D03*
X219944000Y-83562500D03*
X219444000Y-83562500D03*
X218944000Y-83562500D03*
X218444000Y-83562500D03*
X217944000Y-83562500D03*
X217444000Y-83562500D03*
X216944000Y-83562500D03*
X216444000Y-83562500D03*
X215944000Y-83562500D03*
D46*
X215256500Y-84250000D03*
X215256500Y-84750000D03*
X215256500Y-85250000D03*
X215256500Y-85750000D03*
X215256500Y-86250000D03*
X215256500Y-86750000D03*
X215256500Y-87250000D03*
X215256500Y-87750000D03*
X215256500Y-88250000D03*
X215256500Y-88750000D03*
X215256500Y-89250000D03*
X215256500Y-89750000D03*
D47*
X215944000Y-90437500D03*
X216444000Y-90437500D03*
X216944000Y-90437500D03*
X217444000Y-90437500D03*
X217944000Y-90437500D03*
X218444000Y-90437500D03*
X218944000Y-90437500D03*
X219444000Y-90437500D03*
X219944000Y-90437500D03*
X220444000Y-90437500D03*
X220944000Y-90437500D03*
X221444000Y-90437500D03*
D48*
X218694000Y-87000000D03*
%TD*%
D45*
%TO.C,D1*%
X215875000Y-100833333D03*
X214125000Y-100833333D03*
%TD*%
D24*
%TO.C,C9*%
X229742500Y-104405750D03*
X231817500Y-104405750D03*
%TD*%
D49*
%TO.C,R20*%
X222496250Y-76550000D03*
X224321250Y-76550000D03*
%TD*%
D50*
%TO.C,U6*%
X239150000Y-72100000D03*
X238050000Y-72100000D03*
X236950000Y-72100000D03*
X235850000Y-72100000D03*
X234750000Y-72100000D03*
X233650000Y-72100000D03*
X232550000Y-72100000D03*
X231450000Y-72100000D03*
D51*
X230600000Y-75000000D03*
X230600000Y-76100000D03*
D50*
X231450000Y-82100000D03*
X232550000Y-82100000D03*
X233650000Y-82100000D03*
X234750000Y-82100000D03*
X235850000Y-82100000D03*
X236950000Y-82100000D03*
X238050000Y-82100000D03*
X239150000Y-82100000D03*
X240250000Y-82100000D03*
X241350000Y-82100000D03*
%TD*%
D49*
%TO.C,R15*%
X222496250Y-75017005D03*
X224321250Y-75017005D03*
%TD*%
D52*
%TO.C,C14*%
X225358750Y-84600000D03*
X227083750Y-84600000D03*
%TD*%
D30*
%TO.C,R1*%
X222760000Y-107500000D03*
X222760000Y-109325000D03*
%TD*%
D53*
%TO.C,D7*%
X207790000Y-91000000D03*
X205690000Y-91000000D03*
%TD*%
D37*
%TO.C,TP15*%
X206700000Y-109700000D03*
%TD*%
D54*
%TO.C,C7*%
X213534273Y-108362500D03*
X213534273Y-110437500D03*
%TD*%
D52*
%TO.C,C20*%
X225358750Y-83100000D03*
X227083750Y-83100000D03*
%TD*%
D49*
%TO.C,R10*%
X209975000Y-102500000D03*
X211800000Y-102500000D03*
%TD*%
D55*
%TO.C,SW3*%
X237990000Y-106150000D03*
X240200000Y-106150000D03*
D56*
X239100000Y-104000000D03*
X239100000Y-101000000D03*
D55*
X237990000Y-98850000D03*
X240200000Y-98850000D03*
D57*
X237340000Y-104750000D03*
X237340000Y-101750000D03*
X237340000Y-100250000D03*
%TD*%
D31*
%TO.C,TP4*%
X234400000Y-94800000D03*
%TD*%
D22*
%TO.C,H2*%
X239800000Y-65200000D03*
%TD*%
D28*
%TO.C,C21*%
X224821250Y-80912500D03*
X224821250Y-78837500D03*
%TD*%
D37*
%TO.C,TP5*%
X227500000Y-94000000D03*
%TD*%
%TO.C,TP1*%
X203100000Y-97900000D03*
%TD*%
D54*
%TO.C,C3*%
X218875000Y-108362500D03*
X218875000Y-110437500D03*
%TD*%
D34*
%TO.C,R19*%
X235000000Y-101675000D03*
X235000000Y-99850000D03*
%TD*%
D28*
%TO.C,C18*%
X216789000Y-81150000D03*
X216789000Y-79075000D03*
%TD*%
D20*
%TO.C,R16*%
X211800000Y-92250000D03*
X209975000Y-92250000D03*
%TD*%
D45*
%TO.C,D4*%
X215875000Y-99166667D03*
X214125000Y-99166667D03*
%TD*%
D58*
%TO.C,J3*%
X196400000Y-98225000D03*
X197400000Y-98225000D03*
X198400000Y-98225000D03*
X199400000Y-98225000D03*
D59*
X195100000Y-95700000D03*
X200700000Y-95700000D03*
%TD*%
D30*
%TO.C,R4*%
X221260000Y-107500000D03*
X221260000Y-109325000D03*
%TD*%
D21*
%TO.C,C26*%
X196337500Y-74000000D03*
X194262500Y-74000000D03*
%TD*%
D34*
%TO.C,R8*%
X203313250Y-84300000D03*
X203313250Y-82475000D03*
%TD*%
D20*
%TO.C,R3*%
X211812500Y-99173333D03*
X209987500Y-99173333D03*
%TD*%
D49*
%TO.C,R23*%
X202287500Y-78210000D03*
X204112500Y-78210000D03*
%TD*%
D20*
%TO.C,R21*%
X211800000Y-97510000D03*
X209975000Y-97510000D03*
%TD*%
D21*
%TO.C,C5*%
X214025000Y-104325000D03*
X211950000Y-104325000D03*
%TD*%
D60*
%TO.C,SW2*%
X221750000Y-71600000D03*
X226450000Y-71600000D03*
%TD*%
D29*
%TO.C,C16*%
X213350000Y-91362500D03*
X213350000Y-89637500D03*
%TD*%
D49*
%TO.C,R24*%
X210487500Y-83700000D03*
X212312500Y-83700000D03*
%TD*%
D61*
%TO.C,U1*%
X207762500Y-106050000D03*
X207762500Y-106550000D03*
X207762500Y-107050000D03*
X207762500Y-107550000D03*
D62*
X208450000Y-108237500D03*
X208950000Y-108237500D03*
X209450000Y-108237500D03*
X209950000Y-108237500D03*
D61*
X210637500Y-107550000D03*
X210637500Y-107050000D03*
X210637500Y-106550000D03*
X210637500Y-106050000D03*
D62*
X209950000Y-105362500D03*
X209450000Y-105362500D03*
X208950000Y-105362500D03*
X208450000Y-105362500D03*
D63*
X209200000Y-106800000D03*
%TD*%
D31*
%TO.C,TP2*%
X208400000Y-82200000D03*
%TD*%
D49*
%TO.C,R2*%
X213347500Y-106060000D03*
X215172500Y-106060000D03*
%TD*%
D32*
%TO.C,C24*%
X196100000Y-71300000D03*
X194375000Y-71300000D03*
%TD*%
D64*
%TO.C,F1*%
X196300000Y-79800000D03*
X196300000Y-77000000D03*
%TD*%
D65*
%TO.C,U3*%
X205625000Y-86900000D03*
X205625000Y-87850000D03*
X205625000Y-88800000D03*
X207900000Y-88800000D03*
X207900000Y-87850000D03*
X207900000Y-86900000D03*
%TD*%
D30*
%TO.C,R7*%
X203313250Y-91887500D03*
X203313250Y-93712500D03*
%TD*%
%TO.C,R14*%
X224260000Y-107500000D03*
X224260000Y-109325000D03*
%TD*%
D66*
%TO.C,R13*%
X229750000Y-109064250D03*
X231750000Y-109064250D03*
%TD*%
D54*
%TO.C,C2*%
X216204637Y-108362500D03*
X216204637Y-110437500D03*
%TD*%
D67*
%TO.C,L1*%
X226009200Y-100000000D03*
X223009200Y-100000000D03*
%TD*%
D24*
%TO.C,C10*%
X229742500Y-99657250D03*
X231817500Y-99657250D03*
%TD*%
D54*
%TO.C,C6*%
X204100000Y-106810000D03*
X204100000Y-108885000D03*
%TD*%
D29*
%TO.C,C4*%
X221090000Y-103842500D03*
X221090000Y-102117500D03*
%TD*%
D45*
%TO.C,D2*%
X215850000Y-102500000D03*
X214100000Y-102500000D03*
%TD*%
D22*
%TO.C,H4*%
X239800000Y-110100000D03*
%TD*%
D68*
%TO.C,SW4*%
X221750000Y-67000000D03*
X226450000Y-67000000D03*
%TD*%
%LPD*%
M02*
