%TF.GenerationSoftware,KiCad,Pcbnew,9.0.7*%
%TF.CreationDate,2026-04-10T12:37:13+07:00*%
%TF.ProjectId,anchor,616e6368-6f72-42e6-9b69-6361645f7063,rev?*%
%TF.SameCoordinates,Original*%
%TF.FileFunction,Legend,Bot*%
%TF.FilePolarity,Positive*%
%FSLAX46Y46*%
G04 Gerber Fmt 4.6, Leading zero omitted, Abs format (unit mm)*
G04 Created by KiCad (PCBNEW 9.0.7) date 2026-04-10 12:37:13*
%MOMM*%
%LPD*%
G01*
G04 APERTURE LIST*
G04 Aperture macros list*
%AMRoundRect*
0 Rectangle with rounded corners*
0 $1 Rounding radius*
0 $2 $3 $4 $5 $6 $7 $8 $9 X,Y pos of 4 corners*
0 Add a 4 corners polygon primitive as box body*
4,1,4,$2,$3,$4,$5,$6,$7,$8,$9,$2,$3,0*
0 Add four circle primitives for the rounded corners*
1,1,$1+$1,$2,$3*
1,1,$1+$1,$4,$5*
1,1,$1+$1,$6,$7*
1,1,$1+$1,$8,$9*
0 Add four rect primitives between the rounded corners*
20,1,$1+$1,$2,$3,$4,$5,0*
20,1,$1+$1,$4,$5,$6,$7,0*
20,1,$1+$1,$6,$7,$8,$9,0*
20,1,$1+$1,$8,$9,$2,$3,0*%
G04 Aperture macros list end*
%ADD10C,0.170000*%
%ADD11C,0.150000*%
%ADD12C,0.120000*%
%ADD13C,2.200000*%
%ADD14C,0.650000*%
%ADD15O,2.100000X1.000000*%
%ADD16O,1.600000X1.000000*%
%ADD17C,0.900000*%
%ADD18RoundRect,0.250000X0.550000X-0.550000X0.550000X0.550000X-0.550000X0.550000X-0.550000X-0.550000X0*%
%ADD19C,1.600000*%
%ADD20C,1.000000*%
%ADD21R,1.000000X1.000000*%
G04 APERTURE END LIST*
D10*
X236407681Y-109987278D02*
X236407681Y-109187278D01*
X236407681Y-109187278D02*
X236102919Y-109187278D01*
X236102919Y-109187278D02*
X236026729Y-109225373D01*
X236026729Y-109225373D02*
X235988634Y-109263468D01*
X235988634Y-109263468D02*
X235950538Y-109339659D01*
X235950538Y-109339659D02*
X235950538Y-109453944D01*
X235950538Y-109453944D02*
X235988634Y-109530135D01*
X235988634Y-109530135D02*
X236026729Y-109568230D01*
X236026729Y-109568230D02*
X236102919Y-109606325D01*
X236102919Y-109606325D02*
X236407681Y-109606325D01*
X235150538Y-109987278D02*
X235417205Y-109606325D01*
X235607681Y-109987278D02*
X235607681Y-109187278D01*
X235607681Y-109187278D02*
X235302919Y-109187278D01*
X235302919Y-109187278D02*
X235226729Y-109225373D01*
X235226729Y-109225373D02*
X235188634Y-109263468D01*
X235188634Y-109263468D02*
X235150538Y-109339659D01*
X235150538Y-109339659D02*
X235150538Y-109453944D01*
X235150538Y-109453944D02*
X235188634Y-109530135D01*
X235188634Y-109530135D02*
X235226729Y-109568230D01*
X235226729Y-109568230D02*
X235302919Y-109606325D01*
X235302919Y-109606325D02*
X235607681Y-109606325D01*
X234655300Y-109187278D02*
X234502919Y-109187278D01*
X234502919Y-109187278D02*
X234426729Y-109225373D01*
X234426729Y-109225373D02*
X234350538Y-109301563D01*
X234350538Y-109301563D02*
X234312443Y-109453944D01*
X234312443Y-109453944D02*
X234312443Y-109720611D01*
X234312443Y-109720611D02*
X234350538Y-109872992D01*
X234350538Y-109872992D02*
X234426729Y-109949183D01*
X234426729Y-109949183D02*
X234502919Y-109987278D01*
X234502919Y-109987278D02*
X234655300Y-109987278D01*
X234655300Y-109987278D02*
X234731491Y-109949183D01*
X234731491Y-109949183D02*
X234807681Y-109872992D01*
X234807681Y-109872992D02*
X234845777Y-109720611D01*
X234845777Y-109720611D02*
X234845777Y-109453944D01*
X234845777Y-109453944D02*
X234807681Y-109301563D01*
X234807681Y-109301563D02*
X234731491Y-109225373D01*
X234731491Y-109225373D02*
X234655300Y-109187278D01*
X233969586Y-109987278D02*
X233969586Y-109187278D01*
X233969586Y-109187278D02*
X233779110Y-109187278D01*
X233779110Y-109187278D02*
X233664824Y-109225373D01*
X233664824Y-109225373D02*
X233588634Y-109301563D01*
X233588634Y-109301563D02*
X233550539Y-109377754D01*
X233550539Y-109377754D02*
X233512443Y-109530135D01*
X233512443Y-109530135D02*
X233512443Y-109644421D01*
X233512443Y-109644421D02*
X233550539Y-109796802D01*
X233550539Y-109796802D02*
X233588634Y-109872992D01*
X233588634Y-109872992D02*
X233664824Y-109949183D01*
X233664824Y-109949183D02*
X233779110Y-109987278D01*
X233779110Y-109987278D02*
X233969586Y-109987278D01*
X233169586Y-109187278D02*
X233169586Y-109834897D01*
X233169586Y-109834897D02*
X233131491Y-109911087D01*
X233131491Y-109911087D02*
X233093396Y-109949183D01*
X233093396Y-109949183D02*
X233017205Y-109987278D01*
X233017205Y-109987278D02*
X232864824Y-109987278D01*
X232864824Y-109987278D02*
X232788634Y-109949183D01*
X232788634Y-109949183D02*
X232750539Y-109911087D01*
X232750539Y-109911087D02*
X232712443Y-109834897D01*
X232712443Y-109834897D02*
X232712443Y-109187278D01*
X231874348Y-109911087D02*
X231912444Y-109949183D01*
X231912444Y-109949183D02*
X232026729Y-109987278D01*
X232026729Y-109987278D02*
X232102920Y-109987278D01*
X232102920Y-109987278D02*
X232217206Y-109949183D01*
X232217206Y-109949183D02*
X232293396Y-109872992D01*
X232293396Y-109872992D02*
X232331491Y-109796802D01*
X232331491Y-109796802D02*
X232369587Y-109644421D01*
X232369587Y-109644421D02*
X232369587Y-109530135D01*
X232369587Y-109530135D02*
X232331491Y-109377754D01*
X232331491Y-109377754D02*
X232293396Y-109301563D01*
X232293396Y-109301563D02*
X232217206Y-109225373D01*
X232217206Y-109225373D02*
X232102920Y-109187278D01*
X232102920Y-109187278D02*
X232026729Y-109187278D01*
X232026729Y-109187278D02*
X231912444Y-109225373D01*
X231912444Y-109225373D02*
X231874348Y-109263468D01*
X231645777Y-109187278D02*
X231188634Y-109187278D01*
X231417206Y-109987278D02*
X231417206Y-109187278D01*
X230921967Y-109987278D02*
X230921967Y-109187278D01*
X230388634Y-109187278D02*
X230236253Y-109187278D01*
X230236253Y-109187278D02*
X230160063Y-109225373D01*
X230160063Y-109225373D02*
X230083872Y-109301563D01*
X230083872Y-109301563D02*
X230045777Y-109453944D01*
X230045777Y-109453944D02*
X230045777Y-109720611D01*
X230045777Y-109720611D02*
X230083872Y-109872992D01*
X230083872Y-109872992D02*
X230160063Y-109949183D01*
X230160063Y-109949183D02*
X230236253Y-109987278D01*
X230236253Y-109987278D02*
X230388634Y-109987278D01*
X230388634Y-109987278D02*
X230464825Y-109949183D01*
X230464825Y-109949183D02*
X230541015Y-109872992D01*
X230541015Y-109872992D02*
X230579111Y-109720611D01*
X230579111Y-109720611D02*
X230579111Y-109453944D01*
X230579111Y-109453944D02*
X230541015Y-109301563D01*
X230541015Y-109301563D02*
X230464825Y-109225373D01*
X230464825Y-109225373D02*
X230388634Y-109187278D01*
X229702920Y-109987278D02*
X229702920Y-109187278D01*
X229702920Y-109187278D02*
X229245777Y-109987278D01*
X229245777Y-109987278D02*
X229245777Y-109187278D01*
X227988635Y-109568230D02*
X227874349Y-109606325D01*
X227874349Y-109606325D02*
X227836254Y-109644421D01*
X227836254Y-109644421D02*
X227798158Y-109720611D01*
X227798158Y-109720611D02*
X227798158Y-109834897D01*
X227798158Y-109834897D02*
X227836254Y-109911087D01*
X227836254Y-109911087D02*
X227874349Y-109949183D01*
X227874349Y-109949183D02*
X227950539Y-109987278D01*
X227950539Y-109987278D02*
X228255301Y-109987278D01*
X228255301Y-109987278D02*
X228255301Y-109187278D01*
X228255301Y-109187278D02*
X227988635Y-109187278D01*
X227988635Y-109187278D02*
X227912444Y-109225373D01*
X227912444Y-109225373D02*
X227874349Y-109263468D01*
X227874349Y-109263468D02*
X227836254Y-109339659D01*
X227836254Y-109339659D02*
X227836254Y-109415849D01*
X227836254Y-109415849D02*
X227874349Y-109492040D01*
X227874349Y-109492040D02*
X227912444Y-109530135D01*
X227912444Y-109530135D02*
X227988635Y-109568230D01*
X227988635Y-109568230D02*
X228255301Y-109568230D01*
X227302920Y-109187278D02*
X227150539Y-109187278D01*
X227150539Y-109187278D02*
X227074349Y-109225373D01*
X227074349Y-109225373D02*
X226998158Y-109301563D01*
X226998158Y-109301563D02*
X226960063Y-109453944D01*
X226960063Y-109453944D02*
X226960063Y-109720611D01*
X226960063Y-109720611D02*
X226998158Y-109872992D01*
X226998158Y-109872992D02*
X227074349Y-109949183D01*
X227074349Y-109949183D02*
X227150539Y-109987278D01*
X227150539Y-109987278D02*
X227302920Y-109987278D01*
X227302920Y-109987278D02*
X227379111Y-109949183D01*
X227379111Y-109949183D02*
X227455301Y-109872992D01*
X227455301Y-109872992D02*
X227493397Y-109720611D01*
X227493397Y-109720611D02*
X227493397Y-109453944D01*
X227493397Y-109453944D02*
X227455301Y-109301563D01*
X227455301Y-109301563D02*
X227379111Y-109225373D01*
X227379111Y-109225373D02*
X227302920Y-109187278D01*
X226655302Y-109758706D02*
X226274349Y-109758706D01*
X226731492Y-109987278D02*
X226464825Y-109187278D01*
X226464825Y-109187278D02*
X226198159Y-109987278D01*
X225474349Y-109987278D02*
X225741016Y-109606325D01*
X225931492Y-109987278D02*
X225931492Y-109187278D01*
X225931492Y-109187278D02*
X225626730Y-109187278D01*
X225626730Y-109187278D02*
X225550540Y-109225373D01*
X225550540Y-109225373D02*
X225512445Y-109263468D01*
X225512445Y-109263468D02*
X225474349Y-109339659D01*
X225474349Y-109339659D02*
X225474349Y-109453944D01*
X225474349Y-109453944D02*
X225512445Y-109530135D01*
X225512445Y-109530135D02*
X225550540Y-109568230D01*
X225550540Y-109568230D02*
X225626730Y-109606325D01*
X225626730Y-109606325D02*
X225931492Y-109606325D01*
X225131492Y-109987278D02*
X225131492Y-109187278D01*
X225131492Y-109187278D02*
X224941016Y-109187278D01*
X224941016Y-109187278D02*
X224826730Y-109225373D01*
X224826730Y-109225373D02*
X224750540Y-109301563D01*
X224750540Y-109301563D02*
X224712445Y-109377754D01*
X224712445Y-109377754D02*
X224674349Y-109530135D01*
X224674349Y-109530135D02*
X224674349Y-109644421D01*
X224674349Y-109644421D02*
X224712445Y-109796802D01*
X224712445Y-109796802D02*
X224750540Y-109872992D01*
X224750540Y-109872992D02*
X224826730Y-109949183D01*
X224826730Y-109949183D02*
X224941016Y-109987278D01*
X224941016Y-109987278D02*
X225131492Y-109987278D01*
X235950538Y-111275233D02*
X236217205Y-110894280D01*
X236407681Y-111275233D02*
X236407681Y-110475233D01*
X236407681Y-110475233D02*
X236102919Y-110475233D01*
X236102919Y-110475233D02*
X236026729Y-110513328D01*
X236026729Y-110513328D02*
X235988634Y-110551423D01*
X235988634Y-110551423D02*
X235950538Y-110627614D01*
X235950538Y-110627614D02*
X235950538Y-110741899D01*
X235950538Y-110741899D02*
X235988634Y-110818090D01*
X235988634Y-110818090D02*
X236026729Y-110856185D01*
X236026729Y-110856185D02*
X236102919Y-110894280D01*
X236102919Y-110894280D02*
X236407681Y-110894280D01*
X235607681Y-110856185D02*
X235341015Y-110856185D01*
X235226729Y-111275233D02*
X235607681Y-111275233D01*
X235607681Y-111275233D02*
X235607681Y-110475233D01*
X235607681Y-110475233D02*
X235226729Y-110475233D01*
X234502919Y-111275233D02*
X234883871Y-111275233D01*
X234883871Y-111275233D02*
X234883871Y-110475233D01*
X234236252Y-111199042D02*
X234198157Y-111237138D01*
X234198157Y-111237138D02*
X234236252Y-111275233D01*
X234236252Y-111275233D02*
X234274348Y-111237138D01*
X234274348Y-111237138D02*
X234236252Y-111199042D01*
X234236252Y-111199042D02*
X234236252Y-111275233D01*
X234236252Y-110779995D02*
X234198157Y-110818090D01*
X234198157Y-110818090D02*
X234236252Y-110856185D01*
X234236252Y-110856185D02*
X234274348Y-110818090D01*
X234274348Y-110818090D02*
X234236252Y-110779995D01*
X234236252Y-110779995D02*
X234236252Y-110856185D01*
X233283872Y-110551423D02*
X233245776Y-110513328D01*
X233245776Y-110513328D02*
X233169586Y-110475233D01*
X233169586Y-110475233D02*
X232979110Y-110475233D01*
X232979110Y-110475233D02*
X232902919Y-110513328D01*
X232902919Y-110513328D02*
X232864824Y-110551423D01*
X232864824Y-110551423D02*
X232826729Y-110627614D01*
X232826729Y-110627614D02*
X232826729Y-110703804D01*
X232826729Y-110703804D02*
X232864824Y-110818090D01*
X232864824Y-110818090D02*
X233321967Y-111275233D01*
X233321967Y-111275233D02*
X232826729Y-111275233D01*
X232331490Y-110475233D02*
X232255300Y-110475233D01*
X232255300Y-110475233D02*
X232179109Y-110513328D01*
X232179109Y-110513328D02*
X232141014Y-110551423D01*
X232141014Y-110551423D02*
X232102919Y-110627614D01*
X232102919Y-110627614D02*
X232064824Y-110779995D01*
X232064824Y-110779995D02*
X232064824Y-110970471D01*
X232064824Y-110970471D02*
X232102919Y-111122852D01*
X232102919Y-111122852D02*
X232141014Y-111199042D01*
X232141014Y-111199042D02*
X232179109Y-111237138D01*
X232179109Y-111237138D02*
X232255300Y-111275233D01*
X232255300Y-111275233D02*
X232331490Y-111275233D01*
X232331490Y-111275233D02*
X232407681Y-111237138D01*
X232407681Y-111237138D02*
X232445776Y-111199042D01*
X232445776Y-111199042D02*
X232483871Y-111122852D01*
X232483871Y-111122852D02*
X232521967Y-110970471D01*
X232521967Y-110970471D02*
X232521967Y-110779995D01*
X232521967Y-110779995D02*
X232483871Y-110627614D01*
X232483871Y-110627614D02*
X232445776Y-110551423D01*
X232445776Y-110551423D02*
X232407681Y-110513328D01*
X232407681Y-110513328D02*
X232331490Y-110475233D01*
X231760062Y-110551423D02*
X231721966Y-110513328D01*
X231721966Y-110513328D02*
X231645776Y-110475233D01*
X231645776Y-110475233D02*
X231455300Y-110475233D01*
X231455300Y-110475233D02*
X231379109Y-110513328D01*
X231379109Y-110513328D02*
X231341014Y-110551423D01*
X231341014Y-110551423D02*
X231302919Y-110627614D01*
X231302919Y-110627614D02*
X231302919Y-110703804D01*
X231302919Y-110703804D02*
X231341014Y-110818090D01*
X231341014Y-110818090D02*
X231798157Y-111275233D01*
X231798157Y-111275233D02*
X231302919Y-111275233D01*
X230579109Y-110475233D02*
X230960061Y-110475233D01*
X230960061Y-110475233D02*
X230998157Y-110856185D01*
X230998157Y-110856185D02*
X230960061Y-110818090D01*
X230960061Y-110818090D02*
X230883871Y-110779995D01*
X230883871Y-110779995D02*
X230693395Y-110779995D01*
X230693395Y-110779995D02*
X230617204Y-110818090D01*
X230617204Y-110818090D02*
X230579109Y-110856185D01*
X230579109Y-110856185D02*
X230541014Y-110932376D01*
X230541014Y-110932376D02*
X230541014Y-111122852D01*
X230541014Y-111122852D02*
X230579109Y-111199042D01*
X230579109Y-111199042D02*
X230617204Y-111237138D01*
X230617204Y-111237138D02*
X230693395Y-111275233D01*
X230693395Y-111275233D02*
X230883871Y-111275233D01*
X230883871Y-111275233D02*
X230960061Y-111237138D01*
X230960061Y-111237138D02*
X230998157Y-111199042D01*
X230198156Y-110970471D02*
X229588633Y-110970471D01*
X229055299Y-110475233D02*
X228979109Y-110475233D01*
X228979109Y-110475233D02*
X228902918Y-110513328D01*
X228902918Y-110513328D02*
X228864823Y-110551423D01*
X228864823Y-110551423D02*
X228826728Y-110627614D01*
X228826728Y-110627614D02*
X228788633Y-110779995D01*
X228788633Y-110779995D02*
X228788633Y-110970471D01*
X228788633Y-110970471D02*
X228826728Y-111122852D01*
X228826728Y-111122852D02*
X228864823Y-111199042D01*
X228864823Y-111199042D02*
X228902918Y-111237138D01*
X228902918Y-111237138D02*
X228979109Y-111275233D01*
X228979109Y-111275233D02*
X229055299Y-111275233D01*
X229055299Y-111275233D02*
X229131490Y-111237138D01*
X229131490Y-111237138D02*
X229169585Y-111199042D01*
X229169585Y-111199042D02*
X229207680Y-111122852D01*
X229207680Y-111122852D02*
X229245776Y-110970471D01*
X229245776Y-110970471D02*
X229245776Y-110779995D01*
X229245776Y-110779995D02*
X229207680Y-110627614D01*
X229207680Y-110627614D02*
X229169585Y-110551423D01*
X229169585Y-110551423D02*
X229131490Y-110513328D01*
X229131490Y-110513328D02*
X229055299Y-110475233D01*
X228102918Y-110741899D02*
X228102918Y-111275233D01*
X228293394Y-110437138D02*
X228483871Y-111008566D01*
X228483871Y-111008566D02*
X227988632Y-111008566D01*
X227683870Y-110970471D02*
X227074347Y-110970471D01*
X226274347Y-111275233D02*
X226731490Y-111275233D01*
X226502918Y-111275233D02*
X226502918Y-110475233D01*
X226502918Y-110475233D02*
X226579109Y-110589518D01*
X226579109Y-110589518D02*
X226655299Y-110665709D01*
X226655299Y-110665709D02*
X226731490Y-110703804D01*
X226007680Y-110475233D02*
X225512442Y-110475233D01*
X225512442Y-110475233D02*
X225779108Y-110779995D01*
X225779108Y-110779995D02*
X225664823Y-110779995D01*
X225664823Y-110779995D02*
X225588632Y-110818090D01*
X225588632Y-110818090D02*
X225550537Y-110856185D01*
X225550537Y-110856185D02*
X225512442Y-110932376D01*
X225512442Y-110932376D02*
X225512442Y-111122852D01*
X225512442Y-111122852D02*
X225550537Y-111199042D01*
X225550537Y-111199042D02*
X225588632Y-111237138D01*
X225588632Y-111237138D02*
X225664823Y-111275233D01*
X225664823Y-111275233D02*
X225893394Y-111275233D01*
X225893394Y-111275233D02*
X225969585Y-111237138D01*
X225969585Y-111237138D02*
X226007680Y-111199042D01*
D11*
X221688571Y-80574200D02*
X221574285Y-80612295D01*
X221574285Y-80612295D02*
X221383809Y-80612295D01*
X221383809Y-80612295D02*
X221307618Y-80574200D01*
X221307618Y-80574200D02*
X221269523Y-80536104D01*
X221269523Y-80536104D02*
X221231428Y-80459914D01*
X221231428Y-80459914D02*
X221231428Y-80383723D01*
X221231428Y-80383723D02*
X221269523Y-80307533D01*
X221269523Y-80307533D02*
X221307618Y-80269438D01*
X221307618Y-80269438D02*
X221383809Y-80231342D01*
X221383809Y-80231342D02*
X221536190Y-80193247D01*
X221536190Y-80193247D02*
X221612380Y-80155152D01*
X221612380Y-80155152D02*
X221650475Y-80117057D01*
X221650475Y-80117057D02*
X221688571Y-80040866D01*
X221688571Y-80040866D02*
X221688571Y-79964676D01*
X221688571Y-79964676D02*
X221650475Y-79888485D01*
X221650475Y-79888485D02*
X221612380Y-79850390D01*
X221612380Y-79850390D02*
X221536190Y-79812295D01*
X221536190Y-79812295D02*
X221345713Y-79812295D01*
X221345713Y-79812295D02*
X221231428Y-79850390D01*
X220431427Y-80536104D02*
X220469523Y-80574200D01*
X220469523Y-80574200D02*
X220583808Y-80612295D01*
X220583808Y-80612295D02*
X220659999Y-80612295D01*
X220659999Y-80612295D02*
X220774285Y-80574200D01*
X220774285Y-80574200D02*
X220850475Y-80498009D01*
X220850475Y-80498009D02*
X220888570Y-80421819D01*
X220888570Y-80421819D02*
X220926666Y-80269438D01*
X220926666Y-80269438D02*
X220926666Y-80155152D01*
X220926666Y-80155152D02*
X220888570Y-80002771D01*
X220888570Y-80002771D02*
X220850475Y-79926580D01*
X220850475Y-79926580D02*
X220774285Y-79850390D01*
X220774285Y-79850390D02*
X220659999Y-79812295D01*
X220659999Y-79812295D02*
X220583808Y-79812295D01*
X220583808Y-79812295D02*
X220469523Y-79850390D01*
X220469523Y-79850390D02*
X220431427Y-79888485D01*
X220088570Y-80612295D02*
X220088570Y-79812295D01*
X219631427Y-80612295D02*
X219974285Y-80155152D01*
X219631427Y-79812295D02*
X220088570Y-80269438D01*
X227549523Y-74540390D02*
X227625713Y-74502295D01*
X227625713Y-74502295D02*
X227739999Y-74502295D01*
X227739999Y-74502295D02*
X227854285Y-74540390D01*
X227854285Y-74540390D02*
X227930475Y-74616580D01*
X227930475Y-74616580D02*
X227968570Y-74692771D01*
X227968570Y-74692771D02*
X228006666Y-74845152D01*
X228006666Y-74845152D02*
X228006666Y-74959438D01*
X228006666Y-74959438D02*
X227968570Y-75111819D01*
X227968570Y-75111819D02*
X227930475Y-75188009D01*
X227930475Y-75188009D02*
X227854285Y-75264200D01*
X227854285Y-75264200D02*
X227739999Y-75302295D01*
X227739999Y-75302295D02*
X227663808Y-75302295D01*
X227663808Y-75302295D02*
X227549523Y-75264200D01*
X227549523Y-75264200D02*
X227511427Y-75226104D01*
X227511427Y-75226104D02*
X227511427Y-74959438D01*
X227511427Y-74959438D02*
X227663808Y-74959438D01*
X227168570Y-75302295D02*
X227168570Y-74502295D01*
X227168570Y-74502295D02*
X226711427Y-75302295D01*
X226711427Y-75302295D02*
X226711427Y-74502295D01*
X226330475Y-75302295D02*
X226330475Y-74502295D01*
X226330475Y-74502295D02*
X226139999Y-74502295D01*
X226139999Y-74502295D02*
X226025713Y-74540390D01*
X226025713Y-74540390D02*
X225949523Y-74616580D01*
X225949523Y-74616580D02*
X225911428Y-74692771D01*
X225911428Y-74692771D02*
X225873332Y-74845152D01*
X225873332Y-74845152D02*
X225873332Y-74959438D01*
X225873332Y-74959438D02*
X225911428Y-75111819D01*
X225911428Y-75111819D02*
X225949523Y-75188009D01*
X225949523Y-75188009D02*
X226025713Y-75264200D01*
X226025713Y-75264200D02*
X226139999Y-75302295D01*
X226139999Y-75302295D02*
X226330475Y-75302295D01*
X220947142Y-74592295D02*
X220947142Y-73792295D01*
X220947142Y-73792295D02*
X220680476Y-74363723D01*
X220680476Y-74363723D02*
X220413809Y-73792295D01*
X220413809Y-73792295D02*
X220413809Y-74592295D01*
X220032856Y-74592295D02*
X220032856Y-73792295D01*
X219690000Y-74554200D02*
X219575714Y-74592295D01*
X219575714Y-74592295D02*
X219385238Y-74592295D01*
X219385238Y-74592295D02*
X219309047Y-74554200D01*
X219309047Y-74554200D02*
X219270952Y-74516104D01*
X219270952Y-74516104D02*
X219232857Y-74439914D01*
X219232857Y-74439914D02*
X219232857Y-74363723D01*
X219232857Y-74363723D02*
X219270952Y-74287533D01*
X219270952Y-74287533D02*
X219309047Y-74249438D01*
X219309047Y-74249438D02*
X219385238Y-74211342D01*
X219385238Y-74211342D02*
X219537619Y-74173247D01*
X219537619Y-74173247D02*
X219613809Y-74135152D01*
X219613809Y-74135152D02*
X219651904Y-74097057D01*
X219651904Y-74097057D02*
X219690000Y-74020866D01*
X219690000Y-74020866D02*
X219690000Y-73944676D01*
X219690000Y-73944676D02*
X219651904Y-73868485D01*
X219651904Y-73868485D02*
X219613809Y-73830390D01*
X219613809Y-73830390D02*
X219537619Y-73792295D01*
X219537619Y-73792295D02*
X219347142Y-73792295D01*
X219347142Y-73792295D02*
X219232857Y-73830390D01*
X218737618Y-73792295D02*
X218585237Y-73792295D01*
X218585237Y-73792295D02*
X218509047Y-73830390D01*
X218509047Y-73830390D02*
X218432856Y-73906580D01*
X218432856Y-73906580D02*
X218394761Y-74058961D01*
X218394761Y-74058961D02*
X218394761Y-74325628D01*
X218394761Y-74325628D02*
X218432856Y-74478009D01*
X218432856Y-74478009D02*
X218509047Y-74554200D01*
X218509047Y-74554200D02*
X218585237Y-74592295D01*
X218585237Y-74592295D02*
X218737618Y-74592295D01*
X218737618Y-74592295D02*
X218813809Y-74554200D01*
X218813809Y-74554200D02*
X218889999Y-74478009D01*
X218889999Y-74478009D02*
X218928095Y-74325628D01*
X218928095Y-74325628D02*
X218928095Y-74058961D01*
X218928095Y-74058961D02*
X218889999Y-73906580D01*
X218889999Y-73906580D02*
X218813809Y-73830390D01*
X218813809Y-73830390D02*
X218737618Y-73792295D01*
X228109523Y-80242295D02*
X227652380Y-80242295D01*
X227880952Y-81042295D02*
X227880952Y-80242295D01*
X227461904Y-80242295D02*
X226928570Y-81042295D01*
X226928570Y-80242295D02*
X227461904Y-81042295D01*
X217777142Y-77942295D02*
X217777142Y-77142295D01*
X217777142Y-77142295D02*
X217510476Y-77713723D01*
X217510476Y-77713723D02*
X217243809Y-77142295D01*
X217243809Y-77142295D02*
X217243809Y-77942295D01*
X216710475Y-77142295D02*
X216558094Y-77142295D01*
X216558094Y-77142295D02*
X216481904Y-77180390D01*
X216481904Y-77180390D02*
X216405713Y-77256580D01*
X216405713Y-77256580D02*
X216367618Y-77408961D01*
X216367618Y-77408961D02*
X216367618Y-77675628D01*
X216367618Y-77675628D02*
X216405713Y-77828009D01*
X216405713Y-77828009D02*
X216481904Y-77904200D01*
X216481904Y-77904200D02*
X216558094Y-77942295D01*
X216558094Y-77942295D02*
X216710475Y-77942295D01*
X216710475Y-77942295D02*
X216786666Y-77904200D01*
X216786666Y-77904200D02*
X216862856Y-77828009D01*
X216862856Y-77828009D02*
X216900952Y-77675628D01*
X216900952Y-77675628D02*
X216900952Y-77408961D01*
X216900952Y-77408961D02*
X216862856Y-77256580D01*
X216862856Y-77256580D02*
X216786666Y-77180390D01*
X216786666Y-77180390D02*
X216710475Y-77142295D01*
X216062857Y-77904200D02*
X215948571Y-77942295D01*
X215948571Y-77942295D02*
X215758095Y-77942295D01*
X215758095Y-77942295D02*
X215681904Y-77904200D01*
X215681904Y-77904200D02*
X215643809Y-77866104D01*
X215643809Y-77866104D02*
X215605714Y-77789914D01*
X215605714Y-77789914D02*
X215605714Y-77713723D01*
X215605714Y-77713723D02*
X215643809Y-77637533D01*
X215643809Y-77637533D02*
X215681904Y-77599438D01*
X215681904Y-77599438D02*
X215758095Y-77561342D01*
X215758095Y-77561342D02*
X215910476Y-77523247D01*
X215910476Y-77523247D02*
X215986666Y-77485152D01*
X215986666Y-77485152D02*
X216024761Y-77447057D01*
X216024761Y-77447057D02*
X216062857Y-77370866D01*
X216062857Y-77370866D02*
X216062857Y-77294676D01*
X216062857Y-77294676D02*
X216024761Y-77218485D01*
X216024761Y-77218485D02*
X215986666Y-77180390D01*
X215986666Y-77180390D02*
X215910476Y-77142295D01*
X215910476Y-77142295D02*
X215719999Y-77142295D01*
X215719999Y-77142295D02*
X215605714Y-77180390D01*
X215262856Y-77942295D02*
X215262856Y-77142295D01*
X214564285Y-79926104D02*
X214602381Y-79964200D01*
X214602381Y-79964200D02*
X214716666Y-80002295D01*
X214716666Y-80002295D02*
X214792857Y-80002295D01*
X214792857Y-80002295D02*
X214907143Y-79964200D01*
X214907143Y-79964200D02*
X214983333Y-79888009D01*
X214983333Y-79888009D02*
X215021428Y-79811819D01*
X215021428Y-79811819D02*
X215059524Y-79659438D01*
X215059524Y-79659438D02*
X215059524Y-79545152D01*
X215059524Y-79545152D02*
X215021428Y-79392771D01*
X215021428Y-79392771D02*
X214983333Y-79316580D01*
X214983333Y-79316580D02*
X214907143Y-79240390D01*
X214907143Y-79240390D02*
X214792857Y-79202295D01*
X214792857Y-79202295D02*
X214716666Y-79202295D01*
X214716666Y-79202295D02*
X214602381Y-79240390D01*
X214602381Y-79240390D02*
X214564285Y-79278485D01*
X214259524Y-79964200D02*
X214145238Y-80002295D01*
X214145238Y-80002295D02*
X213954762Y-80002295D01*
X213954762Y-80002295D02*
X213878571Y-79964200D01*
X213878571Y-79964200D02*
X213840476Y-79926104D01*
X213840476Y-79926104D02*
X213802381Y-79849914D01*
X213802381Y-79849914D02*
X213802381Y-79773723D01*
X213802381Y-79773723D02*
X213840476Y-79697533D01*
X213840476Y-79697533D02*
X213878571Y-79659438D01*
X213878571Y-79659438D02*
X213954762Y-79621342D01*
X213954762Y-79621342D02*
X214107143Y-79583247D01*
X214107143Y-79583247D02*
X214183333Y-79545152D01*
X214183333Y-79545152D02*
X214221428Y-79507057D01*
X214221428Y-79507057D02*
X214259524Y-79430866D01*
X214259524Y-79430866D02*
X214259524Y-79354676D01*
X214259524Y-79354676D02*
X214221428Y-79278485D01*
X214221428Y-79278485D02*
X214183333Y-79240390D01*
X214183333Y-79240390D02*
X214107143Y-79202295D01*
X214107143Y-79202295D02*
X213916666Y-79202295D01*
X213916666Y-79202295D02*
X213802381Y-79240390D01*
X213040476Y-80002295D02*
X213497619Y-80002295D01*
X213269047Y-80002295D02*
X213269047Y-79202295D01*
X213269047Y-79202295D02*
X213345238Y-79316580D01*
X213345238Y-79316580D02*
X213421428Y-79392771D01*
X213421428Y-79392771D02*
X213497619Y-79430866D01*
X227553332Y-78792295D02*
X227819999Y-78411342D01*
X228010475Y-78792295D02*
X228010475Y-77992295D01*
X228010475Y-77992295D02*
X227705713Y-77992295D01*
X227705713Y-77992295D02*
X227629523Y-78030390D01*
X227629523Y-78030390D02*
X227591428Y-78068485D01*
X227591428Y-78068485D02*
X227553332Y-78144676D01*
X227553332Y-78144676D02*
X227553332Y-78258961D01*
X227553332Y-78258961D02*
X227591428Y-78335152D01*
X227591428Y-78335152D02*
X227629523Y-78373247D01*
X227629523Y-78373247D02*
X227705713Y-78411342D01*
X227705713Y-78411342D02*
X228010475Y-78411342D01*
X227286666Y-77992295D02*
X226753332Y-78792295D01*
X226753332Y-77992295D02*
X227286666Y-78792295D01*
D12*
%TO.C,TP8*%
X221360000Y-78700000D02*
G75*
G02*
X219960000Y-78700000I-700000J0D01*
G01*
X219960000Y-78700000D02*
G75*
G02*
X221360000Y-78700000I700000J0D01*
G01*
%TO.C,TP4*%
X226210000Y-75580000D02*
X226210000Y-76980000D01*
X226210000Y-76980000D02*
X227610000Y-76980000D01*
X227610000Y-75580000D02*
X226210000Y-75580000D01*
X227610000Y-76980000D02*
X227610000Y-75580000D01*
%TO.C,TP12*%
X220380000Y-75650000D02*
G75*
G02*
X218980000Y-75650000I-700000J0D01*
G01*
X218980000Y-75650000D02*
G75*
G02*
X220380000Y-75650000I700000J0D01*
G01*
%TO.C,TP10*%
X230010000Y-80680000D02*
G75*
G02*
X228610000Y-80680000I-700000J0D01*
G01*
X228610000Y-80680000D02*
G75*
G02*
X230010000Y-80680000I700000J0D01*
G01*
%TO.C,TP9*%
X219700000Y-77590000D02*
G75*
G02*
X218300000Y-77590000I-700000J0D01*
G01*
X218300000Y-77590000D02*
G75*
G02*
X219700000Y-77590000I700000J0D01*
G01*
%TO.C,TP13*%
X214750000Y-78090000D02*
G75*
G02*
X213350000Y-78090000I-700000J0D01*
G01*
X213350000Y-78090000D02*
G75*
G02*
X214750000Y-78090000I700000J0D01*
G01*
%TO.C,TP14*%
X230050000Y-78430000D02*
G75*
G02*
X228650000Y-78430000I-700000J0D01*
G01*
X228650000Y-78430000D02*
G75*
G02*
X230050000Y-78430000I700000J0D01*
G01*
%TD*%
%LPC*%
D13*
%TO.C,H3*%
X194850000Y-110100000D03*
%TD*%
%TO.C,H1*%
X194900000Y-65200000D03*
%TD*%
D14*
%TO.C,J2*%
X197400000Y-85000000D03*
X197400000Y-90780000D03*
D15*
X197930000Y-83570000D03*
D16*
X193750000Y-83570000D03*
D15*
X197930000Y-92210000D03*
D16*
X193750000Y-92210000D03*
%TD*%
D13*
%TO.C,H2*%
X239800000Y-65200000D03*
%TD*%
D17*
%TO.C,SW1*%
X215165000Y-110737500D03*
X219415000Y-110737500D03*
%TD*%
D18*
%TO.C,J10*%
X198600000Y-111250000D03*
D19*
X198600000Y-108250000D03*
%TD*%
D20*
%TO.C,TP8*%
X220660000Y-78700000D03*
%TD*%
D21*
%TO.C,TP4*%
X226910000Y-76280000D03*
%TD*%
D13*
%TO.C,H4*%
X239772500Y-109727500D03*
%TD*%
D20*
%TO.C,TP12*%
X219680000Y-75650000D03*
%TD*%
%TO.C,TP10*%
X229310000Y-80680000D03*
%TD*%
%TO.C,TP9*%
X219000000Y-77590000D03*
%TD*%
%TO.C,TP13*%
X214050000Y-78090000D03*
%TD*%
%TO.C,TP14*%
X229350000Y-78430000D03*
%TD*%
%LPD*%
M02*
